<?xml version="1.0" encoding="UTF-8"?>
<svg id="Layer_2" data-name="Layer 2" xmlns="http://www.w3.org/2000/svg" viewBox="0 6 174.24 237.57">
  <defs>
    <style>
      .cls-1 {
        fill: #252223;
      }

      .cls-2 {
        fill: #272324;
      }

      .cls-3 {
        fill: #fff;
      }

      .cls-4 {
        fill: #fdfdfd;
      }

      .cls-5 {
        fill: #caccce;
      }

      .cls-6 {
        fill: #262324;
      }

      .cls-7 {
        fill: #c7c9cb;
      }

      .cls-8 {
        fill: #909294;
      }

      .cls-9 {
        fill: #282526;
      }
    </style>
  </defs>
  <g id="Layer_1-2" data-name="Layer 1">
    <g>
      <path class="cls-4" d="M6.24,237.33c.21.07.21.15,0,.24H0v-5.52c1.05,2.73,3.21,4.95,6.24,5.28Z"/>
      <path class="cls-4" d="M174.24,232.05v5.52h-5.76c2.75-.89,5.18-2.36,5.52-5.52.07-.21.15-.21.24,0Z"/>
      <path class="cls-5" d="M8.16,237.33v.24h-1.92v-.24c.51.06,1.41.06,1.92,0Z"/>
      <path class="cls-7" d="M174.24,232.05h-.24c.06-.54-.04-1.13,0-1.68h.24v1.68Z"/>
      <path class="cls-8" d="M168.24,237.57h-1.44c.24-.39,1.21-.39,1.44,0Z"/>
      <path class="cls-6" d="M31.68,107l6.24,2.52-14.39,11.16-2.4-18,6.24,2.4,25.21-62.4c.19-.16,4.53,1.55,4.55,1.8l-25.43,62.52Z"/>
      <path class="cls-6" d="M121.67,42.69l25.21,62.39,6.48-2.4-2.76,17.99-14.28-11.04,2.65-1.31,3.59-1.34v-.34s-25.17-62.14-25.17-62.14c.13-.44,4.07-1.99,4.29-1.83Z"/>
      <path class="cls-6" d="M113.04,25.41h11.88s.36.33.36.36v4.2h-17.64c-.51-.65-1.75-3.17-1.45-3.83,3.27-3.81,7.14-7.47,10.2-11.42,1.96-2.53,5.6-7.82,1.06-9.92-4.08-1.89-6.98,1.9-8.37,5.25-.49-.48-3.48-1.86-3.39-2.41,1.65-7.89,14.17-10.83,17.84-3.16s-6.15,15.55-10.49,20.93Z"/>
      <path class="cls-2" d="M63.36,27.33h4.44s.36.33.36.36v4.2h-14.16v-4.56h4.56V8.13c-.81,0-3.84,2.34-4.32,1.92l-.93-4.05,7.64-4c.42-.2,2.41-.25,2.41.25v25.08Z"/>
      <polygon class="cls-6" points="106.32 163.24 122.15 172.12 106.32 181.48 106.32 174.52 71.76 174.4 71.76 169.96 106.32 169.96 106.32 163.24"/>
      <path class="cls-6" d="M63.15,173.76c1.67.97,2.65,3.3,2.84,5.2.88,8.56-8.38,13.21-14.97,8.01-1.45-1.15-4.73-5.21-1.39-5.95,2.22-.49,3.07,2.57,5.03,3.51,5.93,2.85,9.9-4.98,5.48-8.12-1.95-1.39-5.9.25-6.14-2.52-.35-4.14,5.86-.49,7.23-4.55,1.5-4.45-3.63-7.79-7.19-4.55-1.34,1.22-1.72,4.39-4.28,3.27-2.69-1.17.78-5.72,2.22-6.78,8.28-6.12,18.27,4.66,11.16,12.13v.34Z"/>
      <polygon class="cls-3" points="131.04 155.73 43.2 155.73 86.04 39.8 131.04 155.73"/>
    </g>
    <g id="Layer_1-2" data-name="Layer 1-2">
      <g>
        <path class="cls-1" d="M91.43,16.87c3.74,1.67,4.54,6.04,5.94,9.54,26.42,65.83,50.47,132.66,76.32,198.72.99,6.69-8.46,9.45-11.67,3.75l-25.15-65.55c-1.91-2.09-1.96-5.88-2.78-8.76-1.08-3.77-2.63-7.52-4.86-10.74l-41.22-108.06-1.26-2.58-44.98,117.52c-.23.38.5.3.46.44-3.42,5.17-6.4,10.91-7.08,17.17l-22.95,60.33c-2.83,4.9-9.46,4.19-11.73-.81v-3.84L78.05,22.57c.79-2.61,2.08-4.41,4.5-5.7h8.88Z"/>
        <path class="cls-9" d="M138.74,135.67c-.93-1.64-1.72-3.36-2.29-5.2-.16-.51-.16-.97-.04-1.37-.08,0-.15-.01-.23-.01-2.56.02-5.14.54-7.93.51-29.97-.35-60.01-.28-90.01-.23-.45.02-.22-.53-.67-.5-.18.01-.37.03-.57.06,0,.02-.02.04-.03.06-1.14,4.53-2.71,8.89-4.92,13.02.36.04.71.06,1.04.06l.54-.07c32.88-.15,65.88-.24,98.99-.28-.44.18.18.56.55.59h.48l5.91-1.17c.2-.04.4-.05.59-.08-.84-1.62-1.32-3.44-1.43-5.4h.02Z"/>
      </g>
    </g>
  </g>
</svg>