<?xml version="1.0" encoding="UTF-8"?>
<svg id="Layer_2" data-name="Layer 2" xmlns="http://www.w3.org/2000/svg" viewBox="0 0 157.46 259.79">
  <defs>
    <style>
      .cls-1, .cls-2 {
        fill: #231f20;
      }

      .cls-3 {
        fill: #fff;
      }

      .cls-4 {
        stroke: #231f20;
        stroke-miterlimit: 10;
        stroke-width: 2.25px;
      }

      .cls-4, .cls-5 {
        fill: #262324;
      }

      .cls-2 {
        font-family: LexendDeca-Regular, 'Lexend Deca';
        font-size: 42px;
      }
    </style>
  </defs>
  <g id="Layer_1-2" data-name="Layer 1">
    <g>
      <path class="cls-5" d="M120.24,144.43l15.28,8.15c21.98,16.18,26.27,45.79,18.08,70.69-16.89,51.33-88.1,32.27-128.63,36.04l-3.04-.95-.5-213.41,3.54-1.45c24.8,1.67,52.21-2.14,76.7.17,51.41,4.86,62.29,77.53,18.58,100.75Z"/>
      <path class="cls-3" d="M31.49,246.28v-93.88h71.29c31.3,0,47.85,34.07,40.89,61.93-3.93,15.72-20.06,31.95-36.9,31.95H31.49Z"/>
      <path class="cls-3" d="M31.49,140.42V55.54h65.31c28.52,0,44.89,30.77,36.17,56.21-4.61,13.47-21.52,28.68-36.17,28.68H31.49Z"/>
    </g>
    <path class="cls-1" d="M13.73,170.27h6.82s-9.08,15.77-9.08,15.77l-9.13-15.75h6.83s-.13-110.61-.13-110.61h4.57s.13,110.59.13,110.59ZM57.58,27.33l-.73-4.5c1.99-.32,47.92-7.45,74.1,13.76l5.22-4.51,3.42,17.89-17.2-5.98,5.06-4.38c-24.78-19.32-69.41-12.36-69.87-12.29ZM127.36,176.27l2.57,18.03-16.9-6.78,5.25-4.12c-19.82-17.35-50.62-11.96-50.94-11.9l-.83-4.48c1.42-.27,33.98-5.99,55.43,13.52l5.42-4.26Z"/>
    <path class="cls-4" d="M53.71,171.39c-.05.06-.03.19.08.28.32.25.9.45,1.33.8,3.31,2.73,3.48,8.09.81,11.32-3.26,3.96-9.63,3.53-12.95-.13-.46-.51-2.24-2.55-.91-2.94.97-.29,1.59,1.28,2.19,1.93,1.18,1.28,2.91,2.2,4.66,2.35,8.86.79,9.82-11.92,1.59-12.66-.54-.05-2.49.18-2.75-.23-1.18-1.87,2.78-1.32,3.55-1.43,2.13-.29,4.07-2.35,4.28-4.48.65-6.44-6.89-9.01-10.78-4.18-.38.47-1.3,2.38-1.58,2.47-.52.16-1.11-.15-1.11-.72,0-.19.79-1.73.96-2,2.42-3.86,8.21-5.09,11.71-1.91,2.92,2.65,3.26,7.94.27,10.65-.27.24-1.3.82-1.35.88Z"/>
    <text class="cls-2" transform="translate(0 42.91)"><tspan x="0" y="0">1</tspan></text>
    <text class="cls-2" transform="translate(33.42 35.7)"><tspan x="0" y="0">2</tspan></text>
  </g>
</svg>