<?xml version="1.0" encoding="UTF-8"?>
<svg id="Layer_2" data-name="Layer 2" xmlns="http://www.w3.org/2000/svg" viewBox="0 0 162.43 253.51">
  <defs>
    <style>
      .cls-1 {
        fill: none;
        stroke: #000;
        stroke-linecap: round;
        stroke-linejoin: round;
        stroke-width: 12px;
      }

      .cls-2, .cls-3 {
        fill: #231f20;
      }

      .cls-4 {
        stroke-width: 2.25px;
      }

      .cls-4, .cls-5 {
        fill: #262324;
        stroke: #231f20;
        stroke-miterlimit: 10;
      }

      .cls-5 {
        stroke-width: 2.5px;
      }

      .cls-3 {
        font-family: LexendDeca-Regular, 'Lexend Deca';
        font-size: 42px;
      }
    </style>
  </defs>
  <g id="Layer_1-2" data-name="Layer 1">
    <path class="cls-4" d="M61.52,118.18c-.05.06-.03.19.08.28.32.25.9.45,1.33.8,3.31,2.73,3.48,8.09.81,11.32-3.26,3.96-9.63,3.53-12.95-.13-.46-.51-2.24-2.55-.91-2.94.97-.29,1.59,1.28,2.19,1.93,1.18,1.28,2.91,2.2,4.66,2.35,8.86.79,9.82-11.92,1.59-12.66-.54-.05-2.49.18-2.75-.23-1.18-1.87,2.78-1.32,3.55-1.43,2.13-.29,4.07-2.35,4.28-4.48.65-6.44-6.89-9.01-10.78-4.18-.38.47-1.3,2.38-1.58,2.47-.52.16-1.11-.15-1.11-.72,0-.19.79-1.73.96-2,2.42-3.86,8.21-5.09,11.71-1.91,2.92,2.65,3.26,7.94.27,10.65-.27.24-1.3.82-1.35.88Z"/>
    <text class="cls-3" transform="translate(0 43.42)"><tspan x="0" y="0">1</tspan></text>
    <text class="cls-3" transform="translate(26.83 35.7)"><tspan x="0" y="0">2</tspan></text>
    <path class="cls-2" d="M11.39,166.52h6.82s-9.08,15.77-9.08,15.77l-9.13-15.75h6.83s-.13-110.61-.13-110.61h4.57s.13,110.59.13,110.59ZM57.5,23.48l83.94-.13v-6.83s15.77,9.08,15.77,9.08l-15.75,9.13v-6.82s-83.95.13-83.95.13v-4.57ZM76.47,119.13l20.93-.09-.03-6.83,15.8,9.04-15.73,9.17-.03-6.82-20.93.09-.02-4.56ZM77.24,219.32l64.95-.12v-6.83s15.78,9.08,15.78,9.08l-15.75,9.13v-6.82s-64.96.12-64.96.12v-4.57Z"/>
    <path class="cls-5" d="M51.31,220.38h11.46v-12.47c0-.94,1.75-.93,1.75-.27v12.74h3.71c.8,0,.71,1.89-.13,1.89h-3.57c.27,4.19.07,8.41.14,12.61-.05,1.1-1.62,1.35-1.76.13-.35-3.09.13-7.03,0-10.25-.03-.79-.26-1.65-.14-2.49h-12.47c-.07,0-1.06-.82-.87-1.13l2.22-13.56c.82-.9,1.76-.25,1.55.87l-1.89,11.93Z"/>
    <g>
      <path class="cls-1" d="M156.43,50.74c-39.1-1.12-78.21-.2-117.31-.5-1,0-2.02-.13-2.99.02-4.5.69-7.11.95-7.06,7.47.17,25.8-.44,51.62.3,77.4.33,11.53-.69,22.97-.32,34.47.37,11.47.08,22.97.08,34.45s.08,22.97-.03,34.46c-.06,6.15-.23,9.02,9.02,9.01,35.94-.05,71.88-.03,107.82,0,2.54,0,4.99-.55,7.49-.77"/>
      <path class="cls-1" d="M138.46,145.12c-35.77,1.07-71.55.23-107.32.5"/>
    </g>
  </g>
</svg>