<?xml version="1.0" encoding="UTF-8"?>
<svg id="Layer_2" data-name="Layer 2" xmlns="http://www.w3.org/2000/svg" viewBox="0 0 190.27 237.46">
  <defs>
    <style>
      .cls-1, .cls-2 {
        fill: #231f20;
      }

      .cls-3 {
        fill: #010101;
      }

      .cls-2 {
        font-family: LexendDeca-Regular, 'Lexend Deca';
        font-size: 42px;
      }
    </style>
  </defs>
  <g id="Layer_1-2" data-name="Layer 1">
    <path class="cls-1" d="M25.42,52.84l-15.48,9.6-.57-18.2,6.07,3.25C35.12,17.85,67.04,10.86,84.6,9.36c25.32-2.14,51.02,4.58,61.1,15.97l-3.42,3.02c-7.89-8.92-30.11-16.75-57.3-14.45-16.64,1.41-46.86,8.01-65.51,35.74l5.94,3.19ZM142.28,110.95l20.92-.09-.03-6.82,15.8,9.04-15.73,9.17-.03-6.83-20.92.09-.02-4.57Z"/>
    <text class="cls-2" transform="translate(145.71 35.7)"><tspan x="0" y="0">1</tspan></text>
    <text class="cls-2" transform="translate(113.07 124.58)"><tspan x="0" y="0">2</tspan></text>
    <path class="cls-3" d="M178.22,141.41h-76.99c-2.34,0-7.14-10.46,2.89-11.64,25.63,2.03,55.27-2.65,80.41.02,4.84.51,4.96,1.63,5.35,6.26,3.68,43.83-19.14,87.63-63.76,98.09C43.25,253.53-16.27,185.45,3.98,105.15,21.95,33.91,109.72,8.7,163.71,57.59c4.56,4.13,15.84,13.69,7.12,18.79-5.86,3.43-13.84-8.68-18.3-12.45C109.13,27.27,42.71,43.6,20.51,95.53c-30.48,71.31,24.37,146.53,102.71,126.97,37.38-9.33,55.94-44.27,55-81.09Z"/>
  </g>
</svg>