<?xml version="1.0" encoding="UTF-8"?>
<svg id="Layer_2" data-name="Layer 2" xmlns="http://www.w3.org/2000/svg" viewBox="0 0 74.95 286.12">
  <defs>
    <style>
      .cls-1, .cls-2 {
        fill: #231f20;
      }

      .cls-3 {
        fill: #262324;
        stroke: #231f20;
        stroke-miterlimit: 10;
        stroke-width: 2.25px;
      }

      .cls-4 {
        fill: #010101;
      }

      .cls-2 {
        font-family: LexendDeca-Regular, 'Lexend Deca';
        font-size: 42px;
      }
    </style>
  </defs>
  <g id="Layer_1-2" data-name="Layer 1">
    <path class="cls-1" d="M17.71,198.44l-9.13-15.75h6.82s-.12-87.78-.12-87.78h4.57s.12,87.76.12,87.76h6.83s-9.08,15.77-9.08,15.77ZM35.39,21.37l14.43-.07-.03-6.83,15.81,9.03-15.72,9.18-.03-6.82-14.43.07-.03-4.57ZM49.79,257.22l15.81,9.03-15.72,9.18-.03-6.82-14.43.07-.03-4.57,14.43-.07-.03-6.83Z"/>
    <text class="cls-2" transform="translate(6.44 87.44)"><tspan x="0" y="0">1</tspan></text>
    <text class="cls-2" transform="translate(10.09 35.7)"><tspan x="0" y="0">2</tspan></text>
    <path class="cls-3" d="M25.63,269.79c-.05.06-.03.19.08.28.32.25.9.45,1.33.8,3.31,2.73,3.48,8.09.81,11.32-3.26,3.96-9.63,3.53-12.95-.13-.46-.51-2.24-2.55-.91-2.94.97-.29,1.59,1.28,2.19,1.93,1.18,1.28,2.91,2.2,4.66,2.35,8.86.79,9.82-11.92,1.59-12.66-.54-.05-2.49.18-2.75-.23-1.18-1.87,2.78-1.32,3.55-1.43,2.13-.29,4.07-2.35,4.28-4.48.65-6.44-6.89-9.01-10.78-4.18-.38.47-1.3,2.38-1.58,2.47-.52.16-1.11-.15-1.11-.72,0-.19.79-1.73.96-2,2.42-3.86,8.21-5.09,11.71-1.91,2.92,2.65,3.26,7.94.27,10.65-.27.24-1.3.82-1.35.88Z"/>
    <path class="cls-4" d="M42.94,53.97v184.77h28.45c2.81,0,6.45,10.47-.19,11.74-20.63-1.12-44.51,2.31-64.76.3-10.04-1-5.95-12.04-2.94-12.04h28.45V53.97H4.5c-3.89,0-8.63-11.03,1.93-12.05l64.96.06c5.78,1.39,3.8,11.99-1,11.99h-27.46Z"/>
  </g>
</svg>