<?xml version="1.0" encoding="UTF-8"?>
<svg id="Layer_2" data-name="Layer 2" xmlns="http://www.w3.org/2000/svg" viewBox="0 -12 143.36 247.46">
  <defs>
    <style>
      .cls-1, .cls-2 {
        fill: #231f20;
      }

      .cls-2 {
        font-family: LexendDeca-Regular, 'Lexend Deca';
        font-size: 42px;
      }
    </style>
  </defs>
  <g id="Layer_1-2" data-name="Layer 1">
    <path class="cls-1" d="M13.91,152.94h6.82s-9.08,15.77-9.08,15.77l-9.13-15.75h6.83s-.13-110.61-.13-110.61h4.57s.13,110.59.13,110.59ZM76.79,205.74l48.24-.11v-6.82s15.78,9.07,15.78,9.07l-15.75,9.14v-6.82s-48.25.11-48.25.11v-4.57Z"/>
    <text class="cls-2" transform="translate(0 35.7)"><tspan x="0" y="0">1</tspan></text>
    <text class="cls-2" transform="translate(46.67 217.01)"><tspan x="0" y="0">2</tspan></text>
    <g id="Layer_1-2" data-name="Layer 1-2">
      <g>
        <path class="cls-1" d="M32.21,234.22c-2.45,0-4.44-1.95-4.44-4.35V32.55c0-2.48,2.06-4.49,4.59-4.49s4.48,1.96,4.48,4.38v191.03c0,1.04.89,1.88,1.98,1.88h98.88c2.45,0,4.44,1.95,4.44,4.35v.17c0,2.4-1.99,4.35-4.44,4.35H32.21Z"/>
        <path class="cls-1" d="M32.36,29.29c1.79,0,3.25,1.41,3.25,3.15v191.03c0,1.72,1.44,3.12,3.21,3.12h98.88c1.77,0,3.21,1.4,3.21,3.12v.17c0,1.72-1.44,3.12-3.21,3.12H32.21c-1.77,0-3.21-1.4-3.21-3.12V32.55c0-1.8,1.5-3.25,3.35-3.25M32.36,26.83c-3.21,0-5.82,2.56-5.82,5.72v197.33c0,3.08,2.55,5.58,5.67,5.58h105.48c3.13,0,5.67-2.5,5.67-5.58v-.17c0-3.08-2.55-5.58-5.67-5.58H38.81c-.41,0-.75-.29-.75-.65V32.44c0-3.09-2.56-5.61-5.71-5.61h0Z"/>
      </g>
    </g>
  </g>
</svg>