<?xml version="1.0" encoding="UTF-8"?>
<svg id="Layer_2" data-name="Layer 2" xmlns="http://www.w3.org/2000/svg" viewBox="0 0 147.09 224.32">
  <defs>
    <style>
      .cls-1, .cls-2 {
        fill: #231f20;
      }

      .cls-2 {
        font-family: LexendDeca-Regular, 'Lexend Deca';
        font-size: 42px;
      }
    </style>
  </defs>
  <g id="Layer_1-2" data-name="Layer 1">
    <path class="cls-1" d="M16.65,38.78L0,46.14l1.94-18.1,5.5,4.01C22.15,15.51,43.73,6.11,68.64,5.66c23.57-.53,47.12,7.35,57.44,18.9l-3.41,3.04c-8.02-8.98-29.12-17.89-53.95-17.38-23.45.42-43.74,9.16-57.58,24.53l5.51,4.02Z"/>
    <text class="cls-2" transform="translate(126.09 35.7)"><tspan x="0" y="0">1</tspan></text>
    <g id="Layer_1-2" data-name="Layer 1-2">
      <g>
        <path class="cls-1" d="M75.82,223.18c-10.82,0-20.88-1.35-29.89-4.02-9.03-2.67-17.17-6.64-24.17-11.81-6.24-4.6-11.76-10.16-16.4-16.53-1.3-1.79-1.04-4.25.61-5.71l.19-.17c.78-.69,1.78-1.07,2.82-1.07,1.38,0,2.69.67,3.49,1.8,6.51,9.14,14.82,16.24,24.72,21.11,10.92,5.37,23.93,8.1,38.65,8.1,10.01,0,19.2-1.86,27.32-5.51,8.09-3.64,14.62-8.73,19.41-15.11,4.75-6.34,7.17-13.75,7.17-22.04,0-5.08-1.02-9.6-3.02-13.44-2.02-3.86-4.91-7.33-8.61-10.32-3.74-3.03-8.31-5.79-13.58-8.2-5.32-2.43-11.4-4.76-18.08-6.93-6.71-2.18-13.98-4.38-21.59-6.56-8.57-2.37-16.36-5.1-23.15-8.13-6.83-3.04-12.67-6.6-17.38-10.57-4.76-4.01-8.45-8.75-10.97-14.07-2.53-5.33-3.81-11.62-3.81-18.7s1.65-14.17,4.92-20.51c3.25-6.32,7.77-11.83,13.44-16.38,5.64-4.53,12.39-8.14,20.06-10.73,7.66-2.58,16.03-3.89,24.87-3.89,9.9,0,18.76,1.07,26.32,3.19,7.59,2.13,14.26,5.33,19.82,9.5,4.74,3.56,9.08,7.76,12.88,12.48,1.44,1.78,1.22,4.37-.5,5.88-.78.69-1.77,1.06-2.81,1.06-1.27,0-2.46-.56-3.28-1.54-3.44-4.13-7.3-7.78-11.49-10.85-4.98-3.64-10.9-6.49-17.58-8.45-6.71-1.97-14.57-2.97-23.36-2.97-10.19,0-19.57,1.9-27.87,5.65-8.27,3.73-14.89,8.91-19.68,15.38-4.76,6.43-7.17,13.9-7.17,22.18,0,6,1.16,11.31,3.43,15.77,2.28,4.49,5.59,8.51,9.83,11.95,4.28,3.48,9.53,6.51,15.6,9,6.1,2.52,13.06,4.8,20.66,6.8,10.9,2.73,20.8,5.68,29.4,8.79,8.63,3.12,16.08,6.76,22.15,10.8,6.13,4.09,10.9,8.96,14.17,14.47,3.29,5.55,4.95,12.05,4.95,19.34,0,9.69-2.79,18.48-8.29,26.13-5.47,7.61-13.04,13.72-22.48,18.16-9.42,4.43-20.08,6.68-31.7,6.68h-.02Z"/>
        <path class="cls-1" d="M72.81,24.9c9.86,0,18.52,1.05,26.01,3.15,7.48,2.1,13.96,5.2,19.44,9.31,4.7,3.52,8.92,7.62,12.68,12.28,1.05,1.3.89,3.2-.37,4.31-.59.52-1.33.78-2.06.78-.89,0-1.78-.38-2.4-1.13-3.51-4.22-7.41-7.9-11.69-11.04-5.11-3.74-11.09-6.61-17.93-8.62-6.85-2.01-14.74-3.01-23.68-3.01-10.4,0-19.85,1.92-28.34,5.75-8.49,3.83-15.2,9.08-20.12,15.74-4.93,6.67-7.39,14.29-7.39,22.86,0,6.21,1.18,11.64,3.56,16.29,2.37,4.65,5.75,8.76,10.13,12.32s9.67,6.62,15.88,9.17c6.2,2.56,13.14,4.84,20.81,6.85,10.95,2.74,20.72,5.66,29.3,8.76,8.58,3.11,15.88,6.67,21.9,10.68,6.02,4.02,10.63,8.72,13.83,14.1,3.19,5.39,4.79,11.64,4.79,18.76,0,9.49-2.7,17.98-8.08,25.46-5.39,7.49-12.73,13.42-22.04,17.8-9.31,4.38-19.71,6.57-31.21,6.57-10.77,0-20.63-1.33-29.57-3.97-8.95-2.64-16.89-6.52-23.82-11.64-6.19-4.55-11.57-9.98-16.16-16.28-.95-1.3-.76-3.12.44-4.19l.19-.17c.6-.53,1.33-.78,2.06-.78.98,0,1.94.46,2.56,1.32,6.65,9.34,15.03,16.5,25.14,21.47,11.13,5.48,24.18,8.21,39.15,8.21,10.22,0,19.48-1.87,27.79-5.61,8.3-3.74,14.92-8.9,19.85-15.47s7.39-14.14,7.39-22.73c0-5.29-1.05-9.95-3.15-13.96-2.1-4.01-5.07-7.57-8.9-10.68-3.83-3.1-8.44-5.89-13.83-8.35s-11.46-4.79-18.21-6.98c-6.76-2.19-13.96-4.38-21.63-6.57-8.58-2.37-16.25-5.07-23-8.08-6.76-3.01-12.46-6.48-17.11-10.4-4.65-3.92-8.21-8.49-10.68-13.69-2.46-5.2-3.7-11.27-3.7-18.21s1.6-13.78,4.79-19.99c3.19-6.2,7.57-11.54,13.14-16.02,5.57-4.47,12.14-7.98,19.71-10.54,7.57-2.55,15.74-3.83,24.5-3.83M72.81,22.62c-8.97,0-17.46,1.33-25.23,3.95-7.8,2.63-14.67,6.31-20.41,10.92-5.8,4.66-10.42,10.29-13.74,16.75-3.35,6.5-5.04,13.58-5.04,21.03s1.32,13.7,3.92,19.18c2.59,5.48,6.39,10.34,11.27,14.46,4.79,4.04,10.73,7.66,17.65,10.74,6.84,3.05,14.68,5.81,23.32,8.19,7.57,2.16,14.82,4.36,21.53,6.54,6.64,2.15,12.68,4.47,17.96,6.89,5.18,2.37,9.67,5.08,13.34,8.05,3.57,2.89,6.37,6.24,8.31,9.96,1.92,3.67,2.89,8.02,2.89,12.91,0,8.03-2.33,15.22-6.94,21.36-4.67,6.23-11.05,11.2-18.96,14.76-7.97,3.59-17,5.41-26.85,5.41-14.55,0-27.38-2.68-38.15-7.98-9.73-4.78-17.9-11.76-24.29-20.74-1.02-1.43-2.67-2.28-4.42-2.28-1.32,0-2.59.48-3.57,1.36l-.19.17c-2.09,1.86-2.42,4.97-.77,7.24,4.71,6.46,10.31,12.11,16.65,16.78,7.12,5.25,15.37,9.28,24.53,11.99,9.12,2.7,19.29,4.06,30.22,4.06,11.79,0,22.61-2.28,32.18-6.79,9.62-4.53,17.33-10.76,22.92-18.53,5.64-7.85,8.51-16.86,8.51-26.8,0-7.49-1.72-14.2-5.11-19.92-3.36-5.66-8.24-10.65-14.52-14.84-6.15-4.09-13.68-7.77-22.39-10.93-8.63-3.12-18.56-6.09-29.52-8.83-7.53-1.97-14.43-4.24-20.49-6.74-5.97-2.46-11.12-5.43-15.31-8.83-4.12-3.34-7.33-7.24-9.54-11.59-2.2-4.31-3.31-9.44-3.31-15.26,0-8.04,2.34-15.27,6.95-21.51,4.67-6.31,11.14-11.37,19.23-15.02,8.15-3.68,17.37-5.55,27.4-5.55,8.68,0,16.43.98,23.04,2.92,6.56,1.93,12.35,4.71,17.23,8.28,4.11,3.01,7.91,6.6,11.28,10.66,1.03,1.24,2.54,1.95,4.15,1.95,1.31,0,2.58-.48,3.57-1.35,2.17-1.92,2.45-5.19.63-7.45-3.86-4.8-8.27-9.06-13.09-12.67-5.67-4.26-12.47-7.51-20.19-9.68-7.66-2.15-16.62-3.23-26.63-3.23h-.02Z"/>
      </g>
    </g>
  </g>
</svg>