<?xml version="1.0" encoding="UTF-8"?>
<svg id="Layer_2" data-name="Layer 2" xmlns="http://www.w3.org/2000/svg" viewBox="0 0 175.53 244.2">
  <defs>
    <style>
      .cls-1, .cls-2 {
        fill: #231f20;
      }

      .cls-2 {
        font-family: LexendDeca-Regular, 'Lexend Deca';
        font-size: 42px;
      }
    </style>
  </defs>
  <g id="Layer_1-2" data-name="Layer 1">
    <path class="cls-1" d="M26.6,206.69l1.37,18.16-16.41-7.89,5.7-3.88c-4.9-11.24-7.82-26.61-7.82-41.76l-.15-126.37h4.56s.15,126.36.15,126.36c0,14.2,2.64,28.53,7.09,39.15l5.51-3.76Z"/>
    <text class="cls-2" transform="translate(0 35.7)"><tspan x="0" y="0">1</tspan></text>
    <g id="Layer_1-2" data-name="Layer 1-2">
      <g>
        <path class="cls-1" d="M97.35,243.01c-14.41,0-27.41-3.46-38.66-10.29-11.25-6.83-20.17-16.33-26.51-28.25-6.33-11.9-9.54-25.7-9.54-41.03V43.75c0-2.38,1.94-4.32,4.32-4.32s4.32,1.94,4.32,4.32v117.14c0,14.37,2.83,27.23,8.42,38.22,5.58,10.97,13.39,19.68,23.23,25.9,9.82,6.21,21.4,9.36,34.42,9.36s25.37-3.15,35.58-9.37c10.22-6.22,18.32-14.94,24.08-25.9,5.77-10.99,8.7-23.85,8.7-38.21V43.75c0-2.38,1.94-4.32,4.32-4.32s4.32,1.94,4.32,4.32v119.7c0,15.33-3.36,29.14-9.98,41.05-6.63,11.91-15.83,21.41-27.37,28.23-11.53,6.82-24.87,10.28-39.65,10.28h0Z"/>
        <path class="cls-1" d="M170.03,40.62c1.73,0,3.13,1.4,3.13,3.13v119.7c0,15.2-3.28,28.69-9.83,40.47s-15.53,21.04-26.93,27.79-24.42,10.12-39.04,10.12-26.93-3.37-38.05-10.12c-11.11-6.74-19.81-16.01-26.08-27.79-6.27-11.78-9.41-25.27-9.41-40.47V43.75c0-1.73,1.4-3.13,3.13-3.13s3.13,1.4,3.13,3.13v117.14c0,14.63,2.85,27.55,8.55,38.76,5.7,11.21,13.58,20,23.66,26.36,10.07,6.37,21.75,9.55,35.06,9.55s25.74-3.18,36.19-9.55c10.45-6.36,18.62-15.15,24.51-26.36s8.83-24.13,8.83-38.76V43.75c0-1.73,1.4-3.13,3.13-3.13h0M170.03,38.24c-3.04,0-5.51,2.47-5.51,5.51v117.14c0,14.17-2.88,26.84-8.56,37.66-5.66,10.77-13.61,19.33-23.64,25.44-10.02,6.11-21.78,9.2-34.96,9.2s-24.15-3.09-33.79-9.18c-9.66-6.1-17.33-14.66-22.81-25.43-5.5-10.82-8.29-23.5-8.29-37.68V43.75c0-3.04-2.47-5.51-5.51-5.51s-5.51,2.47-5.51,5.51v119.7c0,15.52,3.26,29.52,9.68,41.59,6.44,12.11,15.51,21.77,26.94,28.7,11.44,6.94,24.65,10.46,39.28,10.46s28.54-3.52,40.25-10.45,21.07-16.58,27.8-28.68c6.72-12.08,10.13-26.09,10.13-41.63V43.75c0-3.04-2.47-5.51-5.51-5.51h0Z"/>
      </g>
    </g>
  </g>
</svg>