<?xml version="1.0" encoding="UTF-8"?>
<svg id="Layer_2" data-name="Layer 2" xmlns="http://www.w3.org/2000/svg" viewBox="0 0 185.35 208.55">
  <defs>
    <style>
      .cls-1, .cls-2 {
        fill: #231f20;
      }

      .cls-2 {
        font-family: LexendDeca-Regular, 'Lexend Deca';
        font-size: 42px;
      }
    </style>
  </defs>
  <g id="Layer_1-2" data-name="Layer 1">
    <g>
      <polygon class="cls-1" points="158.62 47.53 125.96 93.27 120.41 89.31 118.66 107.43 135.23 99.89 129.68 95.92 162.34 50.18 158.62 47.53"/>
      <path class="cls-1" d="M108.76,166.81l-24.01-34.28c-.98,1.29-1.9,2.63-2.78,3.99l23.05,32.91-5.59,3.91,16.5,7.69-1.58-18.14-5.59,3.91Z"/>
    </g>
    <text class="cls-2" transform="translate(0 50.06)"><tspan x="0" y="0">1</tspan></text>
    <text class="cls-2" transform="translate(162.34 44.12)"><tspan x="0" y="0">2</tspan></text>
    <path class="cls-1" d="M85.35,138.79c.65-.94,1.39-1.79,2.21-2.57l-22.37-31.95c-.98,1.29-1.9,2.63-2.78,3.99l21.58,30.82c.44-.14.89-.24,1.36-.29Z"/>
    <path class="cls-1" d="M69.71,110.83l-23.26-33.22c-.98,1.29-1.9,2.63-2.78,3.99l22.5,32.14c1.19-.95,2.36-1.93,3.54-2.91Z"/>
    <path class="cls-1" d="M53.11,87.68l-21-30c-1.15-1.64-3.58-1.61-4.69.06,0,.01-.02.03-.03.04-.23.35-.23.82.02,1.16l21.76,31.08c1.31-.78,2.62-1.56,3.94-2.35Z"/>
    <g id="Layer_1-2" data-name="Layer 1-2">
      <g>
        <path class="cls-1" d="M162.34,207.34c-1.35,0-2.63-.65-3.42-1.75l-69.19-95.82L22.14,205.55c-.79,1.12-2.07,1.78-3.44,1.78h-.77c-1.58,0-3.02-.88-3.75-2.28-.73-1.41-.6-3.09.32-4.38l70.02-98.13L16.02,7.9c-.93-1.29-1.06-2.97-.34-4.39s2.16-2.3,3.75-2.3h1.02c1.36,0,2.64.66,3.43,1.76l65.89,92.08L156.3,2.96c.79-1.09,2.06-1.75,3.41-1.75h.72c1.59,0,3.03.88,3.75,2.3s.59,3.1-.35,4.39l-68.35,94.02c-.13.17-.27.34-.42.49l71.66,98.23c.94,1.29,1.07,2.97.35,4.39s-2.16,2.3-3.76,2.3h-1,.03Z"/>
        <path class="cls-1" d="M160.44,2.42c2.45,0,3.87,2.78,2.43,4.76l-68.35,94.02c-.3.42-.69.73-1.13.94l-1.84-2.53-1.78-2.48L157.29,3.67c.56-.78,1.47-1.24,2.43-1.24h.72M20.45,2.42c.97,0,1.88.47,2.44,1.25l66.87,93.45-.3.41c-.95,1.32-.68,3.15.61,4.14l.19.14c.54.42,1.18.62,1.82.62.45,0,.89-.1,1.3-.3l72.37,99.21c1.45,1.98.03,4.77-2.42,4.77h-1c-.96,0-1.87-.46-2.43-1.24l-70.18-97.2.79-1.12c.91-1.29.67-3.06-.56-4.06-.56-.45-1.23-.67-1.89-.67-.73,0-1.45.26-2.01.77L17,7.18c-1.44-1.98-.02-4.76,2.43-4.76h1.02M86.05,102.6l1.42,1.96,2.25,3.12L21.15,204.85c-.56.8-1.48,1.27-2.45,1.27h-.77c-2.44,0-3.86-2.76-2.44-4.74l70.13-98.29c.13-.18.28-.35.44-.49M160.44,0h-.72c-1.74,0-3.38.84-4.4,2.25l-65.54,90.73L24.87,2.27c-1.02-1.42-2.67-2.27-4.41-2.27h-1.02c-2.05,0-3.9,1.13-4.83,2.96-.93,1.82-.76,3.99.44,5.65l67.98,93.95L13.51,199.97c-1.19,1.66-1.34,3.82-.41,5.64.93,1.81,2.78,2.94,4.82,2.94h.77c1.76,0,3.42-.86,4.43-2.3l66.62-94.4,68.19,94.44c1.02,1.41,2.66,2.25,4.4,2.25h1c2.05,0,3.91-1.14,4.84-2.97s.76-4-.45-5.66l-71.11-97.48L164.83,8.62c1.21-1.66,1.38-3.83.45-5.65-.93-1.83-2.78-2.96-4.83-2.96h0Z"/>
      </g>
    </g>
  </g>
</svg>