<?xml version="1.0" encoding="UTF-8"?>
<svg id="Layer_2" data-name="Layer 2" xmlns="http://www.w3.org/2000/svg" viewBox="0 0 84.09 205.63">
  <defs>
    <style>
      .cls-1 {
        fill: #f8f8f8;
      }

      .cls-2 {
        fill: #fff;
      }

      .cls-3 {
        fill: #232020;
      }
    </style>
  </defs>
  <g id="Layer_1-2" data-name="Layer 1">
    <g>
      <path class="cls-3" d="M83.97,156.69c.17-1.04.16-2.11,0-3.15.15-.49.16-1.07,0-1.57.15-.28.16-.7,0-.98-.77-20.06-12.9-40.46-33.62-44.61-14.82-2.97-27.73,2.56-36.72,14.32l-3.86,5.88c0-.16.01-.33.02-.49-.64.69-1.48,1.13-2.39,1.33-.34,3.28-.69,6.56-1.01,9.84-.7,7.16-1.67,14.73-.65,21.9.93,6.5,1.77,13.23,3.09,19.66.52,2.5,1.08,4.96,1.48,7.43,11.59,19.13,35.97,25.91,54.61,12.09,11.76-8.72,19.32-24.52,19.04-39.09.16-.28.15-.7,0-.98.16-.5.15-1.08,0-1.57Z"/>
      <path class="cls-2" d="M41.03,113.25c45.21-2.39,47.98,77.7,6.99,83.94C.45,204.45-2.77,115.57,41.03,113.25Z"/>
    </g>
    <g>
      <path class="cls-3" d="M10.47,128.99c-.07-2.18-.08-4.37-.09-6.55-.49-.2-.88-.64-.88-1.32-.02-4.93-.62-9.83-.71-14.76-.05-2.88.04-5.84.59-8.69-.01-.03-.02-.06-.03-.09l.02-92.42C9.16,2.77,8.24.97,6,0h-2.88C.95.19.13,1.84,0,3.84v197.76c.05,5.68,9.08,5.16,9.33-.3.28-6.18.38-12.4.3-18.68-.35-1.15-.63-2.36-.82-3.67-1.7-11.99-.07-24.16,1.54-36.06.04-.33.14-.64.26-.94-.61-2.5-1.15-5.02-1.66-7.55-.45-2.25.26-4.09,1.51-5.4Z"/>
      <path class="cls-1" d="M3.12,0C1.43.88.58,2.02,0,3.84V0h3.12Z"/>
    </g>
  </g>
</svg>