<?xml version="1.0" encoding="UTF-8"?>
<svg id="Layer_2" data-name="Layer 2" xmlns="http://www.w3.org/2000/svg" viewBox="0 0 83.64 207.81">
  <defs>
    <style>
      .cls-1 {
        fill: #c4c6c8;
      }

      .cls-2 {
        fill: #221e1f;
      }

      .cls-3 {
        fill: #68696b;
      }

      .cls-4 {
        fill: #fff;
      }

      .cls-5 {
        fill: #606163;
      }

      .cls-6 {
        fill: #939598;
      }

      .cls-7 {
        fill: #9a9c9f;
      }

      .cls-8 {
        fill: #cbccce;
      }
    </style>
  </defs>
  <g id="Layer_1-2" data-name="Layer 1">
    <g>
      <path class="cls-2" d="M75.59,133.39c-.57-1.07-1.12-2.14-1.6-3.24l-.07.67-3.65-5.46c-16.45-20.75-44.88-19.81-60.43,1.56C4.26,134.58.7,144.76,0,154.25c-.03.38.02.77,0,1.15.16.43.16.91,0,1.34v5.18c.16.43.16.91,0,1.34v1.34c.53,14.91,8.19,30.32,21.63,38.23,5.27,3.1,11.38,5.14,17.53,4.78.35.16.81.15,1.15,0,.75.16,1.56.17,2.3,0,.32.15.82.16,1.15,0,6.21.35,12.39-2.26,17.42-5.76,4.25-2.96,6.83-6.04,10.01-10.01.93-1.17,1.98-2.99,2.66-4.57.12-.68.31-1.37.55-2.06,2.17-6.05,2.34-12.29,2.73-18.69.4-6.65-.7-13.26-.95-19.89-.17-4.43-.36-8.84-.61-13.25Z"/>
      <path class="cls-6" d="M42.63,207.62c.17.05.17.12,0,.19h-2.3c-.17-.05-.17-.12,0-.19.76.02,1.54.02,2.3,0Z"/>
      <path class="cls-3" d="M0,156.74v-1.34c.32.24.32,1.1,0,1.34Z"/>
      <path class="cls-5" d="M0,163.27v-1.34c.32.24.32,1.1,0,1.34Z"/>
      <path class="cls-1" d="M40.32,207.62v.19h-1.15v-.19c.38.02.77,0,1.15,0Z"/>
      <path class="cls-8" d="M43.78,207.62v.19h-1.15v-.19c.38-.01.77.02,1.15,0Z"/>
      <path class="cls-4" d="M39.9,118.21c37.31-1.18,43.95,60.41,15.96,77.59-3.31,2.03-7.9,3.7-11.78,3.96-47.95,3.23-48.44-80.15-4.17-81.55Z"/>
    </g>
    <g>
      <path class="cls-2" d="M83.55,200.06V4.66c.06-2.46-.89-4.48-2.98-4.66h-2.5c-2.26,1.03-2.91,3.01-3.08,5.87.14,31.76-.26,63.56.21,95.3l-.32,4.12c.63,4.79-.16,9.78-.3,14.62-.1,3.53-.24,7.05-.38,10.57.15,4.04,0,8.1-.03,11.72-.1,11.61-.67,24.03.98,35.46.23,1.62,0,3.04-.54,4.2v17.53l.38.17c-.53.23-.21,1.62-.03,2.15.63,1.87,1.65,3.05,3.3,3.25h.19c.61-.09,1.19-.17,1.73-.24,2.28.44,3.45-2.08,3.36-4.66Z"/>
      <path class="cls-4" d="M80.57,0h3.07v204.96h-3.46c-.17-.07-.17-.15,0-.24,1.95-.29,3.09-2.33,3.27-4.67V4.67c-.16-2.24-1.25-3.86-2.89-4.67Z"/>
      <path class="cls-7" d="M80.19,204.72v.24h-1.73c.39-.49,1.18-.16,1.73-.24Z"/>
    </g>
  </g>
</svg>