<?xml version="1.0" encoding="UTF-8"?>
<svg id="Layer_2" data-name="Layer 2" xmlns="http://www.w3.org/2000/svg" viewBox="0 0 93.91 118.13">
  <defs>
    <style>
      .cls-1 {
        fill: #231f20;
      }
    </style>
  </defs>
  <g id="Layer_1-2" data-name="Layer 1">
    <g>
      <path class="cls-1" d="M51.09,116.88c-9.79,0-18.55-2.54-26.03-7.54-7.47-4.99-13.37-12-17.55-20.83-4.16-8.78-6.27-18.9-6.27-30.07,0-8.34,1.17-16.08,3.47-23.02,2.31-6.96,5.6-13.05,9.77-18.11,4.19-5.07,9.26-9.06,15.08-11.85,5.82-2.79,12.3-4.21,19.26-4.21,6.45,0,12.47,1.2,17.89,3.56,5.44,2.37,10.2,5.86,14.15,10.38,3.94,4.51,6.98,9.97,9.04,16.25,2.05,6.26,2.96,13.39,2.71,21.17l-.12,3.55c-.06,1.74-1.39,3.11-3.03,3.11H7.92c.21,9.61,2.14,18.32,5.73,25.87,3.67,7.72,8.77,13.83,15.17,18.15,6.37,4.31,13.87,6.49,22.27,6.49,6.33,0,12.26-1.3,17.61-3.86,4.78-2.28,9.18-5.36,13.1-9.15.56-.54,1.28-.84,2.04-.84,1.04,0,2,.56,2.56,1.49l.26.44c.8,1.33.59,3.06-.5,4.12-2.86,2.77-5.94,5.22-9.16,7.28-3.67,2.36-7.72,4.24-12.02,5.59-4.33,1.36-9,2.05-13.89,2.05ZM85.92,52.16l.04-.52c0-8.61-1.67-16.31-4.97-22.81-3.28-6.47-7.75-11.56-13.27-15.12-5.51-3.55-11.67-5.35-18.32-5.35-8.27,0-15.57,2.15-21.69,6.38-6.15,4.25-11,10.21-14.42,17.72-2.68,5.89-4.38,12.51-5.05,19.71h77.69Z"/>
      <path class="cls-1" d="M48.82,2.5c6.3,0,12.1,1.15,17.39,3.46,5.29,2.3,9.86,5.66,13.71,10.06,3.84,4.4,6.77,9.67,8.79,15.82,2.02,6.15,2.9,13.06,2.65,20.74l-.12,3.54c-.04,1.06-.83,1.9-1.79,1.9H6.67c.03-1.56.1-3.1.21-4.61h80.21l-.26,3.56,2.27-3.56h-2.01l.12-1.68c0-8.94-1.7-16.76-5.11-23.46-3.4-6.7-7.97-11.91-13.71-15.61-5.74-3.7-12.07-5.55-19-5.55-8.57,0-16.04,2.2-22.41,6.6-6.37,4.4-11.31,10.48-14.84,18.23-2.92,6.42-4.68,13.58-5.27,21.47h-2.11v4.61h1.9c0,.14,0,.28,0,.42.12,10.2,2.08,19.27,5.86,27.24,3.78,7.96,8.98,14.18,15.6,18.65,6.62,4.47,14.27,6.7,22.97,6.7,6.55,0,12.6-1.33,18.15-3.98,4.92-2.35,9.4-5.48,13.43-9.38.34-.33.75-.49,1.17-.49.57,0,1.14.3,1.49.88l.26.44c.49.82.38,1.93-.29,2.57-2.82,2.73-5.8,5.1-8.96,7.13-3.59,2.3-7.5,4.12-11.72,5.45-4.22,1.33-8.73,1.99-13.52,1.99-9.58,0-18.03-2.44-25.34-7.33-7.31-4.89-13.02-11.66-17.11-20.32-4.1-8.66-6.14-18.5-6.14-29.54,0-8.24,1.13-15.78,3.4-22.63,2.27-6.84,5.45-12.74,9.55-17.7,4.09-4.96,8.98-8.8,14.65-11.52,5.67-2.72,11.91-4.08,18.72-4.08M48.82,0c-7.15,0-13.81,1.46-19.8,4.33-5.97,2.87-11.19,6.97-15.5,12.18-4.27,5.17-7.64,11.4-9.99,18.51-2.34,7.07-3.53,14.94-3.53,23.41,0,11.36,2.15,21.66,6.39,30.61,4.27,9.03,10.32,16.21,17.98,21.33,7.69,5.15,16.68,7.75,26.72,7.75,5.02,0,9.82-.71,14.27-2.11,4.41-1.39,8.56-3.31,12.32-5.73,3.28-2.11,6.43-4.61,9.35-7.44,1.5-1.45,1.79-3.83.7-5.66l-.26-.44c-.79-1.31-2.14-2.09-3.63-2.09-1.08,0-2.11.42-2.91,1.19-3.82,3.7-8.12,6.7-12.77,8.92-5.18,2.48-10.93,3.74-17.07,3.74-8.15,0-15.41-2.11-21.57-6.28-6.21-4.19-11.17-10.13-14.74-17.65-3.35-7.05-5.22-15.14-5.57-24.08h80.24c2.32,0,4.2-1.9,4.28-4.32l.12-3.54c.26-7.94-.67-15.21-2.77-21.61-2.11-6.44-5.24-12.05-9.29-16.68-4.08-4.66-8.98-8.26-14.59-10.7-5.58-2.43-11.77-3.66-18.39-3.66h0ZM9.62,50.91c.73-6.53,2.35-12.55,4.8-17.94,3.32-7.3,8.03-13.09,13.99-17.21,5.91-4.09,12.97-6.16,20.98-6.16,6.41,0,12.34,1.73,17.65,5.15,5.33,3.44,9.65,8.37,12.83,14.64,3.1,6.11,4.73,13.35,4.83,21.51H9.62Z"/>
    </g>
  </g>
</svg>