<?xml version="1.0" encoding="UTF-8"?>
<svg id="Layer_2" data-name="Layer 2" xmlns="http://www.w3.org/2000/svg" viewBox="0 0 72.95 283.14">
  <defs>
    <style>
      .cls-1 {
        fill: #231f20;
      }
    </style>
  </defs>
  <g id="Layer_1-2" data-name="Layer 1">
    <g>
      <path class="cls-1" d="M34.53,282.64c-25.38,0-33.35-21.82-34.02-33.36-.19-3.42,2.43-6.36,5.84-6.56.13,0,.25-.01.38-.01,3.26,0,5.98,2.56,6.18,5.83.15,2.22,2.01,21.69,21.63,21.69s21.84-19.29,22.02-21.49l-.02-185.83c0-3.42,2.78-6.21,6.21-6.21,1.66,0,3.22.65,4.39,1.82,1.17,1.17,1.81,2.73,1.81,4.39v186.31c-.82,11.58-9.06,33.42-34.41,33.42Z"/>
      <path class="cls-1" d="M62.74,57.2c3.16,0,5.71,2.56,5.7,5.71v186.31c-.83,11.66-8.96,32.92-33.91,32.92S1.67,260.63,1.01,249.25c-.18-3.15,2.23-5.84,5.37-6.03.12,0,.23-.01.35-.01,3.02,0,5.49,2.34,5.68,5.36.15,2.29,2.06,22.16,22.13,22.16s22.33-19.7,22.52-21.95V62.91c-.01-3.15,2.54-5.71,5.69-5.71M62.74,56.2c-3.7,0-6.71,3.01-6.71,6.71v185.83c-.18,2.33-2.36,20.99-21.5,20.99s-20.99-19.05-21.13-21.22c-.22-3.53-3.15-6.29-6.67-6.29-.14,0-.27,0-.41.01-3.69.21-6.52,3.39-6.31,7.08.68,11.7,8.78,33.84,34.52,33.84s34.08-22.14,34.91-33.85c0-.02,0-.05,0-.07V62.91c0-1.79-.69-3.47-1.96-4.74-1.27-1.27-2.95-1.97-4.75-1.97h0Z"/>
    </g>
    <g>
      <path class="cls-1" d="M62.05,21.15c-3.17,0-5.61-.95-7.24-2.83-1.6-1.82-2.41-4.22-2.41-7.12,0-2.69.8-5.02,2.39-6.94,1.64-1.99,4.09-3.01,7.27-3.01,2.95,0,5.32.94,7.06,2.79,1.72,1.84,2.59,4.24,2.59,7.16s-.81,5.29-2.41,7.12c-1.64,1.88-4.08,2.83-7.24,2.83Z"/>
      <path class="cls-1" d="M62.05,2.5c2.6,0,4.65.8,6.15,2.4,1.5,1.6,2.25,3.7,2.25,6.3s-.7,4.7-2.1,6.3c-1.4,1.6-3.5,2.4-6.3,2.4s-4.9-.8-6.3-2.4c-1.4-1.6-2.1-3.7-2.1-6.3,0-2.4.7-4.45,2.1-6.15,1.4-1.7,3.5-2.55,6.3-2.55M62.05,0c-3.57,0-6.34,1.16-8.23,3.46-1.77,2.15-2.67,4.76-2.67,7.74,0,3.22.92,5.89,2.72,7.95,1.88,2.16,4.63,3.25,8.18,3.25s6.29-1.09,8.18-3.25c1.8-2.06,2.72-4.74,2.72-7.95s-.98-5.93-2.92-8.01c-1.99-2.12-4.67-3.19-7.98-3.19h0Z"/>
    </g>
  </g>
</svg>