<?xml version="1.0" encoding="UTF-8"?>
<svg id="Layer_2" data-name="Layer 2" xmlns="http://www.w3.org/2000/svg" viewBox="0 0 64.43 204.72">
  <defs>
    <style>
      .cls-1 {
        fill: #f8f8f8;
      }

      .cls-2 {
        fill: #232021;
      }
    </style>
  </defs>
  <g id="Layer_1-2" data-name="Layer 1">
    <path class="cls-2" d="M59.91,193.24c-10.49-12.62-21.96-24.44-32.72-36.83-4.25-4.89-8.48-9.83-12.4-14.99l41.67-31.34c4.75-4,.98-12.73-5.38-9.27l-40.86,30.58c-1.5,2.54-3.16,5.01-4.92,7.41,2.06,4.69,3.84,9.51,5.71,14.28l.42.3,44.06,50.55c1.45,1.07,4.78.94,6.37.32,1.48-.57,2.55-2.36,2.57-3.91.03-2.24-3.09-5.38-4.52-7.1Z"/>
    <g>
      <path class="cls-2" d="M10.46,130.14c-.61-.27-1.05-.88-.82-1.71.13-.46.25-.93.38-1.39-.25-.24-.42-.57-.43-1.01-.03-1.33.02-2.64.13-3.95-.12-.27-.2-.13-.64.08-.09-1.97.27-3.91.44-5.87V4.19c-.12-1.9-1.58-3.12-2.82-4.19h-3.67C1.38.19.17,1.53,0,3.36v198.48c1.34,2.77,4.1,3.38,6.69,2.51,4.18-1.41,3.11-5.36,3.24-9.12.52-15.55-.65-31.46.23-47.03,0-.16.03-.33.06-.49-.03-.21-.06-.43-.07-.66-.34-5.65-.14-11.29.3-16.91Z"/>
      <path class="cls-1" d="M3.02,0C1.62.87.78,1.8,0,3.36V0h3.02Z"/>
    </g>
  </g>
</svg>