<?xml version="1.0" encoding="UTF-8"?>
<svg id="Layer_2" data-name="Layer 2" xmlns="http://www.w3.org/2000/svg" viewBox="0 0 81.81 119.33">
  <defs>
    <style>
      .cls-1 {
        fill: #231f20;
      }
    </style>
  </defs>
  <g id="Layer_1-2" data-name="Layer 1">
    <g>
      <path class="cls-1" d="M76.03,117.6c-1.92,0-3.48-1.67-3.48-3.73V46.3c0-8.63-1.17-15.76-3.49-21.17-2.25-5.28-5.51-9.18-9.69-11.6-4.24-2.45-9.55-3.69-15.77-3.69-4.92,0-9.53.98-13.68,2.92-4.21,1.96-7.9,4.43-10.98,7.33-3.09,2.91-5.51,5.92-7.21,8.93-1.64,2.91-2.47,5.3-2.47,7.11v77.76c0,2.06-1.56,3.73-3.48,3.73h-1.12c-1.62,0-2.93-1.39-2.93-3.1V6.51c0-2.06,1.56-3.73,3.48-3.73h.23c1.89,0,3.45,1.65,3.48,3.67l.2,13.64c.93-1.33,1.96-2.64,3.08-3.9,3.86-4.33,8.57-7.85,14.01-10.48,5.48-2.65,11.45-3.99,17.76-3.99,7.59,0,14.13,1.58,19.46,4.69,5.38,3.15,9.56,8.09,12.42,14.7,2.81,6.49,4.23,14.96,4.23,25.19v67.58c0,2.06-1.56,3.73-3.48,3.73h-.58Z"/>
      <path class="cls-1" d="M43.97,3.45c7.31,0,13.51,1.49,18.59,4.45,5.08,2.97,8.98,7.6,11.71,13.9,2.73,6.29,4.09,14.46,4.09,24.5v67.58c0,1.11-.79,2-1.76,2h-.58c-.97,0-1.76-.9-1.76-2V46.3c0-8.91-1.21-16.19-3.62-21.85-2.42-5.65-5.89-9.79-10.41-12.41-4.53-2.62-10.07-3.92-16.64-3.92-5.2,0-10.01,1.03-14.41,3.08-4.4,2.05-8.21,4.6-11.43,7.64-3.22,3.04-5.73,6.15-7.53,9.33-1.8,3.18-2.7,5.83-2.7,7.95v77.76c0,1.11-.79,2-1.76,2h-1.13c-.67,0-1.21-.62-1.21-1.38V6.51c0-1.11.79-2,1.76-2h.23c.96,0,1.74.88,1.76,1.97l.29,19.93c-.65,1.44-1.19,2.91-1.62,4.4l1.67-.64-.05-3.77c1.44-3.17,3.44-6.19,6-9.07,3.72-4.17,8.21-7.53,13.48-10.08,5.27-2.55,10.94-3.82,17.01-3.82M43.97,0c-6.57,0-12.8,1.4-18.51,4.16-5.65,2.73-10.54,6.39-14.55,10.89-.05.05-.1.11-.14.16l-.13-8.78c-.04-2.96-2.38-5.37-5.2-5.37h-.23C2.33,1.06,0,3.51,0,6.51v107.99c0,2.66,2.09,4.83,4.65,4.83h1.13c2.87,0,5.2-2.45,5.2-5.45V36.12c0-1.04.39-2.97,2.25-6.26,1.61-2.86,3.93-5.73,6.89-8.52,2.94-2.77,6.48-5.13,10.52-7.02,3.92-1.83,8.28-2.75,12.95-2.75,5.92,0,10.94,1.16,14.91,3.46,3.89,2.26,6.83,5.78,8.96,10.78,2.22,5.2,3.35,12.1,3.35,20.5v67.58c0,3.01,2.33,5.45,5.2,5.45h.58c2.87,0,5.2-2.45,5.2-5.45V46.3c0-10.46-1.47-19.17-4.37-25.87-3.01-6.95-7.43-12.17-13.13-15.5C58.71,1.66,51.87,0,43.97,0h0Z"/>
    </g>
  </g>
</svg>