<?xml version="1.0" encoding="UTF-8"?>
<svg id="Layer_2" data-name="Layer 2" xmlns="http://www.w3.org/2000/svg" viewBox="0 0 99.55 229.7">
  <defs>
    <style>
      .cls-1 {
        fill: #231f20;
      }
    </style>
  </defs>
  <g id="Layer_1-2" data-name="Layer 1">
    <g>
      <path class="cls-1" d="M5.33,228.45c-2.25,0-4.08-1.79-4.08-4V10.46c0-2.2,1.83-4,4.08-4h.36c2.23,0,4.06,1.77,4.08,3.95l.41,35.29c.22-.42.65-.68,1.11-.68.11,0,.23.02.34.05.59.17.97.73.9,1.33-.24,2.22-.34,4.58-.31,7.22.03,3.25.24,6.48.6,9.59.02.15,0,.3-.03.45-1.63,6.59-2.46,13.68-2.46,21.09,0,4.18.3,8.43.89,12.61.02.16.01.31-.02.47,0,.02-.04.14-.05.16-.55,2.47-.53,5.28.04,7.93.03.15.04.3.01.45-.74,4.82-1.35,9.88-.88,14.28,0,.04,0,.09,0,.13v103.66c0,2.2-1.83,4-4.08,4h-.93Z"/>
      <path class="cls-1" d="M5.7,7.72c1.55,0,2.82,1.21,2.83,2.72l.48,41.25c.69-1.84,1.46-3.64,2.29-5.4-.26,2.44-.34,4.91-.32,7.36.03,3.18.23,6.46.61,9.72-1.65,6.66-2.5,13.78-2.5,21.39,0,4.43.32,8.68.9,12.79-.02.07-.04.13-.06.2-.57,2.6-.57,5.59.04,8.44-.74,4.84-1.38,10.04-.89,14.6v103.66c0,1.52-1.27,2.75-2.83,2.75h-.93c-1.57,0-2.83-1.23-2.83-2.75V10.46c0-1.52,1.27-2.75,2.83-2.75h.36M11.31,46.28h0M5.7,5.22h-.36C2.39,5.22,0,7.57,0,10.46v213.98c0,2.89,2.39,5.25,5.33,5.25h.93c2.94,0,5.33-2.35,5.33-5.25v-103.66c0-.09,0-.18-.01-.27-.46-4.26.15-9.22.87-13.96.05-.3.04-.61-.03-.9-.53-2.45-.55-5.05-.06-7.32.02-.08.04-.15.06-.22.07-.3.09-.62.04-.92-.58-4.13-.88-8.31-.88-12.44,0-7.3.82-14.3,2.43-20.78.07-.29.09-.59.06-.89-.36-3.07-.56-6.26-.59-9.46-.03-2.54.07-4.82.29-6.96.02-.12.03-.25.03-.38,0-1.34-1.05-2.43-2.37-2.5,0,0,0,0-.01,0l-.39-33.38c-.03-2.86-2.43-5.19-5.33-5.19h0Z"/>
    </g>
    <g>
      <path class="cls-1" d="M51.45,121.95c-6.64,0-13.08-1.79-19.14-5.31-6.03-3.5-11.2-8.38-15.36-14.5-2.69-3.94-4.77-8.26-6.19-12.85-.03-.08-.04-.17-.05-.25-.31-3.32-.34-6.72-.34-9.66,0-.4,0-.77,0-1.15-.01-.72-.17-1.34-.47-1.84-.12-.2-.18-.42-.18-.66.01-1.2.04-2.39.06-3.58.15-8.62.19-16.41-.88-24.38-.19-1.38-.39-2.75-.6-4.11-.03-.19-.02-.38.04-.56.64-2.1,1.22-4.37,1.71-6.73.02-.12.07-.23.12-.33,1.66-5.36,3.97-10.32,6.86-14.74,4.1-6.26,9.08-11.21,14.8-14.72,5.77-3.54,12.12-5.33,18.89-5.33,9.1,0,17.35,2.62,24.53,7.79,7.14,5.14,12.83,12.3,16.92,21.29,4.07,8.95,6.13,19.33,6.13,30.83s-2.12,22.18-6.32,31.28c-4.21,9.12-9.89,16.39-16.9,21.6-7.06,5.25-15.01,7.91-23.64,7.91ZM50.91,8.57c-7.1,0-13.63,2.23-19.4,6.64-5.82,4.44-10.47,10.71-13.83,18.65-3.38,7.98-5.1,17.31-5.1,27.75s1.72,19.55,5.1,27.53c3.36,7.93,8.02,14.25,13.84,18.76,5.76,4.47,12.41,6.74,19.75,6.74,7.84,0,14.89-2.27,20.96-6.76,6.11-4.51,10.95-10.86,14.37-18.86,3.44-8.05,5.19-17.42,5.19-27.85s-1.75-19.29-5.19-27.19c-3.42-7.85-8.25-14.13-14.37-18.65-6.08-4.49-13.25-6.76-21.33-6.76Z"/>
      <path class="cls-1" d="M50.73,2.5c8.87,0,16.81,2.52,23.8,7.55,6.99,5.03,12.49,11.97,16.51,20.79,4.01,8.83,6.02,18.93,6.02,30.31s-2.07,21.78-6.2,30.75c-4.14,8.97-9.64,16.02-16.51,21.12-6.87,5.11-14.5,7.66-22.89,7.66-6.45,0-12.62-1.72-18.51-5.14-5.9-3.43-10.88-8.13-14.96-14.12-2.63-3.87-4.64-8.04-6.03-12.52-.29-3.15-.33-6.34-.33-9.54,0-.39,0-.78,0-1.17-.02-1-.26-1.81-.65-2.46.01-1.19.04-2.38.06-3.57.15-8.27.21-16.37-.9-24.57-.19-1.39-.39-2.77-.61-4.14.68-2.23,1.26-4.52,1.74-6.84v.07c1.63-5.36,3.89-10.27,6.8-14.72,4.01-6.13,8.81-10.91,14.41-14.34,5.59-3.43,11.67-5.14,18.24-5.14M51.27,115.88c8.15,0,15.38-2.33,21.71-7,6.32-4.67,11.25-11.12,14.77-19.37,3.53-8.24,5.29-17.69,5.29-28.35s-1.76-19.59-5.29-27.69c-3.53-8.1-8.45-14.48-14.77-19.15-6.32-4.67-13.68-7-22.07-7-7.42,0-14.14,2.3-20.16,6.89-6.02,4.6-10.76,10.98-14.23,19.15-3.47,8.17-5.2,17.59-5.2,28.24s1.73,19.85,5.2,28.02c3.47,8.17,8.21,14.59,14.23,19.26,6.02,4.67,12.86,7,20.52,7M50.73,0c-7,0-13.58,1.85-19.55,5.51-5.89,3.61-11,8.69-15.19,15.1-2.94,4.49-5.29,9.53-6.98,14.96-.08.17-.14.35-.18.54-.49,2.33-1.05,4.56-1.69,6.62-.11.36-.14.74-.08,1.11.25,1.63.44,2.9.6,4.09,1.07,7.88,1.03,15.62.87,24.19-.02,1.19-.04,2.39-.06,3.58,0,.46.12.91.35,1.31.19.31.28.72.29,1.22,0,.36,0,.73,0,1.09,0,3,.03,6.44.34,9.8.02.17.05.34.1.51,1.46,4.71,3.6,9.14,6.35,13.19,4.27,6.27,9.57,11.27,15.77,14.87,6.26,3.64,12.91,5.48,19.77,5.48,8.9,0,17.11-2.74,24.38-8.15,7.18-5.34,12.99-12.77,17.29-22.08,4.27-9.27,6.43-19.96,6.43-31.8s-2.1-22.23-6.24-31.35c-4.18-9.19-10.01-16.52-17.32-21.79C68.59,2.7,60.09,0,50.73,0h0ZM51.27,113.38c-7.06,0-13.45-2.18-18.99-6.48-5.65-4.38-10.18-10.53-13.46-18.26-3.32-7.82-5-16.92-5-27.04s1.68-19.43,5-27.26c3.28-7.73,7.8-13.83,13.44-18.14,5.55-4.23,11.82-6.38,18.64-6.38,7.8,0,14.73,2.19,20.59,6.52,5.93,4.39,10.63,10.49,13.97,18.14,3.37,7.75,5.08,16.72,5.08,26.69s-1.71,19.47-5.09,27.36c-3.33,7.79-8.03,13.96-13.96,18.34-5.85,4.32-12.65,6.51-20.22,6.51h0Z"/>
    </g>
  </g>
</svg>