<?xml version="1.0" encoding="UTF-8"?>
<svg id="Layer_2" data-name="Layer 2" xmlns="http://www.w3.org/2000/svg" viewBox="0 0 95.6 116.14">
  <defs>
    <style>
      .cls-1 {
        fill: #231f20;
      }
    </style>
  </defs>
  <g id="Layer_1-2" data-name="Layer 1">
    <g>
      <path class="cls-1" d="M47.56,114.89c-1.33,0-2.52-.8-3.02-2.04L1.49,5.71c-.4-1-.28-2.14.32-3.03.6-.9,1.61-1.43,2.69-1.43h.98c1.34,0,2.52.8,3.02,2.05l39.3,98.45L87.1,3.3c.5-1.24,1.68-2.05,3.02-2.05h.98c1.08,0,2.09.53,2.69,1.43s.73,2.03.32,3.03l-43.06,107.14c-.5,1.24-1.68,2.04-3.02,2.04h-.47Z"/>
      <path class="cls-1" d="M91.1,2.5c1.42,0,2.38,1.43,1.86,2.75l-43.06,107.14c-.3.76-1.04,1.25-1.86,1.25h-.47c-.82,0-1.55-.5-1.86-1.25L2.64,5.25c-.53-1.31.44-2.75,1.86-2.75h.98c.82,0,1.55.5,1.86,1.26l40.46,101.36-1.38,3.45h2.75l-1.38-3.45L88.26,3.76c.3-.76,1.04-1.26,1.86-1.26h.98M91.1,0h-.98c-1.85,0-3.49,1.11-4.18,2.83l-38.14,95.54L9.66,2.83c-.69-1.72-2.33-2.83-4.18-2.83h-.98C3,0,1.61.74.77,1.98-.07,3.22-.23,4.79.33,6.18l43.06,107.14c.69,1.71,2.33,2.82,4.18,2.82h.47c1.85,0,3.49-1.11,4.18-2.82L95.27,6.18c.56-1.39.39-2.96-.45-4.2-.84-1.24-2.23-1.98-3.73-1.98h0Z"/>
    </g>
  </g>
</svg>