<?xml version="1.0" encoding="UTF-8"?>
<svg id="Layer_2" data-name="Layer 2" xmlns="http://www.w3.org/2000/svg" viewBox="0 0 93.52 111.94">
  <defs>
    <style>
      .cls-1 {
        fill: #231f20;
      }
    </style>
  </defs>
  <g id="Layer_1-2" data-name="Layer 1">
    <g>
      <path class="cls-1" d="M87.92,110.69c-.97,0-1.87-.43-2.47-1.19l-38.93-48.42L8.09,109.49c-.61.76-1.51,1.2-2.49,1.2h-1.17c-1.23,0-2.33-.69-2.86-1.8s-.39-2.4.38-3.36l40.22-50.18L4.28,6.37c-.75-.97-.88-2.25-.34-3.34.54-1.1,1.63-1.78,2.85-1.78h1.24c.98,0,1.92.46,2.52,1.24l36.11,47.12L82.78,2.49c.6-.78,1.54-1.24,2.52-1.24h1.23c1.22,0,2.31.68,2.85,1.78.54,1.1.4,2.38-.34,3.34l-37.88,48.78,40.42,50.38c.77.96.92,2.25.39,3.36-.53,1.11-1.63,1.8-2.86,1.8h-1.18Z"/>
      <path class="cls-1" d="M86.52,2.5c1.6,0,2.5,1.84,1.52,3.11l-38.48,49.56-1.07-1.33-1.43-1.63-.41-.53L83.77,3.25c.36-.48.93-.75,1.53-.75h1.23M8.03,2.5c.6,0,1.16.28,1.53.75l37.11,48.42-.41.53,2.44,4.07.86-1.11,41.03,51.15c1.01,1.26.11,3.13-1.5,3.13h-1.18c-.58,0-1.13-.26-1.5-.72l-39.91-49.64,1.58-1.99-3.26-3.06-1.07,1.33L5.27,5.6c-.98-1.27-.08-3.1,1.52-3.1h1.24M43.76,55.37l.86,1.11.61,1.02,1.27,1.58L7.11,108.71c-.37.46-.92.73-1.51.73h-1.17c-1.61,0-2.51-1.87-1.5-3.13l40.83-50.95M86.52,0h-1.23c-1.37,0-2.68.65-3.51,1.73l-35.12,45.83L11.54,1.73c-.83-1.09-2.14-1.73-3.51-1.73h-1.24c-1.7,0-3.22.95-3.97,2.48-.75,1.53-.57,3.31.47,4.66l37.29,48.21L.98,104.75c-1.07,1.34-1.28,3.13-.54,4.68.74,1.55,2.27,2.51,3.99,2.51h1.17c1.36,0,2.62-.61,3.47-1.67l37.45-47.18,37.95,47.2c.84,1.05,2.1,1.65,3.45,1.65h1.18c1.72,0,3.25-.96,3.99-2.51.74-1.55.54-3.34-.54-4.68l-39.8-49.61L90.02,7.14c1.04-1.34,1.23-3.13.48-4.66s-2.27-2.48-3.97-2.48h0Z"/>
    </g>
  </g>
</svg>