<?xml version="1.0" encoding="UTF-8"?>
<svg id="Layer_2" data-name="Layer 2" xmlns="http://www.w3.org/2000/svg" viewBox="0 0 107.14 227.39">
  <defs>
    <style>
      .cls-1 {
        fill: #231f20;
      }
    </style>
  </defs>
  <g id="Layer_1-2" data-name="Layer 1">
    <g>
      <path class="cls-1" d="M13.26,226.14c-1.36,0-2.62-.67-3.38-1.79s-.92-2.54-.42-3.8l26.06-65.57c.02-.06.05-.12.09-.18,1.3-2.18,2.2-4.24,2.74-6.28.02-.08.05-.15.08-.22.35-.72.62-1.36.85-1.99.13-.35.21-.7.24-1.08.04-.46.33-.85.73-1.03.17-.42.35-.84.52-1.25.86-2.01,1.71-4.07,2.54-6.12L96.76,3.81c.62-1.56,2.11-2.56,3.79-2.56.3,0,.61.03.9.1.43.1.87.2,1.3.3,1.16.28,2.14,1.04,2.69,2.1.55,1.06.61,2.3.16,3.41l-61.75,153.1-25.39,63.32c-.62,1.56-2.11,2.57-3.79,2.57h-1.41Z"/>
      <path class="cls-1" d="M100.55,2.5c.21,0,.42.02.63.07.43.1.86.2,1.28.3,1.69.4,2.63,2.21,1.98,3.82l-61.75,153.1-25.39,63.32c-.43,1.08-1.47,1.78-2.63,1.78h-1.41c-2,0-3.37-2.02-2.63-3.88l26.06-65.57c1.25-2.09,2.26-4.27,2.88-6.6.32-.67.63-1.36.9-2.1.18-.48.27-.95.31-1.4.07.15.13.29.19.44.32-.78.63-1.57.96-2.34.9-2.1,1.75-4.15,2.55-6.15L97.92,4.28c.44-1.09,1.49-1.78,2.63-1.78M100.55,0c-2.19,0-4.13,1.31-4.95,3.35l-53.43,133.01c-.82,2.05-1.67,4.1-2.53,6.1-.13.3-.25.6-.38.9-.55.42-.91,1.05-.97,1.77-.02.26-.08.51-.17.75-.22.59-.47,1.19-.81,1.88-.07.14-.12.29-.16.44-.51,1.93-1.37,3.88-2.61,5.96-.07.11-.13.23-.18.36l-26.06,65.57c-.65,1.64-.45,3.5.54,4.97.99,1.46,2.64,2.34,4.41,2.34h1.41c2.19,0,4.14-1.31,4.95-3.35l25.39-63.32L106.75,7.62c.58-1.44.51-3.06-.21-4.45-.72-1.38-2-2.38-3.51-2.74-.43-.1-.87-.2-1.31-.3-.39-.09-.78-.13-1.18-.13h0Z"/>
    </g>
    <g>
      <path class="cls-1" d="M52.13,116.6c-.49,0-.93-.28-1.14-.73L1.62,7.33c-.51-1.13-.49-2.41.06-3.51.55-1.11,1.56-1.9,2.77-2.16l1.07-.24c.3-.07.6-.1.9-.1,1.6,0,3.05.94,3.71,2.39l44.94,99.21.73,1.46c.14.28.17.6.08.9-.99,3.46-1.81,7.02-2.54,10.34-.12.53-.55.92-1.09.97-.04,0-.09,0-.13,0Z"/>
      <path class="cls-1" d="M6.43,2.56c1.09,0,2.11.63,2.57,1.66l44.94,99.21c.27.53.51,1.03.75,1.5-.97,3.4-1.78,6.88-2.56,10.42L2.76,6.81c-.75-1.64.21-3.55,1.97-3.94.36-.08.72-.16,1.07-.24.21-.05.42-.07.63-.07M6.43.06c-.4,0-.79.04-1.18.13l-1.06.24C2.61.78,1.29,1.81.56,3.26c-.72,1.45-.75,3.12-.08,4.59l49.37,108.54c.41.9,1.3,1.46,2.27,1.46.09,0,.17,0,.26-.01,1.07-.11,1.95-.9,2.18-1.95.73-3.31,1.54-6.85,2.52-10.27.17-.6.11-1.24-.16-1.8l-.73-1.46L11.28,3.19C10.42,1.29,8.51.06,6.43.06h0Z"/>
    </g>
  </g>
</svg>