<?xml version="1.0" encoding="UTF-8"?>
<svg id="Layer_2" data-name="Layer 2" xmlns="http://www.w3.org/2000/svg" viewBox="0 0 182.53 254.16">
  <defs>
    <style>
      .cls-1, .cls-2 {
        fill: #000000;
      }

      .cls-3 {
        fill: #000000;
      }

      .cls-2 {
        font-family: LexendDeca-Regular, 'Lexend Deca';
        font-size: 42px;
      }

      .cls-2, .cls-4 {
        isolation: isolate;
      }

      .cls-5 {
        fill: #000000;
      }

      .cls-6 {
        fill: #000000;
      }

      .cls-7 {
        fill: #000000;
      }

      .cls-8 {
        fill: #000000;
      }

      .cls-9 {
        fill: #000000;
      }
    </style>
  </defs>
  <g id="Layer_1-2" data-name="Layer 1">
    <g id="Layer_1-2" data-name="Layer 1-2">
      <g class="cls-4">
        <text class="cls-2" transform="translate(0 36.76)"><tspan x="0" y="0">1</tspan></text>
      </g>
      <g class="cls-4">
        <text class="cls-2" transform="translate(31.44 35.7)"><tspan x="0" y="0">2</tspan></text>
      </g>
      <path class="cls-1" d="M14.13,161.57h6.83l-9.09,15.77-9.12-15.76h6.82l-.13-110.6h4.56l.13,110.59ZM56.58,24.81l-.53-4.54c2.13-.25,51.36-5.71,84.86,13.03l4.03-5.55,7.42,16.63-18.11-1.89,3.97-5.47c-32.24-17.7-81.12-12.27-81.63-12.21h-.01Z"/>
    </g>
    <g id="Layer_2-2" data-name="Layer 2">
      <g id="Layer_1-2-2" data-name="Layer 1-2">
        <path class="cls-6" d="M182.5,153.87c-3.17,0-3.13,0-3.09-3.19v-9c.84-.15,1.69-.19,2.54-.12.35,0,.46.23.45.54v9c-.06.78-.02,1.56.13,2.33l-.03.44Z"/>
        <path class="cls-3" d="M79.88,41.09c-.07,1,.42,2.27-.18,2.89s-2,.21-3,.22h-8.13c-.88,0-1.23-.2-1.14-1.12.03-.67.03-1.33,0-2h12.45Z"/>
        <path class="cls-8" d="M25.95,246.49q3.36-.2,3.36,3.12v1.42c-.65-.06-.52-.61-.57-1-.04-.56-.04-1.12,0-1.68,0-.79-.17-1.3-1.12-1.28s-1,.52-1,1.25v4.18c.03.44-.02.88-.13,1.31-.06.12-.14.24-.23.34-.53,0-.22-.42-.22-.6-.1-2.34-.09-4.7-.09-7.06Z"/>
        <path class="cls-3" d="M55.36,41.09v.25c-.42.33-.96.46-1.48.37h-9.27c-.52.07-1.05-.07-1.47-.38v-.24h12.22Z"/>
        <path class="cls-3" d="M43.13,254.16v-.25c.42-.31.95-.44,1.47-.37h9.28c.52-.07,1.04.06,1.46.37v.25h-12.21Z"/>
        <path class="cls-3" d="M67.59,254.16v-.24c.42-.31.94-.45,1.45-.38h9.27c.52-.07,1.04.06,1.46.37v.25h-12.18Z"/>
        <path class="cls-7" d="M26.22,165.09h-.27v-11.7h.3c.27.4.38.89.32,1.37v9c.06.47-.07.95-.35,1.33Z"/>
        <path class="cls-7" d="M26.25,95.27h-.3v-11.71h.27c.29.39.41.88.35,1.36v9c.06.47-.05.95-.32,1.35Z"/>
        <path class="cls-7" d="M25.95,60.29h.27c.29.39.41.87.35,1.35v9c.06.48-.05.97-.32,1.37h-.3v-11.72Z"/>
        <path class="cls-7" d="M25.95,223.21h.3c.27.4.38.89.32,1.37v9c.06.48-.06.97-.35,1.36h-.27v-11.73Z"/>
        <path class="cls-7" d="M25.95,176.66h.3c.28.42.4.93.32,1.43v9c.06.48-.06.97-.35,1.36h-.27v-11.79Z"/>
        <path class="cls-7" d="M25.95,106.84h.27c.29.39.41.87.35,1.35v9c.06.48-.05.97-.32,1.37h-.3v-11.72Z"/>
        <path class="cls-7" d="M25.95,130.09h.27c.3.4.42.91.35,1.4v9c.07.48-.05.96-.32,1.36h-.3v-11.76Z"/>
        <path class="cls-7" d="M26.22,211.67h-.27v-11.73h.3c.27.4.38.89.32,1.37v9c.06.48-.06.97-.35,1.36Z"/>
        <path class="cls-8" d="M26.25,48.72h-.3c0-2.31,0-4.63.02-7.03,0-.18-.31-.6.22-.6.1.12.18.25.25.39.17,2.2.19,4.41.08,6.61-.01.24-.11.46-.27.63Z"/>
        <path class="cls-3" d="M26.23,41.35l-.04-.26h7.44v.24c-.17.18-.39.29-.63.31-2.04.11-4.08.12-6.12,0-.25,0-.48-.12-.65-.3Z"/>
        <path class="cls-3" d="M26.19,254.16v-.25c.23-.23.54-.35.86-.34,1.89,0,3.78-.06,5.67,0,.32,0,.63.12.86.34v.24h-7.39Z"/>
        <path class="cls-3" d="M182.28,151.25v-7.24c.08-.09.15-.08.22,0v7.2c-.07.12-.14.13-.22.04Z"/>
        <path class="cls-7" d="M182.3,142.09c0-.48-.3-.55-.7-.53-.74,0-1.48,0-2.22.08,1-.51,2.07-.24,3.12-.25v.7c-.08.13-.15.13-.2,0Z"/>
        <path class="cls-5" d="M182.28,151.25c.07-.02.15-.02.22,0v2.16c-.5-.69-.15-1.45-.22-2.16Z"/>
        <path class="cls-5" d="M182.3,142.09c.06-.02.14-.02.2,0v1.92h-.22l.02-1.92Z"/>
        <path class="cls-9" d="M138.96,238.67c-.39-.1-.48-.43-.65-.69-1.13-1.72-1.13-1.71.53-2.83,2.52-1.68,4.93-3.53,7.21-5.53.64-.57,1-.48,1.47.14,1.28,1.55,1.32,1.53-.2,2.78-2.45,2.04-5.01,3.95-7.67,5.71-.23.15-.47.29-.69.42Z"/>
        <path class="cls-9" d="M138.74,56.6l.69.44c3,2.03,5.89,4.22,8.65,6.56.63.52.45.78,0,1.27-1.39,1.52-1.36,1.53-3,.19-2.24-1.91-4.61-3.67-7.08-5.27-.87-.54-.92-1-.29-1.7.38-.47.72-.97,1.03-1.49Z"/>
        <path class="cls-9" d="M175.57,190.56c0,.08-.09.28-.15.46-1.2,3.34-2.57,6.6-4,9.82-.32.71-.6.84-1.31.47-1.82-.94-1.85-.9-1-2.75,1.27-2.66,2.38-5.39,3.31-8.18.36-1.13.84-1.23,1.76-.75.31.16.68.22,1,.36s.49.1.39.57Z"/>
        <path class="cls-9" d="M116.58,46.09l1.92.65c2.91,1,5.74,2.14,8.54,3.4.63.28.94.47.55,1.27-.92,1.86-.86,1.88-2.8,1-2.68-1.21-5.44-2.26-8.25-3.14-1-.3-1.17-.71-.76-1.58.17-.4.3-.82.41-1.24.08-.2.17-.42.39-.36Z"/>
        <path class="cls-9" d="M157.35,72.97l.49.57c2.33,2.77,4.51,5.67,6.53,8.67.45.65.28.89-.29,1.26-1.77,1.13-1.76,1.15-2.93-.58-1.49-2.21-3.09-4.34-4.79-6.4-1.3-1.59-1.31-1.59.31-3l.68-.52Z"/>
        <path class="cls-9" d="M157.46,222.45c-.72-.56-1.41-1.16-2.05-1.81-.37-.41.25-.66.46-.93,2.16-2.6,4.16-5.33,6-8.16.39-.62.67-.66,1.28-.26,1.8,1.19,1.81,1.15.56,3-1.75,2.57-3.62,5-5.61,7.44-.17.22-.39.44-.64.72Z"/>
        <path class="cls-9" d="M127.88,244.48c.07.43-.3.44-.51.53-3.37,1.52-6.82,2.86-10.33,4-.46.15-.68.11-.89-.4-.87-2.19-.88-2.16,1.38-3,2.75-.91,5.45-1.99,8.08-3.22.9-.44,1.35-.35,1.64.61.18.51.39,1,.63,1.48Z"/>
        <path class="cls-9" d="M175.54,104.73c.11.44-.14.52-.35.63-1.91,1-2.26.91-3-1.13-1.03-2.8-2.2-5.55-3.51-8.23-.38-.74-.36-1.12.51-1.5,1.77-.79,1.73-.85,2.59,1,1.33,2.8,2.48,5.68,3.56,8.59.06.23.15.49.2.64Z"/>
        <path class="cls-9" d="M181.23,128.62c.1.41,0,.63-.35.67l-2.12.29c-.47.06-.49-.31-.53-.62-.45-3.6-1.09-7.16-1.93-10.69-.1-.45,0-.68.47-.72.07-.02.15-.05.22-.08q2.15-.59,2.61,1.59c.66,3.2,1.21,6.42,1.63,9.56Z"/>
        <path class="cls-9" d="M181.21,166.82c-.46,3.55-1.13,7.14-1.89,10.73-.12.56-.25.83-1,.64-2.1-.55-2.1-.49-1.67-2.59.61-2.92,1.17-5.85,1.5-8.82.1-.83.38-1.11,1.19-.93.46.12.93.18,1.41.2.52.04.61.26.46.77Z"/>
        <path class="cls-9" d="M93.12,41.56c3.55.32,7,.77,10.33,1.32.8.13.93.41.76,1.16-.43,1.91-.4,1.94-2.44,1.61-3-.47-6-.86-9-1.08-.74,0-1.1-.26-.91-1,.07-.27.1-.55.09-.83-.07-1.03.3-1.47,1.17-1.18Z"/>
        <path class="cls-9" d="M91.93,251.96c-.32-.92.09-1.23,1.14-1.31,3.29-.22,6.57-.65,9.81-1.27.72-.14,1.06,0,1.18.81.31,2,.34,2-1.67,2.34-2.83.51-5.68.8-8.53,1.1-1.73.19-1.73.17-1.93-1.67Z"/>
        <path class="cls-6" d="M79.79,253.91h-12.18q-.2-2.84,2.62-2.84h8.59c.86,0,1.12.25,1,1.07-.04.59-.05,1.18-.03,1.77Z"/>
        <path class="cls-6" d="M55.32,253.91h-12.16q-.14-2.82,2.72-2.82h8.5c.85,0,1.15.22,1,1.06-.08.56-.04,1.16-.06,1.76Z"/>
        <path class="cls-6" d="M43.14,41.33h12.18q.14,2.83-2.64,2.83c-2.78,0-5.64-.05-8.46,0-1,0-1.25-.3-1.14-1.2.07-.51.04-1.07.06-1.63Z"/>
        <path class="cls-9" d="M26.23,41.35h7.39q.19,2.84-2.65,2.84-1.86,0-1.86,1.88,0,2.69-2.74,2.68h-.12l-.02-7.4Z"/>
        <path class="cls-9" d="M26.22,165.09v-11.69q2.86,0,2.86,2.78v7.88c0,.94-.28,1.17-1.13,1.07-.58-.04-1.15-.05-1.73-.04Z"/>
        <path class="cls-9" d="M26.22,211.67v-11.69q2.86,0,2.86,2.78v7.88c0,.94-.28,1.17-1.13,1.07-.58-.04-1.15-.05-1.73-.04Z"/>
        <path class="cls-9" d="M26.25,118.55v-11.69q2.89-.08,2.89,2.82v7.88c0,.75-.14,1.1-1,1-.63-.04-1.26-.05-1.89,0Z"/>
        <path class="cls-9" d="M26.25,72v-11.69q2.89-.08,2.89,2.82v7.88c0,.75-.14,1.1-1,1-.63-.04-1.26-.05-1.89-.01Z"/>
        <path class="cls-9" d="M26.22,234.95v-11.7q2.86,0,2.86,2.79v7.87c0,.94-.28,1.17-1.13,1.07-.58-.04-1.15-.05-1.73-.03Z"/>
        <path class="cls-9" d="M26.25,95.27v-11.69q2.89-.07,2.89,2.83v7.87c0,.75-.14,1.11-1,1-.61-.06-1.26,0-1.89,0Z"/>
        <path class="cls-9" d="M33.62,253.92h-7.39c0-2.11,0-4.22-.06-6.33,0-.74.19-.94.93-.93,2,0,1.93,0,2,1.9,0,.82-.32,1.7.22,2.48,1.16,0,2.31.09,3.46,0,.77,0,1,.23.91,1s-.06,1.24-.07,1.88Z"/>
        <path class="cls-9" d="M26.22,188.4v-11.7q2.86,0,2.86,2.79v7.87c0,.94-.28,1.17-1.13,1.07-.58-.04-1.15-.05-1.73-.03Z"/>
        <path class="cls-9" d="M26.25,141.82l-.03-11.73q2.89,0,2.89,2.87v7.87c0,.75-.14,1.11-1,1-.58-.06-1.23,0-1.86-.01Z"/>
        <path class="cls-6" d="M73.54,43.97h-5c-1.08,0-.91-.65-.86-1.25s-.45-1.42.78-1.4h10.3c1.22,0,.76.85.82,1.43.06.58.16,1.28-.89,1.24-1.72-.07-3.43-.02-5.15-.02Z"/>
      </g>
    </g>
  </g>
</svg>