<?xml version="1.0" encoding="UTF-8"?>
<svg id="Layer_2" data-name="Layer 2" xmlns="http://www.w3.org/2000/svg" viewBox="0 0 163.88 257.77">
  <defs>
    <style>
      .cls-1, .cls-2 {
        fill: #231f20;
      }

      .cls-2 {
        font-family: LexendDeca-Regular, 'Lexend Deca';
        font-size: 42px;
      }

      .cls-2, .cls-3 {
        isolation: isolate;
      }

      .cls-4 {
        fill: #020202;
      }

      .cls-5 {
        fill: #030303;
      }

      .cls-6 {
        fill: #060606;
      }

      .cls-7 {
        stroke-width: 2.25px;
      }

      .cls-7, .cls-8 {
        fill: #262324;
        stroke: #231f20;
        stroke-miterlimit: 10;
      }

      .cls-9 {
        fill: #070707;
      }

      .cls-10 {
        fill: #010101;
      }

      .cls-8 {
        stroke-width: 2.5px;
      }
    </style>
  </defs>
  <g id="Layer_1-2" data-name="Layer 1">
    <g id="Layer_1-2" data-name="Layer 1-2">
      <path class="cls-7" d="M61.52,118.18c-.05.06-.03.19.08.28.32.25.9.45,1.33.8,3.31,2.73,3.48,8.09.81,11.32-3.26,3.96-9.63,3.53-12.95-.13-.46-.51-2.24-2.55-.91-2.94.97-.29,1.59,1.28,2.19,1.93,1.18,1.28,2.91,2.2,4.66,2.35,8.86.79,9.82-11.92,1.59-12.66-.54-.05-2.49.18-2.75-.23-1.18-1.87,2.78-1.32,3.55-1.43,2.13-.29,4.07-2.35,4.28-4.48.65-6.44-6.89-9.01-10.78-4.18-.38.47-1.3,2.38-1.58,2.47-.52.16-1.11-.15-1.11-.72,0-.19.79-1.73.96-2,2.42-3.86,8.21-5.09,11.71-1.91,2.92,2.65,3.26,7.94.27,10.65-.27.24-1.3.82-1.35.88h0Z"/>
      <g class="cls-3">
        <text class="cls-2" transform="translate(0 43.42)"><tspan x="0" y="0">1</tspan></text>
      </g>
      <g class="cls-3">
        <text class="cls-2" transform="translate(26.83 35.7)"><tspan x="0" y="0">2</tspan></text>
      </g>
      <path class="cls-1" d="M11.39,166.52h6.82l-9.08,15.77-9.13-15.75h6.83l-.13-110.61h4.57l.13,110.59h-.01ZM57.5,23.48l83.94-.13v-6.83l15.77,9.08-15.75,9.13v-6.82l-83.95.13v-4.57h-.01ZM76.47,119.13l20.93-.09-.03-6.83,15.8,9.04-15.73,9.17-.03-6.82-20.93.09-.02-4.56h0ZM77.24,219.32l64.95-.12v-6.83l15.78,9.08-15.75,9.13v-6.82l-64.96.12v-4.57h-.02Z"/>
      <path class="cls-8" d="M51.31,220.38h11.46v-12.47c0-.94,1.75-.93,1.75-.27v12.74h3.71c.8,0,.71,1.89-.13,1.89h-3.57c.27,4.19.07,8.41.14,12.61-.05,1.1-1.62,1.35-1.76.13-.35-3.09.13-7.03,0-10.25-.03-.79-.26-1.65-.14-2.49h-12.47c-.07,0-1.06-.82-.87-1.13l2.22-13.56c.82-.9,1.76-.25,1.55.87,0,0-1.89,11.93-1.89,11.93Z"/>
    </g>
    <g id="Layer_2-2" data-name="Layer 2">
      <g id="Layer_1-2-2" data-name="Layer 1-2">
        <path class="cls-10" d="M58.59,148.21c-1.82-.84-6.33,1.9-6-2.68s4.08-.3,6.2-1.19c1.41-.59,3.27-.19,4.91-.08,1,.07,2.52-.66,2.6,1.27.2,1.25-.65,2.42-1.9,2.62-.13.02-.25.03-.38.03-1.69.12-3.35.03-5.43.03Z"/>
        <path class="cls-10" d="M85.36,144.23c1.47,0,3-.06,4.42,0,1,0,2.48-.52,2.45,1.42,0,1.32-.71,2.39-1.93,2.46-3.27.17-6.55.16-9.82,0-1.23,0-2.23-1-2.23-2.23,0-.16.02-.32.05-.47.16-1.87,1.66-1.12,2.64-1.2,1.46-.07,2.94.02,4.42.02Z"/>
        <path class="cls-10" d="M110.83,144.02c1.86,1.47,6-2.15,6.13,2.1.1,4.07-4,2-6,1.92-2.54,0-7.26,2.09-7.3-2-.04-3.48,4.63-.98,7.17-2.02Z"/>
        <path class="cls-4" d="M26.21,138.62c1-1.69-2.05-6,2.22-5.88,3.93.14.91,4.21,1.72,6.37.33.86,0,2,.06,3,.09,1.87-.43,3.46-2.58,3.34-2.44-.19-1.12-2.27-1.38-3.48-.12-1.11-.13-2.23-.04-3.35Z"/>
        <path class="cls-6" d="M25.92,185.02c1.41-1.87-1.78-5.8,2.14-5.88,3.92-.08,2.06,3.86,2,5.83s2.16,6.15-1.8,6.19c-4.31.05-.87-4.18-2.34-6.14Z"/>
        <path class="cls-6" d="M26.2,207.9v-3c0-1.31-.21-2.59,1.88-2.61,1.87,0,2.2.79,2.15,2.37-.08,2.47-.12,4.95,0,7.42.11,1.93-.72,2.79-2.53,2.72-2.18-.08-1.38-1.83-1.48-3-.11-1.25-.02-2.58-.02-3.9Z"/>
        <path class="cls-4" d="M26.21,231.08c1.18-1.48-2.1-5.42,1.76-5.48,3.62-.07,1.85,3.79,2.2,6,.16,1.31.16,2.64,0,3.95-.09,1.13.71,2.82-1.58,2.81-2,0-2.46-1.21-2.4-2.91.06-1.35.02-2.67.02-4.37Z"/>
        <path class="cls-10" d="M26.21,252.48c.54-1.21-1.19-3.48,1.05-4s3,1.27,3,3.35c-.09,1.91,1.36,1.5,2.4,1.48,1.41,0,1.62.76,1.58,1.86,0,.94.14,1.77-1.25,2.18-4.45,1.26-6.79-.28-6.78-4.87Z"/>
        <path class="cls-10" d="M26.21,69.18c0-1.31-.09-2.63,0-3.93.09-1-.67-2.5,1.2-2.62,1.87-.12,2.72.88,2.75,2.65v6.88c0,1.86-.43,3.43-2.57,3.34-2.39-.08-1.08-2.18-1.34-3.38-.11-.98-.13-1.96-.04-2.94Z"/>
        <path class="cls-10" d="M30.2,91.91v2.95c.06,1.75-.1,3.51-2.29,3.6-3,.12-1.5-2.31-1.64-3.59-.19-2.12-.19-4.26,0-6.38.08-1.07-.89-2.92,1.41-2.9,1.8,0,2.58,1.12,2.54,2.88-.04,1.14-.02,2.29-.02,3.44Z"/>
        <path class="cls-10" d="M30.2,161.86v3c.08,1.8-.2,3.47-2.4,3.54-2.63.02-1.42-2.09-1.54-3.28-.19-2,0-4,0-5.93,0-1.82-.29-3.93,2.54-3.71,2.45.2,1.16,2.21,1.41,3.42.1.98.09,1.98-.01,2.96Z"/>
        <path class="cls-10" d="M26.14,47.68c.49-1.36-.89-3.46,1.04-3.9,2.1-.34,4.24-.33,6.34.04,1,.12.93,1.74.61,2-2.06,1.7-3.93,3.61-5.6,5.69-.21.3-1.78.49-2.07-.51-.23-1.09-.33-2.21-.32-3.32Z"/>
        <path class="cls-10" d="M72.49,43.61c1.44,1.22,5.41-2.19,5.41,1.87s-4,1.3-6,2.09c-.64.19-1.31.19-1.95,0-1.44-.33-4,1.26-3.79-2.08s2.59-1.4,4-1.84c.77-.11,1.55-.13,2.33-.04Z"/>
        <path class="cls-10" d="M93.75,47.61c-1.46-1.19-5.39,2.12-5.45-1.83-.06-4.2,4-1.31,6-2.13.64-.19,1.31-.19,1.95,0,1.43.32,3.91-1.23,3.82,2.04s-2.58,1.46-4,1.89c-.77.1-1.55.11-2.32.03Z"/>
        <path class="cls-4" d="M115.96,47.61c-.66.09-1.34.09-2,0-1.42-.41-3.95,1.38-3.95-2s2.54-1.7,3.97-1.94c1.48-.14,2.97-.14,4.45,0,1.6,0,3.53-.37,3.58,2.18,0,3-2.28,1.45-3.58,1.77-.82.1-1.65.09-2.47,0Z"/>
        <path class="cls-10" d="M30.53,115.54c-1.58,1.78,1.91,5.66-2.23,5.79-4.31.09-1.85-3.79-1.88-5.61,0-2-2.22-6,1.93-6,4,.03.65,3.99,2.18,5.82Z"/>
        <path class="cls-5" d="M50.18,252.98c1.79,1.56,5.66-1.9,5.8,2.21.15,4.33-3.77,1.86-5.58,1.89-2,0-6,2.21-6-1.91s3.96-.66,5.78-2.19Z"/>
        <path class="cls-10" d="M50.31,47.6h-3.44c-1.77,0-2.77-.95-2.65-2.76s1.65-1.14,2.62-1.19c1.97-.13,3.94-.13,5.91,0,1.36.11,3.44-1,3.46,1.94s-2.07,1.83-3.46,2c-.81.06-1.63.07-2.44,0Z"/>
        <path class="cls-9" d="M137.49,47.61h-3.46c-1.4.07-2-.38-2.08-1.93-.08-1.93.87-2.16,2.4-2.11,2.14.07,4.29,0,6.43,0,1.24,0,2.84-.4,2.69,1.78-.11,1.57-.84,2.37-2.52,2.23-1.15-.04-2.31.04-3.46.03Z"/>
        <path class="cls-10" d="M157.67,47.61c-1.49-1.13-5.37,2.06-5.49-1.78-.14-4.3,3.91-1.36,5.94-2.17.81-.12,1.62-.12,2.43,0,1.86-.09,3.42.43,3.33,2.56-.11,2.45-2.19,1.12-3.38,1.4-.94.1-1.89.09-2.83,0Z"/>
        <path class="cls-10" d="M37.19,147.22c-.65.08-1.3.08-1.95,0-1.42-.39-3.92,1.35-3.89-2s2.5-1.68,3.93-1.92c1.47-.12,2.94-.15,4.41-.07,1.76,0,3.51.14,3.57,2.33.08,2.94-2.34,1.27-3.62,1.64-.81.11-1.64.12-2.45.02Z"/>
        <path class="cls-5" d="M72.5,253.3c1.43,1.22,5.4-2.18,5.4,1.87s-4,1.29-6,2.09c-.66.1-1.34.1-2,0-2,.08-3.89-.15-3.72-2.65.16-2.34,2.25-1,3.46-1.32.95-.09,1.91-.09,2.86.01Z"/>
        <path class="cls-5" d="M93.82,257.29c-1.52-1.12-5.71,2.18-5.52-2.23.16-3.73,3.94-.88,5.91-1.72.66-.12,1.34-.12,2,0,1.91-.08,4,0,3.82,2.54-.14,2.79-2.52,1-3.83,1.42-.79.11-1.59.1-2.38,0Z"/>
        <path class="cls-5" d="M115.59,257.29h-3.93c-1.31,0-1.63-.64-1.63-1.82s.09-2.24,1.77-2.19c2.29.08,4.59.06,6.88,0,1.87,0,3.42.49,3.28,2.61-.17,2.39-2.22,1.1-3.43,1.35-.98.12-1.96.13-2.94.05Z"/>
        <path class="cls-5" d="M137.5,257.29h-3.44c-1.35.06-2-.3-2.1-1.87-.06-1.84.74-2.23,2.33-2.15,2,.09,3.93,0,5.89,0,1.68,0,3.73,0,3.62,2.12s-2.2,1.94-3.85,1.89c-.81,0-1.63,0-2.45,0Z"/>
        <path class="cls-10" d="M157.59,253.11c2.27.8,6.12-1.22,6,2.39-.07,2.92-3.78,2-5.75,1.64s-5.68,2.32-5.75-1.81c-.04-4.43,4-.66,5.5-2.22Z"/>
        <path class="cls-10" d="M135.45,144.23c1.54.89,5.13-1.61,5.42,1.35.3,3.12-3.31.92-5,1.73-.44.22-.83.7-1.27.74-1.75.15-3.68.84-5-.95-.38-.53-.51-1.21-.35-1.84.94-2.11,2.87-.62,4.31-1,.63-.08,1.26-.09,1.89-.03Z"/>
      </g>
    </g>
  </g>
</svg>