<?xml version="1.0" encoding="UTF-8"?>
<svg id="Layer_2" data-name="Layer 2" xmlns="http://www.w3.org/2000/svg" viewBox="0 0 226.24 254.4">
  <defs>
    <style>
      .cls-1, .cls-2 {
        fill: #231f20;
      }

      .cls-3 {
        fill: #272425;
      }

      .cls-4 {
        fill: #939598;
      }

      .cls-5 {
        stroke-width: 2.25px;
      }

      .cls-5, .cls-6, .cls-7 {
        fill: #262324;
      }

      .cls-5, .cls-7 {
        stroke: #231f20;
        stroke-miterlimit: 10;
      }

      .cls-8 {
        fill: #282526;
      }

      .cls-9 {
        fill: #949698;
      }

      .cls-7 {
        stroke-width: 2.5px;
      }

      .cls-2 {
        font-family: LexendDeca-Regular, 'Lexend Deca';
        font-size: 42px;
      }
    </style>
  </defs>
  <g id="Layer_1-2" data-name="Layer 1">
    <path class="cls-1" d="M11.39,155h6.82s-9.08,15.77-9.08,15.77L0,155.01h6.83s-.13-110.61-.13-110.61h4.57s.13,110.59.13,110.59ZM74.68,111.5l6.13-3.01-29.73-60.58,4.1-2.01,29.73,60.59,6.12-3.01-1.22,18.17-15.13-10.14ZM135.05,134.89l33.38-89.13-6.39-2.39,14.06-11.57,3,17.96-6.39-2.39-33.37,89.13-4.28-1.6ZM224.41,156.58l-9.08,15.78-9.13-15.75h6.83s-.13-110.61-.13-110.61h4.57s.13,110.59.13,110.59h6.82Z"/>
    <text class="cls-2" transform="translate(0 35.7)"><tspan x="0" y="0">1</tspan></text>
    <text class="cls-2" transform="translate(36.63 35.7)"><tspan x="0" y="0">2</tspan></text>
    <path class="cls-5" d="M130.77,154.8c-.05.06-.03.19.08.28.32.25.9.45,1.33.8,3.31,2.73,3.48,8.09.81,11.32-3.26,3.96-9.63,3.53-12.95-.13-.46-.51-2.24-2.55-.91-2.94.97-.29,1.59,1.28,2.19,1.93,1.18,1.28,2.91,2.2,4.66,2.35,8.86.79,9.82-11.92,1.59-12.66-.54-.05-2.49.18-2.75-.23-1.18-1.87,2.78-1.32,3.55-1.43,2.13-.29,4.07-2.35,4.28-4.48.65-6.44-6.89-9.01-10.78-4.18-.38.47-1.3,2.38-1.58,2.47-.52.16-1.11-.15-1.11-.72,0-.19.79-1.73.96-2,2.42-3.86,8.21-5.09,11.71-1.91,2.92,2.65,3.26,7.94.27,10.65-.27.24-1.3.82-1.35.88Z"/>
    <path class="cls-7" d="M207.51,25.21h11.46v-12.47c0-.94,1.75-.93,1.75-.27v12.74h3.71c.8,0,.71,1.89-.13,1.89h-3.57c.27,4.19.07,8.41.14,12.61-.05,1.1-1.62,1.35-1.76.13-.35-3.09.13-7.03,0-10.25-.03-.79-.26-1.65-.14-2.49h-12.47c-.07,0-1.06-.82-.87-1.13l2.22-13.56c.82-.9,1.76-.25,1.55.87l-1.89,11.93Z"/>
    <g id="Layer_1-2" data-name="Layer 1-2">
      <g>
        <path class="cls-3" d="M30.42,37.52h-3.27v7.68c.55-.06,3.12.23,3.12-.36v-4.2h.79c-.28-1.01-.48-2.05-.64-3.12Z"/>
        <path class="cls-8" d="M27.15,80h3.12v11.4c0,.59-2.57.3-3.12.36,0,0,0-11.76,0-11.76Z"/>
        <path class="cls-8" d="M27.15,103.28h3.12v11.4c0,.59-2.57.3-3.12.36v-11.76Z"/>
        <path class="cls-8" d="M27.15,126.56h3.12v11.4c0,.59-2.57.3-3.12.36v-11.76Z"/>
        <path class="cls-8" d="M27.15,56.72h3.12v11.4c0,.59-2.57.3-3.12.36,0,0,0-11.76,0-11.76Z"/>
        <path class="cls-8" d="M27.15,149.84h3.12v11.4c0,.59-2.57.3-3.12.36v-11.76Z"/>
        <path class="cls-8" d="M27.15,173.12h3.12v11.4c0,.59-2.57.3-3.12.36v-11.76Z"/>
        <path class="cls-8" d="M27.15,196.4h3.12v11.4c0,.59-2.57.3-3.12.36v-11.76Z"/>
        <path class="cls-8" d="M27.15,219.68h3.12v11.4c0,.59-2.57.3-3.12.36v-11.76Z"/>
        <path class="cls-3" d="M31.14,247.52h-.87v-4.2c0-.59-2.57-.3-3.12-.36v7.44c1.26.1,2.62.14,3.96.14-.21-.99-.2-2.03.03-3.02Z"/>
        <path class="cls-3" d="M197.4,35.7h-4.04c.09.42.14.83.14,1.23,0,.65-.12,1.29-.33,1.89h1.35v4.56c.93-.11,2.09.28,2.88-.24.2-2.39.2-5.1,0-7.44h0Z"/>
        <path class="cls-9" d="M197.47,179.63h-.24c-.19-.02-.47-.09-.48-.22-.15-2.99-.09-6.45,0-9.47-.18-1.04-.02-1.73.48-2.07h.24v11.76h0Z"/>
        <path class="cls-9" d="M197.47,156.35h-.24c-.19-.02-.47-.09-.48-.22-.15-2.99-.09-6.45,0-9.47-.18-1.04-.02-1.73.48-2.07h.24v11.76Z"/>
        <path class="cls-9" d="M198.15,202.43h-.24c-.19-.02-.47-.09-.48-.22-.15-2.99-.09-6.45,0-9.47-.18-1.04-.02-1.73.48-2.07h.24v11.76h0Z"/>
        <path class="cls-4" d="M197.47,132.83h-.24c-.19-.02-.47-.09-.48-.22-.14-2.97-.23-7.05,0-9.97-.15-.73,0-1.18.48-1.33h.24v11.52Z"/>
        <path class="cls-4" d="M197.73,113.34h-.24c-.19-.02-.47-.09-.48-.22-.14-2.97-.23-7.05,0-9.97-.15-.73,0-1.18.48-1.33h.24v11.52Z"/>
        <path class="cls-4" d="M197.72,66.16h-.24c-.19-.02-.47-.09-.48-.22-.14-2.97-.23-7.05,0-9.97-.15-.73,0-1.18.48-1.33h.24s0,11.52,0,11.52Z"/>
        <path class="cls-4" d="M197.73,91.09h-.24c-.19-.02-.47-.09-.48-.22-.14-2.97-.23-7.05,0-9.97-.15-.73,0-1.18.48-1.33h.24v11.52Z"/>
        <path class="cls-4" d="M31.08,250.4h-3.93v.24h3.98c-.02-.08-.03-.16-.05-.24Z"/>
        <polygon class="cls-3" points="188.22 62.37 184.06 73.94 181.2 73.18 185.36 61.61 188.22 62.37"/>
        <path class="cls-3" d="M176.95,95.98c-.14.15-2.7-.54-2.81-.64s-.09-.36-.09-.52c.57-1.32,3.55-11.02,4.3-11.11.33-.04,2.47.75,2.55,1.01l-3.95,11.26h0Z"/>
        <path class="cls-3" d="M195.31,44.08c.49.42-3.4,10.05-3.81,11.36-.56.66-2.07-.34-2.72-.54l3.73-11.46c.14-.15,2.7.54,2.81.64h0Z"/>
        <path class="cls-3" d="M36.63,60.96c.76.1,2.47-1.25,2.94-.73l4.24,10.93c-.04.51-2.37,1.45-2.72,1.08,0,0-4.46-11.28-4.46-11.28Z"/>
        <path class="cls-3" d="M70.76,139.58l-2.83.98c-.14-1.5-4.62-11.02-4.21-11.47.15-.17,2.36-1.13,2.73-.87l4.32,11.36h0Z"/>
        <path class="cls-3" d="M34.84,48.93c-.84-.16-2.18,1.2-2.79.63l-4.13-11.22c.7-.18,2.15-1.24,2.7-.63l4.21,11.23h0Z"/>
        <path class="cls-3" d="M166.21,117.11c-.41-.44,3.59-10.09,3.91-11.49.36-.28,2.6.61,2.76.78.42.43-3.6,9.87-3.88,11.27-.27.41-2.69-.44-2.79-.55h0Z"/>
        <path class="cls-3" d="M48.58,82.84l4.38,11.1c-.04.25-2.74,1.35-3.06,1.03l-4.15-10.88c0-.17-.04-.42.07-.53.1-.1,2.58-.87,2.76-.72Z"/>
        <path class="cls-3" d="M56.98,105.52c.29,0,.49.04.62.32l4.27,10.87c-.04.13-2.38,1.11-2.52,1.11-.61-.02-4.08-9.93-4.66-11.2.03-.35,1.98-1.11,2.29-1.1Z"/>
        <rect class="cls-6" x="194.35" y="144.59" width="2.88" height="11.76"/>
        <path class="cls-6" d="M197.49,101.82v11.52c-.79.52-1.95.13-2.88.24v-11.76s2.88,0,2.88,0Z"/>
        <path class="cls-6" d="M197.49,79.57v11.52c-.79.52-1.95.13-2.88.24v-11.76s2.88,0,2.88,0Z"/>
        <path class="cls-6" d="M197.48,54.64v11.52c-.79.52-1.95.13-2.88.24v-11.76h2.88Z"/>
        <path class="cls-6" d="M197.23,121.31v11.52c-.79.52-1.95.13-2.88.24v-11.76h2.88Z"/>
        <rect class="cls-6" x="194.35" y="167.87" width="2.88" height="11.76"/>
        <rect class="cls-6" x="194.61" y="214.47" width="2.88" height="11.76"/>
        <rect class="cls-6" x="195.03" y="190.67" width="2.88" height="11.76"/>
      </g>
      <path class="cls-3" d="M82.87,173.92c.76.1,2.47-1.25,2.94-.73l4.24,10.93c-.04.51-2.37,1.45-2.72,1.08l-4.46-11.28h0Z"/>
      <path class="cls-3" d="M81.08,161.89c-.84-.16-2.18,1.2-2.79.63l-4.13-11.23c.7-.18,2.15-1.24,2.7-.63l4.21,11.23h.01Z"/>
      <path class="cls-3" d="M94.83,195.79l4.38,11.1c-.04.25-2.74,1.35-3.06,1.03l-4.15-10.88c0-.17-.04-.42.07-.53.1-.1,2.58-.87,2.76-.72Z"/>
      <path class="cls-3" d="M103.22,218.47c.29,0,.49.04.62.32l4.27,10.87c-.04.13-2.38,1.11-2.52,1.11-.61-.02-4.08-9.93-4.66-11.2.03-.35,1.98-1.11,2.29-1.1Z"/>
      <polygon class="cls-3" points="138.53 197 134.36 208.57 131.5 207.81 135.66 196.24 138.53 197"/>
      <path class="cls-3" d="M126.22,231.5c-.14.15-2.7-.54-2.81-.64s-.09-.36-.09-.52c.57-1.32,3.55-11.02,4.3-11.11.33-.04,2.47.75,2.55,1.01l-3.95,11.26h0Z"/>
      <path class="cls-3" d="M146.61,173.95c.49.42-3.4,10.05-3.81,11.36-.56.66-2.07-.34-2.72-.54l3.73-11.46c.14-.15,2.7.54,2.81.64h-.01Z"/>
      <path class="cls-3" d="M154.99,151.08c.41.44-3.59,10.09-3.91,11.49-.36.28-2.6-.61-2.76-.78-.42-.43,3.6-9.87,3.88-11.27.27-.41,2.69.44,2.79.55h0Z"/>
      <path class="cls-3" d="M115.03,253.73c-.41-.44,3.59-10.09,3.91-11.49.36-.28,2.6.61,2.76.78.42.43-3.6,9.87-3.88,11.27-.27.41-2.69-.44-2.79-.55h0Z"/>
      <path class="cls-3" d="M112.74,240.52c.29,0,.49.04.62.32l4.27,10.87c-.04.13-2.38,1.11-2.52,1.11-.61-.02-4.08-9.93-4.66-11.2.03-.35,1.98-1.11,2.29-1.1Z"/>
      <path class="cls-3" d="M162.79,130.73c.41.44-3.59,10.09-3.91,11.49-.36.28-2.6-.61-2.76-.78-.42-.43,3.6-9.87,3.88-11.27.27-.41,2.69.44,2.79.55h0Z"/>
      <rect class="cls-6" x="195.79" y="237.06" width="2.88" height="11.76"/>
    </g>
  </g>
</svg>