<?xml version="1.0" encoding="UTF-8"?>
<svg id="Layer_2" data-name="Layer 2" xmlns="http://www.w3.org/2000/svg" viewBox="0 0 215.15 233.73">
  <defs>
    <style>
      .cls-1 {
        fill: #c7c8c9;
      }

      .cls-2 {
        fill: #272324;
      }

      .cls-3, .cls-4 {
        fill: #231f20;
      }

      .cls-5 {
        fill: #272425;
      }

      .cls-6 {
        fill: #272424;
      }

      .cls-7 {
        fill: #656668;
      }

      .cls-8 {
        fill: #939598;
      }

      .cls-9 {
        fill: #66676a;
      }

      .cls-4 {
        font-family: LexendDeca-Regular, 'Lexend Deca';
        font-size: 42px;
      }
    </style>
  </defs>
  <g id="Layer_1-2" data-name="Layer 1">
    <path class="cls-3" d="M10.93,155.72l6.53-1.94-4.24,17.71-13.22-12.53,6.51-1.93c-6.47-29.54.41-61.7,19.11-88.67,12.71-18.33,29.37-31.17,42.42-32.71l.53,4.53c-11.81,1.39-27.2,13.47-39.2,30.78-8.55,12.33-27.06,44.91-18.45,84.76ZM167.82,169.52l-10.09-9.43,3.12-3.34,10.09,9.43,4.66-4.99,5.3,17.42-17.74-4.11,4.66-4.99Z"/>
    <text class="cls-4" transform="translate(74.77 35.7)"><tspan x="0" y="0">1</tspan></text>
    <text class="cls-4" transform="translate(135.93 152.45)"><tspan x="0" y="0">2</tspan></text>
    <g id="Layer_1-2" data-name="Layer 1-2">
      <g>
        <path class="cls-5" d="M117.97,39.77c.58.09,1.15.16,1.7.21.35-.16.72-.16,1.06,0,.31-.17.73-.18,1.06,0,.66.03,3.71.09,4.05.31.4.26-.24,2.09,0,2.66-1.62-.04-3.38-.36-4.98-.43-1.22-.05-4.42.27-5.29-.02-.66-.21-.24-2.12-.35-2.74h2.76Z"/>
        <path class="cls-5" d="M23,136.87v-2.76c.09-.65.16-1.28.21-1.91-.16-.42-.16-.86,0-1.27-.17-.31-.18-.73,0-1.06.04-1.28.11-2.55.21-3.82.58.19,2.62.06,2.74.55l-.43,9.94c-.21.66-2.12.24-2.74.35h0Z"/>
        <path class="cls-7" d="M23,134.11v-1.91c.06-.19.13-.19.21,0,0,.6.17,1.5-.21,1.91Z"/>
        <path class="cls-9" d="M119.67,39.77c.19.06.19.13,0,.21-.53,0-1.35.17-1.7-.21h1.7Z"/>
        <path class="cls-8" d="M23.21,132.2h-.21v-1.27c.06-.19.13-.19.21,0v1.27Z"/>
        <path class="cls-1" d="M121.8,39.77v.21c-.35,0-.71,0-1.06,0-.19-.06-.19-.13,0-.21h1.06Z"/>
        <path class="cls-8" d="M120.74,39.77v.21h-1.06v-.21h1.06Z"/>
        <path class="cls-1" d="M23.21,130.92h-.21v-1.06h.21c0,.35,0,.71,0,1.06Z"/>
        <path class="cls-2" d="M155.79,221.86l-6.02,2.53-.18-.22c-.71,1.12-1.86,1.95-3.43,2.16l.71,2.12c1.24-.34,9.92-3.81,9.96-4.36l-1.04-2.23h0Z"/>
        <path class="cls-2" d="M159.26,183.63l-.03.04-4.27-3.61c-.31-.07-1.89,1.68-1.75,2.05.16.4,3.55,2.83,4.13,3.59.65.86.98,2.19,2.55,2.25.36.22,1.72,1.88,2.02,1.69.48-.3,1.02-1.62,1.71-1.84-.28-.5-2.25-1.83-2.29-2.31-.87-.41-1.56-1.07-2.06-1.86h0Z"/>
        <path class="cls-5" d="M137.56,164.51l8.75,7.71-1.71,1.94-8.65-7.53c-.17-.47,1.37-1.61,1.62-2.11h0Z"/>
        <path class="cls-5" d="M192.8,209.41l8.75,7.71c-.5.42-1.38,2.26-2.12,1.81l-8.25-7.41,1.62-2.12h0Z"/>
        <path class="cls-5" d="M115.64,231c-.12.6.31,2.51-.35,2.74l-10.5-.73.23-2.64,10.62.64h0Z"/>
        <path class="cls-5" d="M123.96,152.45l-2.1,2.12c1.12.31,2.03,1,2.66,1.89.8.61,2.34,2.35,2.78,2.21.27-.08,1.74-1.66,1.45-2.05l-4.79-4.18h0Z"/>
        <path class="cls-5" d="M199.54,178.11c.33.45-3.83,8.83-4.76,9.73l-2.23-1.26,4.57-9.14c.21-.41,2.35.56,2.43.66h0Z"/>
        <path class="cls-5" d="M210.1,224.92c-.12.03-1.67,1.8-1.67,1.93l2.88,2.66c-.07.11-.25.3-.47.54.96.25,1.76.79,2.37,1.49,1.01-1.09,1.97-2.19,1.95-2.34-.82-.34-4.66-4.36-5.05-4.28h0Z"/>
        <path class="cls-5" d="M192.35,86.72l-5.29-8.44c-.27-.41,1.64-1.7,1.81-1.73.37-.06,1.51,1.74,1.81,2.16,1.51,2.12,2.79,4.42,4.16,6.64-.02.29-2.26,1.54-2.5,1.37h0Z"/>
        <polygon class="cls-5" points="207.85 136.66 207.42 147.28 204.66 147.07 205.09 136.66 207.85 136.66"/>
        <path class="cls-5" d="M66.12,56.97l-8.19,5.96c-.3.07-1.37-1.56-1.77-1.82l8.27-6.37c.6-.37,1.82,2.05,1.69,2.24Z"/>
        <path class="cls-5" d="M66.26,216.76l8.92,5.09c.16.25-.77,2.12-.96,2.25-.29.19-3.03-1.29-3.55-1.58-1.96-1.04-3.8-2.33-5.72-3.43-.27-.42,1.02-1.93,1.31-2.34h0Z"/>
        <path class="cls-5" d="M33.61,96.06c-.31.23-2.12-.72-2.53-.95l4.78-9.66c.37.49,2.26,1.01,2.2,1.55l-4.45,9.06Z"/>
        <polygon class="cls-5" points="104.8 40.41 105.01 42.96 94.6 44.66 94.18 41.9 104.8 40.41"/>
        <path class="cls-5" d="M136.23,228.89l.43,2.52-10.61,1.71c.24-.64-.49-2.36,0-2.66l10.2-1.57h0Z"/>
        <polygon class="cls-5" points="205.94 115.41 207.42 126.04 204.66 126.25 203.17 115.84 205.94 115.41"/>
        <path class="cls-5" d="M37.82,186.83c.25-.04.42-.05.58.18l5.41,8.4-2.01,1.58-5.82-8.84c-.04-.36,1.48-1.26,1.83-1.31h0Z"/>
        <path class="cls-5" d="M189.14,196.59l-6.59,8.49c-.35.24-1.66-1.46-2.03-1.7l6.3-8.06,2.31,1.27h0Z"/>
        <polygon class="cls-5" points="83.98 45.09 84.6 47.62 75.05 51.67 73.99 49.12 83.98 45.09"/>
        <path class="cls-5" d="M24.94,157.88c-.43-.27-1.25-8.9-1.52-10.07.06-.95,1.81-.29,2.46-.69l1.59,10.04c.05.67-2.3.87-2.53.72Z"/>
        <path class="cls-5" d="M30.01,105.85l-2.43,9.99c-.29.45-2.08-.25-2.66-.23l2.43-10.19c.46-.58,1.96.54,2.66.43Z"/>
        <path class="cls-5" d="M84.93,225.92l9.68,2.84c.24.16.04,2.7-.86,2.58-1.17-.17-2.88-.72-4.08-1.04-.89-.24-5.03-1.39-5.48-1.74-.48-.37.59-2.61.73-2.63h0Z"/>
        <polygon class="cls-5" points="205.94 157.7 203.37 168.09 200.84 167.46 203.28 157.47 203.51 157.3 205.94 157.7"/>
        <path class="cls-5" d="M164.69,56.53c-.44.27-7.76-4.75-9.1-4.88-.23-.33.81-2.03,1.04-2.44l9.15,5.11c.31.24.11.24,0,.43-.12.22-1.01,1.73-1.11,1.78h0Z"/>
        <path class="cls-5" d="M203.17,105.21l-2.54.65-3.4-9.99c.74.17,1.94-1.2,2.44-.65.58,1.13,3.9,9.53,3.5,9.98h0Z"/>
        <path class="cls-5" d="M50.41,69.94l-6.6,7.98c-.38.21-1.91-.96-2.03-1.18-.24-.44,1.2-2.08,1.52-2.53,1.57-2.09,3.41-3.97,5.08-5.97.22,0,1.43,1.79,2.02,1.7Z"/>
        <path class="cls-5" d="M33.62,177.45c-.66.02-2.19,1.25-2.66.64l-3.51-9.77c.67-.03,2.15-1.05,2.66-.43l3.51,9.56h0Z"/>
        <path class="cls-5" d="M146.87,44.87l-.97,2.55-9.84-2.78c-.15-.18.37-2.77.51-2.74l10.31,2.97h0Z"/>
        <path class="cls-6" d="M50.32,203.39l7.44,7c.16.3-1.2,2.43-1.93,1.92-.39-.27-1.36-1.2-1.81-1.6-1.93-1.74-3.77-3.6-5.52-5.52l1.81-1.8Z"/>
        <path class="cls-2" d="M174.6,60.81l7.45,7.22c.21.41-1.58,2.42-2.15,1.71l-7.01-6.82c-.16-.36,1.41-1.81,1.72-2.12h0Z"/>
      </g>
      <path class="cls-5" d="M171.78,192.2l8.75,7.71c-.5.42-1.38,2.26-2.12,1.81l-8.25-7.41,1.62-2.12h0Z"/>
      <path class="cls-5" d="M175.13,211.45c.12.54-6.98,6.63-8.19,7.09l-1.57-2.03,7.78-6.62c.35-.29,1.94,1.43,1.97,1.56h0Z"/>
    </g>
  </g>
</svg>