<?xml version="1.0" encoding="UTF-8"?>
<svg id="Layer_2" data-name="Layer 2" xmlns="http://www.w3.org/2000/svg" viewBox="0 0 182.09 258.98">
  <defs>
    <style>
      .cls-1 {
        fill: #939698;
      }

      .cls-2, .cls-3 {
        fill: #231f20;
      }

      .cls-4 {
        fill: #272425;
      }

      .cls-5 {
        fill: #939598;
      }

      .cls-6 {
        fill: #262324;
      }

      .cls-7 {
        fill: #282526;
      }

      .cls-3 {
        font-family: LexendDeca-Regular, 'Lexend Deca';
        font-size: 42px;
      }
    </style>
  </defs>
  <g id="Layer_1-2" data-name="Layer 1">
    <path class="cls-2" d="M26.6,206.69l1.37,18.16-16.41-7.89,5.7-3.88c-4.9-11.24-7.82-26.61-7.82-41.76l-.15-126.37h4.56s.15,126.36.15,126.36c0,14.2,2.64,28.53,7.09,39.15l5.51-3.76Z"/>
    <text class="cls-3" transform="translate(0 35.7)"><tspan x="0" y="0">1</tspan></text>
    <g id="Layer_1-2" data-name="Layer 1-2">
      <g>
        <path class="cls-4" d="M30.71,44.93h-2.74v7.68c.55-.06,3.12.23,3.12-.36v-4.2h.03c-.38-.98-.52-2.06-.41-3.12Z"/>
        <path class="cls-7" d="M27.97,159.65h3.12v11.64c0,.59-2.57.3-3.12.36v-12Z"/>
        <path class="cls-7" d="M27.97,64.37h3.12v11.64c0,.59-2.57.3-3.12.36v-12Z"/>
        <path class="cls-7" d="M27.97,88.13c.55.06,3.12-.23,3.12.36v11.64h-3.12v-12Z"/>
        <path class="cls-7" d="M27.97,135.65c.55.06,3.12-.23,3.12.36v11.64h-3.12v-12Z"/>
        <path class="cls-7" d="M27.97,111.89c.55.06,3.12-.23,3.12.36v11.64h-3.12v-12Z"/>
        <path class="cls-4" d="M181.85,45.37h-3.92c.24,1.02.24,2.1,0,3.12h1.03v4.56c.93-.11,2.09.28,2.88-.24.2-2.39.2-5.1,0-7.44h0Z"/>
        <path class="cls-5" d="M182.09,124.33h-.24c-.19-.02-.47-.09-.48-.22-.06-1.43-.35-11.04,0-11.49l.48-.29h.24v12Z"/>
        <path class="cls-1" d="M182.09,100.57h-.24c-.19-.02-.47-.09-.48-.22-.06-1.43-.35-11.04,0-11.49l.48-.29h.24v12Z"/>
        <path class="cls-1" d="M182.09,148.09h-.24c-.19-.02-.47-.09-.48-.22-.06-1.43-.35-11.04,0-11.49l.48-.29h.24v12Z"/>
        <path class="cls-5" d="M182.09,171.85h-.24c-.19-.02-.47-.09-.48-.22-.14-3.05-.23-7.21,0-10.21-.15-.73,0-1.18.48-1.33h.24v11.76Z"/>
        <path class="cls-5" d="M182.09,76.57h-.24c-.19-.02-.47-.09-.48-.22-.14-3.05-.23-7.21,0-10.21-.15-.73,0-1.18.48-1.33h.24v11.76Z"/>
        <rect class="cls-5" x="181.85" y="45.37" width=".24" height="7.44"/>
        <path class="cls-4" d="M145.49,242.68l1.69,2.62c-1.91,1.21-3.77,2.52-5.73,3.64-.69.39-4.35,2.5-4.73,2.26-.23-.15-1.27-2.27-1.09-2.54l9.86-5.97h0Z"/>
        <path class="cls-4" d="M73.31,250.83c-.32.23-3.4-1.54-3.98-1.86-1.07-.6-5.82-3.32-6.34-3.99-.41-.53,1.14-2.83,1.93-2.41l9.51,5.63c-.15.39-1,2.55-1.12,2.63Z"/>
        <path class="cls-4" d="M33.01,194.93l-3.1.46-1.7-11.98c.78.3,2.85-.61,3.09.16l1.72,11.36h-.01Z"/>
        <path class="cls-4" d="M181.61,183.86c.17.16-.2,3.79-.27,4.41-.12,1-.99,6.91-1.28,7.36-.37.57-2.32-.41-3.01-.25l1.69-11.74,2.87.23h0Z"/>
        <path class="cls-4" d="M38.33,217.94c-.62-.36-4.75-9.56-4.81-10.99l2.5-.98,4.88,10.25c.23.76-2.18,1.94-2.57,1.71h0Z"/>
        <path class="cls-4" d="M47.32,226.39l7.99,8.54-2.02,2.24-8.02-8.79c-.1-.54,1.71-1.48,2.05-1.99Z"/>
        <path class="cls-4" d="M162.2,226.85c.46-.26,2.56,1.59,2.56,1.76,0,.69-6.95,7.99-8,9l-2.02-2.24,7.45-8.52h0Z"/>
        <path class="cls-4" d="M176.57,207.38l-4.79,10.69c-.8.88-1.84-.88-2.89-.85l4.8-10.8,2.88.96h0Z"/>
        <polygon class="cls-4" points="96.61 255.41 96 258.54 84.36 255.52 85.23 252.75 96.61 255.41"/>
        <path class="cls-4" d="M113.93,258.98l-.48-3.12,10.74-2.6c.8-.21,1.16,1.52,1.33,2.18.06.23.27.34-.07.53l-11.52,3.01h0Z"/>
        <rect class="cls-6" x="178.97" y="112.33" width="2.88" height="12"/>
        <path class="cls-6" d="M181.85,160.09v11.76h-2.88v-12c.93.11,2.09-.28,2.88.24Z"/>
        <rect class="cls-6" x="178.97" y="88.57" width="2.88" height="12"/>
        <rect class="cls-6" x="178.97" y="136.09" width="2.88" height="12"/>
        <path class="cls-6" d="M181.85,64.81v11.76c-.79.52-1.95.13-2.88.24v-12h2.88Z"/>
      </g>
    </g>
  </g>
</svg>