<?xml version="1.0" encoding="UTF-8"?>
<svg id="Layer_2" data-name="Layer 2" xmlns="http://www.w3.org/2000/svg" viewBox="0 0 157.45 219.12">
  <defs>
    <style>
      .cls-1 {
        fill: #96989a;
      }

      .cls-2 {
        fill: #616265;
      }

      .cls-3 {
        fill: #646567;
      }

      .cls-4 {
        fill: #272425;
      }

      .cls-5 {
        fill: #626365;
      }

      .cls-6 {
        fill: #282425;
      }
    </style>
  </defs>
  <g id="Layer_1-2" data-name="Layer 1">
    <g>
      <path class="cls-6" d="M.29,103.44h2.88v12H.29c-.07-.68-.15-1.4-.24-2.16.11-2.44-.15-5.02,0-7.44.09-.82.17-1.62.24-2.4Z"/>
      <path class="cls-4" d="M73.23,0c.5.09.98.17,1.44.24.52-.07,1.08-.15,1.68-.24h2.4v3.12c-3.94-.14-7.86.2-11.76.72l-.24-3.12,5.42-.47.58-.25h.48Z"/>
      <path class="cls-2" d="M.05,105.84v-2.4h.24c-.04.6.07,1.22,0,1.82-.03.31-.25.55-.25.58Z"/>
      <path class="cls-3" d="M.29,115.44H.05v-2.16c.5.49.15,1.48.24,2.16Z"/>
      <path class="cls-5" d="M76.35,0c-.32.41-1.16.24-1.68.24-.21-.07-.21-.15,0-.24h1.68Z"/>
      <path class="cls-1" d="M74.67,0v.24c-.45,0-1.18.16-1.44-.24h1.44Z"/>
      <path class="cls-4" d="M156.69,91.47l.76,11.81c-.11.47-2.72.61-3.02.18l-.59-11.78,2.85-.21Z"/>
      <path class="cls-4" d="M78.75,216v3.12s-12.23-.97-12.23-.97l.48-3.12c3.85.75,7.83.93,11.76.96Z"/>
      <path class="cls-4" d="M3.89,127.2l1.21,11.62-2.75.64-1.6-11.87c.12-.44,2.66-.41,3.13-.39Z"/>
      <path class="cls-4" d="M20.43,183.34l-2.62,1.46c-1.11-2.3-2.58-4.44-3.73-6.71-.31-.6-1.91-3.76-1.69-4.09.14-.22,2.26-1.27,2.54-1.09l5.5,10.44Z"/>
      <path class="cls-4" d="M157.44,115.44l-.6,11.54c.06.71-2.19.57-2.61.43-.57-.19-.42-1.28-.4-1.78.12-3.39.73-6.78.49-10.19h3.12Z"/>
      <path class="cls-4" d="M5.06,79.95c.36.57-1.56,10.17-1.17,11.73l-3.11-.25,1.44-11.98c.11-.09,2.75.37,2.84.5Z"/>
      <path class="cls-4" d="M15.16,46.08c-.57-.21-2.91-.85-2.85-1.52.61-1.26,5.21-10.46,5.85-10.46.16,0,2.54,1.54,2.24,1.96-1.94,3.2-3.99,6.47-5.25,10.02Z"/>
      <path class="cls-4" d="M113.92,8.9c3.5,1.95,6.87,4.21,9.81,6.94l-1.57,2.06-9.73-6.37c-.17-.26,1.1-2.56,1.48-2.63Z"/>
      <path class="cls-4" d="M55.71,212.4l-1.08,2.87c-3.84-1.43-7.69-2.94-11.16-5.15l1.44-2.52c3.47,1.75,7.03,3.6,10.79,4.8Z"/>
      <path class="cls-4" d="M54.97,3.86c.12.09.9,2.66.73,2.85-1.94-.25-9.59,4.58-10.43,4.51-.21-.02-1.51-2.11-1.53-2.26-.05-.34.15-.38.37-.53.82-.58,2.34-1.3,3.28-1.76s7.11-3.15,7.58-2.82Z"/>
      <path class="cls-4" d="M137.17,183.14c.5.69,2.47,1.09,2.24,1.96l-7.04,9.53-2.27-2.04,7.07-9.46Z"/>
      <path class="cls-4" d="M155.25,139.47c.32.5-1.66,11.37-2.15,11.71-.31.21-2.29-.49-2.84-.48l2.15-11.74c.11-.09,2.75.37,2.84.5Z"/>
      <path class="cls-4" d="M121.81,200.89l2.04,2.27c-.92.98-9.58,7.34-10.08,6.97l-1.33-2.54,9.37-6.7Z"/>
      <polygon class="cls-4" points="149.76 162.72 145.42 173.98 142.56 173.04 146.91 162.02 149.76 162.72"/>
      <path class="cls-4" d="M33.55,15.86c.33-.06,2.24,1.75,1.9,2.38l-7.68,7.71c-.65.54-2.7-1.41-2.42-1.94l8.2-8.14Z"/>
      <path class="cls-4" d="M101.77,6.72c-1.88-.73-3.84-1.28-5.8-1.76-.84-.2-5.03-.84-5.25-.99-.64-.43.22-2.29.01-3.02.18-.18,4.37.69,5.04.84,1.17.26,6.01,1.4,6.71,1.93.55.41-.79,2.3-.72,3Z"/>
      <path class="cls-4" d="M153.12,67.68l2.17,11.87c-.03.14-2.55.53-2.85.34-.48-.3-1.51-9.8-2.2-11.13.06-.8,2.22-.89,2.89-1.08Z"/>
      <path class="cls-4" d="M10.6,56.89l-3.11,11.51c-1.08-.54-3,.03-2.83-1.49.12-1.05,2.64-10.4,3.09-10.72l2.85.71Z"/>
      <path class="cls-4" d="M136.83,35.75l-6.74-9.47c.55-.18,1.78-1.73,2.07-1.78.81-.14,6.76,8.31,7.25,9.67-.08.4-2.33,1.76-2.59,1.58Z"/>
      <path class="cls-4" d="M27.61,192.75c2.22,3.15,5.2,5.59,7.94,8.25-1.04.67-1.21,2.6-2.62,1.67-.57-.38-2.06-1.82-2.66-2.38-1.88-1.78-3.57-3.81-5.25-5.76.56-.35,2.01-2.1,2.58-1.77Z"/>
      <path class="cls-4" d="M145.44,44.88l4.33,11.14-2.77,1.09-4.38-10.92c.06-.4,2.31-1.17,2.82-1.31Z"/>
      <path class="cls-4" d="M102.74,215.28l-11.65,2.82c-.48-.09-.66-2.56-.57-3.05l11.12-2.63c.42.11.92,2.32,1.1,2.86Z"/>
      <path class="cls-4" d="M7.49,150.48l3.12,11.4c-.64.13-2.44,1.06-2.89.74l-3.35-11.42,3.12-.72Z"/>
    </g>
  </g>
</svg>