<?xml version="1.0" encoding="UTF-8"?>
<svg id="Layer_2" data-name="Layer 2" xmlns="http://www.w3.org/2000/svg" viewBox="0 0 111.08 215.17">
  <defs>
    <style>
      .cls-1 {
        fill: #272425;
      }

      .cls-2 {
        fill: #fefdfd;
      }

      .cls-3 {
        fill: #c7c9cb;
      }
    </style>
  </defs>
  <g id="Layer_1-2" data-name="Layer 1">
    <g>
      <path class="cls-2" d="M1.26,177.17c-.56-.95-.99-1.99-1.26-3.08v6.32l.41.17,1.81-1.09c-.51-.67-.83-1.48-.95-2.33Z"/>
      <path class="cls-1" d="M3.8,180.79c-.77-.36-1.37-.92-1.79-1.59l-2.01,1.21v.36c.67.51,2.56,4.53,3.12,4.48.13-.01,1.72-1.05,1.73-1.15-.24-.57-1.74-2.38-1.59-2.85.03-.12.25-.28.55-.46Z"/>
      <path class="cls-3" d="M109.44,162.59h-.18c-.51-1.03-.53-2.22,0-3.24h.18v3.24Z"/>
      <path class="cls-1" d="M70.56,112.01l-.37,2.34c-2.96-.54-5.97-.95-8.99-.9.13-.66-.37-2.19.45-2.34l8.91.9Z"/>
      <path class="cls-1" d="M30.77,208.51c.11.15-.54,1.64-.67,1.92-.09.18.06.29-.28.2-1.2-.34-3.07-1.45-4.2-2.1-.9-.51-2.87-1.58-3.55-2.21-.12-.12-.33-.16-.27-.4l1.31-1.72c2.39,1.71,4.95,3.17,7.66,4.31Z"/>
      <path class="cls-1" d="M94.97,125.53c.58-.1,5.47,6.28,5.99,7.28-.48.28-1.55,1.4-2.07,1l-5.48-6.77c.33-.23,1.3-1.47,1.55-1.52Z"/>
      <path class="cls-1" d="M48.24,212.81c.02.36.03,2.27-.29,2.35l-9.09-1.57.48-2.06,8.89,1.27Z"/>
      <path class="cls-1" d="M66.24,211.73c0,.4.65,2.1.37,2.25-3.02.59-6.08,1.19-9.18,1.16l-.18-2.14,8.99-1.27Z"/>
      <path class="cls-1" d="M79.56,114.89c1.6.72,3.26,1.45,4.8,2.31.55.31,3.53,2,3.46,2.43-.02.15-1,1.51-1.17,1.54-.42.08-6.41-3.96-7.63-4.02-.52-.48.51-1.67.55-2.25Z"/>
      <path class="cls-1" d="M75.6,211.19c-.02-.53-.93-1.77-.65-2.17l7.48-3.88c.13-.06.28-.1.43-.06.13.04,1.18,1.7,1.11,1.79-2.64,1.72-5.46,3.12-8.37,4.32Z"/>
      <path class="cls-1" d="M105.47,141.18l2.71,8.73c.06.39-.07.21-.27.27-.4.12-1.75.53-1.99.18l-2.61-8.36,2.16-.82Z"/>
      <path class="cls-1" d="M10.17,191.61l6.02,6.72-1.55,1.52c-.24.04-1.87-1.68-2.14-1.96-.51-.55-3.98-4.49-4.03-4.8-.07-.39,1.35-1.25,1.7-1.47Z"/>
      <path class="cls-1" d="M109.26,159.35c0,1.08.01,2.16,0,3.24-.03,2.06-.21,4.07-.36,6.12l-2.34-.18v-.27s.54-8.91.54-8.91h2.16Z"/>
      <path class="cls-1" d="M106.74,177.9c-.39,1.34-.83,2.66-1.36,3.95-.36.88-1.66,3.95-2.16,4.51-.32.36-2.08-.62-2.05-.96s1.69-3.44,1.99-4.14c.55-1.29,1.09-2.71,1.41-4.08l2.16.72Z"/>
      <path class="cls-1" d="M96.21,193.05c.11,0,1.75,1.28,1.71,1.49l-6.38,6.76-1.52-1.71,6.2-6.54Z"/>
    </g>
    <path class="cls-2" d="M56.77,110.22c-1.07.26-2.2.37-3.31.31l6.05,1.85.29-.34-.51-2.05c-.79.29-1.66.36-2.51.23Z"/>
    <path class="cls-1" d="M60.97,108.85c-.57.63-1.28,1.04-2.04,1.25l.57,2.28.34.11c.68-.49,5.08-1.12,5.2-1.67.03-.13-.5-1.95-.59-1.99-.62.06-2.78.97-3.2.69-.1-.07-.19-.32-.28-.66Z"/>
    <path class="cls-3" d="M74.46,2.51l-.05.17c-1.13.19-2.27-.15-3.1-.95l.05-.17,3.1.95Z"/>
    <path class="cls-1" d="M14.72,24.9l2.13,1.03c-1.38,2.67-2.65,5.43-3.49,8.34-.59-.32-2.2-.29-2.11-1.11l3.47-8.26Z"/>
    <path class="cls-1" d="M95.36,91.17c.18-.06,1.41.99,1.64,1.2.15.14.3.03.11.32-.67,1.05-2.29,2.51-3.24,3.41-.75.71-2.35,2.28-3.15,2.74-.15.08-.24.27-.46.15l-1.26-1.75c2.33-1.79,4.48-3.81,6.37-6.06Z"/>
    <path class="cls-1" d="M34.78,5.5c.07-.58,7.6-3.39,8.71-3.6.12.54.88,1.9.36,2.27l-8.07,3.26c-.12-.38-1.03-1.67-1-1.93Z"/>
    <path class="cls-1" d="M104.59,75.71c.36.08,2.18.64,2.17.96l-4.16,8.23-1.83-1.06,3.82-8.13Z"/>
    <path class="cls-1" d="M108.82,58.19c.39.12,2.19,0,2.26.31-.32,3.06-.64,6.16-1.58,9.12l-2.1-.46,1.41-8.97Z"/>
    <path class="cls-1" d="M20.1,17.13c1.16-1.32,2.34-2.7,3.61-3.91.45-.43,2.94-2.79,3.33-2.6.13.07,1.15,1.4,1.13,1.57-.05.43-5.66,4.97-6.08,6.12-.61.36-1.45-.97-1.99-1.18Z"/>
    <path class="cls-1" d="M111.04,49.07c-.51-.13-1.97.37-2.26-.02l-1.52-8.29c-.02-.15-.02-.3.07-.43.07-.11,1.97-.63,2.04-.54.87,3.02,1.39,6.14,1.68,9.27Z"/>
    <path class="cls-1" d="M52.82.04l9.14-.04c.4.06.18.13.18.34,0,.42,0,1.83-.41,1.96l-8.76.05-.15-2.31Z"/>
    <path class="cls-1" d="M73.18,105.92l8.18-3.8,1,1.93c-.03.24-2.15,1.3-2.5,1.47-.68.33-5.46,2.49-5.77,2.45-.39-.05-.8-1.65-.91-2.05Z"/>
    <path class="cls-1" d="M71.31,1.73c1.03.32,2.07.62,3.1.95,1.96.63,3.83,1.39,5.75,2.13l-.86,2.19-.26-.07-8.36-3.13.63-2.07Z"/>
    <path class="cls-1" d="M88.3,9.56c1.16.76,2.3,1.57,3.38,2.45.73.6,3.29,2.74,3.68,3.38.25.41-1.2,1.81-1.52,1.68s-2.8-2.63-3.38-3.11c-1.08-.9-2.27-1.84-3.49-2.54l1.32-1.85Z"/>
    <path class="cls-1" d="M99.71,24.06c.03-.11,1.73-1.3,1.92-1.2l4.6,8.08-2.08.96-4.44-7.84Z"/>
  </g>
</svg>