<?xml version="1.0" encoding="UTF-8"?>
<svg id="Layer_2" data-name="Layer 2" xmlns="http://www.w3.org/2000/svg" viewBox="0 0 142.82 234.96">
  <defs>
    <style>
      .cls-1 {
        fill: #000000;
      }

      .cls-2, .cls-3 {
        fill: #000000;
      }

      .cls-4 {
        fill: #fff;
      }

      .cls-5 {
        fill: #000000;
      }

      .cls-3 {
        font-family: LexendDeca-Regular, 'Lexend Deca';
        font-size: 42px;
      }
    </style>
  </defs>
  <g id="Layer_1-2" data-name="Layer 1">
    <path class="cls-2" d="M23.66,34.9l-4.28-1.6C24.92,18.6,37.3,7.74,54.23,2.74c18.8-5.54,40.14-2.51,55.25,7.58l4.75-5.1,5.35,17.41-17.75-4.07,4.5-4.84c-13.98-9.04-33.52-11.7-50.8-6.6-15.53,4.59-26.84,14.46-31.86,27.78ZM126.74,226.46l4.47,5.31-17.93,3.18,6.21-17.12,4.28,5.09c15.36-18.24,21.12-48.73,4.33-70.67l3.62-2.77c18.4,24.03,11.95,57.39-4.98,76.97Z"/>
    <text class="cls-3" transform="translate(0 52.41)"><tspan x="0" y="0">1</tspan></text>
    <text class="cls-3" transform="translate(113.97 141.24)"><tspan x="0" y="0">2</tspan></text>
    <g id="Layer_1-2" data-name="Layer 1-2">
      <g>
        <path class="cls-4" d="M17.31,195.3c-.56-.95-.99-1.99-1.26-3.08v6.32l.41.17,1.81-1.09c-.51-.67-.83-1.48-.95-2.33h0Z"/>
        <path class="cls-5" d="M19.85,198.92c-.77-.36-1.37-.92-1.79-1.59l-2.01,1.21v.36c.67.51,2.56,4.53,3.12,4.48.13,0,1.72-1.05,1.73-1.15-.24-.57-1.74-2.38-1.59-2.85.03-.12.25-.28.55-.46h0Z"/>
        <path class="cls-1" d="M125.49,180.72h-.18c-.51-1.03-.53-2.22,0-3.24h.18v3.24Z"/>
        <path class="cls-5" d="M86.61,130.14l-.37,2.34c-2.96-.54-5.97-.95-8.99-.9.13-.66-.37-2.19.45-2.34l8.91.9Z"/>
        <path class="cls-5" d="M46.82,226.64c.11.15-.54,1.64-.67,1.92-.09.18.06.29-.28.2-1.2-.34-3.07-1.45-4.2-2.1-.9-.51-2.87-1.58-3.55-2.21-.12-.12-.33-.16-.27-.4l1.31-1.72c2.39,1.71,4.95,3.17,7.66,4.31h0Z"/>
        <path class="cls-5" d="M111.02,143.66c.58-.1,5.47,6.28,5.99,7.28-.48.28-1.55,1.4-2.07,1l-5.48-6.77c.33-.23,1.3-1.47,1.55-1.52h.01Z"/>
        <path class="cls-5" d="M64.29,230.94c.02.36.03,2.27-.29,2.35l-9.09-1.57.48-2.06,8.89,1.27h.01Z"/>
        <path class="cls-5" d="M82.29,229.86c0,.4.65,2.1.37,2.25-3.02.59-6.08,1.19-9.18,1.16l-.18-2.14,8.99-1.27Z"/>
        <path class="cls-5" d="M95.61,133.02c1.6.72,3.26,1.45,4.8,2.31.55.31,3.53,2,3.46,2.43-.02.15-1,1.51-1.17,1.54-.42.08-6.41-3.96-7.63-4.02-.52-.48.51-1.67.55-2.25h-.01Z"/>
        <path class="cls-5" d="M91.65,229.32c-.02-.53-.93-1.77-.65-2.17l7.48-3.88c.13-.06.28-.1.43-.06.13.04,1.18,1.7,1.11,1.79-2.64,1.72-5.46,3.12-8.37,4.32Z"/>
        <path class="cls-5" d="M121.52,159.31l2.71,8.73c.06.39-.07.21-.27.27-.4.12-1.75.53-1.99.18l-2.61-8.36,2.16-.82h0Z"/>
        <path class="cls-5" d="M26.22,209.74l6.02,6.72-1.55,1.52c-.24.04-1.87-1.68-2.14-1.96-.51-.55-3.98-4.49-4.03-4.8-.07-.39,1.35-1.25,1.7-1.47h0Z"/>
        <path class="cls-5" d="M125.31,177.48c0,1.08.01,2.16,0,3.24-.03,2.06-.21,4.07-.36,6.12l-2.34-.18v-.27l.54-8.91s2.16,0,2.16,0Z"/>
        <path class="cls-5" d="M122.79,196.03c-.39,1.34-.83,2.66-1.36,3.95-.36.88-1.66,3.95-2.16,4.51-.32.36-2.08-.62-2.05-.96s1.69-3.44,1.99-4.14c.55-1.29,1.09-2.71,1.41-4.08l2.16.72h.01Z"/>
        <path class="cls-5" d="M112.26,211.18c.11,0,1.75,1.28,1.71,1.49l-6.38,6.76-1.52-1.71,6.2-6.54h-.01Z"/>
      </g>
      <path class="cls-4" d="M72.82,128.35c-1.07.26-2.2.37-3.31.31l6.05,1.85.29-.34-.51-2.05c-.79.29-1.66.36-2.51.23h-.01Z"/>
      <path class="cls-5" d="M77.02,126.98c-.57.63-1.28,1.04-2.04,1.25l.57,2.28.34.11c.68-.49,5.08-1.12,5.2-1.67.03-.13-.5-1.95-.59-1.99-.62.06-2.78.97-3.2.69-.1-.07-.19-.32-.28-.66h0Z"/>
      <path class="cls-1" d="M90.51,20.64l-.05.17c-1.13.19-2.27-.15-3.1-.95l.05-.17,3.1.95Z"/>
      <path class="cls-5" d="M30.77,43.03l2.13,1.03c-1.38,2.67-2.65,5.43-3.49,8.34-.59-.32-2.2-.29-2.11-1.11,0,0,3.47-8.26,3.47-8.26Z"/>
      <path class="cls-5" d="M111.41,109.3c.18-.06,1.41.99,1.64,1.2.15.14.3.03.11.32-.67,1.05-2.29,2.51-3.24,3.41-.75.71-2.35,2.28-3.15,2.74-.15.08-.24.27-.46.15l-1.26-1.75c2.33-1.79,4.48-3.81,6.37-6.06h-.01Z"/>
      <path class="cls-5" d="M50.83,23.63c.07-.58,7.6-3.39,8.71-3.6.12.54.88,1.9.36,2.27l-8.07,3.26c-.12-.38-1.03-1.67-1-1.93Z"/>
      <path class="cls-5" d="M120.64,93.84c.36.08,2.18.64,2.17.96l-4.16,8.23-1.83-1.06s3.82-8.13,3.82-8.13Z"/>
      <path class="cls-5" d="M124.87,76.32c.39.12,2.19,0,2.26.31-.32,3.06-.64,6.16-1.58,9.12l-2.1-.46,1.41-8.97h0Z"/>
      <path class="cls-5" d="M36.15,35.26c1.16-1.32,2.34-2.7,3.61-3.91.45-.43,2.94-2.79,3.33-2.6.13.07,1.15,1.4,1.13,1.57-.05.43-5.66,4.97-6.08,6.12-.61.36-1.45-.97-1.99-1.18Z"/>
      <path class="cls-5" d="M127.09,67.2c-.51-.13-1.97.37-2.26-.02l-1.52-8.29c-.02-.15-.02-.3.07-.43.07-.11,1.97-.63,2.04-.54.87,3.02,1.39,6.14,1.68,9.27h-.01Z"/>
      <path class="cls-5" d="M68.87,18.17l9.14-.04c.4.06.18.13.18.34,0,.42,0,1.83-.41,1.96l-8.76.05s-.15-2.31-.15-2.31Z"/>
      <path class="cls-5" d="M89.23,124.05l8.18-3.8,1,1.93c-.03.24-2.15,1.3-2.5,1.47-.68.33-5.46,2.49-5.77,2.45-.39-.05-.8-1.65-.91-2.05Z"/>
      <path class="cls-5" d="M87.36,19.86c1.03.32,2.07.62,3.1.95,1.96.63,3.83,1.39,5.75,2.13l-.86,2.19-.26-.07-8.36-3.13s.63-2.07.63-2.07Z"/>
      <path class="cls-5" d="M104.35,27.69c1.16.76,2.3,1.57,3.38,2.45.73.6,3.29,2.74,3.68,3.38.25.41-1.2,1.81-1.52,1.68s-2.8-2.63-3.38-3.11c-1.08-.9-2.27-1.84-3.49-2.54l1.32-1.85h0Z"/>
      <path class="cls-5" d="M115.76,42.19c.03-.11,1.73-1.3,1.92-1.2l4.6,8.08-2.08.96s-4.44-7.84-4.44-7.84Z"/>
    </g>
  </g>
</svg>