<?xml version="1.0" encoding="UTF-8"?>
<svg id="Layer_2" data-name="Layer 2" xmlns="http://www.w3.org/2000/svg" viewBox="0 0 173.17 220.39">
  <defs>
    <style>
      .cls-1, .cls-2 {
        fill: #000000;
      }

      .cls-3 {
        fill: #000000;
      }

      .cls-2 {
        font-family: LexendDeca-Regular, 'Lexend Deca';
        font-size: 42px;
      }
    </style>
  </defs>
  <g id="Layer_1-2" data-name="Layer 1">
    <path class="cls-1" d="M18.15,109.48l-10.41,14.94L0,107.95l6.82.58c6.14-41.75,31.23-66.85,32.32-67.92l3.19,3.26c-.25.25-24.95,25.01-30.96,65.05l6.77.57Z"/>
    <text class="cls-2" transform="translate(46.64 35.7)"><tspan x="0" y="0">1</tspan></text>
    <g id="Layer_1-2" data-name="Layer 1-2">
      <g>
        <path class="cls-3" d="M91.87,3.66h-2.71c-.36,1.19-3.24,4.82-3.33,5.68-.07.68,1.96,1.38,2.48,1.76.25,0,2.01-3.89,2.53-4.2.17-.1.46-.15.8-.17-.01-1.04.08-2.06.23-3.07Z"/>
        <path class="cls-3" d="M173.16,140.22c.05,4.04-.06,8.21-.71,12.14-.96.37-1.92-.21-2.89-.14l.51-11.6c.24-.74,2.41-.26,3.09-.39h0Z"/>
        <path class="cls-3" d="M99.24,217.26c-.16.84.48,2.98-.61,3.13-3.16-.45-6.41-.23-9.56-.77s-1.93-.49-1.83-3.33l12,.96h0Z"/>
        <path class="cls-3" d="M75.95,213.43c.12.17-.55,2.18-.69,2.53-.11.27.16.39-.37.33l-11.17-4.91c.53-.43,1.15-2.55,1.75-2.49l10.47,4.54h0Z"/>
        <path class="cls-3" d="M55.08,61.26c.53.32,2.66,1.15,2.61,1.75-.83,1.09-5.22,10.27-5.81,10.22-.27-.02-2.63-1.11-2.29-1.71,0,0,5.49-10.26,5.49-10.26Z"/>
        <path class="cls-3" d="M28.92,151.98l1.69,11.63-2.75.63-2.08-11.87c.1-.55,2.62-.37,3.14-.39Z"/>
        <path class="cls-3" d="M41.87,94.86l-2.87-1.32,5.15-10.9c.65.65,2.65.64,2.49,1.72l-4.77,10.5Z"/>
        <path class="cls-3" d="M39.7,185.32c-.75.11-1.99,1.52-2.63,1.11l-5.52-10.69c.71-.03,2.37-1.24,2.89-.86l5.25,10.44h.01Z"/>
        <path class="cls-3" d="M73.58,30.51c-.3-.51,5.23-9.07,5.84-10.32.52-.41,2.03,1,2.66,1.22l-5.89,10.22c-.29.19-2.54-1-2.62-1.13h0Z"/>
        <path class="cls-3" d="M163.79,105.42l-2.64,1.33-6.36-9.25c-.39-.68,1.81-2.59,2.42-1.94l6.58,9.85h0Z"/>
        <path class="cls-3" d="M55.28,202.17c.28.49-1.51,2.64-1.88,2.5l-8.42-7.68c-.76-1.11,1.2-1.74,1.81-2.52,2.75,2.65,5.27,5.59,8.49,7.7Z"/>
        <path class="cls-3" d="M61.32,51.18l6-10.45,2.54,1.33-5.9,10.22c-.58.37-1.92-1.15-2.64-1.1Z"/>
        <path class="cls-3" d="M30.35,128.47l-1.7,11.72c-.19.16-2.66-.05-2.83-.24-.39-.46,1.18-11.61,1.67-11.96.32-.22,2.29.51,2.85.47h.01Z"/>
        <path class="cls-3" d="M148.44,86.22c-.23.46-1.71,2.42-2.17,2.3l-9.32-6.95c.59-.53,1.04-2.45,1.9-2.22,0,0,9.59,6.87,9.59,6.87Z"/>
        <path class="cls-3" d="M127.31,73.75l-.72,2.86c-2.32-.44-4.6-1.28-6.94-1.79-.72-.16-4.15-.58-4.34-.7-.6-.4.27-2.29.01-3.02,4.11.3,8.06,1.56,11.99,2.65Z"/>
        <path class="cls-3" d="M53.08,92.23l-2.15-2.34c1.92-1.58,3.84-3.24,5.87-4.69.55-.39,3.71-2.63,4-2.5.32.13,1.2,2.04,1.56,2.44l-9.27,7.09h-.01Z"/>
        <path class="cls-3" d="M158.06,185.35c.25-.18,2.51,1.17,2.59,1.58.09.45-3.16,4.86-3.71,5.58l-3.55,4.09c-.37-.46-2.14-1.43-2.04-1.99l6.72-9.26h0Z"/>
        <path class="cls-3" d="M134.28,211.98c.06-.79-1.52-2.24-1.17-2.84l9.49-6.24c.58-.09,1.43,1.68,1.99,2.02.09.38-2.76,2.33-3.28,2.7-2.24,1.6-4.6,3.07-7.03,4.36Z"/>
        <path class="cls-3" d="M123.24,216.78l-11.64,2.67c-.84-.06-.51-2.15-.85-2.77l11.39-2.76c.55.14.68,2.32,1.1,2.86Z"/>
        <path class="cls-3" d="M79.79,72.57c.03.74,1.33,2.22.93,2.85l-9.4,5.61c-.74.69-2.27-2.07-2.06-2.44l10.53-6.03h0Z"/>
        <path class="cls-3" d="M169.05,116.48l3.14,11.74-3.12.48-2.89-11.39c.6-.11,2.46-1.12,2.87-.83Z"/>
        <path class="cls-3" d="M167.41,163.75c.63.16,2.84.3,2.86,1.05.02.95-1.76,5.92-2.21,7.16-.32.89-.97,2.98-1.41,3.64-.48.73-2.84-.41-2.85-.92l3.61-10.93h0Z"/>
        <polygon class="cls-3" points="103.32 70.62 103.32 73.74 91.82 75.4 91.08 72.54 103.32 70.62"/>
        <path class="cls-3" d="M33.47,117.18c-.61-.49-2.86-.44-2.87-1.3l3.95-11.17,2.74,1.31-3.81,11.16h0Z"/>
      </g>
      <path class="cls-3" d="M43.46,95.98c.18.71,1.76,1.9,1.51,2.59l-8.03,7.44c-.58.83-2.65-1.56-2.52-1.95l9.05-8.09h-.01Z"/>
    </g>
  </g>
</svg>