<?xml version="1.0" encoding="UTF-8"?>
<svg id="Layer_2" data-name="Layer 2" xmlns="http://www.w3.org/2000/svg" viewBox="0 0 163.64 325.98">
  <defs>
    <style>
      .cls-1, .cls-2 {
        fill: #231f20;
      }

      .cls-3 {
        fill: #2a2627;
      }

      .cls-4 {
        fill: #2c292a;
      }

      .cls-5 {
        fill: #282726;
      }

      .cls-6 {
        fill: #282526;
      }

      .cls-2 {
        font-family: LexendDeca-Regular, 'Lexend Deca';
        font-size: 42px;
      }
    </style>
  </defs>
  <g id="Layer_1-2" data-name="Layer 1">
    <path class="cls-1" d="M21.77,50.01l-14.08,11.55-2.97-17.96,6.45,2.43c8.12-12.94,23.7-23.23,41.45-27.08,17.57-3.81,34.16-.81,46.68,8.46l-2.71,3.67c-11.45-8.48-26.72-11.2-43-7.67-16.23,3.52-30.45,12.7-38.06,24.26l6.23,2.35ZM163.26,165.81l-9.08,15.78-9.13-15.75h6.83s-.13-110.61-.13-110.61h4.57s.13,110.59.13,110.59h6.82Z"/>
    <text class="cls-2" transform="translate(100.71 35.7)"><tspan x="0" y="0">1</tspan></text>
    <text class="cls-2" transform="translate(140.63 48.91)"><tspan x="0" y="0">2</tspan></text>
    <g id="Layer_1-2" data-name="Layer 1-2">
      <g>
        <path class="cls-5" d="M139.12,79.23c-.33,2.01.47,12.54,0,12.99-3.3,3.16-8.27-6.26-7.06-10.42.11-.39,6.07-3.49,7.06-2.57Z"/>
        <path class="cls-6" d="M128.12,74.24c-1.06-1.94-9.96-9.76-9.96-10.48,0-.99,2.37-3.02,4.51-1.56.68.47,6.81,6.63,7.04,7.07.96,1.92-1.72,3.15-1.58,4.97h0Z"/>
        <path class="cls-6" d="M111.12,53.32c.83,1.16-.25,3.94-2.41,3.95-.5,0-8.22-3.23-9.26-3.78-2.92-1.54-1.17-4.4,1.96-4.06.86.09,9.4,3.45,9.71,3.88h0Z"/>
        <path class="cls-6" d="M42.11,57.15c-.26.42-8.1,4.81-8.57,4.93-2.79.71-4.84-2.06-2.05-4.12s6.27-3.71,9.27-5.66c1.49.84,2.16,3.56,1.36,4.86h-.01Z"/>
        <path class="cls-6" d="M20.91,68.38c7.94-2.14-2.99,12.17-5.01,11.78-.52-.1-2.45-2.02-2.46-2.42-.02-.6,6.6-9.13,7.47-9.36Z"/>
        <path class="cls-6" d="M9.27,158.13c-.32,3.45,7.7,14.05,1.49,13.93-.89-.02-10.36-15.21-1.49-13.93Z"/>
        <path class="cls-6" d="M21.62,188.73c-1.93-1.7-7.67-8.47-2.8-9.61.74-.17,8.12,8.02,8.29,8.64,1.22,4.53-3.04,3.12-5.48.97h-.01Z"/>
        <path class="cls-6" d="M34.42,199.91c-.56-.94-.03-2.65-.17-3.83,1.19-1.23,12.91,3.89,11.97,7.47-.84,3.21-11.47-3.08-11.81-3.65h0Z"/>
        <path class="cls-6" d="M3.29,101.2c-.46-.41,3.17-10.6,3.76-11.7,1.56-2.92,4.53-1.08,4.06,1.98-.08.54-3.02,8.38-3.32,8.74-.9,1.09-4.02,1.41-4.5.98Z"/>
        <path class="cls-6" d="M4.28,135.16c-1.32,5.11,4.9,13.8-2.99,13.98.58-2.43-2.15-12.87-1-13.98.26-.25,3.01.16,3.98,0h0Z"/>
        <path class="cls-4" d="M88.06,45.4c.29.36.26,3.73.12,3.87-.7.73-10.77-1.96-12.99-1v-3.98c.45-.47,12.11.18,12.87,1.11Z"/>
        <path class="cls-6" d="M114.02,199.96c-.3.49-8.86,3.96-10.3,5.14-.55,0-1.64-2.93-1.61-3.42.04-.62,9.93-6.62,10.55-6.58,1.25.07,2.1,3.66,1.36,4.86Z"/>
        <path class="cls-6" d="M69.19,207.09c.28.29-.15,2.98.02,3.96-4.83-.74-14.56,1-12.98-5.98,1.94,1.16,12.5,1.55,12.96,2.02h0Z"/>
        <path class="cls-6" d="M92.17,205.06c4.66,6.49-11.31,6.69-11.98,5.99-.14-.14-.12-3.82.02-3.96.42-.44,10.1-.81,11.97-2.03h-.01Z"/>
        <path class="cls-6" d="M131.13,179.1c1.48,1.92-5.74,12.83-9.98,9.98-.6-.51,7.1-13.74,9.98-9.98Z"/>
        <path class="cls-6" d="M64.22,45.28c-.18,1.02.32,3.51-.06,3.93-.41.45-10.26,1.77-11.92,2.06-1.76-6.24,7.64-5.67,11.98-5.98h0Z"/>
        <path class="cls-3" d="M139.12,55.26c.47.45.47,12.54,0,12.99-.14.14-3.84.14-3.99,0-.47-.45-.47-12.54,0-12.99.14-.14,3.84-.14,3.99,0Z"/>
        <path class="cls-3" d="M139.12,103.2c.47.45.47,12.54,0,12.99-.14.14-3.84.14-3.99,0-.47-.45-.47-12.54,0-12.99.14-.14,3.84-.14,3.99,0Z"/>
        <path class="cls-3" d="M139.12,127.17c.47.45.47,12.54,0,12.99-.14.14-3.84.14-3.99,0-.47-.45-.47-12.54,0-12.99.14-.14,3.84-.14,3.99,0Z"/>
        <path class="cls-3" d="M139.12,151.14c.47.45.47,12.54,0,12.99-.14.14-3.84.14-3.99,0-.47-.45-.47-12.54,0-12.99.14-.14,3.84-.14,3.99,0Z"/>
        <path class="cls-3" d="M139.12,175.1c.47.45.47,12.54,0,12.99-.14.14-3.84.14-3.99,0-.47-.45-.47-12.54,0-12.99.14-.14,3.84-.14,3.99,0Z"/>
        <path class="cls-3" d="M139.12,199.07c.47.45.47,12.54,0,12.99-.14.14-3.84.14-3.99,0-.47-.45-.47-12.54,0-12.99.14-.14,3.84-.14,3.99,0Z"/>
        <path class="cls-3" d="M139.12,223.04c.47.45.47,12.54,0,12.99-.14.14-3.84.14-3.99,0-.47-.45-.47-12.54,0-12.99.14-.14,3.84-.14,3.99,0Z"/>
        <path class="cls-3" d="M139.12,244.01c.47.45.47,12.54,0,12.99-.14.14-3.84.14-3.99,0-.47-.45-.47-12.54,0-12.99.14-.14,3.84-.14,3.99,0Z"/>
        <path class="cls-3" d="M140.12,268.98c.47.45.47,12.54,0,12.99-.14.14-3.84.14-3.99,0-.47-.45-.47-12.54,0-12.99.14-.14,3.84-.14,3.99,0Z"/>
        <path class="cls-3" d="M140.12,289.95c.47.45.47,12.54,0,12.99-.14.14-3.84.14-3.99,0-.47-.45-.47-12.54,0-12.99.14-.14,3.84-.14,3.99,0h0Z"/>
      </g>
      <path class="cls-3" d="M140.12,312.88c.47.45.47,12.54,0,12.99-.14.14-3.84.14-3.99,0-.47-.45-.47-12.54,0-12.99.14-.14,3.84-.14,3.99,0Z"/>
      <path class="cls-3" d="M4.69,109.8c.47.45.47,12.54,0,12.99-.14.14-3.84.14-3.99,0-.47-.45-.47-12.54,0-12.99.14-.14,3.84-.14,3.99,0Z"/>
    </g>
  </g>
</svg>