<?xml version="1.0" encoding="UTF-8"?>
<svg id="Layer_2" data-name="Layer 2" xmlns="http://www.w3.org/2000/svg" viewBox="0 0 144 215.04">
  <defs>
    <style>
      .cls-1 {
        fill: #fefefe;
      }

      .cls-2 {
        fill: #272324;
      }

      .cls-3 {
        fill: #272425;
      }

      .cls-4 {
        fill: #282526;
      }
    </style>
  </defs>
  <g id="Layer_1-2" data-name="Layer 1">
    <g>
      <path class="cls-1" d="M2.48,174.11c-.77-.85-1.37-1.84-1.75-2.79-.25-.63-.49-1.27-.73-1.91v7.23c.34.33.58.29.85-.05l1.82-2.06c-.07-.14-.13-.28-.19-.42Z"/>
      <path class="cls-3" d="M29.04,0c-.1.66.25,2.69-.22,3.02-.58.4-3.64-.11-4.54.14l-.89,4.54c-.66-.26-2.51-.05-2.71-.65C20.31,5.99,21.56,1.41,21.6,0h7.44Z"/>
      <path class="cls-3" d="M4.33,176.5c-.18-.15-.36-.29-.53-.45-.58-.55-1.01-1.21-1.31-1.92-.02-.02-.03-.03-.05-.05-.97,1.16-1.97,2.34-2.44,2.56v.48l4.19,5.75,2.27-1.79-2.58-4.05.45-.53Z"/>
      <path class="cls-3" d="M134.64,4.08c1.04-.1,2.08-.22,3.12-.3V0h-7.44v3.12h4.32v.96Z"/>
      <rect class="cls-4" x="40.08" y="0" width="11.28" height="3.12"/>
      <rect class="cls-4" x="62.64" y="0" width="11.28" height="3.12"/>
      <rect class="cls-4" x="85.2" y="0" width="11.28" height="3.12"/>
      <rect class="cls-4" x="107.76" y="0" width="11.28" height="3.12"/>
      <path class="cls-2" d="M31.73,85.49c.87-.55,1.8-1.01,2.8-1.37l-.2-.24c0-.25,2.78-2.04,3.34-2.06.2-.28-.97-2.89-1.5-2.84-.61.06-5.54,3.7-5.81,4.3-.08.18-.17.34-.09.55l1.46,1.66Z"/>
      <path class="cls-3" d="M15.36,66.24l-1.48,11.6-.31.34-2.77-.42,1.65-11.62c.36-.51,2.3.24,2.9.1Z"/>
      <path class="cls-3" d="M21.84,19.2l-1.56,11.77c-.29.45-2.44-.17-3-.26l1.68-11.74,2.87.23Z"/>
      <path class="cls-3" d="M17.04,54.72l-2.89-.63,1.45-11.61c.58.02,2.97.11,3.09.62l-1.66,11.62Z"/>
      <path class="cls-3" d="M82.32,69.84l-.24,3.12-11.52-.24c-.05-.96.19-1.99-.24-2.88.42-.58,10.49-.12,12,0Z"/>
      <path class="cls-3" d="M64.8,215.04l-11.6-1c-.88-.27.26-2.34.08-3.08l11.13.99c.74.24.26,2.41.39,3.09Z"/>
      <path class="cls-3" d="M144,143.76l-1.44,12c-.62-.47-2.82-.15-2.88-1.08.71-3.59,1.21-7.25,1.21-10.93h3.12Z"/>
      <path class="cls-3" d="M115.56,81.86l9,7.78c-.55.37-1.78,2.25-2.39,1.93-.58-.3-2.18-2.28-2.88-2.9-1.7-1.5-3.56-2.89-5.42-4.19-.3-.46,1.33-2.18,1.69-2.62Z"/>
      <path class="cls-3" d="M139.19,166.81c.54.63-3.9,9.31-4.67,10.55-.62.62-2.91-.79-2.73-1.51l4.64-9.54c.6-.65,1.91.63,2.76.5Z"/>
      <path class="cls-3" d="M22.32,197.28v.34s-1.8,2.29-1.8,2.29c-3.06-2.47-6.33-4.92-8.74-8l2.02-2.07c2.65,2.66,5.34,5.45,8.52,7.44Z"/>
      <path class="cls-3" d="M132.21,98.91l5.52,9.98c.05.49-1.9,1.35-2.36,1.42-.56.08-4.63-8.78-5.75-9.67-.03-.37,2.14-2,2.59-1.73Z"/>
      <path class="cls-3" d="M141.82,120.5c.31,1.48,2.28,10.91,1.84,11.52-.35.47-2.36.12-3.02.23.43-1.46-2.03-10.83-1.66-11.26.09-.11,2.67-.63,2.84-.48Z"/>
      <path class="cls-3" d="M99.15,208.53c-.12-.08-1.22-2.48-.76-2.73l9.54-5.13c.45-.07,2,2.17,1.52,2.72-.38.43-3.19,1.92-3.92,2.33-1.36.75-3.89,2.18-5.27,2.65-.31.11-.82.34-1.1.16Z"/>
      <path class="cls-3" d="M88.08,212.64l-11.76,1.92-.26-2.74,10.94-2.07c.8.06.89,2.22,1.08,2.89Z"/>
      <path class="cls-3" d="M127.44,187.2c.18.25-2.15,2.95-2.52,3.36-1.74,1.93-3.81,3.79-5.76,5.51-.26-.69-2.15-1.96-1.77-2.61.02-.04.49-.19.69-.38,2.49-2.4,4.93-4.86,7.08-7.57.14,0,1.76,1.73,2.28,1.68Z"/>
      <path class="cls-3" d="M104.14,78.46c-.46.34-9.21-3.81-10.76-3.6l.47-2.86c.32-.31,4.48,1.12,5.22,1.37.93.32,5.36,1.92,5.82,2.34s-.61,2.64-.75,2.75Z"/>
      <path class="cls-3" d="M42.22,208.1c.2.28-.72,2.37-.83,2.86l-10.92-4.7c.24-.55,1.06-2.57,1.55-2.52,1.14,1.07,9.87,3.9,10.2,4.35Z"/>
      <polygon class="cls-3" points="58.78 71.54 59.52 74.4 48.25 77.28 47.28 74.4 58.78 71.54"/>
    </g>
    <path class="cls-3" d="M13.08,85.78l-1.48,11.6-.31.34-2.77-.42,1.65-11.62c.36-.51,2.3.24,2.9.1Z"/>
    <polygon class="cls-3" points="20.39 88.34 22.19 90.68 12.94 97.74 10.93 95.47 20.39 88.34"/>
  </g>
</svg>