<?xml version="1.0" encoding="UTF-8"?>
<svg id="Layer_2" data-name="Layer 2" xmlns="http://www.w3.org/2000/svg" viewBox="0 0 140.46 281.84">
  <defs>
    <style>
      .cls-1 {
        fill: #2c292a;
      }

      .cls-2 {
        fill: #292627;
      }

      .cls-3 {
        fill: #282626;
      }

      .cls-4 {
        fill: #282526;
      }
    </style>
  </defs>
  <g id="Layer_1-2" data-name="Layer 1">
    <g>
      <path class="cls-3" d="M139.11,35.1c-.33,2.01.47,12.54,0,12.99-3.3,3.16-8.27-6.26-7.06-10.42.11-.39,6.07-3.49,7.06-2.57Z"/>
      <path class="cls-4" d="M128.11,30.11c-1.06-1.94-9.96-9.76-9.96-10.48,0-.99,2.37-3.02,4.51-1.56.68.47,6.81,6.63,7.04,7.07.96,1.92-1.72,3.15-1.58,4.97Z"/>
      <path class="cls-4" d="M111.11,9.19c.83,1.16-.25,3.94-2.41,3.95-.5,0-8.22-3.23-9.26-3.78-2.92-1.54-1.17-4.4,1.96-4.06.86.09,9.4,3.45,9.71,3.88Z"/>
      <path class="cls-4" d="M42.1,13.02c-.26.42-8.1,4.81-8.57,4.93-2.79.71-4.84-2.06-2.05-4.12s6.27-3.71,9.27-5.66c1.49.84,2.16,3.56,1.36,4.86Z"/>
      <path class="cls-4" d="M20.9,24.25c7.94-2.14-2.99,12.17-5.01,11.78-.52-.1-2.45-2.02-2.46-2.42-.02-.6,6.6-9.13,7.47-9.36Z"/>
      <path class="cls-4" d="M9.26,114c-.32,3.45,7.7,14.05,1.49,13.93-.89-.02-10.36-15.21-1.49-13.93Z"/>
      <path class="cls-4" d="M21.61,144.6c-1.93-1.7-7.67-8.47-2.8-9.61.74-.17,8.12,8.02,8.29,8.64,1.22,4.53-3.04,3.12-5.48.97Z"/>
      <path class="cls-4" d="M34.41,155.78c-.56-.94-.03-2.65-.17-3.83,1.19-1.23,12.91,3.89,11.97,7.47-.84,3.21-11.47-3.08-11.81-3.65Z"/>
      <path class="cls-4" d="M3.28,57.07c-.46-.41,3.17-10.6,3.76-11.7,1.56-2.92,4.53-1.08,4.06,1.98-.08.54-3.02,8.38-3.32,8.74-.9,1.09-4.02,1.41-4.5.98Z"/>
      <path class="cls-4" d="M4.27,91.03c-1.32,5.11,4.9,13.8-2.99,13.98.58-2.43-2.15-12.87-1-13.98.26-.25,3.01.16,3.98,0Z"/>
      <path class="cls-1" d="M88.05,1.27c.29.36.26,3.73.12,3.87-.7.73-10.77-1.96-12.99-1V.16c.45-.47,12.11.18,12.87,1.11Z"/>
      <path class="cls-4" d="M114.01,155.83c-.3.49-8.86,3.96-10.3,5.14-.55,0-1.64-2.93-1.61-3.42.04-.62,9.93-6.62,10.55-6.58,1.25.07,2.1,3.66,1.36,4.86Z"/>
      <path class="cls-4" d="M69.18,162.96c.28.29-.15,2.98.02,3.96-4.83-.74-14.56,1-12.98-5.98,1.94,1.16,12.5,1.55,12.96,2.02Z"/>
      <path class="cls-4" d="M92.16,160.93c4.66,6.49-11.31,6.69-11.98,5.99-.14-.14-.12-3.82.02-3.96.42-.44,10.1-.81,11.97-2.03Z"/>
      <path class="cls-4" d="M131.12,134.97c1.48,1.92-5.74,12.83-9.98,9.98-.6-.51,7.1-13.74,9.98-9.98Z"/>
      <path class="cls-4" d="M64.21,1.15c-.18,1.02.32,3.51-.06,3.93-.41.45-10.26,1.77-11.92,2.06-1.76-6.24,7.64-5.67,11.98-5.98Z"/>
      <path class="cls-2" d="M139.11,11.13c.47.45.47,12.54,0,12.99-.14.14-3.84.14-3.99,0-.47-.45-.47-12.54,0-12.99.14-.14,3.84-.14,3.99,0Z"/>
      <path class="cls-2" d="M139.11,59.07c.47.45.47,12.54,0,12.99-.14.14-3.84.14-3.99,0-.47-.45-.47-12.54,0-12.99.14-.14,3.84-.14,3.99,0Z"/>
      <path class="cls-2" d="M139.11,83.04c.47.45.47,12.54,0,12.99-.14.14-3.84.14-3.99,0-.47-.45-.47-12.54,0-12.99.14-.14,3.84-.14,3.99,0Z"/>
      <path class="cls-2" d="M139.11,107.01c.47.45.47,12.54,0,12.99-.14.14-3.84.14-3.99,0-.47-.45-.47-12.54,0-12.99.14-.14,3.84-.14,3.99,0Z"/>
      <path class="cls-2" d="M139.11,130.97c.47.45.47,12.54,0,12.99-.14.14-3.84.14-3.99,0-.47-.45-.47-12.54,0-12.99.14-.14,3.84-.14,3.99,0Z"/>
      <path class="cls-2" d="M139.11,154.94c.47.45.47,12.54,0,12.99-.14.14-3.84.14-3.99,0-.47-.45-.47-12.54,0-12.99.14-.14,3.84-.14,3.99,0Z"/>
      <path class="cls-2" d="M139.11,178.91c.47.45.47,12.54,0,12.99-.14.14-3.84.14-3.99,0-.47-.45-.47-12.54,0-12.99.14-.14,3.84-.14,3.99,0Z"/>
      <path class="cls-2" d="M139.11,199.88c.47.45.47,12.54,0,12.99-.14.14-3.84.14-3.99,0-.47-.45-.47-12.54,0-12.99.14-.14,3.84-.14,3.99,0Z"/>
      <path class="cls-2" d="M140.11,224.85c.47.45.47,12.54,0,12.99-.14.14-3.84.14-3.99,0-.47-.45-.47-12.54,0-12.99.14-.14,3.84-.14,3.99,0Z"/>
      <path class="cls-2" d="M140.11,245.82c.47.45.47,12.54,0,12.99-.14.14-3.84.14-3.99,0-.47-.45-.47-12.54,0-12.99.14-.14,3.84-.14,3.99,0Z"/>
    </g>
    <path class="cls-2" d="M140.11,268.75c.47.45.47,12.54,0,12.99-.14.14-3.84.14-3.99,0-.47-.45-.47-12.54,0-12.99.14-.14,3.84-.14,3.99,0Z"/>
    <path class="cls-2" d="M4.68,65.67c.47.45.47,12.54,0,12.99-.14.14-3.84.14-3.99,0-.47-.45-.47-12.54,0-12.99.14-.14,3.84-.14,3.99,0Z"/>
  </g>
</svg>