<?xml version="1.0" encoding="UTF-8"?>
<svg id="Layer_2" data-name="Layer 2" xmlns="http://www.w3.org/2000/svg" viewBox="0 0 142.8 212.27">
  <defs>
    <style>
      .cls-1 {
        fill: #646567;
      }

      .cls-2 {
        fill: #272425;
      }

      .cls-3 {
        fill: #272424;
      }

      .cls-4 {
        fill: #8f9194;
      }

      .cls-5 {
        fill: #606164;
      }

      .cls-6 {
        fill: #282526;
      }
    </style>
  </defs>
  <g id="Layer_1-2" data-name="Layer 1">
    <g>
      <path class="cls-2" d="M3.97,56.65c-.13-.1-.22-.19-.26-.26-.37-.59,1.28-3.86,1.33-4.79-.73.11-2.18-.87-2.73-.71-.67.2-1.64,5.4-2.31,6.22v.72l3.27,1.93c-.08-1.13.19-2.18.71-3.11Z"/>
      <path class="cls-2" d="M68.4,0c.5.09.98.17,1.44.24.52-.07,1.08-.15,1.68-.24h5.04l.24,3.12-11.61.25c-.34-.09-.55-2.65-.36-2.87.23-.27,2.23-.26,2.71-.28l.38-.22h.48Z"/>
      <path class="cls-1" d="M142.08,208.6v3.39s.48.21.48.21c.08,0,.16,0,.24,0v-3.68c-.24.04-.48.06-.72.08Z"/>
      <path class="cls-5" d="M71.52,0c-.32.41-1.16.24-1.68.24-.21-.07-.21-.15,0-.24h1.68Z"/>
      <path class="cls-4" d="M69.84,0v.24c-.45,0-1.18.16-1.44-.24h1.44Z"/>
      <path class="cls-6" d="M122.64,212.2h-12.96v-3.12h12.6c.59,0,.3,2.58.36,3.12Z"/>
      <path class="cls-6" d="M71.52,212.2h-12.96c.11-.66-.25-2.68.22-3.02.77-.54,10.6.17,12.34-.07.74.24.26,2.41.39,3.09Z"/>
      <rect class="cls-6" x="84.24" y="209.08" width="12.72" height="3.12"/>
      <rect class="cls-6" x="33.12" y="209.08" width="12.72" height="3.12"/>
      <path class="cls-2" d="M15.48,209.08l-.59-1.3c-.69.82-1.58,1.47-2.59,1.9l.9,2.52h7.2v-3.12h-4.92Z"/>
      <path class="cls-2" d="M132.95,39.35l-2.86.72c-.37-1.34-.84-2.72-1.41-3.99-.42-.94-3.17-5.86-3.17-6.21,0-.66,1.85-1.23,2.29-1.77.69,0,5.23,9.69,5.15,11.24Z"/>
      <path class="cls-2" d="M110.92,10.83c.49-.29,2.32,1.19,2.82,1.55,1.36.98,3.11,2.43,4.34,3.58.41.38,2.13,1.98,2.29,2.29.31.61-1.57,1.84-1.93,2.39-2.69-2.87-5.78-5.31-9-7.55.47-.24,1.32-2.16,1.47-2.25Z"/>
      <path class="cls-2" d="M125.52,97.44l-6.01,10.56-2.62-1.46,5.86-10.08c.54-.41,2.03,1.03,2.77.99Z"/>
      <path class="cls-2" d="M15.82,30.99l-5.97,9.95c-.37.24-2.89-.79-2.55-1.82.23-.69,1.63-2.86,2.11-3.67.71-1.19,2.89-4.83,3.78-5.58.94-.79,1.56.89,2.63,1.12Z"/>
      <path class="cls-2" d="M100.3,4.82c.21.29-.65,2.58-.93,2.76-.49.31-9.39-3.5-11.05-3.02-.17-.16.31-3.08.63-3.14l11.35,3.4Z"/>
      <path class="cls-2" d="M105.36,127.2c-.19.14-2.43-1.56-2.36-1.99l6.79-8.82c.8-.62,1.96.94,2.76,1.33l-7.19,9.48Z"/>
      <path class="cls-2" d="M62.8,169.08c.18-.02,2.4,1.72,1.99,2.29l-7.99,7.64c-.7.75-2.56-1.66-2.29-2.1,1.16-.79,7.73-7.77,8.29-7.83Z"/>
      <path class="cls-2" d="M95.19,134.42c.19-.03,2.29,1.69,2.23,1.99l-8.02,8.79-2.02-2.24,7.82-8.54Z"/>
      <path class="cls-2" d="M80.06,152.73c.16-.02,2.38,1.78,1.99,2.28l-7.99,7.64c-.7.74-2.56-1.65-2.29-2.1l8.29-7.83Z"/>
      <path class="cls-2" d="M30.84,12.77c.19.02,1.87,2.14,1.45,2.6l-8.3,6.85c-.68.42-2.52-1.59-2.29-2.05.3-.58,2.93-2.77,3.62-3.36s5.12-4.07,5.52-4.04Z"/>
      <path class="cls-2" d="M134.14,75.14c.53.61-2.86,10.08-3.36,11.48-.31.22-2.86-.63-2.82-1.25l3.34-10.71,2.85.48Z"/>
      <path class="cls-2" d="M42.5,9.34c-.16-.12-1.17-2.29-.75-2.74.36-.39,4.95-2.05,5.82-2.35,1.47-.5,3.3-1.18,4.8-1.46.23-.04.35-.23.54.08.22.37.81,2.41.36,2.77-1.52-.09-10.32,4.04-10.78,3.7Z"/>
      <path class="cls-3" d="M135.84,51.12l.2,11.84c-.09.27-.21.36-.51.35-.38-.02-1.97-.16-2.18-.23-.75-.24-.16-1.38-.14-2,.1-3.26-.31-6.49-.49-9.73l3.12-.24Z"/>
      <path class="cls-2" d="M139.92,208.42c-.04.37-.11.62-.24.67-.84.27-3.73-.32-4.34.1-.47.33-.12,2.36-.23,3.02,2.42-.15,5.05.19,7.44,0v-3.66c-.88.11-1.78.07-2.64-.13Z"/>
    </g>
    <path class="cls-2" d="M20.97,200.8c.18,0,2.18,2,1.69,2.51l-8.86,6.61c-.78.66-2.34-1.96-2.02-2.36,1.24-.65,8.62-6.77,9.19-6.76Z"/>
    <path class="cls-2" d="M40.1,186.67c.16,0,2.15,2.05,1.69,2.51l-8.86,6.61c-.79.65-2.34-1.95-2.02-2.36l9.19-6.76Z"/>
  </g>
</svg>