<?xml version="1.0" encoding="UTF-8"?>
<svg id="Layer_2" data-name="Layer 2" xmlns="http://www.w3.org/2000/svg" viewBox="0 0 147.41 216.73">
  <defs>
    <style>
      .cls-1 {
        fill: #272425;
      }
    </style>
  </defs>
  <g id="Layer_1-2" data-name="Layer 1">
    <g>
      <path class="cls-1" d="M66.11,0h-2.71c-.36,1.19-3.24,4.82-3.33,5.68-.07.68,1.96,1.38,2.48,1.76.25,0,2.01-3.89,2.53-4.2.17-.1.46-.15.8-.17-.01-1.04.08-2.06.23-3.07Z"/>
      <path class="cls-1" d="M147.4,136.56c.05,4.04-.06,8.21-.71,12.14-.96.37-1.92-.21-2.89-.14l.51-11.6c.24-.74,2.41-.26,3.09-.39Z"/>
      <path class="cls-1" d="M73.48,213.6c-.16.84.48,2.98-.61,3.13-3.16-.45-6.41-.23-9.56-.77s-1.93-.49-1.83-3.33l12,.96Z"/>
      <path class="cls-1" d="M50.19,209.77c.12.17-.55,2.18-.69,2.53-.11.27.16.39-.37.33l-11.17-4.91c.53-.43,1.15-2.55,1.75-2.49l10.47,4.54Z"/>
      <path class="cls-1" d="M29.32,57.6c.53.32,2.66,1.15,2.61,1.75-.83,1.09-5.22,10.27-5.81,10.22-.27-.02-2.63-1.11-2.29-1.71l5.49-10.26Z"/>
      <path class="cls-1" d="M3.16,148.32l1.69,11.63-2.75.63L.02,148.71c.1-.55,2.62-.37,3.14-.39Z"/>
      <path class="cls-1" d="M16.11,91.2l-2.87-1.32,5.15-10.9c.65.65,2.65.64,2.49,1.72l-4.77,10.5Z"/>
      <path class="cls-1" d="M13.94,181.66c-.75.11-1.99,1.52-2.63,1.11l-5.52-10.69c.71-.03,2.37-1.24,2.89-.86l5.25,10.44Z"/>
      <path class="cls-1" d="M47.82,26.85c-.3-.51,5.23-9.07,5.84-10.32.52-.41,2.03,1,2.66,1.22l-5.89,10.22c-.29.19-2.54-1-2.62-1.13Z"/>
      <path class="cls-1" d="M138.03,101.76l-2.64,1.33-6.36-9.25c-.39-.68,1.81-2.59,2.42-1.94l6.58,9.85Z"/>
      <path class="cls-1" d="M29.52,198.51c.28.49-1.51,2.64-1.88,2.5l-8.42-7.68c-.76-1.11,1.2-1.74,1.81-2.52,2.75,2.65,5.27,5.59,8.49,7.7Z"/>
      <path class="cls-1" d="M35.56,47.52l6-10.45,2.54,1.33-5.9,10.22c-.58.37-1.92-1.15-2.64-1.1Z"/>
      <path class="cls-1" d="M4.59,124.81l-1.7,11.72c-.19.16-2.66-.05-2.83-.24-.39-.46,1.18-11.61,1.67-11.96.32-.22,2.29.51,2.85.47Z"/>
      <path class="cls-1" d="M122.68,82.56c-.23.46-1.71,2.42-2.17,2.3l-9.32-6.95c.59-.53,1.04-2.45,1.9-2.22l9.59,6.87Z"/>
      <path class="cls-1" d="M101.55,70.09l-.72,2.86c-2.32-.44-4.6-1.28-6.94-1.79-.72-.16-4.15-.58-4.34-.7-.6-.4.27-2.29.01-3.02,4.11.3,8.06,1.56,11.99,2.65Z"/>
      <path class="cls-1" d="M27.32,88.57l-2.15-2.34c1.92-1.58,3.84-3.24,5.87-4.69.55-.39,3.71-2.63,4-2.5.32.13,1.2,2.04,1.56,2.44l-9.27,7.09Z"/>
      <path class="cls-1" d="M132.3,181.69c.25-.18,2.51,1.17,2.59,1.58.09.45-3.16,4.86-3.71,5.58l-3.55,4.09c-.37-.46-2.14-1.43-2.04-1.99l6.72-9.26Z"/>
      <path class="cls-1" d="M108.52,208.32c.06-.79-1.52-2.24-1.17-2.84l9.49-6.24c.58-.09,1.43,1.68,1.99,2.02.09.38-2.76,2.33-3.28,2.7-2.24,1.6-4.6,3.07-7.03,4.36Z"/>
      <path class="cls-1" d="M97.48,213.12l-11.64,2.67c-.84-.06-.51-2.15-.85-2.77l11.39-2.76c.55.14.68,2.32,1.1,2.86Z"/>
      <path class="cls-1" d="M54.03,68.91c.03.74,1.33,2.22.93,2.85l-9.4,5.61c-.74.69-2.27-2.07-2.06-2.44l10.53-6.03Z"/>
      <path class="cls-1" d="M143.29,112.82l3.14,11.74-3.12.48-2.89-11.39c.6-.11,2.46-1.12,2.87-.83Z"/>
      <path class="cls-1" d="M141.65,160.09c.63.16,2.84.3,2.86,1.05.02.95-1.76,5.92-2.21,7.16-.32.89-.97,2.98-1.41,3.64-.48.73-2.84-.41-2.85-.92l3.61-10.93Z"/>
      <polygon class="cls-1" points="77.56 66.96 77.56 70.08 66.06 71.74 65.32 68.88 77.56 66.96"/>
      <path class="cls-1" d="M7.71,113.52c-.61-.49-2.86-.44-2.87-1.3l3.95-11.17,2.74,1.31-3.81,11.16Z"/>
    </g>
    <path class="cls-1" d="M17.7,92.32c.18.71,1.76,1.9,1.51,2.59l-8.03,7.44c-.58.83-2.65-1.56-2.52-1.95l9.05-8.09Z"/>
  </g>
</svg>