<?xml version="1.0" encoding="UTF-8"?>
<svg id="Layer_2" data-name="Layer 2" xmlns="http://www.w3.org/2000/svg" viewBox="0 0 147.49 213.16">
  <defs>
    <style>
      .cls-1 {
        fill: #000000;
      }

      .cls-2 {
        fill: #000000;
      }
    </style>
  </defs>
  <g id="Layer_1-2" data-name="Layer 1">
    <g>
      <rect class="cls-2" x="81.12" width="13.2" height="3.12"/>
      <path class="cls-2" d="M42,0c-.06.55.23,3.12-.36,3.12h-12.84V0h13.2Z"/>
      <path class="cls-2" d="M68.16,0c-.06.55.23,3.12-.36,3.12h-12.84V0h13.2Z"/>
      <path class="cls-2" d="M120.48,0v3.12h-12.84c-.59,0-.3-2.57-.36-3.12h13.2Z"/>
      <path class="cls-2" d="M54.62,205.42l-2.18,4.58h-1c-.02.81-.21,1.62-.57,2.34.13.27.26.55.4.82,1.55,0,3.05-.06,3.22-.16l2.88-6.48-2.74-1.1Z"/>
      <path class="cls-1" d="M112.56,81.6l-4.44,10.32c-.21.4-2.65-.63-2.74-.75-.39-.53,4.03-9.15,4.32-10.52l2.86.95Z"/>
      <polygon class="cls-1" points="103.44 102.48 98.88 113.04 96.1 111.85 100.57 101.28 103.44 102.48"/>
      <path class="cls-1" d="M75.84,164.88l-4.56,10.56-2.64-1.08,4.2-10.2c.6-.65,2.22.7,3.01.73Z"/>
      <polygon class="cls-1" points="131.04 40.08 126.48 50.64 123.7 49.45 128.17 38.88 131.04 40.08"/>
      <path class="cls-1" d="M89.73,133.65c-.54.34-2.26-.8-2.86-1.07l4.68-10.37c.54.24,2.53.81,2.49,1.45l-4.31,9.98Z"/>
      <path class="cls-1" d="M84.96,144l-4.44,10.32c-.49.54-2.06-.69-2.74-.75l4.32-10.52,2.86.94Z"/>
      <path class="cls-1" d="M117.35,71.27c-.29.21-2.86-.93-2.88-1.09l4.68-10.37c.54.24,2.53.81,2.49,1.45l-4.3,10Z"/>
      <path class="cls-1" d="M62.13,196.05c-.55.34-2.25-.81-2.86-1.06l4.68-10.4c.49.43,2.53.74,2.49,1.48l-4.31,9.98Z"/>
    </g>
    <polygon class="cls-1" points="147.49 1.2 142.92 11.76 140.15 10.57 144.61 0 147.49 1.2"/>
    <path class="cls-1" d="M133.79,32.39c-.29.21-2.86-.93-2.88-1.09l4.68-10.37c.54.24,2.53.81,2.49,1.45l-4.3,10Z"/>
    <path class="cls-2" d="M144.7,0v3.12h-12.84c-.59,0-.3-2.57-.36-3.12h13.2Z"/>
    <path class="cls-2" d="M13.22,0v3.12H.38C-.21,3.12.08.55.02,0h13.2Z"/>
  </g>
</svg>