<?xml version="1.0" encoding="UTF-8"?>
<svg id="Layer_2" data-name="Layer 2" xmlns="http://www.w3.org/2000/svg" viewBox="0 0 140.79 208.6">
  <defs>
    <style>
      .cls-1, .cls-2 {
        fill: #231f20;
      }

      .cls-2 {
        font-family: LexendDeca-Regular, 'Lexend Deca';
        font-size: 42px;
      }
    </style>
  </defs>
  <g id="Layer_1-2" data-name="Layer 1">
    <path class="cls-1" d="M17.43,109.69l-13.29,12.45L0,104.41l6.6,2c13.69-34.56,40.84-38.22,56.02-37.21l-.3,4.56c-16.96-1.16-39.34,4.01-51.34,33.98l6.45,1.96ZM135.99,159.85l-9.09,15.78-9.12-15.76h6.82s-.13-110.6-.13-110.6h4.57s.13,110.59.13,110.59h6.83Z"/>
    <text class="cls-2" transform="translate(60.4 81.51)"><tspan x="0" y="0">1</tspan></text>
    <text class="cls-2" transform="translate(117.77 35.7)"><tspan x="0" y="0">2</tspan></text>
    <g id="Layer_1-2" data-name="Layer 1-2">
      <g>
        <path class="cls-1" d="M108.78,207.35c-1.96,0-3.55-1.71-3.55-3.8v-33.83c-.4-.2-.67-.61-.68-1.08-.1-3.44-.31-7.06-.61-10.76v-.16c.08-1.79.06-3.6-.07-5.38,0-.1,0-.2.02-.3.89-5.18,1.34-10.61,1.34-16.14,0-3.52-.2-6.99-.6-10.61v-.13c-.02-2.46-.06-4.92-.12-7.39,0-.1,0-.21.03-.31.08-.34.12-.64.11-.94,0-1.05-.03-2.1-.05-3.15v-.16l.02-.16c.4-3.79.82-7.7.62-11.37V8.85c0-2.1,1.59-3.8,3.54-3.8h.75c1.96,0,3.55,1.71,3.55,3.8v194.7c0,2.1-1.59,3.8-3.55,3.8h-.75,0Z"/>
        <path class="cls-1" d="M109.53,6.3c1.27,0,2.3,1.14,2.3,2.55v194.7c0,1.41-1.03,2.55-2.3,2.55h-.75c-1.27,0-2.3-1.14-2.3-2.55v-36.86c-.22.65-.45,1.29-.68,1.92-.11-3.62-.32-7.22-.61-10.83.08-1.84.06-3.69-.07-5.53.89-5.16,1.36-10.6,1.36-16.35,0-3.71-.22-7.28-.61-10.75-.02-2.47-.06-4.94-.12-7.4.09-.38.15-.79.15-1.23,0-1.06-.03-2.11-.05-3.17.42-3.94.85-7.91.64-11.74V8.85c0-1.41,1.03-2.55,2.3-2.55h.75M109.53,3.8h-.75c-2.64,0-4.8,2.27-4.8,5.05v92.9c.2,3.57-.21,7.42-.61,11.15l-.02.18c-.01.11-.02.22-.01.32.02,1.04.05,2.08.05,3.13,0,.2-.02.41-.08.65-.05.2-.07.41-.06.62.06,2.53.1,5.01.12,7.37,0,.09,0,.17.02.26.4,3.57.59,6.99.59,10.47,0,5.47-.45,10.83-1.33,15.93-.03.2-.04.4-.03.6.12,1.74.14,3.5.06,5.24v.32c.3,3.68.5,7.28.6,10.7.02.63.27,1.21.68,1.64v33.22c0,2.79,2.15,5.05,4.8,5.05h.75c2.64,0,4.8-2.27,4.8-5.05V8.85c0-2.79-2.15-5.05-4.8-5.05h.02Z"/>
      </g>
      <g>
        <path class="cls-1" d="M62.8,207.35c-9.67,0-18.44-2.58-26.06-7.66-7.6-5.07-13.67-12.14-18.02-21.01-4.34-8.84-6.54-19.09-6.54-30.47s2.27-21.92,6.74-30.91c4.48-9,10.53-16.17,18-21.32,7.5-5.16,15.95-7.78,25.11-7.78,5.32,0,10.54,1.01,15.53,3,4.97,1.99,9.57,4.82,13.68,8.43,4.1,3.61,7.59,7.85,10.36,12.62,1.62,2.78,2.94,5.79,3.95,8.96.03.1.05.21.06.32l.07,1.61c.72,14.49,1.21,27.56-.24,40.86-.19,1.77-.39,3.54-.59,5.32-.33,2.89-.66,5.77-.95,8.66-.01.13-.05.27-.1.39-.69,1.53-1.42,3-2.18,4.36-2.77,4.99-6.19,9.38-10.16,13.05-3.97,3.68-8.42,6.56-13.2,8.55-4.8,2-10,3.01-15.45,3.01h-.01ZM62.21,95.46c-8.39,0-15.93,2.25-22.43,6.69-6.52,4.46-11.67,10.72-15.32,18.61-3.66,7.93-5.52,17.16-5.52,27.45s1.86,19.01,5.52,26.79c3.64,7.75,8.8,13.94,15.32,18.4,6.49,4.44,14.17,6.69,22.82,6.69,7.61,0,14.59-2.21,20.76-6.57,6.2-4.39,11.17-10.58,14.75-18.4,3.6-7.86,5.43-17.06,5.43-27.34s-1.83-19.26-5.43-27.13c-3.58-7.83-8.55-14.05-14.76-18.51-6.17-4.43-13.28-6.68-21.14-6.68Z"/>
        <path class="cls-1" d="M62.02,89.46c5.18,0,10.21.97,15.07,2.92,4.86,1.94,9.3,4.68,13.32,8.21s7.39,7.63,10.11,12.31c1.59,2.74,2.87,5.65,3.84,8.71.03.54.05,1.07.07,1.61.68,13.6,1.24,27.08-.23,40.66-.51,4.66-1.07,9.32-1.54,13.98-.66,1.46-1.36,2.88-2.14,4.27-2.72,4.9-6.03,9.15-9.91,12.74-3.89,3.6-8.16,6.37-12.83,8.32-4.67,1.94-9.66,2.92-14.97,2.92-9.46,0-17.92-2.48-25.37-7.45-7.45-4.97-13.32-11.81-17.59-20.52-4.28-8.71-6.42-18.68-6.42-29.92s2.2-21.49,6.61-30.35c4.4-8.86,10.27-15.8,17.59-20.84s15.46-7.56,24.4-7.56M62.6,201.35c7.9,0,15.07-2.27,21.48-6.8,6.42-4.54,11.47-10.83,15.16-18.9,3.69-8.06,5.54-17.35,5.54-27.86s-1.85-19.58-5.54-27.65c-3.69-8.06-8.75-14.4-15.16-19.01-6.42-4.61-13.71-6.91-21.87-6.91-8.68,0-16.4,2.31-23.13,6.91-6.74,4.61-11.99,10.98-15.75,19.12-3.76,8.14-5.64,17.46-5.64,27.97s1.88,19.33,5.64,27.32c3.76,7.99,9.01,14.29,15.75,18.9s14.58,6.91,23.52,6.91M62.02,86.96c-9.42,0-18.1,2.69-25.81,8-7.65,5.26-13.84,12.6-18.41,21.79-4.56,9.16-6.87,19.75-6.87,31.46s2.24,22,6.67,31.02c4.45,9.07,10.66,16.31,18.45,21.5,7.83,5.22,16.84,7.87,26.76,7.87,5.62,0,10.98-1.05,15.93-3.11,4.92-2.05,9.48-5.01,13.57-8.79,4.06-3.76,7.56-8.26,10.4-13.36.77-1.39,1.52-2.89,2.23-4.46.11-.25.18-.51.21-.78.29-2.89.63-5.84.95-8.68.2-1.76.4-3.52.59-5.28,1.46-13.39.97-26.51.25-41.05-.01-.29-.03-.58-.04-.87l-.03-.74c-.01-.22-.05-.43-.11-.64-1.03-3.25-2.4-6.35-4.06-9.21-2.84-4.89-6.42-9.24-10.62-12.93-4.22-3.7-8.94-6.61-14.04-8.65-5.13-2.05-10.52-3.09-15.99-3.09h-.03ZM62.6,198.85c-8.39,0-15.83-2.18-22.11-6.48-6.34-4.33-11.35-10.35-14.9-17.9-3.58-7.62-5.4-16.45-5.4-26.26s1.82-19.16,5.41-26.92c3.55-7.68,8.56-13.77,14.89-18.1,6.28-4.3,13.59-6.48,21.72-6.48,7.59,0,14.46,2.17,20.41,6.44,6.03,4.33,10.86,10.39,14.35,18.02,3.53,7.7,5.31,16.65,5.31,26.61s-1.79,19.13-5.31,26.82c-3.49,7.62-8.31,13.64-14.33,17.9-5.96,4.21-12.7,6.35-20.04,6.35h0Z"/>
      </g>
    </g>
  </g>
</svg>