<?xml version="1.0" encoding="UTF-8"?>
<svg id="Layer_2" data-name="Layer 2" xmlns="http://www.w3.org/2000/svg" viewBox="0 0 44.19 167.69">
  <defs>
    <style>
      .cls-1, .cls-2 {
        fill: #231f20;
      }

      .cls-2 {
        font-family: LexendDeca-Regular, 'Lexend Deca';
        font-size: 42px;
      }
    </style>
  </defs>
  <g id="Layer_1-2" data-name="Layer 1">
    <path class="cls-1" d="M16.5,149.04h6.82l-9.11,15.77-9.1-15.77h6.82v-61.65h4.57v61.65Z"/>
    <text class="cls-2" transform="translate(5.11 80.43)"><tspan x="0" y="0">1</tspan></text>
    <text class="cls-2" transform="translate(0 35.7)"><tspan x="0" y="0">2</tspan></text>
    <g id="Layer_1-2" data-name="Layer 1-2">
      <g>
        <path class="cls-1" d="M35.63,166.44c-1.76,0-3.19-1.43-3.19-3.19V59.4c0-1.76,1.43-3.19,3.19-3.19h.64c1.76,0,3.19,1.43,3.19,3.19v103.85c0,1.76-1.43,3.19-3.19,3.19h-.64ZM35.95,30.39c-2.29,0-4.06-.7-5.25-2.07-1.16-1.32-1.74-3.04-1.74-5.13,0-1.93.58-3.62,1.72-5,1.2-1.46,2.98-2.2,5.27-2.2,2.13,0,3.85.69,5.12,2.04,1.25,1.33,1.88,3.07,1.88,5.16s-.59,3.81-1.75,5.13c-1.2,1.37-2.96,2.07-5.25,2.07Z"/>
        <path class="cls-1" d="M35.95,17.24c1.78,0,3.18.55,4.21,1.64,1.03,1.1,1.54,2.53,1.54,4.31s-.48,3.22-1.44,4.31c-.96,1.1-2.4,1.64-4.31,1.64s-3.35-.55-4.31-1.64-1.44-2.53-1.44-4.31c0-1.64.48-3.04,1.44-4.21.96-1.16,2.39-1.74,4.31-1.74M36.26,57.46c1.07,0,1.94.87,1.94,1.94v103.85c0,1.07-.87,1.94-1.94,1.94h-.64c-1.07,0-1.94-.87-1.94-1.94V59.4c0-1.07.87-1.94,1.94-1.94h.64M35.95,14.74c-3.36,0-5.25,1.44-6.24,2.66-1.33,1.61-2.01,3.56-2.01,5.79,0,2.4.69,4.4,2.06,5.96,1.44,1.65,3.52,2.49,6.19,2.49s4.74-.84,6.19-2.5c1.36-1.56,2.05-3.56,2.05-5.95s-.74-4.45-2.21-6.02c-1.49-1.59-3.58-2.43-6.03-2.43h0ZM36.26,54.96h-.64c-2.45,0-4.44,1.99-4.44,4.44v103.85c0,2.45,1.99,4.44,4.44,4.44h.64c2.45,0,4.44-1.99,4.44-4.44V59.4c0-2.45-1.99-4.44-4.44-4.44h0Z"/>
      </g>
    </g>
  </g>
</svg>