<?xml version="1.0" encoding="UTF-8"?>
<svg id="Layer_2" data-name="Layer 2" xmlns="http://www.w3.org/2000/svg" viewBox="0 0 192.26 157.67">
  <defs>
    <style>
      .cls-1, .cls-2 {
        fill: #231f20;
      }

      .cls-3 {
        fill: #262324;
        stroke: #231f20;
        stroke-miterlimit: 10;
        stroke-width: 2.25px;
      }

      .cls-2 {
        font-family: LexendDeca-Regular, 'Lexend Deca';
        font-size: 42px;
      }
    </style>
  </defs>
  <g id="Layer_1-2" data-name="Layer 1">
    <g>
      <path class="cls-1" d="M95.73,39.89l-6.77-14.92-3.65,5.1c-9.94-4.74-21.97-5.44-33.75-2.1.14,1.36.42,2.71.83,4.03,10.66-3.1,21.49-2.61,30.49,1.46l-3.46,4.84,16.31,1.6Z"/>
      <polygon class="cls-1" points="14.37 42.86 9.8 42.86 9.8 104.52 2.98 104.52 12.09 120.29 21.19 104.52 14.37 104.52 14.37 42.86"/>
      <path class="cls-1" d="M186.05,64.6c-4.74-28.49-27.9-36.47-46.72-34.47l.43,4.08c6.16-.65,36.44-2.04,42.14,30.62l-6,.34,8.98,13.71,7.38-14.63-6.21.35Z"/>
    </g>
    <text class="cls-2" transform="translate(0 38.9)"><tspan x="0" y="0">1</tspan></text>
    <text class="cls-2" transform="translate(23.88 35.7)"><tspan x="0" y="0">2</tspan></text>
    <path class="cls-3" d="M128.08,24.14c-.05.06-.03.19.08.28.32.25.9.45,1.33.8,3.31,2.73,3.48,8.09.81,11.32-3.26,3.96-9.63,3.53-12.95-.13-.46-.51-2.24-2.55-.91-2.94.97-.29,1.59,1.28,2.19,1.93,1.18,1.28,2.91,2.2,4.66,2.35,8.86.79,9.82-11.92,1.59-12.66-.54-.05-2.49.18-2.75-.23-1.18-1.87,2.78-1.32,3.55-1.43,2.13-.29,4.07-2.35,4.28-4.48.65-6.44-6.89-9.01-10.78-4.18-.38.47-1.3,2.38-1.58,2.47-.52.16-1.11-.15-1.11-.72,0-.19.79-1.73.96-2,2.42-3.86,8.21-5.09,11.71-1.91,2.92,2.65,3.26,7.94.27,10.65-.27.24-1.3.82-1.35.88Z"/>
    <g id="Layer_1-2" data-name="Layer 1-2">
      <g>
        <path class="cls-1" d="M168.66,156.42c-1.7,0-3.08-1.45-3.08-3.23v-66.9c0-8.61-1.17-15.72-3.47-21.14-2.26-5.32-5.56-9.25-9.81-11.69-4.3-2.47-9.68-3.72-15.99-3.72-4.82,0-9.34.88-13.42,2.63-4.09,1.75-7.67,4.1-10.63,6.99-2.97,2.9-5.33,6.1-6.99,9.52-1.65,3.38-2.48,6.69-2.48,9.85v74.46c0,1.78-1.38,3.23-3.08,3.23h-.6c-1.7,0-3.08-1.45-3.08-3.23v-66.9c0-8.61-1.17-15.72-3.47-21.14-2.26-5.32-5.56-9.25-9.81-11.69-4.3-2.47-9.68-3.72-15.99-3.72-5.07,0-9.77.99-13.96,2.93-4.24,1.97-8,4.44-11.18,7.35-3.17,2.91-5.62,5.91-7.28,8.92-1.63,2.95-2.45,5.4-2.45,7.27v76.98c0,1.78-1.38,3.23-3.08,3.23h-.6c-1.7,0-3.08-1.45-3.08-3.23V46.9c0-1.78,1.38-3.23,3.08-3.23h.25c1.69,0,3.04,1.39,3.07,3.16l.32,15.46c.94-1.42,1.92-2.75,2.92-3.99,2.96-3.65,6.21-6.67,9.65-8.97,3.45-2.3,7.11-4.02,10.88-5.1,3.77-1.08,7.75-1.62,11.84-1.62,5.67,0,10.87.95,15.45,2.82,4.63,1.9,8.61,5.04,11.83,9.33,2.14,2.86,3.91,6.42,5.28,10.61,1.38-2.71,3-5.22,4.82-7.5,2.71-3.37,5.79-6.21,9.17-8.45,3.37-2.23,7.06-3.94,10.96-5.09,3.9-1.15,7.95-1.73,12.04-1.73,7.53,0,14.01,1.54,19.27,4.58,5.3,3.06,9.41,7.89,12.21,14.34,2.76,6.36,4.16,14.69,4.16,24.75v66.9c0,1.78-1.38,3.23-3.08,3.23h-.6v.02Z"/>
        <path class="cls-1" d="M136.7,43.87c7.34,0,13.55,1.47,18.64,4.41,5.09,2.94,8.98,7.53,11.69,13.76,2.7,6.23,4.06,14.32,4.06,24.25v66.9c0,1.1-.82,1.98-1.83,1.98h-.6c-1.01,0-1.83-.89-1.83-1.98v-66.9c0-8.82-1.19-16.03-3.57-21.63-2.38-5.6-5.83-9.69-10.34-12.29-4.51-2.59-10.05-3.88-16.62-3.88-5.02,0-9.66.91-13.91,2.73s-7.92,4.24-11.01,7.25c-3.09,3.01-5.51,6.3-7.24,9.87-1.74,3.57-2.61,7.03-2.61,10.39v74.46c0,1.1-.82,1.98-1.83,1.98h-.6c-1.01,0-1.83-.89-1.83-1.98v-66.9c0-8.82-1.19-16.03-3.57-21.63-2.38-5.6-5.83-9.69-10.34-12.29-4.51-2.59-10.05-3.88-16.62-3.88-5.28,0-10.11,1.02-14.49,3.05s-8.21,4.55-11.5,7.56c-3.28,3.01-5.8,6.09-7.53,9.24-1.74,3.15-2.61,5.77-2.61,7.88v76.98c0,1.1-.82,1.98-1.83,1.98h-.6c-1.01,0-1.83-.89-1.83-1.98V46.9c0-1.1.82-1.98,1.83-1.98h.25c.99,0,1.8.86,1.83,1.94l.41,19.72c-.97,1.7-1.89,3.52-2.77,5.43l2.9.63-.13-6.06c1.57-2.78,3.26-5.27,5.05-7.48,2.9-3.57,6.02-6.47,9.37-8.72,3.35-2.24,6.86-3.88,10.53-4.93s7.5-1.58,11.5-1.58c5.54,0,10.53.91,14.97,2.73,4.44,1.82,8.21,4.8,11.3,8.92,2.59,3.46,4.59,7.93,6.01,13.4-.14.32-.27.65-.4.98l-1.16,3.57,2.32-1.26c-.23-1.14-.48-2.23-.76-3.29,1.61-3.8,3.63-7.22,6.07-10.25,2.64-3.29,5.6-6.02,8.89-8.19,3.28-2.17,6.82-3.81,10.63-4.94,3.8-1.12,7.69-1.68,11.69-1.68M136.7,41.37c-4.21,0-8.38.6-12.39,1.78-4.02,1.19-7.82,2.95-11.3,5.25-3.49,2.31-6.67,5.24-9.46,8.71-1.31,1.63-2.52,3.39-3.61,5.24-1.25-3.19-2.76-5.98-4.52-8.32-3.35-4.48-7.51-7.75-12.36-9.74-4.73-1.94-10.09-2.92-15.92-2.92-4.21,0-8.31.56-12.18,1.67-3.9,1.12-7.68,2.88-11.23,5.26-3.54,2.37-6.88,5.47-9.92,9.22-.26.32-.52.65-.78.99l-.24-11.7c-.05-2.46-1.95-4.39-4.32-4.39h-.25c-2.4,0-4.34,2.01-4.34,4.48v106.28c0,2.47,1.94,4.48,4.33,4.48h.6c2.39,0,4.33-2.01,4.33-4.48v-76.97c0-1.14.4-3.23,2.3-6.67,1.6-2.89,3.96-5.79,7.04-8.61s6.73-5.22,10.86-7.13c4.03-1.87,8.55-2.81,13.44-2.81,6.09,0,11.26,1.2,15.37,3.55,4,2.3,7.12,6.04,9.28,11.1,2.24,5.26,3.37,12.21,3.37,20.65v66.9c0,2.47,1.94,4.48,4.33,4.48h.6c2.39,0,4.33-2.01,4.33-4.48v-74.46c0-2.96.79-6.09,2.36-9.3,1.6-3.29,3.87-6.38,6.74-9.17,2.85-2.78,6.3-5.05,10.25-6.74,3.92-1.68,8.27-2.53,12.93-2.53,6.09,0,11.26,1.2,15.37,3.55,4,2.3,7.12,6.04,9.28,11.1,2.24,5.26,3.37,12.21,3.37,20.65v66.9c0,2.47,1.94,4.48,4.33,4.48h.6c2.39,0,4.33-2.01,4.33-4.48v-66.9c0-10.24-1.43-18.73-4.26-25.25-2.91-6.7-7.19-11.72-12.73-14.92-5.45-3.15-12.15-4.75-19.9-4.75h-.03Z"/>
      </g>
    </g>
  </g>
</svg>