<?xml version="1.0" encoding="UTF-8"?>
<svg id="Layer_2" data-name="Layer 2" xmlns="http://www.w3.org/2000/svg" viewBox="0 0 163.45 267.83">
  <defs>
    <style>
      .cls-1, .cls-2 {
        fill: #231f20;
      }

      .cls-3 {
        fill: #262324;
        stroke: #231f20;
        stroke-miterlimit: 10;
        stroke-width: 2.25px;
      }

      .cls-2 {
        font-family: LexendDeca-Regular, 'Lexend Deca';
        font-size: 42px;
      }
    </style>
  </defs>
  <g id="Layer_1-2" data-name="Layer 1">
    <path class="cls-1" d="M17.6,70.24l-12.84,12.91L0,65.58l6.68,1.77C18.97,32.83,45.45,27.93,60.36,28.18l-.08,4.56c-16.66-.24-38.4,5.85-49.19,35.77l6.51,1.73ZM139.63,112l-9.13,15.75-9.08-15.79h6.83s.12-67.16.12-67.16h4.57s-.12,67.17-.12,67.17h6.82ZM159.43,197.58l-5.01-4.63-9.29,10.05-3.35-3.1,9.29-10.04-5.01-4.63,17.39-5.39-4.03,17.76Z"/>
    <text class="cls-2" transform="translate(66.97 35.7)"><tspan x="0" y="0">1</tspan></text>
    <text class="cls-2" transform="translate(122.43 40.28)"><tspan x="0" y="0">2</tspan></text>
    <path class="cls-3" d="M134.55,209.92c-.05.06-.03.19.08.28.32.25.9.45,1.33.8,3.31,2.73,3.48,8.09.81,11.32-3.26,3.96-9.63,3.53-12.95-.13-.46-.51-2.24-2.55-.91-2.94.97-.29,1.59,1.28,2.19,1.93,1.18,1.28,2.91,2.2,4.66,2.35,8.86.79,9.82-11.92,1.59-12.66-.54-.05-2.49.18-2.75-.23-1.18-1.87,2.78-1.32,3.55-1.43,2.13-.29,4.07-2.35,4.28-4.48.65-6.44-6.89-9.01-10.78-4.18-.38.47-1.3,2.38-1.58,2.47-.52.16-1.11-.15-1.11-.72,0-.19.79-1.73.96-2,2.42-3.86,8.21-5.09,11.71-1.91,2.92,2.65,3.26,7.94.27,10.65-.27.24-1.3.82-1.35.88Z"/>
    <g id="Layer_1-2" data-name="Layer 1-2">
      <g>
        <path class="cls-1" d="M110.61,266.64c-2.24,0-4.05-1.75-4.05-3.91v-104.02c0-.11.02-.22.05-.33.35-1.24-.02-2.3-.39-2.98-.13-.24-.18-.52-.13-.79.11-.63.09-1.24-.04-1.82-.03-.14-.04-.28-.03-.42.42-3.71.54-7.67.41-12.86-.04-1.4-.12-2.87-.28-4.75v-.22c.28-2.9.42-5.84.42-8.76,0-3.75-.23-7.47-.68-11.06-.06-.46.15-.91.53-1.17.92-.61,2.35-2.02,1.58-4.5-.86-2.79-1.74-5.8-2.44-8.94-.02-.1-.03-.2-.03-.31.05-1.41.07-2.81.06-4.17,0-.15.02-.29.07-.42.16-.44.22-.87.17-1.29-.15-1.25-.28-2.49-.41-3.74-.06-.6.33-1.16.92-1.31.1-.02.19-.04.29-.04h.06l.12-10.02c0-.07,0-.15.02-.22.08-.4.08-.78.02-1.14-.01-.08-.02-.16-.02-.24l.3-24.33c.03-2.13,1.84-3.86,4.05-3.86h.36c2.24,0,4.05,1.75,4.05,3.91v209.79c0,2.16-1.82,3.91-4.05,3.91h-.93Z"/>
        <path class="cls-1" d="M111.54,50.24c1.57,0,2.83,1.21,2.83,2.69v209.79c0,1.49-1.27,2.69-2.83,2.69h-.93c-1.57,0-2.83-1.21-2.83-2.69v-104.02c.38-1.36.15-2.71-.5-3.9.13-.77.12-1.56-.06-2.31.48-4.32.53-8.68.42-13.03-.04-1.64-.15-3.24-.28-4.82.28-2.88.42-5.84.42-8.88,0-3.86-.24-7.6-.69-11.22,1.79-1.2,2.88-3.25,2.07-5.87-.82-2.68-1.72-5.7-2.42-8.85.05-1.41.07-2.81.06-4.22.21-.58.31-1.2.23-1.85-.14-1.24-.28-2.48-.41-3.72.44,1.1.85,2.21,1.22,3.34l.18-14.56c.11-.56.12-1.09.02-1.6l.3-24.33c.02-1.47,1.28-2.66,2.83-2.66h.36M111.54,47.81h-.36c-2.87,0-5.24,2.27-5.27,5.07l-.3,24.33c0,.16.01.32.04.48.04.21.03.43-.01.68-.03.15-.04.29-.05.44l-.11,9.1c-.85.46-1.38,1.4-1.27,2.4.13,1.25.27,2.5.41,3.75.03.23,0,.46-.1.72-.1.27-.15.56-.15.85,0,1.33-.01,2.71-.06,4.12,0,.21.01.41.06.61.71,3.19,1.6,6.22,2.47,9.03.41,1.32.04,2.37-1.1,3.13-.77.51-1.18,1.41-1.06,2.33.44,3.55.67,7.22.67,10.91,0,2.88-.14,5.79-.41,8.64-.01.14-.01.29,0,.43.15,1.87.24,3.32.27,4.68.13,5.13,0,9.05-.4,12.7-.03.28-.01.56.05.83.1.41.11.87.03,1.33-.09.54,0,1.1.26,1.58.38.7.48,1.39.29,2.07-.06.21-.09.44-.09.66v104.02c0,2.83,2.36,5.13,5.27,5.13h.93c2.91,0,5.27-2.3,5.27-5.13V52.94c0-2.83-2.36-5.13-5.27-5.13h-.01Z"/>
      </g>
      <g>
        <path class="cls-1" d="M65.5,160.5c-9.54,0-18.2-2.58-25.72-7.66-7.5-5.06-13.48-12.12-17.78-20.98-4.28-8.83-6.46-19.07-6.46-30.43s2.24-21.9,6.65-30.87c4.42-8.99,10.39-16.16,17.76-21.29,7.4-5.16,15.74-7.77,24.77-7.77,5.25,0,10.41,1.01,15.33,3,4.9,1.98,9.44,4.82,13.5,8.42,4.05,3.6,7.49,7.84,10.22,12.61,1.42,2.47,2.6,5.11,3.54,7.88.5.12.87.56.9,1.09.07,1.36.14,2.4.23,3.37.29,3.1.81,6.24,1.32,9.27.47,2.8.95,5.7,1.25,8.59.42,4.03-.19,7.92-.79,11.69-.39,2.46-.79,5-.88,7.52-.05,1.31,0,2.67.04,3.98.06,1.73.11,3.52-.03,5.29-.13,1.67-.51,3.42-1.19,5.5-.02.05-.04.1-.06.15l-.05.1c-.2.43-.63.71-1.1.71-.08,0-.16,0-.24-.03-.12-.03-.23-.07-.33-.12-.79,1.86-1.66,3.67-2.61,5.4-2.74,4.99-6.11,9.37-10.02,13.04-3.92,3.68-8.3,6.55-13.02,8.54-4.73,2-9.86,3.01-15.24,3.01h0ZM64.92,48.61c-8.29,0-15.75,2.25-22.17,6.7-6.45,4.46-11.54,10.73-15.15,18.63-3.62,7.94-5.46,17.19-5.46,27.48s1.84,19.03,5.46,26.82c3.6,7.76,8.7,13.96,15.15,18.43,6.42,4.45,14.01,6.7,22.56,6.7,7.52,0,14.42-2.21,20.53-6.58,6.14-4.39,11.04-10.59,14.59-18.42,3.56-7.87,5.37-17.08,5.37-27.38s-1.81-19.28-5.37-27.16c-3.54-7.83-8.46-14.07-14.59-18.54-6.1-4.44-13.13-6.69-20.9-6.69h-.02Z"/>
        <path class="cls-1" d="M64.73,42.67c5.12,0,10.08.97,14.88,2.92,4.8,1.94,9.18,4.68,13.15,8.21s7.3,7.63,9.98,12.31c1.85,3.23,3.27,6.68,4.27,10.35l.02-1.91c.06,1.14.13,2.29.24,3.42.55,6.02,1.94,11.88,2.57,17.88.68,6.48-1.43,12.6-1.67,19.04-.12,3.06.26,6.17.01,9.22-.15,1.78-.58,3.53-1.14,5.22-.03.05-.05.11-.07.16v-3.87c-1.13,3.41-2.54,6.65-4.22,9.72-2.69,4.9-5.95,9.15-9.79,12.74-3.84,3.6-8.06,6.37-12.67,8.32-4.61,1.94-9.54,2.92-14.78,2.92-9.35,0-17.7-2.48-25.06-7.45-7.36-4.97-13.15-11.81-17.38-20.52-4.22-8.71-6.34-18.68-6.34-29.92s2.18-21.49,6.53-30.35c4.35-8.86,10.14-15.8,17.38-20.84,7.23-5.04,15.26-7.56,24.1-7.56M65.31,154.56c7.81,0,14.88-2.27,21.22-6.8,6.34-4.54,11.33-10.83,14.98-18.9,3.65-8.06,5.47-17.35,5.47-27.86s-1.82-19.58-5.47-27.65c-3.65-8.06-8.64-14.4-14.98-19.01s-13.54-6.91-21.6-6.91c-8.58,0-16.19,2.31-22.85,6.91-6.66,4.61-11.84,10.98-15.55,19.12-3.71,8.14-5.57,17.46-5.57,27.97s1.85,19.33,5.57,27.32c3.71,7.99,8.9,14.29,15.55,18.9s14.4,6.91,23.23,6.91M64.73,40.3c-9.29,0-17.85,2.69-25.45,7.99-7.54,5.25-13.64,12.57-18.15,21.74-4.49,9.14-6.77,19.7-6.77,31.39s2.21,21.96,6.57,30.95c4.39,9.05,10.51,16.27,18.18,21.45,7.72,5.21,16.6,7.86,26.38,7.86,5.54,0,10.83-1.04,15.71-3.1,4.85-2.05,9.35-5,13.37-8.77,4-3.75,7.45-8.24,10.25-13.33.82-1.49,1.58-3.04,2.28-4.62.85-.05,1.64-.56,2.01-1.37l.03-.06.03-.06c.05-.1.09-.21.13-.32.71-2.17,1.1-4,1.24-5.77.15-1.84.09-3.66.03-5.42-.04-1.36-.09-2.64-.04-3.9.09-2.45.47-4.84.87-7.38.6-3.84,1.23-7.81.79-12-.31-2.93-.79-5.84-1.26-8.66-.5-3.01-1.02-6.13-1.3-9.19-.09-.96-.16-1.99-.23-3.33-.04-.81-.49-1.5-1.13-1.9-.94-2.66-2.1-5.21-3.47-7.6-2.8-4.88-6.32-9.22-10.46-12.9-4.16-3.69-8.81-6.6-13.84-8.63-5.06-2.05-10.37-3.09-15.77-3.09h0v.02ZM65.31,152.19c-8.3,0-15.67-2.18-21.88-6.49-6.27-4.34-11.24-10.38-14.75-17.95-3.55-7.64-5.35-16.49-5.35-26.32s1.8-19.2,5.35-26.99c3.51-7.7,8.48-13.81,14.74-18.15,6.22-4.31,13.45-6.49,21.5-6.49,7.51,0,14.31,2.17,20.21,6.46,5.97,4.34,10.75,10.42,14.21,18.07,3.49,7.72,5.26,16.69,5.26,26.67s-1.77,19.17-5.26,26.89c-3.46,7.64-8.23,13.68-14.2,17.95-5.9,4.22-12.57,6.36-19.84,6.36h0Z"/>
      </g>
      <g>
        <path class="cls-1" d="M113.49,264.98c-1,0-1.96-.37-2.69-1.04-.17-.15-.34-.3-.51-.45-.93-.76-1.49-1.87-1.55-3.05-.06-1.15.36-2.24,1.18-3.06l27.97-27.97c.77-.77,1.8-1.2,2.89-1.2s2.12.42,2.89,1.2l.66.66c.77.77,1.2,1.8,1.2,2.89s-.43,2.12-1.2,2.89l-27.92,27.92c-.77.77-1.83,1.21-2.91,1.21h-.01Z"/>
        <path class="cls-1" d="M140.77,229.47c.73,0,1.45.28,2,.83l.66.66c1.11,1.11,1.11,2.9,0,4.01l-27.92,27.92c-.55.55-1.29.84-2.02.84-.66,0-1.32-.23-1.84-.71-.19-.17-.37-.33-.57-.49-1.32-1.09-1.49-3.04-.28-4.25l27.97-27.97c.55-.55,1.28-.83,2-.83M140.77,226.97c-1.42,0-2.76.55-3.77,1.56l-27.97,27.97c-1.06,1.06-1.62,2.51-1.54,4,.08,1.53.81,2.97,2.01,3.95.16.13.31.26.46.4.96.88,2.22,1.37,3.53,1.37,1.41,0,2.79-.57,3.79-1.57l27.92-27.92c1.01-1.01,1.56-2.35,1.56-3.77s-.55-2.76-1.56-3.77l-.66-.66c-1.01-1.01-2.35-1.56-3.77-1.56h0Z"/>
      </g>
    </g>
  </g>
</svg>