<?xml version="1.0" encoding="UTF-8"?>
<svg id="Layer_2" data-name="Layer 2" xmlns="http://www.w3.org/2000/svg" viewBox="0 0 183.77 241.09">
  <defs>
    <style>
      .cls-1 {
        fill: #231f20;
      }

      .cls-2 {
        fill: #fff;
      }

      .cls-3 {
        fill: #020202;
      }

      .cls-4 {
        fill: #010101;
      }
    </style>
  </defs>
  <g id="Layer_1-2" data-name="Layer 1">
    <g id="Layer_1-2" data-name="Layer 1-2">
      <path class="cls-1" d="M40.43,36.01l-16.53,7.64,1.65-18.13,5.63,3.97C54.32,2.47,86.88-.57,104.47.08c25.39.96,50.08,10.76,58.7,23.3l-3.77,2.59c-6.75-9.82-27.84-20.29-55.1-21.33-16.71-.64-47.49,2.24-69.38,27.49l5.51,3.88ZM183.77,38.62c0,1.5-1.22,2.71-2.71,2.71h-6.91c-1.5,0-2.71-1.21-2.71-2.71s1.21-2.71,2.71-2.71h.65v-15.12l-.47.44c-1.08,1.03-2.8.99-3.83-.1s-.98-2.8.1-3.83l5.04-4.77c.79-.74,1.95-.95,2.94-.52.99.43,1.63,1.41,1.63,2.49v21.42h.84c1.49,0,2.72,1.21,2.72,2.71h0Z"/>
    </g>
    <g id="Layer_2-2" data-name="Layer 2">
      <g id="Layer_1-2-2" data-name="Layer 1-2">
        <path class="cls-2" d="M181.87,61.49c-.61-.13-.84.35-1.13.71s-.64.76-1,1.12c.77.29,1.5.7,2.13,1.23v-3.06Z"/>
        <path class="cls-4" d="M176.9,62.25c.38.03.76.13,1.1.3.32.15.62.32.93.49.38.09.75.2,1.11.34l1.87-1.92v-.21c-1.3-1.66-2.61-3.3-3.9-5-.4-.52-.66-.71-1.29-.17-1.59,1.37-1.63,1.33-.34,3s1.54,2.05.52,3.17Z"/>
        <path class="cls-4" d="M176.92,209.55c-1.09.08-2.17.24-3.24.48l.09.16c.31.3.31.8,0,1.1-.04.04-.08.08-.13.11-.95.9-1.88,1.84-2.84,2.78.55.61,1.08,1.15,1.54,1.73s.74.41,1.14,0c1.29-1.4,2.6-2.8,3.93-4.17.37-.29.43-.81.14-1.18-.01-.02-.03-.03-.04-.05l-.59-.96Z"/>
        <path class="cls-4" d="M29.65,59.8c-.65-.59-1.33-1.19-2-1.83,0,0,.18-.41.33-.58,2.38-2.64,4.9-5.15,7.5-7.57.46-.42.7-.39,1.12.08,1.49,1.64,1.51,1.62-.15,3.16-2.11,2-4.11,4-6,6.15-.23.22-.35.57-.8.59Z"/>
        <path class="cls-4" d="M68,33.15c-.36.07-.36-.24-.46-.43-1.16-2.17-1.13-2.25,1.14-3.07,2.84-1,5.73-1.92,8.64-2.75.77-.22.93,0,1.09.67.51,2,.53,2-1.51,2.58-2.79.81-5.55,1.69-8.25,2.75l-.65.25Z"/>
        <path class="cls-4" d="M148.53,34.05c-.38.74-.74,1.54-1.18,2.29-.17.29-.43,0-.61-.09-3.15-1.51-6.38-2.84-9.68-4-.5-.18-.55-.37-.4-.87.69-2.27.67-2.28,2.87-1.45,2.83,1.06,5.61,2.22,8.33,3.54.26.08.66.08.67.58Z"/>
        <path class="cls-4" d="M32,209.91c-.56.7-1.19,1.35-1.88,1.93-.49.33-.75-.4-1.05-.71-2.28-2.34-4.35-4.88-6.39-7.44-.49-.6-.6-.93.14-1.46,1.66-1.16,1.61-1.2,2.89.41,1.79,2.25,3.64,4.45,5.64,6.52.21.25.43.53.65.75Z"/>
        <path class="cls-4" d="M20.3,67.4c.68.5,1.44,1,2.13,1.6.17.15-.14.4-.26.58-1.98,2.84-3.82,5.78-5.5,8.81-.27.5-.47.57-1,.3-2.06-1.08-2.07-1.06-.93-3.06,1.51-2.59,3.11-5.11,4.82-7.57.17-.24.26-.59.74-.66Z"/>
        <path class="cls-4" d="M11.1,89.78c-.06.15-.13.34-.21.52-1.29,3.08-2.41,6.23-3.35,9.44-.22.8-.56.76-1.17.59-2-.58-2-.56-1.38-2.56.9-2.93,2-5.8,3.11-8.65.28-.68.55-.84,1.19-.49.46.24.93.45,1.42.63.21.09.48.14.39.52Z"/>
        <path class="cls-4" d="M47.33,44.22c-.4,0-.48-.38-.65-.62-1.27-1.72-1.27-1.73.46-2.9,2.54-1.71,5.16-3.29,7.83-4.79.62-.36.89-.33,1.23.36,1,1.88,1,1.86-.8,2.88-2.52,1.43-5,3-7.37,4.61l-.7.46Z"/>
        <path class="cls-4" d="M168.76,47.03c-.56.74-1.18,1.43-1.85,2.07-.35.28-.71-.35-1-.61-2.4-2.03-4.93-3.91-7.58-5.61-.83-.53-.8-.87-.28-1.6,1.09-1.55,1.05-1.59,2.57-.55,2.55,1.75,5.02,3.62,7.38,5.62.27.2.49.42.76.68Z"/>
        <path class="cls-4" d="M40.63,217.82c.26.19.45.32.64.47,2.65,2.1,5.42,4.04,8.31,5.81.63.37.59.63.26,1.18-1.14,1.86-1.13,1.88-3,.71-2.55-1.63-5-3.4-7.41-5.23-.62-.47-.7-.8-.14-1.37.48-.49.93-1.02,1.34-1.57Z"/>
        <path class="cls-4" d="M141.59,233.97c0,.42-.29.46-.55.55-3.35,1.17-6.76,2.14-10.19,3.07-.63.17-.8-.09-.95-.64-.57-2.11-.59-2.12,1.46-2.64,2.78-.71,5.54-1.53,8.24-2.5.88-.32,1.3-.21,1.49.73.13.49.3.97.5,1.43Z"/>
        <path class="cls-4" d="M71.48,234.32c-.24.77-.49,1.49-.68,2.22-.13.47-.39.25-.64.18-3.5-1.06-6.93-2.32-10.28-3.79-.42-.18-.48-.39-.34-.82.77-2.27.76-2.28,2.93-1.36,2.72,1.14,5.48,2.14,8.29,3,.31.12.77.08.72.57Z"/>
        <path class="cls-4" d="M163.21,223.6c0,.38-.29.44-.47.55-3.02,1.91-6.14,3.67-9.34,5.25-.5.25-.72.18-1-.33-1.06-2-1.08-2,.94-3,2.59-1.3,5.11-2.73,7.54-4.31.65-.43,1-.39,1.34.31.3.53.63,1.04.99,1.53Z"/>
        <path class="cls-4" d="M12.38,180.98c.41-.09.47.22.58.46,1.41,3.2,3,6.31,4.76,9.33.25.44.19.64-.25.93-2,1.29-2,1.3-3.12-.73-1.46-2.6-2.74-5.28-4-8-.36-.75-.31-1.13.54-1.36.51-.17,1.01-.38,1.49-.63Z"/>
        <path class="cls-4" d="M5.1,158.66c.52-.11.58.25.65.63.71,3.38,1.59,6.71,2.64,10,.16.49,0,.67-.44.85-2.24.81-2.25.83-2.9-1.41-.84-2.91-1.59-5.85-2.25-8.8-.16-.71.05-.89.66-1,.61-.11,1.09-.15,1.64-.27Z"/>
        <path class="cls-4" d="M113.73,26.15c.4-2.53-.29-2.23,2.28-2,3,.32,6,.86,9,1.45.77.16.94.38.76,1.16-.46,1.94-.42,2-2.34,1.59-2.91-.55-5.82-1-8.76-1.33-.67-.03-1.18-.17-.94-.87Z"/>
        <path class="cls-4" d="M108.85,241h-.36c-2.27.19-2.54-.11-2.25-2.4.05-.44.24-.5.61-.51,3.51-.15,7-.48,10.47-1,.52-.07.66.1.74.61.37,2.25.39,2.25-1.83,2.57-2.45.4-4.91.61-7.38.73Z"/>
        <path class="cls-4" d="M93.26,240.98c-3.53-.31-6.82-.65-10.09-1.19-.64-.1-.76-.3-.69-.91.25-2.25.22-2.22,2.42-1.87,2.88.46,5.77.78,8.68.95.71,0,1.11.24.94,1-.02.2-.02.39,0,.59.01,1.07-.18,1.84-1.26,1.43Z"/>
        <path class="cls-4" d="M2.06,123.55c-.15-.01-.3-.01-.45,0-1.29.1-1.41-.51-1.29-1.64.33-3.09.68-6.18,1.13-9.25.12-.86.27-1.59,1.42-1.06.19.06.39.09.59.07,1,0,1.22.44,1,1.43-.58,3.01-.96,6.06-1.11,9.12-.04,1.11-.26,1.73-1.29,1.33Z"/>
        <path class="cls-3" d="M98.21,23.55c1,0,1.93.06,2.88,0,.78-.07.92.25.93.94q0,2-2,2.08c-3,.15-6,.32-9,.76-.63.09-.82,0-.89-.69-.19-2.16-.23-2.2,1.87-2.44s4.13-.39,6.2-.57v-.08Z"/>
        <path class="cls-3" d="M3.26,141.36c.15,1.67.26,3.34.46,5,.07.6-.1.73-.65.8-2.23.26-2.26.29-2.48-1.88-.31-3-.45-6.11-.59-9.17,0-.69.22-.75.8-.77,2.2,0,2.19-.07,2.28,2.1.05,1.3.12,2.61.18,3.92Z"/>
      </g>
    </g>
  </g>
</svg>