<?xml version="1.0" encoding="UTF-8"?>
<svg id="Layer_2" data-name="Layer 2" xmlns="http://www.w3.org/2000/svg" viewBox="0 0 165.46 254.7">
  <defs>
    <style>
      .cls-1, .cls-2 {
        fill: #231f20;
      }

      .cls-2 {
        font-family: LexendDeca-Regular, 'Lexend Deca';
        font-size: 42px;
      }

      .cls-2, .cls-3 {
        isolation: isolate;
      }

      .cls-4 {
        fill: #818181;
      }

      .cls-5 {
        fill: #020202;
      }

      .cls-6 {
        fill: #030303;
      }

      .cls-7 {
        fill: #262324;
        stroke: #231f20;
        stroke-miterlimit: 10;
        stroke-width: 2.25px;
      }

      .cls-8 {
        fill: #bfbebe;
      }

      .cls-9 {
        fill: #010101;
      }
    </style>
  </defs>
  <g id="Layer_1-2" data-name="Layer 1">
    <g id="Layer_1-2" data-name="Layer 1-2">
      <g class="cls-3">
        <text class="cls-2" transform="translate(29.19 35.7)"><tspan x="0" y="0">2</tspan></text>
      </g>
      <path class="cls-7" d="M65.84,118.77c-.05.06-.03.19.08.28.32.25.9.45,1.33.8,3.31,2.73,3.48,8.09.81,11.32-3.26,3.96-9.63,3.53-12.95-.13-.46-.51-2.24-2.55-.91-2.94.97-.29,1.59,1.28,2.19,1.93,1.18,1.28,2.91,2.2,4.66,2.35,8.86.79,9.82-11.92,1.59-12.66-.54-.05-2.49.18-2.75-.23-1.18-1.87,2.78-1.32,3.55-1.43,2.13-.29,4.07-2.35,4.28-4.48.65-6.44-6.89-9.01-10.78-4.18-.38.47-1.3,2.38-1.58,2.47-.52.16-1.11-.15-1.11-.72,0-.19.79-1.73.96-2,2.42-3.86,8.21-5.09,11.71-1.91,2.92,2.65,3.26,7.94.27,10.65-.27.24-1.3.82-1.35.88h0Z"/>
      <g class="cls-3">
        <text class="cls-2" transform="translate(0 37.57)"><tspan x="0" y="0">1</tspan></text>
      </g>
      <path class="cls-1" d="M79.28,116.07l20.92-.09-.03-6.83,15.81,9.04-15.73,9.17-.03-6.82-20.92.09s-.02-4.56-.02-4.56ZM14.19,163.47h6.83l-9.08,15.77-9.13-15.75h6.82l-.13-110.61h4.57l.13,110.59h-.01ZM57.27,20.43l83.94-.13v-6.83l15.77,9.08-15.75,9.13v-6.82l-83.95.13v-4.57h-.01Z"/>
    </g>
    <g id="Layer_2-2" data-name="Layer 2">
      <g id="Layer_1-2-2" data-name="Layer 1-2">
        <path class="cls-8" d="M26.64,188.94h-.3v-11.71h.27c.29.39.41.87.35,1.35v9c.06.48-.05.96-.32,1.36Z"/>
        <path class="cls-8" d="M26.64,212.21h-.3v-11.71h.27c.29.39.41.87.35,1.35v9c.06.48-.05.96-.32,1.36Z"/>
        <path class="cls-8" d="M26.64,235.48h-.3v-11.71h.27c.29.39.41.87.35,1.35v9c.06.48-.05.96-.32,1.36Z"/>
        <path class="cls-8" d="M26.34,130.66h.25c.31.43.45.97.38,1.5v8.59c.06.52-.09,1.05-.41,1.46h-.22v-11.55Z"/>
        <path class="cls-8" d="M26.34,153.96h.25c.31.42.44.95.38,1.47v8.59c.06.52-.09,1.05-.41,1.46h-.22v-11.52Z"/>
        <path class="cls-8" d="M26.56,118.94h-.22v-11.53h.25c.31.43.45.96.38,1.48v8.59c.06.52-.09,1.05-.41,1.46Z"/>
        <path class="cls-8" d="M26.34,60.87c.07-.03.15-.03.22,0,.32.41.47.93.41,1.45v8.6c.06.52-.07,1.04-.38,1.46h-.25v-11.51Z"/>
        <path class="cls-8" d="M26.56,95.66h-.22v-11.52h.25c.32.44.46.98.38,1.52v8.6c.04.5-.1,1-.41,1.4Z"/>
        <path class="cls-8" d="M26.34,247.04h.27c.19.2.3.47.31.75.11,2.17.08,4.35-.09,6.52-.06.14-.15.27-.25.39-.53,0-.22-.42-.22-.6-.03-2.34-.02-4.7-.02-7.06Z"/>
        <path class="cls-8" d="M26.59,49.11h-.25v-7.45h.27c.24.28.36.64.33,1v5.44c.01.37-.11.73-.35,1.01Z"/>
        <path class="cls-4" d="M30.02,254.09h-2.42c-.36-.02-.72.1-1,.34v.27h3.46c-.02-.19-.03-.4-.04-.61Z"/>
        <path class="cls-5" d="M71.78,41.66c-2.75.05-5.51,0-8.26,0h-8.25c-.62,0-.91.07-.91.81-.03,2.19-.09,2.19,2.15,2.19h1.35c1.36.06,2.7.3,4,.72.07-.55.41-.72,1.27-.72,2.6.09,5.2,0,7.79,0,1.93,0,1.88,0,1.93-2,.03-.83-.25-1-1.07-1Z"/>
        <path class="cls-9" d="M58.6,143.66c0-.41-.18-.54-.58-.55-3.16.11-6.32-.04-9.45-.45-.65-.12-.89.13-.87.83v3h.21c.21,0,.42.03.62.08.18-.14.39-.26.61-.34l.32-.08c.18-.04.37-.07.56-.08.23,0,.46.03.68.1h.11c.21-.16.48-.23.74-.18,1.64.06,3.28,0,4.91,0,2.33.07,2.44-.07,2.14-2.33Z"/>
        <path class="cls-6" d="M90.97,41.66h5.5c.55,0,.74.13.76.72.1,2.28.12,2.28-2.2,2.28h-9.09c-.83,0-1.08-.21-1.06-1.06q0-2,1.91-2l4.18.06Z"/>
        <path class="cls-6" d="M115.44,41.66h5.39c.56,0,.73.13.75.72.07,2.28.09,2.28-2.19,2.28h-9.1c-.78,0-1-.2-1-1q0-2,2.07-2h4.08Z"/>
        <path class="cls-6" d="M139.91,41.66h5.14c.69,0,1,.12,1,.9q0,2.12-2.13,2.12h-9.08c-.83,0-1.08-.21-1.06-1q0-2,2-2l4.13-.02Z"/>
        <path class="cls-5" d="M48.42,42.48c0-.6-.12-.83-.78-.82-2,.05-4.04.05-6.11,0-.68,0-.78.26-.77.84v2.61h.14c.29,0,.58.05.85.14.27-.09.55-.14.84-.14.48,0,.96.13,1.36.39.17-.84.68-.84,2.32-.84,2.21,0,2.18,0,2.15-2.18Z"/>
        <path class="cls-9" d="M26.59,49.11l.02-7.45h6.57c.69,0,.85.2.85.87,0,2.13.04,2.13-2.18,2.13s-2.35,0-2.35,2.26,0,2.26-2.32,2.24l-.59-.05Z"/>
        <path class="cls-9" d="M160.77,44.66h.5c.93,0,1.86,0,2.78-.14l1.33-.14h.08v-2.66h-6.57c-.59,0-.82.11-.84.77,0,2.24-.08,2.24,2.15,2.24l.57-.07Z"/>
        <path class="cls-9" d="M30.05,251.6c-.41,0-.63-.21-.56-.77.02-.32.02-.63,0-.95q0-2.89-2.89-2.82v7.39h3.44c-.07-.95-.07-1.9,0-2.85Z"/>
        <path class="cls-5" d="M37.12,143.31c-.2-.59-1.07-.18-1.63-.23-.67-.03-1.33-.03-2,0-1.19,0-2.79-.43-3.48.17s-.26,2-.23,3c.26.1.52.17.78.25.39-.24.84-.37,1.3-.36.34,0,.68.07,1,.2.2-.24.55-.33,1.14-.26.84.07,1.68.07,2.52,0,.24,0,.65.15.67-.26.13-.83.11-1.68-.07-2.51Z"/>
        <path class="cls-6" d="M74.58,146.07h-4.43c-.72,0-1-.14-1-.91,0-2.1,0-2.11,2-2.11h7.67c.89,0,1.16.22,1.13,1.13-.06,1.89,0,1.9-1.87,1.9h-3.5Z"/>
        <path class="cls-9" d="M26.64,212.21v-11.69q2.89-.08,2.89,2.82v7.88c0,.74-.14,1.1-1,1-.63-.04-1.26-.05-1.89-.01Z"/>
        <path class="cls-9" d="M26.64,188.94v-11.69q2.89-.08,2.89,2.82v7.88c0,.74-.14,1.1-1,1-.63-.04-1.26-.05-1.89-.01Z"/>
        <path class="cls-9" d="M26.64,235.48v-11.69q2.89-.07,2.89,2.82v7.88c0,.74-.14,1.1-1,1-.63-.04-1.26-.04-1.89-.01Z"/>
        <path class="cls-6" d="M96.02,146.07h-4.55c-.7,0-.84-.22-.84-.87q0-2.15,2.11-2.15h7.54c.79,0,1.12.13,1.1,1q0,2-2,2l-3.36.02Z"/>
        <path class="cls-6" d="M117.4,146.07h-4.54c-.71,0-.84-.22-.84-.87q0-2.15,2.08-2.15h7.66c.71,0,1.07.08,1.05,1,0,2.06,0,2.07-2.06,2.07l-3.35-.05Z"/>
        <path class="cls-9" d="M26.56,165.48v-11.52q2.91-.17,2.91,2.69v8c0,.76-.21,1-.94.92-.66.04-1.32,0-1.97-.09Z"/>
        <path class="cls-9" d="M26.56,118.94v-11.52q2.91-.17,2.91,2.69v8c0,.75-.21,1-.94.91-.66.04-1.32.02-1.97-.08Z"/>
        <path class="cls-9" d="M26.56,95.66v-11.52q2.91-.17,2.91,2.69v8c0,.75-.21,1-.94.91-.66.04-1.32.02-1.97-.08Z"/>
        <path class="cls-9" d="M26.56,142.21l.03-11.55q2.91-.17,2.91,2.69v8c0,.76-.21,1-.94.92-.67.05-1.34.03-2-.06Z"/>
        <path class="cls-9" d="M26.59,72.38v-11.52c.11-.04.22-.07.34-.09q2.6-.15,2.6,2.45v8.15c0,.8-.13,1.19-1,1.07-.66-.08-1.26-.04-1.94-.06Z"/>
        <path class="cls-6" d="M134.82,146.07h-4.55c-.71,0-.85-.22-.85-.87q0-2.14,2.11-2.14h7.54c.79,0,1.13.13,1.11,1q0,2-2,2h-3.36Z"/>
      </g>
    </g>
  </g>
</svg>