<?xml version="1.0" encoding="UTF-8"?>
<svg id="Layer_2" data-name="Layer 2" xmlns="http://www.w3.org/2000/svg" viewBox="0 0 63.16 290.82">
  <defs>
    <style>
      .cls-1 {
        fill: #000000;
      }

      .cls-2, .cls-3 {
        fill: #000000;
      }

      .cls-3 {
        font-family: LexendDeca-Regular, 'Lexend Deca';
        font-size: 42px;
      }

      .cls-3, .cls-4 {
        isolation: isolate;
      }

      .cls-5 {
        fill: #000000;
      }

      .cls-6 {
        fill: #000000;
      }

      .cls-7 {
        fill: #000000;
        stroke: #231f20;
        stroke-miterlimit: 10;
        stroke-width: 2.25px;
      }

      .cls-8 {
        fill: #000000;
      }
    </style>
  </defs>
  <g id="Layer_1-2" data-name="Layer 1">
    <g id="Layer_1-2" data-name="Layer 1-2">
      <path class="cls-2" d="M13.19,198.44l-9.13-15.75h6.82l-.12-87.78h4.57l.12,87.76h6.83l-9.08,15.77h-.01ZM30.88,21.37l14.43-.07-.03-6.83,15.81,9.03-15.72,9.18-.03-6.82-14.43.07-.03-4.57h0ZM41.84,261.16l15.81,9.03-15.72,9.18-.03-6.82-14.43.07-.03-4.57,14.43-.07-.03-6.83h0Z"/>
      <g class="cls-4">
        <text class="cls-3" transform="translate(1.92 87.44)"><tspan x="0" y="0">1</tspan></text>
      </g>
      <g class="cls-4">
        <text class="cls-3" transform="translate(5.57 35.7)"><tspan x="0" y="0">2</tspan></text>
      </g>
      <path class="cls-7" d="M19.83,274.5c-.05.06-.03.19.08.28.32.25.9.45,1.33.8,3.31,2.73,3.48,8.09.81,11.32-3.26,3.96-9.63,3.53-12.95-.13-.46-.51-2.24-2.55-.91-2.94.97-.29,1.59,1.28,2.19,1.93,1.18,1.28,2.91,2.2,4.66,2.35,8.86.79,9.82-11.92,1.59-12.66-.54-.05-2.49.18-2.75-.23-1.18-1.87,2.78-1.32,3.55-1.43,2.13-.29,4.07-2.35,4.28-4.48.65-6.44-6.89-9.01-10.78-4.18-.38.47-1.3,2.38-1.58,2.47-.52.16-1.11-.15-1.11-.72,0-.19.79-1.73.96-2,2.42-3.86,8.21-5.09,11.71-1.91,2.92,2.65,3.26,7.94.27,10.65-.27.24-1.3.82-1.35.88h0Z"/>
    </g>
    <g id="Layer_2-2" data-name="Layer 2">
      <g id="Layer_1-2-2" data-name="Layer 1-2">
        <path class="cls-6" d="M12.8,41.75c-.06.23-.09.46-.11.69q-.06,2.31-2.43,2.31H1.17c-.88,0-1.25-.16-1.15-1.09.06-.63.09-1.27.08-1.91h12.7Z"/>
        <path class="cls-6" d="M38.02,41.75c-.05.23-.09.46-.12.69-.11,2.31-.1,2.31-2.47,2.31h-9.1c-.87,0-1.25-.18-1.12-1.11.04-.64.04-1.27,0-1.91l12.81.02Z"/>
        <path class="cls-6" d="M63.13,41.75c-.06.23-.09.46-.11.69q-.06,2.31-2.43,2.31h-9.09c-.88,0-1.25-.18-1.13-1.11.05-.63.07-1.26.06-1.89h12.7Z"/>
        <path class="cls-5" d="M12.54,251.75c.61,1,.08,2.07.26,3.09H.1v-.25c.5-.33,1.11-.46,1.7-.36h8.6c1.67,0,1.86-.17,1.81-1.59-.02-.33.1-.65.33-.89Z"/>
        <path class="cls-5" d="M37.7,251.75c.61,1,.09,2.07.27,3.09h-12.71v-.25c.5-.33,1.12-.46,1.71-.36h8.59c1.68,0,1.86-.17,1.81-1.59-.02-.33.1-.65.33-.89Z"/>
        <path class="cls-1" d="M50.43,254.8v-.25c.5-.33,1.11-.46,1.7-.36h8.6c1.67,0,1.86-.17,1.81-1.59-.02-.33.09-.64.32-.88.61,1,.08,2.07.26,3.09h-12.69Z"/>
        <path class="cls-6" d="M29.69,144.46v-5.26c0-.8.23-1,1-1q2,0,2,2v9.69c0,.8-.23,1-1,1q-2,0-2-2.07v-4.36Z"/>
        <path class="cls-6" d="M32.68,94.43v5.38c0,.62-.08.89-.82.89q-2.19,0-2.19-2.15v-9.32c0-.84.12-1.2,1.08-1.17,1.93.07,1.93,0,1.93,1.94v4.43Z"/>
        <path class="cls-6" d="M32.68,119.4v5.37c0,.78-.18,1-1,1q-2,0-2-2v-9.57c0-.93.26-1.12,1.13-1.09,1.89.06,1.89,0,1.89,2l-.02,4.29Z"/>
        <path class="cls-6" d="M29.69,169.66v-5.39c0-.71.17-1,.93-1q2.08,0,2.08,2v9.58c0,.8-.15,1.09-1,1.07-2-.05-2,0-2-2v-4.26Z"/>
        <path class="cls-6" d="M32.68,190.48v5.27c0,.77-.22.91-.94.91q-2.08,0-2.08-2v-9.46c0-.79.14-1.11,1-1.09q2,0,2,2l.02,4.37Z"/>
        <path class="cls-8" d="M62.87,251.75q.09,2.85-2.78,2.85h-9.65q-.19-2.87,2.67-2.87l9.76.02Z"/>
        <path class="cls-8" d="M37.7,251.75q.09,2.85-2.78,2.85h-9.65q-.18-2.87,2.68-2.87l9.75.02Z"/>
        <path class="cls-8" d="M12.54,251.75q.09,2.85-2.78,2.85H.11q-.19-2.87,2.67-2.87l9.76.02Z"/>
        <path class="cls-6" d="M32.69,71.32v5.38c0,.62-.08.9-.81.9q-2.2,0-2.2-2.15v-9.33c0-.84.12-1.2,1.09-1.17,1.93.07,1.93,0,1.93,1.95v4.42Z"/>
        <path class="cls-6" d="M33.36,214.42v5.38c0,.62-.08.9-.81.9-2.2,0-2.2.05-2.2-2.15v-9.33c0-.83.12-1.2,1.08-1.16,1.94.06,1.94,0,1.94,1.94v4.42Z"/>
        <path class="cls-6" d="M33.14,51.81v5.38c0,.62-.08.89-.81.9q-2.2,0-2.2-2.16v-9.32c0-.84.12-1.2,1.08-1.17,1.93.07,1.94,0,1.94,1.94v4.43Z"/>
        <path class="cls-6" d="M33.14,238.63v5.38c0,.62-.08.9-.81.9-2.2,0-2.2.05-2.2-2.15v-9.33c0-.84.12-1.2,1.08-1.17,1.93.07,1.94,0,1.94,2v4.37Z"/>
      </g>
    </g>
  </g>
</svg>