<?xml version="1.0" encoding="UTF-8"?>
<svg id="Layer_2" data-name="Layer 2" xmlns="http://www.w3.org/2000/svg" viewBox="0 0 198.76 255.35">
  <defs>
    <style>
      .cls-1, .cls-2 {
        fill: #231f20;
      }

      .cls-3 {
        fill: #2a2627;
      }

      .cls-4 {
        fill: #fff;
      }

      .cls-5 {
        fill: #272425;
      }

      .cls-6 {
        fill: #262324;
        stroke: #231f20;
        stroke-miterlimit: 10;
        stroke-width: 2.25px;
      }

      .cls-7 {
        fill: #282425;
      }

      .cls-8 {
        fill: #282526;
      }

      .cls-2 {
        font-family: LexendDeca-Regular, 'Lexend Deca';
        font-size: 42px;
      }
    </style>
  </defs>
  <g id="Layer_1-2" data-name="Layer 1">
    <path class="cls-1" d="M11.39,156h6.83s-9.09,15.77-9.09,15.77L0,156.01h6.82s-.13-110.61-.13-110.61h4.57s.13,110.59.13,110.59ZM106.44,106.43l5.67-3.8,1.23,18.17-16.35-8.01,5.67-3.8-39.91-59.44,3.79-2.54,39.91,59.43ZM187.26,87.74h-6.82s9.08-15.77,9.08-15.77l9.13,15.75h-6.83s.13,110.61.13,110.61h-4.57s-.13-110.59-.13-110.59Z"/>
    <text class="cls-2" transform="translate(0 35.7)"><tspan x="0" y="0">1</tspan></text>
    <text class="cls-2" transform="translate(42.12 38.04)"><tspan x="0" y="0">2</tspan></text>
    <path class="cls-6" d="M193.56,221.13c-.05.06-.03.19.08.28.32.25.9.45,1.33.8,3.31,2.73,3.48,8.09.81,11.32-3.26,3.96-9.63,3.53-12.95-.13-.46-.51-2.24-2.55-.91-2.94.97-.29,1.59,1.28,2.19,1.93,1.18,1.28,2.91,2.2,4.66,2.35,8.86.79,9.82-11.92,1.59-12.66-.54-.05-2.49.18-2.75-.23-1.18-1.87,2.78-1.32,3.55-1.43,2.13-.29,4.07-2.35,4.28-4.48.65-6.44-6.89-9.01-10.78-4.18-.38.47-1.3,2.38-1.58,2.47-.52.16-1.11-.15-1.11-.72,0-.19.79-1.73.96-2,2.42-3.86,8.21-5.09,11.71-1.91,2.92,2.65,3.26,7.94.27,10.65-.27.24-1.3.82-1.35.88Z"/>
    <g id="Layer_1-2" data-name="Layer 1-2">
      <g>
        <path class="cls-4" d="M29.97,254.63h-3.17l-.21.48v.24h3.48c-.04-.24-.08-.48-.1-.72Z"/>
        <path class="cls-7" d="M173.22,49.18v-7.44h-3.76c.12,1.05,0,2.13-.35,3.12h.99v4.32h3.12Z"/>
        <path class="cls-8" d="M30.27,251.99h-.56v-4.2c0-.59-2.57-.3-3.12-.36v7.68h3.43c-.16-1.04-.08-2.12.24-3.12h0Z"/>
        <path class="cls-5" d="M29.96,41.99h-3.37v7.44h3.12v-4.32h.82c-.44-.96-.63-2.05-.57-3.12Z"/>
        <path class="cls-8" d="M26.59,107.75h3.12v11.4c0,.59-2.57.3-3.12.36v-11.76Z"/>
        <path class="cls-8" d="M26.59,131.03h3.12v11.4c0,.59-2.57.3-3.12.36v-11.76Z"/>
        <path class="cls-8" d="M26.59,224.15h3.12v11.4c0,.59-2.57.3-3.12.36v-11.76Z"/>
        <path class="cls-8" d="M26.59,154.31h3.12v11.4c0,.59-2.57.3-3.12.36v-11.76Z"/>
        <path class="cls-8" d="M26.59,177.59h3.12v11.4c0,.59-2.57.3-3.12.36v-11.76Z"/>
        <path class="cls-8" d="M26.59,200.87h3.12v11.4c0,.59-2.57.3-3.12.36v-11.76Z"/>
        <path class="cls-8" d="M26.59,61.19h3.12v11.4c0,.59-2.57.3-3.12.36v-11.76Z"/>
        <path class="cls-8" d="M26.59,84.47h3.12v11.4c0,.59-2.57.3-3.12.36,0,0,0-11.76,0-11.76Z"/>
        <path class="cls-8" d="M170.1,247.18v4.56h-.62c.11,1.06-.02,2.14-.4,3.12h3.78s.36-.33.36-.36v-7.32h-3.12Z"/>
        <rect class="cls-3" x="170.1" y="177.34" width="3.12" height="11.76"/>
        <rect class="cls-3" x="170.1" y="223.9" width="3.12" height="11.76"/>
        <rect class="cls-3" x="170.1" y="200.62" width="3.12" height="11.76"/>
        <rect class="cls-3" x="170.1" y="154.06" width="3.12" height="11.76"/>
        <path class="cls-8" d="M173.22,130.78v11.4c0,.54-3.12.54-3.12,0v-11.4h3.12Z"/>
        <path class="cls-8" d="M173.22,107.5v11.4c0,.54-3.12.54-3.12,0v-11.4h3.12Z"/>
        <path class="cls-8" d="M173.22,84.22v11.4c0,.54-3.12.54-3.12,0v-11.4s3.12,0,3.12,0Z"/>
        <path class="cls-8" d="M173.22,60.94v11.4c0,.54-3.12.54-3.12,0v-11.4h3.12Z"/>
        <path class="cls-5" d="M105.36,151.76l-2.4,1.51-.34-.02c-.38-1.42-6.34-9.13-5.95-9.79.17-.29,2.17-1.58,2.41-1.41l6.29,9.71h-.01Z"/>
        <path class="cls-5" d="M124.52,180.53l6.04,9.49c.05.57-1.91,1.49-2.38,1.82l-6.41-9.7,2.75-1.61h0Z"/>
        <path class="cls-5" d="M73.5,103.39c.58.04,5.53,8.6,6.41,9.67l-2.39,1.59-6.41-9.46c-.04-.36,2.24-1.81,2.39-1.8Z"/>
        <path class="cls-5" d="M48.41,64.78l6.06,9.48c.03.3-1.94,1.7-2.26,1.76-.57.1-5.65-8.61-6.55-9.63,0,0,2.75-1.61,2.75-1.61Z"/>
        <path class="cls-5" d="M60.69,84.19c.7-.06,5.56,8.49,6.63,9.45-.71.36-2.15,2.03-2.87,1.38l-5.95-9.02c-.26-.49,1.98-1.8,2.19-1.82h0Z"/>
        <path class="cls-5" d="M35.76,45.64c.39,1.39,6.1,8.86,6.07,9.41-.01.17-2.5,2.21-2.81,1.36l-5.95-9.22,2.01-1.5.69-.04h0Z"/>
        <path class="cls-5" d="M111.88,161.39c.41,1.37,6.11,8.86,6.06,9.41-.02.21-2.21,1.91-2.68,1.58l-6.08-9.45,2.01-1.5.69-.04Z"/>
        <path class="cls-5" d="M92.49,132.55c-.72.06-1.85,1.56-2.47,1.19l-6.32-9.36c.45-.38,2.24-1.89,2.74-1.51l6.04,9.67h.01Z"/>
      </g>
      <path class="cls-5" d="M143.44,210.85l-2.4,1.51-.34-.02c-.38-1.42-6.34-9.13-5.95-9.79.17-.29,2.17-1.58,2.41-1.41l6.29,9.71h-.01Z"/>
      <path class="cls-5" d="M162.6,239.63l6.04,9.49c.05.57-1.91,1.49-2.38,1.82l-6.41-9.7,2.75-1.61h0Z"/>
      <path class="cls-5" d="M149.95,220.49c.41,1.37,6.11,8.86,6.06,9.41-.02.21-2.21,1.91-2.68,1.58l-6.08-9.45,2.01-1.5.69-.04h0Z"/>
    </g>
  </g>
</svg>