<?xml version="1.0" encoding="UTF-8"?>
<svg id="Layer_2" data-name="Layer 2" xmlns="http://www.w3.org/2000/svg" viewBox="0 0 233.76 258.32">
  <defs>
    <style>
      .cls-1 {
        fill: #000000;
      }

      .cls-2 {
        fill: #000000;
      }

      .cls-3, .cls-4 {
        fill: #000000;
      }

      .cls-5 {
        fill: #000000;
      }

      .cls-6 {
        fill: #000000;
      }

      .cls-7 {
        fill: #000000;
      }

      .cls-8 {
        fill: #000000;
      }

      .cls-9 {
        fill: #000000;
      }

      .cls-10 {
        fill: #000000;
      }

      .cls-11 {
        fill: #000000;
      }

      .cls-12 {
        fill: #000000;
      }

      .cls-4 {
        font-family: LexendDeca-Regular, 'Lexend Deca';
        font-size: 42px;
      }
    </style>
  </defs>
  <g id="Layer_1-2" data-name="Layer 1">
    <path class="cls-3" d="M11.13,151.49l6.65-1.48-5.46,17.37-12.31-13.42,6.63-1.47c-4.39-29.92,4.71-61.52,25.25-87.12,13.96-17.4,31.47-29.05,44.6-29.67l.21,4.56c-11.88.57-28.07,11.54-41.25,27.97-9.39,11.71-30.13,42.91-24.32,83.27Z"/>
    <text class="cls-4" transform="translate(80.67 35.7)"><tspan x="0" y="0">1</tspan></text>
    <g id="Layer_1-2" data-name="Layer 1-2">
      <g>
        <path class="cls-6" d="M132,39.2c.66.1,1.3.18,1.92.24.48-.18.97-.18,1.44,0,.35-.19.83-.2,1.2,0,.74.03,4.19.1,4.57.35.45.29-.27,2.36-.01,3.01-1.83-.05-3.82-.41-5.63-.49-1.38-.06-4.99.3-5.98-.02-.74-.24-.27-2.4-.39-3.09h2.88Z"/>
        <path class="cls-6" d="M24.96,148.88v-3.12c.1-.73.18-1.45.24-2.16-.18-.48-.18-.97,0-1.44-.19-.35-.2-.83,0-1.2.05-1.45.12-2.88.24-4.32.65.21,2.96.07,3.09.62l-.49,11.23c-.24.74-2.4.27-3.09.39h0Z"/>
        <path class="cls-7" d="M129.6,258.32h-2.88c-.21-.07-.21-.15,0-.24.62-.41,1.34-.59,2.16-.55-.2-1.12-.04-1.9.48-2.33.51.17.12,2.5.24,3.12h0Z"/>
        <path class="cls-5" d="M24.96,145.76v-2.16c.07-.21.15-.21.24,0,0,.68.19,1.69-.24,2.16Z"/>
        <path class="cls-8" d="M133.92,39.2c.21.07.21.15,0,.24-.6,0-1.52.19-1.92-.24h1.92Z"/>
        <path class="cls-12" d="M126.72,258.08v.24h-1.92v-.24c.63-.46,1.29-.46,1.92,0Z"/>
        <path class="cls-10" d="M25.2,143.6h-.24v-1.44c.07-.21.15-.21.24,0v1.44Z"/>
        <path class="cls-11" d="M135.36,39.2c.21.07.21.15,0,.24h-1.44v-.24h1.44Z"/>
        <path class="cls-1" d="M25.2,142.16h-.24v-1.2h.24c-.01.4,0,.8,0,1.2Z"/>
        <path class="cls-1" d="M136.56,39.2v.24c-.4-.02-.8,0-1.2,0v-.24h1.2Z"/>
        <path class="cls-6" d="M224.38,195.46c.37.51-4.33,9.97-5.38,10.99l-2.52-1.42,5.16-10.32c.24-.46,2.65.63,2.74.75h0Z"/>
        <path class="cls-6" d="M233.28,160.64l-3.12-.24.48-11.76c1.04-.07,2.15.21,3.12-.24l-.48,12.24Z"/>
        <path class="cls-6" d="M216.25,92.23l-5.97-9.53c-.3-.46,1.85-1.92,2.05-1.95.42-.07,1.71,1.96,2.05,2.44,1.71,2.4,3.15,4.99,4.7,7.5-.02.33-2.55,1.74-2.82,1.55h0Z"/>
        <path class="cls-6" d="M73.67,58.62l-9.25,6.73c-.34.08-1.55-1.76-2-2.06l9.34-7.2c.68-.42,2.06,2.31,1.91,2.53Z"/>
        <path class="cls-6" d="M73.82,239.12l10.08,5.75c.18.28-.87,2.4-1.09,2.54-.33.21-3.42-1.46-4.01-1.78-2.21-1.18-4.29-2.63-6.46-3.88-.31-.47,1.15-2.18,1.48-2.64h0Z"/>
        <path class="cls-6" d="M36.94,102.78c-.35.26-2.4-.81-2.86-1.07l5.4-10.91c.42.55,2.55,1.14,2.49,1.75l-5.03,10.23Z"/>
        <polygon class="cls-6" points="231.6 124.64 233.28 136.64 230.16 136.88 228.48 125.12 231.6 124.64"/>
        <path class="cls-6" d="M194.28,231.92l2.04,2.28c-.99,1-9.31,7.53-9.84,7.21-.24-.57-1.66-2.03-1.33-2.54l9.14-6.96h0Z"/>
        <path class="cls-6" d="M41.7,205.31c.28-.04.48-.06.66.2l6.11,9.49-2.27,1.79-6.57-9.99c-.04-.41,1.67-1.42,2.07-1.48h0Z"/>
        <polygon class="cls-6" points="117.36 39.92 117.6 42.8 105.84 44.72 105.36 41.6 117.36 39.92"/>
        <path class="cls-6" d="M152.86,252.82l.49,2.85-11.99,1.93c.27-.72-.55-2.67-.01-3.01l11.52-1.77h-.01Z"/>
        <path class="cls-6" d="M27.15,172.61c-.49-.31-1.41-10.05-1.72-11.37.07-1.07,2.04-.33,2.78-.78l1.8,11.34c.06.76-2.6.98-2.86.81Z"/>
        <polygon class="cls-6" points="93.84 45.2 94.54 48.06 83.76 52.64 82.56 49.76 93.84 45.2"/>
        <path class="cls-6" d="M212.63,216.33l-7.44,9.59c-.4.27-1.87-1.65-2.29-1.92l7.12-9.1,2.61,1.43h0Z"/>
        <path class="cls-6" d="M32.88,113.84l-2.75,11.28c-.33.51-2.35-.28-3-.26l2.75-11.51c.52-.66,2.21.61,3,.49Z"/>
        <path class="cls-6" d="M94.91,249.47l10.93,3.21c.27.18.04,3.05-.97,2.91-1.32-.19-3.25-.81-4.61-1.17-1-.27-5.68-1.57-6.19-1.97-.54-.42.67-2.95.83-2.97h.01Z"/>
        <polygon class="cls-6" points="231.6 172.4 228.7 184.14 225.84 183.43 228.6 172.15 228.86 171.95 231.6 172.4"/>
        <path class="cls-6" d="M185.01,58.13c-.5.3-8.76-5.36-10.28-5.51-.26-.37.92-2.29,1.18-2.76l10.34,5.77c.35.27.12.27,0,.49-.13.25-1.14,1.95-1.25,2.01h.01Z"/>
        <path class="cls-6" d="M55.92,73.28l-7.45,9.01c-.43.24-2.16-1.09-2.29-1.33-.27-.5,1.35-2.35,1.72-2.86,1.77-2.36,3.85-4.48,5.74-6.74.25,0,1.62,2.02,2.28,1.92Z"/>
        <path class="cls-6" d="M174.96,244.88l1.18,2.52c-.05.61-9.86,4.52-11.25,4.92l-.96-2.88,11.04-4.56h0Z"/>
        <path class="cls-6" d="M164.88,44.96l-1.1,2.88-11.12-3.14c-.17-.2.42-3.13.58-3.1l11.65,3.36h0Z"/>
        <path class="cls-6" d="M36.96,194.72c-.75.02-2.47,1.41-3,.72l-3.96-11.04c.76-.03,2.43-1.19,3-.49l3.96,10.8h0Z"/>
        <path class="cls-6" d="M228.47,113.11l-2.87.73-3.84-11.28c.84.19,2.19-1.35,2.76-.73.66,1.28,4.41,10.76,3.96,11.28h-.01Z"/>
        <path class="cls-9" d="M55.82,224.01l8.4,7.91c.18.34-1.35,2.74-2.18,2.17-.44-.3-1.54-1.36-2.04-1.81-2.18-1.97-4.26-4.07-6.23-6.24l2.05-2.03Z"/>
        <path class="cls-2" d="M196.2,62.96l8.41,8.16c.24.46-1.79,2.73-2.43,1.93l-7.92-7.7c-.18-.41,1.59-2.05,1.94-2.4h0Z"/>
        <path class="cls-6" d="M129.36,255.2v2.88c-.88,0-1.76,0-2.64,0h-1.92c-2.48-.04-4.97-.15-7.43-.49l.23-3.11s11.76.72,11.76.72Z"/>
      </g>
    </g>
  </g>
</svg>