<?xml version="1.0" encoding="UTF-8"?>
<svg id="Layer_2" data-name="Layer 2" xmlns="http://www.w3.org/2000/svg" viewBox="0 0 145.59 258.17">
  <defs>
    <style>
      .cls-1, .cls-2 {
        fill: #000000;
      }

      .cls-3 {
        fill: #000000;
      }

      .cls-4 {
        fill: #fff;
      }

      .cls-5 {
        fill: #000000;
      }

      .cls-6 {
        fill: #000000;
      }

      .cls-7 {
        fill: #000000;
        stroke: #231f20;
        stroke-miterlimit: 10;
        stroke-width: 2.25px;
      }

      .cls-8 {
        fill: #000000;
      }

      .cls-2 {
        font-family: LexendDeca-Regular, 'Lexend Deca';
        font-size: 42px;
      }
    </style>
  </defs>
  <g id="Layer_1-2" data-name="Layer 1">
    <path class="cls-1" d="M13.43,164.75h6.83s-9.09,15.77-9.09,15.77l-9.12-15.75h6.82s-.13-110.61-.13-110.61h4.57s.13,110.59.13,110.59ZM55.98,27.97l-.73-4.5c1.99-.32,47.92-7.45,74.1,13.76l5.21-4.51,3.42,17.89-17.2-5.98,5.06-4.38c-24.78-19.32-69.41-12.36-69.87-12.29ZM136.63,221.34l5.04-4.61,3.92,17.78-17.36-5.49,5.03-4.6-31.44-34.37,3.37-3.08,31.43,34.37Z"/>
    <text class="cls-2" transform="translate(0 48.38)"><tspan x="0" y="0">1</tspan></text>
    <text class="cls-2" transform="translate(28.43 35.7)"><tspan x="0" y="0">2</tspan></text>
    <path class="cls-7" d="M100.64,168.34c-.05.06-.03.19.08.28.32.25.9.45,1.33.8,3.31,2.73,3.48,8.09.81,11.32-3.26,3.96-9.63,3.53-12.95-.13-.46-.51-2.24-2.55-.91-2.94.97-.29,1.59,1.28,2.19,1.93,1.18,1.28,2.91,2.2,4.66,2.35,8.86.79,9.82-11.92,1.59-12.66-.54-.05-2.49.18-2.75-.23-1.18-1.87,2.78-1.32,3.55-1.43,2.13-.29,4.07-2.35,4.28-4.48.65-6.44-6.89-9.01-10.78-4.18-.38.47-1.3,2.38-1.58,2.47-.52.16-1.11-.15-1.11-.72,0-.19.79-1.73.96-2,2.42-3.86,8.21-5.09,11.71-1.91,2.92,2.65,3.26,7.94.27,10.65-.27.24-1.3.82-1.35.88Z"/>
    <g id="Layer_1-2" data-name="Layer 1-2">
      <g>
        <path class="cls-4" d="M32.27,256.21c-1.13,0-2.27-.03-3.41-.08l-.21.52v.48h3.89c0-.13,0-.26.02-.4-.1-.17-.2-.35-.29-.53h0Z"/>
        <path class="cls-5" d="M36.33,43.54c-.06.55.23,3.12-.36,3.12h-4.2v4.2c0,.59-2.57.3-3.12.36v-7.68h7.68Z"/>
        <path class="cls-8" d="M31.77,252.02v-2.69c0-.59-2.57-.3-3.12-.36v7.68c.94-.17,2.44-.04,3.89.05-.83-1.38-1.08-3.1-.77-4.69h0Z"/>
        <path class="cls-8" d="M59.85,43.54c-.1.67.25,2.69-.22,3.02-.75.52-9.74-.15-11.38.07-.74-.24-.27-2.4-.39-3.09h12-.01Z"/>
        <path class="cls-8" d="M80.04,44.85c-.13.69.35,2.84-.39,3.09-1.64-.22-10.64.45-11.38-.07-.47-.33-.12-2.35-.22-3.02h12,0Z"/>
        <path class="cls-8" d="M28.65,132.58h3.12v11.4c0,.59-2.57.3-3.12.36v-11.76Z"/>
        <path class="cls-8" d="M28.65,109.3h3.12v11.4c0,.59-2.57.3-3.12.36v-11.76Z"/>
        <path class="cls-8" d="M28.65,155.86h3.12v11.4c0,.59-2.57.3-3.12.36v-11.76Z"/>
        <path class="cls-8" d="M28.65,179.13h3.12v11.4c0,.59-2.57.3-3.12.36v-11.76Z"/>
        <path class="cls-8" d="M28.65,202.41h3.12v11.4c0,.59-2.57.3-3.12.36v-11.76Z"/>
        <path class="cls-8" d="M28.65,86.02h3.12v11.4c0,.59-2.57.3-3.12.36,0,0,0-11.76,0-11.76Z"/>
        <path class="cls-8" d="M28.65,225.69h3.12v11.4c0,.59-2.57.3-3.12.36v-11.76Z"/>
        <path class="cls-8" d="M28.65,62.74h3.12v11.4c0,.59-2.57.3-3.12.36v-11.76Z"/>
        <path class="cls-5" d="M93.8,47.06c.51.27,1.11.34,1.67.2.39.07.8.07,1.19.15.05,0,.17.23.35.27,1.78.36,3.56.67,5.28,1.26l-.74,2.94c-1.74-.46-3.63-1.06-5.39-1.39-1.35-.25-4.74-.29-5.68-.73-.71-.33.03-2.42,0-3.11,0,0,3.33.41,3.33.41Z"/>
        <path class="cls-6" d="M95.47,47.27c-.35.36-1.41.23-1.67-.2l1.67.2Z"/>
        <path class="cls-5" d="M80.09,142.97l.29.47c.53-.17,1.11-.28,1.75-.3.57-.02,1.09.03,1.57.14-.09-.14-.16-.26-.21-.34l2.63-.21-.11-3.12c-.15-.14-3.55.23-4.22.17-.45-.04-.35-.4-.41-.43-.27-.12-.96.42-1.49.48-1.02.13-5.2-.04-5.66.3-.32.24-.49,2.86.48,3,1.01.15,4.89-.42,5.36-.15h.02Z"/>
        <path class="cls-3" d="M64.63,140.38l.11,3.12-11.63.41c-.54.02-.65-3.1-.11-3.12l11.63-.41Z"/>
        <path class="cls-5" d="M34.67,143.14c-.34-.12-2.03.74-3.63,1.55.97.52,1.73,1.33,2.26,2.29.21-.09.38-.15.5-.18l3.27,3.55c.15.07,2.3-1.83,2.15-2.3-.29-.9-3.87-3.83-4.55-4.92h0Z"/>
        <path class="cls-5" d="M44.16,158.15c.72-.19,1.78-2.11,2.42-1.82l7.81,8.69c-.57.45-1.59,1.94-2.24,1.64l-7.99-8.51Z"/>
        <path class="cls-5" d="M77,188.34l8.24,8.51c.02.14-1.79,1.86-1.99,1.96-.61.3-7.26-7.64-8.35-8.44l2.11-2.02h0Z"/>
        <path class="cls-5" d="M98.21,211.51c-.71.12-1.68,1.89-2.32,1.67-.89-1.05-8.02-8.12-7.81-8.69.13-.35,1.78-1.56,2.15-1.97l7.99,8.99h-.01Z"/>
        <path class="cls-5" d="M60.45,175.34c.58-.26,1.75-1.88,2.31-1.68.89,1.05,8.02,8.12,7.81,8.69-.06.16-1.85,1.85-2.23,1.63l-7.89-8.64h0Z"/>
        <path class="cls-5" d="M117.46,133.46l-1.46-2.47,8.66-7.51c.38.39,2.28,1.87,2.05,2.38-.19.41-4.17,3.84-4.87,4.42-.53.44-4.06,3.35-4.38,3.18Z"/>
        <path class="cls-5" d="M108.84,136.08l-11.15,5.04-.94-2.99c3.66-1.04,7.06-2.79,10.38-4.59.47.01,1.19,2.13,1.71,2.53h0Z"/>
        <path class="cls-5" d="M108.84,136.08l-11.15,5.04-.94-2.99c3.66-1.04,7.06-2.79,10.38-4.59.47.01,1.19,2.13,1.71,2.53h0Z"/>
        <path class="cls-5" d="M122.17,62.15c-3.12-2.27-6.37-4.42-9.89-6.05.42-.66.82-2.89,1.78-2.59,1.04.33,3.59,1.96,4.67,2.62,1.75,1.07,3.49,2.28,5.09,3.57l-1.65,2.46h0Z"/>
        <path class="cls-5" d="M137.47,106.72c.28.31-2.15,4.73-2.53,5.4-.53.93-2.63,4.53-3.28,4.98s-1.75-1.38-2.59-1.23l5.64-9.89c.74-.54,1.92.72,2.75.74h0Z"/>
        <path class="cls-5" d="M141.24,85.92c.65.39-.28,9.81-.51,11.19-.05.33-.01,1.07-.44,1.06-.32,0-2.71-.52-2.75-.68.74-3.74.96-7.59.79-11.39l2.91-.18Z"/>
        <path class="cls-5" d="M132.75,67.82c.7-.03,6.71,8.02,7.4,9.25l-2.27,1.75-7.14-8.84c-.16-.48,1.74-2.15,2.01-2.16Z"/>
      </g>
      <path class="cls-5" d="M45.19,144.14l-12.2.92.14-3.13c3.79.28,7.59-.2,11.32-.76.44.17.39,2.41.74,2.96h0Z"/>
      <path class="cls-5" d="M105.96,220.35l7.93,8.79c.02.14-1.85,1.79-2.06,1.89-.62.28-6.99-7.89-8.05-8.73l2.18-1.95Z"/>
      <path class="cls-5" d="M128.76,244.69c-.72.09-1.74,1.83-2.38,1.58-.85-1.08-7.73-8.4-7.51-8.95.14-.35,1.83-1.5,2.21-1.89l7.67,9.26h.01Z"/>
      <path class="cls-5" d="M132.92,247.49l7.93,8.79c.02.14-1.85,1.79-2.06,1.89-.62.28-6.99-7.89-8.05-8.73l2.18-1.95Z"/>
    </g>
  </g>
</svg>