<?xml version="1.0" encoding="UTF-8"?>
<svg id="Layer_2" data-name="Layer 2" xmlns="http://www.w3.org/2000/svg" viewBox="0 0 147.09 243.15">
  <defs>
    <style>
      .cls-1 {
        fill: #000000;
      }

      .cls-2, .cls-3 {
        fill: #000000;
      }

      .cls-4 {
        fill: #000000;
      }

      .cls-5 {
        fill: #000000;
      }

      .cls-3 {
        font-family: LexendDeca-Regular, 'Lexend Deca';
        font-size: 42px;
      }
    </style>
  </defs>
  <g id="Layer_1-2" data-name="Layer 1">
    <path class="cls-2" d="M16.65,38.78L0,46.14l1.94-18.1,5.5,4.01C22.15,15.51,43.73,6.11,68.64,5.66c23.57-.53,47.12,7.35,57.44,18.9l-3.41,3.04c-8.02-8.98-29.12-17.89-53.95-17.38-23.45.42-43.74,9.16-57.58,24.53l5.51,4.02Z"/>
    <text class="cls-3" transform="translate(126.09 35.7)"><tspan x="0" y="0">1</tspan></text>
    <g id="Layer_1-2" data-name="Layer 1-2">
      <g>
        <path class="cls-4" d="M133.13,159.99c-.95.42-2.09.54-2.85,1.29-1.67-3.51-3.64-6.9-6.13-9.88-.04-.43,1.87-1.65,2.31-2.01l3.36,4.65,3.07,5.27.25.68h-.01Z"/>
        <path class="cls-4" d="M11.59,201.27c-1.09-.35-1.95-1-2.57-1.82l-1.75,1.98v.48c1.47,1.12,2.67,4.27,3.95,5.3.57.46,2.55-1.21,2.54-1.57,0-.53-2.7-3.44-2.64-3.81l.47-.55h0Z"/>
        <path class="cls-1" d="M82.71,29.48v.24c-.55.47-1.13.47-1.68,0v-.24h1.68Z"/>
        <path class="cls-4" d="M5.26,88.73l4.75,10.9-2.51,1.57-5.01-11.04c-.03-.78,2.17-1.07,2.77-1.43Z"/>
        <path class="cls-4" d="M127.11,44.36c.35-.1.41.12.6.24,1.12.68,8.99,7.21,8.99,7.8l-1.92,1.93-9.01-7.33c-.39-.61,1.29-1.94,1.34-2.64Z"/>
        <path class="cls-4" d="M82.59,132.65c-.28-.2-.08-3.04.44-3.17,3.15.46,6.54.72,9.63,1.47,2.75.66,2.33.66,1.38,3.39l-11.45-1.68h0Z"/>
        <path class="cls-4" d="M115.57,40.76l-11.23-4.43c.47-.64.47-1.98.81-2.53.22-.37.31-.12.54-.06,1.02.25,2.23.73,3.24,1.09,1.53.54,6.61,2.34,7.62,3.19.34.28.15.24.05.51-.27.73-.89,1.43-1.02,2.24h-.01Z"/>
        <path class="cls-4" d="M35.37,123.26l11.14,3.33c.47.43-.35,2.18-.39,2.84-.4.49-10.46-2.76-11.66-3.56-.23-.24.61-2.39.91-2.6h0Z"/>
        <path class="cls-4" d="M16.82,109.3c2.32,3.16,5.4,5.69,8.53,8.01-.52.36-1.29,2.03-1.66,2.23-.48.27-3.37-2.23-3.92-2.71-.77-.67-5.44-5.15-5.31-5.63l2.35-1.9h0Z"/>
        <path class="cls-4" d="M40.28,229.27l10.32,5.03c.34.48-.63,2.21-.85,2.79l-10.95-5.18c-.14-.23,1.2-2.58,1.48-2.64Z"/>
        <path class="cls-4" d="M69.03,29.72c-.13.68.35,2.84-.39,3.09l-11.36,1.47-.48-3.12,12.24-1.45h-.01Z"/>
        <path class="cls-4" d="M25.07,48.89c-.07.12-1.89,1.36-2.25,1.7-2.05,1.92-4.04,4.01-5.87,6.14l-2.4-1.58c-.14-.21,1.38-1.96,1.67-2.28,1.23-1.37,2.95-3.09,4.32-4.32.43-.38,2.33-2.05,2.65-2.17.38-.14,2.17,2.02,1.88,2.5h0Z"/>
        <path class="cls-4" d="M136.79,171.43c.98,4.01,1.97,8.25,1.81,12.33-.56-.2-2.72.38-2.92-.04-.18-3.83-.72-7.8-1.9-11.45l3.02-.84h-.01Z"/>
        <path class="cls-4" d="M6.13,77.47c-.13.09-2.94-.42-2.86-1.05.7-2.3,1.37-4.63,2.28-6.85.43-1.05,1.22-3.08,1.83-3.93.55-.76,2.49.49,2.82,1.13-.77,1.71-1.64,3.39-2.31,5.14-.32.85-1.52,5.4-1.76,5.57h0Z"/>
        <path class="cls-4" d="M117.36,141.21c-.64.29-1.31,2.32-2.02,2.16-.39-.09-3.65-2.41-4.48-2.86-1.09-.58-4.64-1.87-5.25-2.43-.36-.33.36-3.03,1.31-2.79,1.04.27,4.15,1.86,5.23,2.45,1.38.75,3.59,2.03,4.79,2.98.17.14.4.12.43.48h-.01Z"/>
        <path class="cls-4" d="M73.75,240.06c-.1.59-.11,2.97-.62,3.09l-11.82-2.48.68-2.77,11.76,2.16Z"/>
        <path class="cls-4" d="M45.01,34.53c.06.58,1.01,2.44.71,2.85-.33.46-9.2,3.27-10.3,4.49-.66.17-2.03-2.08-1.45-2.66l11.03-4.67h.01Z"/>
        <polygon class="cls-4" points="99.02 236.21 99.75 239.08 87.75 241.96 87.32 239.19 87.5 238.96 99.02 236.21"/>
        <path class="cls-4" d="M82.71,29.72c1.43,0,3.01.1,4.44.24.76.07,5.65.66,5.9.82.39.26.17,3.01-.61,3.02l-11.4-1.21v-2.87h1.68-.01Z"/>
        <path class="cls-4" d="M127.27,219.6l5.55-10.47,2.65,1.1c.4.53-4.73,9.27-5.6,10.4-.79.74-1.77-.97-2.6-1.03Z"/>
        <path class="cls-4" d="M121.34,227.79l-10.2,6.48-1.56-2.76c3.53-1.76,6.85-3.93,9.96-6.35.24.44,2.04,2.27,1.79,2.63h0Z"/>
        <polygon class="cls-4" points="70.41 128.11 70.36 131.17 58.22 131.12 58.53 128.12 70.41 128.11"/>
        <path class="cls-5" d="M28.86,224.94c-.21.15-1.29-.76-1.55-.96-1.1-.85-2.46-2.04-3.49-2.99-.64-.59-3.73-3.51-3.97-3.97-.31-.6,1.25-1.53,1.58-2.05l9.11,7.69c0,.16-1.73,1.75-1.68,2.28h0Z"/>
      </g>
      <path class="cls-4" d="M140.8,191.28c-.09,4.13-.23,8.48-1.44,12.38-.49-.34-2.73-.33-2.81-.8.82-3.75,1.32-7.72,1.12-11.55l3.13-.03Z"/>
    </g>
  </g>
</svg>