<?xml version="1.0" encoding="UTF-8"?>
<svg id="Layer_2" data-name="Layer 2" xmlns="http://www.w3.org/2000/svg" viewBox="0 0 277.6 213.24">
  <defs>
    <style>
      .cls-1, .cls-2 {
        fill: #231f20;
      }

      .cls-3 {
        fill: #2a2627;
      }

      .cls-4 {
        fill: #282726;
      }

      .cls-5 {
        stroke-width: 2.25px;
      }

      .cls-5, .cls-6 {
        fill: #262324;
        stroke: #231f20;
        stroke-miterlimit: 10;
      }

      .cls-6 {
        stroke-width: 2.5px;
      }

      .cls-2 {
        font-family: LexendDeca-Regular, 'Lexend Deca';
        font-size: 42px;
      }
    </style>
  </defs>
  <g id="Layer_1-2" data-name="Layer 1">
    <path class="cls-1" d="M43.18,116.77l6.47-2.17-3.62,17.85-13.65-12.06,6.46-2.17L16.92,52.81l4.33-1.46,21.93,65.42ZM149.21,108.4l-6.65-1.53-13.23,57.29-4.45-1.02,13.23-57.29-6.65-1.53,12.42-13.32,5.32,17.41ZM190.85,114.46l6.56-1.88-18.73-65.12,4.39-1.27,18.72,65.12,6.56-1.88-4.4,17.67-13.11-12.64ZM246.06,162.2l17.19-56.23-6.52-1.99,13.32-12.42,4.1,17.74-6.52-1.99-17.19,56.23-4.37-1.33Z"/>
    <text class="cls-2" transform="translate(0 41.45)"><tspan x="0" y="0">1</tspan></text>
    <text class="cls-2" transform="translate(109.28 201.49)"><tspan x="0" y="0">2</tspan></text>
    <path class="cls-5" d="M179.85,22.97c-.05.06-.03.19.08.28.32.25.9.45,1.33.8,3.31,2.73,3.48,8.09.81,11.32-3.26,3.96-9.63,3.53-12.95-.13-.46-.51-2.24-2.55-.91-2.94.97-.29,1.59,1.28,2.19,1.93,1.18,1.28,2.91,2.2,4.66,2.35,8.86.79,9.82-11.92,1.59-12.66-.54-.05-2.49.18-2.75-.23-1.18-1.87,2.78-1.32,3.55-1.43,2.13-.29,4.07-2.35,4.28-4.48.65-6.44-6.89-9.01-10.78-4.18-.38.47-1.3,2.38-1.58,2.47-.52.16-1.11-.15-1.11-.72,0-.19.79-1.73.96-2,2.42-3.86,8.21-5.09,11.71-1.91,2.92,2.65,3.26,7.94.27,10.65-.27.24-1.3.82-1.35.88Z"/>
    <path class="cls-6" d="M232.65,189.82h11.46v-12.47c0-.94,1.75-.93,1.75-.27v12.74h3.71c.8,0,.71,1.89-.13,1.89h-3.57c.27,4.19.07,8.41.14,12.61-.05,1.1-1.62,1.35-1.76.13-.35-3.09.13-7.03,0-10.25-.03-.79-.26-1.65-.14-2.49h-12.47c-.07,0-1.06-.82-.87-1.13l2.22-13.56c.82-.9,1.76-.25,1.55.87l-1.89,11.93Z"/>
    <g id="Layer_1-2" data-name="Layer 1-2">
      <g>
        <path class="cls-3" d="M273.28,4.96h4.32v.48c-1.14,1.9-1.29,4.91-2.21,6.79-.38.78-2.47-.02-3.05-.45-.15-.6,1.11-2.94,1.17-3.59,0-.1-.45-.09-.49-.26-.12-.57.54-2.15.25-2.97h.01Z"/>
        <path class="cls-3" d="M26.56,4.96l2.16,6.96c-.67-.01-2.43.94-2.89.62-.54-.38-1.64-5.74-2.39-6.62v-.96h3.12Z"/>
        <path class="cls-3" d="M43.6,58.48c-.7-.05-2.59,1.27-3,.73l-3.46-11.36c.14-.5,2.65-1.31,2.97-.88l3.48,11.52h.01Z"/>
        <path class="cls-3" d="M61.72,125.32l-3.59-11.42c-.03-.75,2.64-1.36,2.88-1.2.49.34,2.92,10.02,3.55,11.36-.02.94-2.21.74-2.83,1.27h-.01Z"/>
        <path class="cls-3" d="M257.45,58.47l3.59-11.75c.62.18,2.68.51,2.85,1.12.28,1.01-3.3,9.57-3.46,11.36-.23.35-.31.21-.6.14-.69-.17-1.58-.8-2.38-.87h0Z"/>
        <path class="cls-3" d="M235.13,128.55l3.59-11.75c.62.18,2.68.51,2.85,1.12.28,1.01-3.3,9.57-3.46,11.36-.23.35-.31.21-.6.14-.69-.17-1.58-.8-2.38-.87h0Z"/>
        <path class="cls-3" d="M214.75,192.16l3.59-11.75c.62.18,2.68.51,2.85,1.12.28,1.01-3.3,9.57-3.46,11.36-.23.35-.31.21-.6.14-.69-.17-1.58-.8-2.38-.87h0Z"/>
        <path class="cls-3" d="M36.16,35.2l-2.87.71-3.61-11.74c.72-.07,2.53-1.09,3-.49,0,0,3.48,11.52,3.48,11.52Z"/>
        <path class="cls-3" d="M184.73,122.12c-.84-.04-2.45,1.07-3.07.3l-2.88-11.29c.76.02,2.57-1.03,3.06-.32l2.89,11.32h0Z"/>
        <path class="cls-3" d="M57.16,101.08l-2.88.72-3.61-11.76c.66,0,2.62-.98,3-.49l3.48,11.52h.01Z"/>
        <path class="cls-3" d="M84.04,195.4l-3.57-11.45c-.03-.73,2.63-1.33,2.85-1.17.49.34,2.92,10.02,3.55,11.36-.02.94-2.21.74-2.83,1.27h0Z"/>
        <path class="cls-3" d="M271.36,24.17l-3.48,11.52c-.62.76-2.19-.57-3-.48l3.48-11.52c.37-.5,2.34.48,3,.49h0Z"/>
        <polygon class="cls-3" points="193.96 156.38 196.97 167.82 194.05 168.69 190.92 157.29 193.96 156.38"/>
        <path class="cls-3" d="M226.72,164.32c-.67,1.37-3.12,11.39-3.62,11.75-.11.08-2.44-.47-2.63-.59-.59-.39,2.99-10.31,3.25-11.65.37-.5,2.34.48,3,.49h0Z"/>
        <path class="cls-3" d="M49.72,77.8l-2.88.72c-.06-1.52-3.94-11.24-3.58-11.74.11-.15,2.67-1.17,2.99-.51l3.47,11.52h0Z"/>
        <path class="cls-3" d="M249.04,94.25c-.68,1.37-3.11,11.39-3.61,11.76-.11.08-2.51-.51-2.64-.6-.59-.4,2.99-10.3,3.25-11.64.37-.5,2.34.48,3,.49h0Z"/>
        <path class="cls-3" d="M256.48,70.97l-3.48,11.52c-.26.37-2.44-.14-2.77-.36-.59-.4,3.04-10.29,3.25-11.65.38-.5,2.34.48,3,.49Z"/>
        <path class="cls-3" d="M234.16,141.04l-3.48,11.52c-.26.37-2.44-.14-2.77-.36-.59-.4,3.04-10.29,3.25-11.65.38-.5,2.34.48,3,.49h0Z"/>
        <path class="cls-3" d="M68.41,136.15c.5.32,2.94,10.07,3.62,11.39.06.53-.06.26-.33.37-.68.27-1.5.43-2.2.69l-3.96-11.6c.05-.28,2.46-1.1,2.87-.84h0Z"/>
        <path class="cls-3" d="M185,134.05c.71.03,2.42-.95,2.82-.36l2.86,10.83c.21.87-2.38,1.25-2.8,1.04-.53-.27-2.65-10.12-2.88-11.51Z"/>
        <path class="cls-3" d="M79.48,171.16l-2.88.72-3.6-11.76c.7.1,2.58-1.04,3-.49l3.48,11.52h0Z"/>
        <path class="cls-3" d="M117.57,110.15c.79-.23,2.69.7,2.43,1.79l-2.44,9.46c-.49.84-3.16.93-2.95-1.09.17-1.65,1.75-7.65,2.37-9.29.12-.31.21-.76.59-.87Z"/>
        <path class="cls-3" d="M103,166.98c-.38-.47,2.26-9.13,2.5-10.43.73-1.38,3.03-.91,2.9,1.03-.07,1.11-1.72,7.75-2.18,8.76-.56,1.23-2.79,1.17-3.23.64h.01Z"/>
        <path class="cls-3" d="M202.91,191.08c-.66-.14-2.5.85-2.83.34l-2.91-11.01c.02-.54,2.61-1.32,2.88-.9l2.86,11.56h0Z"/>
        <path class="cls-4" d="M102.23,178.81c.37.39.29,1.43.24,1.96-.11,1.11-1.66,7.53-2.09,8.34-.22.41-.57.81-1.05.88-.57.08-2.51-.19-2.2-1.06l2.58-9.57c.29-.95,1.93-1.19,2.54-.55h-.02Z"/>
        <path class="cls-3" d="M111.5,144.81c-.41.28-2.35-.42-2.55-1.16-.45-1.64,2.06-7.89,2.33-9.94.73-1.23,3.07-.65,2.83.95-.47,1.21-2.18,9.86-2.61,10.15h0Z"/>
      </g>
      <path class="cls-3" d="M126.2,91.4c.31.34.32,1.03.26,1.47l-2.24,8.94c-.34,1.09-2.91.87-3.16.09-.39-1.24,2.65-9.1,2.58-11.07.68-.09,2.09.06,2.56.57Z"/>
      <path class="cls-3" d="M147.22.04c.79-.23,2.69.7,2.43,1.79l-2.44,9.46c-.49.84-3.16.93-2.95-1.09.17-1.65,1.75-7.65,2.37-9.29.12-.31.21-.76.59-.87Z"/>
      <path class="cls-3" d="M132.65,56.86c-.38-.47,2.26-9.13,2.5-10.43.73-1.38,3.03-.91,2.9,1.03-.07,1.11-1.72,7.75-2.18,8.76-.56,1.23-2.79,1.17-3.23.64h.01Z"/>
      <path class="cls-4" d="M131.88,68.69c.37.39.29,1.43.24,1.96-.11,1.11-1.66,7.53-2.09,8.34-.22.41-.57.81-1.05.88-.57.08-2.51-.19-2.2-1.06l2.58-9.57c.29-.95,1.93-1.19,2.54-.55h-.02Z"/>
      <path class="cls-3" d="M141.15,34.69c-.41.28-2.35-.42-2.55-1.16-.45-1.64,2.06-7.89,2.33-9.94.73-1.23,3.07-.65,2.83.95-.47,1.21-2.18,9.86-2.61,10.15Z"/>
      <path class="cls-3" d="M153.99,11.66c-.84-.04-2.45,1.07-3.07.3l-2.88-11.29c.76.02,2.57-1.03,3.06-.32l2.89,11.32h0Z"/>
      <polygon class="cls-3" points="163.23 45.92 166.23 57.36 163.31 58.23 160.19 46.83 163.23 45.92"/>
      <path class="cls-3" d="M154.27,23.59c.71.03,2.42-.95,2.82-.36l2.86,10.83c.21.87-2.38,1.25-2.8,1.04-.53-.27-2.65-10.12-2.88-11.51Z"/>
      <path class="cls-3" d="M178.43,103.31l-3.02.79-2.98-11.56c.76.14,2.7-.88,3.07-.31,0,0,2.93,11.08,2.93,11.08Z"/>
      <path class="cls-3" d="M172.17,80.62c-.66-.14-2.5.85-2.83.34l-2.91-11.01c.02-.54,2.61-1.32,2.88-.9l2.86,11.56h0Z"/>
      <path class="cls-3" d="M94.46,212.3c-.41.28-2.35-.42-2.55-1.16-.45-1.64,2.06-7.89,2.33-9.94.73-1.23,3.07-.65,2.83.95-.47,1.21-2.18,9.86-2.61,10.15h0Z"/>
      <path class="cls-3" d="M207.12,212.29l3.59-11.75c.62.18,2.68.51,2.85,1.12.28,1.01-3.3,9.57-3.46,11.36-.23.35-.31.21-.6.14-.69-.17-1.58-.8-2.38-.87h0Z"/>
      <path class="cls-3" d="M209.99,211.28c-.66-.14-2.5.85-2.83.34l-2.91-11.01c.02-.54,2.61-1.32,2.88-.9l2.86,11.56h0Z"/>
      <path class="cls-3" d="M93.36,211.16l-2.88.72-3.61-11.76c.66,0,2.62-.98,3-.49l3.48,11.52h0Z"/>
    </g>
  </g>
</svg>