<?xml version="1.0" encoding="UTF-8"?>
<svg id="Layer_2" data-name="Layer 2" xmlns="http://www.w3.org/2000/svg" viewBox="0 0 201 215.11">
  <defs>
    <style>
      .cls-1, .cls-2 {
        fill: #000000;
      }

      .cls-3 {
        fill: #000000;
      }

      .cls-2 {
        font-family: LexendDeca-Regular, 'Lexend Deca';
        font-size: 42px;
      }
    </style>
  </defs>
  <g id="Layer_1-2" data-name="Layer 1">
    <polygon class="cls-1" points="171.05 38.8 140 85.65 134.31 81.89 133.2 100.06 149.49 91.95 143.81 88.18 174.85 41.32 171.05 38.8"/>
    <text class="cls-2" transform="translate(0 42.12)"><tspan x="0" y="0">1</tspan></text>
    <path class="cls-1" d="M110.42,160.96l-24.6-33.86c-.96,1.31-1.85,2.66-2.71,4.04l23.62,32.51-5.52,4.01,16.63,7.4-1.9-18.11-5.52,4.01Z"/>
    <path class="cls-1" d="M86.53,133.35c.63-.95,1.36-1.82,2.17-2.61l-22.92-31.55c-.96,1.31-1.85,2.66-2.71,4.04l22.11,30.44c.44-.14.89-.26,1.36-.32Z"/>
    <path class="cls-1" d="M70.4,105.67l-23.83-32.81c-.96,1.31-1.85,2.66-2.71,4.04l23.06,31.74c1.17-.97,2.33-1.98,3.49-2.98Z"/>
    <path class="cls-1" d="M53.4,82.82l-21.52-29.63c-1.17-1.62-3.61-1.55-4.69.14,0,.01-.02.03-.03.04-.23.36-.21.82.04,1.16l22.3,30.7c1.3-.8,2.6-1.61,3.89-2.41Z"/>
    <text class="cls-2" transform="translate(177.99 35.7)"><tspan x="0" y="0">2</tspan></text>
    <g id="Layer_1-2" data-name="Layer 1-2">
      <g>
        <path class="cls-3" d="M87.85,121.57c-.62,1.13-1.59,2.09-2.69,2.7l-2.3,3.37,2.5,1.78,3.96-5.87c0-.14-.67-1.01-1.47-1.99h0Z"/>
        <path class="cls-3" d="M96.99,109.86l-2.41,3.11-.43-.47c-.08,1.18-.53,2.34-1.22,3.32.56.7,1.13,1.4,1.74,2.05.19.2.16.22.5.15.3-1.23,4.26-5.76,4.06-6.55-.08-.31-2.05-1.64-2.24-1.6h0Z"/>
        <path class="cls-3" d="M159.39,199.56l-6.5-9.47,2.52-1.79,6.57,9.51c.04.44-2.37,1.91-2.6,1.75h0Z"/>
        <path class="cls-3" d="M78.39,83.18c-.07.12-2.19,1.46-2.37,1.37-.69-1.18-6.89-8.99-6.61-9.5.11-.2,2.13-1.65,2.3-1.57l6.59,9.02c.12.2.21.47.09.68Z"/>
        <path class="cls-3" d="M44.04,35.73c.37-.08.58.02.79.32l6.47,8.88-2.32,1.78-7.03-9.46c.01-.13,1.94-1.49,2.09-1.52Z"/>
        <path class="cls-3" d="M142.32,169.09l6.46,9.51-2.29,1.75-6.76-9.46c0-.28,2.37-1.95,2.59-1.8h0Z"/>
        <path class="cls-3" d="M64.71,64.22c-.07.12-2.13,1.5-2.37,1.37l-6.61-9.5,2.29-1.57,6.5,8.87c.15.22.34.56.19.83Z"/>
        <path class="cls-3" d="M122.15,140.5c-.74.13-1.86,1.69-2.51,1.25l-6.24-8.91c-.16-.25-.17-.45-.01-.71.11-.17,2.03-1.48,2.3-1.34l6.46,9.71Z"/>
        <path class="cls-3" d="M85.26,92.36l6.82,9.25c.07.38-1.79,1.82-2.13,1.91-.57.15-6.03-8.21-6.94-9.19-.09-.54,1.85-1.51,2.25-1.97Z"/>
        <path class="cls-3" d="M28.26,18.18l2.63-1.69,6.72,9.48c-.45.33-2.17,2-2.64,1.69l-6.72-9.49h0Z"/>
        <path class="cls-3" d="M108.51,125.23l-6.46-9.28c-.1-.66,1.87-1.49,2.25-1.99l6.8,9.48c0,.28-2.36,1.95-2.59,1.79Z"/>
        <path class="cls-3" d="M126.5,151.35c.84-.05,1.85-1.69,2.51-1.24l6.24,8.91c.16.25.17.45.01.71-.11.17-2.03,1.48-2.3,1.34l-6.46-9.72Z"/>
        <path class="cls-3" d="M109.57,91.14c.18-.13,2.67,1.42,2.54,1.93-.89.99-5.91,9.17-6.47,9.09-.2-.03-2.28-1.57-2.28-1.78l6.2-9.24h.01Z"/>
        <path class="cls-3" d="M150.61,36.66l-6.24,9.59-2.53-1.67,6.13-9.26c.52-.33,1.9,1.32,2.64,1.34Z"/>
        <path class="cls-3" d="M161.05,16.54c.38.39,2.32,1.42,2.19,1.89l-6.47,9.09-2.31-1.78s6.59-9.2,6.59-9.2Z"/>
        <path class="cls-3" d="M135.4,53.95c.15-.03,2.56,1.32,2.16,1.91l-6.27,9.11c-.34-.62-2.35-1.37-2.25-1.99.86-1,5.82-8.93,6.36-9.03Z"/>
        <path class="cls-3" d="M122.65,72.42c.34.62,2.35,1.37,2.25,1.99-.9,1.01-5.87,9.12-6.53,9.01-.16-.03-2.38-1.4-1.99-1.9l6.27-9.11h0Z"/>
        <path class="cls-3" d="M41.78,188.54c.34.62,2.35,1.37,2.25,1.99l-6.09,8.79-2.52-1.78,6.36-9Z"/>
        <path class="cls-3" d="M76.6,136.65l2.61,1.8-5.73,8.41c-.48.99-2.89-.98-2.79-1.34l5.91-8.87h0Z"/>
        <path class="cls-3" d="M51.9,172.67c.41-.24,2.63,1.24,2.58,1.73-.11,1.09-5.23,7.32-6.08,8.76-.46-.34-2.31-1.21-2.26-1.71l5.76-8.77h0Z"/>
        <path class="cls-3" d="M60.96,165.17c-.41.23-2.63-1.4-2.59-1.73l6.3-8.78c.48.51,2.24,1.2,2.04,1.96l-5.76,8.54h.01Z"/>
      </g>
      <path class="cls-3" d="M170.55,215.1l-6.5-9.47,2.52-1.79,6.57,9.51c.04.44-2.37,1.91-2.6,1.75h0Z"/>
      <path class="cls-3" d="M30.31,204.09c.34.62,2.35,1.37,2.25,1.99l-6.09,8.79-2.52-1.78,6.36-9Z"/>
      <path class="cls-3" d="M18.63,4.46l2.63-1.69,6.72,9.48c-.45.33-2.17,2-2.64,1.69l-6.71-9.48Z"/>
      <path class="cls-3" d="M170.8,2.89c.38.39,2.32,1.42,2.19,1.89l-6.47,9.09-2.31-1.78,6.59-9.2Z"/>
    </g>
  </g>
</svg>