<?xml version="1.0" encoding="UTF-8"?>
<svg id="Layer_2" data-name="Layer 2" xmlns="http://www.w3.org/2000/svg" viewBox="0 0 73.27 122.78">
  <defs>
    <style>
      .cls-1 {
        fill: #231f20;
      }
    </style>
  </defs>
  <g id="Layer_1-2" data-name="Layer 1">
    <path class="cls-1" d="M72.94,26.58C66.94,9.77,55.28.59,39.2.03c-10.55-.37-19.42,3.27-26.3,10.32-.39.65-.91,1.23-1.55,1.68-.5.57-.99,1.16-1.46,1.78-.08.17-.13.34-.22.5-1.01,1.79-2.2,3.44-3.47,5.04-.65,5.34-.16,10.86.87,16.33,1.45-.56,3.13-.47,4.61.13,3.71-12.83,11.37-24.91,27.12-24.36,11.32.4,18.97,6.61,23.39,18.99,1.06,2.97,4.32,4.5,7.29,3.46,2.97-1.06,4.51-4.32,3.46-7.29Z"/>
    <g>
      <path class="cls-1" d="M4.77,121.53c-1.94,0-3.52-1.49-3.52-3.32V9.98c0-1.96,1.46-3.61,3.48-3.94.24-.04.42-.05.61-.05,1.81,0,3.29,1.43,3.3,3.18l.08,9.37c.12-.04.24-.05.36-.05.11,0,.22.01.33.05.58.16.96.71.91,1.31-.32,3.77-.24,7.56.23,11.27.02.17,0,.33-.04.5-.98,3.47-1.48,6.85-1.48,10.04v76.55c0,1.83-1.58,3.32-3.52,3.32h-.74Z"/>
      <path class="cls-1" d="M5.34,7.24c1.1,0,2.05.83,2.05,1.94l.12,14.22c.45-1.23.98-2.45,1.58-3.66-.33,3.9-.24,7.82.23,11.53-1.02,3.58-1.53,7.05-1.53,10.38v76.55c0,1.14-1.02,2.07-2.27,2.07h-.74c-1.25,0-2.27-.93-2.27-2.07V9.98c0-1.36,1.04-2.48,2.43-2.7.02,0,.03,0,.05,0,.12-.02.24-.03.36-.03M9.08,19.74h0M5.34,4.74h0c-.25,0-.51.02-.76.06C1.9,5.23,0,7.41,0,9.98v108.23c0,2.52,2.14,4.57,4.77,4.57h.74c2.63,0,4.77-2.05,4.77-4.57V41.65c0-3.07.48-6.34,1.44-9.7.09-.32.12-.66.08-.99-.45-3.59-.53-7.25-.23-10.9.01-.11.02-.21.02-.32,0-1.07-.68-1.99-1.63-2.34l-.07-8.24c-.02-2.44-2.06-4.42-4.55-4.42h0Z"/>
    </g>
  </g>
</svg>