<?xml version="1.0" encoding="UTF-8"?>
<svg id="Layer_2" data-name="Layer 2" xmlns="http://www.w3.org/2000/svg" viewBox="0 0 164.87 117.63">
  <defs>
    <style>
      .cls-1 {
        fill: #231f20;
      }
    </style>
  </defs>
  <g id="Layer_1-2" data-name="Layer 1">
    <g>
      <g>
        <path class="cls-1" d="M41.94,116.38c-1.37,0-2.6-.87-3.05-2.16L1.43,7.94c-.35-.99-.2-2.09.41-2.94s1.59-1.37,2.64-1.37h.83c1.37,0,2.6.87,3.05,2.16l33.09,94.2s.03.09.04.13c.26,1.12.6,2.29,1.02,3.46.78,2.19,1.74,4.92,3.23,7.05l.14.19c.25.34.3.79.15,1.18l-.91,2.32c-.49,1.25-1.67,2.06-3.01,2.06h-.18Z"/>
        <path class="cls-1" d="M5.31,4.88c.84,0,1.59.53,1.87,1.33l33.09,94.2c.28,1.22.64,2.42,1.06,3.6.89,2.52,1.85,5.15,3.38,7.35.05.07.1.13.15.2l-.91,2.32c-.3.76-1.03,1.26-1.85,1.26h-.18c-.84,0-1.59-.53-1.87-1.32L2.61,7.53c-.45-1.29.5-2.64,1.87-2.64h.83M5.31,2.38h-.83c-1.45,0-2.82.71-3.66,1.89C-.02,5.46-.23,6.99.25,8.36l37.45,106.28c.63,1.79,2.33,2.99,4.23,2.99h.18c1.86,0,3.5-1.12,4.18-2.85l.91-2.32c.31-.79.19-1.69-.31-2.38-.04-.05-.08-.1-.12-.16-1.4-2-2.29-4.52-3.08-6.75-.4-1.13-.73-2.25-.98-3.33-.02-.09-.05-.18-.08-.26L9.55,5.38c-.63-1.79-2.33-3-4.23-3h0Z"/>
      </g>
      <g>
        <path class="cls-1" d="M122.75,114c-1.34,0-2.52-.81-3.01-2.06l-.62-1.59c-.1-.26-.11-.54-.04-.81.6-2.05,1.29-4.28,2.2-7.02.11-.34.36-.6.67-.75L156.5,3.41c.46-1.29,1.68-2.16,3.05-2.16h.83c1.05,0,2.03.51,2.64,1.37s.76,1.96.41,2.94l-37.45,106.28c-.46,1.29-1.68,2.16-3.05,2.16h-.18Z"/>
        <path class="cls-1" d="M160.38,2.5c1.37,0,2.33,1.35,1.87,2.64l-37.45,106.28c-.28.79-1.03,1.32-1.87,1.32h-.18c-.82,0-1.55-.5-1.85-1.26l-.62-1.59c.68-2.34,1.42-4.66,2.18-6.98l.21.55L157.68,3.83c.28-.79,1.03-1.33,1.87-1.33h.83M160.38,0h-.83c-1.9,0-3.6,1.2-4.23,3l-34.41,97.97c-.37.3-.66.7-.82,1.17-.91,2.76-1.61,5.01-2.21,7.06-.15.53-.13,1.09.07,1.61l.62,1.59c.68,1.73,2.32,2.85,4.18,2.85h.18c1.9,0,3.6-1.2,4.23-2.99L164.61,5.97c.48-1.37.27-2.9-.57-4.08-.84-1.19-2.21-1.89-3.66-1.89h0Z"/>
      </g>
    </g>
    <g>
      <path class="cls-1" d="M43.48,114.94c-1.34,0-2.52-.81-3.01-2.06l-.62-1.59c-.1-.26-.11-.54-.04-.8.59-2.04,1.29-4.27,2.2-7.02.11-.34.36-.6.67-.75L77.23,4.36c.46-1.29,1.68-2.16,3.05-2.16h.83c1.05,0,2.03.51,2.64,1.37s.76,1.96.41,2.94l-37.45,106.28c-.45,1.29-1.68,2.16-3.05,2.16h-.18Z"/>
      <path class="cls-1" d="M81.11,3.45c1.37,0,2.33,1.35,1.87,2.64l-37.45,106.28c-.28.79-1.03,1.32-1.87,1.32h-.18c-.82,0-1.55-.5-1.85-1.26l-.62-1.59c.68-2.34,1.42-4.66,2.18-6.98l.21.55L78.41,4.77c.28-.79,1.03-1.33,1.87-1.33h.83M81.11.95h-.83c-1.9,0-3.6,1.2-4.23,3l-34.41,97.97c-.37.3-.66.7-.82,1.17-.91,2.76-1.61,5.01-2.21,7.06-.15.53-.13,1.09.07,1.61l.62,1.59c.68,1.73,2.32,2.85,4.18,2.85h.18c1.9,0,3.6-1.2,4.23-2.99L85.34,6.92c.48-1.37.27-2.9-.57-4.08-.84-1.19-2.21-1.89-3.66-1.89h0Z"/>
    </g>
    <g>
      <path class="cls-1" d="M122.64,113.31c-.52,0-1.04-.13-1.5-.37l-1.51-.79c-.24-.13-.44-.33-.55-.58-.9-1.95-1.83-4.09-2.95-6.74-.14-.33-.13-.69.01-1L77.69,6.91c-.51-1.27-.15-2.74.89-3.63l.63-.54c.59-.51,1.34-.79,2.12-.79,1.34,0,2.52.8,3.01,2.04l41.46,104.78c.5,1.27.15,2.73-.89,3.63l-.14.12c-.59.51-1.34.79-2.12.79h0Z"/>
      <path class="cls-1" d="M81.31,3.19c.78,0,1.53.45,1.85,1.25l41.46,104.78c.31.78.09,1.68-.54,2.23l-.14.12c-.37.32-.83.49-1.3.49-.31,0-.63-.07-.92-.23l-1.51-.79c-1.02-2.21-1.99-4.45-2.93-6.7l.52.27L78.85,6.45c-.31-.78-.09-1.68.54-2.23l.63-.55c.38-.33.84-.49,1.3-.49M81.31.69c-1.08,0-2.12.39-2.94,1.1l-.63.55c-1.43,1.25-1.93,3.27-1.23,5.04l38.3,96.51c-.09.47-.04.96.15,1.42,1.12,2.68,2.07,4.84,2.97,6.78.23.5.62.91,1.11,1.17l1.51.79c.64.33,1.36.51,2.08.51,1.08,0,2.13-.39,2.94-1.1l.14-.12c1.43-1.25,1.93-3.27,1.23-5.03L85.49,3.53c-.68-1.72-2.32-2.84-4.17-2.84h0Z"/>
    </g>
  </g>
</svg>