<?xml version="1.0" encoding="UTF-8"?>
<svg id="Layer_2" data-name="Layer 2" xmlns="http://www.w3.org/2000/svg" viewBox="0 0 20.72 195.62">
  <defs>
    <style>
      .cls-1 {
        fill: #c4c6c8;
      }

      .cls-2 {
        fill: #fff;
      }

      .cls-3 {
        fill: #727476;
      }

      .cls-4 {
        fill: #262324;
      }
    </style>
  </defs>
  <g id="Layer_1-2" data-name="Layer 1">
    <path class="cls-1" d="M12.27,195.62h-.24c-.67-.31-.66-.89,0-1.2h.24v1.2Z"/>
    <path class="cls-4" d="M12.03,164.22c3.87,0,6.82,2.61,8.08,6.18.84,2.39.79,6.92-.06,9.3-1.3,3.63-4.53,6.83-8.61,6.51-.69.04-1.4.07-2.11.12h-.23c-4.98.02-8.68-4.05-8.8-8.94.1-1.27-.14-2.75,0-4-.04-4.49,3.99-9.12,8.57-9.05.19-.08.42-.12.7-.12h2.46Z"/>
    <path class="cls-2" d="M12.03,164.22h8.68v22.11h-9.27c-.1-.03-.1-.07,0-.12,11.07-.65,12.27-18.35,2.91-21.44-.76-.25-1.55-.36-2.32-.55Z"/>
    <path class="cls-2" d="M8.86,164.22c.1.03.1.07,0,.12-4.66.55-8.05,4.43-8.57,9.05v-9.17h8.57Z"/>
    <path class="cls-2" d="M9.1,186.33H.3v-8.94c.52,2.75,1.39,5.21,3.65,6.99,1.49,1.18,3.33,1.6,5.15,1.95Z"/>
    <polygon class="cls-3" points="9.57 164.22 8.86 164.34 8.86 164.22 9.57 164.22"/>
    <path class="cls-1" d="M12.02,31.4h-.24c-.67-.31-.66-.89,0-1.2h.24v1.2Z"/>
    <path class="cls-4" d="M11.78,0c3.87,0,6.82,2.61,8.08,6.18.84,2.39.79,6.92-.06,9.3-1.3,3.63-4.53,6.83-8.61,6.51-.69.04-1.4.07-2.11.12h-.23C3.86,22.13.17,18.06.04,13.17c.1-1.27-.14-2.75,0-4C0,4.68,4.04.06,8.61.12c.19-.08.42-.12.7-.12h2.46Z"/>
    <path class="cls-2" d="M11.78,0h8.68v22.11h-9.27c-.1-.03-.1-.07,0-.12,11.07-.65,12.27-18.35,2.91-21.44C13.34.3,12.55.2,11.78,0Z"/>
    <path class="cls-2" d="M8.61,0c.1.03.1.07,0,.12C3.95.67.56,4.55.04,9.17V0h8.57Z"/>
    <path class="cls-2" d="M8.85,22.11H.04v-8.94c.52,2.75,1.39,5.21,3.65,6.99,1.49,1.18,3.33,1.6,5.15,1.95Z"/>
    <polygon class="cls-3" points="9.31 0 8.61 .12 8.61 0 9.31 0"/>
  </g>
</svg>