<?xml version="1.0" encoding="UTF-8"?>
<svg id="Layer_2" data-name="Layer 2" xmlns="http://www.w3.org/2000/svg" viewBox="0 0 20.35 21.02">
  <defs>
    <style>
      .cls-1 {
        fill: #fff;
      }

      .cls-2 {
        fill: #000000;
      }

      .cls-3 {
        fill: #000000;
      }

      .cls-4 {
        fill: #000000;
      }

      .cls-5 {
        fill: #000000;
      }

      .cls-6 {
        fill: #000000;
      }

      .cls-7 {
        fill: #000000;
      }

      .cls-8 {
        fill: #000000;
      }
    </style>
  </defs>
  <g id="Layer_1-2" data-name="Layer 1">
    <g>
      <path class="cls-2" d="M9.46,0c.09.04.2.04.29,0h.77c.11.04.23.04.34,0h.19c5.25.17,9.07,4.35,9.27,9.64.08,2.15-.15,3.93-1.09,5.89-1.56,3.24-4.74,5.57-8.42,5.45-.09.04-.2.04-.29,0-.25.04-.52.04-.77,0-.08.04-.2.04-.29,0C4.36,21.09.11,16.64,0,11.62v-.34c.04-.11.04-.23,0-.34v-.82c.04-.11.04-.23,0-.34,0-.11,0-.23,0-.34C.12,4.63,4.33.11,9.22,0h.24Z"/>
      <path class="cls-1" d="M11.04,0h9.31v21.02h-9.55s-.04-.03,0-.05c11.47-.5,12.98-17.94,2.06-20.66l-1.82-.31Z"/>
      <path class="cls-1" d="M9.22,0C4.23.41.41,4.52,0,9.46V0h9.21Z"/>
      <path class="cls-1" d="M9.46,20.98s.04.03,0,.05H0v-9.41c.13.63.19,1.27.34,1.89,1.05,4.33,4.65,7.28,9.12,7.47Z"/>
      <path class="cls-6" d="M10.51,20.98s.04.03,0,.05h-.77s-.04-.03,0-.05c.25,0,.51,0,.77,0Z"/>
      <path class="cls-4" d="M10.85,0c-.06.08-.28.08-.34,0h.34Z"/>
      <path class="cls-4" d="M0,10.13v-.34c.08.06.08.28,0,.34Z"/>
      <path class="cls-7" d="M0,11.28v-.34c.08.06.08.28,0,.34Z"/>
      <path class="cls-3" d="M9.75,0c-.05.08-.24.08-.29,0h.29Z"/>
      <path class="cls-5" d="M9.75,20.98v.05h-.29v-.05c.1,0,.19,0,.29,0Z"/>
      <path class="cls-8" d="M10.8,20.98v.05h-.29v-.05c.1,0,.19,0,.29,0Z"/>
    </g>
  </g>
</svg>