<?xml version="1.0" encoding="UTF-8"?>
<svg id="Layer_2" data-name="Layer 2" xmlns="http://www.w3.org/2000/svg" viewBox="0 0 124.34 248.4">
  <defs>
    <style>
      .cls-1 {
        fill: #000000;
      }
    </style>
  </defs>
  <g id="Layer_1-2" data-name="Layer 1">
    <g>
      <polygon class="cls-1" points="113.8 22.51 108.52 33.45 105.89 32.33 111.15 21.41 113.8 22.51"/>
      <path class="cls-1" d="M92.41,65.5c.18.28-.05.8-.16,1.1-1.1,3.19-3.8,6.59-4.86,9.91l-2.88-1.2,5.16-10.56c.24-.55,2.65.63,2.73.75Z"/>
      <path class="cls-1" d="M81.86,87.09l-5.05,10.75c-.62.4-2.12-.9-2.85-.93l5.27-10.93,2.63,1.12Z"/>
      <path class="cls-1" d="M124.34.93l-5.03,11.02-2.88-1.2L121.6.19c.71-.68,1.91.68,2.74.74Z"/>
      <path class="cls-1" d="M100.36,42.91l2.87,1.32c-.77,1.19-4.86,10.72-5.59,10.65-.28-.03-2.29-1.03-2.29-1.49l5.01-10.49Z"/>
      <path class="cls-1" d="M68.46,107.49c.28-.2,2.88.96,2.83,1.5-.79,1.16-4.88,10.52-5.57,10.46-.28-.03-2.29-1.03-2.3-1.49l5.03-10.47Z"/>
      <path class="cls-1" d="M.1,245.28c.06-.11.49-.19.72-.59.62-1.09,3.62-7.74,4.02-8,.28-.18,2.4.87,2.54,1.09.31.48-4.47,9-4.82,10.33-.4.37-2.16.38-2.42.01-.17-.24-.19-2.6-.05-2.84Z"/>
      <path class="cls-1" d="M55.47,141.07c-.13.1-2.96-1.03-2.6-1.74l4.79-9.87c.21-1.02,3.05.75,3.07.93l-5.26,10.68Z"/>
      <path class="cls-1" d="M15.4,214.99c.13-.1,2.96,1.03,2.6,1.74l-4.79,9.87c-.22,1.01-3.06-.75-3.07-.93l5.26-10.68Z"/>
      <path class="cls-1" d="M36.52,172.03c.21-.18,2.9.95,2.85,1.52-.79,1.16-4.88,10.52-5.57,10.46-.28-.03-2.29-1.03-2.3-1.49l5.01-10.48Z"/>
      <path class="cls-1" d="M23.55,205.63c-.13.1-2.96-1.03-2.6-1.74l5.03-10.24c.31-.22,2.82,1.08,2.84,1.3l-5.26,10.68Z"/>
      <path class="cls-1" d="M49.94,151.65l-5.04,10.76c-.37.26-2.29-.92-2.76-1.18l5.17-10.7,2.63,1.12Z"/>
    </g>
  </g>
</svg>