<?xml version="1.0" encoding="UTF-8"?>
<svg id="Layer_2" data-name="Layer 2" xmlns="http://www.w3.org/2000/svg" viewBox="0 0 237.38 271.18">
  <defs>
    <style>
      .cls-1 {
        fill: #231f20;
      }
    </style>
  </defs>
  <g id="Layer_1-2" data-name="Layer 1">
    <path class="cls-1" d="M167.94,248.22c-30.6,21-73.2,32.1-116.7,13.5C-24.06,229.92-5.16,125.51,36.54,73.01c-4.8-18.6-7.2-46.5-1.2-68.7,1.2-5.1,7.5-6.9,6,1.5-3.3,18.9-.6,40.8,2.4,57C76.14,21.11,121.14,2.51,168.54,7.91c117,13.2,74.4,157.5-49.2,139.5-31.2-4.5-58.8-18.6-74.4-51-10.8,14.1-60,135.6,18,159.6,32.1,9.6,70.8,5.1,100.5-12.6,26.1-15.3,36.6-34.8,49.2-60.6,2.4-5.1,6.6-3,3.6,3-12.9,26.4-22.8,44.4-48.3,62.4ZM50.94,86.81c13.5,34.5,40.2,49.8,72.9,53.4,108.3,12,135-108.3,47.4-120.9-44.7-6.6-90.6,22.2-120.3,67.5Z"/>
  </g>
</svg>