<?xml version="1.0" encoding="UTF-8"?>
<svg id="Layer_2" data-name="Layer 2" xmlns="http://www.w3.org/2000/svg" viewBox="0 0 254.16 257.71">
  <defs>
    <style>
      .cls-1 {
        fill: #231f20;
      }
    </style>
  </defs>
  <g id="Layer_1-2" data-name="Layer 1">
    <path class="cls-1" d="M220.93,218.41c-29.7,23.4-80.7,39.3-130.2,39.3-120.9,0-115.2-108-17.1-137.4,10.2-3,20.7-4.8,30.3-5.1-16.8-6-37.5-19.8-36-37.5C72.43,26.11,160.33-4.79,208.03.61c69.9,8.1,54.3,61.2-6.3,74.7-17.1,3.9-14.4-3.9-.9-5.4,27.6-3,60.9-56.4,6-62.1-46.8-4.5-109.2,24-116.1,62.4-8.1,47.1,67.5,32.1,63,53.4-3.6,12-40.8-1.5-78.9,9.3-62.7,17.4-86.1,118.2,17.1,118.2,46.2,0,90.9-20.7,116.7-40.8,22.2-17.4,33-38.4,16.5-42.3-13.8-3.3-3.6-8.7,6.3-3.9,21.9,11.1,15.9,33.6-10.5,54.3Z"/>
  </g>
</svg>