<?xml version="1.0" encoding="UTF-8"?>
<svg id="Layer_2" data-name="Layer 2" xmlns="http://www.w3.org/2000/svg" viewBox="0 0 400.35 352.16">
  <defs>
    <style>
      .cls-1 {
        fill: #231f20;
      }
    </style>
  </defs>
  <g id="Layer_1-2" data-name="Layer 1">
    <path class="cls-1" d="M376.05,29.13c-3.6,0-10.2,2.4-12.9,2.4-39,66.6-46.2,144-99.9,227.4-35.1,54.6-99.3,85.8-138.3,91.2-85.2,11.7-148.2-27.9-116.7-102.9,8.1-19.5,33-37.8,42.6-38.1,6.3-.3,3,2.7-.3,4.2-10.5,4.2-30.9,22.5-37.8,47.1-18.9,65.7,60.3,90.6,108.6,80.1,105.3-23.4,156.6-154.2,184.8-216.6,21-46.5,41.4-80.7,48-91.2-48.3,7.8-132,40.2-141.6,98.4-4.2,27.6,9.3,46.5,34.5,37.2,32.1-11.4,32.1-47.1,27.6-51.9-4.8-3,1.5-8.4,6.3-2.4,9.9,23.1-9,52.5-34.2,61.5-32.1,11.1-60-10.8-54.3-46.2,11.1-69.3,111.9-97.5,166.8-104.4,2.7-4.5,14.4-21,24.3-24,9-2.4,16.8-.3,16.8,7.8-.3,12.3-12.6,16.8-24.3,20.4ZM368.55,24.03c26.7-4.5,20.7-14.4,17.4-14.4-3.3-1.5-12.3,9-17.4,14.4Z"/>
  </g>
</svg>