<?xml version="1.0" encoding="UTF-8"?>
<svg id="Layer_2" data-name="Layer 2" xmlns="http://www.w3.org/2000/svg" viewBox="0 0 327.54 248.3">
  <defs>
    <style>
      .cls-1 {
        fill: #231f20;
      }
    </style>
  </defs>
  <g id="Layer_1-2" data-name="Layer 1">
    <path class="cls-1" d="M292.54,233.26c-18.6,20.1-44.1,20.1-63.6-.3-27.3-28.5-40.2-87-43.5-106.5-14.4,28.5-28.2,56.1-52.8,83.1-26.4,28.5-59.7,41.7-94.5,37.2-63.6-7.5-42.9-78.6,27-54.6,5.4,2.1,3.3,5.4-1.8,3.6-48-18.3-59.1,40.5-17.7,42.6,53.1,2.7,86.4-52.2,118.5-108.6,24.3-42.6,46.5-87,71.1-114.3-33.9-3.3-71.1-1.8-111.6,6.9-51,10.5-80.1,39.6-85.5,65.4-8.4,40.5,39,54.6,64.8,27,7.5-8.1,11.1-15.6,11.4-19.5.6-7.2,4.2-2.7,3.9.6-1.5,9.6-5.7,18-11.7,24.3-30.3,31.8-88.2,18.3-83.7-32.4C25.84,55.96,60.94,19.36,127.54,9.76c41.7-6,79.5-6.3,114.3-1.5,12.9-14.1,14.1-7.8,11.1,1.5,10.8,1.8,20.7,3.3,29.7,5.7,81.6,23.7,44.4,89.1-50.7,104.7-11.7,1.8-21,2.4-27.6,2.7,1.5,8.4,10.8,55.2,33.3,89.4,15,22.8,30,33.6,51.6,12.3,14.4-14.4,25.5-38.1,28.8-44.7,2.7-5.1,8.1-6.6,5.1,0-3.9,8.7-17.7,39.3-30.6,53.4ZM249.34,17.26c-18.9,33-40.2,63-57.6,97.8,11.7-2.1,23.4-2.1,37.8-3.9,62.1-7.8,108-70.5,49.2-88.2-8.7-2.4-18.6-3.9-29.4-5.7Z"/>
  </g>
</svg>