<?xml version="1.0" encoding="UTF-8"?>
<svg id="Layer_2" data-name="Layer 2" xmlns="http://www.w3.org/2000/svg" viewBox="0 0 281.36 271.68">
  <defs>
    <style>
      .cls-1 {
        fill: #231f20;
      }
    </style>
  </defs>
  <g id="Layer_1-2" data-name="Layer 1">
    <path class="cls-1" d="M250.57,67.29c-8.1,2.1-8.4-4.8,1.5-6,37.5-4.5,20.4-78.9-76.2-44.4-35.7,12.9-56.7,46.5-16.2,71.4,18.3,11.1,48.6,21.6,70.8,35.4,61.2,37.8,21,94.2-29.7,124.5C132.97,288.69,5.17,280.29.07,195.69c-1.5-28.5,21.9-69.3,51.3-83.1,4.2-1.8,12.9-3,3,4.5-8.1,6.3-15.3,13.8-20.7,22.5-10.8,16.8-16.5,36.9-16.8,56.1-.6,74.4,107.1,82.2,167.1,51,50.4-26.4,71.7-78,35.4-107.4-18.6-15-58.8-25.8-81.3-40.8-44.7-29.7-17.4-74.1,26.4-89.7,30-10.5,74.7-12.3,96.3-1.5,21.3,10.5,28.5,35.1,9.9,50.4-4.8,3.9-11.4,7.2-20.1,9.6Z"/>
  </g>
</svg>