<?xml version="1.0" encoding="UTF-8"?>
<svg id="Layer_2" data-name="Layer 2" xmlns="http://www.w3.org/2000/svg" viewBox="0 0 91.59 106.8">
  <defs>
    <style>
      .cls-1 {
        fill: #231f20;
      }
    </style>
  </defs>
  <g id="Layer_1-2" data-name="Layer 1">
    <path class="cls-1" d="M31.01,106.8c-47.4,0-31.8-54-10.2-83.1C31.91,8.7,46.62,0,61.02,0s22.2,8.4,20.7,20.7c-1.2,9.9-13.5,22.5-20.1,15.9,3.3-3.9,7.8-9.9,9.3-15.3,2.7-10.5-.3-14.7-6-14.7-10.8,0-23.7,13.8-32.1,25.8-5.4,7.8-16.5,28.5-16.5,45.9,0,12,4.8,23.1,17.7,23.1,26.1,0,40.5-29.1,52.5-52.8,2.7-5.4,6.9-3.9,4.2,2.1-14.7,31.2-26.7,56.1-59.7,56.1Z"/>
  </g>
</svg>