<?xml version="1.0" encoding="UTF-8"?>
<svg id="Layer_2" data-name="Layer 2" xmlns="http://www.w3.org/2000/svg" viewBox="0 0 86.93 108.06">
  <defs>
    <style>
      .cls-1 {
        fill: #231f20;
      }
    </style>
  </defs>
  <g id="Layer_1-2" data-name="Layer 1">
    <path class="cls-1" d="M28.81,108.06C13.81,108.06.31,98.16,0,79.26c-.3-18,9.9-40.5,23.1-56.1C38.41,5.16,61.21-6.24,74.41,3.66c11.4,8.7,2.7,29.1-16.5,43.8-9.3,6.9-28.8,13.2-36.9,13.2-4.5,10.8-9.6,41.1,10.2,41.1,26.4,0,42.6-35.4,49.5-51.3,2.4-5.4,8.4-6,5.4.3-11.1,24-24,57.3-57.3,57.3ZM41.11,27.36c-7.8,9.6-15.3,22.8-18,28.2,5.4,0,21-4.2,31.8-13.2,24.6-20.7,23.1-59.7-13.8-15Z"/>
  </g>
</svg>