<?xml version="1.0" encoding="UTF-8"?>
<svg id="Layer_2" data-name="Layer 2" xmlns="http://www.w3.org/2000/svg" viewBox="0 0 144.02 292.23">
  <defs>
    <style>
      .cls-1 {
        fill: #231f20;
      }
    </style>
  </defs>
  <g id="Layer_1-2" data-name="Layer 1">
    <path class="cls-1" d="M56.12,156c3.9,4.8,7.5,12,9.6,22.5l.9,3.9c18,1.2,35.1-32.1,45-53.1,2.1-3.9,6.6-2.4,4.5,2.1-11.1,25.2-27.6,56.7-48.9,56.7,3.6,42-19.2,105.6-51.6,104.1-8.4-.3-15.3-3.6-15.6-15.6-.6-19.5,13.2-55.8,30.9-97.5-6.3-9.6-3.6-22.5,2.1-26.7,3-2.4,6.9-3.9,10.8-3.3,21.6-48.6,45-97.2,61.5-128.1,6.6-12.9,12.9-21,25.5-21,3.6,0,8.7,2.1,13.2,1.5-18.9,17.7-57.9,87-87.9,154.5ZM43.52,184.5c-10.5,26.4-20.1,54.3-24.9,74.1-8.1,34.8,5.7,29.1,17.4,13.5,14.7-19.2,25.5-56.1,24.9-82.8-6,.6-13.5-1.5-17.4-4.8ZM57.62,170.1c-1.2-2.7-3-5.4-4.5-7.2l-6.6,15c1.8,3.3,6.6,5.7,12,5.7h1.8c-.3-5.1-1.2-9.6-2.7-13.5Z"/>
  </g>
</svg>