<?xml version="1.0" encoding="UTF-8"?>
<svg id="Layer_2" data-name="Layer 2" xmlns="http://www.w3.org/2000/svg" viewBox="0 0 134.46 102.95">
  <defs>
    <style>
      .cls-1 {
        fill: #231f20;
      }
    </style>
  </defs>
  <g id="Layer_1-2" data-name="Layer 1">
    <path class="cls-1" d="M84,102.05c-10.5,0-24.9-7.2-15.9-35.1,2.4-7.8,8.1-18,16.5-31.5,7.2-11.7,1.8-19.8-21.3,1.8-10.2,9.3-24.9,26.1-41.7,59.4-2.4,4.2-5.1,4.5-11.4,4.5-4.5.3-7.2,0-10.2,1.8,14.4-28.5,26.7-57,41.4-84C49.2,4.55,53.1-.55,62.7.05c3.9.3,8.4,2.1,12.6,1.2-9,4.8-25.5,34.8-36.3,56.4,6-7.5,15.6-18.9,24.9-27C78.3,17.75,109.2-1.15,119.4,2.45c0,0-32.1,56.4-36,77.4-2.4,12.3.9,15,4.8,15,15.6,0,34.8-39.3,41.1-51.9,2.4-5.4,7.2-3.3,4.2,2.7-9,18.3-26.4,56.4-49.5,56.4Z"/>
  </g>
</svg>