<?xml version="1.0" encoding="UTF-8"?>
<svg id="Layer_2" data-name="Layer 2" xmlns="http://www.w3.org/2000/svg" viewBox="0 0 86.06 111.52">
  <defs>
    <style>
      .cls-1 {
        fill: #231f20;
      }
    </style>
  </defs>
  <g id="Layer_1-2" data-name="Layer 1">
    <path class="cls-1" d="M84.55,10.15c-6.9,21.6-32.1,109.2-73.5,100.8-18-3.6-10.5-30.6-2.1-53.7-3.3,5.1-7.2,3.3-5.4-.9l5.4-10.2c6-11.7,9-35.1.9-37.2,0,0,12.3-2.1,14.7-2.4,8.7-.9,11.4-2.4,10.8,12.3-.3,9.9-4.8,26.4-8.7,36.3-7.5,19.8-15,42-7.2,45.6,14.4,6.3,30.6-18.9,42.6-48.6-4.2-9.3-5.1-21.9-2.4-30,8.4-26.7,31.2-26.7,25.5-13.5-.3.3-.6.9-.6,1.5Z"/>
  </g>
</svg>