<?xml version="1.0" encoding="UTF-8"?>
<svg id="Layer_2" data-name="Layer 2" xmlns="http://www.w3.org/2000/svg" viewBox="0 0 143.93 110.31">
  <defs>
    <style>
      .cls-1 {
        fill: #231f20;
      }
    </style>
  </defs>
  <g id="Layer_1-2" data-name="Layer 1">
    <path class="cls-1" d="M142.47,10.02c-6.3,21-29.4,108.9-72.9,99.6-16.2-3.6-14.4-27.6-10.5-40.5-6.9,12.6-23.4,40.5-39.9,40.5-8.4,0-16.8-5.1-18.6-13.8-2.7-12.9,4.8-24,10.2-34.8-1.8,0-4.5-.9-2.7-4.8l5.4-10.5c6-11.7,12.3-23.7,16.8-33,2.4-4.8,6-6.3,11.7-6.3h18.3c-6.9,5.1-11.1,8.7-19.2,25.2,0,0-13.5,27.3-18.9,38.7-12.9,27.9-3.3,41.1,11.7,26.7,18.3-17.7,41.7-69.9,48.6-84.3,2.1-4.8,6-6.3,11.4-6.3h18.3c-2.4,2.4-8.4,4.8-12,11.1-6.3,10.5-8.7,15-16.5,31.5-3.6,7.5-25.5,54-6.3,55.2,17.1,1.2,32.7-23.4,44.1-52.2-4.2-9.3-4.8-21.9-2.4-30,7.8-26.7,29.4-26.4,24-13.5-.3.3-.6.9-.6,1.5Z"/>
  </g>
</svg>