<?xml version="1.0" encoding="UTF-8"?>
<svg id="Layer_2" data-name="Layer 2" xmlns="http://www.w3.org/2000/svg" viewBox="0 0 193.86 198">
  <defs>
    <style>
      .cls-1 {
        fill: #231f20;
      }
    </style>
  </defs>
  <g id="Layer_1-2" data-name="Layer 1">
    <path class="cls-1" d="M121.47,118.2c-18.9,33.9-48.6,79.8-93,79.8-30,0-33-19.8-24-36.6,5.7-11.1,16.5-19.2,28.2-24.6,20.1-9.6,48.6-14.7,72.9-21.6,11.4-19.8,21-51.9,25.8-67.5-10.2,18-29.7,55.2-52.8,55.2-6,0-16.5-2.1-18.9-13.5-2.7-12.9,4.8-24,10.2-34.8-1.8,0-4.5-.9-2.7-4.8l5.4-10.5c6-11.4,12.3-23.7,16.8-33,2.4-4.8,6-6.3,11.7-6.3h18.3c-2.7,2.4-7.5,4.5-11.1,10.8-10.2,17.4-18.6,35.1-27,53.1-14.4,31.2-1.8,43.2,17.7,20.7,16.8-19.5,35.7-54.6,47.1-78.3,2.4-4.8,6-6.3,11.7-6.3h16.2c-11.4,7.8-15.9,19.8-23.4,39.9-7.5,20.1-15.3,45-24,68.7,13.2-3.9,31.5-12.9,43.2-29.7,9.3-13.5,15.9-27.3,18.9-33,2.7-5.4,7.2-3.3,4.2,2.7-20.4,41.4-28.2,54-71.4,69.6ZM37.76,143.4c-30.6,13.2-42,48.6-16.2,48.6s58.2-37.2,72-56.1l6.6-11.1c-19.5,5.1-45.3,11.1-62.4,18.6Z"/>
  </g>
</svg>