<svg xmlns="http://www.w3.org/2000/svg" viewBox="0 0 489.08 44.89"><title>Asset 1</title><g id="Layer_2" data-name="Layer 2"><g id="Layer_1-2" data-name="Layer 1"><path d="M14.05,26.2c-.27.09-.39-.28-.49-.6-.17-.55.27-.7.65-.87,2.08-.91,4.14-1.86,6.25-2.71,4.18-1.67,8.37-3.34,12.59-4.92,3.19-1.2,6.44-2.26,9.67-3.4.46-.16.84-.66,1.11.34.23.82-.24.93-.66,1.05-6.76,2-13.25,4.7-19.79,7.29-2.68,1.06-5.32,2.2-8,3.31C15,25.84,14.65,26,14.05,26.2Z"/><path d="M477.73,40.45c-1.55-1-3.26-.83-4.72-1.53-1.24-.6,0-1.29-.11-2s.48-.6,1-.44a33.86,33.86,0,0,0,4,1.24c.81.17.86.6.71,1.11A8.83,8.83,0,0,1,477.73,40.45Z"/><path d="M441.74,27.2c1.57.43,3.17.79,4.7,1.31.89.3.41,1,.22,1.59s-.19,1.1-1,.82a27.2,27.2,0,0,0-4.1-1.2c-1.46-.27-.11-1.33-.37-2C441.09,27.43,441.18,27,441.74,27.2Z"/><path d="M.09,43.46c-.32-.72.27-.75.64-1,1.1-.79,2.56-.75,3.65-1.62.46-.38,1,0,1.2.61s.55,1.53-.37,1.76c-1.29.32-2.33,1.12-3.56,1.54C.08,45.28.25,44.29.09,43.46Z"/><path d="M489,42.07c0,1.45-.59,1.92-1.85,1.49a17.37,17.37,0,0,0-2.86-1c-1.31-.21-1.46-.8-1-1.89s1.11-.4,1.84-.36c1.09.07,1.86.94,3,.87C488.4,41.16,489.27,41.34,489,42.07Z"/><path d="M227.53.35c.76-.59,1.44,0,2.14-.22S231,.1,231,1.28s-.57,1.24-1.29,1.27c-1.37.05-2.75,0-4.12,0s-.68-.86-.75-1.38-.13-1.37.85-1C226.38.37,227.06-.43,227.53.35Z"/><path d="M216.9,2.94a12.51,12.51,0,0,0-1.62,0c-1.06.13-1.28-.36-1.28-1.33S214.28.33,215.23.4a15.11,15.11,0,0,0,2.69,0c1.14-.11,1.83.09,1.89,1.45.08,1.67-1.12.93-1.84,1.07A5.44,5.44,0,0,1,216.9,2.94Z"/><path d="M90.15,17.23c.13.79-.31.8-.73.85-1.14.12-2.16.68-3.33.79-1.34.13-2-.28-2-1.55,0-.28,0-.7.37-.65,1.43.18,2.72-.48,4-.88C90.42,15.13,89.56,17,90.15,17.23Z"/><path d="M36.88,30.84c.11,1.1-.64.95-.77,1.09-.86,1-2.19.53-3.12,1.22-.58.43-1.44.71-1.74-.26-.22-.68-.73-1.7.79-1.93a10.51,10.51,0,0,0,3.1-1.09C36.76,29.07,36.74,30.23,36.88,30.84Z"/><path d="M468.13,35.4c0,1.26-.67,1.82-1.89,1.34s-2.33-.33-3.33-1.21c-.63-.55-.77-.52-.54-1.67s.63-.69,1.25-.46a12.36,12.36,0,0,0,3.26.94C467.33,34.38,468.09,34.62,468.13,35.4Z"/><path d="M381.69,15.89c-1.17.14-2.22-.55-3.45-.57S376.5,14.2,377.13,13a.55.55,0,0,1,.74-.27,20.28,20.28,0,0,0,3.94.74,1.14,1.14,0,0,1,1,1.51C382.72,15.55,382.67,16.24,381.69,15.89Z"/><path d="M25.9,33a6.86,6.86,0,0,1,.54,1.2c.13.52.14,1.31-.43,1.38-1.45.16-2.62,1.1-4.07,1.28-.82.1-1.3-.46-1.11-.73.37-.52-1.27-1.35.41-1.6A28.74,28.74,0,0,0,25.9,33Z"/><path d="M73.45,20c0-.51,0-.85.7-.92a32.74,32.74,0,0,0,3.9-.87c.66-.16,1.21.14,1.22.7s.31,1.33-.65,1.67c-1.33.47-2.73.55-4.07,1S74,20.38,73.45,20Z"/><path d="M100.66,15.19c.3.48.17.63-.42.72a27.82,27.82,0,0,0-3.95.76c-.66.19-1.19.39-1.36-.42s-.25-1.46.68-1.8a12.3,12.3,0,0,1,3.56-.6C100.59,13.75,100.59,13.7,100.66,15.19Z"/><path d="M260.52.42c.54,0,1.08,0,1.61,0,.92-.1,1.26.22,1.25,1.19s-.17,1.46-1.26,1.35a24.31,24.31,0,0,0-2.7,0c-1.14,0-1.82-.41-1.83-1.65,0-1.41,1.06-.72,1.68-.86A6.51,6.51,0,0,1,260.52.42Z"/><path d="M47.19,27.48c.42,1,.21,1.4-.51,1.5a12.88,12.88,0,0,0-3.59,1.1c-.57.27-1.05.38-1.18-.41s-.55-1.42.34-1.92c1.34-.74,2.9-.76,4.33-1.31C47.82,26,47.12,27.35,47.19,27.48Z"/><path d="M58.14,25c.07.68-.06.95-.72,1a14,14,0,0,0-3.47.85c-1.24.54-1.47-.31-1.79-1-.43-1,.48-1,1-1.26,1.12-.46,2.35-.53,3.5-1C58,23,57.75,24.46,58.14,25Z"/><path d="M367.4,10.89c1.23.24,2.46.56,3.7.7,1,.11,1,.65,1,1.38A1.05,1.05,0,0,1,370.75,14a36.45,36.45,0,0,0-4.31-.67c-.4,0-.56-.5-.37-.54C367.14,12.63,365.15,10.27,367.4,10.89Z"/><path d="M313.61,3.76A12.86,12.86,0,0,0,317.4,4c.57,0,.81.36.63.79-.26.62.05,1.75-1.07,1.69-1.53-.08-3-.37-4.58-.54-.82-.09-.42-.7-.4-1C312,4,312.56,3.52,313.61,3.76Z"/><path d="M425.47,24c.26,1.45-.63,1.44-1.57,1.25S422,24.73,421,24.5c-1.37-.33-1.56-1.15-1.09-2.35.18-.44.29-.43.74-.34a28.57,28.57,0,0,0,4.1,1C425.19,22.85,426.06,23.12,425.47,24Z"/><path d="M361.25,10.9c.08,1.24-.67,1.76-1.54,1.27a5.55,5.55,0,0,0-3-.48c-1.83,0-1.31-.92-1.25-1.91,0-.7.46-.9.93-.69a12.89,12.89,0,0,0,4.21.68C361.52,9.84,361.17,10.51,361.25,10.9Z"/><path d="M399.55,17c1.15.72,2.53.53,3.8.87s.81,1.36.72,2.13c-.15,1.29-.92.23-1.3.19-1.25-.11-2.47-.52-3.72-.65-1.05-.1-.83-.9-.65-1.27S398.65,16.93,399.55,17Z"/><path d="M456.52,33.86c-1.64-.2-2.95-1-4.48-1.27-.65-.1-.47-1-.38-1.58a.9.9,0,0,1,1.23-.71A24.63,24.63,0,0,0,457,31.4c.43,0,.73.33.34.87S457.66,33.9,456.52,33.86Z"/><path d="M326.69,7.61c-.94.24-1.85-.52-2.89-.37-.51.07-1.34,0-1-.73.3-.63-.16-2.2,1.34-1.73a21.77,21.77,0,0,0,3.55.48c.51.08,1.3.13,1.18,1.17s-.55,1.23-1.4,1.18C327.26,7.6,327,7.61,326.69,7.61Z"/><path d="M436.38,25.67c-.52,2.42-.51,2.37-3.09,1.79a8.94,8.94,0,0,0-1.82-.53c-1.72,0-.94-1.29-.89-1.83.09-.87.91-.57,1.57-.43A21.13,21.13,0,0,0,436.38,25.67Z"/><path d="M153.17,5.21c.4.08,1.4-.51,1.48,1,.07,1.27-.57,1.47-1.64,1.48s-2.1.23-3.15.32c-.56.06-1.29,0-.88-.79.3-.56-.89-1.8.8-1.73C150.79,5.47,151.82,5.31,153.17,5.21Z"/><path d="M338.32,8.94a30.84,30.84,0,0,1-3.61-.32c-.31-.06-1.34-.1-1-1C334,7,333.64,6.1,335,6.12s2.51.65,3.87.56c.91-.06.87.9.84,1.62C339.62,9.55,338.87,8.9,338.32,8.94Z"/><path d="M127.33,9.89c-.16-1.17.55-1.67,1.89-1.57a15.5,15.5,0,0,0,2.35-.26c.44,0,1.45-.37,1.47.78,0,.9,0,1.65-1.24,1.67a11.76,11.76,0,0,0-3.47.43C127.26,11.31,127.22,10.94,127.33,9.89Z"/><path d="M413.68,22.65c-1.19-.22-2.38-.43-3.55-.69s-1.07-1.09-1-1.94c.14-1.38.89-.24,1.34-.35,1.31-.33,2.35.67,3.63.6.88-.05.8.86.76,1.51S414.4,22.81,413.68,22.65Z"/><path d="M64.22,24.06c-.89.22-1.34,0-1.38-1S63,21.84,64,21.59c1.23-.34,2.56-.24,3.72-.91.64-.37.65.41.76.66.23.52.44,1.58.16,1.63C67.12,23.28,65.67,23.68,64.22,24.06Z"/><path d="M193.67,3.77c-1.13.64-1.21,0-1.26-1s.22-1.38,1.28-1.34a5.77,5.77,0,0,0,2.82-.2c.49-.22,1.14-.35,1.49.06a2.21,2.21,0,0,1,.13,1.9c-.16.75-.94.49-1.35.39C195.71,3.36,194.74,4.39,193.67,3.77Z"/><path d="M182.84,4.74c-.82.18-1.48-.17-1.49-1.23s.36-1.38,1.61-1.16a4.58,4.58,0,0,0,2.48-.16c1.31-.54,2.13.22,1.95,1.61,0,.34-.14.61-.51.56C185.55,4.17,184.31,4.79,182.84,4.74Z"/><path d="M348.8,10.52c-1.08,0-2.09-.42-3.18-.46-.82,0-.88-.91-.92-1.64s.46-.78,1-.82c1.34-.07,2.54.63,3.91.54.93-.06.87.93.81,1.64C350.34,11.05,349.33,10.23,348.8,10.52Z"/><path d="M16,38.2c0,.84-.52,1-1,1.2a26.42,26.42,0,0,1-3.34,1.06c-.22,0-.93,1.2-1.1-.2-.09-.72-.75-1.41.38-1.85a24.51,24.51,0,0,0,3.26-1.34C15.86,36.16,15.62,37.66,16,38.2Z"/><path d="M291.86,1.88c1.41-.18,2.52.54,3.84.48,1.08,0,0,1.2.28,1.87s-.55.57-.8.47A8.09,8.09,0,0,0,292,4.38c-.87,0-1.75.26-1.73-1.27S291.1,1.8,291.86,1.88Z"/><path d="M391.67,18A14.16,14.16,0,0,0,388,17.3c-.78-.05-.62-.85-.43-1.07.41-.48.22-1.74,1.26-1.37a15,15,0,0,0,3.55.71c.52,0,1.43.23,1.15.95C393.36,17.07,393.43,18.23,391.67,18Z"/><path d="M143.71,6.2c.28,2.7.28,2.73-2.37,2.68a2.64,2.64,0,0,0-1.1.35c-1.31.51-2,.32-2.1-1.33,0-.86.15-1,.89-1A16.61,16.61,0,0,0,143.71,6.2Z"/><path d="M105.7,13.79c-.09-.89.17-1.3,1.08-1.57a33.22,33.22,0,0,1,3.55-.58c.32-.06,1.15-.17,1.14.79,0,.8-.18,1.62-1,1.57-1.35-.11-2.5.58-3.79.67C105.78,14.74,105.55,14.56,105.7,13.79Z"/><path d="M159.81,6.92c0-.89-.29-2.08.07-2.32A6.34,6.34,0,0,1,162.55,4a2.93,2.93,0,0,1,1.59,0c.44.23,1.27-1,1.27.33,0,.73.4,1.54-.89,1.93C163,6.79,161.32,6.07,159.81,6.92Z"/><path d="M271.37,1.14c.56-.72,1.2-.07,1.8-.25,1.1-.34,1.28.32,1.36,1.24s-.3,1.1-1.13,1c-1.31-.08-2.64,0-3.95-.12-.25,0-1.39.18-.86-.79.27-.5-.31-1.91,1.15-1.36C270.31,1.11,270.9.29,271.37,1.14Z"/><path d="M46.06,16.5c-.47-1.58-1-3.05-1.27-4.59-.2-1,.08-1,.82-.71a12,12,0,0,0,2,.65c.64.12,1.74.24,1.69.57A2.28,2.28,0,0,1,48,14.24C47,14.66,47.11,16,46.06,16.5Z"/><path d="M285.2,4a12.73,12.73,0,0,0-4.5-.35c-1,0-1.2-.38-1.17-1.26s.05-1.31,1.11-1.32c1.38,0,2.66.62,4.05.41.39-.06.63.09.53.62A11.81,11.81,0,0,0,285.2,4Z"/><path d="M305.56,5.37c-1.44-.11-2.52-.23-3.61-.27-1.28,0-.68-1-.79-1.59-.16-.85.4-1.12,1-.91a9.89,9.89,0,0,0,4,.4c.3,0,1,.06.81,1C306.77,5.09,306.57,5.84,305.56,5.37Z"/><path d="M173.78,5.47a4.12,4.12,0,0,0-1.71,0c-.5.11-1.4,1.18-1.56-.27-.09-.87-.31-1.93,1.32-1.92A13.45,13.45,0,0,0,174.58,3c1.4-.29,1.89.64,1.88,1.58s-1.05.88-1.76.81C174.36,5.34,174.05,5.19,173.78,5.47Z"/><path d="M239,2.28c-.5.73-1.16,0-1.78.19-1,.34-1.25-.29-1.25-1.15S236.24,0,237.26.11a11.6,11.6,0,0,0,3.11.08c1-.15,1.43-.11,1.43,1.13s-.41,1.3-1.43,1.14C240,2.39,239.47,2.62,239,2.28Z"/><path d="M116.55,13c.22-3,.22-3,3.73-3.27A3.55,3.55,0,0,0,122,9.56c.49,2.36.3,2.65-2.06,2.71-.67,0-1.27.37-1.87.32S117,12.45,116.55,13Z"/><path d="M206,3c-.48.33-1.09,0-1.46.11-1.18.4-1.21-.1-1.3-1.05-.11-1.21.66-1.32,1.43-1.27,1,.06,2-.07,2.93.05.42.05,1.74-.61,1.42.86-.18.8,0,2-1.57,1.38C207.06,3,206.45,3.47,206,3Z"/><path d="M249.21,2.3c-.1-.11-.34.28-.46.2-.62-.35-1.78.72-1.95-.72S247.39,0,248.63.07c.8,0,1.62,0,2.41,0s1.56-.18,1.56,1.16-.86,1.41-1.6,1.21S249.87,2.91,249.21,2.3Z"/></g></g></svg>