<svg xmlns="http://www.w3.org/2000/svg" viewBox="0 0 271 87.69"><title>Asset 1</title><g id="Layer_2" data-name="Layer 2"><g id="Layer_1-2" data-name="Layer 1"><path d="M262.18,14c-1.06-4.62-2.12-9.24-3.22-14l11.18,4c.78.27,1.28.36.35,1.3-2.06,2-3.92,4.27-5.85,6.43C263.93,12.5,263,13.09,262.18,14Z"/><path d="M61.45,67.08c-.3-1,.29-1.3.84-1.48,2.74-.89,5.5-1.75,8.26-2.58.73-.23,1.59-.29,1.56.81,0,.88,1.37,2.11-.66,2.61-2.94.73-5.83,1.65-8.71,2.57C61.26,69.48,62,67.48,61.45,67.08Z"/><path d="M134,47c.09.59-.36.49-.68.59-3,.93-5.92,1.9-8.9,2.81-1.28.39-1.34-.79-1.43-1.46s-1-1.53.59-1.93c2.93-.72,5.77-1.77,8.67-2.64.3-.09.6,0,1,.43C133.9,45.51,133.29,46.44,134,47Z"/><path d="M235,13.14c1.46.15.67,1.52,1.12,2.24.23.38.23,1-.72,1.25-3,.73-6,1.64-8.93,2.54-.17,0-.46.33-.56.2a6.06,6.06,0,0,1-.83-2.65c-.13-.64.53-.74,1.08-.9C229.14,15,232.07,14.05,235,13.14Z"/><path d="M164.38,38.11c0-.26-.09-.54-.13-.82-.12-.79-1-1.59-.49-2.27.56-.83,1.77-.79,2.69-1.1,2.05-.69,4.13-1.29,6.23-1.82.52-.13,1.48-1.24,1.68.39.12,1,1.32,2.22-.52,2.79C170.72,36.25,167.59,37.15,164.38,38.11Z"/><path d="M154.31,40.57c.2.51-.1.7-.34.77-3,.88-6,1.69-9,2.63-.84.26-1.26.35-1.41-.69s-.92-2,.44-2.51c1.93-.72,3.93-1.24,5.91-1.84a19.53,19.53,0,0,0,2.25-.7c1.45-.63,2,0,1.83,1.35C154,40.06,154.27,40.32,154.31,40.57Z"/><path d="M102.9,56.91a2.7,2.7,0,0,0,0-.77,6.38,6.38,0,0,1-.58-2.79c1,.28,1.78-.56,2.69-.8,2.25-.58,4.49-1.21,6.69-2,.82-.29,1.36.08,1.26.59-.15.8,1.38,1.58,0,2.35a25.57,25.57,0,0,1-5.48,1.89A36.75,36.75,0,0,0,102.9,56.91Z"/><path d="M81.88,60.75c.17-.63,0-1.21,1.13-1.45,2.82-.62,5.52-1.73,8.32-2.52.87-.25.87.27,1,.51,1,1.54.51,2.71-1.24,3.18-2.3.62-4.6,1.21-6.83,2C82.43,63.21,81.86,62.76,81.88,60.75Z"/><path d="M11,83.71c-.2.56-.1,1.09-1.08,1.31-2.8.65-5.55,1.56-8.28,2.49-.91.31-1.26.29-1.44-.72-.39-2.32-.38-2.18,2-3a58.89,58.89,0,0,0,6.61-2.08C10.25,81.1,10.94,81.78,11,83.71Z"/><path d="M20.36,79c-.1-.56.16-.78.82-1A91.15,91.15,0,0,0,30,75.28a.67.67,0,0,1,.93.72c-.2.88,1.62,1.88-.11,2.61a16.44,16.44,0,0,1-3.36,1.14,37.93,37.93,0,0,0-4.81,1.54C21,81.79,20.39,81.14,20.36,79Z"/><path d="M245.57,10.46c-.06-.5.23-.59.71-.73,2.93-.87,5.83-1.84,8.75-2.73.69-.21,1.62-.43,1.19.85-.19.6.4.66.42,1,0,.73.32,1.36-1,1.51a27.91,27.91,0,0,0-5.13,1.55c-1.1.35-2.22.68-3.32,1.06-.55.18-1,.2-1.15-.46S245.72,11.17,245.57,10.46Z"/><path d="M215.65,21.57c.22.86-.21,1.06-.88,1.25-2.74.77-5.46,1.6-8.18,2.46-.82.25-1.43.21-1.46-.77s-1.48-2.11.47-2.48c3-.58,5.77-2.05,8.85-2.45.69-.09.89-.63.89.37C215.33,20.55,216,21,215.65,21.57Z"/><path d="M195.28,28.35c.28.56-.18.41-.41.48-3,1-6,2-9.06,2.8-1.74.45-1.16-1.37-1.62-2.16s.11-.9.77-1.09c2.65-.76,5.31-1.5,7.88-2.48,1.57-.59,2.19-.16,2.15,1.36C195,27.72,195.28,28,195.28,28.35Z"/><path d="M41.13,72.88c-.68-.92.3-1.07.69-1.15a75.58,75.58,0,0,0,8.06-2.45c.79-.26,1.67-.37,1.73.75,0,.93,1.16,2.27-.81,2.69a36.25,36.25,0,0,0-6.89,2.09C41.75,75.76,41.34,75.47,41.13,72.88Z"/></g></g></svg>