<svg xmlns="http://www.w3.org/2000/svg" viewBox="0 0 326.86 5.29"><defs><style>.cls-1{fill:#333232;}</style></defs><title>Asset 1</title><g id="Layer_2" data-name="Layer 2"><g id="Layer_1-2" data-name="Layer 1"><path class="cls-1" d="M8.45,5.29C8.5,4,7.76,3.76,6.7,3.8c-1.76.07-3.52.05-5.28,0C.18,3.79,0,3.59,0,2.48S.08,1.36,1.35,1.35c1.94,0,3.88,0,5.82,0,.65,0,1.23,0,1.26-.89,0-.36.25-.53.62-.41,2.07.66,4.1,1.47,6.22,2,.29.08.61.33.57.63s-.26.75-.67.76C12.86,3.42,10.9,4.69,8.45,5.29Z"/><path class="cls-1" d="M22.88,3.52c-.48,0-1,0-1.45,0-.66,0-1-.26-1-1s.33-.86.92-.86h3.26c.6,0,.9.26.9.86s-.2.93-.82.94H22.88Z"/><path class="cls-1" d="M32.78,3.51H31.14c-.6,0-.86-.31-.86-.9s.25-.9.86-.9c1.15,0,2.3,0,3.45,0,.65,0,.78.43.77,1a.72.72,0,0,1-.77.81c-.6,0-1.21,0-1.81,0Z"/><path class="cls-1" d="M52.07,3.51c-.54,0-1.09,0-1.63,0s-.79-.43-.77-1,.24-.8.76-.8c1.21,0,2.42,0,3.63,0,.54,0,.68.41.68.88s-.13.86-.67.88-1.33,0-2,0Z"/><path class="cls-1" d="M62.15,3.51H60.33c-.62,0-.84-.36-.83-.93a.77.77,0,0,1,.89-.87h3.27c.58,0,.9.23.92.85s-.31,1-1,1c-.49,0-1,0-1.45,0Z"/><path class="cls-1" d="M81.29,3.51c-.55,0-1.09,0-1.63,0s-.79-.43-.77-1,.25-.8.76-.8c1.21,0,2.42,0,3.63,0,.54,0,.68.41.68.88s-.13.86-.67.88-1.33,0-2,0Z"/><path class="cls-1" d="M91.19,3.51H89.56c-.62,0-.84-.35-.84-.92s.29-.89.89-.88c1.15,0,2.3,0,3.45,0,.52,0,.73.33.74.82s-.16,1-.79,1Z"/><path class="cls-1" d="M110.61,3.51H109c-.6,0-.87-.3-.87-.89s.24-.91.86-.91c1.15,0,2.3,0,3.45,0,.64,0,.79.42.77,1s-.24.8-.76.81-1.21,0-1.81,0Z"/><path class="cls-1" d="M120.48,3.51h-1.64c-.59,0-.89-.25-.9-.86s.2-.94.82-.94h3.45c.63,0,.82.38.81,1s-.32.86-.91.86Z"/><path class="cls-1" d="M139.85,1.71c.6,0,1.21,0,1.81,0s.73.33.74.83-.16,1-.79,1h-3.45c-.62,0-.84-.35-.84-.93a.77.77,0,0,1,.89-.87Z"/><path class="cls-1" d="M149.57,3.51c-.55,0-1.09,0-1.63,0s-.79-.43-.77-1,.25-.8.76-.8c1.21,0,2.42,0,3.63,0,.54,0,.68.41.68.88s-.13.86-.67.88-1.33,0-2,0Z"/><path class="cls-1" d="M159.36,3.51h-1.81c-.62,0-.87-.31-.87-.9s.25-.91.86-.9c1.15,0,2.3,0,3.45,0,.65,0,.79.43.77,1a.71.71,0,0,1-.76.8c-.55,0-1.09,0-1.64,0Z"/><path class="cls-1" d="M168.9,3.51h-1.44c-.58,0-.91-.24-.92-.85s.18-.95.81-1h3.43c.62,0,.83.36.83.93a.77.77,0,0,1-.9.87Z"/><path class="cls-1" d="M178.86,3.51h-1.64c-.62,0-.84-.35-.84-.92s.29-.89.89-.88c1.15,0,2.3,0,3.45,0,.53,0,.73.33.74.82s-.15,1-.79,1Z"/><path class="cls-1" d="M188.4,3.51h-1.64c-.61,0-.86-.32-.86-.9s.26-.91.87-.9c1.15,0,2.3,0,3.45,0,.64,0,.78.43.76,1s-.25.79-.77.8-1.21,0-1.81,0Z"/><path class="cls-1" d="M198.25,3.51h-1.63c-.61,0-.86-.32-.86-.9s.25-.91.86-.9c1.15,0,2.29,0,3.44,0,.52,0,.75.29.76.8s-.12,1-.76,1-1.21,0-1.81,0Z"/><path class="cls-1" d="M208.14,3.52c-.48,0-1,0-1.45,0s-1.07-.11-1.09-.87.35-1,1-.95q1.54,0,3.09,0c.66,0,1,.24,1,1s-.49.87-1.1.86S208.63,3.52,208.14,3.52Z"/><path class="cls-1" d="M217.51,3.51c-.55,0-1.09,0-1.64,0s-.73-.32-.74-.82.15-1,.79-1h3.45c.61,0,.84.34.84.92s-.29.89-.89.88Z"/><path class="cls-1" d="M227.51,1.7c.48,0,1,0,1.45,0s1.07.1,1.09.86-.33,1-1,1c-1,0-2.05,0-3.08,0-.65,0-1-.24-1-1s.47-.88,1.08-.87S227,1.7,227.51,1.7Z"/><path class="cls-1" d="M237.41,1.71h1.64c.61,0,.86.31.86.9s-.25.91-.86.9H235.6c-.52,0-.76-.29-.77-.8s.12-1,.77-1,1.21,0,1.81,0Z"/><path class="cls-1" d="M247.05,1.71c.54,0,1.09,0,1.63,0s.73.33.74.82-.15,1-.79,1h-3.45c-.62,0-.84-.35-.84-.92s.29-.89.89-.88Z"/><path class="cls-1" d="M256.77,3.51c-.61,0-1.21,0-1.81,0s-.74-.31-.75-.81.14-1,.78-1c1.14,0,2.29,0,3.43,0,.62,0,.85.34.85.91s-.27.9-.87.89Z"/><path class="cls-1" d="M266.69,3.51h-1.81c-.62,0-.84-.36-.84-.93a.77.77,0,0,1,.9-.87h3.27c.57,0,.9.23.92.85s-.32,1-1,1c-.48,0-1,0-1.45,0Z"/><path class="cls-1" d="M276.09,3.51h-1.64a.77.77,0,0,1-.89-.87c0-.58.22-.93.84-.93h3.45c.64,0,.81.4.8,1s-.22.81-.75.82-1.21,0-1.81,0Z"/><path class="cls-1" d="M285.92,3.51H284.3c-.61,0-.87-.3-.87-.89s.23-.91.84-.91c1.15,0,2.29,0,3.44,0,.64,0,.79.42.77,1s-.23.8-.75.81-1.2,0-1.81,0Z"/><path class="cls-1" d="M295.83,3.51c-.61,0-1.21,0-1.82,0s-.73-.32-.74-.82.15-1,.79-1h3.45c.62,0,.84.34.84.92s-.29.89-.89.88Z"/><path class="cls-1" d="M305.36,1.71H307c.61,0,.88.3.88.89s-.24.91-.85.91c-1.15,0-2.3,0-3.45,0-.64,0-.8-.41-.78-1s.23-.8.76-.81,1.21,0,1.81,0Z"/><path class="cls-1" d="M315.08,3.52c-.49,0-1,0-1.45,0-.67,0-1-.26-1-1s.33-.85.91-.85c1.09,0,2.17,0,3.26,0a.78.78,0,0,1,.89.87c0,.58-.2.94-.82.94h-1.81Z"/><path class="cls-1" d="M42.52,1.71H44c.59,0,.9.25.9.86s-.2.94-.83.94H41c-.64,0-.83-.38-.82-.95s.34-.86.92-.85Z"/><path class="cls-1" d="M71.78,3.51H70.14a.71.71,0,0,1-.77-.8c0-.56.13-1,.77-1,1,0,2.07,0,3.1,0,.61,0,.87.31.87.9s-.27.91-.88.9Z"/><path class="cls-1" d="M101,1.71h1.46c.6,0,.88.28.89.88s-.24.92-.86.92H99.38c-.64,0-.81-.41-.79-1s.23-.81.75-.82Z"/><path class="cls-1" d="M130.17,1.71h1.45c.59,0,.91.23.92.85s-.18,1-.81,1h-3.1c-.62,0-.83-.36-.83-.94s.32-.87.91-.86Z"/><path class="cls-1" d="M324.63,3.51h-1.28c-.61,0-.86-.31-.87-.9s.26-.91.87-.9c.91,0,1.82,0,2.73,0,.65,0,.79.43.78,1s-.26.79-.77.8Z"/></g></g></svg>