<?xml version="1.0" encoding="UTF-8"?>
<svg id="Layer_2" data-name="Layer 2" xmlns="http://www.w3.org/2000/svg" viewBox="0 0 150.6 176.4">
  <defs>
    <style>
      .cls-1 {
        fill: #231f20;
      }
    </style>
  </defs>
  <g id="Layer_1-2" data-name="Layer 1">
    <path class="cls-1" d="M42,142.5c7.8,3.9,33.9,17.1,41.1,17.1,16.8,0,30-20.7,33.9-21.9l2.1,1.8v1.2c-9.6,11.7-31.5,35.7-47.4,35.7-8.7,0-39.6-14.7-46.8-17.7l-21,16.5-3.9-2.4c.6-2.1,27.6-31.8,29.4-32.4,1.8-.3,4.8-.6,6.6.3,24.6-21.9,93.6-84,93.6-118.2,0-9.3-5.7-13.2-14.4-13.2-22.8,0-42,27-49.5,46.5l-1.2,1.2h-3.6l-.6-1.8C69.6,29.1,93,0,123.3,0c15.3,0,27.3,8.7,27.3,24.9,0,32.4-85.8,98.7-108.6,117.6Z"/>
  </g>
</svg>