<?xml version="1.0" encoding="UTF-8"?>
<svg id="Layer_2" data-name="Layer 2" xmlns="http://www.w3.org/2000/svg" viewBox="0 0 142.8 176.7">
  <defs>
    <style>
      .cls-1 {
        fill: #231f20;
      }
    </style>
  </defs>
  <g id="Layer_1-2" data-name="Layer 1">
    <path class="cls-1" d="M76.2,75.3c17.7,0,40.5,6,40.5,27.6,0,36.9-54.6,73.8-88.8,73.8-9.3,0-20.1-1.5-27.9-7.2v-1.5l2.1-1.8,1.5-.6c5.7,2.7,14.7,4.5,21,4.5,30.9,0,71.7-37.8,71.7-69.6,0-12.3-9.6-18.6-21-18.6-6.9,0-14.4,2.4-21,4.2l-2.1-.9-.3-2.7,1.2-1.5c21.9-8.7,69-31.5,69-60.6,0-7.5-4.5-10.8-11.7-10.8-15.6,0-31.8,15.9-41.4,26.7h-1.5l-2.1-1.8v-1.5C78.9,16.5,97.5,0,120,0c12,0,22.8,5.1,22.8,18.6,0,30-43.2,48.3-66.6,56.7Z"/>
  </g>
</svg>