<?xml version="1.0" encoding="UTF-8"?>
<svg id="Layer_2" data-name="Layer 2" xmlns="http://www.w3.org/2000/svg" viewBox="0 0 121.8 173.7">
  <defs>
    <style>
      .cls-1 {
        fill: #231f20;
      }
    </style>
  </defs>
  <g id="Layer_1-2" data-name="Layer 1">
    <path class="cls-1" d="M11.4,110.1l65.1-1.2,19.5-37.8c2.7-5.7,11.7-5.4,17.1-5.7l1.8.9.3,1.8c0,1.5-18,36.3-20.1,39.9h7.2l1.8,1.2-1.5,3.3-2.1,1.5-8.7.3c-3.6,7.2-24.9,51.6-28.2,54.9-1.5,1.5-16.8,4.5-19.2,4.5l-1.5-.3v-1.2c0-2.1,27.3-52.2,30-57L0,117v-2.4c.3-.6.6-1.5,1.2-2.1,13.2-16.5,32.4-33.6,46.8-49.8,14.1-15.9,27.6-31.8,40.5-48.9C98.4.9,103.5,3,119.4,0l2.1.9.3,2.1c.6,9.6-100.8,98.4-110.4,107.1Z"/>
  </g>
</svg>