<?xml version="1.0" encoding="UTF-8"?>
<svg id="Layer_2" data-name="Layer 2" xmlns="http://www.w3.org/2000/svg" viewBox="0 0 134.1 176.4">
  <defs>
    <style>
      .cls-1 {
        fill: #231f20;
      }
    </style>
  </defs>
  <g id="Layer_1-2" data-name="Layer 1">
    <path class="cls-1" d="M88.8,87.9c5.4,12,5.7,20.4,5.7,33.6,0,30-31.5,54.9-60.3,54.9-17.4,0-34.2-9.9-34.2-29.1,0-28.2,40.2-58.8,61.2-74.4-3.3-7.5-5.1-15.9-5.1-24C56.1,22.5,80.7,0,106.5,0c15,0,27.6,6.9,27.6,23.1,0,24.9-27.9,49.5-45.3,64.8ZM62.7,78.6c-21,15.6-48.9,40.8-48.9,69.6,0,13.2,7.2,21.9,21,21.9,22.5,0,40.5-22.5,40.5-44.1,0-14.7-6.9-33.6-12.6-47.4ZM106.8,6c-17.1,0-31.2,16.5-31.2,33,0,13.2,6.6,30.6,11.1,42.6,16.2-13.2,36.6-36.6,36.6-58.8,0-10.5-6-16.8-16.5-16.8Z"/>
  </g>
</svg>