<?xml version="1.0" encoding="UTF-8"?>
<svg id="Layer_2" data-name="Layer 2" xmlns="http://www.w3.org/2000/svg" viewBox="0 0 110.91 198.61">
  <defs>
    <style>
      .cls-1 {
        fill: #231f20;
      }
    </style>
  </defs>
  <g id="Layer_1-2" data-name="Layer 1">
    <path class="cls-1" d="M10.39,198.61c-6.9,0-11.4-5.4-10.2-12.3.9-6.9,7.5-12.3,14.4-12.3s11.4,5.4,10.2,12.3c-1.2,6.9-7.5,12.3-14.4,12.3ZM24.19,146.41c-1.5,3.6-6.6,1.8-5.7-2.1,7.2-30,38.1-62.7,60.3-90.6,26.4-33.3-1.2-49.5-30.3-35.4-9,4.5-18,13.5-16.8,20.7,1.2-4.8,5.7-8.1,10.5-10.8,17.7-9.6,25.8,11.1,12,21.9-15.9,12.3-34.5-.3-25.8-21,3.9-8.7,13.8-15,21.9-19.8,41.7-23.7,87.6-.6,41.1,51.9-25.8,29.4-51.9,44.7-67.2,85.2Z"/>
  </g>
</svg>