<?xml version="1.0" encoding="UTF-8"?>
<svg id="Layer_2" xmlns="http://www.w3.org/2000/svg" version="1.1" viewBox="0 0 92.9 119">
  <!-- Generator: Adobe Illustrator 29.5.0, SVG Export Plug-In . SVG Version: 2.1.0 Build 137)  -->
  <defs>
    <style>
      .st0 {
        fill: #fdfdfd;
      }

      .st0, .st1, .st2, .st3, .st4, .st5 {
        stroke: #231f20;
        stroke-miterlimit: 10;
        stroke-width: 2px;
      }

      .st1 {
        fill: #565354;
      }

      .st2 {
        fill: #c6c5c5;
      }

      .st3 {
        fill: #868485;
      }

      .st4 {
        fill: #231f20;
      }

      .st5 {
        fill: #585556;
      }
    </style>
  </defs>
  <path class="st4" d="M51.4,0c14.7.7,27.1,10.9,33.9,23.5.2-4.8.1-9.7,0-14.5,0-2,0-5.4,1.3-6.9,2.1-2.6,7-1.4,6.4,2.3.2,35.9.2,73.5,0,109.4.6,3.1-3.8,4.7-6,2.9s-1.9-1.8-1.2-2.3l-.5-.2v-19.1l.5-1.5c-.7,2.3-2.5,5.4-4,7.3-4,5-7,8.7-12.5,12.3s-10.7,5.5-16.9,5.9h-9.4C17.1,117,1,91.1,0,66.9v-1c0-.5.2-1,.2-1.4,0-.4-.2-.8-.2-1.2v-6.7c.2-.6.2-1.1,0-1.7v-3.4C1.7,28.1,17.9,1.9,42.7,0h8.6Z"/>
  <path class="st0" d="M42.7,0l-7.6,1.9C18.3,6.9,6.9,23.5,2.5,39.8s-1.6,7.9-2.5,11.8V0h42.7Z"/>
  <path class="st0" d="M43,119H0v-52.1c.9,3.4,1.1,6.9,1.8,10.3,3.6,17.1,15.3,34.3,32.6,39.7,2.8.9,5.7,1.3,8.6,2.1Z"/>
  <path class="st0" d="M92.9,113.7c0-.2.1-.2.2,0v5.3h-40.8c2.1-.7,4.3-.9,6.5-1.6,9-2.6,17.2-9.2,22.5-16.9l4.4-7v20.8c0,.3,1.2,1.8,1.6,2,2.2,1.4,5.3,0,5.6-2.6Z"/>
  <path class="st0" d="M51.4,0h41.8v4.3c0,.2-.1.2-.2,0-.5-4.1-5.9-4.3-6.8-.4s-.4,3.1-.4,4.1c-.3,5.7.8,11.5-.1,17.2-5.6-11.4-15.7-21-28.3-24S53.2.7,51.4,0Z"/>
  <rect class="st2" x="92.9" y="4.3" width=".2" height="109.4"/>
  <path class="st1" d="M0,56.6v-1.7c.5.5.5,1.2,0,1.7Z"/>
  <path class="st3" d="M0,66v-1.4c0-.2.1-.2.2,0,0,.4.2,1.2-.2,1.4Z"/>
  <path class="st5" d="M.2,64.5h-.2v-1.2c.4.2.2.8.2,1.2Z"/>
  <path class="st0" d="M44.6,8c7-.5,14.3,1.2,20.2,4.9,34.6,21.6,26,103.9-21.9,98C-5.4,104.9-4,11.5,44.6,8Z"/>
</svg>