<?xml version="1.0" encoding="UTF-8"?>
<svg id="Layer_2" xmlns="http://www.w3.org/2000/svg" version="1.1" viewBox="-3 -3 90.1 211.6">
  <!-- Generator: Adobe Illustrator 29.5.0, SVG Export Plug-In . SVG Version: 2.1.0 Build 137)  -->
  <defs>
    <style>
      .st6 {
        fill: #231f20;
        stroke: #000;
        stroke-miterlimit: 10;
        stroke-width: 2px;
      }

      .st2 {
        fill: #ffffff;
        stroke: #000;
        stroke-miterlimit: 10;
        stroke-width: 2px;
      }
    </style>
  </defs>
  <path class="st6" d="M6.2,1.8c1.9,1.1,2.9,2.7,3.1,4.9-.6,30.6.8,61.3,0,91.9-.1,4.2-.6,8.2-.5,12.6s.2,8.4.7,11.2.6.7.7,1.2,0,1.7,0,2.5c1.9-2.1,3.2-4.6,5-6.8,24-27.4,63.5-7.5,67.8,24.8l1,7.9v.7c-.2.3-.2.6,0,1v1c-.2.7-.2,1.4,0,2.1v.5c0,.5-.2,1-.2,1.4.2.4.2.8,0,1.2,1.2,18.8-12.5,40.5-31.4,45.2s-14.5,1.3-19.8-.3c-9.3-2.7-18.1-9.5-22.7-17.8.2,5.2,0,10.3-.4,15.4-.5,4.4-9.4,5.2-9.7.6V5.3C.2,3.6,1.2,1.9,3.1,1.8h3.1Z"/>
  <path class="st2" d="M41.9,113.9c44.8-1.1,47.1,78.9,4.5,83.6S-2.4,115,41.9,113.9Z"/>
</svg>