<?xml version="1.0" encoding="UTF-8"?>
<svg id="Layer_2" xmlns="http://www.w3.org/2000/svg" version="1.1" viewBox="0 0 84.1 205.6">
  <!-- Generator: Adobe Illustrator 29.5.0, SVG Export Plug-In . SVG Version: 2.1.0 Build 137)  -->
  <defs>
    <style>
      .st0 {
        fill: #f4f4f4;
      }

      .st0, .st1, .st2, .st3, .st4, .st5, .st6 {
        stroke: #000;
        stroke-miterlimit: 10;
        stroke-width: 2px;
      }

      .st1 {
        fill: #908f8f;
      }

      .st2 {
        fill: #fefefe;
      }

      .st3 {
        fill: #9a9999;
      }

      .st4 {
        fill: #a9a7a7;
      }

      .st5 {
        fill: #f0f0f0;
      }

      .st6 {
        fill: #232020;
      }
    </style>
  </defs>
  <path class="st2" d="M6.2,1.8h78v150.1h-.5c-.9-8.2-2.1-16.2-6.5-23.8-14.8-25.6-49.2-29.7-65.4-3.2-.8,1.4-1.5,1.7-2,.9.3-1.3,0-2.4-.7-3.3-1.1-7.8-.8-15.9-.2-23.9.3-23.2.2-46.3-.2-69.5V6.6c0-1.7-.8-3.3-2.3-4.2l-.2-.7Z"/>
  <path class="st6" d="M6.2,1.8c1.9,1.1,2.9,2.7,3.1,4.9-.6,30.6.8,61.3,0,91.9-.1,4.2-.6,8.2-.5,12.6s.2,8.4.7,11.2.6.7.7,1.2,0,1.7,0,2.5c1.9-2.1,3.2-4.6,5-6.8,24-27.4,63.5-7.5,67.8,24.8l1,7.9v.7c-.2.3-.2.6,0,1v1c-.2.7-.2,1.4,0,2.1v.5c0,.5-.2,1-.2,1.4.2.4.2.8,0,1.2,1.2,18.8-12.5,40.5-31.4,45.2s-14.5,1.3-19.8-.3c-9.3-2.7-18.1-9.5-22.7-17.8.2,5.2,0,10.3-.4,15.4-.5,4.4-9.4,5.2-9.7.6V5.3C.2,3.6,1.2,1.9,3.1,1.8h3.1Z"/>
  <path class="st2" d="M84.2,159.7v46.2H0v-3.1c1.6,4.4,8.7,3.4,9.3-1.1.2-1.3.2-3.6.3-5,.2-4.4-.2-8.8.1-13.2.2,3,2.1,5.4,4,7.7,6.1,7.4,15.4,13,25.1,14.1,26.2,3.1,45.1-21.6,45.2-45.6,0-.2.1-.2.2,0Z"/>
  <path class="st0" d="M3.1,1.8C1.5,2.6.8,3.8,0,5.3V1.8h3.1Z"/>
  <path class="st1" d="M84.2,156.6c-.4-.4-.4-1.7,0-2.1v2.1Z"/>
  <path class="st4" d="M84.2,158.5c0,.2-.1.2-.2,0,0-.4-.2-1.2.2-1.4v1.4Z"/>
  <path class="st5" d="M84.2,159.7h-.2c0-.4,0-.8,0-1.2h.2v1.2Z"/>
  <path class="st3" d="M84.2,153.5c-.3-.3-.3-.7,0-1v1Z"/>
  <path class="st2" d="M41.9,113.9c44.8-1.1,47.1,78.9,4.5,83.6S-2.4,115,41.9,113.9Z"/>
</svg>