<?xml version="1.0" encoding="UTF-8"?>
<svg id="Layer_2" xmlns="http://www.w3.org/2000/svg" version="1.1" viewBox="-1 -1 87.4 124.3">
  <!-- Generator: Adobe Illustrator 29.5.0, SVG Export Plug-In . SVG Version: 2.1.0 Build 137)  -->
  <defs>
    <style>
      .st6 {
        fill: #231f20;
        stroke: #000;
        stroke-miterlimit: 10;
        stroke-width: 2px;
      }
    </style>
  </defs>
  
  
  
  
  
  
  
  
  
  
  
  
  
  <path class="st6" d="M44.9-.1c.5.2,1,.2,1.4,0h6.7c10,.2,18.6,5,25.9,11.5s6.5,6.3,6.4,8.4,0,.2,0,.3c.2.7.2,1.7,0,2.4-.2,1.7-2.1,3.8-3.8,4-3.3.5-4.4-2.6-6.2-4.5-10.2-11.1-24.7-15.4-39.1-10.1C-3.3,26.5.8,106.9,44.3,112.2c13,1.6,22.6-3.6,31.2-12.7s3.2-5.2,6.8-3.3,3,5.8.8,8.7c-5.7,7.6-15.9,14.3-25.2,16.3-2.1.4-4.2.6-6.3,1h-.5c-1.7-.2-3.4-.2-5,0h-.7C17.1,121.3.7,92.4,0,67.1v-.5c0-.5.2-1,.2-1.4,0-.5-.1-.9-.2-1.4v-6.7c.2-.5.2-1.1,0-1.7,0-.6,0-1.1,0-1.7C.5,28.8,17.2,1.4,43.9-.1h1Z"/>
</svg>