<?xml version="1.0" encoding="UTF-8"?>
<svg id="Layer_2" xmlns="http://www.w3.org/2000/svg" version="1.1" viewBox="0 0 85.4 122.3">
  <!-- Generator: Adobe Illustrator 29.5.0, SVG Export Plug-In . SVG Version: 2.1.0 Build 137)  -->
  <defs>
    <style>
      .st0 {
        fill: #918f8f;
      }

      .st0, .st1, .st2, .st3, .st4, .st5, .st6 {
        stroke: #000;
        stroke-miterlimit: 10;
        stroke-width: 2px;
      }

      .st1 {
        fill: #575455;
      }

      .st2 {
        fill: #fefefe;
      }

      .st3 {
        fill: #555253;
      }

      .st4 {
        fill: #908e8f;
      }

      .st5 {
        fill: #716f70;
      }

      .st6 {
        fill: #231f20;
      }
    </style>
  </defs>
  <path class="st2" d="M85.2,22.5c0-.2.1-.2.2,0v99.8h-33.8l.4-.4c6.1-1,11.5-2.3,17-5.4s16-10.8,15.6-16.5-4.2-5.3-6.4-2.9c-13.3,17.9-38,21.9-54.5,5.4S3.8,47,18.1,25.9s44.8-22.1,60.2-.9c2.4,2.4,5.6.4,6.4-2.4h.5Z"/>
  <path class="st6" d="M44.9-.1c.5.2,1,.2,1.4,0h6.7c10,.2,18.6,5,25.9,11.5s6.5,6.3,6.4,8.4,0,.2,0,.3c.2.7.2,1.7,0,2.4-.2,1.7-2.1,3.8-3.8,4-3.3.5-4.4-2.6-6.2-4.5-10.2-11.1-24.7-15.4-39.1-10.1C-3.3,26.5.8,106.9,44.3,112.2c13,1.6,22.6-3.6,31.2-12.7s3.2-5.2,6.8-3.3,3,5.8.8,8.7c-5.7,7.6-15.9,14.3-25.2,16.3-2.1.4-4.2.6-6.3,1h-.5c-1.7-.2-3.4-.2-5,0h-.7C17.1,121.3.7,92.4,0,67.1v-.5c0-.5.2-1,.2-1.4,0-.5-.1-.9-.2-1.4v-6.7c.2-.5.2-1.1,0-1.7,0-.6,0-1.1,0-1.7C.5,28.8,17.2,1.4,43.9-.1h1Z"/>
  <path class="st2" d="M45.4,122.3H0v-55.2l1.8,11.5c4.1,19.6,16.9,38.4,37.5,42.6,2,.4,4.1.5,6,1Z"/>
  <path class="st2" d="M43.9-.1c-4.6.9-8.8,1.7-13.1,3.6C11.4,11.9,1.6,33.4,0,53.7V-.1h43.9Z"/>
  <path class="st2" d="M53-.1h32.4v20.2c0,.2-.1.2-.2,0-.3-2.3-6.3-8.2-8.3-9.8-5.1-4.3-11.4-7.7-17.9-9.2s-4-.6-6-1.1Z"/>
  <path class="st4" d="M51.1,122.3h-5c1.5-.4,3.6-.4,5,0Z"/>
  <path class="st5" d="M85.4,22.5h-.2c0-.6,0-1.8,0-2.4h.2v2.4Z"/>
  <path class="st1" d="M0,57v-1.7c.4.3.4,1.4,0,1.7Z"/>
  <path class="st1" d="M46.3-.1c-.2.4-1.2.4-1.4,0h1.4Z"/>
  <path class="st3" d="M.3,65.2c0,.2-.1.2-.2,0v-1.4c.4.3.2,1,.2,1.4Z"/>
  <path class="st0" d="M0,66.6v-1.4h.2c0,.5.2,1.2-.2,1.4Z"/>
</svg>