<?xml version="1.0" encoding="UTF-8"?>
<svg id="Layer_2" xmlns="http://www.w3.org/2000/svg" version="1.1" viewBox="-1 -1 85.6 209.8">
  <!-- Generator: Adobe Illustrator 29.5.0, SVG Export Plug-In . SVG Version: 2.1.0 Build 137)  -->
  <defs>
    <style>
      .st5 {
        fill: #231f20;
        stroke: #000;
        stroke-miterlimit: 10;
        stroke-width: 2px;
      }

      .st4 {
        fill: #ffffff;
        stroke: #000;
        stroke-miterlimit: 10;
        stroke-width: 2px;
      }
    </style>
  </defs>
  <path class="st5" d="M80.4,0c1.5.2,2.5,1.6,2.9,3v197.9c0,4.4-6.3,6.4-8.5,2.3s-1.4-3.5-.5-4l-.5-.2v-11.5l.5-2.3c-.6,4.5-4,8.5-7.1,11.7-5.4,5.6-13.1,11-21.2,10.6-1.2.2-2.6.2-3.8,0-.7.2-1.5.2-2.2,0-1.4.2-2.9.2-4.3,0-5.4.4-10.7-1.8-15.2-4.7C8.6,195.4.6,181.8-.2,167.7v-4.6c.2-.4.2-.8,0-1.2v-5.3c.2-.4.2-.8,0-1.2v-3.6c.8-2.9,1.2-5.9,2-8.9,3.3-11.5,10.5-22.2,21.1-28.1,18.6-10.3,40.5-2.4,50.6,15.5.5.4.7-2.2.7-2.6,1.1-17,.5-34.1.5-51.1,0-11.5.2-23.1.3-34.6s-.6-24.5-.1-36.3.6-4.4,2.7-5.9h2.9Z"/>
  <path class="st4" d="M38.8,118.1c46-2.8,45.3,87.5-2.2,81.5-40.3-5.1-39.1-79,2.2-81.5Z"/>
</svg>