<?xml version="1.0" encoding="UTF-8"?>
<svg id="Layer_2" xmlns="http://www.w3.org/2000/svg" version="1.1" viewBox="0 0 83.6 207.8">
  <!-- Generator: Adobe Illustrator 29.5.0, SVG Export Plug-In . SVG Version: 2.1.0 Build 137)  -->
  <defs>
    <style>
      .st0 {
        fill: #949699;
      }

      .st0, .st1, .st2, .st3, .st4, .st5, .st6 {
        stroke: #000;
        stroke-miterlimit: 10;
        stroke-width: 2px;
      }

      .st1 {
        fill: #636365;
      }

      .st2 {
        fill: #fcfcfc;
      }

      .st3 {
        fill: #5b5c5e;
      }

      .st4 {
        fill: #fefefe;
      }

      .st5 {
        fill: #221e1f;
      }

      .st6 {
        fill: #c7c7c8;
      }
    </style>
  </defs>
  <path class="st4" d="M77.5,0v.6c-2,1.9-2.7,4.4-2.3,7.6,0,33.6,0,67.3.1,101,0,6.5-.3,13-.7,19.4s-.2,2.4-1.4,2.2c-15.8-26.6-49.9-26.8-65.9.4s-5.5,13.1-7.2,20.3l-.4.4V0h77.8Z"/>
  <path class="st5" d="M80.4,0c1.5.2,2.5,1.6,2.9,3v197.9c0,4.4-6.3,6.4-8.5,2.3s-1.4-3.5-.5-4l-.5-.2v-11.5l.5-2.3c-.6,4.5-4,8.5-7.1,11.7-5.4,5.6-13.1,11-21.2,10.6-1.2.2-2.6.2-3.8,0-.7.2-1.5.2-2.2,0-1.4.2-2.9.2-4.3,0-5.4.4-10.7-1.8-15.2-4.7C8.6,195.4.6,181.8-.2,167.7v-4.6c.2-.4.2-.8,0-1.2v-5.3c.2-.4.2-.8,0-1.2v-3.6c.8-2.9,1.2-5.9,2-8.9,3.3-11.5,10.5-22.2,21.1-28.1,18.6-10.3,40.5-2.4,50.6,15.5.5.4.7-2.2.7-2.6,1.1-17,.5-34.1.5-51.1,0-11.5.2-23.1.3-34.6s-.6-24.5-.1-36.3.6-4.4,2.7-5.9h2.9Z"/>
  <path class="st2" d="M80.4,0h3.4v207.8h-37.7c-.2,0-.2-.1,0-.2,10.9-.7,20.6-9,26.3-17.8l2-4.6v14c0,1.9.9,5.4,3.3,5.6s2.2-.2,2.6-.3c1.6-.4,2.8-2.3,2.8-3.9V3.1c-.6-1.3-1.6-2.2-2.6-3.1Z"/>
  <path class="st4" d="M35.8,207.6c.2,0,.2.1,0,.2H-.2v-40.1c1,5.3,2.1,10.3,4.3,15.3,5.5,12.3,17.7,23.7,31.7,24.6Z"/>
  <path class="st6" d="M40.1,207.6c.2,0,.2.1,0,.2h-4.3v-.2c1.4,0,2.9,0,4.3,0Z"/>
  <path class="st6" d="M46.1,207.6v.2h-3.8c-.2,0-.2-.1,0-.2,1.3,0,2.6,0,3.8,0Z"/>
  <path class="st0" d="M42.2,207.6v.2h-2.2v-.2c.7,0,1.4,0,2.2,0Z"/>
  <path class="st1" d="M-.2,156.7v-1.2c.4.2.4,1,0,1.2Z"/>
  <path class="st3" d="M-.2,163.2v-1.2c.4.2.4,1,0,1.2Z"/>
  <path class="st4" d="M38.8,118.1c46-2.8,45.3,87.5-2.2,81.5-40.3-5.1-39.1-79,2.2-81.5Z"/>
</svg>