<?xml version="1.0" encoding="UTF-8"?>
<svg id="Layer_2" xmlns="http://www.w3.org/2000/svg" version="1.1" viewBox="-1 -1 95.9 120.1">
  <!-- Generator: Adobe Illustrator 29.5.0, SVG Export Plug-In . SVG Version: 2.1.0 Build 137)  -->
  <defs>
    <style>
      .st4 {
        fill: #231f20;
        stroke: #000;
        stroke-miterlimit: 10;
        stroke-width: 2px;
      }
    </style>
  </defs>
  
  
  
  
  
  
  
  
  
  
  
  
  
  <path class="st4" d="M45.4-.2c.5.2,1,.2,1.4,0h6.5c24.5.7,41.4,23.9,40.6,47.3.2,1.9.2,3.9,0,5.8,0,2,.2,4.8-1.4,6.4s-1.7,1.1-1.8,1.1H9.5c-.2,0-.3.3-.3.5,0,4.3,1,9.8,2.1,14,7.7,29.7,38.3,44.2,64.4,25.3s3.7-3.4,5.6-4.8c3.8-2.7,7.9,1.1,7,5.3s-3.1,3.9-4.4,5c-8.5,7.1-18.9,11.7-30.1,12.2-1.7.2-3.6.2-5.3,0C20.2,118.4.6,91.2,0,64.8v-1.7c.2-.5.2-1.1,0-1.7v-6.5c.2-.5.2-1.1,0-1.7,0-.6,0-1.1,0-1.7C.6,27.2,18.2.5,44.4-.2h1Z"/>
</svg>