<?xml version="1.0" encoding="UTF-8"?>
<svg id="Layer_2" xmlns="http://www.w3.org/2000/svg" version="1.1" viewBox="0 0 93.9 118.1">
  <!-- Generator: Adobe Illustrator 29.5.0, SVG Export Plug-In . SVG Version: 2.1.0 Build 137)  -->
  <defs>
    <style>
      .st0 {
        fill: #575455;
      }

      .st0, .st1, .st2, .st3, .st4 {
        stroke: #000;
        stroke-miterlimit: 10;
        stroke-width: 2px;
      }

      .st1 {
        fill: #5a5758;
      }

      .st2 {
        fill: #c8c7c7;
      }

      .st3 {
        fill: #fefefe;
      }

      .st4 {
        fill: #231f20;
      }
    </style>
  </defs>
  <path class="st3" d="M94.1,52.8v65.3h-40.3c-.2,0-.2-.1,0-.2l1.2-.6c8.3-.6,16.2-3.5,23.2-8.1s9.1-6.3,9.6-8.7c.9-4-3.4-7.6-6.8-4.5-24.9,23.8-59.2,13.3-69.5-19-.7-2.3-3.7-15.8-2.6-16.9s.4,0,.6,0l.2-.5h80.6l.3.5v-.3c2.7-1.4,2.9-3.9,2.8-6.8l.5-.3c0-.2.1-.2.2,0Z"/>
  <path class="st4" d="M45.4-.2c.5.2,1,.2,1.4,0h6.5c24.5.7,41.4,23.9,40.6,47.3.2,1.9.2,3.9,0,5.8,0,2,.2,4.8-1.4,6.4s-1.7,1.1-1.8,1.1H9.5c-.2,0-.3.3-.3.5,0,4.3,1,9.8,2.1,14,7.7,29.7,38.3,44.2,64.4,25.3s3.7-3.4,5.6-4.8c3.8-2.7,7.9,1.1,7,5.3s-3.1,3.9-4.4,5c-8.5,7.1-18.9,11.7-30.1,12.2-1.7.2-3.6.2-5.3,0C20.2,118.4.6,91.2,0,64.8v-1.7c.2-.5.2-1.1,0-1.7v-6.5c.2-.5.2-1.1,0-1.7,0-.6,0-1.1,0-1.7C.6,27.2,18.2.5,44.4-.2h1Z"/>
  <path class="st3" d="M48.5,117.9c.2,0,.2.1,0,.2H0v-53.3c.7,2.7.8,5.5,1.3,8.2,4.4,24.2,21.6,43.8,47.2,44.8Z"/>
  <path class="st3" d="M44.4-.2C17.5,2.2,2.1,26.6,0,51.6V-.2h44.4Z"/>
  <path class="st3" d="M53.3-.2h40.8v47.3c0,.2-.1.2-.2,0-.7-20.4-11.3-39.8-31.9-45.5s-5.8-1.2-8.7-1.7Z"/>
  <path class="st2" d="M94.1,52.8h-.2c0-1.9,0-3.9,0-5.8h.2v5.8Z"/>
  <path class="st2" d="M53.8,117.9v.2h-5.3v-.2c1.7,0,3.6,0,5.3,0Z"/>
  <path class="st1" d="M0,55v-1.7c.4.3.4,1.4,0,1.7Z"/>
  <path class="st1" d="M0,63.2v-1.7c.4.3.4,1.4,0,1.7Z"/>
  <path class="st0" d="M46.8-.2c-.2.4-1.2.4-1.4,0h1.4Z"/>
  <path class="st3" d="M84.7,50.7H9.6c1.6-12.9,6.9-26.2,17.5-34.2,11.4-8.5,28.2-9.7,40.3-1.7,11.7,7.8,17.3,22.1,17.3,35.9Z"/>
</svg>