<?xml version="1.0" encoding="UTF-8"?>
<svg id="Layer_2" xmlns="http://www.w3.org/2000/svg" version="1.1" viewBox="-1 -1 90.6 209.6">
  <!-- Generator: Adobe Illustrator 29.5.0, SVG Export Plug-In . SVG Version: 2.1.0 Build 137)  -->
  <defs>
    <style>
      .st3 {
        fill: #231f20;
        stroke: #000;
        stroke-miterlimit: 10;
        stroke-width: 2px;
      }
    </style>
  </defs>
  <path class="st3" d="M64.1,0c.5.2,1,.2,1.4,0h.7c6.6,0,12.3,2.4,17.5,6.2s5.1,3.8,4.8,6.5c.2.4.2,1.1,0,1.4-.5,3.8-5,5.9-8.1,3.7-4.8-3.4-5.8-5.4-12.2-6.7-33.2-6.7-26,26.9-26.9,47.3s-.1,8.7,0,13.9c.2,8.8-.2,17.5,0,26.3h36.1c.1,0,1.2.4,1.4.5,3.5,1.7,3.6,7.6.1,9.4s-1.3.6-1.5.6h-36.1v94.7c0,0-.4,1.2-.5,1.4-.6,1.2-1.7,1.8-2.8,2.3h-4.1c-2.3-.1-3.4-1.8-3.6-3.9v-93c0,0-.7-1-.7-1H4c-2.2-.5-3.8-1.7-4-4.1v-3.4c.2-2.5,1.9-3.5,4.2-4.1h25.5c0-.1.6-1.4.6-1.4-.3-10.7-.1-21.4.5-32.1-.6-11.3-1-22.6-.4-33.8C31.2,14.6,40,.7,57.1,0h7Z"/>
</svg>