<?xml version="1.0" encoding="UTF-8"?>
<svg id="Layer_2" xmlns="http://www.w3.org/2000/svg" version="1.1" viewBox="0 0 88.6 207.6">
  <!-- Generator: Adobe Illustrator 29.5.0, SVG Export Plug-In . SVG Version: 2.1.0 Build 137)  -->
  <defs>
    <style>
      .st0 {
        fill: #cccbcb;
      }

      .st0, .st1, .st2, .st3 {
        stroke: #000;
        stroke-miterlimit: 10;
        stroke-width: 2px;
      }

      .st1 {
        fill: #5a5758;
      }

      .st2 {
        fill: #fefefe;
      }

      .st3 {
        fill: #231f20;
      }
    </style>
  </defs>
  <path class="st2" d="M88.6,14.1c0-.2.1-.2.2,0v193.4h-50.9v-.6c1.4-.6,2.4-1.5,2.8-3h.5c0-.1-.5-.4-.5-.4v-94.2l.5-.3c0-.2,0-.5.2-.5,11.8-.2,23.9-.2,35.7,0l.3.5v-.5c4.7-1.2,4.8-8.3.1-9.5v-.5c-.1,0-.3.5-.3.5h-35.7l-.3-.5-.3-1.3c-.2-20.8-.2-41.5-.1-62.1.8-15.8,5.1-27.1,23.4-25.2s8.5,1.3,11.8,3.9c3.8,3.6,9.5,7.4,12,.5l.5-.3Z"/>
  <path class="st3" d="M64.1,0c.5.2,1,.2,1.4,0h.7c6.6,0,12.3,2.4,17.5,6.2s5.1,3.8,4.8,6.5c.2.4.2,1.1,0,1.4-.5,3.8-5,5.9-8.1,3.7-4.8-3.4-5.8-5.4-12.2-6.7-33.2-6.7-26,26.9-26.9,47.3s-.1,8.7,0,13.9c.2,8.8-.2,17.5,0,26.3h36.1c.1,0,1.2.4,1.4.5,3.5,1.7,3.6,7.6.1,9.4s-1.3.6-1.5.6h-36.1v94.7c0,0-.4,1.2-.5,1.4-.6,1.2-1.7,1.8-2.8,2.3h-4.1c-2.3-.1-3.4-1.8-3.6-3.9v-93c0,0-.7-1-.7-1H4c-2.2-.5-3.8-1.7-4-4.1v-3.4c.2-2.5,1.9-3.5,4.2-4.1h25.5c0-.1.6-1.4.6-1.4-.3-10.7-.1-21.4.5-32.1-.6-11.3-1-22.6-.4-33.8C31.2,14.6,40,.7,57.1,0h7Z"/>
  <path class="st2" d="M57.1,0l-5,1.1c-15.4,3.9-20.7,17-21.4,31.7-.5,10.4,0,21.6.5,31.9-1.1,10.6-.2,21.5-.5,32.2l-.8,1.7H4.2c-2.1.5-3.4,1.6-4.2,3.6V0h57.1Z"/>
  <path class="st2" d="M0,105.6c.8,1.9,2,3.3,4.2,3.6h25.6s.8,1.4.8,1.4v93.1c.2,2.1,1.3,3.2,3.2,4H0v-102Z"/>
  <path class="st2" d="M66.2,0h22.6v12.7c0,.2-.1.2-.2,0-.6-4.4-10.5-9.9-14.5-11.1s-5.3-1-7.9-1.6Z"/>
  <path class="st1" d="M65.5,0c-.2.4-1.2.4-1.4,0h1.4Z"/>
  <path class="st0" d="M88.8,14.1h-.2c0-.4,0-1.1,0-1.4h.2v1.4Z"/>
</svg>