<?xml version="1.0" encoding="UTF-8"?>
<svg id="Layer_2" xmlns="http://www.w3.org/2000/svg" version="1.1" viewBox="0 0 94.8 226.2">
  <!-- Generator: Adobe Illustrator 29.5.0, SVG Export Plug-In . SVG Version: 2.1.0 Build 137)  -->
  <defs>
    <style>
      .st0 {
        fill: #575455;
      }

      .st0, .st1, .st2, .st3, .st4 {
        stroke: #000;
        stroke-miterlimit: 10;
        stroke-width: 2px;
      }

      .st1 {
        fill: #5a5758;
      }

      .st2 {
        fill: #c8c7c7;
      }

      .st3 {
        fill: #fefefe;
      }

      .st4 {
        fill: #231f20;
      }
    </style>
  </defs>
  <path class="st3" d="M0,69.2h.5c2.1,23,13.8,48.5,38.9,53.5,19.2,3.9,33.7-6.9,43-22.3.4-.1.7,0,.9.4v75.8c-2.3,22.1-16.1,39.5-39.8,37.9-13.9-.9-24.7-9-25.7-23.4-1.3-7.2-11.3-6.1-10.9,1.5.9,16.9,15.4,30.9,32.1,32.4,1.9,0,3.7.3,5.3.9.2,0,.2.1,0,.2H0V69.2Z"/>
  <path class="st4" d="M50.2-.2c13.9.7,25.3,10.8,32.6,21.6-.3-5.9-.2-11.7.6-17.5,2-5.4,11-4.4,11.4,1.6v168.2c-.2.5-.2,1.1,0,1.7v1.4c-.9,25.1-19.6,50-46.6,49-1.2.2-2.6.2-3.8,0-13-.4-25.1-5.3-32.3-16.6-2.9-4.6-5.9-12.2-5.7-17.6s5.4-7.5,9.4-4.8,2.3,5.1,3.1,8.2c3.7,16.3,20.5,21.1,35.4,18.2,17.9-3.5,26.9-20.3,28.5-37.3v-75.5s-4.8,7.1-4.8,7.1c-10.6,13.4-25.3,19.5-42.2,14.6-18.9-5.4-30.6-24.4-34.2-42.8L0,69.2v-1.7c.2-.5.2-1.1,0-1.7v-7c.2-.5.2-1.1,0-1.7,0-.6,0-1.1,0-1.7,0-10.3,3.3-20.8,8.1-29.9C15,12.5,27.1.1,42.7-.2h7.4Z"/>
  <path class="st3" d="M42.7-.2C16.3,2.4,1.7,31.9,0,55.5V-.2h42.7Z"/>
  <path class="st3" d="M94.8,177v49.2h-46.6c-.2,0-.2-.1,0-.2,25.2-.9,41-18.6,45.5-42.5.4-2.2.5-4.4,1.1-6.5Z"/>
  <path class="st3" d="M50.2-.2h44.6v5.8c-1.3-3.5-4.1-5.4-7.9-4.4s-2.8,1.6-3.1,2.9c-1,4.5-.6,8-.5,12.4s0,4.6-.1,6.8c-5.3-8.9-12.6-16.3-22.2-20.5S53.9.6,50.2-.2Z"/>
  <path class="st2" d="M48.2,225.9v.2h-3.8v-.2c1.3,0,2.6,0,3.8,0Z"/>
  <path class="st0" d="M0,58.9v-1.7c.4.3.4,1.4,0,1.7Z"/>
  <path class="st1" d="M0,67.5v-1.7c.4.3.4,1.4,0,1.7Z"/>
  <path class="st1" d="M94.8,175.5c-.4-.3-.4-1.4,0-1.7v1.7Z"/>
  <path class="st3" d="M44.4,10.7c27.8-2.1,38.4,30.4,38,52.9-.4,23.1-12.9,54.3-41.3,49C-1.8,104.6-.3,14.1,44.4,10.7Z"/>
</svg>