<?xml version="1.0" encoding="UTF-8"?>
<svg id="Layer_2" xmlns="http://www.w3.org/2000/svg" version="1.1" viewBox="-3 -3 100.8 232.2">
  <!-- Generator: Adobe Illustrator 29.5.0, SVG Export Plug-In . SVG Version: 2.1.0 Build 137)  -->
  <defs>
    <style>
      .st4 {
        fill: #231f20;
        stroke: #000;
        stroke-miterlimit: 10;
        stroke-width: 2px;
      }

      .st3 {
        fill: #ffffff;
        stroke: #000;
        stroke-miterlimit: 10;
        stroke-width: 2px;
      }
    </style>
  </defs>
  <path class="st4" d="M50.2-.2c13.9.7,25.3,10.8,32.6,21.6-.3-5.9-.2-11.7.6-17.5,2-5.4,11-4.4,11.4,1.6v168.2c-.2.5-.2,1.1,0,1.7v1.4c-.9,25.1-19.6,50-46.6,49-1.2.2-2.6.2-3.8,0-13-.4-25.1-5.3-32.3-16.6-2.9-4.6-5.9-12.2-5.7-17.6s5.4-7.5,9.4-4.8,2.3,5.1,3.1,8.2c3.7,16.3,20.5,21.1,35.4,18.2,17.9-3.5,26.9-20.3,28.5-37.3v-75.5s-4.8,7.1-4.8,7.1c-10.6,13.4-25.3,19.5-42.2,14.6-18.9-5.4-30.6-24.4-34.2-42.8L0,69.2v-1.7c.2-.5.2-1.1,0-1.7v-7c.2-.5.2-1.1,0-1.7,0-.6,0-1.1,0-1.7,0-10.3,3.3-20.8,8.1-29.9C15,12.5,27.1.1,42.7-.2h7.4Z"/>
  <path class="st3" d="M44.4,10.7c27.8-2.1,38.4,30.4,38,52.9-.4,23.1-12.9,54.3-41.3,49C-1.8,104.6-.3,14.1,44.4,10.7Z"/>
</svg>