<?xml version="1.0" encoding="UTF-8"?>
<svg id="Layer_2" data-name="Layer 2" xmlns="http://www.w3.org/2000/svg" viewBox="0 0 77.91 205.01">
  <defs>
    <style>
      .cls-1 {
        fill: #232021;
      }

      .cls-2 {
        fill: #f8f9f9;
      }
    </style>
  </defs>
  <g id="Layer_1-2" data-name="Layer 1">
    <path class="cls-1" d="M8.58,138.43c7.13-24.96,35.41-35.37,51.67-10.85,10.06,15.16,7.54,33.78,7.45,51.08-.03,6.69-.46,14.47,0,21.03.51,7.33,9.32,6.54,9.81,1.02.38-4.21-.07-9.35-.02-13.68.14-11.33.68-22.92.22-34.27-.93-23.22-15.82-49.71-41.93-48.85-11.14.37-20.46,6.12-27.43,14.49.02-.37,0-.75-.01-1.13"/>
    <g>
      <path class="cls-1" d="M10.22,109.73s0-.06,0-.09c-.06.15-.05.08,0-.07-.24-2.59-.41-5.15-.41-7.65-.14.18-.28.37-.41.56.04-.82-.07-1.7,0-2.52.38-4.27.01-8.4-.01-12.71-.15-27.36.13-54.74.02-82.1C9.2,2.55,8.17.94,6.12,0h-2.86C1.35.16.14,1.59,0,3.84v197.76c1.57,5.27,8.76,4.12,9.37-1.34v-73.19c.13-.55.27-1.1.41-1.65,0-.09-.02-.17-.02-.26-.15-3.67.11-7.29.36-10.93-.4-1.42-.33-3.05.1-4.51Z"/>
      <path class="cls-2" d="M3.26,0C1.65.75.64,1.95,0,3.84V0h3.26Z"/>
    </g>
  </g>
</svg>