<?xml version="1.0" encoding="UTF-8"?>
<svg id="Layer_2" xmlns="http://www.w3.org/2000/svg" version="1.1" viewBox="0 0 77.9 205">
  <!-- Generator: Adobe Illustrator 29.5.0, SVG Export Plug-In . SVG Version: 2.1.0 Build 137)  -->
  <defs>
    <style>
      .st0 {
        fill: #908f8f;
      }

      .st0, .st1, .st2, .st3, .st4, .st5, .st6 {
        stroke: #000;
        stroke-miterlimit: 10;
        stroke-width: 2px;
      }

      .st1 {
        fill: #c6c5c6;
      }

      .st2 {
        fill: #fefefe;
      }

      .st3 {
        fill: #5a5859;
      }

      .st4 {
        fill: #f4f5f5;
      }

      .st5 {
        fill: #c8c7c8;
      }

      .st6 {
        fill: #232021;
      }
    </style>
  </defs>
  <path class="st2" d="M6.5-.2h71.5v154.1c0,.2-.1.2-.2,0l-.5-1c-1.1-23.8-15.7-50.3-42.8-48.7-9.1.6-17.3,5.5-23.7,11.8-.6.5-.8.1-1.1-.4-.3-4.3-.3-8.7-.3-13.1-.4-.4-.5-.9-.4-1.5.2-32,0-64.3,0-96.4S7.8,1.3,6.6.5V-.2Z"/>
  <path class="st2" d="M0,201.9l.6.2c2.2,3.8,7.4,2.6,8.3-1.6v-64.9c8.7-23.9,36.1-31.8,51.6-8.8,7.4,11,8.3,24.9,8.2,37.7-.4,9.6-.6,19.2-.8,28.8,0,2,0,6.6.8,8.3,1.8,4.2,8.5,3.3,8.5-1.5,0-7.9,0-15.9.1-24s0-.9.2-1.4.2-.9.3-1.4c0-.2.1-.2.2,0v31.9H0v-3.4Z"/>
  <path class="st6" d="M6.5-.2c1.7,1.2,2.7,2.5,2.9,4.7,0,29.1,0,58.3.2,87.4s0,6.7-.3,10.1h.5c0,1,0,2.2,0,3.4.2,2.7,0,4,0,6.5s.5,2.8.3,4.2c6.5-6.6,14.9-11.7,24.3-12.2,27.7-1.7,42.5,25.9,43.3,50.2.2.7.2,1.5,0,2.2.2,1.2.2,2.4,0,3.6.2,1.9.2,3.9,0,5.8.2,1.5.2,3,0,4.6.2,1.1.2,2.2,0,3.4,0,6.6-.3,13.2-.3,19.8s.5,5.5,0,8.3c-.9,4.2-7.3,4.7-9.2.5s-.7-4.3-.8-5.9c-1-23,6.2-53.8-10.2-72.6-16.4-18.8-40.3-8.8-47.8,12.2v64.9c-1.2,4.8-7.3,6-9.5,1.3V3.4C.3,1.6,1.2,0,3.1-.2h3.4Z"/>
  <path class="st4" d="M3.1-.2C1.6.7.9,1.9,0,3.4V-.2h3.1Z"/>
  <path class="st3" d="M78,165.4c0,.2-.1.2-.2,0,0-1.9,0-3.8,0-5.8,0-.2.1-.2.2,0v5.8Z"/>
  <path class="st0" d="M78,170c0,.2-.1.2-.2,0,0-1.5,0-3,0-4.6h.2v4.6Z"/>
  <path class="st0" d="M78,159.6h-.2c0-1.2,0-2.4,0-3.6,0-.2.1-.2.2,0v3.6Z"/>
  <path class="st5" d="M78,173.3h-.2c0-1.1,0-2.2,0-3.4h.2v3.4Z"/>
  <path class="st1" d="M78,156h-.2c0-.7,0-1.4,0-2.2h.2v2.2Z"/>
</svg>