<?xml version="1.0" encoding="UTF-8"?>
<svg id="Layer_2" xmlns="http://www.w3.org/2000/svg" version="1.1" viewBox="-1 -1 79.9 207">
  <!-- Generator: Adobe Illustrator 29.5.0, SVG Export Plug-In . SVG Version: 2.1.0 Build 137)  -->
  <defs>
    <style>
      .st6 {
        fill: #231f20;
        stroke: #000;
        stroke-miterlimit: 10;
        stroke-width: 2px;
      }
    </style>
  </defs>
  
  
  
  
  
  
  
  
  
  <path class="st6" d="M6.5-.2c1.7,1.2,2.7,2.5,2.9,4.7,0,29.1,0,58.3.2,87.4s0,6.7-.3,10.1h.5c0,1,0,2.2,0,3.4.2,2.7,0,4,0,6.5s.5,2.8.3,4.2c6.5-6.6,14.9-11.7,24.3-12.2,27.7-1.7,42.5,25.9,43.3,50.2.2.7.2,1.5,0,2.2.2,1.2.2,2.4,0,3.6.2,1.9.2,3.9,0,5.8.2,1.5.2,3,0,4.6.2,1.1.2,2.2,0,3.4,0,6.6-.3,13.2-.3,19.8s.5,5.5,0,8.3c-.9,4.2-7.3,4.7-9.2.5s-.7-4.3-.8-5.9c-1-23,6.2-53.8-10.2-72.6-16.4-18.8-40.3-8.8-47.8,12.2v64.9c-1.2,4.8-7.3,6-9.5,1.3V3.4C.3,1.6,1.2,0,3.1-.2h3.4Z"/>
</svg>