<?xml version="1.0" encoding="UTF-8"?>
<svg id="Layer_2" xmlns="http://www.w3.org/2000/svg" version="1.1" viewBox="-1 -1 18.5 154.9">
  <!-- Generator: Adobe Illustrator 29.5.0, SVG Export Plug-In . SVG Version: 2.1.0 Build 137)  -->
  <defs>
    <style>
      .st5 {
        fill: #231f20;
        stroke: #000;
        stroke-miterlimit: 10;
        stroke-width: 2px;
      }
    </style>
  </defs>
  <path class="st5" d="M9.8-.2c3.7,0,7,3.2,6.5,7,0,.9.2,1.9.2,2.9v.5c-1.1,3.6-3.1,6.2-7.1,6.5S1.3,15.1,0,10.2v-3.6C.1,2.9,2.8,0,6.5-.2h3.4Z"/>
  <path class="st5" d="M9.1,152.7c-.5,0-1.4,0-1.9,0-2.7-.3-3.7-2.7-3.8-5.2V45.3c-.5-6.3,8.8-7.3,9.6-1.2v104.7c-.1,2.1-1.7,3.7-3.8,4Z"/>
</svg>