<?xml version="1.0" encoding="UTF-8"?>
<svg id="Layer_2" xmlns="http://www.w3.org/2000/svg" version="1.1" viewBox="0 0 16.5 152.9">
  <!-- Generator: Adobe Illustrator 29.5.0, SVG Export Plug-In . SVG Version: 2.1.0 Build 137)  -->
  <defs>
    <style>
      .st0 {
        fill: #5e5c5d;
      }

      .st0, .st1, .st2, .st3, .st4, .st5 {
        stroke: #000;
        stroke-miterlimit: 10;
        stroke-width: 2px;
      }

      .st1 {
        fill: #fcfcfc;
      }

      .st2 {
        fill: #fefefe;
      }

      .st3 {
        fill: #fdfdfd;
      }

      .st4 {
        fill: #9d9b9c;
      }

      .st5 {
        fill: #231f20;
      }
    </style>
  </defs>
  <path class="st2" d="M16.6,10.2v142.8h-7.4c-.2,0-.2-.1,0-.2l.3-.5c1.7-.3,3-1.7,3.1-3.5V44.1c-.9-5.4-8.7-4.5-8.7.7v102.7c0,2,.9,4.2,3.1,4.6l.3.5c.2,0,.2.1,0,.2H0V10.2l.6.5c1.9,7.7,13.5,7.5,15.3-.1l.6-.3Z"/>
  <path class="st5" d="M9.8-.2c3.7,0,7,3.2,6.5,7,0,.9.2,1.9.2,2.9v.5c-1.1,3.6-3.1,6.2-7.1,6.5S1.3,15.1,0,10.2v-3.6C.1,2.9,2.8,0,6.5-.2h3.4Z"/>
  <path class="st3" d="M9.8-.2h6.7v7c0,.2-.1.2-.2,0-.3-3.6-3-6.2-6.5-7Z"/>
  <path class="st1" d="M6.5-.2C3,.7.9,3.1,0,6.6V-.2h6.5Z"/>
  <path class="st0" d="M16.6,9.7c-.5-.7-.2-2-.2-2.9h.2v2.9Z"/>
  <path class="st4" d="M9.1,152.7v.2h-1.9v-.2c.2-.7,1.6-.6,1.9,0Z"/>
  <path class="st5" d="M9.1,152.7c-.5,0-1.4,0-1.9,0-2.7-.3-3.7-2.7-3.8-5.2V45.3c-.5-6.3,8.8-7.3,9.6-1.2v104.7c-.1,2.1-1.7,3.7-3.8,4Z"/>
</svg>