<?xml version="1.0" encoding="UTF-8"?>
<svg id="Layer_2" xmlns="http://www.w3.org/2000/svg" version="1.1" viewBox="0 0 72.9 283.1">
  <!-- Generator: Adobe Illustrator 29.5.0, SVG Export Plug-In . SVG Version: 2.1.0 Build 137)  -->
  <defs>
    <style>
      .st0 {
        fill: #fefefe;
      }

      .st0, .st1 {
        stroke: #000;
        stroke-miterlimit: 10;
        stroke-width: 2px;
      }

      .st1 {
        fill: #231f20;
      }
    </style>
  </defs>
  <path class="st0" d="M59.8,0l-.4.5c-9.7,1.8-11.1,17.5-1.6,20.7,15.4,5.2,20.2-16.7,6.6-20.7l-.5-.6h9.1v283.4H-.2v-31.7l.6.4c2.7,16.7,14.4,29.8,31.9,30.7s35-13.3,36.4-32.4V62.1c-1.5-7.8-11.8-6.9-12.5.7v186.7c-2.9,28-41.6,27.6-43.4-.8-.7-7.3-9.8-8.3-12.4-1.5l-.6.3V0h60Z"/>
  <path class="st1" d="M-.2,251.7v-4.3c1.2-3.8,4.9-6.2,8.9-4.9s4.4,7.2,5.5,11.5c6.6,23.9,39.7,19.4,41.5-4.5V63.2c.1-8.6,12-9.7,13.4-1.2v188.4c-3.4,39.1-57.3,45.8-68.1,6.6-.5-1.8-.6-3.6-1.3-5.3Z"/>
  <path class="st1" d="M63.8,0c11.8,1.5,12.2,21.4-.6,22.3C46.7,23.5,47.9,1.4,59.8,0c.9-.1,3.2-.1,4.1,0Z"/>
</svg>