<?xml version="1.0" encoding="UTF-8"?>
<svg id="Layer_2" xmlns="http://www.w3.org/2000/svg" version="1.1" viewBox="0 0 64.4 204.7">
  <!-- Generator: Adobe Illustrator 29.5.0, SVG Export Plug-In . SVG Version: 2.1.0 Build 137)  -->
  <defs>
    <style>
      .st0 {
        fill: #f4f4f4;
      }

      .st0, .st1, .st2, .st3, .st4 {
        stroke: #000;
        stroke-miterlimit: 10;
        stroke-width: 2px;
      }

      .st1 {
        fill: #fcfcfc;
      }

      .st2 {
        fill: #fefefe;
      }

      .st3 {
        fill: #999898;
      }

      .st4 {
        fill: #232021;
      }
    </style>
  </defs>
  <path class="st2" d="M7,0h57.6v199.7c0,.2-.1.2-.2,0-.5-.2-1-.8-1.3-1.7-9.8-12.3-20.3-24.2-31.5-35.9-6.1-6.5-11.7-13.4-17-20.5l.2-.5,41.8-31.5c3.7-3.9.4-11.2-5.1-8.3l-40.4,30.2c-.8.4-1.4-.2-1.1-1-1.2-.8-.8-2-.4-3.1-.7-1.5-.5-3.2-.3-4.8h-.3c-.3-2.2-.2-4.4.3-6.7V4.4c-.2-1.5-1-2.8-2.3-3.9L7,0Z"/>
  <path class="st4" d="M7,0c1.2,1.4,2.6,2.4,2.6,4.4v111.4c-.2,2.1-.6,4.2-.5,6.3l.7-.2c-.4,1.2-.3,2.7-.2,4s.5,1,.4,1.4c0,.7-.6,1-.3,2.1s.6.5.7.7c.2.3-.5,1.1.2,1l40.5-30.3c6.2-3.2,9.7,4.8,5.7,9.1l-42,31.7c13.2,17.4,29.1,32.6,43.1,49.3s6.1,6.7,6.4,8.9c.2.4.2,1.1,0,1.4.5,3.3-3,4-5.5,3.6-1.3.2-3.2.2-4.2-.9l-9.9-11.7c-11.8-12.8-23.2-25.9-34.2-39,0,15.3,0,30.6,0,46,0,4.6-2.3,6.2-6.7,5.8s-3.6-.5-3.8-2.7V3.1C.3,1.7,1.3.3,2.9,0h4.1Z"/>
  <path class="st2" d="M58.8,204.7c.2,0,.2.1,0,.2H0v-2.9c1.9,3.9,8.9,3.4,9.8-.9s.3-1.9.3-2.4c.3-15-.4-30.1-.2-45.1l.5-2.5c.2,1.4,1.2,2.3,2,3.4,13.4,16.6,28.8,31.9,42.2,48.5,1.1,1.5,2.4,1.7,4.2,1.7Z"/>
  <path class="st1" d="M64.6,201.1v3.8h-5.8v-.2c2.5,0,5.1-.7,5.5-3.6,0-.2.1-.2.2,0Z"/>
  <path class="st0" d="M2.9,0C1.7.9,1,2,0,3.1V0h2.9Z"/>
  <path class="st3" d="M64.6,201.1h-.2c0-.4,0-1.1,0-1.4h.2v1.4Z"/>
</svg>