<?xml version="1.0" encoding="UTF-8"?>
<svg id="Layer_2" xmlns="http://www.w3.org/2000/svg" version="1.1" viewBox="-1 -1 66.4 206.7">
  <!-- Generator: Adobe Illustrator 29.5.0, SVG Export Plug-In . SVG Version: 2.1.0 Build 137)  -->
  <defs>
    <style>
      .st4 {
        fill: #231f20;
        stroke: #000;
        stroke-miterlimit: 10;
        stroke-width: 2px;
      }
    </style>
  </defs>
  <path class="st4" d="M7,0c1.2,1.4,2.6,2.4,2.6,4.4v111.4c-.2,2.1-.6,4.2-.5,6.3l.7-.2c-.4,1.2-.3,2.7-.2,4s.5,1,.4,1.4c0,.7-.6,1-.3,2.1s.6.5.7.7c.2.3-.5,1.1.2,1l40.5-30.3c6.2-3.2,9.7,4.8,5.7,9.1l-42,31.7c13.2,17.4,29.1,32.6,43.1,49.3s6.1,6.7,6.4,8.9c.2.4.2,1.1,0,1.4.5,3.3-3,4-5.5,3.6-1.3.2-3.2.2-4.2-.9l-9.9-11.7c-11.8-12.8-23.2-25.9-34.2-39,0,15.3,0,30.6,0,46,0,4.6-2.3,6.2-6.7,5.8s-3.6-.5-3.8-2.7V3.1C.3,1.7,1.3.3,2.9,0h4.1Z"/>
</svg>