<?xml version="1.0" encoding="UTF-8"?>
<svg id="Layer_2" xmlns="http://www.w3.org/2000/svg" version="1.1" viewBox="0 0 11.6 207">
  <!-- Generator: Adobe Illustrator 29.5.0, SVG Export Plug-In . SVG Version: 2.1.0 Build 137)  -->
  <defs>
    <style>
      .st0 {
        fill: #fbfafa;
      }

      .st0, .st1, .st2, .st3, .st4, .st5 {
        stroke: #000;
        stroke-miterlimit: 10;
        stroke-width: 2px;
      }

      .st1 {
        fill: #fcfcfc;
      }

      .st2 {
        fill: #676465;
      }

      .st3 {
        fill: #fbfbfb;
      }

      .st4 {
        fill: #908e8f;
      }

      .st5 {
        fill: #231f20;
      }
    </style>
  </defs>
  <path class="st5" d="M7.4,0c2.5,0,4.5,2,4.1,4.6,0,66.6.1,132.6.2,198v.2c-.2,2.4-2,4.6-4.6,4.1-.8.2-2.1.2-2.9,0-2.5.4-4.1-1.5-4.3-3.8V3.7C.2,1.4,1.8,0,4.1,0h3.4Z"/>
  <path class="st4" d="M11.8,202.5c-.4-.2-.2-.9-.2-1.3-.8-65.5.6-131.1,0-196.7,0-.2.1-.2.2,0v198Z"/>
  <path class="st1" d="M11.8,202.7v4.3h-4.6c-.2,0-.2-.1,0-.2,2.5-.2,3.6-2,4.6-4.1Z"/>
  <path class="st3" d="M7.4,0h4.3v4.6h-.2c-.1-2.3-2-3.9-4.1-4.6Z"/>
  <path class="st3" d="M4.3,206.8c.2,0,.2.1,0,.2H0v-4.1c.9,2,2,3.6,4.3,3.8Z"/>
  <path class="st0" d="M4.1,0C2,.6.8,1.8,0,3.7V0h4.1Z"/>
  <path class="st2" d="M7.2,206.8v.2h-2.9v-.2c.8,0,2.1,0,2.9,0Z"/>
</svg>