<?xml version="1.0" encoding="UTF-8"?>
<svg id="Layer_2" xmlns="http://www.w3.org/2000/svg" version="1.1" viewBox="-3 -3 155.7 122.3">
  <!-- Generator: Adobe Illustrator 29.5.0, SVG Export Plug-In . SVG Version: 2.1.0 Build 137)  -->
  <defs>
    <style>
      .st8 {
        fill: #231f20;
        stroke: #000;
        stroke-miterlimit: 10;
        stroke-width: 2px;
      }
    </style>
  </defs>
  <path class="st8" d="M47.8,0c12.5.2,23.6,7.9,28.3,19.5h.4C83.7,8.3,94.8.5,108.5,0h8.9c21,.1,32.6,19.1,32.4,38.4v.5c0,.5-.2,1-.2,1.4,0,.5.1,1.1.2,1.7v70.8c-.1,1.9-1.3,3.7-3.4,3.4-.7.2-1.7.2-2.4,0-2.1-.2-3.4-2.2-3.6-4.2V39.9c-1.1-16.8-7.4-29.4-25.8-30.3s-32.3,10.4-34.4,27v75.9c-.2,1.8-1.5,3.5-3.3,3.7-.8,0-1.6.2-2.4.2h-.2c-1.2-.7-2.3-1.3-2.9-2.7-.8-23,.4-46.3-.5-69.4s-.3-11.8-2.4-18C58.5-2.4,15.6,9.1,9.4,34.1v77.3c-.2,2.5-1.2,4.4-3.8,4.7-.5,0-1.1.2-1.7.2h-.5c-2-.2-3.2-1.3-3.4-3.4V4.2C.7-1.3,8.8-.6,9.4,4.8l.3,10.6C17,6.7,27.1.3,38.6,0h9.1Z"/>
</svg>