<?xml version="1.0" encoding="UTF-8"?>
<svg id="Layer_2" xmlns="http://www.w3.org/2000/svg" version="1.1" viewBox="0 0 149.7 116.3">
  <!-- Generator: Adobe Illustrator 29.5.0, SVG Export Plug-In . SVG Version: 2.1.0 Build 137)  -->
  <defs>
    <style>
      .st0 {
        fill: #6b6869;
      }

      .st0, .st1, .st2, .st3, .st4, .st5, .st6, .st7, .st8 {
        stroke: #000;
        stroke-miterlimit: 10;
        stroke-width: 2px;
      }

      .st1 {
        fill: #5c595a;
      }

      .st2 {
        fill: #fefefe;
      }

      .st3 {
        fill: #6f6c6d;
      }

      .st4 {
        fill: #fafafa;
      }

      .st5 {
        fill: #f9f9f9;
      }

      .st6 {
        fill: #908e8f;
      }

      .st7 {
        fill: #585556;
      }

      .st8 {
        fill: #231f20;
      }
    </style>
  </defs>
  <path class="st2" d="M74.2,116.3H5.5c-.2,0-.2-.1,0-.2l.3-.5c2.1-.3,3-2.2,3.1-4.2V34.4C12.9,15.4,39.7,3,56.9,11.8s13.8,16.7,14.2,27.9.5,15.8.5,23.7c-.1,16.7-.2,33.4.1,50s1.8,2,2.4,2.2v.6Z"/>
  <path class="st2" d="M144,116.1c.2,0,.2.1,0,.2h-67.2c-.2,0-.2-.1,0-.2l.2-.5c1.5-.4,2.5-1.8,2.7-3.2V36.4c2.7-19.8,23.6-31.4,42.3-26.3,13.7,3.8,18.2,16.7,18.9,29.7v72c.1,1.7,1.1,3.3,2.9,3.7l.3.5Z"/>
  <path class="st8" d="M47.8,0c12.5.2,23.6,7.9,28.3,19.5h.4C83.7,8.3,94.8.5,108.5,0h8.9c21,.1,32.6,19.1,32.4,38.4v.5c0,.5-.2,1-.2,1.4,0,.5.1,1.1.2,1.7v70.8c-.1,1.9-1.3,3.7-3.4,3.4-.7.2-1.7.2-2.4,0-2.1-.2-3.4-2.2-3.6-4.2V39.9c-1.1-16.8-7.4-29.4-25.8-30.3s-32.3,10.4-34.4,27v75.9c-.2,1.8-1.5,3.5-3.3,3.7-.8,0-1.6.2-2.4.2h-.2c-1.2-.7-2.3-1.3-2.9-2.7-.8-23,.4-46.3-.5-69.4s-.3-11.8-2.4-18C58.5-2.4,15.6,9.1,9.4,34.1v77.3c-.2,2.5-1.2,4.4-3.8,4.7-.5,0-1.1.2-1.7.2h-.5c-2-.2-3.2-1.3-3.4-3.4V4.2C.7-1.3,8.8-.6,9.4,4.8l.3,10.6C17,6.7,27.1.3,38.6,0h9.1Z"/>
  <path class="st2" d="M108.5,0c-4.6.8-9,1.7-13.3,3.6-9.3,4.1-12.9,8.8-18.7,16.6s-.2.5-.6.4c-3.9-10.1-11.8-17.2-22.4-19.6s-3.9-.6-5.8-1.1h60.7Z"/>
  <path class="st2" d="M117.4,0h32.4v38.4c-.6-2.5-.6-5-1-7.5-2.3-13.9-9.4-25.5-23.6-29.4s-5.2-.9-7.7-1.5Z"/>
  <path class="st2" d="M38.6,0c-2.8.7-5.6,1-8.3,1.9-8.5,2.6-15.6,8.1-21.1,14.9l-.4-11.9C8.1-.2,1.6-.4,0,4.2V0h38.6Z"/>
  <path class="st5" d="M149.8,112.7v3.6h-3.4c-.2,0-.2-.1,0-.2,1.6-.2,2.8-1.9,3.4-3.4Z"/>
  <path class="st4" d="M0,112.9c.7,1.8,1.8,2.5,3.4,3.4H0v-3.4Z"/>
  <path class="st0" d="M76.8,116.1v.2h-2.4c.6-.5,1.6-.1,2.4-.2Z"/>
  <path class="st3" d="M146.4,116.1v.2h-2.4v-.2c.6,0,1.8,0,2.4,0Z"/>
  <path class="st7" d="M149.8,41.9c-.4-.3-.2-1.2-.2-1.7,0-.2.1-.2.2,0v1.7Z"/>
  <path class="st1" d="M5.5,116.1v.2h-1.7c.3-.5,1.2-.2,1.7-.2Z"/>
  <path class="st6" d="M149.8,40.2h-.2c0-.5-.2-1.2.2-1.4v1.4Z"/>
</svg>