<?xml version="1.0" encoding="UTF-8"?>
<svg id="Layer_2" xmlns="http://www.w3.org/2000/svg" version="1.1" viewBox="-3 -3 87.8 125.3">
  <!-- Generator: Adobe Illustrator 29.5.0, SVG Export Plug-In . SVG Version: 2.1.0 Build 137)  -->
  <defs>
    <style>
      .st4 {
        fill: #231f20;
        stroke: #000;
        stroke-miterlimit: 10;
        stroke-width: 2px;
      }
    </style>
  </defs>
  <path class="st4" d="M48.7-.2c21.3.2,33.7,20.2,32.9,39.8.2.4.2.9,0,1.2.2.4.2,1,0,1.4,0,.8.1,1.6.2,2.4v70.3c-1.7,5.7-9.8,5.6-11-.4V42.4c-.8-18.2-8-31.8-28.2-31.1s-28,11-31.6,24.1v78.7c-.4,6-9.2,7-11,1.4V5.1c.7-6.3,9.6-6.2,11-.2l.3,8.6C18.9,5.9,28.9.2,39.6-.2h9.1Z"/>
</svg>