<?xml version="1.0" encoding="UTF-8"?>
<svg id="Layer_2" xmlns="http://www.w3.org/2000/svg" version="1.1" viewBox="0 0 81.8 119.3">
  <!-- Generator: Adobe Illustrator 29.5.0, SVG Export Plug-In . SVG Version: 2.1.0 Build 137)  -->
  <defs>
    <style>
      .st0 {
        fill: #fefefe;
      }

      .st0, .st1, .st2, .st3, .st4 {
        stroke: #000;
        stroke-miterlimit: 10;
        stroke-width: 2px;
      }

      .st1 {
        fill: #cdcccc;
      }

      .st2 {
        fill: #8e8c8d;
      }

      .st3 {
        fill: #585556;
      }

      .st4 {
        fill: #231f20;
      }
    </style>
  </defs>
  <path class="st0" d="M81.8,115v4.6H0v-4.1l.6.2c1.9,4.6,9.2,3.8,9.9-1.2V35.7c3.1-13.1,17.7-23.9,30.8-24.8,20.8-1.5,29.4,12.4,30,31.5v72.2c1.1,5.3,8.1,5.5,10,.7l.6-.3Z"/>
  <path class="st4" d="M48.7-.2c21.3.2,33.7,20.2,32.9,39.8.2.4.2.9,0,1.2.2.4.2,1,0,1.4,0,.8.1,1.6.2,2.4v70.3c-1.7,5.7-9.8,5.6-11-.4V42.4c-.8-18.2-8-31.8-28.2-31.1s-28,11-31.6,24.1v78.7c-.4,6-9.2,7-11,1.4V5.1c.7-6.3,9.6-6.2,11-.2l.3,8.6C18.9,5.9,28.9.2,39.6-.2h9.1Z"/>
  <path class="st0" d="M48.7-.2h33.1v39.8c0,.2-.1.2-.2,0-.8-17.1-7.6-33.5-25.4-38.3s-5-.9-7.5-1.5Z"/>
  <path class="st0" d="M39.6-.2l-7.4,1.6c-8.1,2.4-15.5,7.1-21.2,13.3l-.4-9.7C8.9-.7,1.6-.4,0,5.1V-.2h39.6Z"/>
  <path class="st3" d="M81.8,44.7c-.4-.6-.2-1.6-.2-2.4,0-.2.1-.2.2,0v2.4Z"/>
  <path class="st2" d="M81.8,42.3h-.2c0-.5,0-1,0-1.4,0-.2.1-.2.2,0v1.4Z"/>
  <path class="st1" d="M81.8,40.9h-.2c0-.4,0-.8,0-1.2h.2v1.2Z"/>
</svg>