<?xml version="1.0" encoding="UTF-8"?>
<svg id="Layer_2" xmlns="http://www.w3.org/2000/svg" version="1.1" viewBox="-3 -3 110.7 129.4">
  <!-- Generator: Adobe Illustrator 29.5.0, SVG Export Plug-In . SVG Version: 2.1.0 Build 137)  -->
  <defs>
    <style>
      .st6 {
        fill: #231f20;
        stroke: #000;
        stroke-miterlimit: 10;
        stroke-width: 2px;
      }

      .st1 {
        fill: #ffffff;
        stroke: #000;
        stroke-miterlimit: 10;
        stroke-width: 2px;
      }
    </style>
  </defs>
  <path class="st6" d="M57.4-.2c28.9,1,48,29.7,47.3,56.9.2.5.2,1.2,0,1.7.2,1.7.2,3.4,0,5,.2.5.2,1.2,0,1.7.7,27.8-19,58.5-49.2,58.1-.6.2-1.3.2-1.9,0-.7.2-1.5.2-2.2,0-.5.2-1.2.2-1.7,0C19.9,123.5.7,94.4,0,67.5v-1.7c.2-.5.2-1.1,0-1.7v-6.5c.2-.5.2-1.1,0-1.7,0-.6,0-1.1,0-1.7C.5,28.3,19.8.5,47.5-.2h9.8Z"/>
  <path class="st1" d="M49.2,9.7c49.8-3.5,61.4,71.3,26.2,96.5-13.3,9.5-31.9,9.6-45.4.3C-3.8,83.4,4,12.9,49.2,9.7Z"/>
</svg>