<?xml version="1.0" encoding="UTF-8"?>
<svg id="Layer_2" xmlns="http://www.w3.org/2000/svg" version="1.1" viewBox="0 0 104.7 123.4">
  <!-- Generator: Adobe Illustrator 29.5.0, SVG Export Plug-In . SVG Version: 2.1.0 Build 137)  -->
  <defs>
    <style>
      .st0 {
        fill: #c7c6c6;
      }

      .st0, .st1, .st2, .st3, .st4, .st5, .st6 {
        stroke: #000;
        stroke-miterlimit: 10;
        stroke-width: 2px;
      }

      .st1 {
        fill: #fefefe;
      }

      .st2 {
        fill: #929091;
      }

      .st3 {
        fill: #555253;
      }

      .st4 {
        fill: #c9c8c8;
      }

      .st5 {
        fill: #cac9c9;
      }

      .st6 {
        fill: #231f20;
      }
    </style>
  </defs>
  <path class="st6" d="M57.4-.2c28.9,1,48,29.7,47.3,56.9.2.5.2,1.2,0,1.7.2,1.7.2,3.4,0,5,.2.5.2,1.2,0,1.7.7,27.8-19,58.5-49.2,58.1-.6.2-1.3.2-1.9,0-.7.2-1.5.2-2.2,0-.5.2-1.2.2-1.7,0C19.9,123.5.7,94.4,0,67.5v-1.7c.2-.5.2-1.1,0-1.7v-6.5c.2-.5.2-1.1,0-1.7,0-.6,0-1.1,0-1.7C.5,28.3,19.8.5,47.5-.2h9.8Z"/>
  <path class="st1" d="M104.9,65.1v58.3h-49.4c-.2,0-.2-.1,0-.2,31.2-1.5,48.1-29.3,49.2-58.1,0-.2.1-.2.2,0Z"/>
  <path class="st1" d="M49.7,123.2c.2,0,.2.1,0,.2H0v-55.9l2.1,12.4c5.4,23.4,22.6,42.1,47.6,43.2Z"/>
  <path class="st1" d="M57.4-.2h47.5v56.9c0,.2-.1.2-.2,0-1-25.5-14.7-50.4-41.2-55.8s-4.1-.5-6-1Z"/>
  <path class="st1" d="M47.5-.2C19,2.2,2.1,27.6,0,54.3V-.2h47.5Z"/>
  <path class="st2" d="M104.9,63.4c0,.2-.1.2-.2,0,0-1.7,0-3.4,0-5,0-.2.1-.2.2,0v5Z"/>
  <path class="st2" d="M53.5,123.2c.2,0,.2.1,0,.2h-2.2c-.2,0-.2-.1,0-.2.7,0,1.4,0,2.2,0Z"/>
  <path class="st5" d="M55.4,123.2v.2h-1.9v-.2c.6,0,1.3,0,1.9,0Z"/>
  <path class="st3" d="M0,57.7v-1.7c.4.3.4,1.4,0,1.7Z"/>
  <path class="st0" d="M104.9,58.4h-.2c0-.6,0-1.1,0-1.7h.2v1.7Z"/>
  <path class="st4" d="M104.9,65.1h-.2c0-.6,0-1.1,0-1.7h.2v1.7Z"/>
  <path class="st3" d="M0,65.8v-1.7c.4.3.4,1.4,0,1.7Z"/>
  <path class="st0" d="M51.4,123.2v.2h-1.7v-.2c.6,0,1.1,0,1.7,0Z"/>
  <path class="st1" d="M49.2,9.7c49.8-3.5,61.4,71.3,26.2,96.5-13.3,9.5-31.9,9.6-45.4.3C-3.8,83.4,4,12.9,49.2,9.7Z"/>
</svg>