<?xml version="1.0" encoding="UTF-8"?>
<svg id="Layer_2" xmlns="http://www.w3.org/2000/svg" version="1.1" viewBox="0 0 99.6 229.7">
  <!-- Generator: Adobe Illustrator 29.5.0, SVG Export Plug-In . SVG Version: 2.1.0 Build 137)  -->
  <defs>
    <style>
      .st0 {
        fill: #939191;
      }

      .st0, .st1, .st2, .st3, .st4, .st5, .st6, .st7 {
        stroke: #000;
        stroke-miterlimit: 10;
        stroke-width: 2px;
      }

      .st1 {
        fill: #5a5758;
      }

      .st2 {
        fill: #fefefe;
      }

      .st3 {
        fill: #cbcaca;
      }

      .st4 {
        fill: #908e8f;
      }

      .st5 {
        fill: #fcfbfb;
      }

      .st6 {
        fill: #231f20;
      }

      .st7 {
        fill: #c2c1c1;
      }
    </style>
  </defs>
  <path class="st2" d="M99.6,66.7v163H6.7c-.2,0-.2-.1,0-.2l.3-.5c2.1-.3,3.7-1.9,4-4v-111c.7-4.1.8-8.3.5-12.5,0-.9.2-3.5.6-4.1s.7-.4,1.2.1c16,29.4,51.5,34.5,72.5,6.8,8.1-10.7,12.1-23.4,13.2-36.6.1-.4.4-.7.7-.9Z"/>
  <path class="st6" d="M55-.2c27.2,1.3,44.6,30.1,44.4,55.2.2.3.2.9,0,1.2.2.4.2.8,0,1.2.2,2.3.2,4.7,0,7,0,.5.1,1.1.2,1.7v.7c-.6,3-.8,6.1-1.3,9.2-4.4,25.9-24.8,51.5-53.7,46.4-11.9-2.1-22.6-10.3-29.1-20.3s-1.8-3.4-3-4.8c-.3,1.8-.6,3.4-.5,5.2.2,3.9.5,7.2-.5,11.3v111.4c-.4,2.5-2.3,4.2-4.8,4.4-.4.2-1.2.2-1.7,0-2.7.4-4.9-1.3-5-4.1V8.9c.8-6,10.2-5.8,11.4,0,.4,6,.5,12.1.4,18.1C18,13.3,31.1.6,46.6-.2h8.4Z"/>
  <path class="st2" d="M55-.2h44.6v55.2c0,.2-.1.2-.2,0-1-22-13.2-46.6-35.6-53.3s-5.9-1.2-8.8-1.9Z"/>
  <path class="st2" d="M46.6-.2l-6,1.3c-13.4,3.9-23.8,15.1-29,27.7-.4,0-.2-.3-.2-.6-.3-5.9.3-12.5-.2-18.3S2,3.3,0,8.9V-.2h46.6Z"/>
  <path class="st5" d="M5,229.5c.2,0,.2.1,0,.2H0v-4.3c.9,2.5,2.3,3.8,5,4.1Z"/>
  <path class="st1" d="M99.6,64.3c0,.2-.1.2-.2,0,0-2.3,0-4.6,0-7,0-.2.1-.2.2,0v7Z"/>
  <path class="st0" d="M99.6,66c-.4-.3-.2-1.2-.2-1.7h.2v1.7Z"/>
  <path class="st3" d="M6.7,229.5v.2h-1.7v-.2c.5,0,1.2,0,1.7,0Z"/>
  <path class="st7" d="M99.6,56.2c0,.2-.1.2-.2,0,0-.4,0-.8,0-1.2h.2v1.2Z"/>
  <path class="st4" d="M99.6,57.4h-.2c0-.4,0-.8,0-1.2h.2v1.2Z"/>
  <path class="st2" d="M48.2,9.7c5.1-.4,10.7.4,15.5,2.1,39.3,14.7,34.8,98.1-9.1,101.2-27.5,2-40-25.3-40.7-48.8S22.3,11.8,48.2,9.7Z"/>
</svg>