<?xml version="1.0" encoding="UTF-8"?>
<svg id="Layer_2" xmlns="http://www.w3.org/2000/svg" version="1.1" viewBox="-3 -3 105.6 235.7">
  <!-- Generator: Adobe Illustrator 29.5.0, SVG Export Plug-In . SVG Version: 2.1.0 Build 137)  -->
  <defs>
    <style>
      .st6 {
        fill: #231f20;
        stroke: #000;
        stroke-miterlimit: 10;
        stroke-width: 2px;
      }

      .st2 {
        fill: #ffffff;
        stroke: #000;
        stroke-miterlimit: 10;
        stroke-width: 2px;
      }
    </style>
  </defs>
  <path class="st6" d="M55-.2c27.2,1.3,44.6,30.1,44.4,55.2.2.3.2.9,0,1.2.2.4.2.8,0,1.2.2,2.3.2,4.7,0,7,0,.5.1,1.1.2,1.7v.7c-.6,3-.8,6.1-1.3,9.2-4.4,25.9-24.8,51.5-53.7,46.4-11.9-2.1-22.6-10.3-29.1-20.3s-1.8-3.4-3-4.8c-.3,1.8-.6,3.4-.5,5.2.2,3.9.5,7.2-.5,11.3v111.4c-.4,2.5-2.3,4.2-4.8,4.4-.4.2-1.2.2-1.7,0-2.7.4-4.9-1.3-5-4.1V8.9c.8-6,10.2-5.8,11.4,0,.4,6,.5,12.1.4,18.1C18,13.3,31.1.6,46.6-.2h8.4Z"/>
  <path class="st2" d="M48.2,9.7c5.1-.4,10.7.4,15.5,2.1,39.3,14.7,34.8,98.1-9.1,101.2-27.5,2-40-25.3-40.7-48.8S22.3,11.8,48.2,9.7Z"/>
</svg>