<?xml version="1.0" encoding="UTF-8"?>
<svg id="Layer_2" xmlns="http://www.w3.org/2000/svg" version="1.1" viewBox="0 0 132.4 227.6">
  <!-- Generator: Adobe Illustrator 29.5.0, SVG Export Plug-In . SVG Version: 2.1.0 Build 137)  -->
  <defs>
    <style>
      .st0 {
        fill: #555152;
      }

      .st0, .st1, .st2, .st3, .st4, .st5, .st6 {
        stroke: #000;
        stroke-miterlimit: 10;
        stroke-width: 2px;
      }

      .st1 {
        fill: #5e5b5c;
      }

      .st2 {
        fill: #fefefe;
      }

      .st3 {
        fill: #555253;
      }

      .st4 {
        fill: #636061;
      }

      .st5 {
        fill: #cac9c9;
      }

      .st6 {
        fill: #231f20;
      }
    </style>
  </defs>
  <path class="st2" d="M0,67.5c.3.3.5.7.7,1.1,1.8,19.7,11.8,38.4,29.8,47.5,23.3,11.8,47.6,1,59.6-20.2.2,0,.7-.2.8-.2.7.4.5,9.1.5,10.7-.8,3.7-.7,7.2.3,10.4-.1,35.2-.2,70.4-.3,105.6,0,2.1,1.8,4.1,3.8,4.4l.3.5c.2,0,.2.1,0,.2H0V67.5Z"/>
  <path class="st2" d="M54.5-.2h78v191.8c0,.2-.1.2-.2,0l-.5-.3c-.6-3.3-4.9-5.5-7.8-3.7l-20.9,20.7h-.5c0-.1-.5-.4-.5-.4V11.7l.5-.3h-.5c-1.6-5.2-8.9-4.8-10,.5l-.5.2.5.2v13.3l-.5.3h-.5C83.6,12.9,71,2.6,55.4.5c-.4-.1-.7-.4-.9-.7Z"/>
  <path class="st6" d="M47-.2c.5.2,1,.2,1.4,0h6c3.4.7,6.8,1.3,10.1,2.5,8.8,3.2,16.7,9.3,22.4,16.8l4.5,6.9v-13.8c0-.5.6-2,.9-2.4,1.8-3,6.7-3.3,8.9-.6s1.2,2.1,1.2,2.4v196.7l21.2-20.9c3.3-2,8.2.6,8.6,4.4.2.5.2,1.4,0,1.9.2.7,0,2-.5,2.5-2.3,2.2-4.7,4.4-6.9,6.7-6.7,7-13.5,13.9-20.4,20.7-.9.9-3.4,3.3-4.5,3.8s-1.5.3-2,.2c-.7.2-1.7.2-2.4,0-2.5-.3-4.5-2.4-4.6-4.9-.3-35.2.4-70.5.3-105.6s-.6-1.4-.7-2.4c-.3-3,.4-6.1.5-9.1s-.1-6.3-.3-9.5l-4.7,7.2C57.7,138.1,10.9,119.3,1.8,78.3S.7,71.1,0,67.5v-1.7c.2-.5.2-1.1,0-1.7v-6.5c.2-.5.2-1.1,0-1.7,0-.5,0-1,0-1.4,0-10.3,3.5-20.6,8.6-29.4C16.5,11.7,29.9.1,46.1-.2h1Z"/>
  <path class="st2" d="M46.1-.2C18.9,2.4,2,29.2,0,54.5V-.2h46.1Z"/>
  <path class="st2" d="M132.5,193.5v34.1h-34.6c-.2,0-.2-.1,0-.2,1.9-.2,3.3-1.7,4.7-2.9,10-8.9,18.9-19.8,28.8-28.8.6-.6.7-1.4.8-2.2,0-.2.1-.2.2,0Z"/>
  <path class="st5" d="M97.9,227.3v.2h-2.4v-.2c.6,0,1.8,0,2.4,0Z"/>
  <path class="st4" d="M132.5,193.5h-.2c0-.5,0-1.4,0-1.9h.2v1.9Z"/>
  <path class="st1" d="M0,57.6v-1.7c.4.3.4,1.4,0,1.7Z"/>
  <path class="st3" d="M0,65.8v-1.7c.4.3.4,1.4,0,1.7Z"/>
  <path class="st0" d="M48.5-.2c-.2.4-1.2.4-1.4,0h1.4Z"/>
  <path class="st2" d="M46.8,9.5c12.3-1,22.4,3.1,30.5,12.3,18.5,20.8,17.5,64.2-4.7,82.2-10.6,8.6-24.8,10-37.3,4.7C-4.1,91.9,1.4,13,46.8,9.5Z"/>
</svg>