<?xml version="1.0" encoding="UTF-8"?>
<svg id="Layer_2" xmlns="http://www.w3.org/2000/svg" version="1.1" viewBox="-1 -1 134.4 229.6">
  <!-- Generator: Adobe Illustrator 29.5.0, SVG Export Plug-In . SVG Version: 2.1.0 Build 137)  -->
  <defs>
    <style>
      .st6 {
        fill: #231f20;
        stroke: #000;
        stroke-miterlimit: 10;
        stroke-width: 2px;
      }
    </style>
  </defs>
  
  
  
  
  
  
  
  
  
  
  
  
  
  <path class="st6" d="M47-.2c.5.2,1,.2,1.4,0h6c3.4.7,6.8,1.3,10.1,2.5,8.8,3.2,16.7,9.3,22.4,16.8l4.5,6.9v-13.8c0-.5.6-2,.9-2.4,1.8-3,6.7-3.3,8.9-.6s1.2,2.1,1.2,2.4v196.7l21.2-20.9c3.3-2,8.2.6,8.6,4.4.2.5.2,1.4,0,1.9.2.7,0,2-.5,2.5-2.3,2.2-4.7,4.4-6.9,6.7-6.7,7-13.5,13.9-20.4,20.7-.9.9-3.4,3.3-4.5,3.8s-1.5.3-2,.2c-.7.2-1.7.2-2.4,0-2.5-.3-4.5-2.4-4.6-4.9-.3-35.2.4-70.5.3-105.6s-.6-1.4-.7-2.4c-.3-3,.4-6.1.5-9.1s-.1-6.3-.3-9.5l-4.7,7.2C57.7,138.1,10.9,119.3,1.8,78.3S.7,71.1,0,67.5v-1.7c.2-.5.2-1.1,0-1.7v-6.5c.2-.5.2-1.1,0-1.7,0-.5,0-1,0-1.4,0-10.3,3.5-20.6,8.6-29.4C16.5,11.7,29.9.1,46.1-.2h1Z"/>
</svg>