<?xml version="1.0" encoding="UTF-8"?>
<svg id="Layer_2" xmlns="http://www.w3.org/2000/svg" version="1.1" viewBox="0 0 73.3 122.8">
  <!-- Generator: Adobe Illustrator 29.5.0, SVG Export Plug-In . SVG Version: 2.1.0 Build 137)  -->
  <defs>
    <style>
      .st0 {
        fill: #fefefe;
      }

      .st0, .st1, .st2, .st3 {
        stroke: #000;
        stroke-miterlimit: 10;
        stroke-width: 2px;
      }

      .st1 {
        fill: #5b5859;
      }

      .st2 {
        fill: #fbfbfb;
      }

      .st3 {
        fill: #231f20;
      }
    </style>
  </defs>
  <path class="st0" d="M73.4,29.4v93.4H6.2c-.2,0-.2-.1,0-.2l.3-.5c2-.3,3.2-2,3.3-3.9V39.1c0-.5.4-3.3.5-3.4.3-.4.6-.6,1.1-.4,2.9-11.1,10.7-22.9,23.1-24.2s23.3,5.6,27.6,17.9c1.9,5.9,8.5,6.7,10.8.7l.6-.2Z"/>
  <path class="st3" d="M41.8-.1c13.3.3,23.7,9.2,29.4,20.8,1.1,2.2,2.1,4.5,2.3,7v1.7c-1.1,2.6-2.7,4.8-5.9,4.8-5.3,0-6.1-6.5-8.2-10.2-5.2-9.2-13.4-13.3-23.9-12.6-12.8.9-20.6,12.7-23.6,24.1-.2.3-.8,0-1,.2s-.2,2.9-.5,3.5v79c-.1,2.4-1.6,4.2-4.1,4.4-.7,0-1.4.1-2.2.2h-.5c-2.1-.3-3.5-1.4-3.6-3.6V8.5c.2-3.6,4.9-5.5,7.8-3.8s2.7,2.2,2,3.2c.2,0,.5,0,.5.2.2,1.4.2,4.1-.5,5.2,1.6-2.5,4.7-5.6,7.6-7.6C22.3,2.1,27.7.2,33.6-.1h8.2Z"/>
  <path class="st0" d="M41.8-.1h31.7v27.8c-4.1-12.5-12.6-23.3-25.8-26.7s-4-.7-5.9-1.2Z"/>
  <path class="st0" d="M33.6-.1l-6.9,1.6c-7,2.2-11.6,6.1-16.3,11.5s0,.5-.5.3v-5.4c0-.2-.7-1.4-1-1.7C6.2,3.1,1.2,4.9,0,8.5V-.1h33.6Z"/>
  <path class="st2" d="M3.6,122.8H0v-3.6c.7,2,1.9,2.6,3.6,3.6Z"/>
  <path class="st1" d="M6.2,122.5v.2h-2.2c.5-.5,1.5-.2,2.2-.2Z"/>
</svg>