<?xml version="1.0" encoding="UTF-8"?>
<svg id="Layer_2" xmlns="http://www.w3.org/2000/svg" version="1.1" viewBox="-3 -3 79.3 128.8">
  <!-- Generator: Adobe Illustrator 29.5.0, SVG Export Plug-In . SVG Version: 2.1.0 Build 137)  -->
  <defs>
    <style>
      .st3 {
        fill: #231f20;
        stroke: #000;
        stroke-miterlimit: 10;
        stroke-width: 2px;
      }
    </style>
  </defs>
  <path class="st3" d="M41.8-.1c13.3.3,23.7,9.2,29.4,20.8,1.1,2.2,2.1,4.5,2.3,7v1.7c-1.1,2.6-2.7,4.8-5.9,4.8-5.3,0-6.1-6.5-8.2-10.2-5.2-9.2-13.4-13.3-23.9-12.6-12.8.9-20.6,12.7-23.6,24.1-.2.3-.8,0-1,.2s-.2,2.9-.5,3.5v79c-.1,2.4-1.6,4.2-4.1,4.4-.7,0-1.4.1-2.2.2h-.5c-2.1-.3-3.5-1.4-3.6-3.6V8.5c.2-3.6,4.9-5.5,7.8-3.8s2.7,2.2,2,3.2c.2,0,.5,0,.5.2.2,1.4.2,4.1-.5,5.2,1.6-2.5,4.7-5.6,7.6-7.6C22.3,2.1,27.7.2,33.6-.1h8.2Z"/>
</svg>