<?xml version="1.0" encoding="UTF-8"?>
<svg id="Layer_2" xmlns="http://www.w3.org/2000/svg" version="1.1" viewBox="0 0 86.6 122">
  <!-- Generator: Adobe Illustrator 29.5.0, SVG Export Plug-In . SVG Version: 2.1.0 Build 137)  -->
  <defs>
    <style>
      .st0 {
        fill: #575455;
      }

      .st0, .st1, .st2, .st3 {
        stroke: #000;
        stroke-miterlimit: 10;
        stroke-width: 2px;
      }

      .st1 {
        fill: #5a5758;
      }

      .st2 {
        fill: #fefefe;
      }

      .st3 {
        fill: #231f20;
      }
    </style>
  </defs>
  <path class="st2" d="M38.2-.2l-.2.5-8.4,1.5C5.9,6.4-7,36.7,15.1,52.4s14,7.1,21.6,9.2l14.1,3.7c13.7,3.8,29.8,11.1,25.7,27.9s-24,21.4-40,18.6c-11.1-2-21.6-6.9-28.8-15.4-2.5-2.4-6.2-.8-7.4,2.1l-.6.2V-.2h38.4Z"/>
  <path class="st2" d="M48.2-.2h38.4v122.4H-.2v-21.1l1,.6c19.6,28.4,88.3,28.6,85.2-15.9-1.2-17.6-15.1-23.7-30-28.2l-15.3-4.1c-11.1-3.1-27-7.7-27.9-21.4s3.9-14.1,9.9-17.7c17.4-10.5,40.4-4.8,53.6,9.5,3.7,4.6,10.4-.5,7.8-5.2s-8.6-8.3-11.9-10.3C64.7,3.8,57.1,1.6,48.7.2l-.4-.4Z"/>
  <path class="st3" d="M39.4-.2c.5.2,1,.2,1.4,0h5c.5.2,1,.2,1.4,0h1c2.5.5,5,.8,7.4,1.3,9,2,17.9,6.8,24.7,13s6.5,5.8,3.5,9.7c-4.6,6-8.8-.7-12.4-3.7-12.9-10.9-32.9-14.5-48-5.8-12.2,7.1-14.7,22.6-2.1,30.9,20.1,13.3,63.5,8.5,65,41.5s-37.8,40.3-63.1,31.4c-8.9-3.1-18.4-9-23.6-17.1v-2.4c1.2-2.7,3.4-4.4,6.5-3.8s4.4,4,5.9,5.3c12.8,11.3,37.2,16,52.5,7.8s16.9-23.1,6.4-32.4c-14.6-13.1-40.9-10.7-57.7-23.9S6.7,4.9,30.3,1.2l7.9-1.4h1.2Z"/>
  <path class="st1" d="M40.8-.2c-.2.4-1.2.4-1.4,0h1.4Z"/>
  <path class="st0" d="M47.3-.2c-.2.4-1.2.4-1.4,0h1.4Z"/>
</svg>