<?xml version="1.0" encoding="UTF-8"?>
<svg id="Layer_2" xmlns="http://www.w3.org/2000/svg" version="1.1" viewBox="-3 -3 92.6 128">
  <!-- Generator: Adobe Illustrator 29.5.0, SVG Export Plug-In . SVG Version: 2.1.0 Build 137)  -->
  <defs>
    <style>
      .st3 {
        fill: #231f20;
        stroke: #000;
        stroke-miterlimit: 10;
        stroke-width: 2px;
      }
    </style>
  </defs>
  <path class="st3" d="M39.4-.2c.5.2,1,.2,1.4,0h5c.5.2,1,.2,1.4,0h1c2.5.5,5,.8,7.4,1.3,9,2,17.9,6.8,24.7,13s6.5,5.8,3.5,9.7c-4.6,6-8.8-.7-12.4-3.7-12.9-10.9-32.9-14.5-48-5.8-12.2,7.1-14.7,22.6-2.1,30.9,20.1,13.3,63.5,8.5,65,41.5s-37.8,40.3-63.1,31.4c-8.9-3.1-18.4-9-23.6-17.1v-2.4c1.2-2.7,3.4-4.4,6.5-3.8s4.4,4,5.9,5.3c12.8,11.3,37.2,16,52.5,7.8s16.9-23.1,6.4-32.4c-14.6-13.1-40.9-10.7-57.7-23.9S6.7,4.9,30.3,1.2l7.9-1.4h1.2Z"/>
</svg>