<?xml version="1.0" encoding="UTF-8"?>
<svg id="Layer_2" xmlns="http://www.w3.org/2000/svg" version="1.1" viewBox="0 0 81.6 177.8">
  <!-- Generator: Adobe Illustrator 29.5.0, SVG Export Plug-In . SVG Version: 2.1.0 Build 137)  -->
  <defs>
    <style>
      .st0 {
        fill: #fefefe;
      }

      .st0, .st1, .st2 {
        stroke: #000;
        stroke-miterlimit: 10;
        stroke-width: 2px;
      }

      .st1 {
        fill: #5b5859;
      }

      .st2 {
        fill: #231f20;
      }
    </style>
  </defs>
  <path class="st0" d="M81.6,77.7v100.1h-39.6l.2-.6c1.8-.7,3.2-2,3.6-3.9l.5-.2-.5-.2v-90.8l.5-.3c0-.2,0-.5.2-.5,9.7-.2,19.9-.2,29.6,0,1-.2,1.7,0,2.1.5v-.5c1.6-.7,2.4-1.8,2.9-3.4h.6Z"/>
  <path class="st0" d="M38.9,177.8H0v-99.8h.6c.6,1.5,1.3,2.6,2.8,3.3v.6c0,0,.3-.5.3-.5h30.7l.3.5c.5-.4.7-.2.4.4l.5.2v91.2l-.5.3h.5c.6,1.8,1.8,2.6,3.3,3.4v.6Z"/>
  <path class="st2" d="M42.2,0c4.2.3,4.6,3.7,4.8,7.3,0,8.7-.2,17.5-.3,26.2.3,2.2.3,4.1,0,6.1.5,2,.5,3.9,0,5.7v24.7s-.4.3-.4.3l.2-.5h30.9l.3.5c.3-.7,1.4,0,1.9.4,1.6,1.1,1.8,2.2,2.1,4v3.1c-.4.9-.7,2-1.4,2.8s-1.9,1.3-2,1.3h-31.8v91.3c0,0-.4,1.4-.5,1.6-.7,1.6-2.2,2.4-3.8,3.1h-.5c-.7-.2-1.5-.2-2.2,0h-.5c-1-.7-2-.9-2.8-1.9s-1.1-1.7-1.1-2v-91.7s-.3-.4-.4-.4H3.5c-.2,0-1.7-1-1.9-1.2-.7-.7-1-1.8-1.6-2.6v-3.6c.1-1.4.4-2.2,1.4-3.1s1.9-1.8,2.6-.9l.2-.5h30.6l.3.5c-.3-1.5-.4-3.1-.5-4.6V3.8c.4-2.3,2-3.8,4.3-3.9h3.4Z"/>
  <path class="st0" d="M42.2,0h39.4v74.6c-.6-1.4-1-2.7-2.3-3.6s-1.5-.8-1.6-.8h-31.3v-25.1c1.1-2.6-.9-4.9.3-7.7-1.3-10.5.8-22.5-.3-32.9-.3-2.5-1.8-3.9-4.1-4.7Z"/>
  <path class="st0" d="M38.9,0c-1.9.8-3.5,1.7-3.8,4,.1,11-.1,22.1,0,33.1s0,5,0,7.7c0,8.5,0,17.1,0,25.6H4c-1.5,0-3.7,2.6-4,4.1V0h38.9Z"/>
  <path class="st1" d="M41.5,177.8h-2.2c.4-.4,1.7-.4,2.2,0Z"/>
</svg>