<?xml version="1.0" encoding="UTF-8"?>
<svg id="Layer_2" xmlns="http://www.w3.org/2000/svg" version="1.1" viewBox="-3 -3 87.6 183.8">
  <!-- Generator: Adobe Illustrator 29.5.0, SVG Export Plug-In . SVG Version: 2.1.0 Build 137)  -->
  <defs>
    <style>
      .st2 {
        fill: #231f20;
        stroke: #000;
        stroke-miterlimit: 10;
        stroke-width: 2px;
      }
    </style>
  </defs>
  <path class="st2" d="M42.2,0c4.2.3,4.6,3.7,4.8,7.3,0,8.7-.2,17.5-.3,26.2.3,2.2.3,4.1,0,6.1.5,2,.5,3.9,0,5.7v24.7s-.4.3-.4.3l.2-.5h30.9l.3.5c.3-.7,1.4,0,1.9.4,1.6,1.1,1.8,2.2,2.1,4v3.1c-.4.9-.7,2-1.4,2.8s-1.9,1.3-2,1.3h-31.8v91.3c0,0-.4,1.4-.5,1.6-.7,1.6-2.2,2.4-3.8,3.1h-.5c-.7-.2-1.5-.2-2.2,0h-.5c-1-.7-2-.9-2.8-1.9s-1.1-1.7-1.1-2v-91.7s-.3-.4-.4-.4H3.5c-.2,0-1.7-1-1.9-1.2-.7-.7-1-1.8-1.6-2.6v-3.6c.1-1.4.4-2.2,1.4-3.1s1.9-1.8,2.6-.9l.2-.5h30.6l.3.5c-.3-1.5-.4-3.1-.5-4.6V3.8c.4-2.3,2-3.8,4.3-3.9h3.4Z"/>
</svg>