<?xml version="1.0" encoding="UTF-8"?>
<svg id="Layer_2" xmlns="http://www.w3.org/2000/svg" version="1.1" viewBox="0 0 86.5 115.9">
  <!-- Generator: Adobe Illustrator 29.5.0, SVG Export Plug-In . SVG Version: 2.1.0 Build 137)  -->
  <defs>
    <style>
      .st0 {
        fill: #5c595a;
      }

      .st0, .st1, .st2, .st3, .st4, .st5 {
        stroke: #000;
        stroke-miterlimit: 10;
        stroke-width: 2px;
      }

      .st1 {
        fill: #fefefe;
      }

      .st2 {
        fill: #fbfbfb;
      }

      .st3 {
        fill: #fafafa;
      }

      .st4 {
        fill: #908e8f;
      }

      .st5 {
        fill: #231f20;
      }
    </style>
  </defs>
  <path class="st1" d="M80.2-.2V.3c-.8.4-2.6,1.7-2.6,2.6-.4,22.5-.3,45-.3,67.5,0,4.1,0,8.1-.3,12.1s-4.4,7.8-5.9,9.6c-10.3,12-25.1,17.3-40.6,13.3s-20.8-16.7-21.4-31.1V3.8c-.1-1.6-1.3-2.8-2.7-3.4V-.2C6.2-.2,80.2-.2,80.2-.2Z"/>
  <path class="st5" d="M6.2-.2c1.8.8,3.1,1.9,3.4,4v70.6c1,21.8,12.7,33.2,34.9,31.8,12.9-.8,27.7-11.9,32.1-24.1.6-26.4-.3-52.9.5-79.2.4-1.5,1.8-2.4,3.1-3.1h3.1c2.1.2,3.5,1.7,3.1,3.8.2,34.8.2,71.4,0,106.3.3,5.8-9,5.4-9.6,0,0-3.3-.1-6.6-.2-9.8-3.2,3.2-6.7,6.6-10.7,9.1-9.8,6.2-19.4,7.5-30.8,6.7C13.2,114.3.4,98.4,0,77.1v-1.7c.2-.5.2-1.1,0-1.7V3.1C.1,1,1.2,0,3.4-.2h2.9Z"/>
  <path class="st1" d="M0,77.1c.7,2.6.8,5.3,1.3,8,3.8,19.7,17.2,29.7,37,30.7s29-5.2,38.7-17c.8,3.5,0,7.5.4,10.9.6,5.5,8.6,5.2,9.1.4,0-.2.1-.2.2,0v6.2H0v-39.1Z"/>
  <path class="st4" d="M86.6,109.9h-.2V3.6c0-.2.1-.2.2,0v106.3Z"/>
  <path class="st2" d="M83.3-.2h3.4v3.8h-.2c-.2-2.2-1.4-2.8-3.1-3.8Z"/>
  <path class="st3" d="M3.4-.2C1.6.5.7,1.4,0,3.1V-.2h3.4Z"/>
  <path class="st0" d="M0,75.4v-1.7c.4.3.4,1.4,0,1.7Z"/>
</svg>