<?xml version="1.0" encoding="UTF-8"?>
<svg id="Layer_2" xmlns="http://www.w3.org/2000/svg" version="1.1" viewBox="-3 -3 92.5 121.9">
  <!-- Generator: Adobe Illustrator 29.5.0, SVG Export Plug-In . SVG Version: 2.1.0 Build 137)  -->
  <defs>
    <style>
      .st5 {
        fill: #231f20;
        stroke: #000;
        stroke-miterlimit: 10;
        stroke-width: 2px;
      }
    </style>
  </defs>
  <path class="st5" d="M6.2-.2c1.8.8,3.1,1.9,3.4,4v70.6c1,21.8,12.7,33.2,34.9,31.8,12.9-.8,27.7-11.9,32.1-24.1.6-26.4-.3-52.9.5-79.2.4-1.5,1.8-2.4,3.1-3.1h3.1c2.1.2,3.5,1.7,3.1,3.8.2,34.8.2,71.4,0,106.3.3,5.8-9,5.4-9.6,0,0-3.3-.1-6.6-.2-9.8-3.2,3.2-6.7,6.6-10.7,9.1-9.8,6.2-19.4,7.5-30.8,6.7C13.2,114.3.4,98.4,0,77.1v-1.7c.2-.5.2-1.1,0-1.7V3.1C.1,1,1.2,0,3.4-.2h2.9Z"/>
</svg>