<?xml version="1.0" encoding="UTF-8"?>
<svg id="Layer_2" xmlns="http://www.w3.org/2000/svg" version="1.1" viewBox="-1 -1 97.6 118.1">
  <!-- Generator: Adobe Illustrator 29.5.0, SVG Export Plug-In . SVG Version: 2.1.0 Build 137)  -->
  <defs>
    <style>
      .st4 {
        fill: #231f20;
        stroke: #000;
        stroke-miterlimit: 10;
        stroke-width: 2px;
      }
    </style>
  </defs>
  <path class="st4" d="M6.7,0c1.2.6,2.4,1.4,2.9,2.7l37.9,94.9.5.6L85.6,3.4c.7-1.8,1.6-2.8,3.4-3.4h3.1c2.2.1,3.8,1.6,3.4,3.8.2.4.2,1,0,1.4,0,.2,0,.5-.1.7l-43.2,107.5c-.6,1.4-1.7,2-3,2.6h-2.6c-1.3-.6-2.6-1.2-3.2-2.7L0,5.5v-2.2C.2,1.3,1.3.1,3.4,0h3.4Z"/>
</svg>