<?xml version="1.0" encoding="UTF-8"?>
<svg id="Layer_2" xmlns="http://www.w3.org/2000/svg" version="1.1" viewBox="0 0 95.6 116.1">
  <!-- Generator: Adobe Illustrator 29.5.0, SVG Export Plug-In . SVG Version: 2.1.0 Build 137)  -->
  <defs>
    <style>
      .st0 {
        fill: #fefefe;
      }

      .st0, .st1, .st2, .st3, .st4 {
        stroke: #000;
        stroke-miterlimit: 10;
        stroke-width: 2px;
      }

      .st1 {
        fill: #a09f9f;
      }

      .st2 {
        fill: #fbfbfb;
      }

      .st3 {
        fill: #fafafa;
      }

      .st4 {
        fill: #231f20;
      }
    </style>
  </defs>
  <path class="st0" d="M89,0l-.2.6c-1.2.5-2.1,1.4-2.6,2.6l-37.7,94.8c-.6.8-1.3.2-1.6-.5L9.2,2.9c-.4-1.1-1.4-1.8-2.4-2.3V0C6.7,0,89,0,89,0Z"/>
  <path class="st0" d="M95.8,5.3v110.9h-46.6v-.6c1.1-.5,2.1-1.1,2.6-2.3L95,5.5l.5-.2c0-.2.1-.2.2,0Z"/>
  <path class="st0" d="M46.6,116.1H0V5.5h.5s43.4,107.9,43.4,107.9c.5,1.1,1.5,1.7,2.6,2.2v.6Z"/>
  <path class="st4" d="M6.7,0c1.2.6,2.4,1.4,2.9,2.7l37.9,94.9.5.6L85.6,3.4c.7-1.8,1.6-2.8,3.4-3.4h3.1c2.2.1,3.8,1.6,3.4,3.8.2.4.2,1,0,1.4,0,.2,0,.5-.1.7l-43.2,107.5c-.6,1.4-1.7,2-3,2.6h-2.6c-1.3-.6-2.6-1.2-3.2-2.7L0,5.5v-2.2C.2,1.3,1.3.1,3.4,0h3.4Z"/>
  <path class="st2" d="M92.2,0h3.6v3.8c0,.2-.1.2-.2,0-.2-2.1-1.5-3.1-3.4-3.8Z"/>
  <path class="st3" d="M3.4,0C1.6.7.7,1.6,0,3.3V0h3.4Z"/>
  <path class="st1" d="M95.8,5.3h-.2c0-.4,0-1.1,0-1.4h.2v1.4Z"/>
</svg>