<?xml version="1.0" encoding="UTF-8"?>
<svg id="Layer_2" xmlns="http://www.w3.org/2000/svg" version="1.1" viewBox="0 0 164.9 117.6">
  <!-- Generator: Adobe Illustrator 29.5.0, SVG Export Plug-In . SVG Version: 2.1.0 Build 137)  -->
  <defs>
    <style>
      .st0 {
        fill: #fefefe;
      }

      .st0, .st1, .st2 {
        stroke: #000;
        stroke-miterlimit: 10;
        stroke-width: 2px;
      }

      .st1 {
        fill: #231f20;
      }

      .st2 {
        fill: #cecdcd;
      }
    </style>
  </defs>
  <path class="st0" d="M158.2-.2V.4c-1.2.5-2.2,1.2-2.6,2.4-10.8,31.2-21.8,62.3-32.9,93.3-.3.6-.7.5-1.2.2L84.8,3.4c-1.6-3.6-7-3-8.5.3l-33.3,95.1c-.8.5-1.5,0-2-1.8L8.8,5C7.1,1.6,1.8,1.8.3,5.3l-.6.2V-.2h158.4Z"/>
  <path class="st0" d="M161.3-.2h3.6v117.8H42.5c-.2,0-.2-.1,0-.2l.2-.5c2.3-.6,4-2.6,4.8-4.7L80.1,19.4c.2-.7,1.3-.5,1.5,0,10.9,27.4,21.7,54.7,32.6,82,1.2,5.1,5.3,18.3,12,11.3L164.1,5.2c.4-2.3-.5-3.9-2.6-4.8l-.2-.6Z"/>
  <path class="st1" d="M161.3-.2c2.4,1,3.8,2.8,3.3,5.5l-37.9,107.5c-1.2,2.3-4.7,2.9-6.7,1.4s-4.3-6.7-5.3-9.4-.4-2.2-.9-3.4c-10.5-27.5-22.1-54.5-32.5-82l-.5-.3-32.5,92.5c-.6,2.3-3.2,5.4-5.7,5.7-.3.2-1.1.2-1.4,0-1.6.3-3-.6-3.7-2L.2,10.5l-.5-2.8v-2.2C1,1.3,7.4.9,9.2,4.8l32.3,92,1,2L75.7,3.9c1.4-4,7.8-4.8,9.5-.6l36.8,93c1-2.1,1.7-4.4,2.5-6.6,10.3-29,20.2-58.1,30.5-87.1.5-1.5,1.7-2.2,3.1-2.8h3.1Z"/>
  <path class="st0" d="M41,117.4c.2,0,.2.1,0,.2H-.2V7.7l38,107.5c.6,1.2,1.9,2,3.3,2.1Z"/>
  <path class="st2" d="M42.5,117.4v.2h-1.4v-.2c.4,0,1.1,0,1.4,0Z"/>
</svg>