<?xml version="1.0" encoding="UTF-8"?>
<svg id="Layer_2" xmlns="http://www.w3.org/2000/svg" version="1.1" viewBox="-3 -3 170.9 123.6">
  <!-- Generator: Adobe Illustrator 29.5.0, SVG Export Plug-In . SVG Version: 2.1.0 Build 137)  -->
  <defs>
    <style>
      .st1 {
        fill: #231f20;
        stroke: #000;
        stroke-miterlimit: 10;
        stroke-width: 2px;
      }
    </style>
  </defs>
  <path class="st1" d="M161.3-.2c2.4,1,3.8,2.8,3.3,5.5l-37.9,107.5c-1.2,2.3-4.7,2.9-6.7,1.4s-4.3-6.7-5.3-9.4-.4-2.2-.9-3.4c-10.5-27.5-22.1-54.5-32.5-82l-.5-.3-32.5,92.5c-.6,2.3-3.2,5.4-5.7,5.7-.3.2-1.1.2-1.4,0-1.6.3-3-.6-3.7-2L.2,10.5l-.5-2.8v-2.2C1,1.3,7.4.9,9.2,4.8l32.3,92,1,2L75.7,3.9c1.4-4,7.8-4.8,9.5-.6l36.8,93c1-2.1,1.7-4.4,2.5-6.6,10.3-29,20.2-58.1,30.5-87.1.5-1.5,1.7-2.2,3.1-2.8h3.1Z"/>
</svg>