<?xml version="1.0" encoding="UTF-8"?>
<svg id="Layer_2" xmlns="http://www.w3.org/2000/svg" version="1.1" viewBox="-3 -3 99.5 117.9">
  <!-- Generator: Adobe Illustrator 29.5.0, SVG Export Plug-In . SVG Version: 2.1.0 Build 137)  -->
  <defs>
    <style>
      .st5 {
        fill: #231f20;
        stroke: #000;
        stroke-miterlimit: 10;
        stroke-width: 2px;
      }
    </style>
  </defs>
  <path class="st5" d="M9.1-.1c1.1.2,1.8.4,2.7,1.2l34.8,45.3c8.3-10.5,16.5-21.1,24.3-32,3.3-4.4,6.9-8.8,10.3-13s1.5-1.4,3-1.5h3.4c3.5.2,4.8,4.2,3.2,7l-37.2,48.1c13.1,16.6,26.3,33.1,39.6,49.6.2.6.5,1.4.2,2,.2.5.2,1.4,0,1.9.4,2-1.3,3.8-3.4,3.4-.8.2-2,.2-2.9,0-1.5.2-2.7-.5-3.7-2l-36.8-45.8c-12.3,15.3-24.6,30.8-36.8,46.3-.8,1.1-1.9,1.8-3.2,1.5-.8.2-2,.2-2.9,0-2,.4-3.4-1.2-3.6-3.1v-2.4l.4-1.3c13.2-16.6,26.4-33.2,39.4-49.8L2.8,7.2C1,4.4,2,.3,5.5-.1h3.6Z"/>
</svg>