<?xml version="1.0" encoding="UTF-8"?>
<svg id="Layer_2" xmlns="http://www.w3.org/2000/svg" version="1.1" viewBox="0 0 93.5 111.9">
  <!-- Generator: Adobe Illustrator 29.5.0, SVG Export Plug-In . SVG Version: 2.1.0 Build 137)  -->
  <defs>
    <style>
      .st0 {
        fill: #fcfcfc;
      }

      .st0, .st1, .st2, .st3, .st4, .st5 {
        stroke: #000;
        stroke-miterlimit: 10;
        stroke-width: 2px;
      }

      .st1 {
        fill: #fefefe;
      }

      .st2 {
        fill: #979596;
      }

      .st3 {
        fill: #6a6768;
      }

      .st4 {
        fill: #fafafa;
      }

      .st5 {
        fill: #231f20;
      }
    </style>
  </defs>
  <path class="st5" d="M9.1-.1c1.1.2,1.8.4,2.7,1.2l34.8,45.3c8.3-10.5,16.5-21.1,24.3-32,3.3-4.4,6.9-8.8,10.3-13s1.5-1.4,3-1.5h3.4c3.5.2,4.8,4.2,3.2,7l-37.2,48.1c13.1,16.6,26.3,33.1,39.6,49.6.2.6.5,1.4.2,2,.2.5.2,1.4,0,1.9.4,2-1.3,3.8-3.4,3.4-.8.2-2,.2-2.9,0-1.5.2-2.7-.5-3.7-2l-36.8-45.8c-12.3,15.3-24.6,30.8-36.8,46.3-.8,1.1-1.9,1.8-3.2,1.5-.8.2-2,.2-2.9,0-2,.4-3.4-1.2-3.6-3.1v-2.4l.4-1.3c13.2-16.6,26.4-33.2,39.4-49.8L2.8,7.2C1,4.4,2,.3,5.5-.1h3.6Z"/>
  <path class="st1" d="M87.6-.1h6v106.6c0,.2-.1.2-.2,0,0-.7-.2-1.1-.6-1.7l-39.9-49.8L90.3,6.6c1.5-2.8.2-5.7-2.7-6.7Z"/>
  <path class="st1" d="M5.5-.1C2.6,1.3,1.4,3.9,3.2,6.9l37.3,48.3L0,106.2V-.1h5.5Z"/>
  <path class="st1" d="M87.1,111.7c.2,0,.2.1,0,.2H6.5c-.2,0-.2-.1,0-.2,1.4-.1,2-.9,2.9-1.8l36.5-46.1.8-.6,37.1,46.2c1,1.1,1.7,2.1,3.4,2.3Z"/>
  <path class="st1" d="M84.2-.1c-1.7.6-2.3,1.5-3.3,2.8-11.7,14.1-22.2,29.8-33.8,44.2s-.3.4-.2.6L11.3,1.2,9.1-.1h75.1Z"/>
  <path class="st0" d="M93.6,108.3v3.6h-3.6c-.2,0-.2-.1,0-.2,1.7-.2,3.2-1.6,3.4-3.4,0-.2.1-.2.2,0Z"/>
  <path class="st4" d="M3.6,111.7c.2,0,.2.1,0,.2H0v-3.4c.8,1.5,1.8,2.9,3.6,3.1Z"/>
  <path class="st2" d="M6.5,111.7v.2h-2.9v-.2c.7,0,2.1,0,2.9,0Z"/>
  <path class="st2" d="M90,111.7v.2h-2.9v-.2c.7,0,2.1,0,2.9,0Z"/>
  <path class="st3" d="M93.6,108.3h-.2c0-.5,0-1.4,0-1.9h.2v1.9Z"/>
</svg>