<?xml version="1.0" encoding="UTF-8"?>
<svg id="Layer_2" xmlns="http://www.w3.org/2000/svg" version="1.1" viewBox="0 0 107.1 227.4">
  <!-- Generator: Adobe Illustrator 29.5.0, SVG Export Plug-In . SVG Version: 2.1.0 Build 137)  -->
  <defs>
    <style>
      .st0 {
        fill: #6b6869;
      }

      .st0, .st1, .st2, .st3 {
        stroke: #000;
        stroke-miterlimit: 10;
        stroke-width: 2px;
      }

      .st1 {
        fill: #fcfcfc;
      }

      .st2 {
        fill: #fefefe;
      }

      .st3 {
        fill: #231f20;
      }
    </style>
  </defs>
  <path class="st2" d="M101.5-.1h5.8v227.8H-.2V6.8H.3c16.7,36.6,33.3,73.2,49.8,109.9-14.1,34.6-28.2,69.3-41.9,104.1s1.1,5.2,3.4,5.7,6.1.3,7.4-3C48.2,151.2,77.3,78.8,106.3,6.3c.4-3.1-1.5-5.2-4.5-5.9l-.3-.6Z"/>
  <path class="st2" d="M99.1-.1l-.2.6c-1.3.5-2.5,1.4-3.1,2.7l-39.4,98.3c-.3.6-.9.6-1.3.1C40.3,68.7,25.3,35.7,10.3,2.5c-.7-.9-1.6-1.6-2.6-1.9l-.2-.5c-.2,0-.2-.1,0-.2h91.7Z"/>
  <path class="st3" d="M101.5-.1c3.6.8,5.7,2.7,5.3,6.6-28.8,72.4-58.4,144.6-87.2,217.1-.7,1.8-2,3.4-4.1,3.6-4.8.5-8.3-1.2-7.7-6.5,13.5-34.9,27.9-69.4,41.9-104L-.2,6.8v-2.6C0,1.4,2.3-.3,5,.1c.6-.2,1.7-.2,2.4,0,1.5.2,2.2,1.1,3.2,2.2,14.4,31.2,28.3,62.7,42.6,94,.7,1.6,1.4,3.2,2.2,4.8s.1.6.5.6L95.4,3c.7-1.7,2.1-2.5,3.7-3.1h2.4Z"/>
  <path class="st1" d="M5-.1c.2,0,.2.1,0,.2C2.3.4.8,1.7-.2,4.2V-.1h5.3Z"/>
  <path class="st0" d="M7.4-.1V.1c-.6,0-1.7,0-2.4,0v-.2h2.4Z"/>
</svg>