<?xml version="1.0" encoding="UTF-8"?>
<svg id="Layer_2" xmlns="http://www.w3.org/2000/svg" version="1.1" viewBox="-1 -1 109.1 229.4">
  <!-- Generator: Adobe Illustrator 29.5.0, SVG Export Plug-In . SVG Version: 2.1.0 Build 137)  -->
  <defs>
    <style>
      .st3 {
        fill: #231f20;
        stroke: #000;
        stroke-miterlimit: 10;
        stroke-width: 2px;
      }
    </style>
  </defs>
  <path class="st3" d="M101.5-.1c3.6.8,5.7,2.7,5.3,6.6-28.8,72.4-58.4,144.6-87.2,217.1-.7,1.8-2,3.4-4.1,3.6-4.8.5-8.3-1.2-7.7-6.5,13.5-34.9,27.9-69.4,41.9-104L-.2,6.8v-2.6C0,1.4,2.3-.3,5,.1c.6-.2,1.7-.2,2.4,0,1.5.2,2.2,1.1,3.2,2.2,14.4,31.2,28.3,62.7,42.6,94,.7,1.6,1.4,3.2,2.2,4.8s.1.6.5.6L95.4,3c.7-1.7,2.1-2.5,3.7-3.1h2.4Z"/>
</svg>