<?xml version="1.0" encoding="UTF-8"?>
<svg id="Layer_2" xmlns="http://www.w3.org/2000/svg" version="1.1" viewBox="0 0 83.3 119.6">
  <!-- Generator: Adobe Illustrator 29.5.0, SVG Export Plug-In . SVG Version: 2.1.0 Build 137)  -->
  <defs>
    <style>
      .st0 {
        fill: #939191;
      }

      .st0, .st1, .st2, .st3, .st4, .st5, .st6 {
        stroke: #000;
        stroke-miterlimit: 10;
        stroke-width: 2px;
      }

      .st1 {
        fill: #c7c6c6;
      }

      .st2 {
        fill: #fcfcfc;
      }

      .st3 {
        fill: #fefefe;
      }

      .st4 {
        fill: #fbfbfb;
      }

      .st5 {
        fill: #fafafa;
      }

      .st6 {
        fill: #231f20;
      }
    </style>
  </defs>
  <path class="st3" d="M75.4-.2h8.2v113.8c0,.2-.1.2-.2,0-.2,0-.4,0-.5-.2-.6-1.8-1.3-2.7-3.2-3.3l-.3-.5-.2.5H12.8l-.3-.5-.3-.5L77.6,10.1c1.1-3.2,1.8-8.3-2.2-9.7V-.2Z"/>
  <path class="st3" d="M0,6.3h.6c.7,1.3,1.7,2.3,2.9,2.8l.2.5.2-.5h62l.3.5.3.5C44.5,43.6,22.6,77.2.6,110.7h-.6V6.3Z"/>
  <path class="st6" d="M75.4-.2c1.4.6,3,1.6,3.3,3.3s.3,5.7-.7,7.3L12.5,109.5h66.8c1.3,0,3.5,1.9,3.8,3.1s0,.6.1,1c0,.6.1,1.3.2,1.9v.2c-.2,2.2-1.7,4-4.1,3.6-24.8.2-50.8.2-75.6,0-2.2.4-3.7-1.2-3.8-3.4v-5.3L66.2,9.7H3.7c-1.2,0-3.4-2.2-3.7-3.4v-3.1C.2,1.1,1.3,0,3.4-.2h72Z"/>
  <path class="st1" d="M79.4,119.3c.2,0,.2.1,0,.2H3.8c-.2,0-.2-.1,0-.2h75.6Z"/>
  <path class="st2" d="M83.5,115.7v3.8h-4.1v-.2c2.2-.2,3.1-1.8,4.1-3.6Z"/>
  <path class="st4" d="M3.8,119.3v.2H0v-3.6c.8,1.8,1.8,3.1,3.8,3.4Z"/>
  <path class="st5" d="M3.4-.2C1.7.5.7,1.5,0,3.2V-.2h3.4Z"/>
  <path class="st0" d="M83.5,115.5c-.5-.4-.2-1.3-.2-1.9h.2v1.9Z"/>
</svg>