<?xml version="1.0" encoding="UTF-8"?>
<svg id="Layer_2" xmlns="http://www.w3.org/2000/svg" version="1.1" viewBox="-3 -3 89.3 125.6">
  <!-- Generator: Adobe Illustrator 29.5.0, SVG Export Plug-In . SVG Version: 2.1.0 Build 137)  -->
  <defs>
    <style>
      .st6 {
        fill: #231f20;
        stroke: #000;
        stroke-miterlimit: 10;
        stroke-width: 2px;
      }
    </style>
  </defs>
  <path class="st6" d="M75.4-.2c1.4.6,3,1.6,3.3,3.3s.3,5.7-.7,7.3L12.5,109.5h66.8c1.3,0,3.5,1.9,3.8,3.1s0,.6.1,1c0,.6.1,1.3.2,1.9v.2c-.2,2.2-1.7,4-4.1,3.6-24.8.2-50.8.2-75.6,0-2.2.4-3.7-1.2-3.8-3.4v-5.3L66.2,9.7H3.7c-1.2,0-3.4-2.2-3.7-3.4v-3.1C.2,1.1,1.3,0,3.4-.2h72Z"/>
</svg>