<?xml version="1.0" encoding="UTF-8"?>
<svg id="Layer_2" data-name="Layer 2" xmlns="http://www.w3.org/2000/svg" viewBox="0 0 83.35 119.58">
  <defs>
    <style>
      .cls-1 {
        fill: #231f20;
      }
    </style>
  </defs>
  <g id="Layer_1-2" data-name="Layer 1">
    <g>
      <path class="cls-1" d="M4.56,118.33c-1.83,0-3.31-1.49-3.31-3.31v-2.99c0-.65.19-1.28.55-1.82L68.74,8.55H4.56c-1.83,0-3.31-1.49-3.31-3.31v-.68c0-1.83,1.49-3.31,3.31-3.31h69.64c1.83,0,3.31,1.49,3.31,3.31v3.43c0,.65-.19,1.28-.55,1.83L10.05,111.03h68.74c1.83,0,3.31,1.49,3.31,3.31v.68c0,1.83-1.49,3.31-3.31,3.31H4.56Z"/>
      <path class="cls-1" d="M74.21,2.5c1.14,0,2.06.92,2.06,2.06v3.43c0,.4-.12.8-.34,1.14L7.72,112.28h-2.6l.87,2.62,1.73-2.62h71.07c1.14,0,2.06.92,2.06,2.06v.68c0,1.14-.92,2.06-2.06,2.06H4.56c-1.14,0-2.06-.92-2.06-2.06v-2.99c0-.4.12-.8.34-1.13L71.06,7.3h2.15l.44-3.93-2.59,3.93H4.56c-1.14,0-2.06-.92-2.06-2.06v-.68c0-1.14.92-2.06,2.06-2.06h69.64M74.21,0H4.56C2.05,0,0,2.05,0,4.56v.68c0,2.52,2.05,4.56,4.56,4.56h61.86L.75,109.52c-.49.75-.75,1.61-.75,2.51v2.99c0,2.52,2.05,4.56,4.56,4.56h74.23c2.52,0,4.56-2.05,4.56-4.56v-.68c0-2.52-2.05-4.56-4.56-4.56H12.37L78.01,10.51c.49-.75.76-1.62.76-2.52v-3.43c0-2.52-2.05-4.56-4.56-4.56h0Z"/>
    </g>
  </g>
</svg>