<?xml version="1.0" encoding="UTF-8"?>
<svg id="Layer_2" data-name="Layer 2" xmlns="http://www.w3.org/2000/svg" viewBox="0 0 9.91 169.6">
  <defs>
    <style>
      .cls-1 {
        fill: #fafafa;
      }

      .cls-2 {
        fill: #333133;
      }

      .cls-3 {
        fill: #a5a6a7;
      }

      .cls-4 {
        fill: #313031;
      }

      .cls-5 {
        fill: #262324;
      }

      .cls-6 {
        fill: #8f8f91;
      }

      .cls-7 {
        fill: #fcfcfc;
      }

      .cls-8 {
        fill: #323031;
      }

      .cls-9 {
        fill: #3d3d3e;
      }

      .cls-10 {
        fill: #323032;
      }
    </style>
  </defs>
  <g id="Layer_1-2" data-name="Layer 1">
    <g>
      <path class="cls-5" d="M6.72,0c1.98.62,3.04,3.07,3.19,5.04v.5c-.07.4-.12.8-.17,1.18.13.27.15.75,0,1.01-.18,1.78-1.39,3.86-3.08,4.57-2.96,1.25-5.18-.65-6.67-3.06V3.53C.23,2.07,1.18.34,2.69,0h4.03Z"/>
      <path class="cls-9" d="M2.92,169.6c-.02-2.26-.52-4.85-.25-7.09.03-.24.11-.83.37-.83h3.48v7.92h-3.6Z"/>
      <path class="cls-7" d="M6.72,0h3.19v5.04c-.59-1.98-1.53-3.77-3.19-5.04Z"/>
      <path class="cls-1" d="M2.69,0C1.41.95.72,2.15,0,3.53V0h2.69Z"/>
      <path class="cls-3" d="M9.91,6.72c-.05.15-.1.14-.17,0,0-.37-.13-.95.17-1.18v1.18Z"/>
      <path class="cls-6" d="M9.91,7.73h-.17c.03-.32,0-.68,0-1.01h.17v1.01Z"/>
      <path class="cls-8" d="M6.52,96.4h-3.6v-11.28c.59.08,3.6-.25,3.6.36v10.92Z"/>
      <path class="cls-10" d="M6.52,46.96v11.28h-3.6c.36-3.56-2.31-11.78,3.6-11.28Z"/>
      <path class="cls-4" d="M6.52,142v9.24c0,.1-.24,1.8-.27,1.89-.22.73-2.6.29-3.31.37-.04-.27-.12-.54-.12-.82-.03-2.07-.18-7.22.27-8.96s1.85-2.32,3.44-1.72Z"/>
      <rect class="cls-8" x="2.92" y="123.52" width="3.6" height="11.04"/>
      <path class="cls-8" d="M6.28,66.4c-.13.31.24.71.24.84v10.44c-.77-.07-2.05.2-2.72-.22-.33-.21-.88-2.17-.88-2.54v-8.52h3.36Z"/>
      <rect class="cls-2" x="2.92" y="104.8" width="3.6" height="10.32"/>
      <path class="cls-2" d="M6.52,31.6v7.56c0,.61-3.01.28-3.6.36v-7.92h3.6Z"/>
    </g>
  </g>
</svg>