<?xml version="1.0" encoding="UTF-8"?>
<svg id="Layer_2" data-name="Layer 2" xmlns="http://www.w3.org/2000/svg" viewBox="0 0 18.92 264.91">
  <defs>
    <style>
      .cls-1 {
        fill: #000000;
      }

      .cls-2 {
        fill: #000000;
      }

      .cls-3 {
        fill: #000000;
      }
    </style>
  </defs>
  <g id="Layer_1-2" data-name="Layer 1">
    <g>
      <path class="cls-2" d="M11.46.07v13.98c0,.2-3.99.2-3.99,0V.07c0-.2,3.27.13,3.99,0Z"/>
      <path class="cls-2" d="M11.46,143.88v13.98c0,.2-3.99.2-3.99,0v-13.98c0-.2,3.27.13,3.99,0Z"/>
      <path class="cls-2" d="M7.47,217.78c5.39-2.73,4.59,13.41,3.98,13.99-.14.14-3.98.19-3.98,0v-13.98Z"/>
      <path class="cls-2" d="M7.47,118.91c.32-.34,3.62.8,3.83,1.16.34.55.61,12.38.15,12.83-.14.14-3.98.19-3.98,0v-13.98Z"/>
      <path class="cls-2" d="M11.45,25.03c.47.45.47,12.54,0,12.99-.14.14-3.84.14-3.98,0-.47-.45-.47-12.54,0-12.99.14-.14,3.84-.14,3.98,0Z"/>
      <path class="cls-2" d="M11.45,69.97c.47.45.47,12.54,0,12.99-.14.14-3.84.14-3.98,0-.47-.45-.47-12.54,0-12.99.14-.14,3.84-.14,3.98,0Z"/>
      <path class="cls-2" d="M11.45,94.94c.47.45.47,12.54,0,12.99-.14.14-3.84.14-3.98,0-.47-.45-.47-12.54,0-12.99.14-.14,3.84-.14,3.98,0Z"/>
      <path class="cls-2" d="M11.45,168.84c.47.45.47,12.54,0,12.99-.14.14-3.84.14-3.98,0-.47-.45-.47-12.54,0-12.99.14-.14,3.84-.14,3.98,0Z"/>
      <path class="cls-2" d="M11.45,193.81c.47.45.47,12.54,0,12.99-.14.14-3.84.14-3.98,0-.47-.45-.47-12.54,0-12.99.14-.14,3.84-.14,3.98,0Z"/>
      <path class="cls-3" d="M11.36,50.09c.71.6.37,8.56.06,8.88-.14.14-3.81.16-3.95.02-.33-.31-.33-8.69,0-9,.14-.13,3.62-.13,3.89.1Z"/>
    </g>
    <path class="cls-1" d="M8.98,244.5c12.41-.65,13.84,19.73.69,20.39-13,.65-12.54-19.77-.69-20.39Z"/>
  </g>
</svg>