<?xml version="1.0" encoding="UTF-8"?>
<svg id="Layer_2" data-name="Layer 2" xmlns="http://www.w3.org/2000/svg" viewBox="0 0 135.59 259.79">
  <defs>
    <style>
      .cls-1 {
        fill: #000000;
      }

      .cls-2 {
        fill: #000000;
      }

      .cls-3 {
        fill: #000000;
      }

      .cls-4 {
        fill: #000000;
      }
    </style>
  </defs>
  <g id="Layer_1-2" data-name="Layer 1">
    <path class="cls-1" d="M74.81,239.39c12.41-.65,13.84,19.73.69,20.39-13,.65-12.54-19.77-.69-20.39Z"/>
    <g>
      <path class="cls-4" d="M63.81,0c.46.2.98.2,1.44,0h4.56l.46.12c1.11-.3,1.44.37.98,2.04-.06.28.05.66,0,.96l-11.61.25c-.39-.11-.45-2.45-.37-2.88l2.87-.49h1.68Z"/>
      <path class="cls-3" d="M71.49,0c.16.84-.09,1.46-.24,2.16-.06-.35.08-1.84,0-1.92-.11-.11-1.28.23-1.44-.24h1.68Z"/>
      <path class="cls-3" d="M65.25,0c-.24.39-1.21.39-1.44,0h1.44Z"/>
      <path class="cls-4" d="M133.89,73.44l-4.34,11.5c-.28.2-2.88-.97-2.83-1.5.03-.36,2.4-5.07,2.79-6.1.25-.65,1.37-4.55,1.61-4.58l2.77.68Z"/>
      <path class="cls-4" d="M134.34,49.23c.6.41,1.39,10.76,1.23,12.21-.68-.12-2.43.22-2.9-.11-.44-.31-.17-3.3-.23-4.09-.19-2.48-.61-4.96-.98-7.41.05-.28,2.6-.79,2.87-.61Z"/>
      <path class="cls-4" d="M106.41,10.34l9.62,7.17c.28.47-1.61,2.01-1.93,2.39l-9.48-7.07,1.79-2.5Z"/>
      <path class="cls-4" d="M94.53,118.56c.07-.74-1.55-2.34-1.19-2.86l9.6-5.91c.57-.2,1.67,1.43,1.93,1.92.11.22.34.22,0,.49l-10.33,6.36Z"/>
      <path class="cls-4" d="M17.5,23.52c.06-.82-1.96-1.71-1.58-2.4l9.38-7.43,1.69,2.64-9.49,7.19Z"/>
      <path class="cls-4" d="M124.21,26.9c.45-.04,2.23,2.81,2.58,3.36,1.41,2.19,2.55,4.54,3.71,6.86.05.49-1.9,1.35-2.36,1.42-.58.09-4.79-9.11-6.24-9.87,0-.16,2.02-1.75,2.31-1.78Z"/>
      <path class="cls-4" d="M2.58,41.25c-.39.23-2.51-1.22-2.58-1.56-.14-.71,6.32-8.54,7.29-9.68l2.27,2.04-6.98,9.21Z"/>
      <path class="cls-4" d="M82.77,120.96l.96,2.88c-.64.12-3.17.85-3.48,1.21-.63.75-1.01,6.18-1.33,6.48l-2.88-.48,1.49-8.35,5.22-1.73Z"/>
      <path class="cls-4" d="M95.24,4.81c.13.19-.82,2.78-1.09,2.85l-11.14-3.1.48-3.12,11.75,3.37Z"/>
      <path class="cls-4" d="M47.96,5.99l-10.69,4.09c-.4.1-.3-.11-.4-.3-.18-.32-.9-1.75-.9-1.99.01-.62,3.01-1.78,3.68-2.07,1.23-.53,6.28-2.61,7.26-2.59.7.02,1.01,2.23,1.05,2.86Z"/>
      <path class="cls-2" d="M120.37,93.62c.17-.03,2.05,1.26,2.14,1.41.18.28.04.41-.07.65-.34.7-2.29,2.84-2.93,3.55-.58.64-4.78,4.96-5.13,4.9l-2.07-2.02c1.59-.58,7.43-8.38,8.07-8.49Z"/>
    </g>
    <path class="cls-4" d="M74.33,140.4c.65.51,2.52-.67,2.88.03l.92,11.93-3.14-.07-.66-11.89Z"/>
    <path class="cls-4" d="M74.33,163.89c.65.51,2.52-.67,2.88.03l.92,11.93-3.14-.07-.66-11.89Z"/>
    <path class="cls-4" d="M74.33,187.37c.65.51,2.52-.67,2.88.03l.92,11.93-3.14-.07-.66-11.89Z"/>
    <path class="cls-4" d="M74.33,210.86c.65.51,2.52-.67,2.88.03l.92,11.93-3.14-.07-.66-11.89Z"/>
  </g>
</svg>