<?xml version="1.0" encoding="UTF-8"?>
<svg id="Layer_2" data-name="Layer 2" xmlns="http://www.w3.org/2000/svg" viewBox="0 0 151.22 204.01">
  <g id="Layer_1-2" data-name="Layer 1">
    <g>
      <path d="M5.33,202.88c-2.32,0-4.2-2.04-4.2-4.55V5.67C1.13,3.17,3.01,1.13,5.33,1.13h60.28c11.06,0,21.8,2.53,31.92,7.53,10.09,4.99,19.18,12.08,27.03,21.08,7.83,8.99,14.12,19.75,18.67,31.98,4.56,12.24,6.87,25.79,6.87,40.29s-2.31,27.78-6.87,40.01c-4.56,12.23-10.84,23.04-18.67,32.12-7.85,9.1-16.94,16.24-27.03,21.22-10.11,4.99-20.85,7.53-31.92,7.53H5.33ZM64.33,194.36c10.04,0,19.84-2.36,29.12-7.01,9.31-4.66,17.69-11.23,24.92-19.54,7.23-8.31,13.03-18.22,17.24-29.44,4.21-11.23,6.34-23.46,6.34-36.37s-2.13-25.43-6.34-36.65c-4.21-11.21-10.01-21.12-17.24-29.44-7.22-8.3-15.6-14.82-24.91-19.39-9.29-4.56-19.09-6.87-29.13-6.87H9.02c0,.06,0,.11,0,.17,0,0,0,184.49,0,184.53h55.31Z"/>
      <path d="M65.61,2.25c10.94,0,21.42,2.47,31.42,7.41,10,4.94,18.89,11.88,26.68,20.81,7.78,8.93,13.94,19.48,18.47,31.63,4.53,12.16,6.8,25.46,6.8,39.9s-2.27,27.46-6.8,39.62c-4.53,12.16-10.69,22.76-18.47,31.78-7.78,9.03-16.67,16.01-26.68,20.95-10,4.94-20.48,7.41-31.42,7.41H5.33c-1.7,0-3.08-1.53-3.08-3.42V5.67c0-1.89,1.38-3.42,3.08-3.42h60.28M5.07,8.52h2.34c.29.32.48.77.48,1.3v184.39c0,.53-.2.97-.51,1.27h-2.06,0c.3.3.67.44,1.02.44.38,0,.76-.16,1.04-.44h56.94c10.26,0,20.14-2.37,29.63-7.12,9.49-4.75,17.91-11.35,25.27-19.81,7.35-8.45,13.17-18.38,17.44-29.78,4.27-11.4,6.41-23.66,6.41-36.77s-2.14-25.65-6.41-37.05c-4.28-11.4-10.09-21.33-17.44-29.78-7.35-8.45-15.77-15.01-25.27-19.66-9.49-4.65-19.37-6.98-29.63-6.98H7.42c-.31-.34-.74-.54-1.19-.54-.41,0-.82.17-1.16.54M65.61,0H5.33C2.39,0,0,2.54,0,5.67v192.66c0,3.13,2.39,5.67,5.33,5.67h60.28c11.25,0,22.16-2.57,32.42-7.64,10.22-5.05,19.44-12.28,27.38-21.5,7.92-9.18,14.27-20.1,18.87-32.46,4.6-12.36,6.94-25.95,6.94-40.4s-2.33-28.32-6.94-40.69c-4.61-12.36-10.96-23.23-18.88-32.33-7.94-9.11-17.15-16.29-27.38-21.35C87.75,2.57,76.85,0,65.61,0h0ZM10.15,10.78h54.18c9.86,0,19.5,2.27,28.63,6.75,9.17,4.5,17.43,10.93,24.56,19.12,7.14,8.22,12.87,18.01,17.03,29.09,4.16,11.1,6.27,23.3,6.27,36.26s-2.11,24.87-6.27,35.97c-4.16,11.1-9.89,20.89-17.03,29.09-7.13,8.2-15.4,14.68-24.57,19.27-9.13,4.57-18.76,6.89-28.62,6.89H10.15V10.78h0Z"/>
    </g>
  </g>
</svg>