<?xml version="1.0" encoding="UTF-8"?>
<svg id="Layer_2" data-name="Layer 2" xmlns="http://www.w3.org/2000/svg" viewBox="0 0 122.66 207.53">
  <g id="Layer_1-2" data-name="Layer 1">
    <g>
      <path d="M47.56,206.43c-5.61,0-10.93-.89-15.8-2.64-4.88-1.75-9.37-4.32-13.33-7.63-3.95-3.3-7.46-7.33-10.43-11.98-2.55-4-4.76-8.5-6.58-13.36-.65-1.76-.31-3.74.88-5.05.66-.73,1.53-1.13,2.45-1.13,1.37,0,2.6.86,3.19,2.26,1.88,4.42,3.99,8.43,6.28,11.94,2.84,4.37,6,7.99,9.38,10.77,3.36,2.77,7.13,4.87,11.2,6.25,4.08,1.38,8.54,2.09,13.26,2.09,7.84,0,14.88-1.96,20.91-5.83,6.01-3.86,10.78-9.95,14.16-18.09,3.41-8.22,5.14-19.15,5.14-32.48V9.59h-27.82c-1.95,0-3.53-1.78-3.53-3.96,0-2.5,1.8-4.53,4.01-4.53h56.62c2.21,0,4.01,2.03,4.01,4.53,0,2.18-1.58,3.96-3.53,3.96h-22.23v131.94c0,11.11-1.2,20.83-3.57,28.92-2.38,8.12-5.76,14.94-10.04,20.26-4.31,5.36-9.48,9.37-15.37,11.91-5.87,2.53-12.35,3.81-19.27,3.81Z"/>
      <path d="M117.55,2.2c1.61,0,2.92,1.54,2.92,3.43h0c0,1.58-1.09,2.86-2.43,2.86h-23.33v133.04c0,11.06-1.18,20.6-3.52,28.61-2.35,8.01-5.63,14.64-9.84,19.88-4.21,5.25-9.2,9.11-14.94,11.59-5.75,2.48-12.03,3.72-18.83,3.72-5.51,0-10.65-.86-15.43-2.58-4.78-1.72-9.11-4.19-13-7.44-3.89-3.24-7.29-7.15-10.21-11.73-2.52-3.96-4.68-8.34-6.47-13.16-.5-1.35-.25-2.92.66-3.93h0c.47-.52,1.06-.77,1.64-.77.88,0,1.74.56,2.18,1.59,1.92,4.5,4.04,8.53,6.37,12.11,2.92,4.48,6.11,8.15,9.6,11.01,3.48,2.86,7.33,5.01,11.54,6.44,4.21,1.43,8.75,2.15,13.61,2.15,8.1,0,15.27-2,21.5-6.01,6.23-4.01,11.09-10.2,14.58-18.6,3.48-8.39,5.23-19.36,5.23-32.9V8.49h-28.92c-1.34,0-2.43-1.28-2.43-2.86h0c0-1.9,1.31-3.43,2.92-3.43h56.62M117.55,0h-56.62c-2.82,0-5.11,2.53-5.11,5.63,0,2.79,2.08,5.06,4.63,5.06h26.72v130.84c0,13.19-1.7,23.97-5.06,32.06-3.29,7.93-7.91,13.85-13.74,17.59-5.85,3.76-12.68,5.66-20.32,5.66-4.6,0-8.94-.68-12.9-2.03-3.94-1.34-7.59-3.37-10.85-6.05-3.29-2.7-6.37-6.24-9.15-10.52-2.25-3.46-4.33-7.42-6.19-11.78-.76-1.78-2.41-2.92-4.2-2.92-1.24,0-2.4.53-3.27,1.49-1.46,1.61-1.89,4.03-1.09,6.17,1.84,4.93,4.09,9.5,6.68,13.57,3.03,4.75,6.61,8.87,10.65,12.24,4.06,3.39,8.66,6.02,13.66,7.82,4.99,1.79,10.43,2.7,16.17,2.7,7.07,0,13.69-1.31,19.7-3.9,6.06-2.61,11.37-6.72,15.79-12.23,4.37-5.44,7.81-12.39,10.24-20.64,2.4-8.18,3.61-18.02,3.61-29.23V10.69h21.13c2.55,0,4.63-2.27,4.63-5.06,0-3.1-2.29-5.63-5.11-5.63h0Z"/>
    </g>
  </g>
</svg>