<?xml version="1.0" encoding="UTF-8"?>
<svg id="Layer_2" data-name="Layer 2" xmlns="http://www.w3.org/2000/svg" viewBox="0 0 146.56 216.2">
  <defs>
    <style>
      .cls-1 {
        fill: #231f20;
      }
    </style>
  </defs>
  <g id="Layer_1-2" data-name="Layer 1">
    <g>
      <g>
        <path class="cls-1" d="M5.24,210.69c-2.25,0-4.07-1.93-4.07-4.3V8.95c0-2.37,1.83-4.3,4.07-4.3s4.2,1.99,4.2,4.44v118.1s.03.01.04.02c.46.22.72.71.65,1.21-.37,2.74-.73,5.91-.19,8.85.07.37-.05.74-.3,1.01l-.2.21v67.9c0,2.37-1.83,4.3-4.07,4.3h-.13Z"/>
        <path class="cls-1" d="M5.24,5.82c1.68,0,3.03,1.46,3.03,3.27v119.91l.7-.74c-.42,3.1-.73,6.21-.18,9.22l-.52.54v68.37c0,1.73-1.3,3.13-2.91,3.13h-.13c-1.61,0-2.91-1.4-2.91-3.13V8.95c0-1.73,1.3-3.13,2.91-3.13M8.98,128.26h0M5.24,3.49C2.35,3.49,0,5.94,0,8.95v197.44c0,3.02,2.35,5.47,5.24,5.47h.13c2.89,0,5.24-2.45,5.24-5.47v-67.44c.42-.53.6-1.21.48-1.88-.5-2.73-.17-5.75.18-8.37.03-.14.04-.28.04-.43,0-.66-.27-1.25-.7-1.67V9.09c0-3.09-2.41-5.61-5.37-5.61h0Z"/>
      </g>
      <g>
        <path class="cls-1" d="M131,215.03c-.97,0-1.92-.36-2.65-1.02l-74.16-66.16c-.23-.2-.43-.44-.62-.7-1.84-2.63-3.97-4.4-6.18-5.11-.39-.12-.68-.44-.78-.84-.01-.04-.02-.09-.02-.13L10.17,108.58c-1.26-1.12-1.73-2.92-1.18-4.58.53-1.62,1.87-2.73,3.49-2.9,0,0,.45-.04.45-.04.11-.01.22-.02.33-.02.93,0,1.84.35,2.56,1l118,105.22c1.07.95,1.6,2.4,1.42,3.87-.18,1.46-1.02,2.73-2.27,3.39-.65.35-1.31.51-1.97.51h0Z"/>
        <path class="cls-1" d="M13.26,102.21c.65,0,1.28.25,1.79.7l118,105.22c1.65,1.47,1.33,4.32-.62,5.35l-.06.03c-.43.23-.9.35-1.36.35-.67,0-1.34-.24-1.88-.72l-74.16-66.16c-.16-.15-.31-.31-.44-.5-1.74-2.49-4.01-4.66-6.78-5.55l.2-.2L10.95,107.7c-1.96-1.75-.91-5.19,1.64-5.45.04,0,.09,0,.13-.01.1-.01.2-.02.31-.03.08,0,.15-.01.23-.01M13.26,99.87c-.15,0-.29,0-.44.02l-.33.03h-.13c-2.09.22-3.81,1.64-4.49,3.71-.68,2.1-.09,4.39,1.52,5.82l36.17,32.27c.24.68.79,1.22,1.48,1.44,2.47.8,4.4,2.98,5.58,4.67.23.34.5.64.8.9l74.16,66.16c.95.85,2.17,1.32,3.43,1.32.85,0,1.7-.21,2.46-.62l-1.04-2.09,1.1,2.06c1.58-.84,2.66-2.44,2.88-4.28.22-1.85-.45-3.68-1.8-4.88L16.6,101.16c-.94-.83-2.12-1.29-3.34-1.29h0Z"/>
      </g>
    </g>
    <g>
      <path class="cls-1" d="M11.36,104.84c-1.02,0-2-.47-2.69-1.29-.72-.87-1.01-2.02-.79-3.16.09-.47.36-1.96.36-1.96.18-.92.69-1.74,1.44-2.28L138.22,1.88c.64-.47,1.38-.71,2.16-.71.81,0,1.61.29,2.23.81.64.53,1.37,1.03,2.18,1.5.26.15.45.39.54.67.24.79.26.86-1.85,2.18.43.07.79.37.93.79.16.48-.06,1.05-.47,1.35l-82.11,60.18c-.22.16-.46.29-.71.4-2.89,1.19-5.09,2.93-6.37,5.03-.21.35-.59.57-1,.57-.02,0-.09,0-.1,0l-40.28,29.52c-.6.44-1.29.67-2.01.67Z"/>
      <path class="cls-1" d="M140.37,2.34c.53,0,1.05.18,1.49.54.71.59,1.49,1.12,2.35,1.61,0,0-12.39,7.72-12.39,7.72.03.09.13.13.29.13,1.79,0,10.92-4.87,11.17-4.87.01,0,0,.02-.04.05l-82.11,60.18c-.15.11-.3.19-.47.26-2.74,1.12-5.34,2.88-6.92,5.51l-.13-.26-40.94,30.01c-.42.31-.88.45-1.32.45-1.39,0-2.65-1.37-2.33-3.07.09-.47.18-.95.26-1.42.03-.18.06-.35.1-.53.12-.64.48-1.2.98-1.56L138.91,2.82c.44-.32.95-.49,1.46-.49M140.37,0c-1.02,0-2.01.33-2.85.94L8.99,95.2c-.99.72-1.66,1.79-1.89,3.01-.04.19-.07.37-.1.56-.08.47-.17.94-.26,1.41-.28,1.48.1,2.98,1.04,4.12.91,1.09,2.21,1.72,3.59,1.72.96,0,1.9-.31,2.7-.9l39.99-29.31c.7-.09,1.33-.5,1.7-1.11,1.44-2.39,3.95-3.8,5.81-4.56.34-.14.67-.32.96-.54L144.63,9.41c1.05-.77,1.13-1.91.89-2.65-.03-.1-.07-.19-.11-.28.67-.49,1.44-1.31,1.04-2.65-.17-.58-.56-1.07-1.08-1.37-.75-.43-1.43-.89-2.01-1.38-.84-.69-1.89-1.08-2.98-1.08h0Z"/>
    </g>
  </g>
</svg>