<?xml version="1.0" encoding="UTF-8"?>
<svg id="Layer_2" data-name="Layer 2" xmlns="http://www.w3.org/2000/svg" viewBox="0 0 116.82 208.62">
  <defs>
    <style>
      .cls-1 {
        fill: #231f20;
      }
    </style>
  </defs>
  <g id="Layer_1-2" data-name="Layer 1">
    <g>
      <path class="cls-1" d="M5.67,207.39c-2.45,0-4.44-1.95-4.44-4.35V5.72C1.23,3.24,3.29,1.23,5.82,1.23s4.48,1.96,4.48,4.38v191.03c0,1.04.89,1.88,1.98,1.88h98.88c2.45,0,4.44,1.95,4.44,4.35v.17c0,2.4-1.99,4.35-4.44,4.35H5.67Z"/>
      <path class="cls-1" d="M5.82,2.46c1.79,0,3.25,1.41,3.25,3.15v191.03c0,1.72,1.44,3.12,3.21,3.12h98.88c1.77,0,3.21,1.4,3.21,3.12v.17c0,1.72-1.44,3.12-3.21,3.12H5.67c-1.77,0-3.21-1.4-3.21-3.12V5.72c0-1.8,1.5-3.25,3.35-3.25M5.82,0C2.61,0,0,2.56,0,5.72v197.33c0,3.08,2.55,5.58,5.67,5.58h105.48c3.13,0,5.67-2.5,5.67-5.58v-.17c0-3.08-2.55-5.58-5.67-5.58H12.27c-.41,0-.75-.29-.75-.65V5.61c0-3.09-2.56-5.61-5.71-5.61h0Z"/>
    </g>
  </g>
</svg>