<?xml version="1.0" encoding="UTF-8"?>
<svg id="Layer_2" data-name="Layer 2" xmlns="http://www.w3.org/2000/svg" viewBox="0 0 150.1 204.25">
  <defs>
    <style>
      .cls-1 {
        fill: #231f20;
      }
    </style>
  </defs>
  <g id="Layer_1-2" data-name="Layer 1">
    <g>
      <path class="cls-1" d="M142.78,203.06c-.86,0-1.67-.42-2.16-1.12L9.46,16.43c.07,2.91.15,6.15.23,9.72.09,4.5.14,9.21.14,13.99v160.28c0,1.46-1.19,2.65-2.65,2.65h-3.35c-1.46,0-2.65-1.19-2.65-2.65V3.84c0-1.46,1.19-2.65,2.65-2.65h4.05c.86,0,1.67.42,2.16,1.12l130.62,184.74c-.08-1.75-.11-3.85-.11-6.4,0-2.68-.05-6.08-.14-10.38-.09-4.12-.14-9.12-.14-15.27V3.84c0-1.46,1.19-2.65,2.65-2.65h3.35c1.46,0,2.65,1.19,2.65,2.65v196.58c0,1.46-1.19,2.65-2.65,2.65h-3.48Z"/>
      <path class="cls-1" d="M146.26,2.38c.81,0,1.46.65,1.46,1.46v196.58c0,.81-.65,1.46-1.46,1.46h-3.48c-.47,0-.92-.23-1.19-.62L8.17,12.55c-.05-1.84-.07-3.42-.09-4.74,0-.8-.66-1.45-1.46-1.45-1.18,0-1.88,1.34-1.19,2.3l2.74,3.88c.01.57.03,1.17.05,1.8.09,3.42.19,7.37.28,11.83.09,4.47.14,9.12.14,13.97v160.28c0,.81-.65,1.46-1.46,1.46h-3.35c-.81,0-1.46-.65-1.46-1.46V3.84c0-.81.65-1.46,1.46-1.46h4.05c.47,0,.92.23,1.19.62l133.04,188.17c.06.64.12,1.26.19,1.88h1.14l-1.33-1.88c-.1-1.14-.18-2.32-.24-3.54-.1-1.9-.14-4.23-.14-6.98s-.05-6.22-.14-10.4c-.1-4.18-.14-9.26-.14-15.25V3.84c0-.81.65-1.46,1.46-1.46h3.35M146.26,0h-3.35c-2.12,0-3.84,1.72-3.84,3.84v151.16c0,6.18.05,11.19.14,15.3.1,4.27.14,7.65.14,10.35,0,.89,0,1.73.01,2.53L11.02,1.62c-.72-1.02-1.89-1.62-3.13-1.62H3.84C1.72,0,0,1.72,0,3.84v196.58c0,2.12,1.72,3.84,3.84,3.84h3.35c2.12,0,3.84-1.72,3.84-3.84V40.14c0-4.79-.05-9.51-.14-14.02-.05-2.05-.09-3.99-.13-5.82l128.9,182.33c.72,1.02,1.89,1.62,3.13,1.62h3.48c2.12,0,3.84-1.72,3.84-3.84V3.84c0-2.12-1.72-3.84-3.84-3.84h0Z"/>
    </g>
  </g>
</svg>