<?xml version="1.0" encoding="UTF-8"?>
<svg id="Layer_2" data-name="Layer 2" xmlns="http://www.w3.org/2000/svg" viewBox="0 0 139.32 208.58">
  <defs>
    <style>
      .cls-1 {
        fill: #231f20;
      }
    </style>
  </defs>
  <g id="Layer_1-2" data-name="Layer 1">
    <g>
      <path class="cls-1" d="M69.66,207.35c-2.5,0-4.53-1.94-4.53-4.34V12.06c0-1.09-.93-1.97-2.07-1.97H5.76c-2.5,0-4.53-1.99-4.53-4.43S3.26,1.23,5.76,1.23h127.8c2.5,0,4.53,1.99,4.53,4.43s-2.03,4.43-4.53,4.43h-57.3c-1.14,0-2.07.88-2.07,1.97v190.94c0,2.39-2.03,4.34-4.53,4.34Z"/>
      <path class="cls-1" d="M133.56,2.46c1.82,0,3.3,1.43,3.3,3.2h0c0,1.77-1.48,3.2-3.3,3.2h-57.3c-1.82,0-3.3,1.43-3.3,3.2v190.94c0,1.71-1.48,3.1-3.3,3.1s-3.3-1.39-3.3-3.1V12.07c0-1.77-1.48-3.2-3.3-3.2H5.76c-1.82,0-3.3-1.43-3.3-3.2h0c0-1.77,1.48-3.2,3.3-3.2h127.8M133.56,0H5.76C2.58,0,0,2.54,0,5.66s2.58,5.66,5.76,5.66h57.3c.46,0,.84.33.84.74v190.94c0,3.07,2.58,5.57,5.76,5.57s5.76-2.5,5.76-5.57V12.07c0-.41.38-.74.84-.74h57.3c3.18,0,5.76-2.54,5.76-5.66s-2.58-5.66-5.76-5.66h0Z"/>
    </g>
  </g>
</svg>