<?xml version="1.0" encoding="UTF-8"?>
<svg id="Layer_2" data-name="Layer 2" xmlns="http://www.w3.org/2000/svg" viewBox="0 0 135.43 241.15">
  <defs>
    <style>
      .cls-1, .cls-2 {
        fill: #231f20;
      }

      .cls-2 {
        font-family: LexendDeca-Regular, 'Lexend Deca';
        font-size: 42px;
      }
    </style>
  </defs>
  <g id="Layer_1-2" data-name="Layer 1">
    <path class="cls-1" d="M11.39,152.39h6.83s-9.09,15.77-9.09,15.77l-9.12-15.76h6.82s-.13-110.6-.13-110.6h4.57s.13,110.59.13,110.59ZM135.43,132.09l-4.15,17.73-13.28-12.45,6.44-1.95c-11.83-29.52-33.77-34.84-50.41-34.03l-.24-4.56c14.9-.77,41.53,3.2,55.02,37.27l6.62-2Z"/>
    <text class="cls-2" transform="translate(0 35.7)"><tspan x="0" y="0">1</tspan></text>
    <text class="cls-2" transform="translate(47.42 111.53)"><tspan x="0" y="0">2</tspan></text>
    <g id="Layer_1-2" data-name="Layer 1-2">
      <g>
        <path class="cls-1" d="M28.29,239.89c-1.72,0-3.06-1.67-3.06-3.81V40.85c0-2.14,1.35-3.81,3.06-3.81h.6c1.72,0,3.06,1.67,3.06,3.81v93.58c.33.24.53.64.51,1.07-.21,4.02-.37,8.04-.54,12.05-.08,2.03-.17,4.06-.26,6.09-.46,10.34-.85,21.36-.18,32.38v.22c-.48,4.2-.35,8.96.41,14.13,0,.06.01.13.01.19l-.3,35.57c-.02,2.11-1.36,3.77-3.06,3.77h-.25Z"/>
        <path class="cls-1" d="M28.89,38.29c1,0,1.81,1.15,1.81,2.56v96.38c.16-.61.34-1.2.51-1.8-.31,6.05-.53,12.11-.8,18.15-.47,10.73-.83,21.67-.18,32.51-.54,4.72-.28,9.67.41,14.45l-.3,35.57c-.01,1.4-.82,2.53-1.81,2.53h-.23c-1,0-1.81-1.15-1.81-2.56V40.85c0-1.41.81-2.56,1.81-2.56h.6M28.89,35.79h-.6c-2.41,0-4.31,2.22-4.31,5.06v195.24c0,2.84,1.9,5.06,4.31,5.06h.23c2.4,0,4.29-2.2,4.31-5.01l.3-35.57c0-.13,0-.25-.03-.38-.74-5.07-.87-9.71-.4-13.81.02-.14.02-.29.01-.44-.66-10.96-.27-21.94.18-32.25.09-2.02.17-4.05.26-6.08.16-3.92.33-7.97.54-11.95,0-.08.01-.16.01-.24,0-.57-.19-1.1-.51-1.52V40.85c0-2.84-1.9-5.06-4.31-5.06h0Z"/>
      </g>
      <g>
        <path class="cls-1" d="M73.72,239.76c-5.24,0-10.39-1.01-15.3-3.01-4.91-1.99-9.44-4.83-13.48-8.43s-7.47-7.85-10.21-12.62c-.76-1.32-1.48-2.76-2.14-4.27-.04-.08-.06-.16-.08-.25-.17-.94-.35-1.88-.55-2.82-2.29-10.9-1.97-22.18-1.66-33.08.12-4.35.25-8.85.2-13.23l-.04-3.1c-.02-1.26-.03-2.53-.04-3.79,0-.12.02-.25.06-.36,1.14-3.44,2.57-6.71,4.24-9.73,2.73-4.92,6.1-9.27,10-12.94,3.92-3.69,8.33-6.57,13.1-8.56,4.79-2,9.88-3.01,15.12-3.01,9.52,0,18.17,2.58,25.68,7.67,7.49,5.07,13.46,12.14,17.76,21.02,4.28,8.85,6.45,19.11,6.45,30.49s-2.23,21.93-6.64,30.92c-4.42,9.01-10.39,16.19-17.74,21.33-7.39,5.17-15.71,7.78-24.74,7.78h0ZM73.15,127.56c-7.53,0-14.45,2.22-20.56,6.61-6.14,4.41-11.06,10.64-14.61,18.5-3.57,7.91-5.37,17.15-5.37,27.48s1.81,19.36,5.37,27.26c3.55,7.87,8.47,14.13,14.62,18.62,6.11,4.46,13.15,6.72,20.94,6.72,8.31,0,15.78-2.26,22.21-6.73,6.46-4.48,11.56-10.78,15.17-18.71,3.63-7.97,5.47-17.26,5.47-27.59s-1.84-19.1-5.46-26.93c-3.61-7.79-8.72-14.02-15.17-18.5-6.44-4.47-14.04-6.73-22.59-6.73h-.02Z"/>
        <path class="cls-1" d="M72.96,121.68c9.34,0,17.69,2.49,25.06,7.47,7.36,4.98,13.15,11.84,17.38,20.58,4.22,8.74,6.34,18.74,6.34,30s-2.18,21.55-6.53,30.43c-4.35,8.88-10.15,15.85-17.38,20.9-7.23,5.06-15.26,7.58-24.1,7.58-5.12,0-10.08-.97-14.88-2.92s-9.19-4.69-13.15-8.23c-3.97-3.54-7.3-7.65-9.98-12.35-.77-1.35-1.46-2.74-2.09-4.16-.17-.95-.36-1.9-.56-2.85-3.18-15.12-1.28-30.81-1.43-46.09-.02-2.3-.06-4.6-.08-6.89,1.12-3.38,2.51-6.56,4.16-9.54,2.69-4.84,5.95-9.06,9.79-12.67s8.09-6.39,12.77-8.34c4.67-1.95,9.57-2.92,14.69-2.92M73.53,233.88c8.57,0,16.19-2.31,22.85-6.93,6.65-4.62,11.84-11.01,15.55-19.17s5.57-17.51,5.57-28.05-1.86-19.39-5.57-27.4-8.9-14.33-15.55-18.95c-6.66-4.62-14.4-6.93-23.23-6.93-7.81,0-14.88,2.27-21.22,6.82-6.34,4.55-11.33,10.87-14.98,18.95-3.65,8.09-5.47,17.4-5.47,27.94s1.82,19.64,5.47,27.73,8.64,14.44,14.98,19.06,13.54,6.93,21.6,6.93M72.96,119.44c-5.39,0-10.63,1.04-15.55,3.1-4.89,2.04-9.41,4.99-13.44,8.77-3.99,3.75-7.43,8.2-10.22,13.21-1.71,3.08-3.16,6.42-4.33,9.92-.08.23-.12.48-.11.72.01,1.26.03,2.51.04,3.77.01,1.04.03,2.08.04,3.12.04,4.35-.08,8.84-.2,13.19-.31,10.97-.63,22.32,1.69,33.35.19.9.37,1.83.54,2.79.03.17.08.34.15.5.68,1.55,1.42,3.02,2.19,4.38,2.8,4.88,6.31,9.22,10.44,12.9,4.13,3.69,8.77,6.59,13.8,8.63,5.05,2.05,10.34,3.09,15.72,3.09,9.26,0,17.8-2.69,25.38-7.98,7.51-5.25,13.6-12.57,18.1-21.75,4.48-9.15,6.76-19.72,6.76-31.42s-2.21-21.97-6.56-30.97c-4.38-9.06-10.48-16.27-18.14-21.46-7.7-5.21-16.56-7.86-26.31-7.86h0ZM73.53,231.64c-7.55,0-14.37-2.19-20.28-6.5-5.99-4.37-10.79-10.48-14.26-18.17-3.5-7.76-5.27-16.78-5.27-26.81s1.77-19.26,5.27-27.02c3.47-7.68,8.26-13.76,14.24-18.06,5.92-4.25,12.62-6.4,19.91-6.4,8.32,0,15.71,2.2,21.96,6.53,6.29,4.37,11.27,10.45,14.8,18.06,3.56,7.68,5.36,16.58,5.36,26.46s-1.81,19.3-5.37,27.12c-3.53,7.75-8.5,13.89-14.79,18.26-6.24,4.33-13.5,6.53-21.57,6.53h0Z"/>
      </g>
    </g>
  </g>
</svg>