<?xml version="1.0" encoding="UTF-8"?>
<svg id="Layer_2" data-name="Layer 2" xmlns="http://www.w3.org/2000/svg" viewBox="0 0 118.3 219.07">
  <defs>
    <style>
      .cls-1, .cls-2 {
        fill: #231f20;
      }

      .cls-2 {
        font-family: LexendDeca-Regular, 'Lexend Deca';
        font-size: 42px;
      }
    </style>
  </defs>
  <g id="Layer_1-2" data-name="Layer 1">
    <path class="cls-1" d="M106.61,18.17c.4-.48.89-.92,1.48-1.29.33-.21.66-.39.99-.56C100.83,5.21,85.62,0,71.16,0,48.14,0,24.84,13.06,24.84,38.03v38.64h-6.83l9.11,15.77,9.11-15.77h-6.83v-38.64c0-23,21.64-33.47,41.75-33.47,12.95,0,26.56,4.54,33.97,14.2.45-.28.95-.49,1.49-.59Z"/>
    <text class="cls-2" transform="translate(97.3 53.09)"><tspan x="0" y="0">1</tspan></text>
    <text class="cls-2" transform="translate(0 161.62)"><tspan x="0" y="0">2</tspan></text>
    <path class="cls-1" d="M29.1,143.77c-.24,0-.47-.02-.71-.02.05,1.53.09,3.05.09,4.57.2,0,.41.01.61.01h38.64v6.83s15.77-9.11,15.77-9.11l-15.77-9.11v6.83H29.1Z"/>
    <g id="Layer_1-2" data-name="Layer 1-2">
      <g>
        <path class="cls-1" d="M43.47,217.95c-1.59,0-2.89-1.29-2.89-2.89V80.93c-.04-.13-.06-.27-.04-.42l.18-1.68c.09-.86.19-1.71.27-2.57.08-.77-.02-1.46-.3-2.05-.07-.15-.11-.32-.11-.48v-26.41c0-8.07,1.22-14.75,3.63-19.84,2.44-5.16,5.98-8.98,10.52-11.35,4.48-2.33,9.66-3.51,15.41-3.51,6.64,0,12.14,1.09,16.35,3.24,3.44,1.76,6.39,4.02,8.78,6.73,1.25,1.41,1.2,3.53-.1,4.93l-.44.47c-.7.75-1.65,1.16-2.68,1.16h0c-.97,0-1.9-.38-2.6-1.06-2.56-2.48-5.23-4.26-7.94-5.3-3.37-1.3-7.38-1.96-11.91-1.96-4.12,0-7.77.82-10.84,2.44-3.01,1.59-5.44,4.33-7.22,8.14-1.82,3.89-2.74,9.34-2.74,16.17v22.59c0,.14-.02.27-.07.4-.18.49-.28,1.02-.28,1.58,0,.71,0,1.42-.02,2.13-.04,3.1-.08,6.31.37,9.39,0,.05,0,.11,0,.16v130.8c0,1.82-1.48,3.29-3.29,3.29h-2.03l-.02.03Z"/>
        <path class="cls-1" d="M70.14,13.76c6.5,0,11.78,1.04,15.84,3.11,3.33,1.7,6.14,3.86,8.44,6.47.86.98.81,2.46-.08,3.41l-.43.47c-.5.54-1.18.81-1.85.81s-1.31-.25-1.82-.74c-2.68-2.59-5.46-4.44-8.32-5.54-3.52-1.35-7.63-2.03-12.32-2.03-4.33,0-8.12.86-11.37,2.57-3.25,1.72-5.82,4.6-7.72,8.66s-2.84,9.61-2.84,16.65v22.59c-.22.58-.35,1.24-.36,1.98-.02,3.91-.21,7.82.36,11.68v130.8c0,1.2-.97,2.17-2.17,2.17h-2.03c-.97,0-1.76-.79-1.76-1.76V80.63h-.05c.15-1.42.31-2.83.46-4.25.11-1.04-.06-1.92-.4-2.65v-26.41c0-7.94,1.17-14.39,3.52-19.36,2.34-4.96,5.69-8.57,10.02-10.83,4.33-2.25,9.29-3.38,14.89-3.38M70.14,11.5c-5.93,0-11.29,1.22-15.93,3.64-4.76,2.48-8.47,6.48-11.02,11.87-2.48,5.24-3.74,12.08-3.74,20.32v26.41c0,.33.07.66.22.97.19.4.26.89.2,1.45-.09.87-.18,1.74-.28,2.61l-.18,1.62c-.03.24-.01.48.04.71v133.95c0,2.21,1.8,4.02,4.02,4.02h2.03c2.44,0,4.42-1.98,4.42-4.42V83.85c0-.11,0-.22-.02-.33-.44-2.99-.4-6.01-.36-9.21,0-.71.02-1.42.02-2.13,0-.44.07-.82.21-1.19.1-.26.15-.53.15-.8v-22.59c0-6.67.89-11.95,2.63-15.7,1.67-3.58,3.93-6.15,6.73-7.62,2.91-1.53,6.38-2.31,10.32-2.31,4.39,0,8.27.63,11.51,1.88,2.56.99,5.11,2.69,7.56,5.06.92.89,2.12,1.37,3.39,1.37s2.6-.55,3.5-1.52l.43-.47c1.7-1.82,1.75-4.59.12-6.44-2.48-2.82-5.54-5.17-9.11-6.99-4.37-2.23-10.04-3.36-16.87-3.36h.01Z"/>
      </g>
      <g>
        <path class="cls-1" d="M40.74,121.17c-.29,0-.57-.11-.78-.32-.22-.21-.34-.51-.34-.81v-.5H13.51c-2.03,0-3.69-1.65-3.69-3.69v-.84c0-2.03,1.65-3.69,3.69-3.69h26.1v-.51c0-.3.12-.59.33-.8.21-.21.5-.33.8-.33h0c1.97,0,3.92-.09,5.85-.27h.11c.28,0,.55.1.76.29.23.21.37.52.37.83v.79h37.47c2.03,0,3.69,1.65,3.69,3.69v.84c0,2.03-1.65,3.69-3.69,3.69h-37.47v.44c0,.3-.12.59-.34.8-.21.21-.5.32-.79.32h-.02c-.63,0-1.25-.02-1.88-.02-1.33,0-2.68.02-4.02.07h-.04v.02Z"/>
        <path class="cls-1" d="M46.69,110.54v1.92h38.6c1.41,0,2.56,1.15,2.56,2.56v.84c0,1.41-1.15,2.56-2.56,2.56h-38.6v1.57c-.63-.01-1.27-.02-1.9-.02-1.35,0-2.7.02-4.06.07v-1.63H13.51c-1.41,0-2.56-1.15-2.56-2.56v-.84c0-1.41,1.15-2.56,2.56-2.56h27.22v-1.64h.04c1.98,0,3.95-.09,5.92-.28M46.7,108.28c-.07,0-.14,0-.21.01-1.89.18-3.81.27-5.7.27-1.03,0-1.93.69-2.21,1.64H13.51c-2.65,0-4.81,2.16-4.81,4.81v.84c0,2.65,2.16,4.81,4.81,4.81h25.06c.11.37.31.72.6.99.42.41.98.63,1.57.63h.08c1.33-.04,2.67-.07,3.98-.07.62,0,1.24,0,1.86.01h.04c.59,0,1.16-.23,1.58-.65.26-.26.46-.58.57-.92h36.45c2.65,0,4.81-2.16,4.81-4.81v-.84c0-2.65-2.16-4.81-4.81-4.81h-36.37c-.08-.51-.33-.98-.71-1.33-.42-.38-.96-.59-1.52-.59h0Z"/>
      </g>
    </g>
  </g>
</svg>