<?xml version="1.0" encoding="UTF-8"?>
<svg id="Layer_2" data-name="Layer 2" xmlns="http://www.w3.org/2000/svg" viewBox="0 0 112.11 204.54">
  <defs>
    <style>
      .cls-1, .cls-2 {
        fill: #231f20;
      }

      .cls-3 {
        fill: #262324;
        stroke: #231f20;
        stroke-miterlimit: 10;
        stroke-width: 2.25px;
      }

      .cls-2 {
        font-family: LexendDeca-Regular, 'Lexend Deca';
        font-size: 42px;
      }
    </style>
  </defs>
  <g id="Layer_1-2" data-name="Layer 1">
    <path class="cls-1" d="M11.39,155.94h6.83s-9.09,15.77-9.09,15.77L0,155.95h6.82s-.13-110.6-.13-110.6h4.57s.13,110.59.13,110.59ZM59.93,99.13l-17.66,4.44,4.98-17.51,4.75,4.9,14.35-13.91,3.18,3.28-14.34,13.91,4.75,4.9ZM103.15,183.43l5.04-4.6,3.92,17.78-17.36-5.49,5.04-4.6-20.28-22.19,3.37-3.08,20.28,22.19Z"/>
    <text class="cls-2" transform="translate(0 38.34)"><tspan x="0" y="0">1</tspan></text>
    <text class="cls-2" transform="translate(73.39 82.85)"><tspan x="0" y="0">2</tspan></text>
    <path class="cls-3" d="M76.66,144.04c-.05.06-.03.19.08.28.32.25.9.45,1.33.8,3.31,2.73,3.48,8.09.81,11.32-3.26,3.96-9.63,3.53-12.95-.13-.46-.51-2.24-2.55-.91-2.94.97-.29,1.59,1.28,2.19,1.93,1.18,1.28,2.91,2.2,4.66,2.35,8.86.79,9.82-11.92,1.59-12.66-.54-.05-2.49.18-2.75-.23-1.18-1.87,2.78-1.32,3.55-1.43,2.13-.29,4.07-2.35,4.28-4.48.65-6.44-6.89-9.01-10.78-4.18-.38.47-1.3,2.38-1.58,2.47-.52.16-1.11-.15-1.11-.72,0-.19.79-1.73.96-2,2.42-3.86,8.21-5.09,11.71-1.91,2.92,2.65,3.26,7.94.27,10.65-.27.24-1.3.82-1.35.88Z"/>
    <g id="Layer_1-2" data-name="Layer 1-2">
      <g>
        <path class="cls-1" d="M28.19,203.18c-2.03,0-3.68-1.65-3.68-3.68V4.8c0-2.03,1.65-3.68,3.68-3.68h.84c2.03,0,3.68,1.65,3.68,3.68v136.84c.28.23.45.58.42.95-.09,1.3-.05,2.54.11,3.69.01.09.01.18,0,.27-.16,1.51-.21,3.05-.15,4.59.01.32-.11.62-.33.85l-.06.06v47.45c0,2.03-1.65,3.68-3.68,3.68h-.84.01Z"/>
        <path class="cls-1" d="M29.03,2.25c1.41,0,2.55,1.14,2.55,2.55v138.14l.42-.42c-.09,1.32-.06,2.63.12,3.91-.17,1.58-.22,3.17-.15,4.76l-.39.39v47.92c0,1.41-1.14,2.55-2.55,2.55h-.84c-1.41,0-2.55-1.14-2.55-2.55V4.8c0-1.41,1.14-2.55,2.55-2.55h.84M29.03,0h-.84c-2.65,0-4.8,2.15-4.8,4.8v194.7c0,2.65,2.15,4.8,4.8,4.8h.84c2.65,0,4.8-2.15,4.8-4.8v-47.04c.27-.4.41-.87.39-1.36-.06-1.48-.01-2.97.14-4.42.02-.18.02-.37,0-.55-.14-1.04-.18-2.17-.11-3.36,0-.08.01-.17.01-.25,0-.49-.16-.95-.43-1.32V4.8c0-2.65-2.15-4.8-4.8-4.8h0Z"/>
      </g>
      <g>
        <path class="cls-1" d="M88.61,203.3c-1.03,0-2-.44-2.68-1.22l-57.99-66.71c-.26-.3-.36-.7-.28-1.08s.34-.71.7-.87c1.98-.92,3.64-1.78,5.06-2.63.2-.12.42-.18.64-.18.35,0,.7.15.94.43l57.74,66.39c.92,1.06,1.13,2.52.55,3.8-.58,1.28-1.82,2.08-3.23,2.08h-1.45Z"/>
        <path class="cls-1" d="M34.06,131.86l57.74,66.39c1.29,1.49.24,3.8-1.73,3.8h-1.45c-.66,0-1.3-.29-1.73-.79l-58.01-66.71c1.76-.81,3.52-1.7,5.18-2.69M34.06,129.36c-.44,0-.88.12-1.28.35-1.39.83-3,1.67-4.94,2.56-.71.33-1.23.98-1.39,1.75s.04,1.57.56,2.16l58,66.71c.91,1.05,2.23,1.65,3.62,1.65h1.45c1.9,0,3.58-1.08,4.36-2.81s.5-3.7-.75-5.14l-57.75-66.37c-.49-.56-1.18-.86-1.89-.86h.01Z"/>
      </g>
      <g>
        <path class="cls-1" d="M33.22,136.23c-.2,0-.39-.03-.58-.1-.57-.19-1.01-.65-1.18-1.23-.45-1.57-.89-2.88-1.34-4.01-.31-.77-.06-1.65.61-2.15l50.45-37.76c.59-.44,1.28-.67,1.99-.67.94,0,1.86.42,2.51,1.14.69.77,1.01,1.82.89,2.87l-.12,1.1c-.11,1.01-.63,1.92-1.41,2.51l-50.69,37.94c-.32.24-.71.37-1.1.37h-.03Z"/>
        <path class="cls-1" d="M83.16,92.14c.89,0,1.7.85,1.57,1.97l-.12,1.1c-.06.51-.31.96-.69,1.24l-50.69,37.94c-.41-1.41-.86-2.83-1.4-4.18l50.45-37.77c.28-.21.59-.31.89-.31M83.16,88.47c-1.11,0-2.18.36-3.09,1.04l-50.45,37.76c-1.33.99-1.83,2.76-1.21,4.3.43,1.08.85,2.34,1.28,3.84.33,1.16,1.22,2.08,2.36,2.46.38.13.78.19,1.17.19.78,0,1.56-.25,2.2-.73l50.69-37.94c1.19-.89,1.97-2.27,2.14-3.78l.12-1.1c.18-1.58-.31-3.15-1.35-4.3-1-1.12-2.41-1.76-3.88-1.76h0l.02.02Z"/>
      </g>
    </g>
  </g>
</svg>