<?xml version="1.0" encoding="UTF-8"?>
<svg id="Layer_2" data-name="Layer 2" xmlns="http://www.w3.org/2000/svg" viewBox="0 0 101.77 148.32">
  <defs>
    <style>
      .cls-1, .cls-2 {
        fill: #231f20;
      }

      .cls-2 {
        font-family: LexendDeca-Regular, 'Lexend Deca';
        font-size: 42px;
      }
    </style>
  </defs>
  <g id="Layer_1-2" data-name="Layer 1">
    <path class="cls-1" d="M17.06,27.27L0,33.64,3,15.68l5.34,4.4c10.55-9.02,25.4-13.3,41.27-11.64,13.15,1.36,25.02,6.67,29.53,13.23l-3.76,2.58c-3.73-5.43-14.52-10.07-26.24-11.28-14.33-1.47-27.66,2.21-37.22,10.05l5.14,4.24Z"/>
    <text class="cls-2" transform="translate(80.77 35.7)"><tspan x="0" y="0">1</tspan></text>
    <g id="Layer_1-2" data-name="Layer 1-2">
      <g>
        <path class="cls-1" d="M45.76,147.05c-9.66,0-18.58-1.86-26.52-5.53-7.25-3.36-13.06-7.76-17.27-13.1-1.08-1.38-.9-3.36.41-4.52l.66-.58c.6-.53,1.37-.82,2.18-.82.97,0,1.89.43,2.52,1.17,3.76,4.45,8.72,8.21,14.75,11.16,6.73,3.29,14.7,4.96,23.71,4.96,5.75,0,10.72-.71,14.75-2.1,4-1.38,7.27-3.25,9.73-5.58,2.46-2.32,4.33-4.99,5.55-7.91,1.23-2.94,1.85-6.09,1.85-9.37,0-6.69-2.79-11.81-8.54-15.64-2.83-2.12-6.37-3.96-10.57-5.5-4.26-1.56-9.31-3-15.01-4.29-6.55-1.6-12.4-3.44-17.42-5.48-5.08-2.06-9.3-4.46-12.56-7.12-3.02-2.56-5.31-5.35-6.82-8.3-1.53-2.98-2.3-6.34-2.3-9.99,0-4.65.96-8.92,2.84-12.69,1.87-3.75,4.53-7.05,7.9-9.83,3.36-2.77,7.52-4.88,12.36-6.3,4.79-1.4,10.19-2.11,16.05-2.11,5.15,0,10.22.75,15.09,2.22,4.85,1.47,9.48,3.63,13.75,6.43,3.74,2.45,7.2,5.4,10.26,8.76,1.15,1.26,1.17,3.17.04,4.43l-.75.85c-.62.7-1.52,1.11-2.46,1.11s-1.77-.37-2.38-1.03c-2.69-2.85-5.62-5.42-8.71-7.62-3.63-2.58-7.56-4.56-11.68-5.89s-8.54-2-13.15-2c-5.04,0-9.63.6-13.61,1.79-3.95,1.18-7.35,2.86-10.1,4.99-2.72,2.11-4.79,4.59-6.14,7.36-1.35,2.77-2.04,5.91-2.04,9.31,0,2.27.47,4.51,1.41,6.65.92,2.12,2.48,4.07,4.62,5.81,2.79,2.38,6.5,4.49,11.05,6.31,4.62,1.85,10.06,3.5,16.17,4.92,6.5,1.45,12.28,3.1,17.16,4.92,4.94,1.85,9.09,4.06,12.35,6.57,3.44,2.55,6.08,5.61,7.83,9.09,1.74,3.49,2.62,7.61,2.62,12.26,0,6.43-1.6,12.16-4.75,17.03-3.16,4.88-7.79,8.68-13.76,11.3-5.92,2.58-13.01,3.89-21.08,3.89h0Z"/>
        <path class="cls-1" d="M44.02,28.84c5.05,0,9.96.72,14.73,2.17,4.76,1.45,9.24,3.54,13.43,6.28,3.67,2.41,7.02,5.26,10.02,8.56.71.78.74,1.97.03,2.76l-.75.85c-.41.46-.97.69-1.53.69s-1.07-.21-1.48-.64c-2.76-2.93-5.73-5.52-8.9-7.78-3.76-2.67-7.76-4.69-12.02-6.06-4.26-1.37-8.77-2.06-13.54-2.06-5.2,0-9.86.62-13.97,1.84-4.12,1.23-7.62,2.96-10.51,5.2-2.89,2.24-5.06,4.84-6.5,7.8-1.44,2.96-2.17,6.25-2.17,9.86,0,2.46.5,4.84,1.52,7.15,1.01,2.31,2.67,4.41,4.98,6.28,2.89,2.46,6.68,4.62,11.37,6.5s10.14,3.54,16.35,4.98c6.5,1.45,12.16,3.07,17,4.87,4.84,1.81,8.84,3.94,12.02,6.39,3.32,2.46,5.81,5.34,7.47,8.66,1.66,3.32,2.49,7.22,2.49,11.7,0,6.21-1.52,11.66-4.55,16.35-3.03,4.69-7.44,8.3-13.21,10.83-5.78,2.52-12.64,3.79-20.58,3.79-9.53,0-18.19-1.81-25.99-5.42-7.1-3.29-12.71-7.53-16.81-12.74-.67-.85-.56-2.09.25-2.81l.66-.58c.39-.34.87-.51,1.35-.51.58,0,1.16.25,1.56.73,3.89,4.61,8.95,8.43,15.16,11.47,6.93,3.39,15.02,5.09,24.26,5.09,5.92,0,10.97-.72,15.16-2.17,4.19-1.44,7.58-3.39,10.18-5.85,2.6-2.45,4.55-5.23,5.85-8.34,1.3-3.1,1.95-6.39,1.95-9.86,0-7.07-3.03-12.63-9.1-16.68-2.89-2.17-6.5-4.04-10.83-5.63s-9.39-3.03-15.16-4.33c-6.5-1.59-12.24-3.39-17.22-5.41s-9.06-4.33-12.24-6.93c-2.89-2.45-5.06-5.09-6.5-7.91-1.45-2.82-2.17-5.96-2.17-9.42,0-4.47.9-8.52,2.71-12.13,1.8-3.61,4.33-6.75,7.58-9.42,3.25-2.67,7.22-4.69,11.91-6.06,4.69-1.37,9.93-2.06,15.7-2.06M44.02,26.34c-5.98,0-11.5.73-16.4,2.16-5,1.46-9.3,3.66-12.8,6.53-3.51,2.89-6.28,6.33-8.23,10.24-1.97,3.94-2.97,8.4-2.97,13.25,0,3.85.82,7.41,2.44,10.56,1.59,3.1,3.98,6.01,7.1,8.67,3.39,2.77,7.72,5.24,12.92,7.34,5.06,2.06,10.97,3.92,17.57,5.53,5.69,1.28,10.68,2.71,14.9,4.25,4.08,1.5,7.51,3.28,10.19,5.29.04.03.07.05.11.08,5.37,3.58,7.98,8.36,7.98,14.6,0,3.12-.59,6.11-1.76,8.89-1.16,2.77-2.93,5.28-5.26,7.49-2.33,2.2-5.45,3.98-9.28,5.3-3.91,1.35-8.73,2.03-14.35,2.03-8.82,0-16.61-1.63-23.16-4.84-5.87-2.87-10.7-6.52-14.35-10.84-.87-1.03-2.13-1.61-3.47-1.61-1.11,0-2.17.4-3,1.14l-.66.58c-1.81,1.6-2.06,4.34-.56,6.23,4.33,5.49,10.3,10.02,17.73,13.46,8.1,3.75,17.2,5.65,27.04,5.65,8.24,0,15.5-1.35,21.58-4,6.21-2.72,11.02-6.67,14.31-11.76,3.28-5.08,4.95-11.04,4.95-17.71,0-4.84-.93-9.15-2.75-12.81-1.83-3.65-4.59-6.86-8.2-9.54-3.35-2.59-7.61-4.85-12.65-6.74-4.93-1.84-10.76-3.51-17.34-4.97-6.03-1.4-11.41-3.04-15.97-4.86-4.42-1.77-8.01-3.81-10.68-6.08-.01,0-.03-.03-.05-.04-1.99-1.61-3.42-3.41-4.26-5.34-.87-1.98-1.31-4.05-1.31-6.15,0-3.21.64-6.16,1.91-8.76,1.27-2.6,3.21-4.92,5.78-6.92,2.63-2.04,5.89-3.64,9.69-4.78,3.87-1.15,8.33-1.74,13.26-1.74,4.48,0,8.78.65,12.77,1.94,4,1.29,7.81,3.22,11.34,5.72,3.02,2.15,5.89,4.66,8.53,7.46.85.9,2.05,1.42,3.29,1.42s2.54-.56,3.4-1.53l.75-.85c1.55-1.75,1.53-4.37-.06-6.11-3.14-3.44-6.67-6.45-10.5-8.96-4.38-2.86-9.11-5.08-14.07-6.58-4.99-1.51-10.19-2.27-15.45-2.27h0v-.02Z"/>
      </g>
    </g>
  </g>
</svg>