<?xml version="1.0" encoding="UTF-8"?>
<svg id="Layer_2" data-name="Layer 2" xmlns="http://www.w3.org/2000/svg" viewBox="0 0 136.1 154.65">
  <defs>
    <style>
      .cls-1, .cls-2 {
        fill: #231f20;
      }

      .cls-2 {
        font-family: LexendDeca-Regular, 'Lexend Deca';
        font-size: 42px;
      }
    </style>
  </defs>
  <g id="Layer_1-2" data-name="Layer 1">
    <path class="cls-1" d="M24.78,136.91l4.1,17.74-17.42-5.31,5.04-4.7c-7.31-10.4-8.43-20.49-8.43-29.08V41.93h4.57v73.63c0,8.09.98,16.8,7.23,25.94l4.91-4.59ZM127.94,103.58h6.82l-9.1,15.77-9.11-15.77h6.83v-61.65h4.57v61.65Z"/>
    <text class="cls-2" transform="translate(0 35.7)"><tspan x="0" y="0">1</tspan></text>
    <text class="cls-2" transform="translate(113.09 37.04)"><tspan x="0" y="0">2</tspan></text>
    <g id="Layer_1-2" data-name="Layer 1-2">
      <g>
        <path class="cls-1" d="M66.6,147.88c-8.59,0-16-1.54-22.02-4.59-6.1-3.08-10.79-7.99-13.94-14.57-3.11-6.5-4.68-14.91-4.68-25.01V37.66c0-1.77,1.44-3.21,3.21-3.21h.64c1.77,0,3.21,1.44,3.21,3.21v66.05c0,8.76,1.32,15.97,3.92,21.44,2.56,5.39,6.38,9.38,11.35,11.86,5.05,2.53,11.35,3.81,18.72,3.81,4.77,0,9.37-1.01,13.68-2.99,4.36-2.01,8.26-4.56,11.61-7.57,3.35-3.02,5.99-6.1,7.86-9.16,1.8-2.97,2.72-5.47,2.72-7.44V37.66c0-1.77,1.44-3.21,3.21-3.21h.64c1.77,0,3.21,1.44,3.21,3.21v104.93c0,1.77-1.44,3.21-3.21,3.21h-.26c-1.74,0-3.18-1.42-3.21-3.16l-.24-14.65c-1.27,1.94-2.75,3.81-4.4,5.59-3.96,4.24-8.72,7.72-14.16,10.33-5.47,2.63-11.48,3.96-17.85,3.96h0Z"/>
        <path class="cls-1" d="M106.73,35.7c1.08,0,1.96.88,1.96,1.96v104.93c0,1.08-.88,1.96-1.96,1.96h-.26c-1.07,0-1.94-.86-1.96-1.93l-.32-19.19c.7-1.42,1.3-2.89,1.8-4.38l-1.87.42.07,3.97c-1.63,3.3-3.79,6.4-6.49,9.3-3.87,4.15-8.47,7.5-13.79,10.06s-11.09,3.84-17.31,3.84c-8.43,0-15.59-1.49-21.46-4.46-5.88-2.97-10.33-7.64-13.37-14s-4.56-14.51-4.56-24.47V37.66c0-1.08.88-1.96,1.96-1.96h.64c1.08,0,1.96.88,1.96,1.96v66.05c0,8.99,1.35,16.31,4.04,21.98,2.7,5.67,6.67,9.82,11.92,12.44,5.25,2.63,11.68,3.94,19.28,3.94,4.98,0,9.71-1.04,14.2-3.11s8.47-4.67,11.92-7.78c3.45-3.11,6.15-6.25,8.09-9.43,1.93-3.18,2.9-5.87,2.9-8.09V37.66c0-1.08.88-1.96,1.96-1.96h.64M106.73,33.2h-.64c-2.46,0-4.46,2-4.46,4.46v76c0,1.71-.88,4.06-2.54,6.79-1.8,2.95-4.36,5.94-7.62,8.88-3.25,2.93-7.05,5.4-11.3,7.36-4.14,1.91-8.57,2.88-13.15,2.88-7.18,0-13.29-1.24-18.16-3.67-4.78-2.39-8.31-6.08-10.78-11.28-2.52-5.3-3.8-12.34-3.8-20.9V37.66c0-2.46-2.01-4.46-4.47-4.46h-.64c-2.46,0-4.46,2-4.46,4.46v66.05c0,10.29,1.62,18.88,4.81,25.55,3.27,6.84,8.15,11.93,14.5,15.15,6.2,3.14,13.8,4.73,22.59,4.73,6.56,0,12.75-1.37,18.39-4.08,5.58-2.68,10.47-6.25,14.53-10.6.81-.87,1.58-1.76,2.3-2.67l.18,10.9c.04,2.42,2.04,4.39,4.46,4.39h.26c2.46,0,4.46-2,4.46-4.46V37.66c0-2.46-2-4.46-4.46-4.46h0Z"/>
      </g>
    </g>
  </g>
</svg>