<?xml version="1.0" encoding="UTF-8"?>
<svg id="Layer_2" data-name="Layer 2" xmlns="http://www.w3.org/2000/svg" viewBox="0 0 201.57 118.08">
  <defs>
    <style>
      .cls-1, .cls-2 {
        fill: #231f20;
      }

      .cls-3 {
        stroke-width: 2.25px;
      }

      .cls-3, .cls-4 {
        fill: #262324;
        stroke: #231f20;
        stroke-miterlimit: 10;
      }

      .cls-4 {
        stroke-width: 2.5px;
      }

      .cls-2 {
        font-family: LexendDeca-Regular, 'Lexend Deca';
        font-size: 42px;
      }
    </style>
  </defs>
  <g id="Layer_1-2" data-name="Layer 1">
    <path class="cls-1" d="M37.62,96.57l6.44-2.25-3.39,17.89-13.8-11.88,6.44-2.25L15.64,47.54l4.31-1.51,17.67,50.53ZM105.06,40.92l5.26,17.43-6.64-1.56-3.61,15.39-4.45-1.04,3.61-15.39-6.64-1.56,12.47-13.27ZM130.67,57.62l6.55-1.9-4.44-15.31,4.38-1.28,4.44,15.31,6.55-1.9-4.35,17.68-13.14-12.61ZM190.75,20.75l-6.48-2.14,13.58-12.13,3.72,17.82-6.48-2.13-14.37,43.67-4.34-1.43,14.37-43.67Z"/>
    <text class="cls-2" transform="translate(0 39.14)"><tspan x="0" y="0">1</tspan></text>
    <text class="cls-2" transform="translate(87.37 107.79)"><tspan x="0" y="0">2</tspan></text>
    <path class="cls-3" d="M134.69,16.52c-.05.06-.03.19.08.28.32.25.9.45,1.33.8,3.31,2.73,3.48,8.09.81,11.32-3.26,3.96-9.63,3.53-12.95-.13-.46-.51-2.24-2.55-.91-2.94.97-.29,1.59,1.28,2.19,1.93,1.18,1.28,2.91,2.2,4.66,2.35,8.86.79,9.82-11.92,1.59-12.66-.54-.05-2.49.18-2.75-.23-1.18-1.87,2.78-1.32,3.55-1.43,2.13-.29,4.07-2.35,4.28-4.48.65-6.44-6.89-9.01-10.78-4.18-.38.47-1.3,2.38-1.58,2.47-.52.16-1.11-.15-1.11-.72,0-.19.79-1.73.96-2,2.42-3.86,8.21-5.09,11.71-1.91,2.92,2.65,3.26,7.94.27,10.65-.27.24-1.3.82-1.35.88Z"/>
    <path class="cls-4" d="M168.59,92.35h11.46v-12.47c0-.94,1.75-.93,1.75-.27v12.74h3.71c.8,0,.71,1.89-.13,1.89h-3.57c.27,4.19.07,8.41.14,12.61-.05,1.1-1.62,1.35-1.76.13-.35-3.09.13-7.03,0-10.25-.03-.79-.26-1.65-.14-2.49h-12.47c-.07,0-1.06-.82-.87-1.13l2.22-13.56c.82-.9,1.76-.25,1.55.87l-1.89,11.93Z"/>
    <g id="Layer_1-2" data-name="Layer 1-2">
      <g>
        <g>
          <path class="cls-1" d="M62.32,116.38c-1.37,0-2.6-.87-3.05-2.16L21.81,7.94c-.35-.99-.2-2.09.41-2.94.61-.85,1.59-1.37,2.64-1.37h.83c1.37,0,2.6.87,3.05,2.16l33.09,94.2s.03.09.04.13c.26,1.12.6,2.29,1.02,3.46.78,2.19,1.74,4.92,3.23,7.05l.14.19c.25.34.3.79.15,1.18l-.91,2.32c-.49,1.25-1.67,2.06-3.01,2.06h-.18,0Z"/>
          <path class="cls-1" d="M25.69,4.88c.84,0,1.59.53,1.87,1.33l33.09,94.2c.28,1.22.64,2.42,1.06,3.6.89,2.52,1.85,5.15,3.38,7.35.05.07.1.13.15.2l-.91,2.32c-.3.76-1.03,1.26-1.85,1.26h-.18c-.84,0-1.59-.53-1.87-1.32L22.99,7.53c-.45-1.29.5-2.64,1.87-2.64h.83M25.69,2.38h-.83c-1.45,0-2.82.71-3.66,1.89-.84,1.19-1.05,2.72-.57,4.09l37.45,106.28c.63,1.79,2.33,2.99,4.23,2.99h.18c1.86,0,3.5-1.12,4.18-2.85l.91-2.32c.31-.79.19-1.69-.31-2.38-.04-.05-.08-.1-.12-.16-1.4-2-2.29-4.52-3.08-6.75-.4-1.13-.73-2.25-.98-3.33-.02-.09-.05-.18-.08-.26L29.93,5.38c-.63-1.79-2.33-3-4.23-3h-.01Z"/>
        </g>
        <g>
          <path class="cls-1" d="M143.13,114c-1.34,0-2.52-.81-3.01-2.06l-.62-1.59c-.1-.26-.11-.54-.04-.81.6-2.05,1.29-4.28,2.2-7.02.11-.34.36-.6.67-.75L176.88,3.41c.46-1.29,1.68-2.16,3.05-2.16h.83c1.05,0,2.03.51,2.64,1.37s.76,1.96.41,2.94l-37.45,106.28c-.46,1.29-1.68,2.16-3.05,2.16h-.18Z"/>
          <path class="cls-1" d="M180.76,2.5c1.37,0,2.33,1.35,1.87,2.64l-37.45,106.28c-.28.79-1.03,1.32-1.87,1.32h-.18c-.82,0-1.55-.5-1.85-1.26l-.62-1.59c.68-2.34,1.42-4.66,2.18-6.98l.21.55L178.06,3.83c.28-.79,1.03-1.33,1.87-1.33h.83M180.76,0h-.83C178.03,0,176.33,1.2,175.7,3l-34.41,97.97c-.37.3-.66.7-.82,1.17-.91,2.76-1.61,5.01-2.21,7.06-.15.53-.13,1.09.07,1.61l.62,1.59c.68,1.73,2.32,2.85,4.18,2.85h.18c1.9,0,3.6-1.2,4.23-2.99L184.99,5.97c.48-1.37.27-2.9-.57-4.08-.84-1.19-2.21-1.89-3.66-1.89h0Z"/>
        </g>
      </g>
      <g>
        <path class="cls-1" d="M63.86,114.94c-1.34,0-2.52-.81-3.01-2.06l-.62-1.59c-.1-.26-.11-.54-.04-.8.59-2.04,1.29-4.27,2.2-7.02.11-.34.36-.6.67-.75L97.61,4.36c.46-1.29,1.68-2.16,3.05-2.16h.83c1.05,0,2.03.51,2.64,1.37s.76,1.96.41,2.94l-37.45,106.28c-.45,1.29-1.68,2.16-3.05,2.16h-.18Z"/>
        <path class="cls-1" d="M101.49,3.45c1.37,0,2.33,1.35,1.87,2.64l-37.45,106.28c-.28.79-1.03,1.32-1.87,1.32h-.18c-.82,0-1.55-.5-1.85-1.26l-.62-1.59c.68-2.34,1.42-4.66,2.18-6.98l.21.55L98.79,4.77c.28-.79,1.03-1.33,1.87-1.33h.83M101.49.95h-.83c-1.9,0-3.6,1.2-4.23,3l-34.41,97.97c-.37.3-.66.7-.82,1.17-.91,2.76-1.61,5.01-2.21,7.06-.15.53-.13,1.09.07,1.61l.62,1.59c.68,1.73,2.32,2.85,4.18,2.85h.18c1.9,0,3.6-1.2,4.23-2.99L105.72,6.92c.48-1.37.27-2.9-.57-4.08-.84-1.19-2.21-1.89-3.66-1.89h0Z"/>
      </g>
      <g>
        <path class="cls-1" d="M143.02,113.31c-.52,0-1.04-.13-1.5-.37l-1.51-.79c-.24-.13-.44-.33-.55-.58-.9-1.95-1.83-4.09-2.95-6.74-.14-.33-.13-.69.01-1L98.07,6.91c-.51-1.27-.15-2.74.89-3.63l.63-.54c.59-.51,1.34-.79,2.12-.79,1.34,0,2.52.8,3.01,2.04l41.46,104.78c.5,1.27.15,2.73-.89,3.63l-.14.12c-.59.51-1.34.79-2.12.79h-.01Z"/>
        <path class="cls-1" d="M101.69,3.19c.78,0,1.53.45,1.85,1.25l41.46,104.78c.31.78.09,1.68-.54,2.23l-.14.12c-.37.32-.83.49-1.3.49-.31,0-.63-.07-.92-.23l-1.51-.79c-1.02-2.21-1.99-4.45-2.93-6.7l.52.27L99.23,6.45c-.31-.78-.09-1.68.54-2.23l.63-.55c.38-.33.84-.49,1.3-.49M101.69.69c-1.08,0-2.12.39-2.94,1.1l-.63.55c-1.43,1.25-1.93,3.27-1.23,5.04l38.3,96.51c-.09.47-.04.96.15,1.42,1.12,2.68,2.07,4.84,2.97,6.78.23.5.62.91,1.11,1.17l1.51.79c.64.33,1.36.51,2.08.51,1.08,0,2.13-.39,2.94-1.1l.14-.12c1.43-1.25,1.93-3.27,1.23-5.03L105.87,3.53c-.68-1.72-2.32-2.84-4.17-2.84h-.01Z"/>
      </g>
    </g>
  </g>
</svg>