<svg xmlns="http://www.w3.org/2000/svg" viewBox="0 0 63.15 213.05"><defs><style>.cls-1{fill: #000000;}.cls-2{fill:gray;}.cls-3{fill: #000000;}</style></defs><title>Asset 1</title><g id="Layer_2" data-name="Layer 2"><g id="Layer_1-2" data-name="Layer 1"><path class="cls-1" d="M12.78,0a4.13,4.13,0,0,0-.11.69C12.61,3,12.61,3,10.24,3c-3,0-6.06,0-9.09,0C.27,3-.1,2.84,0,1.91A17.33,17.33,0,0,0,.08,0Z"/><path class="cls-1" d="M38,0a5.54,5.54,0,0,0-.12.69C37.77,3,37.78,3,35.41,3c-3,0-6.07,0-9.1,0-.87,0-1.25-.18-1.12-1.11a17.34,17.34,0,0,0,0-1.91Z"/><path class="cls-1" d="M63.11,0A4.13,4.13,0,0,0,63,.69C62.94,3,62.94,3,60.57,3c-3,0-6.06,0-9.09,0-.88,0-1.25-.18-1.13-1.11A17.33,17.33,0,0,0,50.41,0Z"/><path class="cls-2" d="M12.52,210c.61,1,.08,2.07.26,3.09H.08v-.25a2.37,2.37,0,0,1,1.7-.36h8.6c1.67,0,1.86-.17,1.81-1.59A1.16,1.16,0,0,1,12.52,210Z"/><path class="cls-2" d="M37.68,210c.61,1,.09,2.07.27,3.09H25.24v-.25a2.4,2.4,0,0,1,1.71-.36h8.59c1.68,0,1.86-.17,1.81-1.59A1.2,1.2,0,0,1,37.68,210Z"/><path class="cls-3" d="M50.41,213.05v-.25a2.38,2.38,0,0,1,1.7-.36h8.6c1.67,0,1.86-.17,1.81-1.59a1.16,1.16,0,0,1,.32-.88c.61,1,.08,2.07.26,3.09Z"/><path class="cls-1" d="M29.67,102.71c0-1.75,0-3.51,0-5.26,0-.8.23-1,1-1,2,0,2,0,2,2,0,3.23,0,6.46,0,9.69,0,.8-.23,1-1,1-2,0-2,0-2-2.07Z"/><path class="cls-1" d="M32.66,52.68c0,1.79,0,3.58,0,5.38,0,.62-.08.89-.82.89-2.19,0-2.19,0-2.19-2.15,0-3.11,0-6.22,0-9.32,0-.84.12-1.2,1.08-1.17,1.93.07,1.93,0,1.93,1.94Z"/><path class="cls-1" d="M32.66,77.65c0,1.79,0,3.58,0,5.37,0,.78-.18,1-1,1-2,0-2,0-2-2,0-3.19,0-6.38,0-9.57,0-.93.26-1.12,1.13-1.09,1.89.06,1.89,0,1.89,2Z"/><path class="cls-1" d="M29.67,127.91c0-1.8,0-3.59,0-5.39,0-.71.17-1,.93-1,2.08,0,2.08,0,2.08,2,0,3.19,0,6.38,0,9.58,0,.8-.15,1.09-1,1.07-2-.05-2,0-2-2Z"/><path class="cls-1" d="M32.66,148.73c0,1.76,0,3.51,0,5.27,0,.77-.22.91-.94.91-2.08,0-2.08,0-2.08-2,0-3.15,0-6.31,0-9.46,0-.79.14-1.11,1-1.09,2,0,2,0,2,2Z"/><path d="M62.85,210c.09,2.85.09,2.85-2.78,2.85H50.42c-.19-2.87-.19-2.87,2.67-2.87Z"/><path d="M37.68,210c.09,2.85.09,2.85-2.78,2.85H25.25c-.18-2.87-.18-2.87,2.68-2.87Z"/><path d="M12.52,210c.09,2.85.09,2.85-2.78,2.85H.09c-.19-2.87-.19-2.87,2.67-2.87Z"/><path class="cls-1" d="M32.67,29.57c0,1.8,0,3.59,0,5.38,0,.62-.08.9-.81.9-2.2,0-2.2,0-2.2-2.15,0-3.11,0-6.22,0-9.33,0-.84.12-1.2,1.09-1.17,1.93.07,1.93,0,1.93,1.95Z"/><path class="cls-1" d="M33.34,172.67c0,1.8,0,3.59,0,5.38,0,.62-.08.9-.81.9-2.2,0-2.2.05-2.2-2.15,0-3.11,0-6.22,0-9.33,0-.83.12-1.2,1.08-1.16,1.94.06,1.94,0,1.94,1.94Z"/><path class="cls-1" d="M33.12,10.06c0,1.79,0,3.59,0,5.38,0,.62-.08.89-.81.9-2.2,0-2.2,0-2.2-2.16,0-3.11,0-6.21,0-9.32,0-.84.12-1.2,1.08-1.17,1.93.07,1.94,0,1.94,1.94Z"/><path class="cls-1" d="M33.12,196.88c0,1.79,0,3.59,0,5.38,0,.62-.08.9-.81.9-2.2,0-2.2.05-2.2-2.15,0-3.11,0-6.22,0-9.33,0-.84.12-1.2,1.08-1.17,1.93.07,1.94,0,1.94,2Z"/></g></g></svg>