<?xml version="1.0" encoding="UTF-8"?>
<svg id="Layer_2" data-name="Layer 2" xmlns="http://www.w3.org/2000/svg" viewBox="0 0 117.97 213">
  <defs>
    <style>
      .cls-1 {
        fill: #000000;
      }

      .cls-2 {
        fill: #000000;
      }
    </style>
  </defs>
  <g id="Layer_1-2" data-name="Layer 1">
    <g>
      <path class="cls-2" d="M31.68,0v3.12h-11.88c-.59,0-.3-2.57-.36-3.12h12.24Z"/>
      <path class="cls-2" d="M55.92,0c-.06.55.23,3.12-.36,3.12h-11.88V0h12.24Z"/>
      <path class="cls-2" d="M79.92,0v3.12h-11.88c-.59,0-.3-2.57-.36-3.12h12.24Z"/>
      <path class="cls-1" d="M7.44,0v3.12H3.12v4.2C3.12,7.91.55,7.62,0,7.68V0h7.44Z"/>
      <path class="cls-2" d="M0,19.2h3.12v11.4c0,.59-2.57.3-3.12.36v-11.76Z"/>
      <path class="cls-2" d="M0,112.32h3.12v11.4c0,.59-2.57.3-3.12.36v-11.76Z"/>
      <path class="cls-2" d="M0,42.48h3.12v11.4c0,.59-2.57.3-3.12.36v-11.76Z"/>
      <path class="cls-2" d="M0,89.04h3.12v11.4c0,.59-2.57.3-3.12.36v-11.76Z"/>
      <path class="cls-2" d="M0,65.76h3.12v11.4c0,.59-2.57.3-3.12.36v-11.76Z"/>
      <path class="cls-2" d="M0,135.6h3.12v11.4c0,.59-2.57.3-3.12.36v-11.76Z"/>
      <path class="cls-2" d="M0,158.88h3.12v11.4c0,.59-2.57.3-3.12.36v-11.76Z"/>
      <path class="cls-2" d="M0,182.16h3.12v11.4c0,.59-2.57.3-3.12.36v-11.76Z"/>
      <path class="cls-1" d="M4.16,210h-1.04v-4.2c0-.59-2.57-.3-3.12-.36v7.44c.95.08,1.96.11,2.97.12.14-1.09.53-2.14,1.19-3.01Z"/>
      <path class="cls-2" d="M17.24,100.92v3.12H5.36c-.59,0-.3-2.58-.36-3.12h12.24Z"/>
      <path class="cls-2" d="M41.48,100.92c-.06.54.23,3.12-.36,3.12h-11.88v-3.12h12.24Z"/>
      <path class="cls-1" d="M117.96,54.21c.02,1.87-.06,3.78-.24,5.64-.14,1.47-.53,5.22-1.01,6.44-.06.16-.11.32-.3.35-.55-.32-2.6-.26-2.74-.8-.07-.27.84-4.64.93-5.51.2-1.9.26-3.81.28-5.72.24-.74,2.41-.26,3.09-.39Z"/>
      <path class="cls-1" d="M106.96,23.79c-1.65-3.43-4.06-6.55-6.47-9.51-.07-.38,1.72-2.07,2.23-1.97.79.15,6.38,8.47,6.84,9.89-.07.4-2.48,1.69-2.6,1.59Z"/>
      <path class="cls-1" d="M86.17,1.97c.51-.38,9.56,5.78,10.55,6.84-.42.29-1.65,2.35-2.15,2.17l-9.5-6.37,1.1-2.64Z"/>
      <path class="cls-1" d="M99.01,87.56l1.64,2.53c-2.2,1.28-4.38,2.59-6.69,3.68-.72.34-3.4,1.64-3.95,1.68-.83.06-1.17-2-1.5-2.65,3.69-1.37,7.1-3.29,10.5-5.24Z"/>
      <path class="cls-1" d="M114.17,73.12c.29.4-2.52,5.87-2.98,6.71-.31.56-2.31,4.07-2.52,4.21-.51.34-1.96-1.36-2.65-1.34l5.52-10.45c.39-.25,2.02.81,2.63.88Z"/>
      <path class="cls-1" d="M114.85,33.65c.58,1.38,3.15,11.51,2.66,11.98-.63-.22-2.56.6-2.91.1l-2.61-11.04v-.33s2.85-.71,2.85-.71Z"/>
    </g>
    <path class="cls-2" d="M58.11,99.89l.27,3.11-11.83,1.04c-.59.05-.52-2.54-.63-3.08l12.19-1.07Z"/>
    <path class="cls-2" d="M81.2,96.09c.09.54,1.08,2.94.51,3.1l-11.42,3.27-.86-3,11.77-3.37Z"/>
  </g>
</svg>