<?xml version="1.0" encoding="UTF-8"?>
<svg id="Layer_2" data-name="Layer 2" xmlns="http://www.w3.org/2000/svg" viewBox="0 0 154.12 214.05">
  <defs>
    <style>
      .cls-1 {
        fill: #939698;
      }

      .cls-2 {
        fill: #272425;
      }

      .cls-3 {
        fill: #939598;
      }

      .cls-4 {
        fill: #262324;
      }

      .cls-5 {
        fill: #282526;
      }
    </style>
  </defs>
  <g id="Layer_1-2" data-name="Layer 1">
    <g>
      <path class="cls-2" d="M2.74,0H0v7.68c.55-.06,3.12.23,3.12-.36V3.12h.03c-.38-.98-.52-2.06-.41-3.12Z"/>
      <path class="cls-5" d="M0,114.72h3.12v11.64c0,.59-2.57.3-3.12.36v-12Z"/>
      <path class="cls-5" d="M0,19.44h3.12v11.64c0,.59-2.57.3-3.12.36v-12Z"/>
      <path class="cls-5" d="M0,43.2c.55.06,3.12-.23,3.12.36v11.64H0v-12Z"/>
      <path class="cls-5" d="M0,90.72c.55.06,3.12-.23,3.12.36v11.64H0v-12Z"/>
      <path class="cls-5" d="M0,66.96c.55.06,3.12-.23,3.12.36v11.64H0v-12Z"/>
      <path class="cls-2" d="M153.88.44h-3.92c.24,1.02.24,2.1,0,3.12h1.03v4.56c.93-.11,2.09.28,2.88-.24.2-2.39.2-5.1,0-7.44Z"/>
      <path class="cls-3" d="M154.12,79.4h-.24c-.19-.02-.47-.09-.48-.22-.06-1.43-.35-11.04,0-11.49l.48-.29h.24v12Z"/>
      <path class="cls-1" d="M154.12,55.64h-.24c-.19-.02-.47-.09-.48-.22-.06-1.43-.35-11.04,0-11.49l.48-.29h.24v12Z"/>
      <path class="cls-1" d="M154.12,103.16h-.24c-.19-.02-.47-.09-.48-.22-.06-1.43-.35-11.04,0-11.49l.48-.29h.24v12Z"/>
      <path class="cls-3" d="M154.12,126.92h-.24c-.19-.02-.47-.09-.48-.22-.14-3.05-.23-7.21,0-10.21-.15-.73.01-1.18.48-1.33h.24v11.76Z"/>
      <path class="cls-3" d="M154.12,31.64h-.24c-.19-.02-.47-.09-.48-.22-.14-3.05-.23-7.21,0-10.21-.15-.73.01-1.18.48-1.33h.24v11.76Z"/>
      <rect class="cls-3" x="153.88" y=".44" width=".24" height="7.44"/>
      <path class="cls-2" d="M117.52,197.75l1.69,2.62c-1.91,1.21-3.77,2.52-5.73,3.64-.69.39-4.35,2.5-4.73,2.26-.23-.15-1.27-2.27-1.09-2.54l9.86-5.97Z"/>
      <path class="cls-2" d="M45.34,205.9c-.32.23-3.4-1.54-3.98-1.86-1.07-.6-5.82-3.32-6.34-3.99-.41-.53,1.14-2.83,1.93-2.41l9.51,5.63c-.15.39-1,2.55-1.12,2.63Z"/>
      <path class="cls-2" d="M5.04,150l-3.1.46-1.7-11.98c.78.3,2.85-.61,3.09.16l1.72,11.36Z"/>
      <path class="cls-2" d="M153.64,138.93c.17.16-.2,3.79-.27,4.41-.12,1-.99,6.91-1.28,7.36-.37.57-2.32-.41-3.01-.25l1.69-11.74,2.87.23Z"/>
      <path class="cls-2" d="M10.36,173.01c-.62-.36-4.75-9.56-4.81-10.99l2.5-.98,4.88,10.25c.23.76-2.18,1.94-2.57,1.71Z"/>
      <path class="cls-2" d="M19.35,181.46l7.99,8.54-2.02,2.24-8.02-8.79c-.1-.54,1.71-1.48,2.05-1.99Z"/>
      <path class="cls-2" d="M134.23,181.92c.46-.26,2.56,1.59,2.56,1.76,0,.69-6.95,7.99-8,9l-2.02-2.24,7.45-8.52Z"/>
      <path class="cls-2" d="M148.6,162.45l-4.79,10.69c-.8.88-1.84-.88-2.89-.85l4.8-10.8,2.88.96Z"/>
      <polygon class="cls-2" points="68.64 210.48 68.03 213.61 56.39 210.59 57.26 207.82 68.64 210.48"/>
      <path class="cls-2" d="M85.96,214.05l-.48-3.12,10.74-2.6c.8-.21,1.16,1.52,1.33,2.18.06.23.27.34-.07.53l-11.52,3.01Z"/>
      <rect class="cls-4" x="151" y="67.4" width="2.88" height="12"/>
      <path class="cls-4" d="M153.88,115.16v11.76h-2.88v-12c.93.11,2.09-.28,2.88.24Z"/>
      <rect class="cls-4" x="151" y="43.64" width="2.88" height="12"/>
      <rect class="cls-4" x="151" y="91.16" width="2.88" height="12"/>
      <path class="cls-4" d="M153.88,19.88v11.76c-.79.52-1.95.13-2.88.24v-12h2.88Z"/>
    </g>
  </g>
</svg>