<?xml version="1.0" encoding="UTF-8"?>
<svg id="Layer_2" data-name="Layer 2" xmlns="http://www.w3.org/2000/svg" viewBox="0 0 162.72 211.45">
  <defs>
    <style>
      .cls-1 {
        fill: #000000;
      }
    </style>
  </defs>
  <g id="Layer_1-2" data-name="Layer 1">
    <g>
      <polygon class="cls-1" points="153.11 24.16 148.56 36.15 145.91 35.07 150.37 23.43 150.6 23.2 153.11 24.16"/>
      <path class="cls-1" d="M55.78,160.07l-2.91.83-3.94-11.98c.76.02,2.53-1.27,3.03-.56l3.82,11.71Z"/>
      <path class="cls-1" d="M30.66,84.94c-.73-.17-2.44,1.05-2.79.59l-3.83-11.86,2.69-.94,3.93,12.22Z"/>
      <path class="cls-1" d="M108.73,134.2l-4.56,12-2.64-1.08,4.45-11.64c.38-.44,2.02.86,2.76.73Z"/>
      <path class="cls-1" d="M3.94,15.35L0,3.49c.79-.12,2.63-1.42,3.1-.51l3.79,11.22c.03.62-2.8,1.3-2.94,1.15Z"/>
      <polygon class="cls-1" points="143.74 47.69 139.18 59.41 136.32 58.47 140.88 46.71 143.74 47.69"/>
      <path class="cls-1" d="M47.35,134.55c-.73-.17-2.44,1.05-2.79.59l-3.83-11.86,2.69-.94,3.93,12.22Z"/>
      <path class="cls-1" d="M126.96,81.99l4.56-12c.66.42,2.12.63,2.65,1.08.47.4-4.01,10.37-4.46,11.64-.39.44-2-.86-2.75-.73Z"/>
      <path class="cls-1" d="M85.44,190.83l4.56-12c.66.42,2.12.63,2.65,1.08.47.4-4.11,10.32-4.46,11.64-.38.44-2.02-.86-2.76-.73Z"/>
      <path class="cls-1" d="M162.72.88l-4.57,11.75c-.13.12-3.25-.68-2.84-1.5L159.73.16c.46-.61,2.28.78,3,.73Z"/>
      <polygon class="cls-1" points="100.64 156.35 96.07 168.09 93.21 167.13 97.77 155.38 100.64 156.35"/>
      <path class="cls-1" d="M14.42,37.23c-.73-.17-2.44,1.05-2.79.59l-3.83-11.86,2.69-.94,3.93,12.22Z"/>
      <path class="cls-1" d="M124.92,94.49l-4.68,11.53c-.37.47-2.66-.61-2.74-.88-.26-.84,4.09-9.73,4.43-11.37.46-.61,2.28.78,3,.73Z"/>
      <path class="cls-1" d="M39.22,110.56l-2.91.83-3.94-11.98c.72.09,2.6-1.2,3.03-.57l3.82,11.72Z"/>
      <path class="cls-1" d="M22.53,60.95l-2.91.83-3.94-11.98c.72.09,2.6-1.2,3.03-.57l3.82,11.72Z"/>
      <path class="cls-1" d="M64.32,188.39l-3.95-11.61,2.8-1.16,4.03,11.66c0,.62-2.59,1.34-2.88,1.1Z"/>
    </g>
    <path class="cls-1" d="M76.05,209.23l4.56-12c.66.42,2.12.63,2.65,1.08.47.4-4.11,10.32-4.46,11.64-.38.44-2.02-.86-2.76-.73Z"/>
    <path class="cls-1" d="M74.7,211.4l-3.95-11.61,2.8-1.16,4.03,11.66c0,.62-2.59,1.34-2.88,1.1Z"/>
    <path class="cls-1" d="M117.48,113.13l-4.56,12-2.64-1.08,4.45-11.64c.38-.44,2.02.86,2.76.73Z"/>
  </g>
</svg>