<?xml version="1.0" encoding="UTF-8"?>
<svg id="Layer_2" data-name="Layer 2" xmlns="http://www.w3.org/2000/svg" viewBox="0 0 254.16 213.25">
  <defs>
    <style>
      .cls-1 {
        fill: #000000;
      }

      .cls-2 {
        fill: #000000;
      }
    </style>
  </defs>
  <g id="Layer_1-2" data-name="Layer 1">
    <g>
      <path class="cls-1" d="M249.84,4.96h4.32v.48c-1.14,1.9-1.29,4.91-2.21,6.79-.38.78-2.47-.02-3.05-.45-.15-.6,1.11-2.94,1.17-3.59.01-.1-.45-.09-.49-.26-.12-.57.54-2.15.25-2.97Z"/>
      <path class="cls-1" d="M3.12,4.96l2.16,6.96c-.67-.01-2.43.94-2.89.62-.54-.38-1.64-5.74-2.39-6.62v-.96h3.12Z"/>
      <path class="cls-1" d="M20.16,58.48c-.7-.05-2.59,1.27-3,.73l-3.46-11.36c.14-.5,2.65-1.31,2.97-.88l3.48,11.52Z"/>
      <path class="cls-1" d="M38.28,125.32l-3.59-11.42c-.03-.75,2.64-1.36,2.88-1.2.49.34,2.92,10.02,3.55,11.36-.02.94-2.21.74-2.83,1.27Z"/>
      <path class="cls-1" d="M234.01,58.47l3.59-11.75c.62.18,2.68.51,2.85,1.12.28,1.01-3.3,9.57-3.46,11.36-.23.35-.31.21-.6.14-.69-.17-1.58-.8-2.38-.87Z"/>
      <path class="cls-1" d="M211.69,128.55l3.59-11.75c.62.18,2.68.51,2.85,1.12.28,1.01-3.3,9.57-3.46,11.36-.23.35-.31.21-.6.14-.69-.17-1.58-.8-2.38-.87Z"/>
      <path class="cls-1" d="M191.31,192.16l3.59-11.75c.62.18,2.68.51,2.85,1.12.28,1.01-3.3,9.57-3.46,11.36-.23.35-.31.21-.6.14-.69-.17-1.58-.8-2.38-.87Z"/>
      <path class="cls-1" d="M12.72,35.2l-2.87.71-3.61-11.74c.72-.07,2.53-1.09,3-.49l3.48,11.52Z"/>
      <path class="cls-1" d="M161.29,122.12c-.84-.04-2.45,1.07-3.07.3l-2.88-11.29c.76.02,2.57-1.03,3.06-.32l2.89,11.32Z"/>
      <path class="cls-1" d="M33.72,101.08l-2.88.72-3.61-11.76c.66,0,2.62-.98,3-.49l3.48,11.52Z"/>
      <path class="cls-1" d="M60.6,195.4l-3.57-11.45c-.03-.73,2.63-1.33,2.85-1.17.49.34,2.92,10.02,3.55,11.36-.02.94-2.21.74-2.83,1.27Z"/>
      <path class="cls-1" d="M247.92,24.17l-3.48,11.52c-.62.76-2.19-.57-3-.48l3.48-11.52c.37-.5,2.34.48,3,.49Z"/>
      <polygon class="cls-1" points="170.52 156.38 173.53 167.82 170.61 168.69 167.48 157.29 170.52 156.38"/>
      <path class="cls-1" d="M203.28,164.32c-.67,1.37-3.12,11.39-3.62,11.75-.11.08-2.44-.47-2.63-.59-.59-.39,2.99-10.31,3.25-11.65.37-.5,2.34.48,3,.49Z"/>
      <path class="cls-1" d="M26.28,77.8l-2.88.72c-.06-1.52-3.94-11.24-3.58-11.74.11-.15,2.67-1.17,2.99-.51l3.47,11.52Z"/>
      <path class="cls-1" d="M225.6,94.25c-.68,1.37-3.11,11.39-3.61,11.76-.11.08-2.51-.51-2.64-.6-.59-.4,2.99-10.3,3.25-11.64.37-.5,2.34.48,3,.49Z"/>
      <path class="cls-1" d="M233.04,70.97l-3.48,11.52c-.26.37-2.44-.14-2.77-.36-.59-.4,3.04-10.29,3.25-11.65.38-.5,2.34.48,3,.49Z"/>
      <path class="cls-1" d="M210.72,141.04l-3.48,11.52c-.26.37-2.44-.14-2.77-.36-.59-.4,3.04-10.29,3.25-11.65.38-.5,2.34.48,3,.49Z"/>
      <path class="cls-1" d="M44.97,136.15c.5.32,2.94,10.07,3.62,11.39.06.53-.06.26-.33.37-.68.27-1.5.43-2.2.69l-3.96-11.6c.05-.28,2.46-1.1,2.87-.84Z"/>
      <path class="cls-1" d="M161.56,134.05c.71.03,2.42-.95,2.82-.36l2.86,10.83c.21.87-2.38,1.25-2.8,1.04-.53-.27-2.65-10.12-2.88-11.51Z"/>
      <path class="cls-1" d="M56.04,171.16l-2.88.72-3.6-11.76c.7.1,2.58-1.04,3-.49l3.48,11.52Z"/>
      <path class="cls-1" d="M94.13,110.15c.79-.23,2.69.7,2.43,1.79l-2.44,9.46c-.49.84-3.16.93-2.95-1.09.17-1.65,1.75-7.65,2.37-9.29.12-.31.21-.76.59-.87Z"/>
      <path class="cls-1" d="M79.56,166.98c-.38-.47,2.26-9.13,2.5-10.43.73-1.38,3.03-.91,2.9,1.03-.07,1.11-1.72,7.75-2.18,8.76-.56,1.23-2.79,1.17-3.23.64Z"/>
      <path class="cls-1" d="M179.47,191.08c-.66-.14-2.5.85-2.83.34l-2.91-11.01c.02-.54,2.61-1.32,2.88-.9l2.86,11.56Z"/>
      <path class="cls-2" d="M78.79,178.81c.37.39.29,1.43.24,1.96-.11,1.11-1.66,7.53-2.09,8.34-.22.41-.57.81-1.05.88-.57.08-2.51-.19-2.2-1.06l2.58-9.57c.29-.95,1.93-1.19,2.54-.55Z"/>
      <path class="cls-1" d="M88.06,144.81c-.41.28-2.35-.42-2.55-1.16-.45-1.64,2.06-7.89,2.33-9.94.73-1.23,3.07-.65,2.83.95-.47,1.21-2.18,9.86-2.61,10.15Z"/>
    </g>
    <path class="cls-1" d="M102.76,91.4c.31.34.32,1.03.26,1.47l-2.24,8.94c-.34,1.09-2.91.87-3.16.09-.39-1.24,2.65-9.1,2.58-11.07.68-.09,2.09.06,2.56.57Z"/>
    <path class="cls-1" d="M123.78.04c.79-.23,2.69.7,2.43,1.79l-2.44,9.46c-.49.84-3.16.93-2.95-1.09.17-1.65,1.75-7.65,2.37-9.29.12-.31.21-.76.59-.87Z"/>
    <path class="cls-1" d="M109.21,56.86c-.38-.47,2.26-9.13,2.5-10.43.73-1.38,3.03-.91,2.9,1.03-.07,1.11-1.72,7.75-2.18,8.76-.56,1.23-2.79,1.17-3.23.64Z"/>
    <path class="cls-2" d="M108.44,68.69c.37.39.29,1.43.24,1.96-.11,1.11-1.66,7.53-2.09,8.34-.22.41-.57.81-1.05.88-.57.08-2.51-.19-2.2-1.06l2.58-9.57c.29-.95,1.93-1.19,2.54-.55Z"/>
    <path class="cls-1" d="M117.71,34.69c-.41.28-2.35-.42-2.55-1.16-.45-1.64,2.06-7.89,2.33-9.94.73-1.23,3.07-.65,2.83.95-.47,1.21-2.18,9.86-2.61,10.15Z"/>
    <path class="cls-1" d="M130.55,11.66c-.84-.04-2.45,1.07-3.07.3l-2.88-11.29c.76.02,2.57-1.03,3.06-.32l2.89,11.32Z"/>
    <polygon class="cls-1" points="139.79 45.92 142.79 57.36 139.87 58.23 136.75 46.83 139.79 45.92"/>
    <path class="cls-1" d="M130.83,23.59c.71.03,2.42-.95,2.82-.36l2.86,10.83c.21.87-2.38,1.25-2.8,1.04-.53-.27-2.65-10.12-2.88-11.51Z"/>
    <path class="cls-1" d="M154.99,103.31l-3.02.79-2.98-11.56c.76.14,2.7-.88,3.07-.31l2.93,11.08Z"/>
    <path class="cls-1" d="M148.73,80.62c-.66-.14-2.5.85-2.83.34l-2.91-11.01c.02-.54,2.61-1.32,2.88-.9l2.86,11.56Z"/>
    <path class="cls-1" d="M71.02,212.3c-.41.28-2.35-.42-2.55-1.16-.45-1.64,2.06-7.89,2.33-9.94.73-1.23,3.07-.65,2.83.95-.47,1.21-2.18,9.86-2.61,10.15Z"/>
    <path class="cls-1" d="M183.68,212.29l3.59-11.75c.62.18,2.68.51,2.85,1.12.28,1.01-3.3,9.57-3.46,11.36-.23.35-.31.21-.6.14-.69-.17-1.58-.8-2.38-.87Z"/>
    <path class="cls-1" d="M186.55,211.28c-.66-.14-2.5.85-2.83.34l-2.91-11.01c.02-.54,2.61-1.32,2.88-.9l2.86,11.56Z"/>
    <path class="cls-1" d="M69.92,211.16l-2.88.72-3.61-11.76c.66,0,2.62-.98,3-.49l3.48,11.52Z"/>
  </g>
</svg>