<?xml version="1.0" encoding="UTF-8"?>
<svg id="Layer_2" data-name="Layer 2" xmlns="http://www.w3.org/2000/svg" viewBox="0 0 159.6 250.66">
  <defs>
    <style>
      .cls-1, .cls-2 {
        fill: #231f20;
      }

      .cls-3 {
        fill: #262324;
        stroke: #231f20;
        stroke-miterlimit: 10;
        stroke-width: 2.25px;
      }

      .cls-4 {
        fill: #010101;
      }

      .cls-2 {
        font-family: LexendDeca-Regular, 'Lexend Deca';
        font-size: 42px;
      }
    </style>
  </defs>
  <g id="Layer_1-2" data-name="Layer 1">
    <text class="cls-2" transform="translate(0 37.57)"><tspan x="0" y="0">1</tspan></text>
    <path class="cls-1" d="M14.19,163.47h6.83s-9.08,15.77-9.08,15.77l-9.13-15.75h6.82s-.13-110.61-.13-110.61h4.57s.13,110.59.13,110.59ZM57.27,20.43l83.94-.13v-6.83s15.77,9.08,15.77,9.08l-15.75,9.13v-6.82s-83.95.13-83.95.13v-4.57ZM79.28,116.07l20.92-.09-.03-6.83,15.81,9.04-15.73,9.17-.03-6.82-20.92.09-.02-4.56Z"/>
    <text class="cls-2" transform="translate(29.19 35.7)"><tspan x="0" y="0">2</tspan></text>
    <path class="cls-3" d="M69.39,117.34c-.05.06-.03.19.08.28.32.25.9.45,1.33.8,3.31,2.73,3.48,8.09.81,11.32-3.26,3.96-9.63,3.53-12.95-.13-.46-.51-2.24-2.55-.91-2.94.97-.29,1.59,1.28,2.19,1.93,1.18,1.28,2.91,2.2,4.66,2.35,8.86.79,9.82-11.92,1.59-12.66-.54-.05-2.49.18-2.75-.23-1.18-1.87,2.78-1.32,3.55-1.43,2.13-.29,4.07-2.35,4.28-4.48.65-6.44-6.89-9.01-10.78-4.18-.38.47-1.3,2.38-1.58,2.47-.52.16-1.11-.15-1.11-.72,0-.19.79-1.73.96-2,2.42-3.86,8.21-5.09,11.71-1.91,2.92,2.65,3.26,7.94.27,10.65-.27.24-1.3.82-1.35.88Z"/>
    <path class="cls-4" d="M37.79,52.97v85.89h99.34c3.75,0,4.56,8.5,2.26,10.76-.2.2-4.97,2.23-5.26,2.23H37.79v95.38c0,2.51-11.76,7.56-13-2.98l.54-200.24,2.5-2.5,126.32-.57c8.87,1.15,4.93,12.04,1.94,12.04H37.79Z"/>
  </g>
</svg>