<?xml version="1.0" encoding="UTF-8"?>
<svg id="Layer_2" data-name="Layer 2" xmlns="http://www.w3.org/2000/svg" viewBox="0 0 204.13 238.84">
  <defs>
    <style>
      .cls-1, .cls-2 {
        fill: #231f20;
      }

      .cls-3 {
        fill: #262324;
        stroke: #231f20;
        stroke-miterlimit: 10;
        stroke-width: 2.25px;
      }

      .cls-4 {
        fill: #010101;
      }

      .cls-2 {
        font-family: LexendDeca-Regular, 'Lexend Deca';
        font-size: 42px;
      }
    </style>
  </defs>
  <g id="Layer_1-2" data-name="Layer 1">
    <path class="cls-1" d="M13.24,155.5h6.82s-9.08,15.77-9.08,15.77l-9.13-15.75h6.83s-.13-110.61-.13-110.61h4.57s.13,110.59.13,110.59ZM79.08,108.1l51.3-.11-.02-6.83,15.79,9.07-15.75,9.14v-6.82s-51.31.11-51.31.11v-4.56ZM202.67,155.49l-9.08,15.78-9.13-15.75h6.83s-.13-110.61-.13-110.61h4.57s.13,110.59.13,110.59h6.82Z"/>
    <text class="cls-2" transform="translate(0 35.7)"><tspan x="0" y="0">1</tspan></text>
    <text class="cls-2" transform="translate(181.12 35.7)"><tspan x="0" y="0">2</tspan></text>
    <path class="cls-3" d="M66.28,107.15c-.05.06-.03.19.08.28.32.25.9.45,1.33.8,3.31,2.73,3.48,8.09.81,11.32-3.26,3.96-9.63,3.53-12.95-.13-.46-.51-2.24-2.55-.91-2.94.97-.29,1.59,1.28,2.19,1.93,1.18,1.28,2.91,2.2,4.66,2.35,8.86.79,9.82-11.92,1.59-12.66-.54-.05-2.49.18-2.75-.23-1.18-1.87,2.78-1.32,3.55-1.43,2.13-.29,4.07-2.35,4.28-4.48.65-6.44-6.89-9.01-10.78-4.18-.38.47-1.3,2.38-1.58,2.47-.52.16-1.11-.15-1.11-.72,0-.19.79-1.73.96-2,2.42-3.86,8.21-5.09,11.71-1.91,2.92,2.65,3.26,7.94.27,10.65-.27.24-1.3.82-1.35.88Z"/>
    <path class="cls-4" d="M35.98,128.49h129.79V34.11c0-.73,2.55-3.97,3.69-4.32,6.11-1.85,9.28,2.65,9.34,8.27l-.03,193.83c-1.24,10.8-13,6.71-13,1.98v-93.38H35.98v95.38c0,1.95-10.82,6.92-12-2.98l-.05-196.83c1.02-10.59,12.04-5.69,12.04-2.93v95.38Z"/>
  </g>
</svg>