<?xml version="1.0" encoding="UTF-8"?>
<svg id="Layer_2" data-name="Layer 2" xmlns="http://www.w3.org/2000/svg" viewBox="0 0 198.76 247.08">
  <defs>
    <style>
      .cls-1, .cls-2 {
        fill: #231f20;
      }

      .cls-3 {
        fill: #262324;
        stroke: #231f20;
        stroke-miterlimit: 10;
        stroke-width: 2.25px;
      }

      .cls-2 {
        font-family: LexendDeca-Regular, 'Lexend Deca';
        font-size: 42px;
      }
    </style>
  </defs>
  <g id="Layer_1-2" data-name="Layer 1">
    <path class="cls-1" d="M11.39,156h6.83s-9.09,15.77-9.09,15.77L0,156.01h6.82s-.13-110.61-.13-110.61h4.57s.13,110.59.13,110.59ZM106.44,106.43l5.67-3.8,1.23,18.17-16.35-8.01,5.67-3.8-39.91-59.44,3.79-2.54,39.91,59.43ZM187.26,87.74h-6.82s9.08-15.77,9.08-15.77l9.13,15.75h-6.83s.13,110.61.13,110.61h-4.57s-.13-110.59-.13-110.59Z"/>
    <text class="cls-2" transform="translate(0 35.7)"><tspan x="0" y="0">1</tspan></text>
    <text class="cls-2" transform="translate(42.12 38.04)"><tspan x="0" y="0">2</tspan></text>
    <path class="cls-3" d="M193.56,221.13c-.05.06-.03.19.08.28.32.25.9.45,1.33.8,3.31,2.73,3.48,8.09.81,11.32-3.26,3.96-9.63,3.53-12.95-.13-.46-.51-2.24-2.55-.91-2.94.97-.29,1.59,1.28,2.19,1.93,1.18,1.28,2.91,2.2,4.66,2.35,8.86.79,9.82-11.92,1.59-12.66-.54-.05-2.49.18-2.75-.23-1.18-1.87,2.78-1.32,3.55-1.43,2.13-.29,4.07-2.35,4.28-4.48.65-6.44-6.89-9.01-10.78-4.18-.38.47-1.3,2.38-1.58,2.47-.52.16-1.11-.15-1.11-.72,0-.19.79-1.73.96-2,2.42-3.86,8.21-5.09,11.71-1.91,2.92,2.65,3.26,7.94.27,10.65-.27.24-1.3.82-1.35.88Z"/>
    <g id="Layer_1-2" data-name="Layer 1-2">
      <g>
        <path class="cls-1" d="M166.44,245.88c-.86,0-1.67-.42-2.16-1.12L33.12,59.25c.07,2.91.15,6.15.23,9.72.09,4.5.14,9.21.14,13.99v160.28c0,1.46-1.19,2.65-2.65,2.65h-3.35c-1.46,0-2.65-1.19-2.65-2.65V46.66c0-1.46,1.19-2.65,2.65-2.65h4.05c.86,0,1.67.42,2.16,1.12l130.62,184.74c-.08-1.75-.11-3.85-.11-6.4,0-2.68-.05-6.08-.14-10.38-.09-4.12-.14-9.12-.14-15.27V46.66c0-1.46,1.19-2.65,2.65-2.65h3.35c1.46,0,2.65,1.19,2.65,2.65v196.58c0,1.46-1.19,2.65-2.65,2.65h-3.49Z"/>
        <path class="cls-1" d="M169.92,45.2c.81,0,1.46.65,1.46,1.46v196.58c0,.81-.65,1.46-1.46,1.46h-3.48c-.47,0-.92-.23-1.19-.62L31.83,55.37c-.05-1.84-.07-3.42-.09-4.74,0-.8-.66-1.45-1.46-1.45-1.18,0-1.88,1.34-1.19,2.3l2.74,3.88c.01.57.03,1.17.05,1.8.09,3.42.19,7.37.28,11.83.09,4.47.14,9.12.14,13.97v160.28c0,.81-.65,1.46-1.46,1.46h-3.35c-.81,0-1.46-.65-1.46-1.46V46.66c0-.81.65-1.46,1.46-1.46h4.05c.47,0,.92.23,1.19.62l133.04,188.17c.06.64.12,1.26.19,1.88h1.14l-1.33-1.88c-.1-1.14-.18-2.32-.24-3.54-.1-1.9-.14-4.23-.14-6.98s-.05-6.22-.14-10.4c-.1-4.18-.14-9.26-.14-15.25V46.66c0-.81.65-1.46,1.46-1.46h3.35M169.92,42.82h-3.35c-2.12,0-3.84,1.72-3.84,3.84v151.16c0,6.18.05,11.19.14,15.3.1,4.27.14,7.65.14,10.35,0,.89,0,1.73,0,2.53L34.68,44.44c-.72-1.02-1.89-1.62-3.13-1.62h-4.05c-2.12,0-3.84,1.72-3.84,3.84v196.58c0,2.12,1.72,3.84,3.84,3.84h3.35c2.12,0,3.84-1.72,3.84-3.84V82.96c0-4.79-.05-9.51-.14-14.02-.05-2.05-.09-3.99-.13-5.82l128.9,182.33c.72,1.02,1.89,1.62,3.13,1.62h3.48c2.12,0,3.84-1.72,3.84-3.84V46.66c0-2.12-1.72-3.84-3.84-3.84h0Z"/>
      </g>
    </g>
  </g>
</svg>