<?xml version="1.0" encoding="UTF-8"?>
<svg id="Layer_2" data-name="Layer 2" xmlns="http://www.w3.org/2000/svg" viewBox="0 0 207.79 254.7">
  <defs>
    <style>
      .cls-1, .cls-2 {
        fill: #231f20;
      }

      .cls-2 {
        font-family: LexendDeca-Regular, 'Lexend Deca';
        font-size: 42px;
      }
    </style>
  </defs>
  <g id="Layer_1-2" data-name="Layer 1">
    <path class="cls-1" d="M11.13,151.49l6.65-1.48-5.46,17.37-12.31-13.42,6.63-1.47c-4.39-29.92,4.71-61.52,25.25-87.12,13.96-17.4,31.47-29.05,44.6-29.67l.21,4.56c-11.88.57-28.07,11.54-41.25,27.97-9.39,11.71-30.13,42.91-24.32,83.27Z"/>
    <text class="cls-2" transform="translate(80.67 35.7)"><tspan x="0" y="0">1</tspan></text>
    <g id="Layer_1-2" data-name="Layer 1-2">
      <g>
        <path class="cls-1" d="M114.68,253.54c-13.3,0-25.72-2.59-36.91-7.71-11.19-5.12-21.05-12.55-29.3-22.09-8.25-9.53-14.67-20.88-19.09-33.73-4.42-12.83-6.66-27.17-6.66-42.64s2.24-29.86,6.66-42.79c4.42-12.94,10.85-24.34,19.09-33.87,8.25-9.54,18.11-17.02,29.29-22.23,11.2-5.22,23.62-7.86,36.92-7.86s25.72,2.64,36.92,7.86c11.18,5.21,21.04,12.64,29.29,22.08,8.24,9.43,14.67,20.78,19.1,33.73,4.42,12.94,6.66,27.43,6.66,43.08s-2.24,29.8-6.66,42.64c-4.43,12.86-10.85,24.2-19.09,33.73-8.25,9.54-18.11,16.97-29.3,22.09s-23.61,7.71-36.91,7.71h-.01ZM114.68,49.38c-11.91,0-23.11,2.42-33.3,7.2-10.18,4.78-19.11,11.67-26.53,20.47-7.44,8.82-13.32,19.28-17.48,31.08-4.16,11.81-6.27,25.02-6.27,39.25s2.11,27.2,6.27,39.11c4.16,11.9,10.03,22.3,17.47,30.92,7.43,8.61,16.36,15.4,26.54,20.18s21.38,7.2,33.3,7.2,23.34-2.42,33.43-7.2c10.1-4.78,19.03-11.57,26.55-20.19,7.52-8.62,13.39-19.02,17.46-30.91,4.08-11.92,6.14-25.08,6.14-39.11s-2.07-27.43-6.14-39.26c-4.07-11.8-9.95-22.25-17.47-31.07-7.51-8.8-16.44-15.69-26.54-20.47s-21.34-7.2-33.43-7.2h0Z"/>
        <path class="cls-1" d="M114.68,41.79c13.2,0,25.34,2.59,36.43,7.75,11.09,5.17,20.72,12.43,28.91,21.79,8.18,9.36,14.47,20.48,18.87,33.35,4.4,12.87,6.6,27.11,6.6,42.7s-2.2,29.5-6.6,42.27c-4.4,12.77-10.69,23.89-18.87,33.35-8.18,9.46-17.82,16.72-28.91,21.79s-23.23,7.6-36.43,7.6-25.34-2.54-36.43-7.6c-11.09-5.07-20.72-12.33-28.91-21.79-8.18-9.46-14.48-20.57-18.87-33.35-4.4-12.77-6.6-26.86-6.6-42.27s2.2-29.54,6.6-42.41c4.4-12.87,10.69-24.03,18.87-33.49,8.18-9.46,17.82-16.77,28.91-21.94,11.09-5.16,23.23-7.75,36.43-7.75M114.68,245.95c12.32,0,23.63-2.44,33.92-7.31,10.3-4.87,19.27-11.7,26.93-20.47,7.66-8.78,13.55-19.2,17.69-31.3,4.13-12.09,6.2-25.25,6.2-39.49s-2.07-27.64-6.2-39.63c-4.14-11.99-10.03-22.47-17.69-31.44-7.65-8.97-16.63-15.89-26.93-20.77-10.3-4.87-21.6-7.31-33.92-7.31s-23.41,2.44-33.79,7.31c-10.39,4.88-19.36,11.8-26.93,20.77s-13.46,19.45-17.69,31.44c-4.22,11.99-6.33,25.21-6.33,39.63s2.11,27.4,6.33,39.49c4.22,12.09,10.12,22.52,17.69,31.3,7.56,8.78,16.54,15.6,26.93,20.47,10.38,4.88,21.65,7.31,33.79,7.31M114.68,39.47c-13.47,0-26.06,2.68-37.41,7.97-11.33,5.28-21.32,12.86-29.68,22.52-8.35,9.65-14.85,21.18-19.32,34.26-4.46,13.04-6.72,27.56-6.72,43.16s2.26,30.07,6.73,43.02c4.47,12.99,10.97,24.46,19.31,34.11,8.36,9.67,18.35,17.2,29.69,22.38,11.34,5.19,23.92,7.81,37.39,7.81s26.05-2.63,37.39-7.81,21.33-12.71,29.69-22.38c8.34-9.63,14.83-21.11,19.31-34.11,4.46-12.96,6.73-27.44,6.73-43.02s-2.26-30.39-6.72-43.45c-4.48-13.1-10.98-24.58-19.32-34.12-8.36-9.56-18.34-17.08-29.67-22.37-11.35-5.29-23.93-7.97-37.4-7.97h0ZM114.68,243.64c-11.75,0-22.78-2.39-32.81-7.09-10.04-4.71-18.84-11.4-26.16-19.89-7.34-8.51-13.15-18.79-17.26-30.55-4.12-11.79-6.21-24.81-6.21-38.72s2.09-27.18,6.2-38.86c4.11-11.67,9.92-22.01,17.27-30.72,7.31-8.67,16.11-15.45,26.14-20.16,10.03-4.71,21.07-7.09,32.81-7.09s22.99,2.39,32.93,7.09c9.95,4.71,18.75,11.5,26.16,20.18,7.43,8.71,13.24,19.03,17.26,30.7,4.03,11.7,6.08,24.78,6.08,38.88s-2.05,26.94-6.08,38.74c-4.02,11.75-9.82,22.02-17.24,30.52-7.41,8.5-16.22,15.19-26.17,19.9-9.93,4.7-21.01,7.09-32.93,7.09h0v-.02Z"/>
      </g>
    </g>
  </g>
</svg>