<?xml version="1.0" encoding="UTF-8"?>
<svg id="Layer_2" data-name="Layer 2" xmlns="http://www.w3.org/2000/svg" viewBox="0 0 197.88 243.41">
  <defs>
    <style>
      .cls-1, .cls-2 {
        fill: #231f20;
      }

      .cls-2 {
        font-family: LexendDeca-Regular, 'Lexend Deca';
        font-size: 42px;
      }
    </style>
  </defs>
  <g id="Layer_1-2" data-name="Layer 1">
    <path class="cls-1" d="M10.93,155.72l6.53-1.94-4.24,17.71-13.22-12.53,6.51-1.93c-6.47-29.54.41-61.7,19.11-88.67,12.71-18.33,29.37-31.17,42.42-32.71l.53,4.53c-11.81,1.39-27.2,13.47-39.2,30.78-8.55,12.33-27.06,44.91-18.45,84.76ZM156.23,181.04l-10.09-9.43,3.12-3.34,10.09,9.43,4.66-4.99,5.3,17.42-17.74-4.11,4.66-4.99Z"/>
    <text class="cls-2" transform="translate(74.77 35.7)"><tspan x="0" y="0">1</tspan></text>
    <text class="cls-2" transform="translate(120.33 164.5)"><tspan x="0" y="0">2</tspan></text>
    <g id="Layer_1-2" data-name="Layer 1-2">
      <g>
        <path class="cls-1" d="M110.46,241.1c-12.25,0-23.68-2.4-33.98-7.14s-19.38-11.62-26.97-20.45c-7.59-8.82-13.5-19.32-17.58-31.22-4.07-11.87-6.13-25.15-6.13-39.47s2.06-27.64,6.13-39.6c4.07-11.98,9.98-22.52,17.58-31.35s16.67-15.75,26.96-20.58c10.31-4.83,21.74-7.28,33.99-7.28s23.68,2.45,33.99,7.28c10.3,4.83,19.37,11.7,26.96,20.44,7.59,8.73,13.5,19.23,17.58,31.22,4.07,11.98,6.13,25.39,6.13,39.87s-2.06,27.58-6.13,39.47c-4.08,11.9-9.99,22.41-17.58,31.22-4.13,4.8-8.78,9.09-13.84,12.75-.04.15-.12.29-.23.41-.3.33-.55.71-.74,1.14-.14.31-.42.54-.75.61-1.11.24-2.14.76-2.99,1.49-.2.17-.44.26-.7.26h-.14c-.09,0-.17-.03-.25-.07-2.42,1.44-4.88,2.74-7.32,3.86-10.3,4.74-21.73,7.14-33.98,7.14h-.01ZM110.46,52.11c-10.96,0-21.27,2.24-30.65,6.67-9.37,4.43-17.59,10.8-24.42,18.94-6.85,8.16-12.26,17.84-16.09,28.77-3.83,10.94-5.77,23.16-5.77,36.33s1.94,25.18,5.77,36.2c3.83,11.01,9.24,20.64,16.08,28.62,6.84,7.97,15.06,14.26,24.43,18.68,9.36,4.42,19.68,6.67,30.65,6.67s21.48-2.24,30.77-6.67c2.02-.96,4.02-2.03,5.96-3.18,0-.05.02-.11.04-.16.09-.31.32-.56.61-.68,1.63-.68,3.02-1.61,4.13-2.77.2-.21.48-.33.77-.33h.09c.08,0,.16.02.23.04,4.59-3.35,8.83-7.26,12.61-11.61,6.92-7.98,12.33-17.61,16.08-28.61,3.75-11.03,5.65-23.22,5.65-36.21s-1.9-25.4-5.65-36.34c-3.75-10.92-9.16-20.6-16.08-28.76-6.92-8.15-15.14-14.52-24.43-18.95-9.29-4.42-19.64-6.66-30.77-6.66h0Z"/>
        <path class="cls-1" d="M110.46,45.09c12.15,0,23.33,2.39,33.53,7.18,10.21,4.78,19.08,11.51,26.61,20.17,7.53,8.66,13.32,18.95,17.37,30.87,4.05,11.91,6.07,25.09,6.07,39.53s-2.03,27.3-6.07,39.12c-4.05,11.82-9.84,22.11-17.37,30.87-4.29,4.98-9.02,9.28-14.17,12.95l.12.18c-.38.41-.69.89-.93,1.43-1.28.28-2.47.87-3.46,1.73l-.24-.35c-2.55,1.55-5.18,2.97-7.93,4.23-10.21,4.69-21.38,7.04-33.53,7.04s-23.33-2.35-33.53-7.04c-10.21-4.69-19.08-11.41-26.61-20.17-7.53-8.75-13.33-19.04-17.37-30.87-4.05-11.82-6.07-24.86-6.07-39.12s2.02-27.35,6.07-39.26,9.84-22.24,17.37-31c7.53-8.75,16.4-15.52,26.61-20.31,10.21-4.78,21.38-7.18,33.53-7.18M110.46,234.07c11.34,0,21.75-2.25,31.23-6.77,2.33-1.11,4.59-2.33,6.78-3.66l-.22-.33c1.69-.71,3.23-1.71,4.49-3.02l.24.36c4.9-3.5,9.41-7.58,13.5-12.29,7.05-8.12,12.47-17.78,16.28-28.97,3.8-11.19,5.71-23.37,5.71-36.55s-1.91-25.59-5.71-36.69c-3.81-11.1-9.23-20.8-16.28-29.11-7.05-8.3-15.31-14.71-24.79-19.22s-19.89-6.77-31.23-6.77-21.55,2.26-31.1,6.77c-9.56,4.51-17.82,10.92-24.79,19.22-6.97,8.3-12.39,18.01-16.28,29.11-3.89,11.1-5.83,23.33-5.83,36.69s1.94,25.36,5.83,36.55,9.31,20.85,16.28,28.97c6.96,8.12,15.23,14.44,24.79,18.95,9.56,4.51,19.93,6.77,31.1,6.77M110.46,42.95c-12.4,0-23.99,2.48-34.44,7.38-10.43,4.89-19.63,11.91-27.32,20.85-7.68,8.93-13.66,19.6-17.78,31.71-4.11,12.07-6.19,25.51-6.19,39.94s2.08,27.83,6.19,39.82c4.12,12.02,10.1,22.64,17.78,31.57,7.7,8.95,16.89,15.92,27.34,20.72,10.44,4.8,22.03,7.23,34.43,7.23s23.98-2.43,34.43-7.23c2.36-1.08,4.73-2.33,7.06-3.7.07,0,.14,0,.21,0,.51,0,1.01-.18,1.4-.52.72-.62,1.59-1.06,2.52-1.26.66-.14,1.22-.6,1.5-1.21.15-.33.33-.61.56-.86.12-.14.23-.28.31-.44,5.03-3.67,9.67-7.95,13.78-12.74,7.67-8.92,13.65-19.54,17.78-31.57,4.11-12,6.19-25.39,6.19-39.82s-2.08-28.13-6.19-40.22c-4.12-12.12-10.11-22.75-17.79-31.58-7.69-8.85-16.88-15.81-27.31-20.7-10.47-4.9-22.06-7.38-34.46-7.38h0ZM110.46,231.93c-10.81,0-20.97-2.21-30.19-6.56-9.24-4.36-17.34-10.55-24.08-18.41-6.76-7.88-12.1-17.39-15.89-28.28-3.79-10.91-5.71-22.97-5.71-35.85s1.92-25.16,5.71-35.98c3.79-10.81,9.14-20.37,15.9-28.44,6.73-8.03,14.83-14.3,24.06-18.66s19.39-6.56,30.19-6.56,21.16,2.21,30.31,6.56c9.16,4.36,17.26,10.64,24.07,18.68,6.84,8.06,12.18,17.62,15.89,28.42,3.71,10.83,5.59,22.94,5.59,35.99s-1.88,24.94-5.6,35.86c-3.7,10.88-9.04,20.38-15.87,28.26-3.63,4.18-7.69,7.95-12.09,11.2h-.04c-.58,0-1.14.24-1.54.66-1.01,1.05-2.28,1.9-3.77,2.53-.51.21-.92.62-1.14,1.12-1.8,1.05-3.65,2.03-5.51,2.92-9.14,4.35-19.34,6.56-30.31,6.56h0l.02-.02Z"/>
      </g>
      <g>
        <path class="cls-1" d="M192.42,241.9c-1.08,0-2.09-.36-2.83-1.02l-18.34-16.32c-.07,0-.14,0-.21,0-.19,0-.38-.04-.56-.11-.39-.15-.69-.46-.84-.85-.05-.12-.1-.21-.18-.27-.59-.51-1.14-.93-1.74-1.33-.2-.13-.36-.31-.48-.51s-.28-.4-.49-.58c-.24-.21-.41-.49-.48-.79l-36.93-32.86c-.8-.71-1.2-1.69-1.11-2.68.1-1.03.72-1.96,1.7-2.55.66-.39,1.44-.6,2.25-.6,1.07,0,2.1.37,2.83,1.02l37.49,33.39c.33.04.65.2.9.46.7.75,1.55,1.45,2.52,2.08.07.04.13.09.19.15.27.25.55.49.83.72.32.26.51.63.55,1.03l17.81,15.86c.75.67,1.15,1.59,1.09,2.54-.06.96-.6,1.86-1.47,2.45-.74.5-1.61.76-2.5.76h0Z"/>
        <path class="cls-1" d="M132.19,182.94c.68,0,1.35.22,1.83.65l38.05,33.89c.08-.05.16-.09.23-.14.79.84,1.74,1.62,2.79,2.31.29.27.59.52.9.78-.12.07-.24.15-.36.22l18.67,16.63c.87.78.77,1.95-.23,2.62l-.05.04c-.46.31-1.03.47-1.6.47-.68,0-1.35-.22-1.83-.64l-19.03-16.93c-.17.08-.35.16-.52.25-.12-.32-.31-.61-.59-.86-.63-.55-1.24-1.02-1.9-1.45-.2-.35-.48-.69-.81-.98.09-.04.18-.08.27-.13l-37.66-33.51c-.95-.85-.79-2.14.36-2.82.44-.26.96-.39,1.48-.39M132.19,179.94h0c-1.08,0-2.12.28-3.02.81-1.4.83-2.28,2.18-2.43,3.7-.14,1.48.44,2.91,1.6,3.95l36.63,32.6c.18.4.44.77.78,1.07.11.1.16.17.16.18.23.42.56.77.96,1.03.49.32.95.67,1.43,1.07.32.69.9,1.23,1.61,1.52.24.1.49.16.74.19l17.93,15.95c1.02.9,2.38,1.4,3.83,1.4,1.2,0,2.34-.34,3.29-.99l.05-.04c1.26-.85,2.03-2.16,2.12-3.59.09-1.41-.49-2.77-1.59-3.75l-17.45-15.54c-.18-.54-.5-1.02-.95-1.39-.27-.22-.52-.44-.78-.67-.12-.11-.25-.21-.38-.29-.87-.57-1.63-1.19-2.25-1.85-.36-.38-.8-.65-1.28-.81l-37.21-33.14c-1.02-.91-2.38-1.4-3.83-1.4h.04Z"/>
      </g>
    </g>
  </g>
</svg>