<?xml version="1.0" encoding="UTF-8"?>
<svg id="Layer_2" data-name="Layer 2" xmlns="http://www.w3.org/2000/svg" viewBox="0 0 173.3 215.1">
  <defs>
    <style>
      .cls-1 {
        fill: #252223;
      }

      .cls-2 {
        fill: #282526;
      }
    </style>
  </defs>
  <g id="Layer_1-2" data-name="Layer 1">
    <g>
      <path class="cls-1" d="M90.96,0c3.74,1.67,4.54,6.04,5.94,9.54,26.42,65.83,50.47,132.66,76.32,198.72.99,6.69-8.46,9.45-11.67,3.75l-25.15-65.55c-1.91-2.09-1.96-5.88-2.78-8.76-1.08-3.77-2.63-7.52-4.86-10.74L87.54,18.9l-1.26-2.58-44.98,117.52c-.23.38.5.3.46.44-3.42,5.17-6.4,10.91-7.08,17.17l-22.95,60.33c-2.83,4.9-9.46,4.19-11.73-.81v-3.84L77.58,5.7c.79-2.61,2.08-4.41,4.5-5.7h8.88Z"/>
      <path class="cls-2" d="M133.79,103.83c-1.93.15-3.9.44-5.97.41-29.4-.34-58.87-.28-88.3-.23.02,4.2.02,8.4-.02,12.61,30.8-.13,61.69-.22,92.7-.25-.44.18.18.56.55.59h.36c-.31-4.34.07-8.73.68-13.12Z"/>
    </g>
  </g>
</svg>