<svg xmlns="http://www.w3.org/2000/svg" viewBox="0 0 136.86 215.25"><defs><style>.cls-1{fill:#404040;}.cls-2{fill:#848484;}.cls-3{fill:#c3c3c3;}.cls-4{fill:#010101;}</style></defs><title>Asset 1</title><g id="Layer_2" data-name="Layer 2"><g id="Layer_1-2" data-name="Layer 1"><path class="cls-1" d="M19,213.07c.07-1-.42-2.27.18-2.88s2-.21,3-.22c2.55,0,5.1,0,7.65,0,.67,0,.93.18.9.87s0,1.51,0,2.26Z"/><path class="cls-1" d="M56.19,2.87c-.22.45-.62.24-.93.24-3.38,0-6.75,0-10.12,0-.9,0-1.22-.23-1.13-1.13a16.9,16.9,0,0,0,0-2H56.2V.24a2.36,2.36,0,0,1-1.71.37c-2.83,0-5.65,0-8.48,0-.49,0-1.08-.14-1.33.52s.11,1.32,1.09,1.34c2.91,0,5.81,0,8.72,0A2.4,2.4,0,0,1,56.19,2.87Z"/><path class="cls-1" d="M.32,193.84l-.25,0V182.12c1,.06,2.27-.42,2.89.18s.2,2,.22,3c0,2.51,0,5,0,7.53,0,.34.28.8-.23,1a2.3,2.3,0,0,1-.36-1.71c0-2.68,0-5.36,0-8,0-.48.12-1.08-.57-1.28S.71,182.94.7,184c0,2.72,0,5.44,0,8.16A2.3,2.3,0,0,1,.32,193.84Z"/><path class="cls-1" d="M2.94,65.78c.47.2.24.62.24.92,0,3.23,0,6.45,0,9.68,0,.87-.18,1.25-1.11,1.14a17.17,17.17,0,0,0-2,0V65.75l.25,0A2.33,2.33,0,0,1,.68,67.5c0,2.67,0,5.35,0,8,0,.49-.12,1.08.57,1.29s1.28-.14,1.29-1.17c0-2.72,0-5.44,0-8.15A2.33,2.33,0,0,1,2.94,65.78Z"/><path class="cls-1" d="M.07,112.3l.25,0a2.33,2.33,0,0,1,.36,1.72c0,2.67,0,5.35,0,8,0,.49-.12,1.08.57,1.29s1.28-.14,1.29-1.17c0-2.72,0-5.44,0-8.15a2.33,2.33,0,0,1,.36-1.72c.47.2.24.62.24.92,0,3.23,0,6.45,0,9.68,0,.87-.18,1.25-1.11,1.14a17.17,17.17,0,0,0-2,0Z"/><path class="cls-1" d="M.07,89l.25,0a2.3,2.3,0,0,1,.36,1.71c0,2.68,0,5.36,0,8,0,.48-.12,1.08.57,1.28s1.28-.13,1.29-1.17c0-2.71,0-5.43,0-8.15a2.3,2.3,0,0,1,.36-1.71c.47.2.24.61.24.92,0,3.22,0,6.45,0,9.68,0,.87-.18,1.24-1.11,1.13a19.62,19.62,0,0,0-2,0Z"/><path class="cls-1" d="M2.94,42.51c.47.2.24.61.24.92,0,3.22,0,6.45,0,9.68,0,.87-.18,1.24-1.11,1.13a19.62,19.62,0,0,0-2,0V42.47l.25,0a2.3,2.3,0,0,1,.36,1.71c0,2.68,0,5.36,0,8,0,.48-.12,1.08.57,1.28s1.28-.13,1.29-1.17c0-2.71,0-5.43,0-8.15A2.3,2.3,0,0,1,2.94,42.51Z"/><path class="cls-1" d="M.32,147.29l-.25,0V135.57c1,.06,2.27-.42,2.89.18s.2,2,.22,3c0,2.51,0,5,0,7.53,0,.34.28.8-.23,1a2.3,2.3,0,0,1-.36-1.71c0-2.68,0-5.36,0-8,0-.48.12-1.08-.57-1.28s-1.28.13-1.29,1.16c0,2.72,0,5.44,0,8.16A2.3,2.3,0,0,1,.32,147.29Z"/><path class="cls-1" d="M.07,158.85c1,.06,2.27-.42,2.89.17s.2,2,.22,3c0,2.51,0,5,0,7.53,0,.34.28.8-.23,1a2.34,2.34,0,0,1-.36-1.72c0-2.68,0-5.35,0-8,0-.49.12-1.08-.57-1.29S.71,159.67.7,160.7c0,2.72,0,5.43,0,8.15a2.34,2.34,0,0,1-.36,1.72l-.25,0Z"/><path class="cls-1" d="M3,19.21c.44.21.23.62.23.93,0,3.23,0,6.46,0,9.69C3.22,30.7,3,31.08,2.1,31a17.17,17.17,0,0,0-2,0V19.2H.32a2.4,2.4,0,0,1,.36,1.71c0,2.67,0,5.33,0,8,0,.49-.13,1.08.52,1.33s1.33-.11,1.34-1.09c0-2.75,0-5.5,0-8.24A2.36,2.36,0,0,1,3,19.21Z"/><path class="cls-1" d="M65.07,213.07l0-.24a2.38,2.38,0,0,1,1.7-.37c2.63,0,5.26,0,7.89,0,.45,0,1,.08,1.21-.52s-.1-1.3-1-1.34c-1.43-.06-2.87,0-4.3,0s-2.71,0-4.07,0a2.06,2.06,0,0,1-1.46-.37c.21-.45.62-.23.93-.23,3.15,0,6.3,0,9.44,0,.87,0,1.25.18,1.14,1.11a17.19,17.19,0,0,0,0,2Z"/><path class="cls-1" d="M3.22,3.15c0,1.23-.05,2.47,0,3.7,0,.57-.17.79-.75.78-.79,0-1.59,0-2.38,0C.07,5.32.06,3,.09.6.09.42-.22,0,.31,0A2.54,2.54,0,0,1,.54.34,52.7,52.7,0,0,1,.67,5.82c0,.46-.07,1,.54,1.19.76.27,1.27-.09,1.38-.93.14-1-.33-2.07.43-3Z"/><path class="cls-1" d="M.07,205.4c1,.09,2.35-.46,2.94.24s.15,1.88.18,2.87l0,1.42L3,210c-.76-.9-.29-2-.43-3-.11-.84-.61-1.19-1.38-.93-.55.19-.53.65-.53,1.08,0,1.35,0,2.7,0,4.05a4.68,4.68,0,0,1-.12,1.54,1.56,1.56,0,0,1-.23.34c-.53,0-.22-.42-.22-.6C.06,210.11.07,207.76.07,205.4Z"/><path class="cls-1" d="M.31,213.07v-.26a2.08,2.08,0,0,1,1.48-.33H5.73c.7,0,1.41,0,1.4-1s-.71-.89-1.35-.91-1,0-1.55,0-.9,0-1.1-.51l.09-.09c1.22,0,2.45,0,3.67,0,.68,0,.91.21.87.88s0,1.5,0,2.25Z"/><path class="cls-1" d="M.32.26V0H7.75c-.1,1,.45,2.35-.25,2.94s-1.88.15-2.86.18l-1.42,0-.09-.09c.2-.53.68-.48,1.1-.52s1.12,0,1.67,0,1.22,0,1.23-.92-.59-1-1.28-1c-1.35,0-2.7,0-4,0A2.14,2.14,0,0,1,.32.26Z"/><path class="cls-1" d="M19.78.25l0-.25H32l0,.25a1.9,1.9,0,0,1-1.47.37q-4.62,0-9.22,0A1.89,1.89,0,0,1,19.78.25Z"/><path class="cls-1" d="M53.52,212.82l0,.25H42.05l0-.25a1.79,1.79,0,0,1,1.35-.36q4.38,0,8.74,0A1.77,1.77,0,0,1,53.52,212.82Z"/><path class="cls-2" d="M70.93.29,70.86,0h1.68a.24.24,0,0,1-.06.35A1.43,1.43,0,0,1,70.93.29Z"/><path class="cls-3" d="M72.56.2a1.36,1.36,0,0,0,0-.2H74a.5.5,0,0,0,0,.21A1,1,0,0,1,72.56.2Z"/><path d="M120.73,23.81c-.16.47-.6.53-.93.71-1.57.89-1.58.88-2.48-.63a36.11,36.11,0,0,0-5.42-7.12c-.6-.61-.66-1,0-1.59,1.47-1.35,1.43-1.4,2.76.08A44.77,44.77,0,0,1,120.29,23C120.45,23.25,120.59,23.54,120.73,23.81Z"/><path d="M107.44,91.42c-.38-.12-.5-.49-.69-.75-1.13-1.58-1.12-1.59.38-2.72a39.43,39.43,0,0,0,6.54-6.11c.44-.52.74-.75,1.4-.18,1.62,1.41,1.65,1.36.22,2.94a44.33,44.33,0,0,1-7.14,6.34C107.93,91.11,107.69,91.25,107.44,91.42Z"/><path d="M92.11,1.57c.32.09.59.17.85.26a66.43,66.43,0,0,1,9.57,4c.75.39.72.71.36,1.34-1,1.73-1,1.75-2.78.83a49.92,49.92,0,0,0-8.28-3.37c-.76-.23-.93-.55-.64-1.24.18-.44.29-.91.43-1.37C91.7,1.78,91.78,1.51,92.11,1.57Z"/><path d="M126.5,60.91a46.9,46.9,0,0,1-3,10.88c-.17.42-.29.61-.85.4-2.17-.85-2.18-.81-1.37-3a41.9,41.9,0,0,0,2.22-8.52c.11-.72.34-.87,1-.72.5.12,1,.15,1.53.23S126.71,60.4,126.5,60.91Z"/><path class="cls-4" d="M125.23,48c-.94.3-1.23-.12-1.27-1.18a45.16,45.16,0,0,0-1.34-9.33c-.26-1,0-1.45,1-1.55a5.49,5.49,0,0,0,1-.27c.5-.16.68,0,.81.52a74.08,74.08,0,0,1,1.6,11c0,.52-.13.73-.64.73C126.07,48,125.71,48,125.23,48Z"/><path d="M72.56.2H74c2.79.15,5.57.43,8.35.75.69.08.94.23.82,1-.3,2-.25,2.07-2.22,1.85-3.09-.36-6.2-.64-9.31-.69-.65,0-.83-.21-.77-.82s0-1.35.07-2Z"/><path d="M93.9,92.28c1.74-.43,3.5-.81,5.22-1.32.88-.27,1.09.06,1.22.82.34,1.86.36,1.85-1.52,2.32-3.09.77-6.19,1.52-9.27,2.33-.78.21-1,0-1.19-.73-.45-1.93-.49-1.92,1.37-2.38Z"/><path d="M73.85,96.09c1.76,0,3.51,0,5.27,0,.73,0,.93.19.93.93,0,2,0,2-2.07,2-3.11,0-6.22,0-9.33,0-.9,0-1.25-.21-1.1-1.11a2.63,2.63,0,0,0,0-.84c-.13-.84.19-1.09,1-1.05C70.34,96.13,72.1,96.09,73.85,96.09Z"/><path class="cls-4" d="M19.78.25H31.94c.14,2.83.14,2.83-2.67,2.83s-5.67,0-8.5,0c-.85,0-1.14-.22-1-1.05C19.8,1.45,19.76.85,19.78.25Z"/><path d="M124.13,120.27c.3-.06.37.17.49.31a56.69,56.69,0,0,1,5.89,8.82c.29.53.15.71-.34,1-1.95,1.07-1.94,1.09-3-.77a45.11,45.11,0,0,0-4.66-6.79c-.52-.63-.45-.95.17-1.37S123.67,120.65,124.13,120.27Z"/><path d="M89.32,215.23c-.32.08-.48-.15-.52-.52l0-.24c-.37-2.05-.37-2.05,1.68-2.48a75.48,75.48,0,0,0,8.09-2.06c.65-.22.95-.16,1.18.56.65,2.09.69,2.08-1.45,2.69-2.72.79-5.48,1.41-8.25,1.95Z"/><path d="M116.71,205.43a4.52,4.52,0,0,0-.54.3,63.52,63.52,0,0,1-8.93,5.76c-.44.24-.65.14-.82-.27a.36.36,0,0,0,0-.11c-1.13-2-1.13-2,.82-3.05a49.15,49.15,0,0,0,6.86-4.55c.58-.47.87-.46,1.27.14S116.15,204.72,116.71,205.43Z"/><path d="M131,187.14c-.09.18-.16.33-.22.47a54.32,54.32,0,0,1-5.25,8.68c-.45.61-.73.71-1.36.19-1.58-1.29-1.61-1.26-.43-2.9a38.81,38.81,0,0,0,4.09-6.87c.45-1,.91-1.06,1.72-.54a10.56,10.56,0,0,0,1.07.52C130.81,186.79,131.1,186.84,131,187.14Z"/><path d="M106.17,105.86l.67.35a63.3,63.3,0,0,1,8.26,5.2c.6.44.72.73.2,1.37-1.3,1.6-1.25,1.62-3,.39a48.62,48.62,0,0,0-7-4.31c-.73-.36-.9-.7-.41-1.39a12.61,12.61,0,0,0,.65-1.27C105.7,106,105.74,105.71,106.17,105.86Z"/><path class="cls-4" d="M135.51,152.59c-1.48.54-1.71-.06-1.77-1.16a44.29,44.29,0,0,0-1.39-8.71c-.2-.77-.08-1.08.76-1.28,1.94-.46,1.91-.51,2.39,1.46a73.27,73.27,0,0,1,1.35,8.85C137,153.34,135.71,152.28,135.51,152.59Z"/><path d="M134.86,164.1c2.06.13,1.91-.14,1.74,1.76a75.36,75.36,0,0,1-1.43,9.07c-.13.63-.25,1-1.13.75-2-.58-2-.5-1.57-2.57a60.21,60.21,0,0,0,1.15-7.79C133.71,164.33,133.87,163.66,134.86,164.1Z"/><path class="cls-4" d="M53.52,212.82H42.08c-.14-2.83-.14-2.83,2.67-2.83,2.6,0,5.19,0,7.78,0,.85,0,1.15.22,1,1.06C53.5,211.62,53.54,212.22,53.52,212.82Z"/><path class="cls-4" d="M56.19,2.87c-3.64,0-7.27,0-10.91,0-1.18,0-1-.62-1-1.35S44.1.18,45.28.21c3.64.08,7.27,0,10.91,0Z"/><path class="cls-4" d="M2.94,112.33c0,3.48,0,7,0,10.43,0,1.17-.6,1.06-1.35,1.06s-1.37.11-1.35-1.06c.08-3.47,0-7,0-10.43Z"/><path class="cls-4" d="M.32,193.84c0-3.48,0-7,0-10.43,0-1.16.6-1.06,1.35-1.06S3,182.25,3,183.41c-.08,3.48,0,7,0,10.43Z"/><path class="cls-4" d="M.32,147.29c0-3.48,0-6.95,0-10.43,0-1.16.6-1.06,1.35-1.06S3,135.7,3,136.86c-.08,3.48,0,6.95,0,10.43Z"/><path class="cls-4" d="M2.94,42.51c0,3.48,0,7,0,10.43C3,54.1,2.38,54,1.63,54S.26,54.1.28,52.94c.08-3.48,0-6.95,0-10.43Z"/><path class="cls-4" d="M2.94,89.06c0,3.48,0,7,0,10.43,0,1.16-.6,1.06-1.35,1.06s-1.37.1-1.35-1.06c.08-3.48,0-6.95,0-10.43Z"/><path class="cls-4" d="M3,19.21c0,3.47-.05,6.93,0,10.4,0,1.21-.62,1.1-1.41,1.12s-1.31,0-1.29-1.12c.08-3.47,0-6.93,0-10.4Z"/><path class="cls-4" d="M2.94,65.78c0,3.48,0,7,0,10.43,0,1.17-.6,1.06-1.35,1.06S.26,77.38.28,76.21c.08-3.47,0-6.95,0-10.43Z"/><path class="cls-4" d="M.32,170.57c0-3.48,0-7,0-10.44,0-1.16.6-1,1.35-1S3,159,3,160.13c-.08,3.48,0,7,0,10.44Z"/><path class="cls-4" d="M65.09,210.2c3.38,0,6.77.05,10.16,0,1.2,0,1.09.61,1.11,1.4s0,1.32-1.11,1.29c-3.39-.07-6.78,0-10.16,0Z"/><path class="cls-4" d="M24.78,212.83c-1.56,0-3.12,0-4.67,0-1.21,0-.8-.83-.84-1.41s-.19-1.28.87-1.26c3.15,0,6.31,0,9.46,0,.65,0,.9.17.91.87,0,1.79.06,1.78-1.66,1.79Z"/><path class="cls-4" d="M.32.26c2.06,0,4.13,0,6.19,0,1.08,0,1,.56,1,1.26s.27,1.47-1,1.43a9.37,9.37,0,0,0-3.42.15A9.42,9.42,0,0,0,3,6.49c0,1.17-.73.9-1.35.9S.25,7.65.29,6.48C.37,4.41.32,2.33.32.26Z"/><path class="cls-4" d="M3.13,210a9.78,9.78,0,0,0,3.41.15c1.24,0,.93.76,1,1.42s.08,1.31-1,1.27c-2.07-.09-4.14,0-6.2-.05,0-2.06,0-4.13,0-6.19,0-1.08.57-1,1.27-1s1.46-.25,1.42,1A9.39,9.39,0,0,0,3.13,210Z"/><path d="M53.6,96.09c1.75,0,3.51,0,5.26,0,.74,0,.94.19.94.93,0,2,0,2-2.07,2-3.11,0-6.22,0-9.33,0-.9,0-1.25-.21-1.1-1.11a2.63,2.63,0,0,0,0-.84c-.13-.84.19-1.09,1-1.05C50.09,96.13,51.84,96.09,53.6,96.09Z"/><path d="M31.54,96.09c1.75,0,3.51,0,5.26,0,.74,0,.94.19.93.93,0,2,0,2-2.06,2-3.11,0-6.22,0-9.33,0-.9,0-1.26-.21-1.1-1.11a3,3,0,0,0,0-.84c-.13-.84.19-1.09,1-1.05C28,96.13,29.78,96.09,31.54,96.09Z"/><path d="M13.74,96.09c1.76,0,3.51,0,5.27,0,.73,0,.93.19.93.93,0,2,0,2-2.07,2-3.11,0-6.22,0-9.33,0-.9,0-1.25-.21-1.1-1.11a2.63,2.63,0,0,0,0-.84c-.13-.84.19-1.09,1-1.05C10.23,96.13,12,96.09,13.74,96.09Z"/><path d="M85.92,99.64l.74.11A62,62,0,0,1,96.17,102c.71.22.92.44.64,1.22-.71,1.93-.66,2-2.66,1.33a48.94,48.94,0,0,0-8-1.8c-.81-.1-1.08-.37-.84-1.18a12.93,12.93,0,0,0,.2-1.41C85.52,99.94,85.47,99.63,85.92,99.64Z"/></g></g></svg>