<svg xmlns="http://www.w3.org/2000/svg" viewBox="0 0 181.87 217.54"><defs><style>.cls-1{fill: #000000;}.cls-2{fill: #000000;}</style></defs><title>Asset 1</title><g id="Layer_2" data-name="Layer 2"><g id="Layer_1-2" data-name="Layer 1"><path class="cls-1" d="M181.87,37.94c-.61-.13-.84.35-1.13.71s-.64.76-1,1.12A7.24,7.24,0,0,1,181.87,41Z"/><path d="M176.9,38.7A3,3,0,0,1,178,39c.32.15.62.32.93.49a8.38,8.38,0,0,1,1.11.34l1.87-1.92V37.7c-1.3-1.66-2.61-3.3-3.9-5-.4-.52-.66-.71-1.29-.17-1.59,1.37-1.63,1.33-.34,3S177.92,37.58,176.9,38.7Z"/><path d="M176.92,186a23,23,0,0,0-3.24.48l.09.16a.78.78,0,0,1-.13,1.21c-.95.9-1.88,1.84-2.84,2.78.55.61,1.08,1.15,1.54,1.73s.74.41,1.14,0c1.29-1.4,2.6-2.8,3.93-4.17a.84.84,0,0,0,.1-1.23Z"/><path d="M29.65,36.25c-.65-.59-1.33-1.19-2-1.83,0,0,.18-.41.33-.58,2.38-2.64,4.9-5.15,7.5-7.57.46-.42.7-.39,1.12.08,1.49,1.64,1.51,1.62-.15,3.16-2.11,2-4.11,4-6,6.15C30.22,35.88,30.1,36.23,29.65,36.25Z"/><path d="M68,9.6c-.36.07-.36-.24-.46-.43C66.38,7,66.41,6.92,68.68,6.1c2.84-1,5.73-1.92,8.64-2.75.77-.22.93,0,1.09.67.51,2,.53,2-1.51,2.58-2.79.81-5.55,1.69-8.25,2.75Z"/><path d="M148.53,10.5c-.38.74-.74,1.54-1.18,2.29-.17.29-.43,0-.61-.09a96.25,96.25,0,0,0-9.68-4c-.5-.18-.55-.37-.4-.87.69-2.27.67-2.28,2.87-1.45,2.83,1.06,5.61,2.22,8.33,3.54C148.12,10,148.52,10,148.53,10.5Z"/><path d="M32,186.36a13.83,13.83,0,0,1-1.88,1.93c-.49.33-.75-.4-1.05-.71-2.28-2.34-4.35-4.88-6.39-7.44-.49-.6-.6-.93.14-1.46,1.66-1.16,1.61-1.2,2.89.41,1.79,2.25,3.64,4.45,5.64,6.52C31.56,185.86,31.78,186.14,32,186.36Z"/><path d="M20.3,43.85c.68.5,1.44,1,2.13,1.6.17.15-.14.4-.26.58a102.85,102.85,0,0,0-5.5,8.81c-.27.5-.47.57-1,.3-2.06-1.08-2.07-1.06-.93-3.06Q17,48.2,19.56,44.51C19.73,44.27,19.82,43.92,20.3,43.85Z"/><path d="M11.1,66.23c-.06.15-.13.34-.21.52a90.47,90.47,0,0,0-3.35,9.44c-.22.8-.56.76-1.17.59-2-.58-2-.56-1.38-2.56.9-2.93,2-5.8,3.11-8.65.28-.68.55-.84,1.19-.49a13,13,0,0,0,1.42.63C10.92,65.8,11.19,65.85,11.1,66.23Z"/><path d="M47.33,20.67c-.4,0-.48-.38-.65-.62-1.27-1.72-1.27-1.73.46-2.9,2.54-1.71,5.16-3.29,7.83-4.79.62-.36.89-.33,1.23.36,1,1.88,1,1.86-.8,2.88-2.52,1.43-5,3-7.37,4.61Z"/><path d="M168.76,23.48a16.2,16.2,0,0,1-1.85,2.07c-.35.28-.71-.35-1-.61a72.73,72.73,0,0,0-7.58-5.61c-.83-.53-.8-.87-.28-1.6,1.09-1.55,1.05-1.59,2.57-.55A92.19,92.19,0,0,1,168,22.8C168.27,23,168.49,23.22,168.76,23.48Z"/><path d="M40.63,194.27c.26.19.45.32.64.47a83.57,83.57,0,0,0,8.31,5.81c.63.37.59.63.26,1.18-1.14,1.86-1.13,1.88-3,.71-2.55-1.63-5-3.4-7.41-5.23-.62-.47-.7-.8-.14-1.37A16.58,16.58,0,0,0,40.63,194.27Z"/><path d="M141.59,210.42c0,.42-.29.46-.55.55-3.35,1.17-6.76,2.14-10.19,3.07-.63.17-.8-.09-.95-.64-.57-2.11-.59-2.12,1.46-2.64,2.78-.71,5.54-1.53,8.24-2.5.88-.32,1.3-.21,1.49.73A10.47,10.47,0,0,0,141.59,210.42Z"/><path d="M71.48,210.77c-.24.77-.49,1.49-.68,2.22-.13.47-.39.25-.64.18a91.74,91.74,0,0,1-10.28-3.79c-.42-.18-.48-.39-.34-.82.77-2.27.76-2.28,2.93-1.36q4.08,1.71,8.29,3C71.07,210.32,71.53,210.28,71.48,210.77Z"/><path d="M163.21,200.05c0,.38-.29.44-.47.55a101.88,101.88,0,0,1-9.34,5.25c-.5.25-.72.18-1-.33-1.06-2-1.08-2,.94-3a78,78,0,0,0,7.54-4.31c.65-.43,1-.39,1.34.31A14.81,14.81,0,0,0,163.21,200.05Z"/><path d="M12.38,157.43c.41-.09.47.22.58.46a93,93,0,0,0,4.76,9.33c.25.44.19.64-.25.93-2,1.29-2,1.3-3.12-.73-1.46-2.6-2.74-5.28-4-8-.36-.75-.31-1.13.54-1.36A10.15,10.15,0,0,0,12.38,157.43Z"/><path d="M5.1,135.11c.52-.11.58.25.65.63a103.14,103.14,0,0,0,2.64,10c.16.49,0,.67-.44.85-2.24.81-2.25.83-2.9-1.41-.84-2.91-1.59-5.85-2.25-8.8-.16-.71.05-.89.66-1S4.55,135.23,5.1,135.11Z"/><path d="M113.73,2.6c.4-2.53-.29-2.23,2.28-2,3,.32,6,.86,9,1.45.77.16.94.38.76,1.16-.46,1.94-.42,2-2.34,1.59-2.91-.55-5.82-1-8.76-1.33C114,3.44,113.49,3.3,113.73,2.6Z"/><path d="M108.85,217.45l-.36,0c-2.27.19-2.54-.11-2.25-2.4.05-.44.24-.5.61-.51a99.13,99.13,0,0,0,10.47-1c.52-.07.66.1.74.61.37,2.25.39,2.25-1.83,2.57C113.78,217.12,111.32,217.33,108.85,217.45Z"/><path d="M93.26,217.43c-3.53-.31-6.82-.65-10.09-1.19-.64-.1-.76-.3-.69-.91.25-2.25.22-2.22,2.42-1.87a86.9,86.9,0,0,0,8.68.95c.71,0,1.11.24.94,1a2.34,2.34,0,0,0,0,.59C94.53,217.07,94.34,217.84,93.26,217.43Z"/><path d="M2.06,100a2.33,2.33,0,0,0-.45,0C.32,100.1.2,99.49.32,98.36c.33-3.09.68-6.18,1.13-9.25.12-.86.27-1.59,1.42-1.06a1.43,1.43,0,0,0,.59.07c1,0,1.22.44,1,1.43a65.08,65.08,0,0,0-1.11,9.12C3.31,99.78,3.09,100.4,2.06,100Z"/><path class="cls-2" d="M98.21,0c1,0,1.93.06,2.88,0,.78-.07.92.25.93.94,0,2,0,2-2,2.08-3,.15-6,.32-9,.76-.63.09-.82,0-.89-.69C89.94.93,89.9.89,92,.65s4.13-.39,6.2-.57Z"/><path class="cls-2" d="M3.26,117.81c.15,1.67.26,3.34.46,5,.07.6-.1.73-.65.8-2.23.26-2.26.29-2.48-1.88-.31-3-.45-6.11-.59-9.17,0-.69.22-.75.8-.77,2.2,0,2.19-.07,2.28,2.1C3.13,115.19,3.2,116.5,3.26,117.81Z"/></g></g></svg>