<svg xmlns="http://www.w3.org/2000/svg" viewBox="0 0 138.13 214.34"><defs><style>.cls-1{fill:#010101;}.cls-2{fill:#040404;}.cls-3{fill:#020202;}.cls-4{fill:#050505;}</style></defs><title>Asset 3</title><g id="Layer_2" data-name="Layer 2"><g id="Layer_1-2" data-name="Layer 1"><path d="M32.84,104.79c-1.82-.84-6.33,1.9-6-2.68s4.08-.3,6.2-1.19c1.41-.59,3.27-.19,4.91-.08,1,.07,2.52-.66,2.6,1.27a2.29,2.29,0,0,1-2.28,2.65C36.58,104.88,34.92,104.79,32.84,104.79Z"/><path d="M59.61,100.81c1.47,0,3-.06,4.42,0,1,0,2.48-.52,2.45,1.42,0,1.32-.71,2.39-1.93,2.46-3.27.17-6.55.16-9.82,0a2.23,2.23,0,0,1-2.18-2.7c.16-1.87,1.66-1.12,2.64-1.2C56.65,100.72,58.13,100.81,59.61,100.81Z"/><path d="M85.08,100.6c1.86,1.47,6-2.15,6.13,2.1.1,4.07-4,2-6,1.92-2.54,0-7.26,2.09-7.3-2C77.87,99.14,82.54,101.64,85.08,100.6Z"/><path class="cls-1" d="M.46,95.2c1-1.69-2.05-6,2.22-5.88,3.93.14.91,4.21,1.72,6.37.33.86,0,2,.06,3,.09,1.87-.43,3.46-2.58,3.34C-.56,101.84.76,99.76.5,98.55A18.13,18.13,0,0,1,.46,95.2Z"/><path class="cls-2" d="M.17,141.6c1.41-1.87-1.78-5.8,2.14-5.88s2.06,3.86,2,5.83,2.16,6.15-1.8,6.19C-1.8,147.79,1.64,143.56.17,141.6Z"/><path class="cls-2" d="M.45,164.48v-3c0-1.31-.21-2.59,1.88-2.61,1.87,0,2.2.79,2.15,2.37-.08,2.47-.12,4.95,0,7.42.11,1.93-.72,2.79-2.53,2.72-2.18-.08-1.38-1.83-1.48-3C.36,167.13.45,165.8.45,164.48Z"/><path class="cls-1" d="M.46,187.66c1.18-1.48-2.1-5.42,1.76-5.48,3.62-.07,1.85,3.79,2.2,6a16.83,16.83,0,0,1,0,3.95c-.09,1.13.71,2.82-1.58,2.81-2,0-2.46-1.21-2.4-2.91C.5,190.68.46,189.36.46,187.66Z"/><path d="M.46,209.06c.54-1.21-1.19-3.48,1.05-4s3,1.27,3,3.35c-.09,1.91,1.36,1.5,2.4,1.48,1.41,0,1.62.76,1.58,1.86,0,.94.14,1.77-1.25,2.18C2.79,215.19.45,213.65.46,209.06Z"/><path d="M.46,25.76c0-1.31-.09-2.63,0-3.93.09-1-.67-2.5,1.2-2.62s2.72.88,2.75,2.65c0,2.3,0,4.59,0,6.88,0,1.86-.43,3.43-2.57,3.34C-.55,32,.76,29.9.5,28.7A14.4,14.4,0,0,1,.46,25.76Z"/><path d="M4.45,48.49c0,1,0,2,0,2.95.06,1.75-.1,3.51-2.29,3.6-3,.12-1.5-2.31-1.64-3.59a35.77,35.77,0,0,1,0-6.38c.08-1.07-.89-2.92,1.41-2.9,1.8,0,2.58,1.12,2.54,2.88C4.43,46.19,4.45,47.34,4.45,48.49Z"/><path d="M4.45,118.44c0,1,0,2,0,3,.08,1.8-.2,3.47-2.4,3.54C-.58,125,.63,122.89.51,121.7c-.19-2,0-4,0-5.93,0-1.82-.29-3.93,2.54-3.71,2.45.2,1.16,2.21,1.41,3.42A14.61,14.61,0,0,1,4.45,118.44Z"/><path d="M.39,4.26C.88,2.9-.5.8,1.43.36A19,19,0,0,1,7.77.4c1,.12.93,1.74.61,2a39.13,39.13,0,0,0-5.6,5.69C2.57,8.39,1,8.58.71,7.58A15.51,15.51,0,0,1,.39,4.26Z"/><path d="M46.74.19C48.18,1.41,52.15-2,52.15,2.06s-4,1.3-6,2.09a3.49,3.49,0,0,1-1.95,0c-1.44-.33-4,1.26-3.79-2.08S43,.67,44.41.23A9,9,0,0,1,46.74.19Z"/><path d="M68,4.19C66.54,3,62.61,6.31,62.55,2.36c-.06-4.2,4-1.31,6-2.13a3.4,3.4,0,0,1,1.95,0C71.93.55,74.41-1,74.32,2.27s-2.58,1.46-4,1.89A9.68,9.68,0,0,1,68,4.19Z"/><path class="cls-1" d="M90.21,4.19a7.19,7.19,0,0,1-2,0c-1.42-.41-3.95,1.38-3.95-2S86.8.49,88.23.25a23.6,23.6,0,0,1,4.45,0c1.6,0,3.53-.37,3.58,2.18,0,3-2.28,1.45-3.58,1.77A10.17,10.17,0,0,1,90.21,4.19Z"/><path d="M4.78,72.12C3.2,73.9,6.69,77.78,2.55,77.91-1.76,78,.7,74.12.67,72.3c0-2-2.22-6,1.93-6C6.6,66.33,3.25,70.29,4.78,72.12Z"/><path class="cls-3" d="M24.43,209.56c1.79,1.56,5.66-1.9,5.8,2.21.15,4.33-3.77,1.86-5.58,1.89-2,0-6,2.21-6-1.91S22.61,211.09,24.43,209.56Z"/><path d="M24.56,4.18c-1.15,0-2.29,0-3.44,0-1.77,0-2.77-.95-2.65-2.76S20.12.28,21.09.23A44.53,44.53,0,0,1,27,.23c1.36.11,3.44-1,3.46,1.94S28.39,4,27,4.17A16.68,16.68,0,0,1,24.56,4.18Z"/><path class="cls-4" d="M111.74,4.19c-1.16,0-2.31,0-3.46,0-1.4.07-2-.38-2.08-1.93-.08-1.93.87-2.16,2.4-2.11,2.14.07,4.29,0,6.43,0,1.24,0,2.84-.4,2.69,1.78-.11,1.57-.84,2.37-2.52,2.23C114.05,4.12,112.89,4.2,111.74,4.19Z"/><path d="M131.92,4.19c-1.49-1.13-5.37,2.06-5.49-1.78-.14-4.3,3.91-1.36,5.94-2.17a8.17,8.17,0,0,1,2.43,0c1.86-.09,3.42.43,3.33,2.56-.11,2.45-2.19,1.12-3.38,1.4A13.5,13.5,0,0,1,131.92,4.19Z"/><path d="M11.44,103.8a7.93,7.93,0,0,1-1.95,0c-1.42-.39-3.92,1.35-3.89-2s2.5-1.68,3.93-1.92a32.36,32.36,0,0,1,4.41-.07c1.76,0,3.51.14,3.57,2.33.08,2.94-2.34,1.27-3.62,1.64A9.53,9.53,0,0,1,11.44,103.8Z"/><path class="cls-3" d="M46.75,209.88c1.43,1.22,5.4-2.18,5.4,1.87s-4,1.29-6,2.09a6.65,6.65,0,0,1-2,0c-2,.08-3.89-.15-3.72-2.65.16-2.34,2.25-1,3.46-1.32A14.33,14.33,0,0,1,46.75,209.88Z"/><path class="cls-3" d="M68.07,213.87c-1.52-1.12-5.71,2.18-5.52-2.23.16-3.73,3.94-.88,5.91-1.72a5.75,5.75,0,0,1,2,0c1.91-.08,4,0,3.82,2.54-.14,2.79-2.52,1-3.83,1.42A8.67,8.67,0,0,1,68.07,213.87Z"/><path class="cls-3" d="M89.84,213.87c-1.31,0-2.62,0-3.93,0s-1.63-.64-1.63-1.82.09-2.24,1.77-2.19c2.29.08,4.59.06,6.88,0,1.87,0,3.42.49,3.28,2.61-.17,2.39-2.22,1.1-3.43,1.35A14.41,14.41,0,0,1,89.84,213.87Z"/><path class="cls-3" d="M111.75,213.87c-1.15,0-2.29,0-3.44,0-1.35.06-2-.3-2.1-1.87-.06-1.84.74-2.23,2.33-2.15,2,.09,3.93,0,5.89,0,1.68,0,3.73,0,3.62,2.12s-2.2,1.94-3.85,1.89C113.39,213.85,112.57,213.87,111.75,213.87Z"/><path d="M131.84,209.69c2.27.8,6.12-1.22,6,2.39-.07,2.92-3.78,2-5.75,1.64s-5.68,2.32-5.75-1.81C126.3,207.48,130.34,211.25,131.84,209.69Z"/><path d="M109.7,100.81c1.54.89,5.13-1.61,5.42,1.35.3,3.12-3.31.92-5,1.73-.44.22-.83.7-1.27.74-1.75.15-3.68.84-5-.95a2.21,2.21,0,0,1-.35-1.84c.94-2.11,2.87-.62,4.31-1A8.45,8.45,0,0,1,109.7,100.81Z"/></g></g></svg>