<svg xmlns="http://www.w3.org/2000/svg" viewBox="0 0 154.6 213.36"><defs><style>.cls-1{fill: #000000;}.cls-2{fill: #000000;}.cls-3{fill: #000000;}.cls-4{fill: #000000;}</style></defs><title>Asset 1</title><g id="Layer_2" data-name="Layer 2"><g id="Layer_1-2" data-name="Layer 1"><path class="cls-1" d="M0,89.05a5.54,5.54,0,0,0,.69.12C3,89.22,3,89.22,3,91.59c0,2.75,0,5.51,0,8.26,0,.76-.16,1.1-1,1-.67-.08-1.35,0-2-.06Z"/><path class="cls-1" d="M0,135.82c3-.16,3-.16,3,2.75,0,2.63,0,5.27,0,7.9,0,.8-.22,1.05-1,1a4.88,4.88,0,0,0-2,.1Z"/><path class="cls-1" d="M0,42.52a5.54,5.54,0,0,0,.69.12C3,42.7,3,42.69,3,45.06c0,2.76,0,5.51,0,8.27,0,.76-.16,1.1-1,1a19.59,19.59,0,0,0-2,0Z"/><path class="cls-1" d="M0,112.56c3-.17,3-.17,3,2.74,0,2.64,0,5.27,0,7.91,0,.79-.22,1.05-1,1a4.88,4.88,0,0,0-2,.1Z"/><path class="cls-1" d="M0,19.26a4.13,4.13,0,0,0,.69.11C3,19.43,3,19.43,3,21.8c0,2.75,0,5.51,0,8.26,0,.76-.16,1.1-1,1C1.36,31,.68,31,0,31Z"/><path class="cls-1" d="M0,182.35c3-.16,3-.16,3,2.75,0,2.63,0,5.27,0,7.9,0,.8-.22,1.05-1,1a4.88,4.88,0,0,0-2,.1Z"/><path class="cls-1" d="M0,159.08c3-.16,3-.16,3,2.75,0,2.64,0,5.27,0,7.91,0,.79-.22,1-1,1a4.72,4.72,0,0,0-2,.1Z"/><path class="cls-1" d="M0,65.79a4.13,4.13,0,0,0,.69.11C3,66,3,66,3,68.33c0,2.75,0,5.51,0,8.26,0,.76-.16,1.1-1,1a19.59,19.59,0,0,0-2,0Z"/><path d="M2.89,2.61A1.58,1.58,0,0,1,3.18.19,26,26,0,0,0,0,.31V7.75c.71,0,1.43,0,2.14,0S3,7.65,3,7c0-1.12,0-2.24.06-3.36A1.62,1.62,0,0,1,2.89,2.61Z"/><path d="M3.3,210s0,0,0,0a1.66,1.66,0,0,1-.22,0c0-.43-.08-.85-.09-1.28,0-1,.33-2.27-.17-2.86S1,205.68,0,205.61v7.44a19.24,19.24,0,0,0,3.13.13A11,11,0,0,1,3.3,210Z"/><path class="cls-2" d="M154.6,54.31h-.24a2.36,2.36,0,0,1-.37-1.71c0-2.67,0-5.33,0-8,0-.49.13-1.08-.52-1.33s-1.33.11-1.34,1.09c0,2.75,0,5.5,0,8.24a2.4,2.4,0,0,1-.37,1.71c-.45-.22-.23-.62-.23-.93,0-3.22,0-6.43,0-9.64,0-.9.24-1.21,1.13-1.13a16.86,16.86,0,0,0,2,0Z"/><path class="cls-2" d="M154.6,170.87a2,2,0,0,0-.34-.06c-2.78-.05-2.78,0-2.78-2.77s0-5.24,0-7.86c0-.34-.26-.79.23-1.05a2.4,2.4,0,0,1,.37,1.71c0,2.67,0,5.33,0,8,0,.49-.13,1.08.52,1.33s1.33-.11,1.34-1.09c0-2.75,0-5.49,0-8.24a2.36,2.36,0,0,1,.37-1.71h.24Z"/><path class="cls-2" d="M154.6,100.84h-.24a2.36,2.36,0,0,1-.37-1.71c0-2.67,0-5.33,0-8,0-.49.13-1.08-.52-1.33s-1.33.11-1.34,1.09c0,2.75,0,5.49,0,8.24a2.4,2.4,0,0,1-.37,1.71c-.45-.22-.23-.62-.23-.93,0-3.22,0-6.43,0-9.64,0-.9.24-1.21,1.13-1.13a16.86,16.86,0,0,0,2,0Z"/><path class="cls-2" d="M154.6,31.05l-.24,0a2.33,2.33,0,0,1-.37-1.7c0-2.67,0-5.34,0-8,0-.49.13-1.08-.52-1.33s-1.33.11-1.34,1.09c0,2.74,0,5.49,0,8.24a2.38,2.38,0,0,1-.37,1.7c-.45-.21-.23-.62-.23-.93,0-3.21,0-6.42,0-9.64,0-.9.24-1.21,1.13-1.12a16.86,16.86,0,0,0,2-.05Z"/><path class="cls-2" d="M151.73,77.56c-.45-.21-.23-.62-.23-.93,0-3.21,0-6.43,0-9.64,0-.9.24-1.21,1.13-1.12a16.86,16.86,0,0,0,2-.05V77.58l-.24,0a2.33,2.33,0,0,1-.37-1.7c0-2.67,0-5.34,0-8,0-.48.13-1.07-.52-1.32s-1.33.11-1.34,1.09c0,2.74,0,5.49,0,8.24A2.38,2.38,0,0,1,151.73,77.56Z"/><path class="cls-2" d="M154.6,194.14c-.11,0-.23-.06-.34-.07-2.78,0-2.78,0-2.78-2.77s0-5.23,0-7.85c0-.35-.26-.8.23-1a2.38,2.38,0,0,1,.37,1.7c0,2.67,0,5.34,0,8,0,.48-.13,1.07.52,1.32s1.33-.11,1.34-1.09c0-2.74,0-5.49,0-8.24a2.33,2.33,0,0,1,.37-1.7h.24Z"/><path class="cls-2" d="M154.36,112.6h.24v11.75a2,2,0,0,0-.34-.06c-2.78,0-2.78,0-2.78-2.77s0-5.24,0-7.86c0-.34-.26-.79.23-1.05a2.4,2.4,0,0,1,.37,1.71c0,2.67,0,5.34,0,8,0,.49-.13,1.08.52,1.33s1.33-.11,1.34-1.09c0-2.75,0-5.49,0-8.24A2.36,2.36,0,0,1,154.36,112.6Z"/><path class="cls-2" d="M154.36,135.87h.24v11.75a2,2,0,0,0-.34-.06c-2.78-.05-2.78-.05-2.78-2.78s0-5.23,0-7.85c0-.35-.26-.8.23-1a2.38,2.38,0,0,1,.37,1.7c0,2.67,0,5.34,0,8,0,.48-.13,1.07.52,1.32s1.33-.11,1.34-1.08c0-2.75,0-5.5,0-8.25A2.33,2.33,0,0,1,154.36,135.87Z"/><path class="cls-3" d="M3.12,213H0c0,.53.42.22.6.22H3.13C3.13,213.2,3.12,213.12,3.12,213Z"/><path class="cls-3" d="M3.45.08H.6C.42.09,0-.22,0,.31H3A1.33,1.33,0,0,1,3.45.08Z"/><path class="cls-3" d="M154,.12h-3.85V.19a1.31,1.31,0,0,1,.57.52,22.07,22.07,0,0,0,3.54-.13,2,2,0,0,0,.34-.23C154.59-.18,154.18.13,154,.12Z"/><path class="cls-2" d="M154.35.39l.25,0V7.78h-.24a1.05,1.05,0,0,1-.31-.63,54.5,54.5,0,0,1,0-6.13A.9.9,0,0,1,154.35.39Z"/><path class="cls-2" d="M154.6,213.08l-.25,0a1.21,1.21,0,0,1-.34-.88q-.07-2.8,0-5.61a1.18,1.18,0,0,1,.34-.87l.25,0Z"/><path class="cls-4" d="M35.87,98.69c-2.36,0-4.72,0-7.08,0-.27,0-.73.07-.8-.06-.63-1.14-1.69-.5-2.54-.66-.57-.11-.75.14-.74.72,0,1,0,2,0,3l.09-.11a1.14,1.14,0,0,1,.48-.31,1.08,1.08,0,0,1,.58-.13,1.06,1.06,0,0,1,.58.13,1,1,0,0,1,.48.31l.15.12.65.44c.07-.4.33-.53.9-.51,2,0,4.08,0,6.12,0s2,0,2-2.07C36.79,98.92,36.63,98.67,35.87,98.69Z"/><path class="cls-1" d="M53.87,101.7c-1.6,0-3.2,0-4.79,0-.69,0-1-.08-1-.89,0-2.12,0-2.12,2.14-2.12,2.76,0,5.51,0,8.27,0,.81,0,1.1.17,1.08,1-.05,2,0,2-2,2Z"/><path class="cls-1" d="M76.68,101.7c-1.64,0-3.28,0-4.92,0-.7,0-.85-.22-.85-.88,0-2.14,0-2.13,2.12-2.13,2.76,0,5.52,0,8.27,0,.8,0,1.11.15,1.09,1,0,2,0,2-2,2Z"/><path class="cls-1" d="M99.5,101.7c-1.68,0-3.36,0-5,0-.56,0-.73-.16-.75-.74-.09-2.28-.12-2.27,2.1-2.27,2.8,0,5.6,0,8.39,0,.81,0,1,.24,1,1,0,2,0,2-2,2Z"/><path class="cls-1" d="M122.2,101.7c-1.6,0-3.2,0-4.8,0-.64,0-.89-.13-.9-.84,0-2.18,0-2.17,2.1-2.17,2.75,0,5.51,0,8.26,0,.9,0,1.16.21,1.13,1.12-.07,1.9,0,1.9-2,1.9Z"/><path class="cls-4" d="M143.08,101.69c.58,0,.76.16.74.74v0c.46-.14.92-.28,1.38-.46a7,7,0,0,0,1.11-.6,1.36,1.36,0,0,1,.53-.19c0-.56,0-1.11,0-1.67s-.13-.86-.79-.85c-2,0-4,0-6,0-.57,0-.8.19-.75.76a5.47,5.47,0,0,1,0,1.07c-.12.88.12,1.31,1.12,1.19S142.2,101.74,143.08,101.69Z"/><path class="cls-4" d="M13.8,98.87c-.21-.46-1.17-.11-1.79-.16s-1.12,0-1.67,0c-1,0-2.08,0-3.12,0-.65,0-.8.21-.79.82,0,.86,0,1.73,0,2.59a1.49,1.49,0,0,1,.36,0,5.65,5.65,0,0,1,2.58.6,1.62,1.62,0,0,0,0-.22c0-.59.19-.76.75-.74,1,0,2.08,0,3.11,0,.28,0,.71.16.71-.37A6.43,6.43,0,0,0,13.8,98.87Z"/><path d="M152.34,205.64c-.73-.07-.84.26-.83.89,0,1.14,0,2.29,0,3.43l-.12.07a1.42,1.42,0,0,1,.07.42c0,.4,0,.8.08,1.2s.19.94.3,1.41h2.55v-7.36C153.68,205.67,153,205.7,152.34,205.64Z"/><path d="M154.35.39l-3.93,0a1.45,1.45,0,0,1,.43.61,1.56,1.56,0,0,1,.56,2.47l.06,0c0,.55.05,1.11.05,1.67,0,2.83,0,2.83,2.84,2.63Z"/><path class="cls-4" d="M151.73,54.3c0-3.48.05-6.95,0-10.43,0-1.18.62-1,1.35-1s1.38-.14,1.35,1c-.08,3.48,0,7,0,10.43Z"/><path class="cls-4" d="M151.73,77.56c0-3.47.05-7,0-10.42,0-1.18.62-1,1.35-1s1.38-.14,1.35,1c-.08,3.47,0,7,0,10.42Z"/><path class="cls-4" d="M154.36,135.87c0,3.47-.05,6.95,0,10.42,0,1.18-.61,1-1.35,1s-1.37.14-1.35-1c.09-3.47,0-6.95,0-10.42Z"/><path class="cls-4" d="M151.73,31c0-3.47.05-7,0-10.42,0-1.18.62-1,1.35-1s1.38-.14,1.35,1c-.08,3.47,0,7,0,10.42Z"/><path class="cls-4" d="M154.36,159.13c0,3.48-.05,7,0,10.43,0,1.18-.61,1-1.35,1s-1.37.14-1.35-1c.09-3.48,0-6.95,0-10.43Z"/><path class="cls-4" d="M154.36,182.4c0,3.47-.05,6.95,0,10.42,0,1.18-.61,1-1.35,1s-1.37.14-1.35-1c.09-3.47,0-6.95,0-10.42Z"/><path class="cls-4" d="M151.73,100.83c0-3.48.05-7,0-10.43,0-1.18.62-1,1.35-1s1.38-.14,1.35,1c-.08,3.48,0,6.95,0,10.43Z"/><path class="cls-4" d="M154.36,112.6c0,3.48-.05,7,0,10.43,0,1.18-.61,1-1.35,1s-1.37.14-1.35-1c.09-3.47,0-7,0-10.43Z"/></g></g></svg>