<?xml version="1.0" encoding="UTF-8"?>
<svg id="Layer_2" data-name="Layer 2" xmlns="http://www.w3.org/2000/svg" viewBox="0 0 182.28 218.54">
  <defs>
    <style>
      .cls-1 {
        fill: #272425;
      }

      .cls-2 {
        fill: #939598;
      }

      .cls-3 {
        fill: #282526;
      }
    </style>
  </defs>
  <g id="Layer_1-2" data-name="Layer 1">
    <g>
      <path class="cls-3" d="M135.72,0c-.06.55.23,3.12-.36,3.12h-12.84V0h13.2Z"/>
      <path class="cls-3" d="M161.64,0v3.12h-12.84c-.59,0-.3-2.57-.36-3.12h13.2Z"/>
      <path class="cls-3" d="M109.56,0c-.13.69.35,2.84-.39,3.09-1.77-.24-11.8.48-12.58-.07-.47-.33-.12-2.35-.22-3.02h13.2Z"/>
      <path class="cls-1" d="M3.87,179.1c.04-.15.28-.43.62-.78-.75-.61-1.39-1.36-1.85-2.29-.01-.03-.03-.06-.04-.09l-2.6,2.51v.48c1.08,1.49,1.79,3.23,2.78,4.78.19.3.67,1.24,1.07,1.13.36-.1,2.16-1.35,2.16-1.7,0-.6-2.34-3.24-2.14-4.04Z"/>
      <path class="cls-1" d="M75.96,0v3.84c.45.07.9.17,1.34.25.55-.29,1.09-.59,1.63-.9.43-.26.92-.25,1.34-.07h3.13V0h-7.44Z"/>
      <path class="cls-1" d="M179.16,3.43c1-.09,2.01-.16,3.02-.22,0-1.1-.05-2.19-.14-3.21h-7.44v3.12h4.56v.31Z"/>
      <path class="cls-2" d="M182.28,3.21V0h-.24v3.22c.08,0,.16,0,.24-.01Z"/>
      <path class="cls-3" d="M130.56,90.13v-12.72c.66.11,2.68-.25,3.02.22.54.77-.16,10.39.07,12.1-.24.74-2.41.26-3.09.39Z"/>
      <path class="cls-3" d="M130.56,65.17v-12.72c.66.11,2.68-.25,3.02.22.54.77-.16,10.39.07,12.1-.24.74-2.41.26-3.09.39Z"/>
      <path class="cls-1" d="M68.13,215.44c.4.25.25,2.52.28,3.09-4.05.02-8.09.04-12.12-.24-1.09.04-.52-3.05-.21-3.13l12.06.29Z"/>
      <rect class="cls-3" x="130.56" y="102.61" width="3.12" height="12.48"/>
      <rect class="cls-3" x="130.56" y="127.57" width="3.12" height="12.48"/>
      <path class="cls-1" d="M104.16,206.77l-1.42-2.32.08-.33,9.18-7.41c.7.05,2.49,1.56,2.01,2.26-.54.79-2.65,2.5-3.5,3.23-.64.54-6.03,4.79-6.35,4.57Z"/>
      <path class="cls-1" d="M125.52,176.29l2.84,1.31c-.44,1.45-5.25,11.06-6.08,11.12-.14.01-2.26-1.3-2.25-1.71l5.5-10.73Z"/>
      <path class="cls-1" d="M133.44,152.53c.03,1.95-.05,3.94-.24,5.88-.12,1.19-.63,5.59-1.01,6.43-.42.94-2.27-.16-3.07-.07l1.45-12.23h2.87Z"/>
      <path class="cls-1" d="M43.2,215.65l-11.76-4.69c-.36-.22-.13-.28-.05-.51.26-.73.88-1.42,1.03-2.23l11.26,4.42c.66.52-.61,2.21-.49,3Z"/>
      <path class="cls-1" d="M22.29,201.28c.31.54-1.37,2.12-1.77,2.6-3.31-2.67-6.49-5.49-9.24-8.75l2.28-2.02c2.6,3.02,5.49,5.83,8.73,8.17Z"/>
      <path class="cls-1" d="M92.15,210.13l.97,2.87c-1.53.44-11.52,4.2-12.22,3.59l-.48-2.85,11.73-3.61Z"/>
      <path class="cls-1" d="M133.45,32.53h-2.89v7.44h3.12v-4.32h1.03c-.75-.86-1.18-1.98-1.26-3.12Z"/>
    </g>
    <path class="cls-3" d="M130.51,19.36V6.64c.66.11,2.68-.25,3.02.22.54.77-.16,10.39.07,12.1-.24.74-2.41.26-3.09.39Z"/>
  </g>
</svg>