<?xml version="1.0" encoding="UTF-8"?>
<svg id="Layer_2" data-name="Layer 2" xmlns="http://www.w3.org/2000/svg" viewBox="0 0 133.92 213.12">
  <defs>
    <style>
      .cls-1 {
        fill: #272425;
      }

      .cls-2 {
        fill: #282526;
      }
    </style>
  </defs>
  <g id="Layer_1-2" data-name="Layer 1">
    <g>
      <path class="cls-2" d="M0,205.44h3.12v4.56h4.56c-.13.68.35,2.84-.39,3.09l-7.29.03v-7.68Z"/>
      <path class="cls-1" d="M2.58,0H0v7.44h3.12V3.12h.25c-.52-.94-.78-2.03-.79-3.12Z"/>
      <path class="cls-2" d="M0,19.2h3.12v11.4c0,.59-2.57.3-3.12.36v-11.76Z"/>
      <path class="cls-2" d="M0,42.48h3.12v11.4c0,.59-2.57.3-3.12.36v-11.76Z"/>
      <path class="cls-2" d="M0,65.76h3.12v11.4c0,.59-2.57.3-3.12.36v-11.76Z"/>
      <path class="cls-2" d="M0,89.04h3.12v11.4c0,.59-2.57.3-3.12.36v-11.76Z"/>
      <path class="cls-2" d="M0,112.32h3.12v11.4c0,.59-2.57.3-3.12.36v-11.76Z"/>
      <path class="cls-2" d="M0,135.6h3.12v11.4c0,.59-2.57.3-3.12.36v-11.76Z"/>
      <path class="cls-2" d="M0,158.88h3.12v11.4c0,.59-2.57.3-3.12.36v-11.76Z"/>
      <path class="cls-2" d="M0,182.16h3.12v11.4c0,.59-2.57.3-3.12.36v-11.76Z"/>
      <rect class="cls-2" x="73.44" y="210" width="13.2" height="3.12"/>
      <rect class="cls-2" x="99.84" y="210" width="13.2" height="3.12"/>
      <path class="cls-2" d="M33.84,210v3.12h-12.84c-.59,0-.3-2.58-.36-3.12h13.2Z"/>
      <path class="cls-2" d="M60.24,210v3.12h-12.84c-.59,0-.3-2.58-.36-3.12h13.2Z"/>
      <path class="cls-2" d="M133.15,210c-.89,0-1.66-.16-2.35-.44v.44h-4.56c.06.54-.23,3.12.36,3.12h6.96s.36-.33.36-.36v-2.81c-.25.03-.51.05-.77.05Z"/>
    </g>
  </g>
</svg>