<?xml version="1.0" encoding="UTF-8"?>
<svg id="Layer_2" data-name="Layer 2" xmlns="http://www.w3.org/2000/svg" viewBox="0 0 146.63 213.61">
  <defs>
    <style>
      .cls-1 {
        fill: #000000;
      }

      .cls-2 {
        fill: #000000;
      }

      .cls-3 {
        fill: #000000;
      }

      .cls-4 {
        fill: #000000;
      }

      .cls-5 {
        fill: #000000;
      }
    </style>
  </defs>
  <g id="Layer_1-2" data-name="Layer 1">
    <g>
      <path class="cls-3" d="M3.38,212.89H.21S0,213.37,0,213.37v.24h3.48c-.04-.24-.08-.48-.1-.72Z"/>
      <path class="cls-4" d="M146.63,7.44V0h-3.76c.12,1.05,0,2.13-.35,3.12h.99v4.32h3.12Z"/>
      <path class="cls-5" d="M3.68,210.25h-.56v-4.2c0-.59-2.57-.3-3.12-.36v7.68h3.43c-.16-1.04-.08-2.12.24-3.12Z"/>
      <path class="cls-1" d="M3.37.25H0v7.44h3.12V3.37h.82c-.44-.96-.63-2.05-.57-3.12Z"/>
      <path class="cls-5" d="M0,66.01h3.12v11.4c0,.59-2.57.3-3.12.36v-11.76Z"/>
      <path class="cls-5" d="M0,89.29h3.12v11.4c0,.59-2.57.3-3.12.36v-11.76Z"/>
      <path class="cls-5" d="M0,182.41h3.12v11.4c0,.59-2.57.3-3.12.36v-11.76Z"/>
      <path class="cls-5" d="M0,112.57h3.12v11.4c0,.59-2.57.3-3.12.36v-11.76Z"/>
      <path class="cls-5" d="M0,135.85h3.12v11.4c0,.59-2.57.3-3.12.36v-11.76Z"/>
      <path class="cls-5" d="M0,159.13h3.12v11.4c0,.59-2.57.3-3.12.36v-11.76Z"/>
      <path class="cls-5" d="M0,19.45h3.12v11.4c0,.59-2.57.3-3.12.36v-11.76Z"/>
      <path class="cls-5" d="M0,42.73h3.12v11.4c0,.59-2.57.3-3.12.36v-11.76Z"/>
      <path class="cls-5" d="M143.51,205.44v4.56h-.62c.11,1.06-.02,2.14-.4,3.12h3.78s.36-.33.36-.36v-7.32h-3.12Z"/>
      <rect class="cls-2" x="143.51" y="135.6" width="3.12" height="11.76"/>
      <rect class="cls-2" x="143.51" y="182.16" width="3.12" height="11.76"/>
      <rect class="cls-2" x="143.51" y="158.88" width="3.12" height="11.76"/>
      <rect class="cls-2" x="143.51" y="112.32" width="3.12" height="11.76"/>
      <path class="cls-5" d="M146.63,89.04v11.4c0,.54-3.12.54-3.12,0v-11.4h3.12Z"/>
      <path class="cls-5" d="M146.63,65.76v11.4c0,.54-3.12.54-3.12,0v-11.4h3.12Z"/>
      <path class="cls-5" d="M146.63,42.48v11.4c0,.54-3.12.54-3.12,0v-11.4h3.12Z"/>
      <path class="cls-5" d="M146.63,19.2v11.4c0,.54-3.12.54-3.12,0v-11.4h3.12Z"/>
      <path class="cls-1" d="M78.77,110.02l-2.4,1.51-.34-.02c-.38-1.42-6.34-9.13-5.95-9.79.17-.29,2.17-1.58,2.41-1.41l6.29,9.71Z"/>
      <path class="cls-1" d="M97.93,138.79l6.04,9.49c.05.57-1.91,1.49-2.38,1.82l-6.41-9.7,2.75-1.61Z"/>
      <path class="cls-1" d="M46.91,61.65c.58.04,5.53,8.6,6.41,9.67l-2.39,1.59-6.41-9.46c-.04-.36,2.24-1.81,2.39-1.8Z"/>
      <path class="cls-1" d="M21.82,23.04l6.06,9.48c.03.3-1.94,1.7-2.26,1.76-.57.1-5.65-8.61-6.55-9.63l2.75-1.61Z"/>
      <path class="cls-1" d="M34.1,42.45c.7-.06,5.56,8.49,6.63,9.45-.71.36-2.15,2.03-2.87,1.38l-5.95-9.02c-.26-.49,1.98-1.8,2.19-1.82Z"/>
      <path class="cls-1" d="M9.17,3.9c.39,1.39,6.1,8.86,6.07,9.41-.01.17-2.5,2.21-2.81,1.36L6.48,5.45l2.01-1.5.69-.04Z"/>
      <path class="cls-1" d="M85.29,119.65c.41,1.37,6.11,8.86,6.06,9.41-.02.21-2.21,1.91-2.68,1.58l-6.08-9.45,2.01-1.5.69-.04Z"/>
      <path class="cls-1" d="M65.9,90.81c-.72.06-1.85,1.56-2.47,1.19l-6.32-9.36c.45-.38,2.24-1.89,2.74-1.51l6.04,9.67Z"/>
    </g>
    <path class="cls-1" d="M116.85,169.11l-2.4,1.51-.34-.02c-.38-1.42-6.34-9.13-5.95-9.79.17-.29,2.17-1.58,2.41-1.41l6.29,9.71Z"/>
    <path class="cls-1" d="M136.01,197.89l6.04,9.49c.05.57-1.91,1.49-2.38,1.82l-6.41-9.7,2.75-1.61Z"/>
    <path class="cls-1" d="M123.36,178.75c.41,1.37,6.11,8.86,6.06,9.41-.02.21-2.21,1.91-2.68,1.58l-6.08-9.45,2.01-1.5.69-.04Z"/>
  </g>
</svg>