<?xml version="1.0" encoding="UTF-8"?>
<svg id="Layer_2" data-name="Layer 2" xmlns="http://www.w3.org/2000/svg" viewBox="0 0 155.04 213.12">
  <defs>
    <style>
      .cls-1 {
        fill: #fff;
      }

      .cls-2 {
        fill: #272425;
      }

      .cls-3 {
        fill: #949699;
      }

      .cls-4 {
        fill: #282526;
      }
    </style>
  </defs>
  <g id="Layer_1-2" data-name="Layer 1">
    <g>
      <path class="cls-1" d="M155.04,3.14V0h-.24l-.48.35v2.49c.27.06.51.17.72.31Z"/>
      <rect class="cls-4" x="20.16" y="0" width="12.72" height="3.12"/>
      <rect class="cls-4" x="45.6" y="0" width="12.72" height="3.12"/>
      <rect class="cls-4" x="71.04" y="0" width="12.72" height="3.12"/>
      <rect class="cls-4" x="96.48" y="0" width="12.72" height="3.12"/>
      <rect class="cls-4" x="121.92" y="0" width="12.72" height="3.12"/>
      <path class="cls-2" d="M7.68,0H0v3.69c.4-.54,1.03-.92,1.91-.92.52,0,.95.14,1.3.36h4.11c.59,0,.3-2.57.36-3.12Z"/>
      <path class="cls-2" d="M151.68,3.78s.04,0,.06,0c.39-.59,1.04-1.01,1.97-1.01.42,0,.78.09,1.09.23V0h-7.68c.06.55-.23,3.12.36,3.12h4.2v.66Z"/>
      <path class="cls-3" d="M79.15,205.79c-.03-.24,0-.27-.25-.35l-.48.35v6.59s-1.82,0-1.82,0c.05.24.09.49.12.74h2.42c-.22-2.3.29-5.1,0-7.33Z"/>
      <path class="cls-4" d="M79.15,90h-3.12v-12.96c.54.06,3.12-.23,3.12.36v12.6Z"/>
      <path class="cls-4" d="M79.15,64.32h-3.12v-12.96c.54.06,3.12-.23,3.12.36v12.6Z"/>
      <path class="cls-4" d="M79.15,115.68h-3.12v-12.96c.54.06,3.12-.23,3.12.36v12.6Z"/>
      <path class="cls-4" d="M79.15,141.36h-3.12v-12.96c.54.06,3.12-.23,3.12.36v12.6Z"/>
      <path class="cls-4" d="M79.15,167.04h-3.12v-12.96c.54.06,3.12-.23,3.12.36v12.6Z"/>
      <path class="cls-4" d="M79.15,192.72h-3.12v-12.96c.54.06,3.12-.23,3.12.36v12.6Z"/>
      <path class="cls-2" d="M76.7,212.88h2.21s0-7.44,0-7.44c-.62-.2-2.13.15-2.88,0v4.56h-.47c.62.84,1,1.84,1.14,2.88Z"/>
    </g>
    <path class="cls-4" d="M79.49,42.78h-3.12v-12.96c.54.06,3.12-.23,3.12.36v12.6Z"/>
    <path class="cls-4" d="M79.49,17.1h-3.12V4.14c.54.06,3.12-.23,3.12.36v12.6Z"/>
  </g>
</svg>