<?xml version="1.0" encoding="UTF-8"?>
<svg id="Layer_2" data-name="Layer 2" xmlns="http://www.w3.org/2000/svg" viewBox="0 0 154.52 212.34">
  <defs>
    <style>
      .cls-1 {
        fill: #000000;
      }
    </style>
  </defs>
  <g id="Layer_1-2" data-name="Layer 1">
    <g>
      <path class="cls-1" d="M69.22,118.8c-.62,1.13-1.59,2.09-2.69,2.7l-2.3,3.37,2.5,1.78,3.96-5.87c0-.14-.67-1.01-1.47-1.99Z"/>
      <path class="cls-1" d="M78.36,107.09l-2.41,3.11-.43-.47c-.08,1.18-.53,2.34-1.22,3.32.56.7,1.13,1.4,1.74,2.05.19.2.16.22.5.15.3-1.23,4.26-5.76,4.06-6.55-.08-.31-2.05-1.64-2.24-1.6Z"/>
      <path class="cls-1" d="M140.76,196.79l-6.5-9.47,2.52-1.79,6.57,9.51c.04.44-2.37,1.91-2.6,1.75Z"/>
      <path class="cls-1" d="M59.76,80.41c-.07.12-2.19,1.46-2.37,1.37-.69-1.18-6.89-8.99-6.61-9.5.11-.2,2.13-1.65,2.3-1.57l6.59,9.02c.12.2.21.47.09.68Z"/>
      <path class="cls-1" d="M25.41,32.96c.37-.08.58.02.79.32l6.47,8.88-2.32,1.78-7.03-9.46c.01-.13,1.94-1.49,2.09-1.52Z"/>
      <path class="cls-1" d="M123.69,166.32l6.46,9.51-2.29,1.75-6.76-9.46c0-.28,2.37-1.95,2.59-1.8Z"/>
      <path class="cls-1" d="M46.08,61.45c-.07.12-2.13,1.5-2.37,1.37l-6.61-9.5,2.29-1.57,6.5,8.87c.15.22.34.56.19.83Z"/>
      <path class="cls-1" d="M103.52,137.73c-.74.13-1.86,1.69-2.51,1.25l-6.24-8.91c-.16-.25-.17-.45-.01-.71.11-.17,2.03-1.48,2.3-1.34l6.46,9.71Z"/>
      <path class="cls-1" d="M66.63,89.59l6.82,9.25c.07.38-1.79,1.82-2.13,1.91-.57.15-6.03-8.21-6.94-9.19-.09-.54,1.85-1.51,2.25-1.97Z"/>
      <path class="cls-1" d="M9.63,15.41l2.63-1.69,6.72,9.48c-.45.33-2.17,2-2.64,1.69l-6.72-9.49Z"/>
      <path class="cls-1" d="M89.88,122.46l-6.46-9.28c-.1-.66,1.87-1.49,2.25-1.99l6.8,9.48c0,.28-2.36,1.95-2.59,1.79Z"/>
      <path class="cls-1" d="M107.87,148.58c.84-.05,1.85-1.69,2.51-1.24l6.24,8.91c.16.25.17.45.01.71-.11.17-2.03,1.48-2.3,1.34l-6.46-9.72Z"/>
      <path class="cls-1" d="M90.94,88.37c.18-.13,2.67,1.42,2.54,1.93-.89.99-5.91,9.17-6.47,9.09-.2-.03-2.28-1.57-2.28-1.78l6.2-9.24Z"/>
      <path class="cls-1" d="M131.98,33.89l-6.24,9.59-2.53-1.67,6.13-9.26c.52-.33,1.9,1.32,2.64,1.34Z"/>
      <path class="cls-1" d="M142.42,13.77c.38.39,2.32,1.42,2.19,1.89l-6.47,9.09-2.31-1.78,6.59-9.2Z"/>
      <path class="cls-1" d="M116.77,51.18c.15-.03,2.56,1.32,2.16,1.91l-6.27,9.11c-.34-.62-2.35-1.37-2.25-1.99.86-1,5.82-8.93,6.36-9.03Z"/>
      <path class="cls-1" d="M104.02,69.65c.34.62,2.35,1.37,2.25,1.99-.9,1.01-5.87,9.12-6.53,9.01-.16-.03-2.38-1.4-1.99-1.9l6.27-9.11Z"/>
      <path class="cls-1" d="M23.15,185.77c.34.62,2.35,1.37,2.25,1.99l-6.09,8.79-2.52-1.78,6.36-9Z"/>
      <path class="cls-1" d="M57.97,133.88l2.61,1.8-5.73,8.41c-.48.99-2.89-.98-2.79-1.34l5.91-8.87Z"/>
      <path class="cls-1" d="M33.27,169.9c.41-.24,2.63,1.24,2.58,1.73-.11,1.09-5.23,7.32-6.08,8.76-.46-.34-2.31-1.21-2.26-1.71l5.76-8.77Z"/>
      <path class="cls-1" d="M42.33,162.4c-.41.23-2.63-1.4-2.59-1.73l6.3-8.78c.48.51,2.24,1.2,2.04,1.96l-5.76,8.54Z"/>
    </g>
    <path class="cls-1" d="M151.92,212.33l-6.5-9.47,2.52-1.79,6.57,9.51c.04.44-2.37,1.91-2.6,1.75Z"/>
    <path class="cls-1" d="M11.68,201.32c.34.62,2.35,1.37,2.25,1.99l-6.09,8.79-2.52-1.78,6.36-9Z"/>
    <path class="cls-1" d="M0,1.69L2.63,0l6.72,9.48c-.45.33-2.17,2-2.64,1.69L0,1.69Z"/>
    <path class="cls-1" d="M152.17.12c.38.39,2.32,1.42,2.19,1.89l-6.47,9.09-2.31-1.78L152.17.12Z"/>
  </g>
</svg>