<?xml version="1.0" encoding="UTF-8"?>
<svg id="Layer_2" data-name="Layer 2" xmlns="http://www.w3.org/2000/svg" viewBox="0 0 107.89 278.13">
  <defs>
    <style>
      .cls-1 {
        fill: #000000;
      }

      .cls-2 {
        fill: #000000;
      }

      .cls-3 {
        fill: #000000;
      }

      .cls-4 {
        fill: #000000;
      }

      .cls-5 {
        fill: #000000;
      }

      .cls-6 {
        fill: #000000;
      }
    </style>
  </defs>
  <g id="Layer_1-2" data-name="Layer 1">
    <g>
      <path class="cls-4" d="M5.75,258.05c.07.08.73-.34.97-.11l7,6.21c.14.32-1.21,2.33-1.87,1.68l-5.91-5.11c.02-.95-1.9-2.68-1.97-3.16-.19-1.44.79-1.36,1.77-1.86.08.39-.1,2.25,0,2.36Z"/>
      <path class="cls-2" d="M53.36,141.57l-.18,2.54c-1.09.18-2.22-.17-3.24-.2-.91-.03-6.67.24-6.81-.32-.15-.63.12-1.73,0-2.43l10.21.42Z"/>
      <path class="cls-3" d="M99.62,245.07c.23.32-1.8,3.69-2.13,4.26-.5.85-2.28,3.95-2.88,4.41s-2.14-.68-2.25-1.14c-.16-.66,4.56-7.02,4.91-8.31l2.34.78Z"/>
      <path class="cls-4" d="M31.32,273.03c.16.22-.58,1.9-.58,2.34-.35.25-6.34-2.13-7.21-2.52-.39-.18-2.01-.9-2.18-1.07-.46-.44.4-2.44,1.21-2.31,1.02.66,8.47,3.17,8.76,3.56Z"/>
      <path class="cls-6" d="M107.89,205.7l-.2,10.43-2.56-.19.19-9.91c.11-.48,2.14-.3,2.57-.33Z"/>
      <polygon class="cls-2" points="50.82 275.37 50.82 278.13 40.59 277.73 40.78 275.37 50.82 275.37"/>
      <path class="cls-2" d="M78.18,266.13l7.42-5.88c.65-.27,1.99,1.23,1.74,1.74-.36.73-4.16,3.76-5.05,4.41-.52.38-2.38,1.95-2.93,1.6-.31-.19-.7-1.33-1.18-1.59v-.28Z"/>
      <path class="cls-4" d="M106.91,195.86l-2.56.4c0-1.23-2.45-9.42-2.16-9.83.08-.1,2.24-.85,2.46-.41l2.26,9.84Z"/>
      <path class="cls-5" d="M96.05,167.56l4.73,8.36c.04.45-1.74,1.69-2.23,1.04l-4.8-8.19,1.15-.97,1.16-.25Z"/>
      <path class="cls-2" d="M15.97,154.12c-1.51.96-2.97,2.08-4.32,3.27-.6.53-2.3,2.55-2.76,2.76-.53.24-1.98-1-1.92-1.55.11-1.17,6.23-5.55,7.37-6.61.45-.08,1.84,1.82,1.63,2.13Z"/>
      <path class="cls-3" d="M81.36,152.8c.3-.17.74.04,1.02.19.73.37,2.57,2,3.28,2.63.54.48,3.84,3.61,3.65,4.04-.13.31-1.37,1.25-1.74,1.16-.85-1.07-7.07-5.64-7.2-6.4-.02-.1.92-1.56,1-1.61Z"/>
      <path class="cls-4" d="M33.08,143.35c.1.07.71,2.24.62,2.33-3.03.51-5.85,1.85-8.61,3.12-.92.35-1.94-1.85-1.29-2.34.59-.45,3.27-1.39,4.14-1.71.78-.29,4.65-1.72,5.14-1.4Z"/>
      <path class="cls-2" d="M106.32,225.98l-2.46,9.65c-.42.57-1.86-.25-2.47-.2.47-1.15,2.01-9.3,2.38-9.62.28-.24,2.05.18,2.54.18Z"/>
      <path class="cls-2" d="M73.06,147.06c.08.11-.85,2.43-1.43,2.13l-8.8-3.13c-.17-.58.31-2.59,1.04-2.52l9.19,3.51Z"/>
      <path class="cls-2" d="M69.7,271.06l1,2.35-9.84,3.15c-.09-.86-.6-1.64-.37-2.53l9.21-2.97Z"/>
    </g>
    <g>
      <rect class="cls-2" y="24.72" width="3.12" height="12.48"/>
      <rect class="cls-2" y="94.32" width="3.12" height="12.48"/>
      <rect class="cls-2" y="143.52" width="3.12" height="12.48"/>
      <rect class="cls-2" y="192.72" width="3.12" height="12.48"/>
      <rect class="cls-2" y="241.92" width="3.12" height="12.48"/>
      <polygon class="cls-2" points="2.88 0 3.12 12.48 0 12.48 0 0 2.88 0"/>
      <path class="cls-2" d="M0,69.6c.55.06,3.12-.23,3.12.36v12.12H0v-12.48Z"/>
      <path class="cls-2" d="M0,118.8c.55.06,3.12-.23,3.12.36v12.12H0v-12.48Z"/>
      <path class="cls-2" d="M0,168c.55.06,3.12-.23,3.12.36v12.12H0v-12.48Z"/>
      <path class="cls-2" d="M0,217.2c.55.06,3.12-.23,3.12.36v12.12H0v-12.48Z"/>
      <path class="cls-1" d="M0,266.4c.55.06,3.12-.23,3.12.36v4.2s.8-.04.96,0c-.45.97-.17,2.08-.24,3.12H0v-7.68Z"/>
      <path class="cls-5" d="M0,49.92h3.84c0,1.05-.09,2.11.24,3.12-.16.04-.96-.05-.96,0v4.32H0v-7.44Z"/>
    </g>
  </g>
</svg>