<?xml version="1.0" encoding="UTF-8"?>
<svg id="Layer_2" data-name="Layer 2" xmlns="http://www.w3.org/2000/svg" viewBox="0 0 111.65 268.31">
  <defs>
    <style>
      .cls-1 {
        fill: #646567;
      }

      .cls-2 {
        fill: #c7c8ca;
      }

      .cls-3 {
        fill: #292627;
      }

      .cls-4 {
        fill: #282627;
      }

      .cls-5 {
        fill: #8d8f92;
      }

      .cls-6 {
        fill: #282526;
      }

      .cls-7 {
        fill: #2a2728;
      }

      .cls-8 {
        fill: #606264;
      }
    </style>
  </defs>
  <g id="Layer_1-2" data-name="Layer 1">
    <g>
      <path class="cls-3" d="M0,195.31c.5-.2,2.53-.09,2.66.31l-.16,9.16c-.05.24-.29.08-.39.12l-2,.1c.02-.49-.01-.97-.12-1.44v-4.42c.07-.4.14-.78.19-1.15-.05-.42-.12-.86-.19-1.34v-1.34Z"/>
      <path class="cls-8" d="M0,203.57c.4.2.09,1.24.19,1.35.07.07,1.59-.05,1.92,0-.75.3-1.31.19-2.11.19v-1.54Z"/>
      <path class="cls-5" d="M.19,198c-.05.17-.12.17-.19,0v-1.34c.33.26.19.93.19,1.34Z"/>
      <path class="cls-1" d="M0,199.15v-1.15h.19c0,.36.13.94-.19,1.15Z"/>
      <path class="cls-3" d="M67,265.58l.19,2.3c-2.88.25-5.84.5-8.75.39-.91-.03-2.15-.12-3.06-.2-.64-.06-3.3-.32-3.57-.65-.39-.48,0-1.72.34-2.24l7.07.59,7.78-.2Z"/>
      <path class="cls-3" d="M45.3,139.24l-8.92,3.27-1.07-2.19c.04-.6,8.24-3.33,9.42-3.57l.57,2.48Z"/>
      <path class="cls-6" d="M13.18,159.06c.31-.06,1.85,1,1.71,1.52-.69.84-4.44,7.85-4.92,7.78-.39-.06-2.15-.93-2.08-1.33.86-1.15,4.26-7.77,5.29-7.97Z"/>
      <path class="cls-3" d="M42.79,262.73c.17.24-.31,2.23-.55,2.4-.62.43-7.95-3.05-9.04-3.68.27-.69.53-2.04,1.43-2l8.16,3.28Z"/>
      <path class="cls-4" d="M85.8,262.5c-2.99.97-5.86,2.51-8.88,3.26-.52-.16-.68-1.68-.9-2.17l8.37-3.38c.72-.21,1.65,1.95,1.41,2.29Z"/>
      <path class="cls-6" d="M6.94,232.97c.06-.1,1.96-.92,2.18-.42l4.44,7.67c.13.52-1.55,1.32-1.94,1.53-1.17-1.97-2.59-3.88-3.65-5.93-.29-.56-1.34-2.34-1.02-2.86Z"/>
      <path class="cls-3" d="M90.45,145.94c-.22-.38.86-2.28,1.71-2.01.74.23,4.46,3.09,5.27,3.77.46.38,2.1,1.62,1.99,2.18-.05.27-1.33,1.47-1.72,1.38-.24-.05-2.91-2.46-3.45-2.87-1.2-.9-2.46-1.75-3.8-2.45Z"/>
      <path class="cls-3" d="M19.34,247.95c.63-.09,5.73,5.61,7.07,5.92.15.29-.91,1.73-1.07,1.83-.6.37-1.54-.49-2.01-.87-1.18-.95-2.99-2.56-4.04-3.64-.41-.42-1.59-1.59-1.34-2.11.11-.25,1.1-1.09,1.39-1.13Z"/>
      <path class="cls-3" d="M82.94,139.06l-.86,2.49c-2.84-1.25-5.87-2.29-8.93-2.88l.39-2.5,9.41,2.88Z"/>
      <path class="cls-3" d="M63.93,134.83v2.5l-9.6.19c.22-.61-.59-2.24.12-2.47l9.48-.22Z"/>
      <path class="cls-4" d="M106.34,157.12c1.36,3,3.44,5.78,3.66,9.2l-2.3.39c-.5-3.06-2.21-5.7-3.62-8.39l1.43-1,.83-.2Z"/>
      <path class="cls-3" d="M1.55,185.7l2.31-9.09c.51-.72,1.57.23,2.28.37l-2.2,8.93c-.28.41-1.85-.2-2.39-.21Z"/>
      <path class="cls-3" d="M100.01,248.9c.1.07.81,2.02.7,2.28-1.53,1.47-2.96,3.09-4.62,4.42-.39.31-1.78,1.56-2.18,1.32-.12-.07-1.32-1.78-1.16-2.06.06-.1,1.54-.95,1.9-1.27,1.23-1.07,3.37-3.84,4.5-4.52.23-.14.65-.31.86-.17Z"/>
      <path class="cls-3" d="M3.27,224.11l-2.32-9.28c.04-.24,2.25-.62,2.52-.42.37.27,1.63,7.77,2.07,8.83-.07.32-2.05,1.06-2.27.88Z"/>
      <path class="cls-3" d="M28.41,147.31l-7.43,5.74-1.59-1.42,7.23-6.21c.92-.26,1.11,1.16,1.78,1.61v.28Z"/>
      <path class="cls-3" d="M104.44,241.2c.56-1.54,1.14-3.09,1.32-4.74.11-.99-.47-2.49.92-2.9,2.3-.69,1.76.98,1.57,2.53-.11.9-.87,5.27-1.51,5.6-.82.42-1.49-.52-2.31-.49Z"/>
    </g>
    <g>
      <path class="cls-7" d="M111.41,0v11.84c-.13.58-2.62.37-3.12.4V0h3.12Z"/>
      <path class="cls-2" d="M111.65,180.24h-.24c-.19-.02-.47-.09-.48-.22-.06-1.43-.35-11.04,0-11.49l.48-.29h.24v12Z"/>
      <path class="cls-2" d="M111.65,204.24h-.24c-.19-.02-.47-.09-.48-.22-.06-1.43-.35-11.04,0-11.49l.48-.29h.24v12Z"/>
      <path class="cls-2" d="M111.65,156.24h-.24c-.19-.02-.47-.09-.48-.22-.06-1.43-.35-11.04,0-11.49l.48-.29h.24v12Z"/>
      <path class="cls-2" d="M111.65,132.24h-.24c-.19-.02-.47-.09-.48-.22-.06-1.43-.35-11.04,0-11.49l.48-.29h.24v12Z"/>
      <path class="cls-2" d="M111.65,108.24h-.24c-.19-.02-.47-.09-.48-.22-.06-1.43-.35-11.04,0-11.49l.48-.29h.24v12Z"/>
      <path class="cls-2" d="M111.65,84.24h-.24c-.19-.02-.47-.09-.48-.22-.06-1.43-.35-11.04,0-11.49l.48-.29h.24v12Z"/>
      <path class="cls-2" d="M111.65,60.24h-.24c-.19-.02-.47-.09-.48-.22-.06-1.43-.35-11.04,0-11.49l.48-.29h.24v12Z"/>
      <path class="cls-2" d="M111.65,228.24h-.24c-.19-.02-.47-.09-.48-.22-.06-1.43-.35-11.04,0-11.49l.48-.29h.24v12Z"/>
      <path class="cls-7" d="M108.29,263.52v-12.48c.68.13,2.84-.35,3.09.39-.2,3.44.38,7.4.05,10.78-.19,1.98-1.58,1.16-3.13,1.31Z"/>
      <path class="cls-7" d="M111.41,48.24v12c-1.01.57-2.03.19-3.12.24v-12.24h3.12Z"/>
      <path class="cls-7" d="M111.41,72.24v12c-1.01.57-2.03.19-3.12.24v-12.24h3.12Z"/>
      <path class="cls-7" d="M111.41,96.24v12c-1.01.57-2.03.19-3.12.24v-12.24h3.12Z"/>
      <path class="cls-7" d="M111.41,120.24v12c-1.01.57-2.03.19-3.12.24v-12.24h3.12Z"/>
      <path class="cls-7" d="M111.41,168.24v12c-1.01.57-2.03.19-3.12.24v-12.24h3.12Z"/>
      <path class="cls-7" d="M111.41,144.24v12c-1.01.57-2.03.19-3.12.24v-12.24h3.12Z"/>
      <path class="cls-7" d="M111.41,216.24v12c-1.01.57-2.03.19-3.12.24v-12.24h3.12Z"/>
      <path class="cls-7" d="M111.41,192.24v12c-1.01.57-2.03.19-3.12.24v-12.24h3.12Z"/>
      <path class="cls-7" d="M111.41,233.52v11.88c0,.59-2.58.3-3.12.36v-12.24h3.12Z"/>
      <path class="cls-7" d="M111.41,24v12c0,.21-2.75.31-3.12.24v-12.24h3.12Z"/>
    </g>
  </g>
</svg>