<?xml version="1.0" encoding="UTF-8"?>
<svg id="Layer_2" data-name="Layer 2" xmlns="http://www.w3.org/2000/svg" viewBox="0 0 106.64 285.53">
  <defs>
    <style>
      .cls-1 {
        fill: #000000;
      }

      .cls-2 {
        fill: #000000;
      }

      .cls-3 {
        fill: #000000;
      }
    </style>
  </defs>
  <g id="Layer_1-2" data-name="Layer 1">
    <g>
      <path class="cls-2" d="M74.08,0c.46.2.98.2,1.44,0h3.84c.94.04,1.26.28.96.72-.07.45.09,2.31,0,2.4-3.89-.07-7.76-.03-11.61.49l-.63-2.89,4.56-.72h1.44Z"/>
      <path class="cls-1" d="M80.56,0c.12.29-.22.62-.24.72.2-.8-.57-.25-.96-.72h1.2Z"/>
      <path class="cls-1" d="M75.52,0c-.24.39-1.21.39-1.44,0h1.44Z"/>
      <path class="cls-2" d="M33.35,124.55v4.08c.3.05,1.36-.08,1.44,0,.11.1.06,2.63,0,2.98-.05.31-1.44.06-1.44.14v4.8h-3.12v-4.8h-7.44v-3.12h7.44v-4.08h3.12Z"/>
      <path class="cls-2" d="M30.23,103.49v9.06h3.12v-8.76c-1.04-.12-2.07-.22-3.12-.3Z"/>
      <rect class="cls-3" x="46.79" y="128.63" width="12" height="3.12"/>
      <path class="cls-3" d="M32.32,43.19v12h-3.12c.12-4.07-.27-8.2.24-12.24l2.88.24Z"/>
      <rect class="cls-3" x="70.79" y="128.63" width="12" height="3.12"/>
      <rect class="cls-3" x="30.23" y="148.55" width="3.12" height="12"/>
      <rect class="cls-3" x="30.23" y="172.54" width="3.12" height="12"/>
      <rect class="cls-3" x="30.76" y="199.34" width="3.12" height="12"/>
      <rect class="cls-3" x="30.23" y="227.53" width="3.12" height="12"/>
      <rect class="cls-3" x="30.23" y="251.53" width="3.12" height="12"/>
      <path class="cls-2" d="M103.59,7.7l-1.44,2.62-.32-.02c-3.12-2.25-6.71-3.7-10.24-5.15.33-.52.57-2.75,1.28-2.71.56.03,4.5,1.78,5.29,2.16,1.88.91,3.59,2.11,5.42,3.1Z"/>
      <path class="cls-2" d="M106.53,17.4l.12,11.77c.01.59-2.68.51-2.81.43-.52-.29-.05-10.5-.3-11.9l2.99-.3Z"/>
      <path class="cls-2" d="M56.01,4.35c.63-.06,1.22,1.96,1.46,2.5-3.21,1.86-6.65,3.56-9.47,6.08-.86.23-1.54-1.61-2.23-2.01,0-.35,3.73-2.95,4.34-3.34.86-.56,5.25-3.17,5.9-3.23Z"/>
      <path class="cls-2" d="M37.48,19.93l2.5,1.78c-2.22,3.02-3.86,6.44-5.14,9.96-.32.58-2.95-.67-2.96-.83,1.46-3.83,3.23-7.56,5.6-10.91Z"/>
    </g>
    <rect class="cls-3" y="128.99" width="12" height="3.12"/>
    <rect class="cls-3" x="92.62" y="128.99" width="12" height="3.12"/>
    <rect class="cls-3" x="30.21" y="273.53" width="3.12" height="12"/>
    <rect class="cls-3" x="30.22" y="82.52" width="3.12" height="12"/>
    <rect class="cls-3" x="30.22" y="62.33" width="3.12" height="12"/>
  </g>
</svg>