<?xml version="1.0" encoding="UTF-8"?>
<svg id="Layer_2" data-name="Layer 2" xmlns="http://www.w3.org/2000/svg" viewBox="0 0 97.77 447.2">
  <defs>
    <style>
      .cls-1 {
        fill: #221e1f;
      }

      .cls-2 {
        fill: #2d2b2c;
      }

      .cls-3 {
        fill: #605f60;
      }

      .cls-4 {
        fill: #fefefe;
      }

      .cls-5 {
        fill: #e2e3e4;
      }

      .cls-6 {
        fill: #2f2d2e;
      }

      .cls-7 {
        fill: #2c2a2b;
      }

      .cls-8 {
        fill: #302e2f;
      }

      .cls-9 {
        fill: #2e2c2d;
      }

      .cls-10 {
        fill: #2c292b;
      }

      .cls-11 {
        fill: #c4c4c5;
      }

      .cls-12 {
        fill: #2f2c2d;
      }

      .cls-13 {
        fill: #2e2b2c;
      }
    </style>
  </defs>
  <g id="Layer_1-2" data-name="Layer 1">
    <g>
      <path class="cls-1" d="M90.09,0c4.89.19,8.04,5.27,7.44,9.84.21.46.21,1.22,0,1.68-.88,13.51-20.45,12.65-20.55-.64-.03-4.45,2.88-9.86,7.59-10.64.68-.08,1.4-.16,2.16-.24h3.36Z"/>
      <path class="cls-2" d="M0,415.28c1.25-.7,1.76-1.44,3.13-.37,2.02,1.57,3.86,9.07,3.6,11.55-.21,2.02-2.54,1.7-4.09,2.27l-2.64-9.12v-4.32Z"/>
      <path class="cls-4" d="M90.09,0h7.68v9.84c-.07.21-.15.21-.24,0-.27-4.71-2.72-8.63-7.44-9.84Z"/>
      <path class="cls-5" d="M38.88,446.96v.24h-2.64v-.24c.43-.67,2.2-.61,2.64,0Z"/>
      <path class="cls-3" d="M86.73,0l-.58.25c-.5.06-1.1-.09-1.58,0v-.24h2.16Z"/>
      <path class="cls-11" d="M97.77,11.52h-.24c.03-.52.03-1.16,0-1.68h.24v1.68Z"/>
      <path class="cls-10" d="M65.49,439.73c-.18.28-5.32,2.17-6.08,2.44-2.37.83-6.04,2.54-7.8-.12-1.86-2.8,3.94-4.12,5.82-4.75,1.24-.41,5.57-1.88,6.55-1.87.22,0,.42,0,.6.12.39.26,1.21,3.72.92,4.18Z"/>
      <path class="cls-6" d="M90,150.08v14.16h-3.96c-.56,0-.31-2.24-.36-2.76-.43-4.36-3.45-12.82,4.32-11.4Z"/>
      <path class="cls-7" d="M83.22,418.94c.25.25.32.88.29,1.23-.15,1.68-3.29,5.89-4.45,7.33-.66.82-3.16,3.91-4.03,3.87s-2.51-1.81-2.43-2.67c.18-2.01,5.61-8.54,7.49-9.54.75-.4,2.48-.88,3.14-.22Z"/>
      <path class="cls-9" d="M90.48,122.48v14.4c-.18.06-.29-.24-.36-.24h-3.72c.34-3.78-1.64-8.05-.85-11.77.46-2.18,2.96-3.05,4.93-2.39Z"/>
      <path class="cls-9" d="M90.48,175.76v14.4l-4.08-.24c.29-3.77-1.47-7.57-.9-11.34.39-2.52,2.67-3.41,4.98-2.82Z"/>
      <path class="cls-10" d="M90.45,395.39c.38.6-1.93,12.22-1.89,13.95-.48,1.04-3.83-.4-4.25-1.44-.7-1.71.38-7.05,1.03-8.93.44-1.27,1.41-3.56,2.88-3.84.41-.08,2.07-.02,2.24.26Z"/>
      <path class="cls-8" d="M90.48,370.4v14.16c-5.39.18-5.89-8.03-4.98-11.82.65-2.7,2.66-2.35,4.98-2.34Z"/>
      <path class="cls-9" d="M90.48,245.6v14.4c-9,.68-3.11-9.46-4.08-14.4h4.08Z"/>
      <path class="cls-12" d="M90.48,200.72v14.4c-8.97.61-3.13-9.45-4.08-14.4h4.08Z"/>
      <path class="cls-12" d="M90.48,295.52v14.4c-8.97.61-3.13-9.45-4.08-14.4h4.08Z"/>
      <path class="cls-12" d="M90.48,270.56v14.4h-4.08c.86-3.92-1.78-8.37-.86-12.26.5-2.11,3.16-2.26,4.94-2.14Z"/>
      <path class="cls-9" d="M90.48,320.48v14.4c-9.05.67-3.04-9.5-4.08-14.4h4.08Z"/>
      <path class="cls-9" d="M90.48,345.44v14.4c-9.07.63-3.02-9.4-4.08-14.4h4.08Z"/>
      <path class="cls-7" d="M20.64,440.24c-1.21,6.46-9.64.44-11.88-2.4-1.46-1.85-1.51-4.96,1.33-4.21,3.46.91,6.51,6.64,10.56,6.61Z"/>
      <path class="cls-8" d="M90.48,225.68v9.36c-6.5.88-5.27-5-5.04-9.36h5.04Z"/>
      <path class="cls-13" d="M36.24,446.96c-2.02-.21-4.71-.96-4.54-3.45.29-4.27,2.57-1.92,4.48-1.41.8.21,4.39.24,4.59.57-.11,2.24.94,3.89-1.89,4.29-.63.09-1.98.07-2.64,0Z"/>
    </g>
    <path class="cls-6" d="M90.2,97.39v14.16h-3.96c-.56,0-.31-2.24-.36-2.76-.43-4.36-3.45-12.82,4.32-11.4Z"/>
    <path class="cls-9" d="M90.68,69.79v14.4c-.18.06-.29-.24-.36-.24h-3.72c.34-3.78-1.64-8.05-.85-11.77.46-2.18,2.96-3.05,4.93-2.39Z"/>
  </g>
</svg>