<?xml version="1.0" encoding="UTF-8"?>
<svg id="Layer_2" data-name="Layer 2" xmlns="http://www.w3.org/2000/svg" viewBox="0 0 91.23 275.76">
  <defs>
    <style>
      .cls-1 {
        fill: #2d2b2c;
      }

      .cls-2 {
        fill: #c8cacc;
      }

      .cls-3 {
        fill: #2b2829;
      }

      .cls-4 {
        fill: #f5f5f5;
      }

      .cls-5 {
        fill: #2b292a;
      }

      .cls-6 {
        fill: #2b282a;
      }

      .cls-7 {
        fill: #2a2728;
      }
    </style>
  </defs>
  <g id="Layer_1-2" data-name="Layer 1">
    <g>
      <path class="cls-3" d="M91.23,273.46v.19c-.2,1.3-.71,1.94-1.54,1.92l-7.12-4.5c-.39-.5.29-2.25,1.05-2.22,1.71.07,5.76,3.94,7.61,4.61Z"/>
      <path class="cls-4" d="M91.23,273.65v2.11h-1.54v-.19c.86-.37.83-1.42,1.54-1.92Z"/>
      <path class="cls-3" d="M39.91,189.96c.44-.12,1.65,1.05,1.96,1.45-2.1,2.51-4.7,4.76-6.99,7.17-.38-.56-1.88-1.38-1.54-2.1l6.57-6.51Z"/>
      <path class="cls-3" d="M68.09,162.14c.18,0,1.82,1.47,1.82,1.59-2.37,2.22-4.49,4.82-7.05,6.79-.55.08-1.81-1.22-1.5-1.89.68-.86,6.26-6.49,6.72-6.5Z"/>
      <path class="cls-7" d="M53.93,176.14c.76-.21,1.85.93,1.7,1.7l-6.34,6.35c-.72.77-2.4-1.02-2.13-1.54l6.78-6.51Z"/>
      <path class="cls-7" d="M14.52,211.67c.18,0,1.82,1.47,1.82,1.59l-7.24,6.4c-.49.12-1.92-1.35-1.69-1.89.95-.64,6.64-6.1,7.11-6.11Z"/>
      <path class="cls-7" d="M28.38,200.51l1.79,1.62c-2.1,1.7-3.92,3.81-6.05,5.47-.34.26-1.23,1.08-1.62.88-.31-.15-1.47-1.36-1.26-1.83l7.14-6.13Z"/>
      <path class="cls-6" d="M21.08,229.51c1.55,1.28,6.38,3.17,7.38,4.68.4.6-.84,2.22-1.22,2.19-.18-.02-.45-.23-.65-.32-2.18-1.08-4.43-2.96-6.61-4.15-.51-.48.72-2.33,1.1-2.39Z"/>
      <path class="cls-7" d="M66.46,260.97c-.09-.12,1.01-2.82,1.73-2.22l6.62,4.15c1.18.67-.09,2.72-1.1,2.46l-7.25-4.39Z"/>
      <path class="cls-6" d="M52.57,248.9c.44-.07,6.6,4.18,7.47,4.78.27.42-.93,2.12-1.32,2.08-.18-.02-.45-.23-.65-.32-2.2-1.09-4.39-2.99-6.61-4.15-.55-.47.69-2.33,1.1-2.39Z"/>
      <path class="cls-6" d="M82.11,148.32c.41-.03,1.46,1.29,1.82,1.59-2.27,2.27-4.56,4.61-7.05,6.6-.54.09-1.74-1.21-1.5-1.7l6.73-6.49Z"/>
      <path class="cls-5" d="M37.21,239.31c.75-.14,6.23,4,7.36,4.48.49.55-.35,2.08-1.08,2.16-1.38.14-5.6-3.94-7.18-4.46-.59-.44.44-2.09.89-2.18Z"/>
      <path class="cls-7" d="M5.72,219.92c.75-.14,6.23,4,7.36,4.48.49.55-.35,2.08-1.08,2.16-1.4.14-5.57-3.95-7.18-4.46-.59-.44.44-2.09.89-2.18Z"/>
    </g>
    <g>
      <path class="cls-1" d="M3.36,0l.24,12.48H.24C.03,8.49.04,4.04.24,0h3.12Z"/>
      <path class="cls-3" d="M0,70.32c.55.06,3.12-.23,3.12.36v12.36H0v-12.72Z"/>
      <path class="cls-3" d="M0,95.04c.55.06,3.12-.23,3.12.36v12.36H0v-12.72Z"/>
      <path class="cls-3" d="M0,119.76c.55.06,3.12-.23,3.12.36v12.36H0v-12.72Z"/>
      <path class="cls-3" d="M0,144.48c.55.06,3.12-.23,3.12.36v12.36H0v-12.72Z"/>
      <path class="cls-3" d="M0,169.2c.55.06,3.12-.23,3.12.36v12.36H0v-12.72Z"/>
      <path class="cls-3" d="M0,193.92c.55.06,3.12-.23,3.12.36v12.36H0v-12.72Z"/>
      <path class="cls-3" d="M0,218.64c.55.06,3.12-.23,3.12.36v12.36H0v-12.72Z"/>
      <path class="cls-3" d="M0,243.36c.55.06,3.12-.23,3.12.36v12.36H0v-12.72Z"/>
      <path class="cls-3" d="M0,268.08c.66.1,2.69-.25,3.02.22-.07,2.59.41,4.96.83,7.46H0v-7.68Z"/>
      <rect class="cls-2" width=".24" height="12.48"/>
      <path class="cls-2" d="M.24,33.6h-.24v-12.48h.24c.19.02.47.09.48.22.15,3.8.15,8.18,0,11.98l-.48.28Z"/>
      <path class="cls-2" d="M.24,58.32h-.24v-12.48h.24c.19.02.47.09.48.22.15,3.8.15,8.18,0,11.98l-.48.28Z"/>
      <path class="cls-1" d="M.24,33.6v-12.48c4.11-1.54,3.66,2.03,3.61,4.93-.01.68-.24,1.26-.26,1.9-.03.92.18,5.03-.09,5.43-.33.48-2.57.11-3.26.22Z"/>
      <path class="cls-1" d="M.24,58.32v-12.48c4.11-1.54,3.66,2.03,3.61,4.93-.01.68-.24,1.26-.26,1.9-.03.92.18,5.03-.09,5.43-.33.48-2.57.11-3.26.22Z"/>
    </g>
  </g>
</svg>