<?xml version="1.0" encoding="UTF-8"?>
<svg id="Layer_2" xmlns="http://www.w3.org/2000/svg" version="1.1" viewBox="0 0 11.3 275.2">
  <!-- Generator: Adobe Illustrator 29.5.0, SVG Export Plug-In . SVG Version: 2.1.0 Build 137)  -->
  <defs>
    <style>
      .st0 {
        fill: #000000;
      }

      .st1 {
        fill: #000000;
      }

      .st2 {
        fill: #000000;
      }
    </style>
  </defs>
  <g id="Layer_1-2">
    <g>
      <path class="st2" d="M3.6,218.1c.6,0,3.1-.2,3.1.4v12.1h-3.1v-12.5Z"/>
      <path class="st2" d="M3.6,242.8c.6,0,3.1-.2,3.1.4v12.1h-3.1v-12.5Z"/>
      <path class="st2" d="M3.6,119.2c.6,0,3.1-.2,3.1.4v12.1h-3.1v-12.5Z"/>
      <path class="st2" d="M3.6,168.6c.6,0,3.1-.2,3.1.4v12.1h-3.1v-12.5Z"/>
      <path class="st2" d="M3.6,69.8c.6,0,3.1-.2,3.1.4v12.1h-3.1v-12.5Z"/>
      <path class="st2" d="M3.6,193.4c.6,0,3.1-.2,3.1.4v12.1h-3.1v-12.5Z"/>
      <path class="st2" d="M3.6,143.9c.6,0,3.1-.2,3.1.4v12.1h-3.1v-12.5Z"/>
      <path class="st2" d="M3.6,94.5c.6,0,3.1-.2,3.1.4v12.1h-3.1v-12.5Z"/>
      <path class="st0" d="M6.3,50.1h-2.7v7.4h3.1v-4.3h.7c-.3-1-.7-2.1-1-3.1Z"/>
      <path class="st0" d="M7.7,272.1h-1v-4.6h-3.1v7.4c1.1,0,2.4.1,3.6.1,0-1,0-2.1.6-3h0Z"/>
      <path class="st1" d="M7.2,275h-3.6v.2h3.6c0,0,0-.2,0-.2Z"/>
    </g>
    <path class="st2" d="M4.1,0c.5,0,3.1-.2,3.1.4v12.1h-3.1V0Z"/>
    <path class="st2" d="M4.1,24.7c.5,0,3.1-.2,3.1.4v12.1h-3.1v-12.5Z"/>
  </g>
</svg>