<?xml version="1.0" encoding="UTF-8"?>
<svg id="Layer_2" data-name="Layer 2" xmlns="http://www.w3.org/2000/svg" viewBox="0 0 206.29 163.2">
  <defs>
    <style>
      .cls-1 {
        fill: #000000;
      }

      .cls-2 {
        fill: #000000;
      }

      .cls-3 {
        fill: #000000;
      }

      .cls-4 {
        fill: #000000;
      }

      .cls-5 {
        fill: #000000;
      }

      .cls-6 {
        fill: #000000;
      }

      .cls-7 {
        fill: #000000;
      }

      .cls-8 {
        fill: #000000;
      }

      .cls-9 {
        fill: #000000;
      }

      .cls-10 {
        fill: #000000;
      }
    </style>
  </defs>
  <g id="Layer_1-2" data-name="Layer 1">
    <g>
      <path class="cls-9" d="M4.01,0H0v2.64l.28.52c1.07-.04,2.14-.05,3.21-.05-.12-1.06.05-2.16.52-3.11Z"/>
      <path class="cls-10" d="M3.53,3.31c-.03-.22-.06-.45-.07-.68-1.47.06-2.91.12-3.46.01v7.68c.55-.06,3.12.23,3.12-.36v-3.01c-.27-1.22-.13-2.53.41-3.64Z"/>
      <path class="cls-2" d="M149.07,0C149.44.19,149.88.19,150.27,0h4.08C154.96.21,155.65.2,156.27,0h.48c.39.46.36,3.01-.16,3.13-3.75.07-7.55-.29-11.25.41-.48-.09-.64-2.54-.59-3.06L147.63,0h1.44Z"/>
      <path class="cls-2" d="M46.59,0C47.04.2,47.57.2,48.03,0h4.08c.5.09.98.17,1.44.24.38-.18.82-.19,1.2,0,.52.79.13,1.95.24,2.88-3,.08-6.01-.1-9.01-.01s-2.88,1.23-3.23-2.63L45.39,0h1.2Z"/>
      <path class="cls-10" d="M0,77.52v-11.52c.69.13,2.84-.35,3.09.39-.22,1.59.44,10.17-.07,10.9-.33.47-2.35.12-3.02.22Z"/>
      <rect class="cls-10" x="0" y="21.36" width="3.12" height="11.28"/>
      <rect class="cls-10" x="0" y="110.88" width="3.12" height="11.28"/>
      <path class="cls-5" d="M.45,131.99c.55.06,3.12-.23,3.12.36v10.92H.45v-11.28Z"/>
      <path class="cls-10" d="M0,88.56h3.12v10.92c0,.59-2.57.3-3.12.36v-11.28Z"/>
      <path class="cls-10" d="M0,43.68c.55.06,3.12-.23,3.12.36v10.92H0v-11.28Z"/>
      <path class="cls-8" d="M156.27,0C155.89.4,154.71.4,154.35,0h1.92Z"/>
      <path class="cls-1" d="M53.55,0c.21.07.21.15,0,.24C53.09.23,52.37.4,52.11,0h1.44Z"/>
      <path class="cls-1" d="M48.03,0C47.78.39,46.81.39,46.59,0h1.44Z"/>
      <path class="cls-1" d="M150.27,0C150.11.38,149.22.38,149.07,0h1.2Z"/>
      <path class="cls-6" d="M54.75,0v.24c-.4,0-.8,0-1.2,0V0h1.2Z"/>
      <path class="cls-3" d="M206.19,119.76h-3.12v-11.88c0-.54,3.12-.54,3.12,0v11.88Z"/>
      <path class="cls-3" d="M206.19,95.76h-3.12v-11.88c0-.54,3.12-.54,3.12,0v11.88Z"/>
      <path class="cls-3" d="M206.29,140.49h-3.12v-11.88c0-.54,3.12-.54,3.12,0v11.88Z"/>
      <path class="cls-10" d="M203.07,60.36c-.01-.1-.33-.33-.24-.6l3.12-.24c.3,4.07.25,8.16.24,12.24h-3.12c-.31-3.61.41-7.87,0-11.4Z"/>
      <path class="cls-2" d="M132.98,3.6l.7,2.86c-1.61,0-10.29,5.15-10.76,4.81-.1-.08-1.18-2.17-1.19-2.3-.02-.21.03-.32.21-.44,3.58-1.84,7.15-3.8,11.04-4.92Z"/>
      <path class="cls-2" d="M194.67,25.68c-1.46-3.55-4.02-6.57-6.47-9.48l2.05-2.03c.21-.05,1.41,1.37,1.67,1.67,2.18,2.53,3.88,5.45,5.63,8.29l-2.87,1.56Z"/>
      <path class="cls-2" d="M204.73,47.5c-.57.13-2.72.7-2.99.27l-2.48-10.98c-.05-.79,2.28-.81,2.84-1.27l2.63,11.98Z"/>
      <path class="cls-2" d="M113.54,18.24c-2.62,1.82-5.1,4.36-7.32,6.72-.31.33-.67,1.25-1.15,1.17-.29-.05-2.02-1.53-2.07-1.8-.11-.66,7.36-7.97,8.71-8.46.25.04,1.99,2.16,1.83,2.37Z"/>
      <path class="cls-2" d="M180.49,6.26c.37.52-1.25,2.13-1.19,2.86-2.23-1.05-4.53-2.19-6.9-3.06-.66-.24-4.06-1.09-4.1-1.37l.68-2.77c1.88.49,3.76,1.06,5.58,1.74.74.28,5.74,2.33,5.92,2.6Z"/>
      <path class="cls-2" d="M78.51,6.73c-.44.49-1.19,2.66-1.76,2.61l-10.48-4.63c.31-.67.38-1.6.66-2.24.13-.3-.05-.32.4-.3.96.05,4.76,1.58,5.89,2.04,1.81.74,3.54,1.65,5.29,2.52Z"/>
      <path class="cls-2" d="M10.01,15.85c-2.2,1.83-4.3,3.93-6.2,6.14v1.95c0,.76-.18,1.46-.48,2.09.4.28.78.46.99.34,2.14-3.1,4.84-5.82,7.71-8.25.05-.21-1.82-2.31-2.02-2.26Z"/>
      <path class="cls-2" d="M95.05,24.7l-2.62,1.22c-1.51-3.33-3.8-6.51-6.38-9.12-.31-.61,1.57-1.84,1.93-2.39.35,0,3.69,4.3,4.16,4.96.49.69,3.27,4.84,2.91,5.34Z"/>
      <path class="cls-2" d="M30.45,3.64c.98-.1,1.64,2.39,1.27,2.72l-10.34,4.81-1.33-2.54,10.4-5Z"/>
      <path class="cls-2" d="M100.59,155.52v4.56h-.36c.23,1.03.17,2.13-.18,3.12h3.42v-7.68h-2.88Z"/>
      <path class="cls-7" d="M100.59,63.48c.04-.37.31-1.94.62-2.01.14-.03,2.73.42,2.76.59-.6,3.76-.51,7.58-.49,11.38h-2.88c.23-3.21-.3-6.8,0-9.96Z"/>
      <rect class="cls-4" x="100.59" y="132" width="2.88" height="12"/>
      <rect class="cls-7" x="100.59" y="108.72" width="2.88" height="11.76"/>
      <rect class="cls-7" x="100.59" y="85.2" width="2.88" height="11.76"/>
    </g>
    <path class="cls-7" d="M100.12,39.69c.04-.37.31-1.94.62-2.01.14-.03,2.73.42,2.76.59-.6,3.76-.51,7.58-.49,11.38h-2.88c.23-3.21-.3-6.8,0-9.96Z"/>
    <path class="cls-3" d="M206.06,161.66h-3.12v-11.88c0-.54,3.12-.54,3.12,0v11.88Z"/>
    <path class="cls-3" d="M3.12,161.66H0v-11.88c0-.54,3.12-.54,3.12,0v11.88Z"/>
  </g>
</svg>