<?xml version="1.0" encoding="UTF-8"?>
<svg id="Layer_2" data-name="Layer 2" xmlns="http://www.w3.org/2000/svg" viewBox="0 0 135.92 284.34">
  <defs>
    <style>
      .cls-1 {
        fill: #000000;
      }

      .cls-2 {
        fill: #fff;
      }

      .cls-3 {
        fill: #000000;
      }

      .cls-4 {
        fill: #000000;
      }

      .cls-5 {
        fill: #000000;
      }

      .cls-6 {
        fill: #000000;
      }

      .cls-7 {
        fill: #000000;
      }

      .cls-8 {
        fill: #000000;
      }

      .cls-9 {
        fill: #000000;
      }

      .cls-10 {
        fill: #000000;
      }
    </style>
  </defs>
  <g id="Layer_1-2" data-name="Layer 1">
    <g>
      <path class="cls-2" d="M4.04,4.04c.11-.44.26-.87.47-1.27H0v2.64l.35.48h3.3c.03-.64.16-1.27.4-1.85Z"/>
      <path class="cls-10" d="M0,162.37v-12.72c.69.13,2.84-.35,3.09.39-.24,1.72.47,11.33-.07,12.1-.33.47-2.35.12-3.02.22Z"/>
      <path class="cls-10" d="M0,87.73v-12.72c.69.13,2.84-.35,3.09.39-.24,1.72.47,11.33-.07,12.1-.33.47-2.35.12-3.02.22Z"/>
      <rect class="cls-10" y="199.57" width="3.12" height="12.48"/>
      <rect class="cls-10" y="124.93" width="3.12" height="12.48"/>
      <rect class="cls-10" y="50.29" width="3.12" height="12.48"/>
      <path class="cls-10" d="M0,174.61c.55.06,3.12-.23,3.12.36v12.12H0v-12.48Z"/>
      <path class="cls-10" d="M0,99.97c.55.06,3.12-.23,3.12.36v12.12H0v-12.48Z"/>
      <path class="cls-10" d="M0,25.33c.55.06,3.12-.23,3.12.36v12.12H0v-12.48Z"/>
      <path class="cls-9" d="M3.68,5.41H0v7.68c.55-.06,3.12.23,3.12-.36v-4.2h1.04c-.45-.96-.61-2.06-.47-3.12Z"/>
      <path class="cls-4" d="M3.94,228.85h-.82v-4.2c0-.59-2.57-.3-3.12-.36v7.68h2.71c.07-1.15.48-2.27,1.23-3.12Z"/>
      <path class="cls-4" d="M62.96,0c.58.09,1.14.17,1.68.24.46-.07.94-.15,1.44-.24.08,0,.16,0,.24,0,.04,0,.18.2.38.22.91.1,1.84-.03,2.74.26-.5.73-.05,1.79-.27,2.48-.29.87-2.44.17-3.2.14-3-.09-6.02.09-9.01.01-.01-.6.03-1.2,0-1.8s-.63-1.21.24-1.08c.39-.17.87-.25,1.44-.24h4.32Z"/>
      <path class="cls-6" d="M135.92,85.44h-.24c-.7-1.6-.68-3.68,0-5.28h.24v5.28Z"/>
      <path class="cls-8" d="M64.64,0c.21.07.21.15,0,.24-.52,0-1.36.17-1.68-.24h1.68Z"/>
      <path class="cls-5" d="M66.08,0c-.26.4-.99.24-1.44.24V0h1.44Z"/>
      <polygon class="cls-3" points="58.64 0 57.2 .24 57.2 0 58.64 0"/>
      <path class="cls-4" d="M20.62,149.04c-1.71-1.4-3.52-2.72-5.18-4.19-.67-.59-2.9-3.18-3.35-3.37-.28-.12-.55.27-.83.26-.95-.01-2.01-.26-3.01-.13v2.71c.18.15.34.31.49.48,1.16.27,2.04.92,2.63,1.77v-1.36l7.8,6.48c.27-.78,1.86-1.9,1.45-2.64Z"/>
      <path class="cls-4" d="M3.8,127.43c.05-.12.33-.31.71-.53-.68-.72-1.31-1.48-1.93-2.27l-2.16,1.14c-.5.79,1.55,6.14,2.17,7.2.46-.48,2.33-.74,2.5-1.35.17-.58-1.62-3.48-1.3-4.18Z"/>
      <path class="cls-4" d="M6.38,37.24c.15-.26.31-.5.47-.74-.21-1.14,1.24-3.04,1.14-4.32l-2.48-.98c-.63.14-2.17,6.22-2.29,7.18l2.2,1.17c.24-.8.55-1.58.97-2.32Z"/>
      <path class="cls-4" d="M122.73,125.04c.18-.13,2.85,1.22,2.85,1.56l-6.81,10.43-2.27-1.79,6.23-10.2Z"/>
      <path class="cls-4" d="M21.84,12.76c.71-.07,1.46,1.83,1.99,2.25l-9.35,7.69-1.92-1.93c0-.61,8.56-7.94,9.28-8.01Z"/>
      <path class="cls-4" d="M127.03,42.7c-.83.06-2.03,1.42-2.74.74l-5.65-10.21,2.42-1.45c.9,1.25,6.45,10.26,5.98,10.92Z"/>
      <path class="cls-4" d="M42.06,159.86l-.71,2.85c-.35.25-6.44-2.19-7.35-2.59-.96-.42-3.04-1.21-3.77-1.75-.98-.73.5-1.88.59-2.84,3.75,1.25,7.34,3.28,11.24,4.33Z"/>
      <path class="cls-4" d="M113.12,22.32c-.86-.03-1.69,1.94-2.4,1.58l-8.3-7.32c-.8-.47,1.06-2.98,1.81-2.53,1.99,1.68,4.11,3.26,6.01,5.04.66.62,2.2,1.99,2.64,2.64.14.2.33.25.23.6Z"/>
      <path class="cls-4" d="M80.72,5.76l.74-2.86c.53-.37,11.59,3.79,11.68,4.41-.26.59-.8,2.52-1.49,2.53-3.54-1.6-7.11-3.27-10.93-4.08Z"/>
      <path class="cls-4" d="M108.48,144.26l2.24,2.02c-1.49,1.46-3.06,2.89-4.68,4.19-.95.76-3.64,2.98-4.54,3.39-.24.11-.28.3-.61.12-.26-.14-1.68-2.09-1.33-2.54l8.92-7.18Z"/>
      <path class="cls-4" d="M90.08,160.32l-11.65,3.8c-.41-.08-.68-2.25-.83-2.72l10.97-3.93c.63-.06,1.42,2.27,1.52,2.85Z"/>
      <polygon class="cls-4" points="133.76 102.96 130.62 114.94 127.77 114.23 130.89 102.49 133.76 102.96"/>
      <path class="cls-4" d="M44.72,2.16l.46,2.86-11.26,4.1-.95-2.86c3.81-1.6,7.67-3.36,11.74-4.1Z"/>
      <path class="cls-4" d="M134.49,66.24l-2.77.42-.24-.17-2.49-11.76,2.51-.68c.68.12,2.87,10.67,2.99,12.18Z"/>
      <path class="cls-7" d="M65.84,162.72v3.12c-4.16-.1-8.37.31-12.48-.49.29-.7,0-2.63.63-2.84l6.44.46,5.41-.25Z"/>
      <path class="cls-1" d="M135.68,85.44c-.03,1.85.08,3.69-.24,5.52l-2.88-.24c-.18-3.17.35-6.32.25-9.49-.02-.7-.48-2.06-.15-2.52s2.35-.12,3.02-.23c.01.56-.02,1.12,0,1.68.05,1.75.03,3.53,0,5.28Z"/>
    </g>
    <rect class="cls-10" x=".05" y="271.86" width="3.12" height="12.48"/>
    <path class="cls-10" d="M.05,246.9c.55.06,3.12-.23,3.12.36v12.12H.05v-12.48Z"/>
  </g>
</svg>