<?xml version="1.0" encoding="UTF-8"?>
<svg id="Layer_2" data-name="Layer 2" xmlns="http://www.w3.org/2000/svg" viewBox="0 0 86.65 163.43">
  <defs>
    <style>
      .cls-1 {
        fill: #646567;
      }

      .cls-2 {
        fill: #272425;
      }

      .cls-3 {
        fill: #282526;
      }
    </style>
  </defs>
  <g id="Layer_1-2" data-name="Layer 1">
    <g>
      <rect class="cls-3" y="7.43" width="3.12" height="12"/>
      <rect class="cls-3" y="31.43" width="3.12" height="12"/>
      <rect class="cls-3" y="79.43" width="3.12" height="12"/>
      <rect class="cls-3" y="103.43" width="3.12" height="12"/>
      <rect class="cls-3" y="127.43" width="3.12" height="12"/>
      <rect class="cls-3" y="151.43" width="3.12" height="12"/>
      <path class="cls-3" d="M0,55.43c.55.06,3.12-.23,3.12.36v11.64H0v-12Z"/>
      <path class="cls-2" d="M51.36.34c.34.26.77.34,1.18.23l3.53.69c.41.28.93.38,1.41.27l.24.05-.36,3.11c-3.87-.69-7.72-1.83-11.68-1.54l.13-3.15,4.37.11,1.18.23Z"/>
      <path class="cls-1" d="M61.35,4.81c-.31.34-1.26.15-1.41-.27l1.41.27Z"/>
      <path class="cls-1" d="M56.41,3.85c-.23.34-1.1.17-1.18-.23l1.18.23Z"/>
      <path class="cls-2" d="M3.88,43.38l2.68-8.25-2.97-.96-2.56,7.87c1.06.19,2.06.66,2.84,1.35Z"/>
      <path class="cls-2" d="M34.79,1.74c.18,0,1.65,2.36,1.31,2.82l-9.77,6.23-1.74-2.11c3.01-2.82,6.63-4.9,10.2-6.94Z"/>
      <path class="cls-2" d="M11.83,28.69l-2.92-1.46c.76-1.32,6.18-10.1,7.18-9.96.14.02,2.09,1.64,2.05,1.85-2.26,3.06-4.85,6.01-6.3,9.57Z"/>
    </g>
    <path class="cls-2" d="M70.3,6.59c.23.36.6.59,1.03.62l3.09,1.85c.29.4.74.67,1.23.74l.21.12-1.4,2.8c-3.4-1.97-6.63-4.36-10.45-5.44l1.2-2.92,4.07,1.6,1.03.62Z"/>
    <path class="cls-1" d="M75.65,9.81c-.41.21-1.24-.29-1.23-.74l1.23.74Z"/>
    <path class="cls-1" d="M71.33,7.21c-.33.24-1.09-.21-1.03-.62l1.03.62Z"/>
    <path class="cls-2" d="M84.12,23.61c-.03.42.14.83.47,1.1l1.41,3.31c0,.5.2.98.56,1.33l.09.22-2.78,1.44c-1.59-3.59-2.8-7.42-5.26-10.54l2.68-1.66,2.35,3.69.47,1.1Z"/>
    <path class="cls-1" d="M86.56,29.36c-.46-.07-.83-.97-.56-1.33l.56,1.33Z"/>
    <path class="cls-1" d="M84.59,24.72c-.41,0-.76-.81-.47-1.1l.47,1.1Z"/>
  </g>
</svg>