<?xml version="1.0" encoding="UTF-8"?>
<svg id="Layer_2" data-name="Layer 2" xmlns="http://www.w3.org/2000/svg" viewBox="0 0 117.88 170.97">
  <defs>
    <style>
      .cls-1 {
        fill: #272425;
      }
    </style>
  </defs>
  <g id="Layer_1-2" data-name="Layer 1">
    <g>
      <path class="cls-1" d="M59.76,0c.58.09,1.14.17,1.68.24.46-.07.94-.15,1.44-.24h.24c.57.58,2.13-.09,2.54.47.22.3-.38,2.29-.14,2.89l-12-.24V.24c.5-.08,1.06-.16,1.68-.24h4.56Z"/>
      <path class="cls-1" d="M59.53,170.97l-11.95-.65c-.75-.34-.02-2.25-.04-2.94l11.59.5c.74.24.26,2.41.39,3.09Z"/>
      <path class="cls-1" d="M117.85,123.93c-.68-.13-2.84.35-3.09-.39-.32-.99.05-4.35-.04-5.72-.11-1.72-.46-3.58-.73-5.28.05-.74,2.85-1.15,3.09-.44.57,3.92.9,7.87.76,11.84Z"/>
      <path class="cls-1" d="M91.69,163.29c-.01-1.18-1.87-2.09-.71-2.99,1.62-1.26,4.23-2.46,6.07-3.77.57-.41,2.55-2.26,2.97-2.33.58-.09,1.43,1.68,1.99,2.02.08.36-3.21,2.79-3.76,3.18-.73.52-6.21,4.14-6.55,3.88Z"/>
      <path class="cls-1" d="M18.84,11.31l1.8,2.49c-3.08,2.23-6.03,4.71-8.4,7.71-.3.2-2.23-1.44-2.3-1.57-.11-.19-.16-.3,0-.49,2.58-3.11,5.66-5.74,8.89-8.13Z"/>
      <path class="cls-1" d="M21.48,74.17c.26.37-.99,2.61-1.33,2.71-.79.23-10.14-6.09-10.07-6.88.46-.51,1.37-2.11,2.05-1.99.39.07,2.22,1.87,2.77,2.26.85.62,1.81,1.22,2.7,1.8.65.42,3.75,1.93,3.88,2.11Z"/>
      <path class="cls-1" d="M103.7,94.12c.31-.16.44-.06.71.05.94.38,3.54,2.39,4.45,3.12.65.52,4.71,4.08,4.55,4.55l-2.21,1.82c-2.57-2.86-5.65-5.18-8.88-7.23-.1-.26,1.14-2.2,1.38-2.32Z"/>
      <path class="cls-1" d="M80.39,168.07c-.35.5-10.58,2.36-11.98,2.42l-.24-3.12,11.18-2.15c.71-.06,1.18,2.66,1.04,2.85Z"/>
      <path class="cls-1" d="M92.88,12.41c-.11-.14,1.43-2.59,1.58-2.62.66-.16,9.93,6.66,9.93,7.31-.47.34-1.75,2.05-2.17,1.95-2.94-2.41-5.92-4.97-9.35-6.63Z"/>
      <path class="cls-1" d="M43.19,85.25l-11.85-3.3.95-2.97,11.12,3.24c.7.46-.42,2.25-.22,3.03Z"/>
      <path class="cls-1" d="M3.11,54.01c.57,3.87,1.51,7.7,3.13,11.27l-2.76,1.2c-1.66-3.87-2.98-8.01-3.24-12.24l2.87-.23Z"/>
      <path class="cls-1" d="M115.68,135.94c.65.75-4.21,10.14-5.39,11.26l-2.5-1.78c2.18-3.05,4.14-6.53,5.02-10.2l2.87.73Z"/>
      <path class="cls-1" d="M2.87,42.47l-2.87-.23c.22-3.81,1.28-8.18,2.85-11.66.11-.24-.13-.37.38-.35s2.52.82,2.53,1.32c0,.34-1.38,3.57-1.62,4.4-.61,2.14-.96,4.33-1.28,6.52Z"/>
      <path class="cls-1" d="M5.17,148.66l9.13,7.19.08.33-1.41,2.21c-.61.36-8.85-6.39-9.84-7.45l2.04-2.28Z"/>
      <path class="cls-1" d="M35.29,168.09l-11.28-3.72c-.65-.6.7-2.22.73-3.01l11.04,3.72c.5.34-.48,2.37-.49,3Z"/>
      <path class="cls-1" d="M41.52,1.68l.45,2.74-.21.26-11.04,3.48c-.04-.73-1.45-2.43-.72-3l11.52-3.48Z"/>
      <path class="cls-1" d="M65.56,88.93l-11.93-.24c-.13-.08-.21-2.67-.11-2.95.19-.56,10.52.18,11.79.16.77.35-.06,2.29.26,3.03Z"/>
      <path class="cls-1" d="M88.3,8.86l-11.26-3.34c-.1-.11.44-2.63.6-2.89.2-.33.34-.1.54-.08.97.1,2.59.68,3.6.98,1.58.47,5.94,1.72,7.11,2.49.84.55-.52,2.02-.6,2.83Z"/>
    </g>
    <path class="cls-1" d="M89.39,94.01l-12.2-1.62.53-3.07,11.47,1.66c.76.36-.1,2.29.2,3.03Z"/>
    <path class="cls-1" d="M106.2,23.2c-.08-.16,1.9-2.27,2.05-2.27.68-.03,8.48,8.43,8.36,9.07-.52.24-2.11,1.68-2.5,1.5-2.43-2.93-4.87-6.01-7.91-8.29Z"/>
  </g>
</svg>