<?xml version="1.0" encoding="UTF-8"?>
<svg id="Layer_2" data-name="Layer 2" xmlns="http://www.w3.org/2000/svg" viewBox="0 0 144.66 162.04">
  <defs>
    <style>
      .cls-1 {
        fill: #272425;
      }
    </style>
  </defs>
  <g id="Layer_1-2" data-name="Layer 1">
    <g>
      <polygon class="cls-1" points="132.48 30.12 129.61 28.81 134.53 17.88 137.25 19.2 132.48 30.12"/>
      <polygon class="cls-1" points="113.03 74.05 110.15 72.71 115.1 61.79 117.82 63.12 113.03 74.05"/>
      <path class="cls-1" d="M57.11,127.83l4.53,10.92-2.72,1.32-4.69-10.94c-.06-.46.06-.29.3-.41.34-.17,2.43-1.03,2.57-.9Z"/>
      <path class="cls-1" d="M74.15,161.64c-.18.13-2.22-.72-2.57-.89-.24-.12-.37.06-.3-.41l4.92-10.93c.49.58,2.52.84,2.53,1.55l-4.57,10.69Z"/>
      <path class="cls-1" d="M120.02,50.98l4.66-11.02c.23-.35.28-.13.52-.05.37.14,2.17.98,2.23,1.16.17.56-4.2,9.3-4.67,10.66-.48.53-2.04-.68-2.74-.74Z"/>
      <path class="cls-1" d="M98.13,106.71c.4.62-4.21,9.57-4.55,10.99l-2.86-.95,4.68-10.8c.25-.54,2.65.63,2.73.76Z"/>
      <path class="cls-1" d="M47.74,105.76l4.56,10.92-2.76,1.31-4.68-10.92c-.06-.43.08-.29.3-.41.34-.19,2.37-1.03,2.57-.89Z"/>
      <path class="cls-1" d="M63.59,150.88c.67.03,2.35-1.19,2.75-.74l4.45,10.93c-.67.13-2.35,1.39-2.76.84l-4.44-11.03Z"/>
      <path class="cls-1" d="M100.56,94.92c-.42-.45,4.29-10.05,4.91-11.25.49.53,2.56.77,2.49,1.49l-4.65,10.49c-.55.62-1.94-.92-2.76-.73Z"/>
      <polygon class="cls-1" points="38.38 83.68 42.92 94.6 40.19 95.91 35.5 84.77 38.38 83.68"/>
      <path class="cls-1" d="M10.28,17.46c.5.32,3.81,9.63,4.6,10.88l-2.54,1.1-4.88-10.73c-.05-.5,2.45-1.49,2.82-1.25Z"/>
      <path class="cls-1" d="M19.65,39.53l4.59,10.89-2.54,1.09-4.91-10.91c.46-.27,2.51-1.33,2.86-1.07Z"/>
      <path class="cls-1" d="M29,61.61l4.57,10.91c-.63.25-2.47,1.5-2.99.83l-4.45-10.67c.47-.27,2.5-1.33,2.86-1.07Z"/>
      <path class="cls-1" d="M83.75,139.81l-2.87-1.32,4.93-10.93c.55.32,2.79.83,2.72,1.52l-4.77,10.73Z"/>
    </g>
    <path class="cls-1" d="M2.86.22l4.59,10.89-2.54,1.09L0,1.29C.46,1.02,2.51-.04,2.86.22Z"/>
    <path class="cls-1" d="M137.25,11.22L141.91.19c.23-.35.28-.13.52-.05.37.14,2.17.98,2.23,1.16.17.56-4.2,9.3-4.67,10.66-.48.53-2.04-.68-2.74-.74Z"/>
  </g>
</svg>