<?xml version="1.0" encoding="UTF-8"?>
<svg id="Layer_2" data-name="Layer 2" xmlns="http://www.w3.org/2000/svg" viewBox="0 0 190.48 165.91">
  <defs>
    <style>
      .cls-1 {
        fill: #000000;
      }
    </style>
  </defs>
  <g id="Layer_1-2" data-name="Layer 1">
    <g>
      <path class="cls-1" d="M151.05,152.87l3.8,10.99-.04.57c-1.03-.22-2.47,1.54-2.94.22l-3.72-10.66c.07-.34,2.4-.97,2.9-1.11Z"/>
      <path class="cls-1" d="M134.95,107.72l3.81,10.98c-.07.8-2.07.83-2.62,1.35l-4.13-11.45,2.94-.87Z"/>
      <path class="cls-1" d="M130.68,96.58c-.76-.13-2.33,1.14-2.8.54l-3.91-10.79c-.02-.72,2.07-.82,2.59-1.32,1.62,3.7,3.03,7.63,4.11,11.56Z"/>
      <path class="cls-1" d="M164.63,130.44l-2.41,11.9c-.61-.17-2.94-.24-2.98-.92l2.41-11.59,2.97.61Z"/>
      <path class="cls-1" d="M48.94,154.25l-3.07,11.5c-.17.51-2.7-.3-2.8-.41-.44-.53,2.79-10.23,2.89-11.69l2.97.6Z"/>
      <path class="cls-1" d="M61.63,107.95l-3.07,11.5c-.17.51-2.7-.3-2.8-.41-.44-.52,2.8-10.22,2.89-11.69l2.97.6Z"/>
      <path class="cls-1" d="M159.78,154.01l-2.41,11.9-2.97-.61,2.32-11.65c.25-.48,2.47.46,3.06.36Z"/>
      <polygon class="cls-1" points="67.99 84.93 64.84 96.68 62.09 95.92 65.04 84.34 67.99 84.93"/>
      <path class="cls-1" d="M142.98,130.43l3.83,10.97c.03.45-.12.28-.33.39-1.84.92-2.24,1.17-2.98-.67-1.28-3.16-2.2-6.62-3.45-9.82.48-.23,2.6-1.15,2.93-.87Z"/>
      <polygon class="cls-1" points="55.3 131.22 52.15 142.97 49.4 142.21 52.35 130.63 55.3 131.22"/>
      <path class="cls-1" d="M31.72,106.14l3.04,11.64-2.84.89-3.13-11.45c0-.68,2.36-.88,2.92-1.07Z"/>
      <path class="cls-1" d="M8.9,20l3.07,11.39c-.77.11-2.68,1.37-3.11.46l-2.89-11.2c.04-.19,2.64-.88,2.93-.64Z"/>
      <path class="cls-1" d="M23.21,75.36l-2.91.51-2.81-11.61c.65-.05,2.44-.95,2.79-.41l2.93,11.51Z"/>
      <path class="cls-1" d="M37.91,141.69l-3.03-11.4c.03-.17,2.96-1.43,3.08-.46l2.86,10.79c.01.69-2.76,1.19-2.91,1.06Z"/>
      <rect class="cls-1" x="14.46" y="43.04" width="3.03" height="12.14" transform="translate(-11.8 5.57) rotate(-14.51)"/>
      <path class="cls-1" d="M25.62,83.12l2.84,11.15c-.07.78-2,.7-2.61,1.09l-3.17-11.59c.05-.19,2.71-.88,2.94-.65Z"/>
      <path class="cls-1" d="M44.1,152.73l2.84,11.15c-.07.75-2.19.81-2.84,1.11l-2.95-11.41c.02-.22-.03-.25.18-.37.27-.16,2.6-.66,2.77-.49Z"/>
      <path class="cls-1" d="M169.21,106.93c.42.45-2.09,10.41-2.15,11.85-.61-.17-2.94-.24-2.98-.92l2.35-11.1c.19-.51,2.68.06,2.78.17Z"/>
      <path class="cls-1" d="M174.07,83.35l-2.18,11.85-2.93-.36,2.32-11.65c.35-.61,2.08.36,2.79.15Z"/>
      <path class="cls-1" d="M183.77,39.58l-2.15,11.85c-.83-.26-2.99-.09-3-1.14l2.24-11.09,2.92.38Z"/>
      <path class="cls-1" d="M187.79,17.47l-2.15,11.85c-.11.13-3.32-.35-3-1.15l2.24-11.08,2.92.38Z"/>
      <path class="cls-1" d="M179.19,59.98l-2.46,11.64-2.91-.36,2.31-11.64c.25-.48,2.47.46,3.06.36Z"/>
    </g>
    <path class="cls-1" d="M76.21,59.28l-3.07,11.5c-.17.51-2.7-.3-2.8-.41-.44-.53,2.79-10.23,2.89-11.69l2.97.6Z"/>
    <path class="cls-1" d="M90.95,21.62l-3.07,11.5c-.17.51-2.7-.3-2.8-.41-.44-.52,2.8-10.22,2.89-11.69l2.97.6Z"/>
    <polygon class="cls-1" points="84.29 38.61 81.13 50.36 78.39 49.6 81.33 38.02 84.29 38.61"/>
    <path class="cls-1" d="M118.68,66.32l3.81,10.98c-.07.8-2.07.83-2.62,1.35l-4.13-11.45,2.94-.87Z"/>
    <path class="cls-1" d="M114.41,55.18c-.76-.13-2.33,1.14-2.8.54l-3.91-10.79c-.02-.72,2.07-.82,2.59-1.32,1.62,3.7,3.03,7.63,4.11,11.56Z"/>
    <path class="cls-1" d="M105.52,34.77c-.76-.13-2.33,1.14-2.8.54l-3.91-10.79c-.02-.72,2.07-.82,2.59-1.32,1.62,3.7,3.03,7.63,4.11,11.56Z"/>
    <rect class="cls-1" x="1.47" y=".19" width="3.03" height="12.14" transform="translate(-1.47 .95) rotate(-14.51)"/>
    <path class="cls-1" d="M190.48.69l-2.46,11.64-2.91-.36,2.31-11.64c.25-.48,2.47.46,3.06.36Z"/>
    <path class="cls-1" d="M94.83,4.23c-.22.37-.48.71-.8,1l-2.66,10.48,2.74.76,3.16-11.75-2.44-.49Z"/>
    <path class="cls-1" d="M95.25,3.34c-.39,1.08-1.12,2.02-2.2,2.57l3.04,8.39c.47.6,2.03-.66,2.8-.54-.97-3.53-2.22-7.06-3.64-10.42Z"/>
  </g>
</svg>