<?xml version="1.0" encoding="UTF-8"?>
<svg id="Layer_2" data-name="Layer 2" xmlns="http://www.w3.org/2000/svg" viewBox="0 0 184.03 196.99">
  <defs>
    <style>
      .cls-1 {
        fill: #000000;
      }

      .cls-2 {
        fill: #000000;
      }

      .cls-3 {
        fill: #000000;
      }

      .cls-4 {
        fill: #000000;
      }

      .cls-5 {
        fill: #000000;
      }
    </style>
  </defs>
  <g id="Layer_1-2" data-name="Layer 1">
    <g>
      <path class="cls-5" d="M90.86.06c-1.33.82-2.63,3.51-2.87,4.68-.22,1.08.9,1.98,1.87,1.48.44-.23.83-1.02,1.15-1.8-.13-1.44-.18-2.9-.15-4.35Z"/>
      <path class="cls-1" d="M91.5.25c-.14.95-.3,1.89-.47,2.83.82-.09,1.59-.23,2.1-.33,1.79-.35,2.23-1.57.79-2.75l-2.41.25Z"/>
      <path class="cls-4" d="M0,196.33l.15-1.43c.89-.91,1.79-4.95,3.07-4.99.79-.02,1.5.41,1.45,1.24-.03.58-2.01,5.01-2.41,5.42-.71.72-1.64.44-2.26-.23Z"/>
      <path class="cls-1" d="M90.86,96.75h6.24c.57,0,1.54,2.33-1.2,2.64-1.91.22-7.55.5-5.04-2.64Z"/>
      <path class="cls-1" d="M60.86,96.75h6.24c.57,0,1.54,2.33-1.2,2.64-1.91.22-7.55.5-5.04-2.64Z"/>
      <path class="cls-1" d="M75.44,97.04c.39-.39,5.53-.44,6.3-.29,1.48.29,1.22,2.25-.29,2.58-.86.19-4.98.16-5.66-.23s-.88-1.53-.35-2.06Z"/>
      <path class="cls-1" d="M105.44,97.04c.39-.39,5.53-.44,6.3-.29,1.48.29,1.22,2.25-.29,2.58-.86.19-4.98.16-5.66-.23s-.88-1.53-.35-2.06Z"/>
      <path class="cls-1" d="M120.86,96.75h6.24c.27,0,1.68,2.31-1.2,2.64-1.91.22-7.55.5-5.04-2.64Z"/>
      <path class="cls-5" d="M28.54,135.42c.84-.04,1.46.81,1.3,1.61-.07.36-2.09,4.73-2.3,4.99-.96,1.16-2.65.37-2.37-1.02.08-.41,1.93-4.45,2.2-4.84.26-.37.71-.71,1.17-.73Z"/>
      <path class="cls-5" d="M67.26,54.08c.14.18.21.6.2.83-.02.79-1.6,4.44-2.1,5.19-.99,1.49-2.72.63-2.44-.83.07-.4,2.01-4.72,2.26-5.05.47-.63,1.61-.72,2.08-.13Z"/>
      <path class="cls-5" d="M72.34,40.11c.97-.07,1.65.64,1.46,1.59-.07.36-2.17,4.92-2.37,5.13-.88.96-2.56.21-2.21-1.35.09-.4,1.97-4.54,2.2-4.85s.53-.49.91-.52Z"/>
      <path class="cls-5" d="M137.47,91.29c.22.2,2.41,5.01,2.45,5.35.15,1.36-1.61,1.98-2.4.93-.26-.35-2.27-4.9-2.31-5.27-.12-1.2,1.48-1.7,2.26-1.01Z"/>
      <path class="cls-4" d="M103.91,23.38c.67-.82,1.82-.39,2.33.36.25.37,2.15,4.53,2.19,4.82.17,1.22-1.52,2.01-2.35,1.04-.22-.25-2.2-4.57-2.3-5-.09-.37-.11-.92.13-1.22Z"/>
      <path class="cls-5" d="M75.61,33.12c-.24-.3-.22-.85-.13-1.22.1-.43,2.08-4.75,2.3-5,.83-.97,2.52-.18,2.35,1.04-.04.29-1.94,4.45-2.19,4.82-.51.75-1.66,1.18-2.33.36Z"/>
      <path class="cls-5" d="M179.48,186.78c.38-.47,1.62-.65,2.08-.13.29.33,2.35,4.64,2.44,5.09.29,1.46-1.43,2.38-2.46.86-.27-.39-2.09-4.21-2.19-4.6-.09-.36-.11-.93.13-1.22Z"/>
      <path class="cls-5" d="M117.22,50.19c.31-.09.47-.1.78,0,.75.25,3.14,5.27,2.96,6.1-.21,1-1.58,1.28-2.24.57-.18-.2-2.27-4.54-2.37-4.91-.22-.77.08-1.51.87-1.75Z"/>
      <path class="cls-5" d="M122.9,64.1c.77-.96,1.8-.13,2.31.66.35.55,1.94,3.98,2.04,4.52.27,1.46-1.45,2.33-2.44.83-.5-.75-2.08-4.4-2.1-5.19,0-.23.06-.65.2-.83Z"/>
      <path class="cls-5" d="M156.23,132.03c.25.19,2.48,4.93,2.55,5.36.21,1.39-1.42,2.07-2.26,1.16-.19-.21-2.29-4.77-2.37-5.13-.25-1.26,1.2-2.07,2.08-1.39Z"/>
      <path class="cls-5" d="M34.55,121.82c1.02-.18,1.72.71,1.54,1.63-.08.4-1.94,4.46-2.21,4.84-.99,1.42-2.61.3-2.45-.89.04-.3,1.94-4.45,2.19-4.82.21-.3.55-.69.92-.76Z"/>
      <path class="cls-5" d="M160.69,145.8c.47-.58,1.62-.49,2.08.13.23.3,2.23,4.71,2.28,5.03.21,1.5-1.53,2.14-2.27,1.15-.27-.37-2.04-4.14-2.16-4.62s-.25-1.3.07-1.7Z"/>
      <path class="cls-5" d="M22.26,149.02c.98,0,1.46.86,1.25,1.77-.1.43-1.99,4.52-2.22,4.81-.96,1.16-2.65.37-2.37-1.02.08-.41,1.93-4.45,2.2-4.84.25-.36.69-.71,1.14-.71Z"/>
      <path class="cls-5" d="M173.98,172.64c.4-.09,1.02.11,1.32.42.21.22,2.19,4.53,2.31,4.98.41,1.6-1.27,2.43-2.35,1-.34-.45-2.05-4.09-2.17-4.63-.16-.72.1-1.61.89-1.78Z"/>
      <path class="cls-4" d="M97.97,9.51c.38-.16.88-.2,1.27-.06.68.24,2.93,5.33,2.77,6.18-.18.94-1.69,1.13-2.29.24-.56-.84-2.45-4.87-2.3-5.69.05-.29.27-.55.54-.66Z"/>
      <path class="cls-5" d="M167.75,159.03c.49-.13.98.09,1.29.46.28.33,2.02,4.12,2.15,4.63.46,1.83-.99,2.91-2.18,1.34-.38-.5-2.01-4-2.16-4.63-.21-.83,0-1.57.9-1.8Z"/>
      <path class="cls-2" d="M40.8,108.23c.69-.12,1.51.36,1.61,1.03.06.37-2.03,5.2-2.37,5.6-.84.97-2.52.18-2.35-1.04.04-.3,1.94-4.45,2.19-4.82.21-.3.55-.7.92-.76Z"/>
      <path class="cls-3" d="M143.73,104.86c.23.19,2.45,5.08,2.49,5.39.17,1.19-1.44,1.92-2.25,1.11-.27-.27-2.38-4.81-2.46-5.26-.24-1.36,1.47-1.85,2.21-1.24Z"/>
      <path class="cls-5" d="M84.6,12.93c.93-.18,1.93.43,1.79,1.43-.04.3-2.05,4.65-2.29,4.97-1,1.31-2.64.4-2.36-1.01.09-.45,1.9-4.38,2.21-4.84.18-.26.31-.48.65-.54Z"/>
      <path class="cls-5" d="M110.72,36.64c.89-.38,1.42.14,1.86.84.27.43,2.06,4.34,2.11,4.66.18,1.27-1.65,2.17-2.53.72-.36-.59-2.02-4.14-2.12-4.68s.19-1.33.69-1.54Z"/>
      <path class="cls-4" d="M59.22,67.48c.63-.42,1.83.03,1.98.8s-1.77,4.99-2.29,5.7c-.9,1.21-2.61.28-2.22-1.37.11-.44,2.29-4.96,2.53-5.12Z"/>
      <path class="cls-2" d="M53.75,80.93c1.18.07,1.31,1.06,1.07,2.01-.1.38-2.09,4.56-2.27,4.76-.56.61-2.02.42-2.2-.38-.21-.89,1.95-5.55,2.65-6.09.2-.15.5-.31.76-.3Z"/>
      <path class="cls-5" d="M149.98,118.45c.23.19,2.49,4.98,2.55,5.37.18,1.24-1.65,1.93-2.31,1.14-.18-.22-2.35-4.8-2.4-5.07-.25-1.27,1.25-2.17,2.16-1.44Z"/>
      <path class="cls-2" d="M15.52,162.77c.93-.18,1.93.43,1.79,1.43-.06.42-2.1,4.67-2.44,5.06-1.01,1.21-2.54.2-2.26-1.14.06-.31,2-4.44,2.25-4.8.18-.26.31-.48.65-.54Z"/>
      <path class="cls-4" d="M47.05,94.66c.83-.16,1.56.14,1.61,1.03.03.44-2.02,5.19-2.37,5.59-.6.69-2.02.52-2.19-.39-.19-.99,1.98-6.04,2.95-6.23Z"/>
      <path class="cls-2" d="M129.95,77.35c.47-.09,1.05.33,1.33.69.5.63,2.37,4.78,2.25,5.47-.18.98-1.5,1.36-2.17.63-.21-.23-2.16-4.33-2.27-4.76-.21-.83-.17-1.83.86-2.03Z"/>
      <path class="cls-2" d="M6.53,182.96c-.28-.35-.2-1.03-.1-1.46.09-.35,2.1-4.56,2.27-4.76.61-.71,2.03-.49,2.19.39s-1.58,4.69-2.18,5.56c-.52.77-1.59,1-2.19.27Z"/>
    </g>
    <path class="cls-1" d="M45.83,97.04c.39-.39,5.53-.44,6.3-.29,1.48.29,1.22,2.25-.29,2.58-.86.19-4.98.16-5.66-.23s-.88-1.53-.35-2.06Z"/>
    <path class="cls-1" d="M132.98,97.12c.39-.39,5.53-.44,6.3-.29,1.48.29,1.22,2.25-.29,2.58-.86.19-4.98.16-5.66-.23s-.88-1.53-.35-2.06Z"/>
  </g>
</svg>