<?xml version="1.0" encoding="UTF-8"?>
<svg id="Layer_2" data-name="Layer 2" xmlns="http://www.w3.org/2000/svg" viewBox="0 -15 176.77 239.87">
  <defs>
    <style>
      .cls-1 {
        fill: #231f20;
      }

      .cls-2 {
        fill: #262324;
      }
    </style>
  </defs>
  <g id="Layer_1-2" data-name="Layer 1">
    <path class="cls-1" d="M33.42,36.01l-16.53,7.64,1.65-18.13,5.63,3.97C47.31,2.47,79.87-.57,97.46.08c25.39.96,50.08,10.76,58.7,23.3l-3.77,2.59c-6.75-9.82-27.84-20.29-55.1-21.33-16.71-.64-47.49,2.24-69.38,27.49l5.51,3.88ZM176.77,38.62c0,1.5-1.22,2.71-2.71,2.71h-6.91c-1.5,0-2.71-1.21-2.71-2.71s1.21-2.71,2.71-2.71h.65v-15.12l-.47.44c-1.08,1.03-2.8.99-3.83-.1-1.03-1.09-.98-2.8.1-3.83l5.04-4.77c.79-.74,1.95-.95,2.94-.52.99.43,1.63,1.41,1.63,2.49v21.42h.84c1.49,0,2.72,1.21,2.72,2.71Z"/>
    <path class="cls-2" d="M85.59,25.25c20.57-1.71,40.11,2.04,57.89,12.49,4.25,2.5,20.07,14.02,21.69,17.81,2.49,5.81-1.93,10.6-7.87,8.79-1.13-.34-10.68-9.93-13.27-11.87-38.88-28.96-95.07-17.82-119.43,24.04C.38,118.1,10.63,179.36,54.65,203.1c25.76,13.9,59.68,13.21,84.89-1.57,5.23-3.07,15.3-14.16,20.7-8.9,6.79,6.61-9.02,15.82-13.74,18.57-53.23,30.97-124.67,7.7-141.94-53.19C-12.52,97.85,19.26,30.75,85.59,25.25Z"/>
  </g>
</svg>