<?xml version="1.0" encoding="UTF-8"?>
<svg id="Layer_2" data-name="Layer 2" xmlns="http://www.w3.org/2000/svg" viewBox="0 0 175.29 244.2">
  <defs>
    <style>
      .cls-1, .cls-2 {
        fill: #231f20;
      }

      .cls-3 {
        fill: none;
        stroke: #231f20;
        stroke-linecap: round;
        stroke-linejoin: round;
        stroke-width: 10px;
      }

      .cls-2 {
        font-family: LexendDeca-Regular, 'Lexend Deca';
        font-size: 42px;
      }
    </style>
  </defs>
  <g id="Layer_1-2" data-name="Layer 1">
    <text class="cls-2" transform="translate(0 36.76)"><tspan x="0" y="0">1</tspan></text>
    <text class="cls-2" transform="translate(31.44 35.7)"><tspan x="0" y="0">2</tspan></text>
    <path class="cls-1" d="M14.13,161.57h6.83s-9.09,15.77-9.09,15.77l-9.12-15.76h6.82s-.13-110.6-.13-110.6h4.56s.13,110.59.13,110.59ZM56.58,24.81l-.53-4.54c2.13-.25,51.36-5.71,84.86,13.03l4.03-5.55,7.42,16.63-18.11-1.89,3.97-5.47c-32.24-17.7-81.12-12.27-81.63-12.21Z"/>
    <path class="cls-3" d="M34.45,46.04c-3.19.14-4.04,2.45-4.46,5-.21,1.3-.04,2.66-.04,3.99,0,58.26,0,116.52.03,174.78,0,1.65.1,3.33.32,5.01.4,3.09,2.14,3.94,4.64,3.95,20.63.05,41.34,1.12,61.88-.3,18.12-1.25,33.4-10.51,45.91-23.68,13.76-14.49,22.8-31.85,25.78-51.43,5.87-38.5-2.33-73.09-32.81-99.76-13.1-11.46-28.66-17.59-46.35-17.57-18.14.03-36.27,0-54.41,0"/>
  </g>
</svg>