<?xml version="1.0" encoding="UTF-8"?>
<svg id="Layer_2" data-name="Layer 2" xmlns="http://www.w3.org/2000/svg" viewBox="0 0 123.49 248.55">
  <defs>
    <style>
      .cls-1, .cls-2 {
        fill: #231f20;
      }

      .cls-3 {
        fill: #010101;
      }

      .cls-2 {
        font-family: LexendDeca-Regular, 'Lexend Deca';
        font-size: 42px;
      }
    </style>
  </defs>
  <g id="Layer_1-2" data-name="Layer 1">
    <path class="cls-1" d="M74.25,20.04l28.12-.1-.02-6.82,15.8,9.05-15.74,9.16-.02-6.82-28.12.1-.02-4.57ZM113.61,204.17h6.82s-9.09,15.77-9.09,15.77l-9.12-15.76h6.82s-.13-110.6-.13-110.6h4.57s.13,110.59.13,110.59Z"/>
    <text class="cls-2" transform="translate(99.43 86.57)"><tspan x="0" y="0">1</tspan></text>
    <text class="cls-2" transform="translate(49.45 35.7)"><tspan x="0" y="0">2</tspan></text>
    <path class="cls-3" d="M59.11,51.56c-4.9-.88-6.02-11.12,3.95-12.03,17.6-1.61,37.86,1.12,55.74.26,6.82,1.57,5.29,11.77,1.21,11.77h-22.46v144.32c0,52.05-65.29,73.54-92.02,27.14-2.39-4.14-10.39-18.38-1.27-19.68,5.89-.84,10.26,13.11,14.01,17.93,18.08,23.25,52.57,19.88,63.79-7.92,1.33-3.28,4.51-13.43,4.51-16.46V51.56c-8.21-1.03-19.69,1.39-27.46,0Z"/>
  </g>
</svg>