<?xml version="1.0" encoding="UTF-8"?>
<svg id="Layer_2" data-name="Layer 2" xmlns="http://www.w3.org/2000/svg" viewBox="0 0 239.45 245.47">
  <defs>
    <style>
      .cls-1, .cls-2 {
        fill: #231f20;
      }

      .cls-3 {
        stroke-width: 2.25px;
      }

      .cls-3, .cls-4 {
        fill: #262324;
        stroke: #231f20;
        stroke-miterlimit: 10;
      }

      .cls-4 {
        stroke-width: 2.5px;
      }

      .cls-2 {
        font-family: LexendDeca-Regular, 'Lexend Deca';
        font-size: 42px;
      }
    </style>
  </defs>
  <g id="Layer_1-2" data-name="Layer 1">
    <path class="cls-1" d="M11.39,155.49h6.82s-9.08,15.77-9.08,15.77l-9.13-15.75h6.83s-.13-110.61-.13-110.61h4.57s.13,110.59.13,110.59ZM83.54,113.45l6.02-3.22-31.83-59.51,4.02-2.15,31.83,59.51,6.01-3.22-.59,18.2-15.47-9.61ZM130.17,133.41l43.99-84.4-6.05-3.15,15.36-9.77.79,18.19-6.05-3.16-43.99,84.4-4.05-2.11ZM233.9,157.82l-9.08,15.78-9.13-15.75h6.83s-.13-110.61-.13-110.61h4.57s.13,110.59.13,110.59h6.82Z"/>
    <text class="cls-2" transform="translate(0 35.7)"><tspan x="0" y="0">1</tspan></text>
    <text class="cls-2" transform="translate(47.65 38.36)"><tspan x="0" y="0">2</tspan></text>
    <path class="cls-3" d="M126.09,153.97c-.05.06-.03.19.08.28.32.25.9.45,1.33.8,3.31,2.73,3.48,8.09.81,11.32-3.26,3.96-9.63,3.53-12.95-.13-.46-.51-2.24-2.55-.91-2.94.97-.29,1.59,1.28,2.19,1.93,1.18,1.28,2.91,2.2,4.66,2.35,8.86.79,9.82-11.92,1.59-12.66-.54-.05-2.49.18-2.75-.23-1.18-1.87,2.78-1.32,3.55-1.43,2.13-.29,4.07-2.35,4.28-4.48.65-6.44-6.89-9.01-10.78-4.18-.38.47-1.3,2.38-1.58,2.47-.52.16-1.11-.15-1.11-.72,0-.19.79-1.73.96-2,2.42-3.86,8.21-5.09,11.71-1.91,2.92,2.65,3.26,7.94.27,10.65-.27.24-1.3.82-1.35.88Z"/>
    <path class="cls-4" d="M220.72,29.39h11.46v-12.47c0-.94,1.75-.93,1.75-.27v12.74h3.71c.8,0,.71,1.89-.13,1.89h-3.57c.27,4.19.07,8.41.14,12.61-.05,1.1-1.62,1.35-1.76.13-.35-3.09.13-7.03,0-10.25-.03-.79-.26-1.65-.14-2.49h-12.47c-.07,0-1.06-.82-.87-1.13l2.22-13.56c.82-.9,1.76-.25,1.55.87l-1.89,11.93Z"/>
    <g id="Layer_1-2" data-name="Layer 1-2">
      <g>
        <g>
          <path class="cls-1" d="M25.76,244.24c-1.47,0-2.66-1.17-2.66-2.6V42.7c0-1.43,1.19-2.6,2.66-2.6h2.87c.88,0,1.71.43,2.2,1.15.09.14.16.29.19.45.14.68.35,1.34.64,1.97.13.28.15.6.05.9-.38,1.13-.23,2.53.41,3.73.15.29.18.62.09.93-.74,2.46-1.01,4.75-.81,6.99.04.48.14.92.31,1.36.05.13.08.26.08.4.1,2.97.16,5.25.2,7.39.1,6.72.15,13.66.15,20.62v155.65c0,1.43-1.19,2.6-2.66,2.6h-3.73.01Z"/>
          <path class="cls-1" d="M28.64,41.33c.48,0,.93.24,1.19.62.16.76.4,1.51.73,2.23-.5,1.49-.29,3.22.49,4.69-.73,2.42-1.08,4.87-.86,7.44.05.62.19,1.19.39,1.7.08,2.44.16,4.88.2,7.37.1,6.63.15,13.5.15,20.6v155.65c0,.76-.64,1.38-1.43,1.38h-3.73c-.79,0-1.43-.62-1.43-1.38V42.7c0-.76.64-1.38,1.43-1.38h2.87M28.64,38.88h-2.87c-2.14,0-3.88,1.72-3.88,3.83v198.93c0,2.11,1.74,3.83,3.88,3.83h3.73c2.14,0,3.88-1.72,3.88-3.83V85.99c0-6.97-.05-13.91-.15-20.64-.03-2.16-.09-4.45-.2-7.41,0-.28-.07-.55-.17-.8-.13-.33-.21-.66-.24-1.02-.18-2.09.07-4.22.77-6.53.19-.62.12-1.29-.18-1.86-.48-.91-.61-1.94-.33-2.76.2-.59.16-1.23-.09-1.8-.25-.55-.44-1.12-.56-1.71-.07-.32-.2-.63-.38-.9-.72-1.05-1.93-1.68-3.21-1.68h0Z"/>
        </g>
        <g>
          <path class="cls-1" d="M204.56,244.24c-1.47,0-2.66-1.17-2.66-2.6V86.56c0-6.75.1-13.59.3-20.35l.27-9.25.02-.24c.33-2.61.62-4.86-.31-7.3-.04-.08-.07-.14-.09-.2-.08-.19-.11-.4-.09-.6.26-2.44.42-4.31.54-6.06,0-.21.08-.41.2-.59l.44-.68c.49-.75,1.33-1.2,2.24-1.2h2.87c1.47,0,2.66,1.17,2.66,2.6v198.93c0,1.43-1.19,2.6-2.66,2.6h-3.73v.02Z"/>
          <path class="cls-1" d="M208.3,41.33c.79,0,1.43.62,1.43,1.38v198.93c0,.76-.64,1.38-1.43,1.38h-3.73c-.79,0-1.43-.62-1.43-1.38V86.56c0-6.72.1-13.49.3-20.31.09-3.09.18-6.17.27-9.25.34-2.68.69-5.24-.36-8.01-.03-.08-.08-.16-.11-.24.21-2.01.4-4.05.54-6.1l.44-.68c.26-.4.72-.65,1.22-.65h2.87M208.3,38.88h-2.87c-1.33,0-2.55.66-3.27,1.76l-.44.68c-.23.35-.36.76-.39,1.18-.11,1.73-.28,3.59-.53,6.01-.04.41.02.82.17,1.19.03.08.07.15.1.23.79,2.13.52,4.23.22,6.65l-.02.12c0,.08-.02.16-.02.24-.09,3.08-.18,6.15-.27,9.25-.2,6.77-.3,13.63-.3,20.38v155.07c0,2.11,1.74,3.83,3.88,3.83h3.73c2.14,0,3.88-1.72,3.88-3.83V42.7c0-2.11-1.74-3.83-3.88-3.83h.01Z"/>
        </g>
      </g>
      <g>
        <path class="cls-1" d="M114.05,227.23c-1.04,0-1.99-.59-2.42-1.51L26.51,45.92c-.3-.63-.33-1.33-.08-1.98.25-.66.76-1.18,1.42-1.46l2.62-1.1c.33-.14.68-.21,1.04-.21.5,0,.99.14,1.42.4.13.08.25.19.34.31.42.56.9,1.08,1.44,1.55.23.2.38.48.41.78.14,1.17.88,2.38,1.99,3.23.25.19.42.47.46.78.38,2.5,1.11,4.67,2.25,6.63.24.42.53.79.88,1.12.1.09.18.2.24.32,1.36,2.63,2.39,4.66,3.34,6.6,2.98,6.06,5.99,12.31,8.96,18.58l66.6,140.68c.3.63.33,1.33.08,1.98s-.77,1.18-1.43,1.46l-3.4,1.43c-.33.14-.68.21-1.05.21h.01Z"/>
        <path class="cls-1" d="M31.52,42.4c.27,0,.55.07.78.22.47.63,1.01,1.21,1.62,1.74.18,1.54,1.12,3.02,2.46,4.05.37,2.46,1.1,4.81,2.4,7.06.31.54.68,1,1.09,1.39,1.12,2.17,2.23,4.35,3.33,6.58,2.93,5.95,5.91,12.14,8.95,18.56l66.6,140.68c.33.69,0,1.49-.72,1.79l-3.4,1.43c-.19.08-.38.12-.58.12-.55,0-1.08-.3-1.32-.81L27.61,45.4c-.33-.69,0-1.49.72-1.79l2.62-1.1c.18-.08.38-.11.57-.11M31.52,39.96c-.52,0-1.03.1-1.51.3l-2.62,1.1c-.96.4-1.72,1.18-2.09,2.14-.37.96-.33,2,.11,2.93l85.12,179.8c.63,1.34,2.02,2.21,3.52,2.21.52,0,1.03-.1,1.52-.3l3.4-1.43c.96-.4,1.72-1.18,2.09-2.14.37-.96.33-2-.11-2.93L54.35,80.96c-2.98-6.29-6-12.55-8.97-18.59-.95-1.94-1.99-3.98-3.35-6.62-.12-.24-.28-.45-.47-.64-.27-.26-.49-.54-.67-.86-1.06-1.82-1.74-3.85-2.1-6.2-.09-.62-.43-1.18-.92-1.57-.85-.65-1.42-1.55-1.52-2.41-.07-.6-.37-1.16-.83-1.56-.47-.41-.89-.86-1.26-1.35-.19-.25-.42-.46-.69-.63-.62-.38-1.32-.57-2.05-.57h0Z"/>
      </g>
      <g>
        <path class="cls-1" d="M119.59,231.37c-.39,0-.77-.08-1.13-.25l-3.38-1.57c-.65-.3-1.14-.84-1.39-1.51s-.21-1.4.09-2.05L201.66,38.59c.44-.94,1.4-1.55,2.43-1.55.39,0,.77.08,1.13.25l2.6,1.21c.82.38,1.39,1.14,1.52,2.04.02.16.02.32-.02.48-.18.7-.27,1.42-.29,2.14,0,.3-.13.6-.33.82-.86.92-1.34,2.32-1.29,3.73,0,.32-.1.63-.31.86-1.76,2.01-3.02,4.06-3.84,6.27-.18.47-.28.94-.32,1.44,0,.13-.04.27-.1.39-1.18,2.75-2.16,4.98-3.08,7.04-2.88,6.39-5.9,12.94-8.97,19.49l-68.76,146.63c-.44.94-1.4,1.55-2.43,1.55h-.01Z"/>
        <path class="cls-1" d="M204.09,38.29c.2,0,.41.04.6.13l2.6,1.21c.44.2.74.61.81,1.09-.2.78-.31,1.59-.33,2.41-1.11,1.2-1.68,2.91-1.63,4.63-1.73,1.97-3.13,4.13-4.07,6.65-.23.61-.35,1.2-.4,1.77-1,2.33-2.01,4.67-3.08,7.02-2.84,6.28-5.83,12.78-8.96,19.47l-68.76,146.63c-.24.52-.76.83-1.3.83-.2,0-.41-.04-.6-.13l-3.38-1.57c-.72-.33-1.03-1.18-.69-1.9L202.79,39.12c.24-.52.76-.83,1.3-.83M204.09,35.79c-1.52,0-2.92.89-3.56,2.27l-87.87,187.41c-.45.95-.49,2.02-.14,3.01.36.99,1.08,1.77,2.04,2.22l3.38,1.57c.52.24,1.08.37,1.65.37,1.52,0,2.92-.89,3.56-2.27l68.76-146.65c3.08-6.56,6.1-13.12,8.98-19.5.92-2.05,1.88-4.22,3.09-7.06.11-.25.17-.51.19-.78.03-.38.11-.74.25-1.1.77-2.06,1.95-3.98,3.61-5.88.42-.48.64-1.1.62-1.73-.04-1.09.32-2.16.96-2.84.42-.45.65-1.03.67-1.64.02-.63.1-1.26.25-1.87.08-.32.1-.65.05-.97-.19-1.31-1.03-2.43-2.23-2.99l-2.6-1.21c-.52-.24-1.08-.37-1.65-.37h0Z"/>
      </g>
    </g>
  </g>
</svg>