<?xml version="1.0" encoding="UTF-8"?>
<svg id="Layer_2" data-name="Layer 2" xmlns="http://www.w3.org/2000/svg" viewBox="0 0 156.39 255.19">
  <defs>
    <style>
      .cls-1, .cls-2 {
        fill: #231f20;
      }

      .cls-3 {
        fill: #fff;
      }

      .cls-4 {
        stroke: #231f20;
        stroke-miterlimit: 10;
        stroke-width: 2.25px;
      }

      .cls-4, .cls-5 {
        fill: #262324;
      }

      .cls-2 {
        font-family: LexendDeca-Regular, 'Lexend Deca';
        font-size: 42px;
      }
    </style>
  </defs>
  <g id="Layer_1-2" data-name="Layer 1">
    <path class="cls-1" d="M13.43,164.75h6.83s-9.09,15.77-9.09,15.77l-9.12-15.75h6.82s-.13-110.61-.13-110.61h4.57s.13,110.59.13,110.59ZM55.98,27.97l-.73-4.5c1.99-.32,47.92-7.45,74.1,13.76l5.21-4.51,3.42,17.89-17.2-5.98,5.06-4.38c-24.78-19.32-69.41-12.36-69.87-12.29ZM146.54,215.63l4.7-4.95,5.15,17.47-17.7-4.26,4.7-4.94-33.76-32.09,3.15-3.31,33.75,32.09Z"/>
    <text class="cls-2" transform="translate(0 48.38)"><tspan x="0" y="0">1</tspan></text>
    <text class="cls-2" transform="translate(28.43 35.7)"><tspan x="0" y="0">2</tspan></text>
    <path class="cls-4" d="M100.64,168.34c-.05.06-.03.19.08.28.32.25.9.45,1.33.8,3.31,2.73,3.48,8.09.81,11.32-3.26,3.96-9.63,3.53-12.95-.13-.46-.51-2.24-2.55-.91-2.94.97-.29,1.59,1.28,2.19,1.93,1.18,1.28,2.91,2.2,4.66,2.35,8.86.79,9.82-11.92,1.59-12.66-.54-.05-2.49.18-2.75-.23-1.18-1.87,2.78-1.32,3.55-1.43,2.13-.29,4.07-2.35,4.28-4.48.65-6.44-6.89-9.01-10.78-4.18-.38.47-1.3,2.38-1.58,2.47-.52.16-1.11-.15-1.11-.72,0-.19.79-1.73.96-2,2.42-3.86,8.21-5.09,11.71-1.91,2.92,2.65,3.26,7.94.27,10.65-.27.24-1.3.82-1.35.88Z"/>
    <g id="Layer_1-2" data-name="Layer 1-2">
      <g>
        <path class="cls-1" d="M148.19,253.94c-1.22,0-2.45-.49-3.46-1.38l-107.57-95.71c-2.25-2-2.77-5.42-1.16-7.63l.18-.24c.82-1.12,2.09-1.76,3.49-1.76,1.23,0,2.46.49,3.46,1.39l107.4,95.94c1.5,1.34,2.28,3.36,2.05,5.29-.19,1.59-1.05,2.9-2.35,3.59-.62.33-1.31.5-2.04.5h0Z"/>
        <path class="cls-1" d="M39.66,148.47c.89,0,1.83.36,2.63,1.07l107.4,95.94c2.25,2.01,2.22,5.63-.06,6.84-.45.24-.94.35-1.45.35-.9,0-1.84-.37-2.62-1.07l-107.57-95.69c-1.77-1.57-2.21-4.27-.98-5.95l.17-.24c.61-.83,1.52-1.25,2.48-1.25M39.66,145.97h0c-1.8,0-3.44.83-4.5,2.27l-.17.24c-1.99,2.71-1.39,6.88,1.33,9.3l107.58,95.71c1.23,1.1,2.75,1.7,4.29,1.7.92,0,1.83-.22,2.62-.65,1.67-.89,2.76-2.54,3-4.54.28-2.33-.66-4.77-2.45-6.38l-107.4-95.94c-1.23-1.1-2.76-1.71-4.3-1.71h0Z"/>
      </g>
      <g>
        <path class="cls-5" d="M38.23,148.46c1.01,4.72-.99,10.28-1,14.48,0,1.9,1.05,3.83,1.04,5.95-.01,26.64-.07,53.28-.07,79.91-1.14,6.01-12.76,6.42-11.96-.96l.51-201.25c3.99-5.21,9.08-2.05,13.94-1.96,20.61.39,57.39-3.49,75.13,3.77,39.83,16.3,37.13,79.22-.32,95.91-1.87.83-10.57,4.14-11.84,4.14H38.23Z"/>
        <path class="cls-3" d="M38.23,138.47V56.08c0-.11,1.39-1.5,1.5-1.5h58.93c1.33,0,8.68,1.92,10.46,2.52,39.46,13.52,25.87,81.37-10.46,81.37h-60.43Z"/>
      </g>
    </g>
  </g>
</svg>