<?xml version="1.0" encoding="UTF-8"?>
<svg id="Layer_2" data-name="Layer 2" xmlns="http://www.w3.org/2000/svg" viewBox="0 0 139.32 248.4">
  <defs>
    <style>
      .cls-1, .cls-2 {
        fill: #231f20;
      }

      .cls-2 {
        font-family: LexendDeca-Regular, 'Lexend Deca';
        font-size: 42px;
      }
    </style>
  </defs>
  <g id="Layer_1-2" data-name="Layer 1">
    <text class="cls-2" transform="translate(38.34 95.47)"><tspan x="0" y="0">1</tspan></text>
    <path class="cls-1" d="M31.47,24.44l83.94-.13v-6.83s15.77,9.08,15.77,9.08l-15.75,9.13v-6.82s-83.95.13-83.95.13v-4.57ZM51.39,167.48h6.83s-9.08,15.77-9.08,15.77l-9.13-15.75h6.82s-.12-64.96-.12-64.96h4.57s.12,64.94.12,64.94Z"/>
    <text class="cls-2" transform="translate(2.91 35.7)"><tspan x="0" y="0">2</tspan></text>
    <g id="Layer_1-2" data-name="Layer 1-2">
      <g>
        <path class="cls-1" d="M69.66,247.18c-2.5,0-4.53-1.94-4.53-4.34V51.89c0-1.09-.93-1.97-2.07-1.97H5.76c-2.5,0-4.53-1.99-4.53-4.43s2.03-4.43,4.53-4.43h127.8c2.5,0,4.53,1.99,4.53,4.43s-2.03,4.43-4.53,4.43h-57.3c-1.14,0-2.07.88-2.07,1.97v190.94c0,2.39-2.03,4.34-4.53,4.34h0Z"/>
        <path class="cls-1" d="M133.56,42.29c1.82,0,3.3,1.43,3.3,3.2h0c0,1.77-1.48,3.2-3.3,3.2h-57.3c-1.82,0-3.3,1.43-3.3,3.2v190.94c0,1.71-1.48,3.1-3.3,3.1s-3.3-1.39-3.3-3.1V51.9c0-1.77-1.48-3.2-3.3-3.2H5.76c-1.82,0-3.3-1.43-3.3-3.2h0c0-1.77,1.48-3.2,3.3-3.2h127.8M133.56,39.83H5.76c-3.18,0-5.76,2.54-5.76,5.66s2.58,5.66,5.76,5.66h57.3c.46,0,.84.33.84.74v190.94c0,3.07,2.58,5.57,5.76,5.57s5.76-2.5,5.76-5.57V51.9c0-.41.38-.74.84-.74h57.3c3.18,0,5.76-2.54,5.76-5.66s-2.58-5.66-5.76-5.66h0Z"/>
      </g>
    </g>
  </g>
</svg>