<?xml version="1.0" encoding="UTF-8"?>
<svg id="Layer_2" data-name="Layer 2" xmlns="http://www.w3.org/2000/svg" viewBox="0 0 195.64 183.23">
  <defs>
    <style>
      .cls-1, .cls-2 {
        fill: #231f20;
      }

      .cls-2 {
        font-family: LexendDeca-Regular, 'Lexend Deca';
        font-size: 42px;
      }
    </style>
  </defs>
  <g id="Layer_1-2" data-name="Layer 1">
    <path class="cls-1" d="M45.53,103.01l6.32-2.57-2.49,18.04-14.38-11.18,6.32-2.57L15.87,42.22l4.23-1.72,25.43,62.51ZM187.66,97.86l-6.32-2.58-25.43,62.51-4.23-1.72,25.43-62.5-6.32-2.58,14.38-11.17,2.49,18.04Z"/>
    <text class="cls-2" transform="translate(0 35.7)"><tspan x="0" y="0">1</tspan></text>
    <text class="cls-2" transform="translate(137.14 194.98)"><tspan x="0" y="0">2</tspan></text>
    <g id="Layer_1-2" data-name="Layer 1-2">
      <g>
        <path class="cls-1" d="M107.58,216.77c-1.68,0-3.21-1.05-3.81-2.62L25.54,9.82c-.48-1.26-.31-2.67.45-3.78s2.02-1.77,3.37-1.77h1.72c1.69,0,3.22,1.06,3.82,2.64l70.11,185.37c1.17,2.93,2.19,5.57,3.01,7.81.59,1.64,1.17,3.16,1.71,4.52.24-.63.48-1.29.74-1.98,1-2.7,2.2-5.95,3.6-9.75L184.77,6.9c.6-1.57,2.13-2.63,3.82-2.63h1.72c1.35,0,2.61.66,3.37,1.77.76,1.11.93,2.52.45,3.78l-78.88,205.27c-.38,1-1.37,1.68-2.44,1.68h-5.23Z"/>
        <path class="cls-1" d="M190.31,5.52c1.99,0,3.36,1.99,2.65,3.85l-78.88,205.27c-.2.53-.71.88-1.27.88h-5.21c-1.17,0-2.23-.72-2.65-1.82L26.71,9.37c-.71-1.86.66-3.85,2.65-3.85h1.72c1.18,0,2.23.73,2.65,1.83l70.11,185.37c1.2,3,2.2,5.6,3,7.8s1.55,4.15,2.25,5.85c.24.58.46,1.13.67,1.64-.24.6-.46,1.15-.67,1.66-.21.52-.4.98-.57,1.4-.4.99.33,2.06,1.4,2.06.85,0,1.44-.83,1.16-1.63-.1-.29-.21-.59-.33-.92-.27-.72-.59-1.57-.98-2.55.55-1.4,1.18-3.05,1.88-4.95,1-2.7,2.2-5.95,3.6-9.75L185.94,7.35c.42-1.1,1.47-1.83,2.65-1.83h1.72M190.31,3.02h-1.72c-2.2,0-4.2,1.38-4.99,3.44l-70.71,185.97c-1.22,3.31-2.28,6.19-3.19,8.65-.17-.46-.34-.93-.52-1.41-.82-2.26-1.84-4.91-3.03-7.88L36.07,6.47c-.78-2.06-2.79-3.45-4.99-3.45h-1.72c-1.76,0-3.4.86-4.4,2.31-1,1.45-1.22,3.29-.59,4.93l78.23,204.33c.78,2.05,2.79,3.43,4.98,3.43h5.21c1.59,0,3.04-1,3.61-2.48L195.29,10.27c.63-1.64.41-3.49-.58-4.93-1-1.45-2.64-2.31-4.4-2.31h0Z"/>
      </g>
    </g>
  </g>
</svg>