<?xml version="1.0" encoding="UTF-8"?>
<svg id="Layer_2" data-name="Layer 2" xmlns="http://www.w3.org/2000/svg" viewBox="0 0 203.09 177.47">
  <defs>
    <style>
      .cls-1, .cls-2 {
        fill: #231f20;
      }

      .cls-3 {
        fill: #262324;
        stroke: #231f20;
        stroke-miterlimit: 10;
        stroke-width: 2.25px;
      }

      .cls-2 {
        font-family: LexendDeca-Regular, 'Lexend Deca';
        font-size: 42px;
      }
    </style>
  </defs>
  <g id="Layer_1-2" data-name="Layer 1">
    <path class="cls-1" d="M68.86,91.64l1.53,18.14-16.48-7.74,5.6-3.89L23.99,47.08l3.75-2.61,35.52,51.06,5.6-3.89ZM81.79,185.78h6.82l-9.1,15.77-9.11-15.77h6.83v-27.75h4.57v27.75ZM176.51,49.83l-32.66,45.74,5.55,3.97-16.57,7.54,1.75-18.12,5.55,3.96,32.66-45.74,3.72,2.66Z"/>
    <text class="cls-2" transform="translate(0 41.87)"><tspan x="0" y="0">1</tspan></text>
    <text class="cls-2" transform="translate(180.07 47.17)"><tspan x="0" y="0">2</tspan></text>
    <path class="cls-3" d="M84.53,131.85c-.05.06-.03.19.08.28.32.25.9.45,1.33.8,3.31,2.73,3.48,8.09.81,11.32-3.26,3.96-9.63,3.53-12.95-.13-.46-.51-2.24-2.55-.91-2.94.97-.29,1.59,1.28,2.19,1.93,1.18,1.28,2.91,2.2,4.66,2.35,8.86.79,9.82-11.92,1.59-12.66-.54-.05-2.49.18-2.75-.23-1.18-1.87,2.78-1.32,3.55-1.43,2.13-.29,4.07-2.35,4.28-4.48.65-6.44-6.89-9.01-10.78-4.18-.38.47-1.3,2.38-1.58,2.47-.52.16-1.11-.15-1.11-.72,0-.19.79-1.73.96-2,2.42-3.86,8.21-5.09,11.71-1.91,2.92,2.65,3.26,7.94.27,10.65-.27.24-1.3.82-1.35.88Z"/>
    <g id="Layer_1-2" data-name="Layer 1-2">
      <g>
        <path class="cls-1" d="M100.5,207.39c-2.24,0-4.07-1.79-4.07-3.98v-87.52L19.05,7.49c-.86-1.2-.97-2.76-.3-4.07.7-1.35,2.09-2.19,3.63-2.19h.91c1.32,0,2.57.63,3.33,1.7l74.17,103.61L173.52,2.1c.38-.55,1.01-.87,1.68-.87h2.04c1.53,0,2.92.83,3.62,2.17.69,1.32.59,2.83-.26,4.05l-75.1,107.92v88.04c0,2.19-1.82,3.98-4.07,3.98,0,0-.93,0-.93,0Z"/>
        <path class="cls-1" d="M177.23,2.46c2.27,0,3.62,2.46,2.35,4.29l-75.32,108.23v-.57c0-.51-.41-.79-.82-.79-.34,0-.68.19-.78.61l-.12.5c-.13.56.33.97.8.97.24,0,.49-.11.66-.35l.26-.37v88.43c0,1.52-1.27,2.75-2.83,2.75h-.93c-1.57,0-2.83-1.23-2.83-2.75v-87.91l.14.2c.17.24.41.34.65.34.47,0,.92-.39.81-.95h0c-.09-.43-.44-.63-.79-.63-.41,0-.82.28-.82.79v.25L20.05,6.78c-1.3-1.82.04-4.32,2.33-4.32h.91c.93,0,1.8.44,2.33,1.18l75.18,105.02-.77,1.11c-.36.52.02,1.23.67,1.23h.23c.65,0,1.04-.71.67-1.23l-.79-1.1L174.53,2.81c.15-.22.4-.35.67-.35h2.04M177.23,0h-2.04c-1.07,0-2.08.52-2.69,1.4l-71.74,103L27.62,2.21c-.99-1.38-2.61-2.21-4.33-2.21h-.91c-2.01,0-3.82,1.1-4.73,2.86-.89,1.72-.74,3.77.39,5.35l77.16,108.08v87.12c0,2.87,2.38,5.21,5.3,5.21h.93c2.92,0,5.3-2.34,5.3-5.21v-87.66L181.6,8.16c1.1-1.58,1.23-3.62.34-5.33-.91-1.75-2.72-2.83-4.71-2.83h0Z"/>
      </g>
    </g>
  </g>
</svg>