<?xml version="1.0" encoding="UTF-8"?>
<svg id="Layer_2" data-name="Layer 2" xmlns="http://www.w3.org/2000/svg" viewBox="0 0 174.57 250.47">
  <defs>
    <style>
      .cls-1, .cls-2 {
        fill: #231f20;
      }

      .cls-3 {
        fill: #262324;
        stroke: #231f20;
        stroke-miterlimit: 10;
        stroke-width: 2.25px;
      }

      .cls-2 {
        font-family: LexendDeca-Regular, 'Lexend Deca';
        font-size: 42px;
      }
    </style>
  </defs>
  <g id="Layer_1-2" data-name="Layer 1">
    <path class="cls-1" d="M38,24.44l93.07-.13v-6.83s15.77,9.08,15.77,9.08l-15.76,9.13v-6.82s-93.08.13-93.08.13v-4.57ZM145.77,95.64l3.64,2.76-82.11,108.47,5.44,4.12-16.78,7.08,2.26-18.07,5.44,4.12,82.11-108.47ZM108.59,221.29l28.77-.1-.02-6.83,15.8,9.05-15.74,9.16-.02-6.82-28.77.1v-4.57Z"/>
    <text class="cls-2" transform="translate(14.19 35.7)"><tspan x="0" y="0">1</tspan></text>
    <text class="cls-2" transform="translate(151.55 92.81)"><tspan x="0" y="0">2</tspan></text>
    <path class="cls-3" d="M97.51,217.21c-.05.06-.03.19.08.28.32.25.9.45,1.33.8,3.31,2.73,3.48,8.09.81,11.32-3.26,3.96-9.63,3.53-12.95-.13-.46-.51-2.24-2.55-.91-2.94.97-.29,1.59,1.28,2.19,1.93,1.18,1.28,2.91,2.2,4.66,2.35,8.86.79,9.82-11.92,1.59-12.66-.54-.05-2.49.18-2.75-.23-1.18-1.87,2.78-1.32,3.55-1.43,2.13-.29,4.07-2.35,4.28-4.48.65-6.44-6.89-9.01-10.78-4.18-.38.47-1.3,2.38-1.58,2.47-.52.16-1.11-.15-1.11-.72,0-.19.79-1.73.96-2,2.42-3.86,8.21-5.09,11.71-1.91,2.92,2.65,3.26,7.94.27,10.65-.27.24-1.3.82-1.35.88Z"/>
    <g id="Layer_1-2" data-name="Layer 1-2">
      <g>
        <path class="cls-1" d="M5.3,249.24c-2.24,0-4.07-1.79-4.07-3.98v-3.34c0-.85.27-1.67.79-2.35L142.45,51.95H13.1c-2.24,0-4.07-1.79-4.07-3.98v-.9c0-2.19,1.82-3.98,4.07-3.98h137.43c2.24,0,4.07,1.79,4.07,3.98v3.05c0,.85-.27,1.67-.79,2.36L12.94,240.38h140.89c2.24,0,4.07,1.79,4.07,3.98v.9c0,2.19-1.82,3.98-4.07,3.98H5.3Z"/>
        <path class="cls-1" d="M150.53,44.31c1.57,0,2.83,1.23,2.83,2.75v3.05c0,.58-.19,1.15-.54,1.62L10.48,241.61h-2.13c-.71,0-1.22.64-1.05,1.31.13.51.59.8,1.06.8.32,0,.65-.14.87-.43l1.25-1.67h143.35c1.57,0,2.83,1.23,2.83,2.75v.9c0,1.52-1.27,2.75-2.83,2.75H5.3c-1.57,0-2.83-1.23-2.83-2.75v-3.34c0-.58.19-1.15.54-1.62L144.91,50.71h4.29c.93,0,1.43-1.05.82-1.74l-1.17-1.33c-.22-.25-.52-.37-.82-.37-.33,0-.66.15-.88.43l-2.24,3H13.1c-1.57,0-2.83-1.23-2.83-2.75v-.9c0-1.52,1.27-2.75,2.83-2.75h137.43M150.53,41.85H13.1c-2.92,0-5.3,2.34-5.3,5.21v.9c0,2.87,2.38,5.21,5.3,5.21h126.9L1.03,238.83c-.68.9-1.03,1.97-1.03,3.09v3.34c0,2.87,2.38,5.21,5.3,5.21h148.53c2.92,0,5.3-2.34,5.3-5.21v-.9c0-2.87-2.38-5.21-5.3-5.21H15.4L154.79,53.21c.68-.9,1.03-1.97,1.03-3.09v-3.05c0-2.87-2.38-5.21-5.3-5.21h.01Z"/>
      </g>
    </g>
  </g>
</svg>