<?xml version="1.0" encoding="UTF-8"?>
<svg id="Layer_2" data-name="Layer 2" xmlns="http://www.w3.org/2000/svg" viewBox="0 0 252.45 251.1">
  <defs>
    <style>
      .cls-1 {
        fill: #231f20;
      }
    </style>
  </defs>
  <g id="Layer_1-2" data-name="Layer 1">
    <path class="cls-1" d="M159.15,97.8c-33.9,3-62.4,2.1-90.6-6.9-10.8,15.3-32.7,48.9-43.5,75.6-30.6,76.5,17.1,90,72.3,44.1,30.9-26.1,62.7-65.1,78.6-94.5,18.6-34.8,34.5-10.5,17.1,8.4-16.8,18.9-33.9,51-39.3,80.4-9.3,50.7,20.4,43.2,44.1,13.8,9.3-12,19.5-27.6,26.1-42.6,2.7-5.7,8.4-6,5.1,1.2-5.4,12-16.8,33.3-27.9,48-10.2,13.8-27.3,25.8-44.1,25.8-33.3,0-25.8-59.1-12.3-76.8-24.6,29.1-80.7,86.4-123.3,68.1-28.8-12.3-28.8-65.4,1.2-119.7,7.5-13.5,16.2-26.4,26.4-38.1-12-5.7-22.5-12.3-30-20.7-8.4-9.6-9.3-29.1-2.7-33.9,3.6-4.8,8.7-1.5,5.4,5.7-3.9,9-.6,15.9,6.3,23.7,6.6,7.5,15.6,13.8,26.4,18.9C92.25,36.3,142.35,0,200.85,0c32.1,0,51.6,15.9,51.6,38.1s-23.4,53.4-93.3,59.7ZM201.75,7.8c-56.1,0-94.8,36.9-128.4,77.1,23.4,7.5,47.7,9,85.8,5.7,49.8-4.2,81-26.4,81-56.1,0-17.7-16.5-26.7-38.4-26.7Z"/>
  </g>
</svg>