<?xml version="1.0" encoding="UTF-8"?>
<svg id="Layer_2" data-name="Layer 2" xmlns="http://www.w3.org/2000/svg" viewBox="0 0 306.57 247.37">
  <defs>
    <style>
      .cls-1 {
        fill: #231f20;
      }
    </style>
  </defs>
  <g id="Layer_1-2" data-name="Layer 1">
    <path class="cls-1" d="M111.39,224.89c-21.9,17.7-46.2,25.2-75,21.6-61.2-7.2-40.5-78,27-54.6,11.4,4.2,36,17.1,45.6,22.2,44.4-42.6,66.9-124.8,114-177.3-29.4-17.7-66-24.6-103.2-16.8C36.69,37.69,11.49,111.79,55.89,125.59c35.4,11.1,53.7-22.2,54.3-32.7.3-3,6.9-3,6,2.7-4.2,29.7-36.9,46.5-63.3,37.2C.39,114.49,2.19,27.49,125.79,9.49c36.9-5.4,74.4,1.5,105.6,18C246.7,9.49,262.3-1.61,270.7.19c3.9.9,2.1,3.9,0,3.9-8.1,0-22.8,24.3-26.4,30.9,40.8,27,67.2,72,61.5,129-9.3,95.4-133.8,95.1-194.4,60.9ZM55.89,199.69c-43.5-15-48.6,36.6-12,38.4,21.6.9,40.8-6,57.3-18-14.4-6.9-27.3-14.1-45.3-20.4ZM237.1,46.39c-35.1,55.2-74.1,126.9-107.1,162.3-3.9,4.2-7.5,7.5-11.4,10.8,57.9,34.5,159.9,22.2,168.3-54.9,5.1-49.2-15.9-91.5-49.8-118.2Z"/>
  </g>
</svg>