<?xml version="1.0" encoding="UTF-8"?>
<svg id="Layer_2" data-name="Layer 2" xmlns="http://www.w3.org/2000/svg" viewBox="0 0 252.66 357.44">
  <defs>
    <style>
      .cls-1 {
        fill: #231f20;
      }
    </style>
  </defs>
  <g id="Layer_1-2" data-name="Layer 1">
    <path class="cls-1" d="M242.91,284.36c-13.8-3.6-43.5-5.7-67.5-5.4-38.4,55.5-120,88.2-153.6,75.9-55.8-20.4,4.5-68.4,79.2-78.9,15.6-2.4,44.7-4.5,63.6-4.8,14.7-24.9,24-45.9,30.3-73.8l1.2-5.1c-18,17.1-74.7,58.8-124.2,42.3-37.5-12.9-61.2-70.8-28.8-138.9-23.1-24-28.8-58.8-1.2-87,4.2-4.5,8.7-3.9,3.9,2.4-19.8,24.9-16.2,53.7,2.1,75.6,1.8-3.9,4.2-7.8,6.6-11.7C86.31,23.06,146.91-6.34,195.21,1.16c92.7,14.4,72.3,124.5-54.6,126.3-29.1.6-59.7-7.8-78.9-20.7-26.4,57-14.7,106.5,20.4,117.9,39.6,12.9,94.2-18.9,102.6-39,17.4-40.8,37.8-28.8,35.7-13.5-4.2,33.3-18.9,63-40.8,99,26.7.3,47.7,3.3,65.7,7.8,8.7,2.1,9,8.1-2.4,5.4ZM104.61,284.06c-53.1,8.1-119.1,53.7-75,63,26.7,6,95.1-17.4,130.2-67.8-18.9.6-38.4,2.1-55.2,4.8ZM74.91,82.46c-3.3,5.4-6.6,11.1-9.3,16.5,18.6,14.1,49.2,22.2,79.8,19.2,101.1-10.2,124.8-96.9,51.3-108-40.8-6-93.6,26.1-121.8,72.3Z"/>
  </g>
</svg>