<?xml version="1.0" encoding="UTF-8"?>
<svg id="Layer_2" data-name="Layer 2" xmlns="http://www.w3.org/2000/svg" viewBox="0 0 490.2 309.5">
  <defs>
    <style>
      .cls-1 {
        fill: #231f20;
      }
    </style>
  </defs>
  <g id="Layer_1-2" data-name="Layer 1">
    <path class="cls-1" d="M316.34,44.9c-45.3,81.6-54,238.8-189.6,259.2-68.1,10.2-143.1-30.3-123.6-105.3,5.7-21.6,26.7-35.1,34.5-36,4.8-.6,4.5,3,2.1,4.2-5.4,2.4-26.4,18.3-30,45.3-8.4,65.4,63.3,84.6,105.3,75.3,85.5-19.5,123.9-91.5,146.7-142.8,5.7-12.9,35.4-78.9,45.6-99.3-26.7,3-59.1,4.2-87,12-88.5,24.6-80.7,126.9-24.9,106.8,20.1-7.5,28.5-36.9,24.9-56.1-.6-3,3.6-2.1,5.4,2.1,8.4,21-6.9,51.6-28.2,59.4-67.2,24.6-103.5-93.6,19.2-121.2,32.7-7.2,68.7-7.8,94.8-10.2,2.1-3.6,13.5-21,23.1-24,22.5-6.6,30,25.5-18.3,30.6ZM288.14,176.6c-3.6-1.5,3,39,18,73.2,12.6,29.1,30.3,46.8,53.7,46.8s51-9.9,62.1-31.5c2.4-6,8.1-6,3.9,2.4-10.8,21.9-42,42-67.5,42-33,0-58.5-24.6-72.9-56.1-16.8-37.2-20.1-80.7-14.7-83.1,21.9,1.8,147.9-69.3,210-164.7,6.9-10.5,12.6-4.5,7.5,3.9-48,79.8-148.2,153.9-200.1,167.1ZM333.44,24.8c-3.9,3-8.7,9-11.7,12.6,6-.9,10.2-2.1,13.2-3.6,13.2-6.3,8.4-17.1-1.5-9Z"/>
  </g>
</svg>