<?xml version="1.0" encoding="UTF-8"?>
<svg id="Layer_2" data-name="Layer 2" xmlns="http://www.w3.org/2000/svg" viewBox="0 0 430.97 277.92">
  <defs>
    <style>
      .cls-1 {
        fill: #231f20;
      }
    </style>
  </defs>
  <g id="Layer_1-2" data-name="Layer 1">
    <path class="cls-1" d="M402.3,277.77c-12.3-1.2-51.9-6.3-47.1-57,3.6-36,27.9-82.5,47.4-126.9,24-55.2-9.3-52.2-63.3,15.3-18.9,23.4-69.9,102.3-80.7,128.4-11.4,26.4-33,14.7-27.3,6,4.8-9.9,47.7-75.3,59.7-174.3,4.8-38.7-20.7-36.6-44.4-7.2-52.2,64.8-67.2,101.1-108.3,192.3-4.8,11.1-27.6,11.4-24.6,1.8,25.5-39.6,66.3-141.6,73.2-190.5C203.4-53.73,53.39,30.27,24.29,110.07c-25.2,69.9,15.9,102.9,55.5,88.5,38.4-14.4,66.9-89.1,19.2-82.8-5.4.6-12.9-4.5,1.5-6.3,50.1-7.2,43.8,67.8-21,94.8-44.4,18.3-101.1-25.8-71.1-97.2C51.59,6.27,215.4-53.13,204.3,66.27c-2.1,18.9-8.1,39.9-15.6,59.7-3.9,11.4-1.2,12.9,3.9,3.3,17.4-31.5,27.6-46.8,48.9-72.6,23.1-27.9,72.6-39.9,67.8,11.1-3.6,38.4-17.1,74.7-29.4,112.2,12.3-19.2,34.8-51,59.4-81.6,69.3-86.7,114.3-67.2,79.8,1.8-26.1,51.9-81.9,175.8-12,172.8,11.4-.6,7.2,6-4.8,4.8Z"/>
  </g>
</svg>