<?xml version="1.0" encoding="UTF-8"?>
<svg id="Layer_2" data-name="Layer 2" xmlns="http://www.w3.org/2000/svg" viewBox="0 0 357.22 281.76">
  <defs>
    <style>
      .cls-1 {
        fill: #231f20;
      }
    </style>
  </defs>
  <g id="Layer_1-2" data-name="Layer 1">
    <path class="cls-1" d="M288.82,189.63c-27.3,59.7-17.1,96.6,17.4,80.7,20.7-9.6,15.3,12.3-6.6,11.4-40.8-1.8-52.8-29.1-36.6-77.7,10.5-31.2,65.7-132.3,70.5-163.2,3.6-21-15.6-21.3-36.6-11.1-22.2,10.5-45.3,29.1-66.6,54.6-42.3,51.3-73.2,123.6-92.7,164.4-5.1,10.8-27.3,11.4-24.9,1.8,14.7-21.6,61.5-115.2,75.9-178.8C206.02-7.17,146.01-1.17,94.41,30.93,5.91,85.83-4.29,195.63,55.11,195.63c63,0,100.5-92.4,47.1-85.5-6,.6-3.6-4.2-.6-4.8,71.1-17.1,32.1,96-47.4,96-38.1,0-70.5-38.4-45.3-99.6C23.31,67.23,56.61,36.93,91.11,18.03c49.5-27,126-31.5,117,42.3-2.7,23.1-14.7,47.4-24.9,69.9-15.6,33.9-4.2,12,1.5,3.3,10.8-16.8,24.6-36,39.6-54,22.5-27.3,48-51.9,71.1-62.4,28.2-13.2,62.4-12.3,61.8,20.4-.6,35.7-38.7,87.3-68.4,152.1Z"/>
  </g>
</svg>