<?xml version="1.0" encoding="UTF-8"?>
<svg id="Layer_2" data-name="Layer 2" xmlns="http://www.w3.org/2000/svg" viewBox="0 0 257.83 250.56">
  <defs>
    <style>
      .cls-1 {
        fill: #231f20;
      }
    </style>
  </defs>
  <g id="Layer_1-2" data-name="Layer 1">
    <path class="cls-1" d="M211.63,113.14c-.9,10.2-3.3,20.7-6.9,32.1-18.6,56.7-86.7,122.1-150.3,101.4-34.2-11.1-51.3-61.5-30.9-113.7C10.63,124.24,1.93,111.64.43,95.14c-11.7-115.2,218.4-140.7,212.4,7.5,16.2-10.8,31.5-23.1,39-37.8,2.1-4.2,9-3.9,4.5,3.3-11.1,17.4-25.8,33-44.7,45ZM16.93,97.84c1.2,9.3,5.4,17.1,12,22.8C45.43,85.84,98.53,15.34,143.83,40.84c4.5,2.4,1.5,5.4-2.4,4.2-37.5-11.7-84.6,57.6-97.2,85.8,35.4,17.4,101.4,7.8,150.3-18.6C208.63-46.16,1.03-9.26,16.93,97.84ZM39.73,141.34c-14.4,37.8-13.5,81.3,15.6,95.7,52.5,25.8,111.3-34.2,132-93,2.4-6.9,4.5-14.4,5.4-21.3-49.5,26.4-113.4,34.5-153,18.6Z"/>
  </g>
</svg>