<?xml version="1.0" encoding="UTF-8"?>
<svg id="Layer_2" data-name="Layer 2" xmlns="http://www.w3.org/2000/svg" viewBox="0 0 410.91 250.12">
  <defs>
    <style>
      .cls-1 {
        fill: #231f20;
      }
    </style>
  </defs>
  <g id="Layer_1-2" data-name="Layer 1">
    <path class="cls-1" d="M377.01,54.66c-44.4-5.7-69.3-16.5-75.6-19.2-36,57.3-38.4,123-82.5,173.4-63.6,72.3-253.8,51.3-213.3-76.8,9-27.9,38.7-40.2,36.9-27.6-4.8,6-26.1,12.9-30.9,41.4-10.8,61.5,44.7,94.5,90.9,93.6,47.1-1.2,79.2-20.1,102-45,36.3-39.3,75.6-145.2,88.2-162-31.5-9.9-58.8-15-90.9-16.5-85.8-4.2-120.3,83.7-73.2,98.7,36.9,11.7,58.5-25.5,57.3-33.9v-.6c3-2.7,6-1.5,6,2.4-3.9,32.1-38.1,49.2-66.3,39.6C64.4,100.87,87.2-9.54,199.7.66c36,3,78.6,20.7,97.8,26.1,2.7-3.3,15.6-18.3,22.2-18.3h-.3c9.6-3,12,11.7,2.1,8.7-2.7-2.1-11.7,8.1-15.6,12,25.8,8.4,98.7,28.5,98.7,8.1,0-2.7.6-4.5,3.3-4.5,2.1,0,3,4.8,3,6.3,0,11.4-15,18-33.9,15.6Z"/>
  </g>
</svg>