<?xml version="1.0" encoding="UTF-8"?>
<svg id="Layer_2" data-name="Layer 2" xmlns="http://www.w3.org/2000/svg" viewBox="0 0 317.87 282.03">
  <defs>
    <style>
      .cls-1 {
        fill: #231f20;
      }
    </style>
  </defs>
  <g id="Layer_1-2" data-name="Layer 1">
    <path class="cls-1" d="M161.7,281.59c-24.9-4.5-17.4-55.2,22.8-151.2,15.6-36.9,36.9-100.5,13.5-114.9C149.4-14.51,49.8,44.89,25.2,111.79c-22.8,62.7,8.4,93.3,42.3,93.3s69.3-36.3,69.3-69.3c0-16.2-7.2-30-27.3-24-9,2.7-7.2-1.5-1.5-4.2,25.5-12,42,4.8,42,27.6,0,38.1-49.8,77.7-87.3,77.7-41.4,0-81.3-46.8-53.4-110.7C41.7,28.09,143.7-17.21,196.8,6.19c43.8,19.2,30.6,80.4,7.5,127.8-19.2,39-33.6,86.1-38.4,113.4-11.7,67.8,72.6-21.6,82.8-33.6,32.1-37.5,58.8-86.1,52.8-122.7-2.7-15.6-7.5-14.1-14.4-15.3-10.5-2.1-10.8-11.1,1.2-8.1,14.7,3.9,41.1,24.6,24,69-28.8,75.9-111.9,151.8-150.6,144.9Z"/>
  </g>
</svg>