<?xml version="1.0" encoding="UTF-8"?>
<svg id="Layer_2" data-name="Layer 2" xmlns="http://www.w3.org/2000/svg" viewBox="0 0 419.36 280.03">
  <defs>
    <style>
      .cls-1 {
        fill: #231f20;
      }
    </style>
  </defs>
  <g id="Layer_1-2" data-name="Layer 1">
    <path class="cls-1" d="M252.31,224.79c-.9-14.7,2.4-30.9,6-42.9-16.8,27.6-64.2,96.6-97.2,98.1-12,.6-22.8-6.6-21-31.2,1.8-25.2,16.5-64.5,39-118.2,15.3-36.9,37.5-100.5,14.1-114.9C144.31-14.31,51.61,47.19,26.71,114.39c-27.9,75.3,16.2,101.7,56.1,87,41.7-15.3,68.4-98.7,15.3-90-9.3,1.5-7.2-2.7-.6-4.8,66.3-20.4,58.2,71.1-15.3,102-47.1,19.5-105.9-28.5-72.3-105.3C42.01,29.19,138.91-17.31,192.01,6.09c43.5,19.2,30,75.3,8.7,123.3-17.7,39.6-37.5,93.9-43.2,122.4-4.2,20.7,3.6,24,15.6,16.8,36.6-21.6,77.7-108.3,103.8-144.6,15.6-21.9,28.2-14.7,19.8,10.2-7.8,22.5-26.7,57.6-30,82.8-10.8,86.1,98.4,15.6,123.6-44.4,24.9-59.1,17.4-112.8-30.3-106.2-27,7.2-9.6-9.9,4.2-7.2,38.4-3.3,73.2,43.2,44.7,116.1-30.6,77.7-150.9,128.7-156.6,49.5Z"/>
  </g>
</svg>