<?xml version="1.0" encoding="UTF-8"?>
<svg id="Layer_2" data-name="Layer 2" xmlns="http://www.w3.org/2000/svg" viewBox="0 0 367.51 311.1">
  <defs>
    <style>
      .cls-1 {
        fill: #231f20;
      }
    </style>
  </defs>
  <g id="Layer_1-2" data-name="Layer 1">
    <path class="cls-1" d="M204.38,126.6c-.9,41.7-.3,84.3,4.5,102.6,13.8,51.3,60.3,17.4,85.5-40.8,2.4-5.1,8.7-6,5.1,1.5-43.8,91.8-101.1,102.9-112.5,50.1-3.3-14.4-2.1-56.7-1.2-102-63,45.6-124.8,97.2-163.5,157.8-7.2,11.7-14.1,15.3-18.3,15.3-5.1,0-6-5.1,1.5-15.3,47.4-65.7,114.3-122.4,180-169.2.3-28.8.6-54.3-3-78.9-7.8-52.8-95.1-4.5-108.9,25.2-1.5,1.2-11.1-.6-4.8-9.6,3.3-5.1,57.9-54.6,97.2-54.6s37.8,53.4,38.1,106.5c59.7-42,106.2-69.6,134.7-97.8,10.5-10.2,17.1-17.4,21.9-17.4s12.9,1.5-.6,14.7c-22.5,21.9-85.2,61.5-155.7,111.9Z"/>
  </g>
</svg>