<?xml version="1.0" encoding="UTF-8"?>
<svg id="Layer_2" data-name="Layer 2" xmlns="http://www.w3.org/2000/svg" viewBox="0 0 153.85 229.78">
  <defs>
    <style>
      .cls-1, .cls-2 {
        fill: #231f20;
      }

      .cls-2 {
        font-family: LexendDeca-Regular, 'Lexend Deca';
        font-size: 42px;
      }
    </style>
  </defs>
  <g id="Layer_1-2" data-name="Layer 1">
    <path class="cls-1" d="M25.42,32.34l-4.19-1.83C27.53,16.12,40.46,5.93,57.63,1.82c19.06-4.55,40.22-.4,54.78,10.47l5.01-4.85,4.43,17.66-17.51-4.99,4.74-4.6c-13.49-9.76-32.86-13.44-50.38-9.25-15.75,3.77-27.56,13.03-33.27,26.08ZM137.77,218.04l4.47,5.31-17.93,3.18,6.21-17.12,4.28,5.09c15.36-18.24,21.12-48.73,4.33-70.67l3.62-2.77c18.4,24.03,11.95,57.39-4.98,76.97Z"/>
    <text class="cls-2" transform="translate(0 45.23)"><tspan x="0" y="0">1</tspan></text>
    <text class="cls-2" transform="translate(130.65 140.7)"><tspan x="0" y="0">2</tspan></text>
    <g id="Layer_1-2" data-name="Layer 1-2">
      <g>
        <g>
          <path class="cls-1" d="M60.66,120.76c-.15,0-.31-.03-.45-.09-.45-.18-.76-.6-.79-1.08-.06-.83-.1-1.68-.12-2.54,0-.5.27-.96.73-1.17l.61-.27c.29-.13.57-.25.85-.39.06-.03.13-.06.2-.08l.5-.14c.07-.02.14-.03.22-.04.52-.05,1.04-.09,1.56-.14l.21-.02h.1c.49,0,.94.29,1.14.74.22.48.11,1.05-.28,1.42l-3.62,3.45c-.24.23-.55.34-.86.34h0Z"/>
          <path class="cls-1" d="M64.28,116.06l-3.62,3.45c-.05-.82-.09-1.65-.12-2.49.49-.22.99-.44,1.48-.67.17-.05.33-.09.5-.14.58-.05,1.17-.1,1.76-.15M64.28,113.56h-.23c-.58.05-1.17.1-1.75.15-.15.01-.29.04-.44.08l-.37.1-.14.04c-.14.04-.27.09-.4.15-.27.13-.55.25-.83.37-.21.09-.42.19-.62.28-.91.42-1.49,1.34-1.46,2.34.02.85.06,1.72.12,2.59.06.97.68,1.81,1.59,2.16.29.11.6.17.91.17.63,0,1.25-.24,1.72-.69l3.58-3.4c.51-.46.82-1.12.82-1.85,0-1.37-1.1-2.49-2.47-2.5h-.03,0Z"/>
        </g>
        <g>
          <path class="cls-1" d="M73.74,228.52c-12.15,0-23.39-2.79-33.41-8.29-9.39-5.15-17.94-13.82-25.43-25.77-.59-.95-.78-2.06-.52-3.15.26-1.07.92-1.98,1.87-2.55.03-.02.06-.04.09-.05.55-.33,1.28-.54,2.01-.54,1.41,0,2.7.71,3.45,1.9,4.81,7.63,9.88,13.69,15.06,18.01,5.68,4.73,11.66,8.04,17.78,9.85,6.17,1.82,12.75,2.74,19.57,2.74,9.28,0,17.64-2.27,24.86-6.74,7.23-4.48,13.01-10.58,17.18-18.13,4.17-7.56,6.29-15.94,6.29-24.91s-2.03-17.15-6.04-24.3c-4-7.15-9.46-12.88-16.21-17.04-6.74-4.15-14.37-6.25-22.67-6.25-1.28,0-2.66.05-4.23.16h-.19l-.68-.06s-.09-.01-.14-.02c-.21-.04-.43-.06-.66-.06-.17,0-.34.01-.52.04-.05,0-.11.01-.16.01h-.06c-2.41-.12-4.83-.25-7.24-.41-.08,0-.16-.02-.24-.04-1.12-.29-2.05-.5-2.93-.64-.56-.09-.99-.55-1.04-1.12-.04-.44-.07-.87-.1-1.28-.04-.53.26-1.02.75-1.23l.16-.07c.47-.21.94-.41,1.41-.6,4.26-1.67,9.61-2.52,15.89-2.52,7.75,0,14.9,1.38,21.27,4.11,6.35,2.72,12,6.58,16.8,11.45,4.79,4.88,8.53,10.79,11.09,17.57,2.55,6.76,3.85,14.27,3.85,22.31,0,10.54-2.51,20.27-7.46,28.93-4.94,8.65-11.79,15.67-20.37,20.86-8.58,5.2-18.36,7.83-29.08,7.83Z"/>
          <path class="cls-1" d="M77.63,116.7c7.61,0,14.54,1.34,20.78,4.01,6.23,2.67,11.7,6.4,16.4,11.18,4.7,4.78,8.3,10.49,10.81,17.13,2.51,6.64,3.77,13.93,3.77,21.87,0,10.37-2.43,19.8-7.29,28.31-4.86,8.5-11.5,15.31-19.93,20.41-8.42,5.1-17.9,7.65-28.43,7.65-11.99,0-22.93-2.71-32.8-8.14-9.25-5.08-17.57-13.52-24.97-25.33-.85-1.35-.43-3.14.93-3.96h0c.46-.28.96-.41,1.45-.41.94,0,1.86.47,2.39,1.32,4.91,7.78,10.01,13.88,15.32,18.3,5.83,4.86,11.91,8.22,18.22,10.08,6.32,1.86,12.96,2.79,19.93,2.79,9.56,0,18.06-2.31,25.52-6.93,7.45-4.62,13.32-10.81,17.62-18.59,4.29-7.78,6.44-16.28,6.44-25.52s-2.07-17.53-6.2-24.91c-4.13-7.37-9.68-13.2-16.65-17.5-6.97-4.29-14.74-6.44-23.33-6.44-1.41,0-2.86.06-4.31.16-.19-.02-.49-.04-.68-.06-.29-.06-.59-.09-.91-.09-.22,0-.45.02-.69.05-2.41-.12-4.81-.25-7.22-.41-1-.26-2.02-.5-3.05-.67-.04-.43-.07-.85-.1-1.25.51-.22,1.02-.45,1.52-.65,4.13-1.62,9.27-2.43,15.43-2.43M77.63,114.2c-6.44,0-11.93.88-16.34,2.6-.5.2-1,.41-1.5.63l-.12.05c-.97.42-1.56,1.41-1.49,2.46.03.42.06.86.1,1.31.1,1.13.96,2.05,2.08,2.24.84.14,1.74.33,2.81.62.15.04.31.07.47.08,2.47.16,4.91.3,7.26.41h.12c.11,0,.22,0,.33-.02.12-.02.25-.02.36-.02.14,0,.28.01.41.04.09.02.19.03.28.04l.68.06h.38c1.53-.1,2.89-.15,4.14-.15,8.07,0,15.48,2.04,22.02,6.07,6.57,4.05,11.88,9.63,15.78,16.59,3.9,6.96,5.88,14.93,5.88,23.69s-2.06,16.94-6.13,24.31c-4.06,7.36-9.7,13.3-16.75,17.67-7.02,4.35-15.16,6.55-24.2,6.55-6.7,0-13.16-.91-19.22-2.69-5.96-1.75-11.79-4.99-17.33-9.61-5.08-4.24-10.06-10.2-14.8-17.71-.98-1.56-2.67-2.48-4.51-2.48-.96,0-1.91.26-2.74.76-1.25.75-2.11,1.93-2.45,3.33-.34,1.41-.1,2.87.67,4.1,7.6,12.13,16.31,20.94,25.89,26.2,10.2,5.61,21.64,8.45,34.01,8.45,10.94,0,20.95-2.7,29.73-8.02,8.75-5.3,15.75-12.47,20.8-21.31,5.06-8.85,7.62-18.79,7.62-29.55,0-8.2-1.32-15.85-3.93-22.75-2.63-6.94-6.45-12.99-11.37-18-4.92-4.99-10.7-8.94-17.2-11.72-6.52-2.8-13.85-4.21-21.76-4.21h0l.02-.02Z"/>
        </g>
      </g>
      <g>
        <path class="cls-1" d="M72.7,123.43c-.08,0-.16-.01-.23-.03-.24-.06-.5-.09-.76-.09-.2,0-.4.02-.61.05-.06.01-.13.02-.19.02-.03,0-1.44-.1-1.44-.1-.08,0-.21-.02-.29-.04-2.31-.62-4.35-1.11-6.23-1.48-.56-.11-1.07-.33-1.53-.65l-1.51-1.05c-.32-.22-.51-.57-.53-.96-.14-2.17,1.45-4,3.61-4.2,2.59-.23,5.13-.39,7.53-.49h.05c.07,0,.15,0,.22.02,1.63.29,3.16.44,4.56.44,3.3,0,6.43-.25,9.38-.72,7.36-1.17,13.82-4.1,19.21-8.72,5.4-4.64,9.43-10.49,11.97-17.38,2.55-6.9,3.2-14.43,1.94-22.38-1.26-7.95-4.31-15.09-9.07-21.2s-10.74-10.7-17.78-13.66c-4.87-2.05-10.1-3.08-15.55-3.08-2.41,0-4.9.2-7.42.6-6.05.96-11.76,2.7-16.98,5.18-5.17,2.46-10.01,6.23-14.38,11.22-3.95,4.51-7.56,10.52-10.73,17.85-.64,1.49-2.11,2.45-3.74,2.45-.52,0-1.04-.1-1.53-.3-.88-.36-1.57-1.04-1.94-1.92-.37-.89-.37-1.87.01-2.77,5-11.81,11.43-20.83,19.12-26.78,8.15-6.29,17.77-10.36,28.59-12.07,2.92-.46,5.83-.7,8.65-.7,6.38,0,12.56,1.2,18.37,3.58,8.37,3.42,15.46,8.7,21.09,15.71,5.63,7.02,9.24,15.34,10.73,24.73,1.14,7.17,1.04,14.04-.28,20.42-1.33,6.4-3.82,12.2-7.41,17.22-3.59,5.02-8.08,9.25-13.36,12.58-5.29,3.33-11.47,5.57-18.38,6.67-2.8.44-5.44.67-7.85.67-1.21,0-2.38-.06-3.5-.17.06.23.06.48-.02.72-.17.51-.65.85-1.18.85-.02,0-.61-.03-.61-.03h0Z"/>
        <path class="cls-1" d="M75.1,21.74c6.24,0,12.21,1.16,17.9,3.48,8.21,3.35,15.07,8.46,20.59,15.34,5.52,6.88,9.01,14.92,10.47,24.14,1.12,7.05,1.03,13.71-.27,19.97-1.3,6.26-3.7,11.84-7.2,16.75-3.51,4.91-7.84,8.99-13.01,12.25-5.17,3.25-11.14,5.42-17.9,6.49-2.75.44-5.3.65-7.65.65s-4.47-.21-6.41-.64c-.65-.14-1.31-.31-1.97-.49l3.67,2.53c-.19,0-.37-.02-.56-.03-.33-.08-.68-.12-1.04-.12-.26,0-.53.02-.8.06-.47-.03-.93-.07-1.4-.1-2.09-.56-4.2-1.08-6.32-1.5-.38-.07-.74-.22-1.06-.45l-1.51-1.05v-.03c-.09-1.47,1.01-2.73,2.47-2.86,2.48-.22,4.97-.39,7.46-.48,1.64.3,3.25.46,4.79.46h.05c3.32-.01,6.49-.25,9.52-.73,7.63-1.21,14.24-4.21,19.83-9.01,5.59-4.8,9.7-10.76,12.33-17.9,2.63-7.14,3.3-14.8,2-23.01-1.3-8.21-4.41-15.47-9.32-21.77-4.91-6.31-11.01-10.99-18.28-14.04-5.05-2.12-10.4-3.18-16.03-3.18-2.48,0-5.02.21-7.62.62-6.19.98-11.96,2.74-17.32,5.29-5.35,2.54-10.28,6.39-14.78,11.53-4.05,4.63-7.7,10.69-10.94,18.18-.46,1.06-1.5,1.7-2.59,1.7-.35,0-.71-.07-1.06-.21-1.2-.48-1.75-1.85-1.24-3.04,4.93-11.67,11.18-20.43,18.74-26.28,8.02-6.22,17.36-10.17,28.01-11.85,2.87-.45,5.69-.68,8.45-.68M75.1,19.24c-2.88,0-5.86.24-8.84.71-11.03,1.75-20.84,5.9-29.16,12.35-7.86,6.09-14.43,15.27-19.51,27.29-.51,1.2-.51,2.53-.01,3.73.5,1.19,1.43,2.12,2.63,2.6.64.26,1.31.39,1.99.39,2.13,0,4.05-1.26,4.89-3.21,3.12-7.22,6.66-13.11,10.52-17.53,4.26-4.86,8.96-8.54,13.97-10.92,5.11-2.43,10.71-4.14,16.64-5.08,2.46-.39,4.89-.59,7.23-.59,5.28,0,10.35,1,15.07,2.99,6.84,2.87,12.65,7.34,17.27,13.28,4.63,5.95,7.59,12.89,8.82,20.63,1.23,7.74.59,15.06-1.88,21.76-2.47,6.69-6.38,12.37-11.62,16.87-5.21,4.47-11.46,7.31-18.59,8.44-2.88.46-5.95.69-9.13.7h0c-1.37,0-2.83-.14-4.39-.42-.15-.03-.29-.04-.44-.04h-.1c-2.44.09-4.92.25-7.59.49-2.84.25-4.92,2.67-4.75,5.5.05.76.44,1.49,1.07,1.92l1.51,1.05c.6.42,1.28.7,2,.85,1.84.36,3.85.84,6.15,1.46.15.04.31.07.47.08l.74.05.67.05h.18c.13,0,.26-.01.39-.03.14-.02.28-.03.41-.03.17,0,.32.02.47.05.15.04.3.06.46.06h.22l.35.03h.11c.99,0,1.88-.58,2.28-1.48.79.05,1.6.08,2.42.08,2.47,0,5.18-.23,8.04-.68,7.07-1.12,13.41-3.42,18.85-6.84,5.41-3.41,10.03-7.75,13.71-12.91,3.69-5.17,6.25-11.13,7.61-17.7,1.35-6.53,1.45-13.56.29-20.87-1.52-9.61-5.22-18.12-10.99-25.31-5.76-7.18-13.02-12.59-21.59-16.09-5.96-2.43-12.3-3.67-18.84-3.67h0Z"/>
      </g>
    </g>
  </g>
</svg>