<?xml version="1.0" encoding="UTF-8"?>
<svg id="Layer_2" data-name="Layer 2" xmlns="http://www.w3.org/2000/svg" viewBox="0 0 156.89 249.31">
  <defs>
    <style>
      .cls-1, .cls-2 {
        fill: #231f20;
      }

      .cls-2 {
        font-family: LexendDeca-Regular, 'Lexend Deca';
        font-size: 42px;
      }
    </style>
  </defs>
  <g id="Layer_1-2" data-name="Layer 1">
    <path class="cls-1" d="M17.26,51.06l-13.66,12.04L0,45.25l6.53,2.2c7.66-13.21,22.88-24.04,40.48-28.51,17.43-4.42,34.11-2,46.94,6.83l-2.58,3.76c-11.74-8.08-27.1-10.26-43.24-6.16-16.09,4.08-29.98,13.76-37.19,25.57l6.31,2.13ZM156.51,165.81l-9.08,15.78-9.13-15.75h6.83s-.13-110.61-.13-110.61h4.57s.13,110.59.13,110.59h6.82Z"/>
    <text class="cls-2" transform="translate(93.96 35.7)"><tspan x="0" y="0">1</tspan></text>
    <text class="cls-2" transform="translate(133.88 48.91)"><tspan x="0" y="0">2</tspan></text>
    <g id="Layer_1-2" data-name="Layer 1-2">
      <g>
        <path class="cls-1" d="M69.94,155.88c-11.55,0-21.9-2.6-30.76-7.73-8.88-5.13-15.9-12.34-20.88-21.43-4.98-9.07-7.5-19.52-7.5-31.06s2.52-21.67,7.5-30.53c4.98-8.87,12.01-15.9,20.89-20.89,8.87-4.98,19.21-7.5,30.75-7.5s21.88,2.52,30.74,7.5c8.87,4.99,15.87,12.02,20.78,20.9,4.91,8.86,7.39,19.13,7.39,30.52s-2.49,21.98-7.39,31.05c-4.91,9.09-11.91,16.31-20.78,21.44-8.86,5.13-19.21,7.73-30.76,7.73h.02ZM69.94,43.99c-9.95,0-18.94,2.27-26.7,6.74-7.76,4.48-13.97,10.65-18.44,18.34-4.47,7.69-6.74,16.63-6.74,26.59s2.27,19.49,6.75,27.47c4.47,7.97,10.68,14.28,18.43,18.75,7.76,4.48,16.74,6.75,26.7,6.75s18.9-2.27,26.59-6.74c7.69-4.47,13.85-10.78,18.33-18.76s6.75-17.23,6.75-27.47-2.27-18.89-6.74-26.59c-4.48-7.69-10.65-13.86-18.34-18.34-7.69-4.47-16.64-6.74-26.59-6.74Z"/>
        <path class="cls-1" d="M69.94,37.99c11.37,0,21.42,2.45,30.13,7.34,8.71,4.9,15.48,11.7,20.3,20.41,4.82,8.71,7.24,18.68,7.24,29.92s-2.41,21.53-7.24,30.46c-4.83,8.93-11.59,15.91-20.3,20.95-8.71,5.04-18.76,7.56-30.13,7.56s-21.42-2.52-30.13-7.56-15.52-12.02-20.41-20.95c-4.9-8.93-7.34-19.08-7.34-30.46s2.45-21.2,7.34-29.92c4.89-8.71,11.7-15.51,20.41-20.41,8.71-4.89,18.76-7.34,30.13-7.34M69.94,149.88c10.22,0,19.29-2.3,27.22-6.91,7.92-4.61,14.18-11.02,18.79-19.22,4.61-8.21,6.91-17.57,6.91-28.08s-2.31-19.3-6.91-27.22c-4.61-7.92-10.87-14.18-18.79-18.79s-16.99-6.91-27.22-6.91-19.33,2.3-27.32,6.91c-7.99,4.61-14.29,10.87-18.9,18.79-4.61,7.92-6.91,16.99-6.91,27.22s2.3,19.87,6.91,28.08c4.61,8.21,10.91,14.62,18.9,19.22,7.99,4.61,17.1,6.91,27.32,6.91M69.94,35.49c-11.75,0-22.3,2.58-31.36,7.66-9.08,5.1-16.27,12.29-21.37,21.37-5.08,9.05-7.66,19.53-7.66,31.14s2.57,22.4,7.65,31.66c5.09,9.29,12.28,16.66,21.35,21.91,9.05,5.24,19.61,7.9,31.38,7.9s22.33-2.66,31.38-7.9c9.07-5.25,16.22-12.63,21.25-21.93,5-9.26,7.54-19.9,7.54-31.64s-2.54-22.08-7.55-31.13c-5.03-9.08-12.19-16.28-21.27-21.38-9.04-5.08-19.59-7.66-31.34-7.66h0ZM69.94,147.38c-9.74,0-18.51-2.21-26.08-6.58-7.56-4.36-13.61-10.51-17.97-18.28-4.37-7.79-6.59-16.82-6.59-26.86s2.21-18.47,6.57-25.96c4.36-7.5,10.41-13.51,17.99-17.88,7.57-4.36,16.34-6.58,26.08-6.58s18.46,2.21,25.96,6.57c7.5,4.37,13.52,10.39,17.89,17.89,4.36,7.5,6.57,16.23,6.57,25.96s-2.22,19.06-6.59,26.86c-4.37,7.78-10.38,13.93-17.87,18.29-7.49,4.36-16.23,6.57-25.96,6.57h0Z"/>
      </g>
      <g>
        <path class="cls-1" d="M127.14,45.77h.93c2.25,0,4.08,1.83,4.08,4.08v194.13c0,2.25-1.83,4.08-4.08,4.08h-.93c-2.25,0-4.08-1.83-4.08-4.08V49.85c0-2.25,1.83-4.08,4.08-4.08Z"/>
        <path class="cls-1" d="M128.08,47.02c1.57,0,2.83,1.27,2.83,2.83v194.13c0,1.57-1.27,2.83-2.83,2.83h-.93c-1.57,0-2.83-1.27-2.83-2.83V49.85c0-1.57,1.27-2.83,2.83-2.83h.93M128.08,44.52h-.93c-2.94,0-5.33,2.39-5.33,5.33v194.13c0,2.94,2.39,5.33,5.33,5.33h.93c2.94,0,5.33-2.39,5.33-5.33V49.85c0-2.94-2.39-5.33-5.33-5.33h0Z"/>
      </g>
    </g>
  </g>
</svg>