<?xml version="1.0" encoding="UTF-8"?>
<svg id="Layer_2" data-name="Layer 2" xmlns="http://www.w3.org/2000/svg" viewBox="0 0 133.59 184.24">
  <defs>
    <style>
      .cls-1 {
        fill: #231f20;
      }
    </style>
  </defs>
  <g id="Layer_1-2" data-name="Layer 1">
    <path class="cls-1" d="M84,183.34c-10.5,0-24.9-7.2-15.9-35.1,2.4-7.8,8.1-18,16.5-31.5,7.2-11.7,1.8-19.8-21.3,1.8-10.2,9.3-24.9,26.1-42,59.4-2.1,4.2-4.8,4.5-11.1,4.5-4.5.3-7.2,0-10.2,1.8C24.3,133.84,53.4,72.64,82.5,18.94,89.4,6.34,94.2-.56,103.8.04c3.9.3,8.4,1.8,12.6,1.2-13.2,13.5-52.2,87-76.8,137.1,8.1-10.2,16.2-19.5,24.3-26.4,14.4-12.9,45.3-31.8,55.5-28.2,0,0-32.1,56.4-36,77.4-2.4,12.3.6,15.6,4.5,15.9,13.8.9,34.2-39.9,40.5-52.8,2.7-5.4,7.2-3.3,4.2,3-9.9,20.7-26.4,56.1-48.6,56.1Z"/>
  </g>
</svg>