<?xml version="1.0" encoding="UTF-8"?>
<svg id="Layer_2" data-name="Layer 2" xmlns="http://www.w3.org/2000/svg" viewBox="0 0 67.78 137.7">
  <defs>
    <style>
      .cls-1 {
        fill: #231f20;
      }
    </style>
  </defs>
  <g id="Layer_1-2" data-name="Layer 1">
    <path class="cls-1" d="M21.31,131.1c4.5.6,10.2-2.7,13.5-5.7,9.9-9.9,19.8-28.5,28.2-45.3,2.4-5.4,6.6-3.3,3.9,2.7-7.8,16.8-24.9,54.9-47.1,54.9S-2.69,114.3,3.61,98.7l19.2-48.9c2.4-5.7-1.8-11.1-3-12.6l16.5-.3c9.6,0,9.6,3.3,6.3,10.5l-24,56.1s-3,6.6-3.6,8.7c-2.7,9.9-2.1,18.3,6.3,18.9ZM42.91,24.6c-6.9,0-11.4-5.4-10.5-12.3,1.2-6.9,7.8-12.3,14.4-12.3s11.7,5.4,10.5,12.3c-1.2,6.9-7.5,12.3-14.4,12.3Z"/>
  </g>
</svg>