<?xml version="1.0" encoding="UTF-8"?>
<svg id="Layer_2" data-name="Layer 2" xmlns="http://www.w3.org/2000/svg" viewBox="0 0 139.07 187.51">
  <defs>
    <style>
      .cls-1 {
        fill: #231f20;
      }
    </style>
  </defs>
  <g id="Layer_1-2" data-name="Layer 1">
    <path class="cls-1" d="M106.63.01h1.5c3.9.3,8.4,2.1,12.6,1.2-15.3,11.7-45.9,60.3-66,100.2-3.9,7.8-7.8,16.5-10.8,25.5,12.6-15.6,31.5-35.4,48.9-42,38.7-14.4,35.1,19.2,12.3,35.4-9,6.3-17.1,10.5-30.3,11.7-11.4,27.9,7.8,65.4,35.4,36,7.5-8.1,15.9-23.7,24.3-41.1,2.4-4.8,6-2.1,3.9,2.7-23.7,54.6-42.3,59.4-59.7,57.6-10.8-1.2-20.1-9.9-23.1-25.5-3.6-19.5,7.5-33.9,14.1-34.5,6.6.6,16.8-3.3,23.7-9,18.9-15.3,5.7-36.3-28.8-6.9-7.8,6.9-16.5,15.9-24.6,27.3-5.4,10.2-13.5,42.6-8.4,46.8H12.73c-4.2,0-3.6-2.7-2.4-6.6,5.4-20.7,15.6-37.8,24.6-58.5-13.8,26.1-25.8,47.7-31.8,53.4-2.4,2.1-4.2-1.2-2.4-3.9C21.13,142.82,60.73,53.11,86.53,14.71,93.73,4.21,100.03-.29,106.63.01Z"/>
  </g>
</svg>