<?xml version="1.0" encoding="UTF-8"?>
<svg id="Layer_2" data-name="Layer 2" xmlns="http://www.w3.org/2000/svg" viewBox="0 0 185.46 102.35">
  <defs>
    <style>
      .cls-1 {
        fill: #231f20;
      }
    </style>
  </defs>
  <g id="Layer_1-2" data-name="Layer 1">
    <path class="cls-1" d="M135,102.05c-10.8,0-25.2-7.2-16.2-35.1,2.4-7.8,8.1-18,16.5-31.5,7.2-11.7,1.8-19.8-21.3,1.8-12.9,12-38.4,45.6-42.3,63.6-6.9,0-11.1-7.8-9.6-16.5,2.1-13.2,7.5-23.1,12.6-34.2,9.9-20.4,19.5-42.3-12-12.9-10.2,9.3-24.3,25.5-41.4,58.5-2.1,4.5-4.8,4.8-11.4,4.8-4.2.3-6.9,0-9.9,1.8,14.4-28.5,26.1-56.4,40.8-83.4C48.6,4.55,52.5-.55,62.1.05c3.9.3,8.4,2.1,12.6,1.2-9,4.8-25.5,34.8-36.3,56.4,6-7.5,15.6-18.9,24.9-27C77.7,17.75,96.9-1.15,107.1,2.45c5.4,2.1,7.2,7.2,4.5,13.2-5.4,12.6-14.7,27.3-21.9,42,6-7.5,15.9-18.9,24.9-27,14.4-12.9,45.6-31.8,55.5-28.2,0,0-31.8,56.4-36,77.4-2.1,12.3,1.2,15,5.1,15,15.6,0,34.8-38.1,41.1-51.9,2.4-5.4,7.2-3.3,4.2,2.7-9,18.3-26.7,56.4-49.5,56.4Z"/>
  </g>
</svg>