<?xml version="1.0" encoding="UTF-8"?>
<svg id="Layer_2" data-name="Layer 2" xmlns="http://www.w3.org/2000/svg" viewBox="0 0 150.67 186.9">
  <defs>
    <style>
      .cls-1 {
        fill: #231f20;
      }
    </style>
  </defs>
  <g id="Layer_1-2" data-name="Layer 1">
    <path class="cls-1" d="M125.4,82.74c-16.5,19.8-42.9,30-64.2,17.4l-28.5,71.1c-6,12.9-10.2,16.2-20.1,15.6-3.9-.3-8.4-2.1-12.6-1.5,7.5-7.2,58.5-104.7,63.9-132-3.3,5.1-9,6.9-6.9,2.7,1.5-3,4.5-9.9,6-13.5,5.7-13.2,9-36,1.8-37.5,0,0,12.3-2.1,14.7-2.4,8.7-.9,11.4-2.4,10.8,12.3-.3,9.9-4.5,25.8-8.4,36C90.9,36.24,115.2-5.17,135.6.54c28.5,7.8,11.7,55.8-10.2,82.2ZM103.8,27.54c-11.4,15.6-26.1,41.7-40.2,68.1,14.7,14.7,47.7-18.6,63.9-48.3,19.8-36.9,1.8-55.5-23.7-19.8Z"/>
  </g>
</svg>