<?xml version="1.0" encoding="UTF-8"?>
<svg id="Layer_2" data-name="Layer 2" xmlns="http://www.w3.org/2000/svg" viewBox="0 0 102.24 120.23">
  <defs>
    <style>
      .cls-1 {
        fill: #231f20;
      }
    </style>
  </defs>
  <g id="Layer_1-2" data-name="Layer 1">
    <path class="cls-1" d="M38.94,117.23c-4.2,1.8-8.4,3-12.3,3-36.3,0-29.4-41.7-15-42.3,8.1-15.3,18-34.8,25.8-51.9C42.84,14.33,51.84,1.73,62.34.23c4.5-.6,8.1,0,11.1,1.5,5.4,2.7,4.2,7.8-1.2,5.1-3-1.2-6.6-1.8-9.6-.3-13.8,6.6-10.8,27.3-6.3,38.1,4.8,11.4,11.4,22.2,10.8,35.4-.6,11.7-9.6,25.5-21.3,33.3l2.1.3c10.2,1.5,19.5-4.8,27-13.8,6.9-8.4,16.2-27,22.5-39.3,1.5-3,6-1.2,4.5,1.8-11.1,24.9-29.1,65.1-63,54.9ZM18.54,91.43c-9.6,9.6-5.7,23.7,6,23.7,2.1,0,4.2-.3,6-1.2-6.3-3.9-11.4-11.1-12-22.5ZM44.94,23.03c-8.1,16.2-21,42.3-28.2,55.5,0,0,6.6-.3,6.3,9.6-.6,11.4,5.7,19.8,12.6,23.1,6.6-5.1,12.3-15.3,13.2-31.2.9-18.9-6.3-43.5-3.9-57Z"/>
  </g>
</svg>