<?xml version="1.0" encoding="UTF-8"?>
<svg id="Layer_2" data-name="Layer 2" xmlns="http://www.w3.org/2000/svg" viewBox="0 0 122.43 102.9">
  <defs>
    <style>
      .cls-1 {
        fill: #231f20;
      }
    </style>
  </defs>
  <g id="Layer_1-2" data-name="Layer 1">
    <path class="cls-1" d="M73.77,102.9c-13.5,0-21.6-14.1-13.8-38.4-10.2,18-25.8,38.4-40.5,38.4-6,0-16.5-2.1-18.9-13.5-2.7-12.9,4.8-24,10.2-34.8-1.8,0-4.5-.9-2.7-4.8l5.4-10.5c6-11.4,12.3-23.7,16.8-33,2.4-4.8,6-6.3,11.7-6.3h18.3c-6.9,5.1-11.1,8.7-19.2,25.2,0,0-13.5,27.3-18.9,38.7-14.4,31.2-1.8,43.2,17.7,20.7,16.8-19.5,33.3-54.6,44.7-78.3,2.4-4.8,6-6.3,11.7-6.3h16.2c-8.7,6.9-11.7,11.1-20.7,29.7-8.4,16.8-18.3,37.5-20.1,47.7-2.7,12.9,1.5,17.7,5.7,18,14.7,0,29.7-28.5,39.9-50.1,2.4-5.4,7.2-3.3,4.2,2.7-9.6,20.4-25.8,54.9-47.7,54.9Z"/>
  </g>
</svg>