<?xml version="1.0" encoding="UTF-8"?>
<svg id="Layer_2" data-name="Layer 2" xmlns="http://www.w3.org/2000/svg" viewBox="0 0 184.03 214.16">
  <defs>
    <style>
      .cls-1 {
        fill: #000000;
      }

      .cls-2 {
        fill: #000000;
      }

      .cls-3 {
        fill: #000000;
      }

      .cls-4 {
        fill: #000000;
      }

      .cls-5 {
        fill: #000000;
      }

      .cls-6 {
        fill: #000000;
      }
    </style>
  </defs>
  <g id="Layer_1-2" data-name="Layer 1">
    <g>
      <polygon class="cls-2" points="63.61 45.86 33.1 105.98 33.04 106.29 39.03 109.35 23.48 119.19 22.66 101.05 28.9 104 59.46 44.05 63.61 45.86"/>
      <path class="cls-2" d="M124.1,40.38l30.55,59.96,6-2.93-.82,18.14-15.31-9.86c-.03-.35,4.94-2.62,5.66-3,.22-.12.45.1.28-.38l-30.65-59.87c.52-.36,4.01-2.26,4.29-2.05Z"/>
      <path class="cls-2" d="M114.75,135.24l15.84,8.88-15.84,9.36v-6.6s-.33-.36-.36-.36h-34.2v-4.56h34.56v-6.72Z"/>
      <path class="cls-2" d="M118.82,25.41h11.88s.36.33.36.36v4.2h-18l-1.33-3.6c3.21-3.88,7.06-7.5,10.2-11.4.99-1.23,2.52-3.21,3-4.68,1.67-5.12-3.29-7.74-7.2-4.56-1.59,1.3-1.77,2.39-2.7,4.02-.1.17.05.44-.39.28-.33-.12-3.18-2.05-3.22-2.29,1.44-8.2,14.67-11,18-2.89,3.29,7.99-6.28,15.08-10.6,20.56Z"/>
      <path class="cls-2" d="M70.12,145.55c4.69,3.78,3.46,11.86-2.01,14.46-4.13,1.96-10.1.54-12.36-3.57-1.12-2.04-.47-4.42,2.19-3.63,1.32.4,2.02,3.52,5.15,3.97,6.81.97,7.55-8.23,2.52-9.24-1.64-.33-4.41.68-4.64-1.85-.19-2.12.97-2.34,2.8-2.5.39-.03.76.22,1.15.2,5.74-.42,3.82-10.06-2.42-7.7-2.81,1.06-2.82,5.15-5.61,4.26-2.14-.68-.98-3.23-.18-4.53,3.47-5.66,12.85-5.47,15.12,1.12,1.03,2.99.71,6.47-1.72,8.69v.34Z"/>
      <path class="cls-2" d="M68.9,1.89v25.44h4.8v4.56h-14.16v-4.2s.33-.36.36-.36h4.44V8.13l-4.32,2.16-1.08-4.09,7.74-4.25,2.22-.06Z"/>
    </g>
    <g id="Layer_1-2" data-name="Layer 1-2">
      <g>
        <path class="cls-6" d="M90.86,17.22c-1.33.82-2.63,3.51-2.87,4.68-.22,1.08.9,1.98,1.87,1.48.44-.23.83-1.02,1.15-1.8-.13-1.44-.18-2.9-.15-4.35h0Z"/>
        <path class="cls-3" d="M91.5,17.41c-.14.95-.3,1.89-.47,2.83.82-.09,1.59-.23,2.1-.33,1.79-.35,2.23-1.57.79-2.75l-2.41.25h0Z"/>
        <path class="cls-5" d="M0,213.49l.15-1.43c.89-.91,1.79-4.95,3.07-4.99.79-.02,1.5.41,1.45,1.24-.03.58-2.01,5.01-2.41,5.42-.71.72-1.64.44-2.26-.23h0Z"/>
        <path class="cls-3" d="M90.86,113.91h6.24c.57,0,1.54,2.33-1.2,2.64-1.91.22-7.55.5-5.04-2.64Z"/>
        <path class="cls-3" d="M60.86,113.91h6.24c.57,0,1.54,2.33-1.2,2.64-1.91.22-7.55.5-5.04-2.64Z"/>
        <path class="cls-3" d="M75.44,114.2c.39-.39,5.53-.44,6.3-.29,1.48.29,1.22,2.25-.29,2.58-.86.19-4.98.16-5.66-.23s-.88-1.53-.35-2.06Z"/>
        <path class="cls-3" d="M105.44,114.2c.39-.39,5.53-.44,6.3-.29,1.48.29,1.22,2.25-.29,2.58-.86.19-4.98.16-5.66-.23s-.88-1.53-.35-2.06Z"/>
        <path class="cls-3" d="M120.86,113.91h6.24c.27,0,1.68,2.31-1.2,2.64-1.91.22-7.55.5-5.04-2.64Z"/>
        <path class="cls-6" d="M28.54,152.58c.84-.04,1.46.81,1.3,1.61-.07.36-2.09,4.73-2.3,4.99-.96,1.16-2.65.37-2.37-1.02.08-.41,1.93-4.45,2.2-4.84.26-.37.71-.71,1.17-.73h0Z"/>
        <path class="cls-6" d="M67.26,71.24c.14.18.21.6.2.83-.02.79-1.6,4.44-2.1,5.19-.99,1.49-2.72.63-2.44-.83.07-.4,2.01-4.72,2.26-5.05.47-.63,1.61-.72,2.08-.13h0Z"/>
        <path class="cls-6" d="M72.34,57.27c.97-.07,1.65.64,1.46,1.59-.07.36-2.17,4.92-2.37,5.13-.88.96-2.56.21-2.21-1.35.09-.4,1.97-4.54,2.2-4.85s.53-.49.91-.52h.01Z"/>
        <path class="cls-6" d="M137.47,108.45c.22.2,2.41,5.01,2.45,5.35.15,1.36-1.61,1.98-2.4.93-.26-.35-2.27-4.9-2.31-5.27-.12-1.2,1.48-1.7,2.26-1.01Z"/>
        <path class="cls-5" d="M103.91,40.54c.67-.82,1.82-.39,2.33.36.25.37,2.15,4.53,2.19,4.82.17,1.22-1.52,2.01-2.35,1.04-.22-.25-2.2-4.57-2.3-5-.09-.37-.11-.92.13-1.22Z"/>
        <path class="cls-6" d="M75.61,50.28c-.24-.3-.22-.85-.13-1.22.1-.43,2.08-4.75,2.3-5,.83-.97,2.52-.18,2.35,1.04-.04.29-1.94,4.45-2.19,4.82-.51.75-1.66,1.18-2.33.36Z"/>
        <path class="cls-6" d="M179.48,203.94c.38-.47,1.62-.65,2.08-.13.29.33,2.35,4.64,2.44,5.09.29,1.46-1.43,2.38-2.46.86-.27-.39-2.09-4.21-2.19-4.6-.09-.36-.11-.93.13-1.22h0Z"/>
        <path class="cls-6" d="M117.22,67.35c.31-.09.47-.1.78,0,.75.25,3.14,5.27,2.96,6.1-.21,1-1.58,1.28-2.24.57-.18-.2-2.27-4.54-2.37-4.91-.22-.77.08-1.51.87-1.75h0Z"/>
        <path class="cls-6" d="M122.9,81.26c.77-.96,1.8-.13,2.31.66.35.55,1.94,3.98,2.04,4.52.27,1.46-1.45,2.33-2.44.83-.5-.75-2.08-4.4-2.1-5.19,0-.23.06-.65.2-.83h0Z"/>
        <path class="cls-6" d="M156.23,149.19c.25.19,2.48,4.93,2.55,5.36.21,1.39-1.42,2.07-2.26,1.16-.19-.21-2.29-4.77-2.37-5.13-.25-1.26,1.2-2.07,2.08-1.39h0Z"/>
        <path class="cls-6" d="M34.55,138.98c1.02-.18,1.72.71,1.54,1.63-.08.4-1.94,4.46-2.21,4.84-.99,1.42-2.61.3-2.45-.89.04-.3,1.94-4.45,2.19-4.82.21-.3.55-.69.92-.76h.01Z"/>
        <path class="cls-6" d="M160.69,162.96c.47-.58,1.62-.49,2.08.13.23.3,2.23,4.71,2.28,5.03.21,1.5-1.53,2.14-2.27,1.15-.27-.37-2.04-4.14-2.16-4.62s-.25-1.3.07-1.7h0Z"/>
        <path class="cls-6" d="M22.26,166.18c.98,0,1.46.86,1.25,1.77-.1.43-1.99,4.52-2.22,4.81-.96,1.16-2.65.37-2.37-1.02.08-.41,1.93-4.45,2.2-4.84.25-.36.69-.71,1.14-.71h0Z"/>
        <path class="cls-6" d="M173.98,189.8c.4-.09,1.02.11,1.32.42.21.22,2.19,4.53,2.31,4.98.41,1.6-1.27,2.43-2.35,1-.34-.45-2.05-4.09-2.17-4.63-.16-.72.1-1.61.89-1.78h0Z"/>
        <path class="cls-5" d="M97.97,26.67c.38-.16.88-.2,1.27-.06.68.24,2.93,5.33,2.77,6.18-.18.94-1.69,1.13-2.29.24-.56-.84-2.45-4.87-2.3-5.69.05-.29.27-.55.54-.66h.01Z"/>
        <path class="cls-6" d="M167.75,176.19c.49-.13.98.09,1.29.46.28.33,2.02,4.12,2.15,4.63.46,1.83-.99,2.91-2.18,1.34-.38-.5-2.01-4-2.16-4.63-.21-.83,0-1.57.9-1.8h0Z"/>
        <path class="cls-4" d="M40.8,125.39c.69-.12,1.51.36,1.61,1.03.06.37-2.03,5.2-2.37,5.6-.84.97-2.52.18-2.35-1.04.04-.3,1.94-4.45,2.19-4.82.21-.3.55-.7.92-.76h0Z"/>
        <path class="cls-1" d="M143.73,122.02c.23.19,2.45,5.08,2.49,5.39.17,1.19-1.44,1.92-2.25,1.11-.27-.27-2.38-4.81-2.46-5.26-.24-1.36,1.47-1.85,2.21-1.24h0Z"/>
        <path class="cls-6" d="M84.6,30.09c.93-.18,1.93.43,1.79,1.43-.04.3-2.05,4.65-2.29,4.97-1,1.31-2.64.4-2.36-1.01.09-.45,1.9-4.38,2.21-4.84.18-.26.31-.48.65-.54h0Z"/>
        <path class="cls-6" d="M110.72,53.8c.89-.38,1.42.14,1.86.84.27.43,2.06,4.34,2.11,4.66.18,1.27-1.65,2.17-2.53.72-.36-.59-2.02-4.14-2.12-4.68s.19-1.33.69-1.54h-.01Z"/>
        <path class="cls-5" d="M59.22,84.64c.63-.42,1.83.03,1.98.8s-1.77,4.99-2.29,5.7c-.9,1.21-2.61.28-2.22-1.37.11-.44,2.29-4.96,2.53-5.12h0Z"/>
        <path class="cls-4" d="M53.75,98.09c1.18.07,1.31,1.06,1.07,2.01-.1.38-2.09,4.56-2.27,4.76-.56.61-2.02.42-2.2-.38-.21-.89,1.95-5.55,2.65-6.09.2-.15.5-.31.76-.3h0Z"/>
        <path class="cls-6" d="M149.98,135.61c.23.19,2.49,4.98,2.55,5.37.18,1.24-1.65,1.93-2.31,1.14-.18-.22-2.35-4.8-2.4-5.07-.25-1.27,1.25-2.17,2.16-1.44h0Z"/>
        <path class="cls-4" d="M15.52,179.93c.93-.18,1.93.43,1.79,1.43-.06.42-2.1,4.67-2.44,5.06-1.01,1.21-2.54.2-2.26-1.14.06-.31,2-4.44,2.25-4.8.18-.26.31-.48.65-.54h.01Z"/>
        <path class="cls-5" d="M47.05,111.82c.83-.16,1.56.14,1.61,1.03.03.44-2.02,5.19-2.37,5.59-.6.69-2.02.52-2.19-.39-.19-.99,1.98-6.04,2.95-6.23Z"/>
        <path class="cls-4" d="M129.95,94.51c.47-.09,1.05.33,1.33.69.5.63,2.37,4.78,2.25,5.47-.18.98-1.5,1.36-2.17.63-.21-.23-2.16-4.33-2.27-4.76-.21-.83-.17-1.83.86-2.03Z"/>
        <path class="cls-4" d="M6.53,200.12c-.28-.35-.2-1.03-.1-1.46.09-.35,2.1-4.56,2.27-4.76.61-.71,2.03-.49,2.19.39s-1.58,4.69-2.18,5.56c-.52.77-1.59,1-2.19.27h0Z"/>
      </g>
      <path class="cls-3" d="M45.83,114.2c.39-.39,5.53-.44,6.3-.29,1.48.29,1.22,2.25-.29,2.58-.86.19-4.98.16-5.66-.23s-.88-1.53-.35-2.06Z"/>
      <path class="cls-3" d="M132.98,114.28c.39-.39,5.53-.44,6.3-.29,1.48.29,1.22,2.25-.29,2.58-.86.19-4.98.16-5.66-.23s-.88-1.53-.35-2.06Z"/>
    </g>
  </g>
</svg>