<?xml version="1.0" encoding="UTF-8"?>
<svg id="Layer_2" data-name="Layer 2" xmlns="http://www.w3.org/2000/svg" viewBox="0 0 162.08 260.6">
  <defs>
    <style>
      .cls-1 {
        fill: #c3c3c3;
      }

      .cls-2, .cls-3 {
        fill: #231f20;
      }

      .cls-4 {
        fill: #414141;
      }

      .cls-5 {
        fill: #848484;
      }

      .cls-3 {
        font-family: LexendDeca-Regular, 'Lexend Deca';
        font-size: 42px;
      }

      .cls-3, .cls-6 {
        isolation: isolate;
      }

      .cls-7 {
        fill: #020202;
      }

      .cls-8 {
        fill: #262324;
        stroke: #231f20;
        stroke-miterlimit: 10;
        stroke-width: 2.25px;
      }

      .cls-9 {
        fill: #010101;
      }
    </style>
  </defs>
  <g id="Layer_1-2" data-name="Layer 1">
    <g id="Layer_1-2" data-name="Layer 1-2">
      <path class="cls-2" d="M13.73,165.78h6.82l-9.08,15.77-9.13-15.75h6.83l-.13-110.61h4.57l.13,110.59h0ZM59.71,23.87l-.73-4.5c1.99-.32,47.92-7.45,74.1,13.76l5.22-4.51,3.42,17.89-17.2-5.98,5.06-4.38c-24.78-19.32-69.41-12.36-69.87-12.29h0ZM129.49,169.98l2.57,18.03-16.9-6.78,5.25-4.12c-19.82-17.35-50.62-11.96-50.94-11.9l-.83-4.48c1.42-.27,33.98-5.99,55.43,13.52l5.42-4.26h0Z"/>
      <path class="cls-8" d="M55.84,165.1c-.05.06-.03.19.08.28.32.25.9.45,1.33.8,3.31,2.73,3.48,8.09.81,11.32-3.26,3.96-9.63,3.53-12.95-.13-.46-.51-2.24-2.55-.91-2.94.97-.29,1.59,1.28,2.19,1.93,1.18,1.28,2.91,2.2,4.66,2.35,8.86.79,9.82-11.92,1.59-12.66-.54-.05-2.49.18-2.75-.23-1.18-1.87,2.78-1.32,3.55-1.43,2.13-.29,4.07-2.35,4.28-4.48.65-6.44-6.89-9.01-10.78-4.18-.38.47-1.3,2.38-1.58,2.47-.52.16-1.11-.15-1.11-.72,0-.19.79-1.73.96-2,2.42-3.86,8.21-5.09,11.71-1.91,2.92,2.65,3.26,7.94.27,10.65-.27.24-1.3.82-1.35.88Z"/>
      <g class="cls-6">
        <text class="cls-3" transform="translate(0 38.42)"><tspan x="0" y="0">1</tspan></text>
      </g>
      <g class="cls-6">
        <text class="cls-3" transform="translate(33.99 35.7)"><tspan x="0" y="0">2</tspan></text>
      </g>
    </g>
    <g id="Layer_2-2" data-name="Layer 2">
      <g id="Layer_1-2-2" data-name="Layer 1-2">
        <path class="cls-4" d="M44.21,258.42c.07-1-.42-2.27.18-2.88s2-.21,3-.22h7.65c.67,0,.93.18.9.87s0,1.51,0,2.26l-11.73-.03Z"/>
        <path class="cls-4" d="M81.4,48.22c-.22.45-.62.24-.93.24h-10.12c-.9,0-1.22-.23-1.13-1.13.04-.67.04-1.33,0-2h12.19v.26c-.5.34-1.11.47-1.71.37h-8.48c-.49,0-1.08-.14-1.33.52s.11,1.32,1.09,1.34h8.72c.6-.08,1.2.06,1.7.4Z"/>
        <path class="cls-4" d="M25.53,239.19h-.25v-11.72c1,.06,2.27-.42,2.89.18s.2,2,.22,3v7.53c0,.34.28.8-.23,1-.34-.5-.47-1.11-.36-1.71v-8c0-.48.12-1.08-.57-1.28s-1.31.1-1.32,1.16v8.16c.1.59-.04,1.19-.38,1.68Z"/>
        <path class="cls-4" d="M28.15,111.13c.47.2.24.62.24.92v9.68c0,.87-.18,1.25-1.11,1.14-.67-.04-1.33-.04-2,0v-11.77h.25c.35.51.48,1.14.36,1.75v8c0,.49-.12,1.08.57,1.29.69.21,1.28-.14,1.29-1.17v-8.15c-.09-.59.05-1.2.4-1.69Z"/>
        <path class="cls-4" d="M25.28,157.65h.25c.34.5.47,1.12.36,1.72v8c0,.49-.12,1.08.57,1.29.69.21,1.28-.14,1.29-1.17v-8.15c-.11-.6.02-1.22.36-1.72.47.2.24.62.24.92v9.68c0,.87-.18,1.25-1.11,1.14-.67-.04-1.33-.04-2,0l.04-11.71Z"/>
        <path class="cls-4" d="M25.28,134.35h.25c.34.5.47,1.11.36,1.71v8c0,.48-.12,1.08.57,1.28.69.2,1.28-.13,1.29-1.17v-8.15c-.11-.6.02-1.21.36-1.71.47.2.24.61.24.92v9.68c0,.87-.18,1.24-1.11,1.13-.67-.03-1.33-.03-2,0l.04-11.69Z"/>
        <path class="cls-4" d="M28.15,87.86c.47.2.24.61.24.92v9.68c0,.87-.18,1.24-1.11,1.13-.67-.03-1.33-.03-2,0v-11.77h.25c.34.5.47,1.11.36,1.71v8c0,.48-.12,1.08.57,1.28s1.28-.13,1.29-1.17v-8.15c-.08-.57.07-1.16.4-1.63Z"/>
        <path class="cls-4" d="M25.53,192.64h-.25v-11.72c1,.06,2.27-.42,2.89.18s.2,2,.22,3v7.53c0,.34.28.8-.23,1-.34-.5-.47-1.11-.36-1.71v-8c0-.48.12-1.08-.57-1.28s-1.28.13-1.29,1.16v8.16c.09.59-.06,1.19-.41,1.68Z"/>
        <path class="cls-4" d="M25.28,204.2c1,.06,2.27-.42,2.89.17s.2,2,.22,3v7.53c0,.34.28.8-.23,1-.34-.5-.47-1.12-.36-1.72v-8c0-.49.12-1.08-.57-1.29s-1.31.13-1.32,1.16v8.15c.11.6-.02,1.22-.36,1.72h-.25l-.02-11.72Z"/>
        <path class="cls-4" d="M28.21,64.56c.44.21.23.62.23.93v9.69c0,.87-.23,1.25-1.13,1.17-.67-.04-1.33-.04-2,0v-11.8h.22c.33.5.46,1.12.36,1.71v8c0,.49-.13,1.08.52,1.33.65.25,1.33-.11,1.34-1.09v-8.24c-.07-.6.09-1.21.46-1.7Z"/>
        <path class="cls-4" d="M90.28,258.42v-.24c.5-.33,1.11-.47,1.7-.37h7.89c.45,0,1,.08,1.21-.52s-.1-1.3-1-1.34c-1.43-.06-2.87,0-4.3,0h-4.07c-.52.07-1.04-.07-1.46-.37.21-.45.62-.23.93-.23h9.44c.87,0,1.25.18,1.14,1.11-.04.67-.04,1.33,0,2l-11.48-.04Z"/>
        <path class="cls-4" d="M28.43,48.5c0,1.23-.05,2.47,0,3.7,0,.57-.17.79-.75.78h-2.38c-.02-2.31-.03-4.63,0-7.03,0-.18-.31-.6.22-.6.09.11.16.22.23.34.14,1.82.18,3.65.13,5.48,0,.46-.07,1,.54,1.19.76.27,1.27-.09,1.38-.93.14-1-.33-2.07.43-3l.2.07Z"/>
        <path class="cls-4" d="M25.28,250.75c1,.09,2.35-.46,2.94.24s.15,1.88.18,2.87v1.42l-.19.07c-.76-.9-.29-2-.43-3-.11-.84-.61-1.19-1.38-.93-.55.19-.53.65-.53,1.08v4.05c.05.52,0,1.04-.12,1.54-.06.12-.14.24-.23.34-.53,0-.22-.42-.22-.6-.03-2.37-.02-4.72-.02-7.08Z"/>
        <path class="cls-4" d="M25.52,258.42v-.26c.43-.29.96-.41,1.48-.33h3.94c.7,0,1.41,0,1.4-1s-.71-.89-1.35-.91-1,0-1.55,0-.9,0-1.1-.51l.09-.09h3.67c.68,0,.91.21.87.88s0,1.5,0,2.25l-7.45-.03Z"/>
        <path class="cls-4" d="M25.53,45.61v-.26h7.43c-.1,1,.45,2.35-.25,2.94s-1.88.15-2.86.18h-1.42l-.09-.09c.2-.53.68-.48,1.1-.52s1.12,0,1.67,0,1.22,0,1.23-.92-.59-1-1.28-1h-4c-.53.09-1.08-.03-1.53-.33Z"/>
        <path class="cls-4" d="M44.99,45.6v-.25h12.22v.25c-.42.32-.95.46-1.47.37h-9.22c-.54.11-1.1-.03-1.53-.37Z"/>
        <path class="cls-4" d="M78.73,258.17v.25h-11.47v-.25c.38-.3.87-.43,1.35-.36h8.74c.49-.08.99.05,1.38.36Z"/>
        <path class="cls-5" d="M96.14,45.64l-.07-.29h1.68c.08.1.06.26-.04.34,0,0-.01,0-.02.01-.48.29-1.09.26-1.55-.06Z"/>
        <path class="cls-1" d="M97.77,45.55c0-.07,0-.13,0-.2h1.44c-.01.07-.01.14,0,.21-.39.39-1.02.4-1.41.02,0,0-.02-.02-.03-.03Z"/>
        <path class="cls-9" d="M145.94,69.16c-.16.47-.6.53-.93.71-1.57.89-1.58.88-2.48-.63-1.5-2.59-3.33-4.98-5.42-7.12-.6-.61-.66-1,0-1.59,1.47-1.35,1.43-1.4,2.76.08,2.15,2.37,4.04,4.97,5.63,7.74.16.25.3.54.44.81Z"/>
        <path class="cls-9" d="M132.65,136.77c-.38-.12-.5-.49-.69-.75-1.13-1.58-1.12-1.59.38-2.72,2.4-1.78,4.6-3.83,6.54-6.11.44-.52.74-.75,1.4-.18,1.62,1.41,1.65,1.36.22,2.94-2.14,2.36-4.54,4.49-7.14,6.34-.22.17-.46.31-.71.48Z"/>
        <path class="cls-9" d="M117.32,46.92c.32.09.59.17.85.26,3.29,1.08,6.49,2.42,9.57,4,.75.39.72.71.36,1.34-1,1.73-1,1.75-2.78.83-2.65-1.37-5.42-2.5-8.28-3.37-.76-.23-.93-.55-.64-1.24.18-.44.29-.91.43-1.37.08-.24.16-.51.49-.45Z"/>
        <path class="cls-9" d="M151.71,106.26c-.56,3.73-1.57,7.39-3,10.88-.17.42-.29.61-.85.4-2.17-.85-2.18-.81-1.37-3,1.04-2.75,1.78-5.61,2.22-8.52.11-.72.34-.87,1-.72.5.12,1,.15,1.53.23s.68.22.47.73Z"/>
        <path class="cls-7" d="M150.44,93.35c-.94.3-1.23-.12-1.27-1.18-.12-3.15-.57-6.28-1.34-9.33-.26-1,0-1.45,1-1.55.34-.06.68-.15,1-.27.5-.16.68,0,.81.52.81,3.62,1.34,7.3,1.6,11,0,.52-.13.73-.64.73-.32.08-.68.08-1.16.08Z"/>
        <path class="cls-9" d="M97.77,45.55h1.44c2.79.15,5.57.43,8.35.75.69.08.94.23.82,1-.3,2-.25,2.07-2.22,1.85-3.09-.36-6.2-.64-9.31-.69-.65,0-.83-.21-.77-.82s0-1.35.07-2l1.62-.09Z"/>
        <path class="cls-9" d="M119.11,137.63c1.74-.43,3.5-.81,5.22-1.32.88-.27,1.09.06,1.22.82.34,1.86.36,1.85-1.52,2.32-3.09.77-6.19,1.52-9.27,2.33-.78.21-1,0-1.19-.73-.45-1.93-.49-1.92,1.37-2.38l4.17-1.04Z"/>
        <path class="cls-9" d="M99.06,141.44h5.27c.73,0,.93.19.93.93q0,2-2.07,2h-9.33c-.9,0-1.25-.21-1.1-1.11.05-.28.05-.56,0-.84-.13-.84.19-1.09,1-1.05,1.79.11,3.55.07,5.3.07Z"/>
        <path class="cls-7" d="M44.99,45.6h12.16q.14,2.83-2.67,2.83h-8.5c-.85,0-1.14-.22-1-1.05.03-.58-.01-1.18.01-1.78Z"/>
        <path class="cls-9" d="M149.34,165.62c.3-.06.37.17.49.31,2.23,2.75,4.21,5.7,5.89,8.82.29.53.15.71-.34,1-1.95,1.07-1.94,1.09-3-.77-1.34-2.4-2.9-4.67-4.66-6.79-.52-.63-.45-.95.17-1.37s.99-.82,1.45-1.2Z"/>
        <path class="cls-9" d="M114.53,260.58c-.32.08-.48-.15-.52-.52v-.24q-.37-2.05,1.68-2.48c2.73-.54,5.43-1.22,8.09-2.06.65-.22.95-.16,1.18.56.65,2.09.69,2.08-1.45,2.69-2.72.79-5.48,1.41-8.25,1.95l-.73.1Z"/>
        <path class="cls-9" d="M141.92,250.78c-.19.09-.37.19-.54.3-2.81,2.17-5.8,4.09-8.93,5.76-.44.24-.65.14-.82-.27,0-.04,0-.07,0-.11q-1.13-2,.82-3.05c2.41-1.32,4.7-2.84,6.86-4.55.58-.47.87-.46,1.27.14s.78,1.07,1.34,1.78Z"/>
        <path class="cls-9" d="M156.21,232.49c-.09.18-.16.33-.22.47-1.48,3.05-3.23,5.96-5.25,8.68-.45.61-.73.71-1.36.19-1.58-1.29-1.61-1.26-.43-2.9,1.6-2.14,2.97-4.45,4.09-6.87.45-1,.91-1.06,1.72-.54.35.19.7.37,1.07.52.19.1.48.15.38.45Z"/>
        <path class="cls-9" d="M131.38,151.21l.67.35c2.88,1.52,5.64,3.26,8.26,5.2.6.44.72.73.2,1.37-1.3,1.6-1.25,1.62-3,.39-2.21-1.63-4.55-3.07-7-4.31-.73-.36-.9-.7-.41-1.39.24-.41.46-.83.65-1.27.16-.2.2-.49.63-.34Z"/>
        <path class="cls-7" d="M160.72,197.94c-1.48.54-1.71-.06-1.77-1.16-.17-2.94-.64-5.86-1.39-8.71-.2-.77-.08-1.08.76-1.28,1.94-.46,1.91-.51,2.39,1.46.63,2.92,1.08,5.88,1.35,8.85.15,1.59-1.14.53-1.34.84Z"/>
        <path class="cls-9" d="M160.07,209.45c2.06.13,1.91-.14,1.74,1.76-.29,3.05-.77,6.08-1.43,9.07-.13.63-.25,1-1.13.75-2-.58-2-.5-1.57-2.57.55-2.57.94-5.17,1.15-7.79.09-.99.25-1.66,1.24-1.22Z"/>
        <path class="cls-7" d="M78.73,258.17h-11.44q-.14-2.83,2.67-2.83h7.78c.85,0,1.15.22,1,1.06-.03.57.01,1.17,0,1.77Z"/>
        <path class="cls-7" d="M81.4,48.22h-10.91c-1.18,0-1-.62-1-1.35s-.18-1.34,1-1.31c3.64.08,7.27,0,10.91,0v2.66Z"/>
        <path class="cls-7" d="M28.15,157.68v10.43c0,1.17-.6,1.06-1.35,1.06s-1.37.11-1.35-1.06c.08-3.47,0-7,0-10.43h2.7Z"/>
        <path class="cls-7" d="M25.53,239.19v-10.43c0-1.16.6-1.06,1.35-1.06s1.33-.1,1.33,1.06c-.08,3.48,0,7,0,10.43h-2.68Z"/>
        <path class="cls-7" d="M25.53,192.64v-10.43c0-1.16.6-1.06,1.35-1.06s1.33-.1,1.33,1.06c-.08,3.48,0,6.95,0,10.43h-2.68Z"/>
        <path class="cls-7" d="M28.15,87.86v10.43c.06,1.16-.56,1.06-1.31,1.06s-1.37.1-1.35-1.06c.08-3.48,0-6.95,0-10.43h2.66Z"/>
        <path class="cls-7" d="M28.15,134.41v10.43c0,1.16-.6,1.06-1.35,1.06s-1.37.1-1.35-1.06c.08-3.48,0-6.95,0-10.43h2.7Z"/>
        <path class="cls-7" d="M28.21,64.56c0,3.47-.05,6.93,0,10.4,0,1.21-.62,1.1-1.41,1.12s-1.31,0-1.29-1.12c.08-3.47,0-6.93,0-10.4h2.7Z"/>
        <path class="cls-7" d="M28.15,111.13v10.43c0,1.17-.6,1.06-1.35,1.06s-1.33.11-1.31-1.06c.08-3.47,0-6.95,0-10.43h2.66Z"/>
        <path class="cls-7" d="M25.53,215.92v-10.44c0-1.16.6-1,1.35-1s1.33-.13,1.33,1c-.08,3.48,0,7,0,10.44h-2.68Z"/>
        <path class="cls-7" d="M90.3,255.55c3.38,0,6.77.05,10.16,0,1.2,0,1.09.61,1.11,1.4s0,1.32-1.11,1.29c-3.39-.07-6.78,0-10.16,0v-2.69Z"/>
        <path class="cls-7" d="M49.99,258.18h-4.67c-1.21,0-.8-.83-.84-1.41s-.19-1.28.87-1.26h9.46c.65,0,.9.17.91.87,0,1.79.06,1.78-1.66,1.79h-4.07Z"/>
        <path class="cls-7" d="M25.53,45.61h6.19c1.08,0,1,.56,1,1.26s.27,1.47-1,1.43c-1.14-.16-2.3-.11-3.42.15-.23,1.12-.27,2.26-.09,3.39,0,1.17-.73.9-1.35.9s-1.4.26-1.36-.91c.08-2.07.03-4.15.03-6.22Z"/>
        <path class="cls-7" d="M28.34,255.35c1.12.25,2.27.3,3.41.15,1.24,0,.93.76,1,1.42s.08,1.31-1,1.27c-2.07-.09-4.14,0-6.2-.05v-6.19c0-1.08.57-1,1.27-1s1.46-.25,1.42,1c-.17,1.13-.14,2.28.1,3.4Z"/>
        <path class="cls-9" d="M78.81,141.44h5.26c.74,0,.94.19.94.93q0,2-2.07,2h-9.33c-.9,0-1.25-.21-1.1-1.11.05-.28.05-.56,0-.84-.13-.84.19-1.09,1-1.05,1.79.11,3.54.07,5.3.07Z"/>
        <path class="cls-9" d="M56.75,141.44h5.26c.74,0,.94.19.93.93q0,2-2.06,2h-9.33c-.9,0-1.26-.21-1.1-1.11.04-.28.04-.56,0-.84-.13-.84.19-1.09,1-1.05,1.76.11,3.54.07,5.3.07Z"/>
        <path class="cls-9" d="M38.95,141.44h5.27c.73,0,.93.19.93.93q0,2-2.07,2h-9.33c-.9,0-1.25-.21-1.1-1.11.05-.28.05-.56,0-.84-.13-.84.19-1.09,1-1.05,1.79.11,3.56.07,5.3.07Z"/>
        <path class="cls-9" d="M111.13,144.99l.74.11c3.22.5,6.4,1.25,9.51,2.25.71.22.92.44.64,1.22-.71,1.93-.66,2-2.66,1.33-2.61-.82-5.29-1.42-8-1.8-.81-.1-1.08-.37-.84-1.18.09-.47.16-.94.2-1.41.01-.22-.04-.53.41-.52Z"/>
      </g>
    </g>
  </g>
</svg>