<?xml version="1.0" encoding="UTF-8"?>
<svg id="Layer_2" data-name="Layer 2" xmlns="http://www.w3.org/2000/svg" viewBox="0 0 205.88 251.65">
  <defs>
    <style>
      .cls-1 {
        fill: #c2c1c1;
      }

      .cls-2, .cls-3 {
        fill: #231f20;
      }

      .cls-4 {
        fill: #414141;
      }

      .cls-5 {
        fill: #848484;
      }

      .cls-6 {
        fill: #fff;
      }

      .cls-3 {
        font-family: LexendDeca-Regular, 'Lexend Deca';
        font-size: 42px;
      }

      .cls-3, .cls-7 {
        isolation: isolate;
      }

      .cls-8 {
        fill: #bcbcbc;
      }

      .cls-9 {
        fill: #020202;
      }

      .cls-10 {
        fill: #030303;
      }

      .cls-11 {
        fill: #424242;
      }

      .cls-12 {
        fill: #828282;
      }

      .cls-13 {
        fill: #bfbebe;
      }

      .cls-14 {
        fill: #7e7e7e;
      }

      .cls-15 {
        fill: #838384;
      }

      .cls-16 {
        fill: #010101;
      }
    </style>
  </defs>
  <g id="Layer_1-2" data-name="Layer 1">
    <g id="Layer_1-2" data-name="Layer 1-2">
      <path class="cls-2" d="M30.29,52.84l-15.48,9.6-.57-18.2,6.07,3.25C39.98,17.85,71.9,10.86,89.47,9.36c25.32-2.14,51.02,4.58,61.1,15.97l-3.42,3.02c-7.89-8.92-30.11-16.75-57.3-14.45-16.64,1.41-46.86,8.01-65.51,35.74l5.94,3.19h.01ZM147.15,110.95l20.92-.09-.03-6.82,15.8,9.04-15.73,9.17-.03-6.83-20.92.09-.02-4.57h0Z"/>
      <g class="cls-7">
        <text class="cls-3" transform="translate(150.57 35.7)"><tspan x="0" y="0">1</tspan></text>
      </g>
      <g class="cls-7">
        <text class="cls-3" transform="translate(113.72 124.82)"><tspan x="0" y="0">2</tspan></text>
      </g>
    </g>
    <g id="Layer_2-2" data-name="Layer 2">
      <g id="Layer_1-2-2" data-name="Layer 1-2">
        <path class="cls-6" d="M191,76.18c-.11.38-.35.7-.69.9-.3.17-.66.23-1,.17-.31.02-.63-.03-.91-.17l-5.09-2.55c-.72-.42-.95-1.34-.54-2.06.42-.72,1.34-.95,2.06-.53l.11.06c.24-.17.53-.26.83-.26,1.08,0,2.13.36,3,1,.83.63,1.55,1.4,2.12,2.28.19.36.23.77.11,1.16Z"/>
        <path class="cls-4" d="M110.13,33.78c0,.15,0,.31,0,.46q0,2.68-2.72,2.66h-.59c.3-.78,1-.51,1.54-.54.71,0,1.26-.12,1.24-1s-.56-.93-1.2-.93c-.52.07-1.05-.02-1.52-.24-.09-.09-.1-.23-.02-.32,0,0,0-.01.02-.02l3.25-.07Z"/>
        <path class="cls-11" d="M0,138.88l.76.21c-.16,1.62-.22,3.26-.16,4.89.08.61,0,1.23-.23,1.8-.07.13-.24.17-.37.1,0,0,0,0,0,0v-7Z"/>
        <path class="cls-11" d="M112.53,251.65h-4.07c-.08-.12-.04-.28.08-.36,0,0,.01,0,.02-.01,1.27-.35,2.6-.35,3.87,0,.13.07.18.22.11.35,0,0,0,.01-.01.02Z"/>
        <path class="cls-14" d="M108.42,251.47c-.01.06-.01.12,0,.18h-2.4c-.08-.12-.04-.28.08-.36,0,0,.01,0,.02-.01.74-.4,1.64-.32,2.3.19Z"/>
        <path class="cls-12" d="M112.53,251.65c-.02-.07-.02-.15,0-.22.71-.53,1.69-.53,2.4,0-.01.07-.01.15,0,.22h-2.4Z"/>
        <path class="cls-15" d="M106.78,33.78v.21c-.51.43-1.23.49-1.8.16-.13-.07-.17-.23-.1-.35,0,0,0-.01,0-.02h1.89Z"/>
        <path class="cls-5" d="M0,145.84c.07-.02.15-.02.22,0,.39.44.45,1.08.14,1.58-.07.12-.23.17-.36.09,0,0,0,0,0,0v-1.67Z"/>
        <path class="cls-8" d="M106,251.46c0,.06,0,.13,0,.19h-1.44c0-.06,0-.13,0-.19.33-.4.93-.45,1.32-.12.04.04.08.07.12.12Z"/>
        <path class="cls-1" d="M0,147.52c.07,0,.14,0,.21,0,.33.27.38.75.12,1.08-.03.04-.07.08-.12.12h-.21v-1.2Z"/>
        <path class="cls-13" d="M104.86,33.78c.02.07.02.14,0,.21-.27.33-.75.38-1.08.12-.04-.03-.08-.07-.12-.12,0-.07,0-.13,0-.2h1.2Z"/>
        <path class="cls-10" d="M183.39,137.5h-4.79c-.71,0-1.06-.1-1-1q0-2,2.07-2h8.62c.7,0,1.06.06,1,.94,0,2.07,0,2.08-2.07,2.08l-3.83-.02Z"/>
        <path class="cls-16" d="M185.07,68.84c1.29,1.59,1.58,1.95.79,2.91,1.04.03,2.05.38,2.89,1l.22.18,1.26-1.31c.35-.36.38-.6.06-1-1.29-1.57-2.54-3.17-3.82-4.76-.14-.17-.24-.42-.53-.4-.07.04-.14.08-.21.13-.63.55-1.49,1-1.79,1.71-.21.48.71,1.03,1.13,1.54Z"/>
        <path class="cls-16" d="M167.36,49.85c3.26,2.02,6.4,4.25,9.4,6.65.41.33.43.5.12.92-1.41,1.88-1.4,1.89-3.28.44-2.3-1.79-4.68-3.46-7.15-5-.59-.36-.66-.62-.25-1.16s.8-1.21,1.16-1.85Z"/>
        <path class="cls-16" d="M44.13,58.15c0,.35-.28.43-.45.56-2.76,2.11-5.41,4.36-7.94,6.74-.42.39-.63.36-1-.07-1.57-1.67-1.6-1.66.09-3.19,2.18-2,4.48-3.85,6.78-5.7.75-.6,1.08-.48,1.51.26.31.48.65.95,1.01,1.4Z"/>
        <path class="cls-16" d="M30.81,214.48c-.19.06-.37.14-.54.24-.41.32-.78.68-1.13,1.06-.48.55-.79.51-1.28,0-2.28-2.57-4.48-5.21-6.57-7.93-.46-.61-.47-.91.2-1.38,1.67-1.17,1.65-1.22,2.89.4,1.81,2.39,3.76,4.66,5.75,6.9.15.14.32.31.68.71Z"/>
        <path class="cls-16" d="M48.35,229.78c-.43.75-.94,1.46-1.52,2.1-.48.44-.88-.29-1.25-.55-2.69-1.86-5.25-3.88-7.77-6-.6-.5-.61-.79-.1-1.36,1.37-1.53,1.34-1.55,2.92-.24,2.27,1.88,4.6,3.67,7,5.36.27.17.59.29.72.69Z"/>
        <path class="cls-16" d="M145.92,39.78c1.64.61,3.28,1.19,4.9,1.84,1.62.65,3.43,1.43,5.18,2.16.68.27.8.52.48,1.2-.91,1.92-.88,1.93-2.8,1.08-2.56-1.18-5.19-2.2-7.87-3.07-1.11-.34-1.26-.82-.81-1.75.17-.36.31-.73.4-1.12.04-.23.25-.38.48-.35.01,0,.03,0,.04,0Z"/>
        <path class="cls-16" d="M20,83.78c-.75-.41-1.46-.89-2.11-1.45-.46-.48.28-.88.53-1.26,1.8-2.72,3.79-5.31,5.83-7.85.49-.62.8-.66,1.4-.13,1.52,1.33,1.55,1.3.27,2.89-1.85,2.29-3.59,4.65-5.24,7.1-.14.2-.23.54-.68.7Z"/>
        <path class="cls-16" d="M11.35,184.98c.34-.08.35.25.46.5,1.43,3.23,3.01,6.4,4.76,9.47.25.44.15.64-.26.8l-.1.06q-2,1.23-3.07-.79c-1.43-2.61-2.69-5.31-4-8-.37-.77-.22-1.11.57-1.35.56-.2,1.11-.43,1.64-.69Z"/>
        <path class="cls-16" d="M194.22,203.84c-.12.23-.23.45-.34.65-1.71,3.05-3.57,6.02-5.58,8.88-.4.58-.64.56-1.17.17-1.73-1.29-1.75-1.27-.53-3,1.66-2.38,3.18-4.85,4.57-7.4.38-.7.69-.84,1.33-.39.42.29.91.49,1.36.75.14.06.36.11.36.34Z"/>
        <path class="cls-16" d="M161,237.96c.06.32-.2.39-.4.51-3.16,1.84-6.42,3.51-9.77,5-.45.2-.61,0-.81-.35-1.11-2.1-1.12-2.1,1.05-3.09,2.65-1.2,5.23-2.53,7.74-4,.6-.36.93-.42,1.24.29.29.56.61,1.11.95,1.64Z"/>
        <path class="cls-16" d="M69,240.93l-.91,2.27c-.18.41-.46.17-.69.07-3.37-1.36-6.62-3-9.85-4.61-.44-.23-.49-.43-.26-.91q1-2.1,3.06-1c2.6,1.31,5.23,2.54,7.91,3.68.25.07.74.02.74.5Z"/>
        <path class="cls-16" d="M64.31,46.17c0,.39-.28.41-.47.49-3.22,1.46-6.36,3.09-9.41,4.89-.44.26-.59.1-.83-.25-1.35-2-1.36-2,.78-3.2,2.53-1.44,5.13-2.72,7.74-4,.83-.4,1.26-.35,1.53.58.19.51.41,1.01.66,1.49Z"/>
        <path class="cls-16" d="M86.62,38.78c.06.48-.29.48-.6.55-3.43.73-6.81,1.63-10.15,2.69-.45.14-.59.09-.77-.35-1-2.27-1-2.34,1.36-3,2.8-.78,5.63-1.42,8.42-2.23,1.09-.31,1.39.11,1.48,1,.05.46.17.88.26,1.34Z"/>
        <path class="cls-16" d="M11.79,92.6c.81.44,1.6.82,2.34,1.29.2.13,0,.43-.12.64-1.55,3.09-2.93,6.26-4.16,9.49-.2.53-.41.65-1,.47q-2.18-.71-1.29-2.92c1.12-2.8,2.34-5.57,3.71-8.26.13-.26.19-.59.52-.71Z"/>
        <path class="cls-9" d="M118.88,134.48c-1.84.06-3.67.06-5.51,0-.8,0-1.15.14-1.07,1,.05.81.05,1.63,0,2.44,1.09.26,2.12.76,3,1.45,0-1.89.2-1.9,2.51-1.9,2,0,1.95,0,2-2,.06-.79-.12-1.02-.93-.99Z"/>
        <path class="cls-16" d="M121.76,36.78c.16-2.27.16-2.29,2.48-2,3,.34,6,.93,9,1.49.7.13.75.46.61,1.08-.47,2.06-.44,2-2.5,1.62-2.86-.56-5.72-1-8.62-1.35-.49-.1-1.21.04-.97-.84Z"/>
        <path class="cls-16" d="M127.52,250.26c-.23.06-.43-.08-.55-.54-.56-2.23-.55-2.27,1.69-2.69,2.9-.52,5.78-1.19,8.61-2,.75-.23,1,0,1.14.66.59,2,.61,2-1.45,2.57-3.05.81-6.13,1.46-9.44,2Z"/>
        <path class="cls-9" d="M3.32,127.36c-2.32-.1-2.4-.18-2.07-2.31.48-3,1-6,1.74-9,.15-.66.31-.89,1.07-.7,2.08.52,2.09.47,1.61,2.56-.67,2.87-1.19,5.74-1.58,8.67-.09.56-.09.96-.77.78Z"/>
        <path class="cls-16" d="M200.42,180.57c.64.16,1.33.35,2,.49.53.1.35.45.28.73-.86,3.52-1.91,6.99-3.15,10.39-.18.49-.44.54-.91.39-2.18-.7-2.18-.68-1.43-2.82.94-2.71,1.79-5.45,2.47-8.24.11-.34-.03-.97.74-.94Z"/>
        <path class="cls-16" d="M91.51,247.62c-.2,2.51-.21,2.53-2.59,2-2.89-.58-5.77-1.21-8.62-2-.77-.21-1-.42-.77-1.28.6-1.91.55-1.93,2.47-1.42,2.85.77,5.73,1.4,8.64,1.88.87.23.91.27.87.82Z"/>
        <path class="cls-16" d="M171.14,231.26c-.49-.13-.64-.58-.9-.9-1.08-1.34-1.08-1.35.24-2.43,2.39-1.93,4.65-4.01,6.79-6.21.53-.55.8-.5,1.3,0,1.48,1.49,1.5,1.46,0,3-2.14,2.15-4.4,4.17-6.77,6.07l-.66.47Z"/>
        <path class="cls-16" d="M4.63,162.5c.24-.07.27.37.34.7.62,3.4,1.43,6.77,2.42,10.08.14.45.06.69-.45.88-2.23.84-2.23.86-2.86-1.47-.77-2.8-1.42-5.62-2-8.46-.21-.98-.08-1.45.92-1.45.55-.05,1.09-.15,1.63-.28Z"/>
        <path class="cls-16" d="M198.92,133.74h1.32c2.31,0,2.33,0,2.66,2.23.22,1.46.38,2.93.61,4.38.08.52-.08.7-.58.79-2.19.4-2.32.32-2.6-1.86q-.32-2.55-2.92-2.55c-2.29,0-2.27,0-2.2-2.26,0-.56.13-.78.72-.75,1,.09,2,.02,2.99.02Z"/>
        <path class="cls-16" d="M.21,148.78v-8.62c0-.42-.11-.91.52-1q2.32,0,2.32,2.25c-.07,2.87.01,5.75.25,8.61.07.66,0,1-.81,1-2.16.11-2.16.17-2.28-2.24Z"/>
        <path class="cls-16" d="M106,251.46h-1.4c-.48-.17-1.3.23-1.42-.27-.13-.86-.13-1.74,0-2.6,0-.31.38-.19.6-.18,3.5.21,7,.18,10.52.11.49,0,.76,0,.72.62-.07.76.31,1.54-.11,2.29h-6.53l-2.38.03Z"/>
        <path class="cls-16" d="M103.64,33.98h3.11c.56.04,1.11.04,1.67,0,1.14-.15,1.52.23,1.47,1.42,0,1-.25,1.35-1.27,1.26-.62-.17-1.28-.1-1.85.19-2.57.15-5.15.29-7.72.49-.68,0-.88-.12-.93-.8-.12-2.17-.18-2.17,2.08-2.32,1.15-.07,2.3-.16,3.44-.24Z"/>
        <path class="cls-10" d="M160.27,137.49h-5c-.55,0-.74-.12-.76-.72-.08-2.3-.11-2.29,2.16-2.29h8.49c.7,0,1.05.07,1,.93q0,2.08-2.07,2.08h-3.82Z"/>
        <path class="cls-10" d="M137.24,134.5h5c.56,0,.72.14.74.72.08,2.3.1,2.29-2.16,2.29h-8.38c-.88,0-1.16-.21-1.14-1.12.06-1.9,0-1.9,2-1.9h3.94Z"/>
      </g>
    </g>
    <path class="cls-16" d="M205.59,151.92c.02.26.05.5.07.73.23,3.49.28,6.99.16,10.49-.02.7-.23.82-.89.78-2.15-.14-2.16-.11-2.08-2.23.1-2.9.03-5.8-.2-8.7-.06-.79.12-1.08.9-1.05.51.01,1.03-.08,1.55-.11.15-.03.36-.1.49.09Z"/>
  </g>
</svg>