<?xml version="1.0" encoding="UTF-8"?>
<svg id="Layer_2" data-name="Layer 2" xmlns="http://www.w3.org/2000/svg" viewBox="0 0 205.65 247.95">
  <defs>
    <style>
      .cls-1, .cls-2 {
        fill: #000000;
      }

      .cls-3 {
        fill: #000000;
      }

      .cls-2 {
        font-family: LexendDeca-Regular, 'Lexend Deca';
        font-size: 42px;
      }

      .cls-2, .cls-4 {
        isolation: isolate;
      }

      .cls-5 {
        fill: #000000;
      }

      .cls-6 {
        fill: #000000;
      }

      .cls-7 {
        fill: #000000;
        stroke: #231f20;
        stroke-miterlimit: 10;
        stroke-width: 2.25px;
      }

      .cls-8 {
        fill: #000000;
      }

      .cls-9 {
        fill: #000000;
      }
    </style>
  </defs>
  <g id="Layer_1-2" data-name="Layer 1">
    <g id="Layer_1-2" data-name="Layer 1-2">
      <path class="cls-1" d="M13.24,155.5h6.82l-9.08,15.77-9.13-15.75h6.83l-.13-110.61h4.57l.13,110.59h0ZM79.08,108.1l51.3-.11-.02-6.83,15.79,9.07-15.75,9.14v-6.82l-51.31.11v-4.56h0ZM205.64,153.88l-9.08,15.78-9.13-15.75h6.83l-.13-110.61h4.57l.13,110.59h6.82-.01Z"/>
      <g class="cls-4">
        <text class="cls-2" transform="translate(0 35.7)"><tspan x="0" y="0">1</tspan></text>
      </g>
      <path class="cls-7" d="M66.28,107.15c-.05.06-.03.19.08.28.32.25.9.45,1.33.8,3.31,2.73,3.48,8.09.81,11.32-3.26,3.96-9.63,3.53-12.95-.13-.46-.51-2.24-2.55-.91-2.94.97-.29,1.59,1.28,2.19,1.93,1.18,1.28,2.91,2.2,4.66,2.35,8.86.79,9.82-11.92,1.59-12.66-.54-.05-2.49.18-2.75-.23-1.18-1.87,2.78-1.32,3.55-1.43,2.13-.29,4.07-2.35,4.28-4.48.65-6.44-6.89-9.01-10.78-4.18-.38.47-1.3,2.38-1.58,2.47-.52.16-1.11-.15-1.11-.72,0-.19.79-1.73.96-2,2.42-3.86,8.21-5.09,11.71-1.91,2.92,2.65,3.26,7.94.27,10.65-.27.24-1.3.82-1.35.88Z"/>
    </g>
    <g id="Layer_2-2" data-name="Layer 2">
      <g id="Layer_1-2-2" data-name="Layer 1-2">
        <path class="cls-6" d="M26.87,123.69c.23.05.46.09.69.12q2.31.05,2.31,2.42v8.26c0,.76-.16,1.1-1,1-.67-.08-1.35,0-2-.06v-11.74Z"/>
        <path class="cls-6" d="M26.87,170.46q3-.16,3,2.75v7.9c0,.8-.22,1.05-1,1-.67-.11-1.35-.07-2,.1v-11.75Z"/>
        <path class="cls-6" d="M26.87,77.16c.23.05.46.09.69.12,2.31.06,2.31.05,2.31,2.42v8.27c0,.76-.16,1.1-1,1-.67-.03-1.33-.03-2,0v-11.81Z"/>
        <path class="cls-6" d="M26.87,147.2q3-.17,3,2.74v7.91c0,.79-.22,1.05-1,1-.67-.11-1.35-.07-2,.1v-11.75Z"/>
        <path class="cls-6" d="M26.87,53.9c.23.06.46.09.69.11q2.31.06,2.31,2.43v8.26c0,.76-.16,1.1-1,1-.64-.06-1.32-.06-2-.06v-11.74Z"/>
        <path class="cls-6" d="M26.87,216.99q3-.16,3,2.75v7.9c0,.8-.22,1.05-1,1-.67-.11-1.35-.07-2,.1v-11.75Z"/>
        <path class="cls-6" d="M26.87,193.72q3-.16,3,2.75v7.91c0,.79-.22,1-1,1-.67-.11-1.35-.08-2,.1v-11.76Z"/>
        <path class="cls-6" d="M26.87,100.43c.23.06.46.09.69.11q2.31.1,2.31,2.43v8.26c0,.76-.16,1.1-1,1-.67-.03-1.33-.03-2,0v-11.8Z"/>
        <path class="cls-9" d="M29.76,37.25c-.6-.63-.58-1.63.05-2.23.07-.07.15-.13.24-.19-1.06-.02-2.12.02-3.18.12v7.44h2.14c.71,0,.86-.1.86-.75,0-1.12,0-2.24.06-3.36-.17-.32-.23-.68-.17-1.03Z"/>
        <path class="cls-9" d="M30.17,244.64h0c-.07,0-.15,0-.22,0,0-.43-.08-.85-.09-1.28,0-1,.33-2.27-.17-2.86s-1.82-.18-2.82-.25v7.44c1.04.13,2.08.17,3.13.13-.1-1.06-.04-2.13.17-3.18Z"/>
        <path class="cls-3" d="M181.47,88.95h-.24c-.34-.5-.47-1.11-.37-1.71v-8c0-.49.13-1.08-.52-1.33s-1.33.11-1.34,1.09v8.24c.1.6-.04,1.21-.37,1.71-.45-.22-.23-.62-.23-.93v-9.64c0-.9.24-1.21,1.13-1.13.67.04,1.33.04,2,0l-.06,11.7Z"/>
        <path class="cls-3" d="M181.47,205.51c-.11-.03-.23-.05-.34-.06-2.78-.05-2.78,0-2.78-2.77v-7.86c0-.34-.26-.79.23-1.05.33.5.47,1.11.37,1.71v8c0,.49-.13,1.08.52,1.33s1.33-.11,1.34-1.09v-8.24c-.1-.6.03-1.21.37-1.71h.24l.05,11.74Z"/>
        <path class="cls-3" d="M181.47,135.48h-.24c-.34-.5-.47-1.11-.37-1.71v-8c0-.49.13-1.08-.52-1.33s-1.33.11-1.34,1.09v8.24c.1.6-.04,1.21-.37,1.71-.45-.22-.23-.62-.23-.93v-9.64c0-.9.24-1.21,1.13-1.13.67.04,1.33.04,2,0l-.06,11.7Z"/>
        <path class="cls-3" d="M181.47,65.69h-.24c-.34-.5-.47-1.11-.37-1.7v-8c0-.49.13-1.08-.52-1.33s-1.33.11-1.34,1.09v8.24c.1.59-.04,1.2-.37,1.7-.45-.21-.23-.62-.23-.93v-9.64c0-.9.24-1.21,1.13-1.12.67.02,1.33,0,2-.05l-.06,11.74Z"/>
        <path class="cls-3" d="M178.6,112.2c-.45-.21-.23-.62-.23-.93v-9.64c0-.9.24-1.21,1.13-1.12.67.02,1.33,0,2-.05v11.76h-.24c-.34-.5-.47-1.11-.37-1.7v-8c0-.48.13-1.07-.52-1.32s-1.33.11-1.34,1.09v8.24c.07.59-.08,1.19-.43,1.67Z"/>
        <path class="cls-3" d="M181.47,228.78c-.11,0-.23-.06-.34-.07q-2.78,0-2.78-2.77v-7.85c0-.35-.26-.8.23-1,.33.5.47,1.11.37,1.7v8c0,.48-.13,1.07.52,1.32s1.33-.11,1.34-1.09v-8.24c-.1-.59.03-1.2.37-1.7h.24l.05,11.7Z"/>
        <path class="cls-3" d="M181.23,147.24h.24v11.75c-.11-.03-.23-.05-.34-.06q-2.78,0-2.78-2.77v-7.86c0-.34-.26-.79.23-1.05.33.5.47,1.11.37,1.71v8c0,.49-.13,1.08.52,1.33s1.33-.11,1.34-1.09v-8.24c-.09-.61.06-1.22.42-1.72Z"/>
        <path class="cls-3" d="M181.23,170.51h.24v11.75c-.11-.03-.23-.05-.34-.06q-2.78-.05-2.78-2.78v-7.85c0-.35-.26-.8.23-1,.33.5.47,1.11.37,1.7v8c0,.48-.13,1.07.52,1.32s1.33-.11,1.34-1.08v-8.25c-.1-.62.05-1.25.42-1.75Z"/>
        <path class="cls-8" d="M29.99,247.64h-3.12c0,.53.42.22.6.22h2.53s-.01-.1-.01-.22Z"/>
        <path class="cls-8" d="M30.32,34.72h-2.85c-.18.01-.6-.3-.6.23h3c.13-.1.29-.18.45-.23Z"/>
        <path class="cls-8" d="M180.87,34.76h-3.85v.07c.24.11.44.29.57.52,1.18.05,2.37,0,3.54-.13.12-.06.23-.14.34-.23,0-.53-.42-.22-.6-.23Z"/>
        <path class="cls-3" d="M181.22,35.03h.25v7.39h-.24c-.17-.17-.28-.39-.31-.63-.12-2.04-.12-4.09,0-6.13.01-.24.12-.47.3-.63Z"/>
        <path class="cls-3" d="M181.47,247.72h-.25c-.23-.24-.35-.55-.34-.88-.05-1.87-.05-3.74,0-5.61-.01-.32.11-.64.34-.87h.25v7.36Z"/>
        <path class="cls-5" d="M62.74,133.33h-7.08c-.27,0-.73.07-.8-.06-.63-1.14-1.69-.5-2.54-.66-.57-.11-.75.14-.74.72v3l.09-.11c.13-.14.3-.25.48-.31.18-.1.38-.14.58-.13.2-.01.4.03.58.13.19.05.35.16.48.31l.15.12.65.44c.07-.4.33-.53.9-.51h6.12c2.04,0,2,0,2-2.07.05-.64-.11-.89-.87-.87Z"/>
        <path class="cls-6" d="M80.74,136.34h-4.79c-.69,0-1-.08-1-.89q0-2.12,2.14-2.12h8.27c.81,0,1.1.17,1.08,1-.05,2,0,2-2,2h-3.7Z"/>
        <path class="cls-6" d="M103.55,136.34h-4.92c-.7,0-.85-.22-.85-.88,0-2.14,0-2.13,2.12-2.13h8.27c.8,0,1.11.15,1.09,1q0,2-2,2h-3.71Z"/>
        <path class="cls-6" d="M126.37,136.34h-5c-.56,0-.73-.16-.75-.74-.09-2.28-.12-2.27,2.1-2.27h8.39c.81,0,1,.24,1,1q0,2-2,2h-3.74Z"/>
        <path class="cls-6" d="M149.07,136.34h-4.8c-.64,0-.89-.13-.9-.84,0-2.18,0-2.17,2.1-2.17h8.26c.9,0,1.16.21,1.13,1.12-.07,1.9,0,1.9-2,1.9h-3.79Z"/>
        <path class="cls-5" d="M169.95,136.33c.58,0,.76.16.74.74h0c.46-.14.92-.28,1.38-.46.39-.17.76-.37,1.11-.6.16-.1.34-.16.53-.19v-1.67c0-.56-.13-.86-.79-.85h-6c-.57,0-.8.19-.75.76.03.36.03.71,0,1.07-.12.88.12,1.31,1.12,1.19s1.78.06,2.66,0Z"/>
        <path class="cls-5" d="M40.67,133.51c-.21-.46-1.17-.11-1.79-.16s-1.12,0-1.67,0h-3.12c-.65,0-.8.21-.79.82v2.59c.12-.01.24-.01.36,0,.9,0,1.78.2,2.58.6,0-.07,0-.15,0-.22,0-.59.19-.76.75-.74h3.11c.28,0,.71.16.71-.37.12-.84.07-1.7-.14-2.52Z"/>
        <path class="cls-9" d="M179.21,240.28c-.73-.07-.84.26-.83.89v3.43l-.12.07c.04.14.07.28.07.42,0,.4,0,.8.08,1.2s.19.94.3,1.41h2.55v-7.36c-.71-.03-1.39,0-2.05-.06Z"/>
        <path class="cls-9" d="M181.22,35.03h-3.93c.19.16.34.37.43.61.79.34,1.16,1.25.83,2.04-.07.16-.16.3-.27.43h.06c0,.55.05,1.11.05,1.67q0,2.83,2.84,2.63v-7.38Z"/>
        <path class="cls-5" d="M178.6,88.94c0-3.48.05-6.95,0-10.43,0-1.18.62-1,1.35-1s1.38-.14,1.35,1c-.08,3.48,0,7,0,10.43h-2.7Z"/>
        <path class="cls-5" d="M178.6,112.2c0-3.47.05-7,0-10.42,0-1.18.62-1,1.35-1s1.38-.14,1.35,1c-.08,3.47,0,7,0,10.42h-2.7Z"/>
        <path class="cls-5" d="M181.23,170.51c0,3.47-.05,6.95,0,10.42,0,1.18-.61,1-1.35,1s-1.37.14-1.35-1c.09-3.47,0-6.95,0-10.42h2.7Z"/>
        <path class="cls-5" d="M178.6,65.64c0-3.47.05-7,0-10.42,0-1.18.62-1,1.35-1s1.38-.14,1.35,1c-.08,3.47,0,7,0,10.42h-2.7Z"/>
        <path class="cls-5" d="M181.23,193.77c0,3.48-.05,7,0,10.43,0,1.18-.61,1-1.35,1s-1.37.14-1.35-1c.09-3.48,0-6.95,0-10.43h2.7Z"/>
        <path class="cls-5" d="M181.23,217.04c0,3.47-.05,6.95,0,10.42,0,1.18-.61,1-1.35,1s-1.37.14-1.35-1c.09-3.47,0-6.95,0-10.42h2.7Z"/>
        <path class="cls-5" d="M178.6,135.47c0-3.48.05-7,0-10.43,0-1.18.62-1,1.35-1s1.38-.14,1.35,1c-.08,3.48,0,6.95,0,10.43h-2.7Z"/>
        <path class="cls-5" d="M181.23,147.24c0,3.48-.05,7,0,10.43,0,1.18-.61,1-1.35,1s-1.37.14-1.35-1c.09-3.47,0-7,0-10.43h2.7Z"/>
      </g>
    </g>
  </g>
</svg>