<?xml version="1.0" encoding="UTF-8"?>
<svg id="Layer_2" data-name="Layer 2" xmlns="http://www.w3.org/2000/svg" viewBox="0 0 181.16 243.12">
  <defs>
    <style>
      .cls-1, .cls-2 {
        fill: #231f20;
      }

      .cls-3 {
        fill: #272425;
      }

      .cls-4 {
        fill: #262324;
        stroke: #231f20;
        stroke-miterlimit: 10;
        stroke-width: 2.25px;
      }

      .cls-5 {
        fill: #282526;
      }

      .cls-2 {
        font-family: LexendDeca-Regular, 'Lexend Deca';
        font-size: 42px;
      }
    </style>
  </defs>
  <g id="Layer_1-2" data-name="Layer 1">
    <path class="cls-1" d="M13.04,159.3h6.82s-9.08,15.77-9.08,15.77l-9.13-15.75h6.83s-.13-110.61-.13-110.61h4.57s.13,110.59.13,110.59ZM67.36,98.65l-18.11,1.87,7.44-16.62,4,5.53,56.1-40.6,2.67,3.69-56.1,40.61,4,5.53ZM164.32,204.06l3.94-5.57,7.61,16.54-18.13-1.67,3.94-5.57-67.25-47.59,2.64-3.73,67.25,47.59Z"/>
    <text class="cls-2" transform="translate(0 35.7)"><tspan x="0" y="0">1</tspan></text>
    <text class="cls-2" transform="translate(119.46 43.01)"><tspan x="0" y="0">2</tspan></text>
    <path class="cls-4" d="M87.53,139.56c-.05.06-.03.19.08.28.32.25.9.45,1.33.8,3.31,2.73,3.48,8.09.81,11.32-3.26,3.96-9.63,3.53-12.95-.13-.46-.51-2.24-2.55-.91-2.94.97-.29,1.59,1.28,2.19,1.93,1.18,1.28,2.91,2.2,4.66,2.35,8.86.79,9.82-11.92,1.59-12.66-.54-.05-2.49.18-2.75-.23-1.18-1.87,2.78-1.32,3.55-1.43,2.13-.29,4.07-2.35,4.28-4.48.65-6.44-6.89-9.01-10.78-4.18-.38.47-1.3,2.38-1.58,2.47-.52.16-1.11-.15-1.11-.72,0-.19.79-1.73.96-2,2.42-3.86,8.21-5.09,11.71-1.91,2.92,2.65,3.26,7.94.27,10.65-.27.24-1.3.82-1.35.88Z"/>
    <g id="Layer_1-2" data-name="Layer 1-2">
      <g>
        <path class="cls-5" d="M29.39,37.06h3.12v-7.44h-2.97c-.08.1-.18.18-.27.27.07.55,0,1.13-.18,1.65.76.96.87,2.39.31,3.48v2.05h0Z"/>
        <path class="cls-3" d="M29.39,165.22v7.44c-.05-.05-.09-.09-.14-.13.21,1.19-.21,2.5-1.26,3.16.04.47.09.94.12,1.41l1.16-1.08c.29.11,0,.85.12.96.11.12,3.12.1,3.12-.36v-11.4h-3.12Z"/>
        <path class="cls-3" d="M62.2,109.05l1.86,2.38-9.86,6.93c-.9.41-1.57-1.69-2.17-2.22l10.17-7.08h0Z"/>
        <path class="cls-3" d="M143.66,52.01c.27,0,2.08,2.2,1.45,2.67l-9.46,6.64c-.9.41-1.57-1.69-2.17-2.22l10.17-7.08h.01Z"/>
        <path class="cls-3" d="M103.04,80.41c.27.61,1.9,2.15,1.49,2.69l-9.46,6.63c-.77.67-2.37-1.91-2.05-2.32l10.02-7Z"/>
        <path class="cls-3" d="M41.9,123.26c.27,0,2.08,2.2,1.45,2.67l-9.46,6.64c-.9.41-1.57-1.69-2.17-2.22l10.17-7.08h.01Z"/>
        <path class="cls-3" d="M123.34,66.2c.27.61,1.9,2.15,1.49,2.69l-9.46,6.63c-.9.41-1.57-1.69-2.17-2.22l10.14-7.1Z"/>
        <path class="cls-3" d="M82.5,94.84l1.86,2.38-10.14,7.1c-.27-.61-1.9-2.15-1.49-2.69,0,0,9.77-6.79,9.77-6.79Z"/>
        <path class="cls-3" d="M37.72,132.22l-5.76-4.01-2.21,3.4c1.1.09,1.92.82,2.33,1.76.21-.37.4-.69.49-.84.5-.29,3.1,2.43,3.75,2.34.13-.02,1.66-1.91,1.69-2.04.06-.25-.11-.47-.29-.63v.02Z"/>
        <path class="cls-5" d="M32.51,48.82v11.4c0,.59-2.58.3-3.12.36v-11.76h3.12Z"/>
        <path class="cls-5" d="M32.51,72.1v11.4c0,.59-2.58.3-3.12.36v-11.76s3.12,0,3.12,0Z"/>
        <path class="cls-5" d="M32.51,95.38v11.4c0,.59-2.58.3-3.12.36v-11.76h3.12Z"/>
        <path class="cls-5" d="M32.51,188.5v11.4c0,.59-2.58.3-3.12.36v-11.76h3.12Z"/>
        <path class="cls-5" d="M32.51,118.66v11.4c0,.59-2.58.3-3.12.36v-11.76h3.12Z"/>
        <path class="cls-5" d="M32.51,141.94v11.4c0,.59-2.58.3-3.12.36v-11.76h3.12Z"/>
        <path class="cls-5" d="M32.51,211.78v11.4c0,.59-2.58.3-3.12.36v-11.76h3.12Z"/>
        <path class="cls-3" d="M97.49,183.31c.79-.32,1.27-2.29,2.13-2.05l9.02,6.54-1.87,2.45-9.28-6.94h0Z"/>
        <polygon class="cls-3" points="70.83 159.35 80.18 165.88 78.49 168.25 69.17 161.71 70.83 159.35"/>
        <polygon class="cls-3" points="42.52 136.64 51.86 143.18 50.18 145.55 40.86 139 42.52 136.64"/>
        <path class="cls-3" d="M56.68,147.97c.65-.32,7.97,5.79,9.27,6.32.14.28-1.25,2.44-1.38,2.5-.59.31-8.03-5.76-9.28-6.35-.42-.36,1.2-2.38,1.39-2.48h0Z"/>
        <path class="cls-3" d="M84.26,170.22c.59-.29,8.07,5.72,9.22,6.42.19.31-1.14,2.18-1.43,2.36-.5.31-8.01-5.7-9.19-6.3-.42-.36,1.2-2.38,1.39-2.48h.01Z"/>
        <path class="cls-3" d="M113.52,190.09c.59-.29,8.07,5.72,9.22,6.42.19.31-1.14,2.18-1.43,2.36-.5.31-8.01-5.7-9.19-6.3-.42-.36,1.2-2.38,1.39-2.48h.01Z"/>
      </g>
      <path class="cls-3" d="M159.43,40.22c.27,0,2.08,2.2,1.45,2.67l-9.46,6.64c-.9.41-1.57-1.69-2.17-2.22l10.17-7.08h0Z"/>
      <path class="cls-3" d="M127.63,200.74c.59-.29,8.07,5.72,9.22,6.42.19.31-1.14,2.18-1.43,2.36-.5.31-8.01-5.7-9.19-6.3-.42-.36,1.2-2.38,1.39-2.48h.01Z"/>
      <path class="cls-3" d="M142.99,212.79c.59-.29,8.07,5.72,9.22,6.42.19.31-1.14,2.18-1.43,2.36-.5.31-8.01-5.7-9.19-6.3-.42-.36,1.2-2.38,1.39-2.48h.01Z"/>
      <path class="cls-3" d="M176.82,28.66c.27,0,2.08,2.2,1.45,2.67l-9.46,6.64c-.9.41-1.57-1.69-2.17-2.22l10.17-7.08h.01Z"/>
      <path class="cls-5" d="M32.36,231.33v11.4c0,.59-2.58.3-3.12.36v-11.76h3.12Z"/>
      <path class="cls-3" d="M158.59,223.78c.59-.29,8.07,5.72,9.22,6.42.19.31-1.14,2.18-1.43,2.36-.5.31-8.01-5.7-9.19-6.3-.42-.36,1.2-2.38,1.39-2.48h0Z"/>
      <path class="cls-3" d="M171.92,234.32c.59-.29,8.07,5.72,9.22,6.42.19.31-1.14,2.18-1.43,2.36-.5.31-8.01-5.7-9.19-6.3-.42-.36,1.2-2.38,1.39-2.48h0Z"/>
    </g>
  </g>
</svg>