<?xml version="1.0" encoding="UTF-8"?>
<svg id="Layer_2" data-name="Layer 2" xmlns="http://www.w3.org/2000/svg" viewBox="0 0 143.9 258.68">
  <defs>
    <style>
      .cls-1, .cls-2 {
        fill: #231f20;
      }

      .cls-3 {
        fill: #272425;
      }

      .cls-4 {
        fill: #282526;
      }

      .cls-2 {
        font-family: LexendDeca-Regular, 'Lexend Deca';
        font-size: 42px;
      }
    </style>
  </defs>
  <g id="Layer_1-2" data-name="Layer 1">
    <path class="cls-1" d="M11.39,164.12h6.83s-9.08,15.77-9.08,15.77l-9.13-15.75h6.82s-.13-110.61-.13-110.61h4.57s.13,110.59.13,110.59ZM53.94,27.33l-.73-4.5c1.99-.32,47.92-7.45,74.1,13.76l5.21-4.51,3.42,17.89-17.2-5.98,5.06-4.38c-24.78-19.32-69.41-12.36-69.87-12.29Z"/>
    <text class="cls-2" transform="translate(0 45.68)"><tspan x="0" y="0">1</tspan></text>
    <text class="cls-2" transform="translate(24.22 35.7)"><tspan x="0" y="0">2</tspan></text>
    <g id="Layer_1-2" data-name="Layer 1-2">
      <g>
        <path class="cls-4" d="M57.61,45.68v3.12h-11.88c-.59,0-.3-2.57-.36-3.12h12.24Z"/>
        <path class="cls-4" d="M81.85,45.68c-.06.55.23,3.12-.36,3.12h-11.88v-3.12h12.24Z"/>
        <path class="cls-4" d="M105.85,45.68v3.12h-11.88c-.59,0-.3-2.57-.36-3.12h12.24Z"/>
        <path class="cls-3" d="M33.37,45.68v3.12h-4.32v4.2c0,.59-2.57.3-3.12.36v-7.68h7.44Z"/>
        <path class="cls-4" d="M25.93,64.88h3.12v11.4c0,.59-2.57.3-3.12.36v-11.76Z"/>
        <path class="cls-4" d="M25.93,158h3.12v11.4c0,.59-2.57.3-3.12.36v-11.76Z"/>
        <path class="cls-4" d="M25.93,88.16h3.12v11.4c0,.59-2.57.3-3.12.36,0,0,0-11.76,0-11.76Z"/>
        <path class="cls-4" d="M25.93,134.72h3.12v11.4c0,.59-2.57.3-3.12.36v-11.76Z"/>
        <path class="cls-4" d="M25.93,111.44h3.12v11.4c0,.59-2.57.3-3.12.36v-11.76Z"/>
        <path class="cls-4" d="M25.93,181.28h3.12v11.4c0,.59-2.57.3-3.12.36v-11.76Z"/>
        <path class="cls-4" d="M25.93,204.56h3.12v11.4c0,.59-2.57.3-3.12.36v-11.76Z"/>
        <path class="cls-4" d="M25.93,227.84h3.12v11.4c0,.59-2.57.3-3.12.36v-11.76Z"/>
        <path class="cls-3" d="M30.09,255.68h-1.04v-4.2c0-.59-2.57-.3-3.12-.36v7.44c.95.08,1.96.11,2.97.12.14-1.09.53-2.14,1.19-3.01h0Z"/>
        <path class="cls-4" d="M43.17,146.6v3.12h-11.88c-.59,0-.3-2.58-.36-3.12h12.24Z"/>
        <path class="cls-4" d="M67.41,146.6c-.06.54.23,3.12-.36,3.12h-11.88v-3.12h12.24Z"/>
        <path class="cls-3" d="M143.89,99.89c.02,1.87-.06,3.78-.24,5.64-.14,1.47-.53,5.22-1.01,6.44-.06.16-.11.32-.3.35-.55-.32-2.6-.26-2.74-.8-.07-.27.84-4.64.93-5.51.2-1.9.26-3.81.28-5.72.24-.74,2.41-.26,3.09-.39h0Z"/>
        <path class="cls-3" d="M132.89,69.47c-1.65-3.43-4.06-6.55-6.47-9.51-.07-.38,1.72-2.07,2.23-1.97.79.15,6.38,8.47,6.84,9.89-.07.4-2.48,1.69-2.6,1.59Z"/>
        <path class="cls-3" d="M112.1,47.65c.51-.38,9.56,5.78,10.55,6.84-.42.29-1.65,2.35-2.15,2.17l-9.5-6.37s1.1-2.64,1.1-2.64Z"/>
        <path class="cls-3" d="M124.94,133.24l1.64,2.53c-2.2,1.28-4.38,2.59-6.69,3.68-.72.34-3.4,1.64-3.95,1.68-.83.06-1.17-2-1.5-2.65,3.69-1.37,7.1-3.29,10.5-5.24Z"/>
        <path class="cls-3" d="M140.1,118.8c.29.4-2.52,5.87-2.98,6.71-.31.56-2.31,4.07-2.52,4.21-.51.34-1.96-1.36-2.65-1.34l5.52-10.45c.39-.25,2.02.81,2.63.88h0Z"/>
        <path class="cls-3" d="M140.78,79.33c.58,1.38,3.15,11.51,2.66,11.98-.63-.22-2.56.6-2.91.1l-2.61-11.04v-.33l2.85-.71h.01Z"/>
      </g>
      <path class="cls-4" d="M84.04,145.57l.27,3.11-11.83,1.04c-.59.05-.52-2.54-.63-3.08l12.19-1.07Z"/>
      <path class="cls-4" d="M107.13,141.77c.09.54,1.08,2.94.51,3.1l-11.42,3.27-.86-3s11.77-3.37,11.77-3.37Z"/>
    </g>
  </g>
</svg>