<?xml version="1.0" encoding="UTF-8"?>
<svg id="Layer_2" data-name="Layer 2" xmlns="http://www.w3.org/2000/svg" viewBox="0 0 155.04 255.42">
  <defs>
    <style>
      .cls-1, .cls-2 {
        fill: #000000;
      }

      .cls-3 {
        fill: #fff;
      }

      .cls-4 {
        fill: #000000;
      }

      .cls-5 {
        fill: #000000;
      }

      .cls-6 {
        fill: #000000;
      }

      .cls-2 {
        font-family: LexendDeca-Regular, 'Lexend Deca';
        font-size: 42px;
      }
    </style>
  </defs>
  <g id="Layer_1-2" data-name="Layer 1">
    <text class="cls-2" transform="translate(48.59 95.47)"><tspan x="0" y="0">1</tspan></text>
    <path class="cls-1" d="M41.73,24.44l83.94-.13v-6.83s15.77,9.08,15.77,9.08l-15.75,9.13v-6.82s-83.95.13-83.95.13v-4.57ZM61.64,167.48h6.83s-9.08,15.77-9.08,15.77l-9.13-15.75h6.82s-.12-64.96-.12-64.96h4.57s.12,64.94.12,64.94Z"/>
    <text class="cls-2" transform="translate(13.16 35.7)"><tspan x="0" y="0">2</tspan></text>
    <g id="Layer_1-2" data-name="Layer 1-2">
      <g>
        <path class="cls-3" d="M155.04,45.44v-3.14h-.24l-.48.35v2.49c.27.06.51.17.72.31h0Z"/>
        <rect class="cls-6" x="20.16" y="42.3" width="12.72" height="3.12"/>
        <rect class="cls-6" x="45.6" y="42.3" width="12.72" height="3.12"/>
        <rect class="cls-6" x="71.04" y="42.3" width="12.72" height="3.12"/>
        <rect class="cls-6" x="96.48" y="42.3" width="12.72" height="3.12"/>
        <rect class="cls-6" x="121.92" y="42.3" width="12.72" height="3.12"/>
        <path class="cls-4" d="M7.68,42.3H0v3.69c.4-.54,1.03-.92,1.91-.92.52,0,.95.14,1.3.36h4.11c.59,0,.3-2.57.36-3.12h0Z"/>
        <path class="cls-4" d="M151.68,46.08h.06c.39-.59,1.04-1.01,1.97-1.01.42,0,.78.09,1.09.23v-3h-7.68c.06.55-.23,3.12.36,3.12h4.2v.66Z"/>
        <path class="cls-5" d="M79.15,248.09c-.03-.24,0-.27-.25-.35l-.48.35v6.59h-1.82c.05.24.09.49.12.74h2.42c-.22-2.3.29-5.1,0-7.33h.01Z"/>
        <path class="cls-6" d="M79.15,132.3h-3.12v-12.96c.54.06,3.12-.23,3.12.36v12.6Z"/>
        <path class="cls-6" d="M79.15,106.62h-3.12v-12.96c.54.06,3.12-.23,3.12.36v12.6Z"/>
        <path class="cls-6" d="M79.15,157.98h-3.12v-12.96c.54.06,3.12-.23,3.12.36v12.6Z"/>
        <path class="cls-6" d="M79.15,183.66h-3.12v-12.96c.54.06,3.12-.23,3.12.36v12.6Z"/>
        <path class="cls-6" d="M79.15,209.34h-3.12v-12.96c.54.06,3.12-.23,3.12.36v12.6Z"/>
        <path class="cls-6" d="M79.15,235.02h-3.12v-12.96c.54.06,3.12-.23,3.12.36v12.6Z"/>
        <path class="cls-4" d="M76.7,255.18h2.21v-7.44c-.62-.2-2.13.15-2.88,0v4.56h-.47c.62.84,1,1.84,1.14,2.88Z"/>
      </g>
      <path class="cls-6" d="M79.49,85.08h-3.12v-12.96c.54.06,3.12-.23,3.12.36v12.6Z"/>
      <path class="cls-6" d="M79.49,59.4h-3.12v-12.96c.54.06,3.12-.23,3.12.36v12.6Z"/>
    </g>
  </g>
</svg>