<?xml version="1.0" encoding="UTF-8"?>
<svg id="Layer_2" data-name="Layer 2" xmlns="http://www.w3.org/2000/svg" viewBox="0 0 193.83 210">
  <defs>
    <style>
      .cls-1, .cls-2 {
        fill: #000000;
      }

      .cls-3 {
        fill: #000000;
      }

      .cls-2 {
        font-family: LexendDeca-Regular, 'Lexend Deca';
        font-size: 42px;
      }
    </style>
  </defs>
  <g id="Layer_1-2" data-name="Layer 1">
    <path class="cls-1" d="M45.53,105.46l6.32-2.57-2.49,18.04-14.38-11.18,6.32-2.57L15.87,44.67l4.23-1.72,25.43,62.51ZM187.66,100.31l-6.32-2.58-25.43,62.51-4.23-1.72,25.43-62.5-6.32-2.58,14.38-11.17,2.49,18.04Z"/>
    <text class="cls-2" transform="translate(0 38.15)"><tspan x="0" y="0">1</tspan></text>
    <text class="cls-2" transform="translate(137.14 197.43)"><tspan x="0" y="0">2</tspan></text>
    <g id="Layer_1-2" data-name="Layer 1-2">
      <g>
        <polygon class="cls-3" points="184.21 24.16 179.66 36.15 177.01 35.07 181.47 23.43 181.7 23.2 184.21 24.16"/>
        <path class="cls-3" d="M86.88,160.07l-2.91.83-3.94-11.98c.76.02,2.53-1.27,3.03-.56l3.82,11.71h0Z"/>
        <path class="cls-3" d="M61.76,84.94c-.73-.17-2.44,1.05-2.79.59l-3.83-11.86,2.69-.94,3.93,12.22h0Z"/>
        <path class="cls-3" d="M139.83,134.2l-4.56,12-2.64-1.08,4.45-11.64c.38-.44,2.02.86,2.76.73h-.01Z"/>
        <path class="cls-3" d="M35.04,15.35l-3.94-11.86c.79-.12,2.63-1.42,3.1-.51l3.79,11.22c.03.62-2.8,1.3-2.94,1.15h0Z"/>
        <polygon class="cls-3" points="174.84 47.69 170.28 59.41 167.42 58.47 171.98 46.71 174.84 47.69"/>
        <path class="cls-3" d="M78.45,134.55c-.73-.17-2.44,1.05-2.79.59l-3.83-11.86,2.69-.94,3.93,12.22h0Z"/>
        <path class="cls-3" d="M158.06,81.99l4.56-12c.66.42,2.12.63,2.65,1.08.47.4-4.01,10.37-4.46,11.64-.39.44-2-.86-2.75-.73h0Z"/>
        <path class="cls-3" d="M116.54,190.83l4.56-12c.66.42,2.12.63,2.65,1.08.47.4-4.11,10.32-4.46,11.64-.38.44-2.02-.86-2.76-.73h.01Z"/>
        <path class="cls-3" d="M193.82.88l-4.57,11.75c-.13.12-3.25-.68-2.84-1.5L190.83.16c.46-.61,2.28.78,3,.73h0Z"/>
        <polygon class="cls-3" points="131.74 156.35 127.17 168.09 124.31 167.13 128.87 155.38 131.74 156.35"/>
        <path class="cls-3" d="M45.52,37.23c-.73-.17-2.44,1.05-2.79.59l-3.83-11.86,2.69-.94,3.93,12.22h0Z"/>
        <path class="cls-3" d="M156.02,94.49l-4.68,11.53c-.37.47-2.66-.61-2.74-.88-.26-.84,4.09-9.73,4.43-11.37.46-.61,2.28.78,3,.73h-.01Z"/>
        <path class="cls-3" d="M70.32,110.56l-2.91.83-3.94-11.98c.72.09,2.6-1.2,3.03-.57,0,0,3.82,11.72,3.82,11.72Z"/>
        <path class="cls-3" d="M53.63,60.95l-2.91.83-3.94-11.98c.72.09,2.6-1.2,3.03-.57,0,0,3.82,11.72,3.82,11.72Z"/>
        <path class="cls-3" d="M95.42,188.39l-3.95-11.61,2.8-1.16,4.03,11.66c0,.62-2.59,1.34-2.88,1.1h0Z"/>
      </g>
      <path class="cls-3" d="M107.15,209.23l4.56-12c.66.42,2.12.63,2.65,1.08.47.4-4.11,10.32-4.46,11.64-.38.44-2.02-.86-2.76-.73h.01Z"/>
      <path class="cls-3" d="M105.8,211.4l-3.95-11.61,2.8-1.16,4.03,11.66c0,.62-2.59,1.34-2.88,1.1h0Z"/>
      <path class="cls-3" d="M148.58,113.13l-4.56,12-2.64-1.08,4.45-11.64c.38-.44,2.02.86,2.76.73h-.01Z"/>
    </g>
  </g>
</svg>