<?xml version="1.0" encoding="UTF-8"?>
<svg id="Layer_2" data-name="Layer 2" xmlns="http://www.w3.org/2000/svg" viewBox="0 0 203.09 214.35">
  <defs>
    <style>
      .cls-1 {
        fill: #272324;
      }

      .cls-2, .cls-3 {
        fill: #231f20;
      }

      .cls-4 {
        fill: #272425;
      }

      .cls-5 {
        fill: #939598;
      }

      .cls-6 {
        stroke: #231f20;
        stroke-miterlimit: 10;
        stroke-width: 2.25px;
      }

      .cls-6, .cls-7 {
        fill: #262324;
      }

      .cls-3 {
        font-family: LexendDeca-Regular, 'Lexend Deca';
        font-size: 42px;
      }
    </style>
  </defs>
  <g id="Layer_1-2" data-name="Layer 1">
    <path class="cls-2" d="M68.86,85.47l1.53,18.14-16.48-7.74,5.6-3.89L23.99,40.91l3.75-2.61,35.52,51.06,5.6-3.89ZM81.79,179.61h6.82l-9.1,15.77-9.11-15.77h6.83v-27.75h4.57v27.75ZM175.55,41.56l-31.04,46.85,5.69,3.77-16.3,8.11,1.12-18.17,5.69,3.77,31.04-46.86,3.81,2.53Z"/>
    <text class="cls-3" transform="translate(0 35.7)"><tspan x="0" y="0">1</tspan></text>
    <text class="cls-3" transform="translate(180.07 41.01)"><tspan x="0" y="0">2</tspan></text>
    <path class="cls-6" d="M84.53,125.69c-.05.06-.03.19.08.28.32.25.9.45,1.33.8,3.31,2.73,3.48,8.09.81,11.32-3.26,3.96-9.63,3.53-12.95-.13-.46-.51-2.24-2.55-.91-2.94.97-.29,1.59,1.28,2.19,1.93,1.18,1.28,2.91,2.2,4.66,2.35,8.86.79,9.82-11.92,1.59-12.66-.54-.05-2.49.18-2.75-.23-1.18-1.87,2.78-1.32,3.55-1.43,2.13-.29,4.07-2.35,4.28-4.48.65-6.44-6.89-9.01-10.78-4.18-.38.47-1.3,2.38-1.58,2.47-.52.16-1.11-.15-1.11-.72,0-.19.79-1.73.96-2,2.42-3.86,8.21-5.09,11.71-1.91,2.92,2.65,3.26,7.94.27,10.65-.27.24-1.3.82-1.35.88Z"/>
    <g id="Layer_1-2" data-name="Layer 1-2">
      <g>
        <path class="cls-1" d="M173.65,1.23c-.22,1.17-.75,2.28-1.59,3.12h.19l-1.63,2.52c.02.26,2.17,1.58,2.44,1.53.49-.09,4.28-6.2,4.71-7.17h-4.12Z"/>
        <path class="cls-4" d="M27.54,5.34c-.33-.33-.61-.7-.84-1.09-.56-.41-1.1-.86-1.61-1.36-.22-.21-.4-.44-.58-.67h-3.56v.24c.98.68,4.62,6.84,5.19,6.94.22.04,2.15-1.28,2.23-1.59.17-.68-1.25-1.76-1.42-2.47,0,0,.59,0,.59,0Z"/>
        <path class="cls-5" d="M99.42,213.63c-.43-.09-1.59-.12-2.86-.12-.02.28-.04.56-.07.84h3.28v-.24l-.35-.48Z"/>
        <rect class="cls-7" x="96.88" y="179.55" width="2.88" height="13.68"/>
        <rect class="cls-7" x="96.88" y="152.43" width="2.88" height="13.68"/>
        <rect class="cls-1" x="96.88" y="125.07" width="2.88" height="13.68"/>
        <path class="cls-4" d="M112,101.07l-6.72,10.56-2.53-1.68,6.61-10.22c.52-.33,1.9,1.32,2.64,1.34Z"/>
        <path class="cls-4" d="M150.28,37.71l2.52,1.8c-1.1,1.03-6.42,10.23-7.04,10.18-.28-.03-2.35-1.4-2.3-1.74l6.82-10.23h0Z"/>
        <path class="cls-4" d="M118.96,90.99c-.17.13-2.01-1.14-2.34-1.37-.18-.13-.39.03-.27-.39.82-1.09,6.33-10.31,6.95-10.15.35.09,2.37,1.37,2.11,1.89,0,0-6.45,10.02-6.45,10.02Z"/>
        <path class="cls-4" d="M159.73,29.04c-.39.23-2.51-1.22-2.58-1.56-.11-.59,5.78-8.55,6.33-9.93.5-.72,2.79,1.12,2.73,1.51l-6.48,9.98Z"/>
        <path class="cls-4" d="M139.12,59.79l-6.6,10.34c-.26.39-2.32-1.07-2.42-1.22-.16-.26-.15-.46.01-.71l6.37-9.85,2.63,1.44h0Z"/>
        <polygon class="cls-4" points="35.8 17.84 42.79 27.78 40.27 29.57 33.22 19.59 35.03 18.1 35.8 17.84"/>
        <polygon class="cls-4" points="85.27 88.14 82.95 89.56 82.63 89.48 75.78 79.5 78.3 77.82 85.27 88.14"/>
        <polygon class="cls-4" points="68.48 69.66 61.54 59.67 63.66 57.99 64.26 58.14 71.11 67.86 68.48 69.66"/>
        <path class="cls-4" d="M49.45,38.02c.36-.09.58.03.79.32l6.44,9.18c.22.86-1.53,1.42-2.04,1.96l-7.19-9.81c-.09-.35,1.7-1.58,2-1.66h0Z"/>
        <path class="cls-4" d="M92.15,98l7.27,9.94c-.82.44-2,2.16-2.87,1.2l-6.44-9.18c-.22-.86,1.53-1.42,2.04-1.96Z"/>
        <path class="cls-7" d="M96.88,206.67v4.56h-.31c.05.95.03,1.9-.07,2.88h3.26v-7.44h-2.88Z"/>
      </g>
    </g>
  </g>
</svg>