<?xml version="1.0" encoding="UTF-8"?>
<svg id="Layer_2" data-name="Layer 2" xmlns="http://www.w3.org/2000/svg" viewBox="0 0 165.99 244.99">
  <defs>
    <style>
      .cls-1, .cls-2 {
        fill: #000000;
      }

      .cls-3 {
        fill: #fff;
      }

      .cls-4 {
        fill: #000000;
      }

      .cls-5 {
        fill: #000000;
        stroke: #231f20;
        stroke-miterlimit: 10;
        stroke-width: 2.25px;
      }

      .cls-6 {
        fill: #000000;
      }

      .cls-7 {
        fill: #000000;
      }

      .cls-2 {
        font-family: LexendDeca-Regular, 'Lexend Deca';
        font-size: 42px;
      }
    </style>
  </defs>
  <g id="Layer_1-2" data-name="Layer 1">
    <path class="cls-1" d="M29.42,24.44l93.07-.13v-6.83s15.77,9.08,15.77,9.08l-15.76,9.13v-6.82s-93.08.13-93.08.13v-4.57ZM137.2,95.64l3.64,2.76-82.11,108.47,5.44,4.12-16.78,7.08,2.26-18.07,5.44,4.12,82.11-108.47ZM100.01,221.29l28.77-.1-.02-6.83,15.8,9.05-15.74,9.16-.02-6.82-28.77.1v-4.57Z"/>
    <text class="cls-2" transform="translate(5.62 35.7)"><tspan x="0" y="0">1</tspan></text>
    <text class="cls-2" transform="translate(142.98 92.81)"><tspan x="0" y="0">2</tspan></text>
    <path class="cls-5" d="M88.93,217.21c-.05.06-.03.19.08.28.32.25.9.45,1.33.8,3.31,2.73,3.48,8.09.81,11.32-3.26,3.96-9.63,3.53-12.95-.13-.46-.51-2.24-2.55-.91-2.94.97-.29,1.59,1.28,2.19,1.93,1.18,1.28,2.91,2.2,4.66,2.35,8.86.79,9.82-11.92,1.59-12.66-.54-.05-2.49.18-2.75-.23-1.18-1.87,2.78-1.32,3.55-1.43,2.13-.29,4.07-2.35,4.28-4.48.65-6.44-6.89-9.01-10.78-4.18-.38.47-1.3,2.38-1.58,2.47-.52.16-1.11-.15-1.11-.72,0-.19.79-1.73.96-2,2.42-3.86,8.21-5.09,11.71-1.91,2.92,2.65,3.26,7.94.27,10.65-.27.24-1.3.82-1.35.88Z"/>
    <g id="Layer_1-2" data-name="Layer 1-2">
      <g>
        <path class="cls-3" d="M150.03,48.47c1.66.24,2.85,1.12,3.6,2.29v-5.97h-3.16l-.49.26c.04,1.14.05,2.28.05,3.42Z"/>
        <path class="cls-7" d="M107.57,44.79c-.06.52.22,2.94-.34,2.94h-11.86v-2.94h12.19Z"/>
        <path class="cls-7" d="M131.5,44.79c-.12.65.33,2.67-.37,2.91-1.64-.23-10.89.44-11.61-.07-.44-.31-.11-2.21-.21-2.84h12.19,0Z"/>
        <rect class="cls-7" x="23.56" y="44.79" width="11.97" height="2.94"/>
        <rect class="cls-7" x="47.5" y="44.79" width="11.97" height="2.94"/>
        <rect class="cls-7" x="71.44" y="44.79" width="11.97" height="2.94"/>
        <path class="cls-7" d="M4.27,49.27c.84-.7,1.92-1.1,3.03-1.21v-.32h3.95c.56,0,.28-2.42.34-2.94h-7.23c.2,1.06-.02,2.9-.09,4.48h0Z"/>
        <path class="cls-6" d="M147.54,48.6c.48-.13,1-.21,1.57-.21.5,0,.97.06,1.4.16-.06-1.55-.14-3.18-.03-3.76h-7.23c.06.52-.22,2.94.34,2.94h3.95v.88h0Z"/>
        <path class="cls-7" d="M8.26,242.05h-4.06v-.9c-.6.22-1.28.35-2.03.35-.32,0-.61-.03-.9-.07v3.56h7v-2.94h0Z"/>
        <path class="cls-4" d="M90.4,122.13l2.32,1.73-7.27,9.22c-.35-.42-2.19-1.4-2.1-1.9,0,0,7.05-9.05,7.05-9.05Z"/>
        <path class="cls-4" d="M61.95,159.15c.38.44,2.17,1.38,2.09,1.89-.95.99-6.63,9.14-7.2,9.03-.19-.04-2.18-1.44-1.89-1.87l7.01-9.05h0Z"/>
        <path class="cls-4" d="M47.52,177.62c.51.47,2.36,1.34,2.14,2.08-.86,1.03-6.53,8.98-7.14,8.87-.16-.03-2.19-1.43-1.84-1.82l6.85-9.13h0Z"/>
        <path class="cls-4" d="M35.64,197.74l-6.93,9.26c-.72.44-1.66-1.22-2.47-1.3l6.93-9.26c.58-.36,1.8,1.24,2.47,1.31h0Z"/>
        <path class="cls-4" d="M104.74,103.65c.14-.03,2.36,1.45,2.06,1.9l-7.02,9.06c-.35-.47-2.18-1.39-2.09-1.91.92-1.02,6.48-8.95,7.05-9.06h0Z"/>
        <path class="cls-4" d="M71.46,151.61c-.27.18-2.11-1.4-2.43-1.73,1.03-.95,6.66-9.22,7.25-9.2.14,0,2.12,1.51,2.03,1.82l-6.86,9.13h0Z"/>
        <path class="cls-4" d="M121.14,86.54l-6.81,9.15c-.56.51-2.37-1.04-2.36-1.53.02-.7,6.15-7.59,6.75-9,.6-.33,1.7,1.31,2.43,1.37Z"/>
        <path class="cls-7" d="M144.87,242.05v2.94h-10.73c-.56,0-.28-2.43-.34-2.94h11.06Z"/>
        <path class="cls-7" d="M30.17,242.05v2.94h-10.73c-.56,0-.28-2.43-.34-2.94h11.06Z"/>
        <path class="cls-7" d="M52.07,242.05v2.94h-10.73c-.56,0-.28-2.43-.34-2.94,0,0,11.06,0,11.06,0Z"/>
        <path class="cls-7" d="M79.16,242.05v2.94h-10.73c-.56,0-.28-2.43-.34-2.94h11.06Z"/>
        <path class="cls-7" d="M101.07,242.05v2.94h-10.73c-.56,0-.28-2.43-.34-2.94h11.06Z"/>
        <path class="cls-7" d="M122.97,242.05v2.94h-10.73c-.56,0-.28-2.43-.34-2.94h11.06Z"/>
      </g>
      <path class="cls-4" d="M131.54,68.13c.14-.03,2.36,1.45,2.06,1.9l-7.02,9.06c-.35-.47-2.18-1.39-2.09-1.91.92-1.02,6.48-8.95,7.05-9.06h0Z"/>
      <path class="cls-4" d="M147.96,51.03l-6.81,9.15c-.56.51-2.37-1.04-2.36-1.53.02-.7,6.15-7.59,6.75-9,.6-.33,1.7,1.31,2.43,1.37Z"/>
      <path class="cls-4" d="M7.05,231.13c.14-.03,2.36,1.45,2.06,1.9l-7.02,9.06c-.35-.47-2.18-1.39-2.09-1.91.92-1.02,6.48-8.95,7.05-9.06h0Z"/>
      <path class="cls-4" d="M23.47,214.03l-6.81,9.15c-.56.51-2.37-1.04-2.36-1.53.02-.7,6.15-7.59,6.75-9,.6-.33,1.7,1.31,2.43,1.37Z"/>
    </g>
  </g>
</svg>