<svg xmlns="http://www.w3.org/2000/svg" viewBox="0 0 4.73 479.77"><defs><style>.cls-1{fill:#333131;}</style></defs><title>Asset 1</title><g id="Layer_2" data-name="Layer 2"><g id="Layer_1-2" data-name="Layer 1"><path class="cls-1" d="M2,21.3C1.36,18.53.74,15.76.14,13c-.11-.53-.45-1.17.6-1.31.74-.09.51-.86.51-1.36,0-3,0-5.95,0-8.92,0-.45-.15-1,.46-1.25A1.12,1.12,0,0,1,3.44,1.21c0,3,0,6.07,0,9.1,0,.72-.14,1.47,1,1.59.52.06.27.55.2.89L2.87,20.58c-.08.35-.15.71-.22,1.06C2.24,21.88,2.16,21.5,2,21.3Z"/><path class="cls-1" d="M1.61,269.76V267c0-.56.18-.92.82-1s1,.3,1,1c0,1.81,0,3.63,0,5.44,0,.61-.31.87-.9.86a.77.77,0,0,1-.88-.88v-2.73Z"/><path class="cls-1" d="M3.4,35.77v2.55c0,.59-.15,1.14-.86,1.16s-.92-.47-.93-1.09c0-1.7,0-3.39,0-5.09,0-.66.23-1,.95-1s.85.52.85,1.11C3.39,34.19,3.4,35,3.4,35.77Z"/><path class="cls-1" d="M3.39,297.54c0,.85,0,1.7,0,2.55,0,.55-.27,1-.86,1a.84.84,0,0,1-.89-.93c0-1.82,0-3.64,0-5.47,0-.63.39-.82,1-.8s.8.25.8.77C3.39,295.6,3.39,296.57,3.39,297.54Z"/><path class="cls-1" d="M3.39,421.22c0,.91,0,1.82,0,2.74a.85.85,0,0,1-.88,1,.86.86,0,0,1-.88-1q0-2.73,0-5.46c0-.64.41-.8,1-.78a.7.7,0,0,1,.79.78C3.39,419.4,3.39,420.31,3.39,421.22Z"/><path class="cls-1" d="M3.4,118.42v2.36c0,.66-.11,1.29-.94,1.26s-.85-.57-.85-1.17c0-1.7,0-3.4,0-5.1,0-.58.22-.9.85-.92s1,.37.94,1C3.39,116.72,3.4,117.57,3.4,118.42Z"/><path class="cls-1" d="M3.39,379.88c0,.91,0,1.82,0,2.73,0,.54-.23,1-.83,1s-.94-.45-.94-1.07c0-1.76,0-3.52,0-5.28,0-.61.33-.86.92-.85s.87.32.86.91Z"/><path class="cls-1" d="M3.39,228.26c0,.91,0,1.82,0,2.73,0,.53-.21,1-.81,1s-1-.44-1-1c0-1.76,0-3.52,0-5.28,0-.61.32-.87.91-.87a.77.77,0,0,1,.87.9Z"/><path class="cls-1" d="M3.39,338.65c0,.91,0,1.82,0,2.73,0,.55-.28,1-.87,1a.83.83,0,0,1-.88-.94c0-1.82,0-3.64,0-5.46,0-.64.39-.81,1-.8s.8.26.8.78C3.39,336.83,3.39,337.74,3.39,338.65Z"/><path class="cls-1" d="M3.4,187v2.55c0,.59-.15,1.14-.86,1.17s-.92-.48-.93-1.09c0-1.7,0-3.4,0-5.1,0-.65.23-1,.95-1s.85.52.85,1.11C3.39,185.43,3.4,186.22,3.4,187Z"/><path class="cls-1" d="M3.39,448.84c0,.79,0,1.58,0,2.37,0,.61-.22,1.11-.92,1.09s-.85-.44-.85-1c0-1.82,0-3.65,0-5.47,0-.53.33-.73.83-.75s.94.2.94.83v2.91Z"/><path class="cls-1" d="M3.39,311.32c0,.85,0,1.7,0,2.55,0,.64-.41.79-1,.78s-.79-.27-.79-.78c0-1.82,0-3.64,0-5.45,0-.54.4-.7.87-.7s.86.16.87.7c0,1,0,1.93,0,2.9Z"/><path class="cls-1" d="M3.39,352.58v2.54c0,.63-.38.83-1,.81s-.81-.23-.82-.75c0-1.82,0-3.64,0-5.45,0-.53.36-.72.84-.73s.92.25.92.85Z"/><path class="cls-1" d="M3.39,49.68v2.54c0,.61-.32.86-.9.86a.77.77,0,0,1-.88-.89c0-1.76,0-3.51,0-5.27,0-.51.3-.75.81-.77s.95.18.95.8c0,.91,0,1.82,0,2.73Z"/><path class="cls-1" d="M3.39,393.86v2.54c0,.63-.38.83-1,.81s-.81-.23-.82-.75c0-1.82,0-3.64,0-5.45,0-.53.36-.72.84-.73s.92.25.92.85Z"/><path class="cls-1" d="M3.39,476.45c0,.85,0,1.7,0,2.54,0,.65-.41.8-1,.78a.7.7,0,0,1-.79-.78c0-1.81,0-3.63,0-5.45,0-.53.4-.69.87-.69s.86.16.87.7c0,1,0,1.93,0,2.9Z"/><path class="cls-1" d="M3.39,435.2c0,.78,0,1.57,0,2.36,0,.56-.2.92-.83.93s-.95-.18-.95-.81c0-1.75,0-3.51,0-5.26,0-.61.32-.87.91-.86a.78.78,0,0,1,.86.91Z"/><path class="cls-1" d="M1.61,90.73c0-.79,0-1.57,0-2.36,0-.57.2-.93.83-.94s.94.2,1,.82v5.27c0,.61-.33.85-.92.84s-.86-.32-.86-.91C1.62,92.55,1.61,91.64,1.61,90.73Z"/><path class="cls-1" d="M3.4,462.44v2.36c0,.6-.09,1.08-.85,1.1s-.95-.36-.95-1c0-1.64,0-3.27,0-4.9,0-.65.23-1,.95-1s.86.5.85,1.1Z"/><path class="cls-1" d="M1.61,132.18v-2.36c0-.6.09-1.09.85-1.11s.94.37.94,1c0,1.63,0,3.27,0,4.9,0,.65-.22,1-.94,1s-.86-.51-.86-1.1C1.61,133.75,1.61,133,1.61,132.18Z"/><path class="cls-1" d="M3.4,159.61c0,.85,0,1.7,0,2.54a.77.77,0,0,1-.88.89c-.58,0-.91-.24-.91-.85,0-1.75,0-3.51,0-5.26,0-.63.39-.82.95-.8s.81.24.82.76c0,.91,0,1.81,0,2.72Z"/><path class="cls-1" d="M3.39,173.49V176a.77.77,0,0,1-.87.89c-.59,0-.91-.25-.91-.85,0-1.76,0-3.52,0-5.27,0-.63.39-.83,1-.81s.8.26.8.77c0,.91,0,1.82,0,2.73Z"/><path class="cls-1" d="M3.4,200.87v2.36c0,.6-.09,1.08-.85,1.1s-.95-.36-.95-1c0-1.64,0-3.27,0-4.9,0-.66.23-1,.95-1s.86.5.85,1.1Z"/><path class="cls-1" d="M1.61,214.75c0-.79,0-1.57,0-2.36,0-.59.08-1.09.85-1.12s.95.36.95,1c0,1.63,0,3.27,0,4.9,0,.65-.2,1-.93,1s-.87-.49-.87-1.1C1.61,216.33,1.61,215.54,1.61,214.75Z"/><path class="cls-1" d="M3.39,256.17c0,.85,0,1.7,0,2.55,0,.51-.29.75-.8.76s-1-.16-1-.79c0-1.76,0-3.51,0-5.27,0-.6.31-.87.9-.87a.78.78,0,0,1,.87.9v2.72Z"/><path class="cls-1" d="M1.61,242v-2.36c0-.57.2-.92.83-.94s1,.18,1,.81c0,1.75,0,3.51,0,5.26,0,.61-.33.85-.91.85a.77.77,0,0,1-.87-.9Z"/><path class="cls-1" d="M1.61,366.32c0-.85,0-1.7,0-2.55a.79.79,0,0,1,.9-.89.77.77,0,0,1,.88.89c0,1.65,0,3.29,0,4.93,0,.53-.2,1-.8,1s-1-.42-1-1c0-.79,0-1.58,0-2.37Z"/><path class="cls-1" d="M1.62,63.21c0-.79,0-1.58,0-2.37,0-.63.39-.83,1-.81s.8.27.8.78c0,1.7,0,3.41,0,5.11a.85.85,0,0,1-.86,1A.84.84,0,0,1,1.63,66c0-.91,0-1.83,0-2.74Z"/><path class="cls-1" d="M3.4,407.47v2.37c0,.6-.15,1.15-.85,1.18s-.93-.48-.94-1.09c0-1.58,0-3.16,0-4.74,0-.65.21-1.05.94-1s.85.53.85,1.12S3.4,406.74,3.4,407.47Z"/><path class="cls-1" d="M3.39,145.94c0,.85,0,1.7,0,2.55,0,.56-.28,1-.87,1a.84.84,0,0,1-.88-.95c0-1.7,0-3.4,0-5.1,0-.64.4-.82,1-.8a.71.71,0,0,1,.79.78C3.39,144.23,3.39,145.08,3.39,145.94Z"/><path class="cls-1" d="M3.39,324.92c0,.85,0,1.7,0,2.55,0,.55-.25,1-.84,1a.83.83,0,0,1-.91-.92c0-1.7,0-3.4,0-5.11,0-.62.36-.84.94-.83s.84.37.83.94v2.38Z"/><path class="cls-1" d="M1.61,283.63c0-.79,0-1.59,0-2.38,0-.57.22-.92.85-.93s.93.22.93.84c0,1.7,0,3.41,0,5.11a.83.83,0,0,1-.91.91c-.6,0-.83-.46-.84-1,0-.85,0-1.7,0-2.55Z"/><path class="cls-1" d="M2,73.58H3c.4,2.1.1,4.23.17,6.34,0,.53-.28.76-.8.73a.62.62,0,0,1-.62-.73C1.87,77.81,1.56,75.68,2,73.58Z"/><path class="cls-1" d="M2,73.58c0,1.76,0,3.52,0,5.28A9.94,9.94,0,0,0,2,80a.48.48,0,0,0,.49.44A.47.47,0,0,0,3,80c0-.79,0-1.58.06-2.37,0-1.33,0-2.67,0-4a.87.87,0,0,1,.37.78v5.44c0,.63-.18,1-.91,1s-.91-.42-.91-1c0-1.82,0-3.63,0-5.44A.85.85,0,0,1,2,73.58Z"/><path class="cls-1" d="M3.06,101.3a1,1,0,0,1,.35.8c0,1.69,0,3.39,0,5.08,0,.64-.19,1.06-.92,1.06s-.91-.42-.91-1.06c0-1.69,0-3.39,0-5.08a1,1,0,0,1,.34-.8l.2.18c.65,1.63.13,3.35.36,4.89.24-1.54-.29-3.26.36-4.89Z"/><path class="cls-1" d="M2,21.3l.68.34c0,.28,0,.7-.41.58S2,21.64,2,21.3Z"/><path class="cls-1" d="M1.94,101.3a.65.65,0,0,1,1.12,0l0,0a.79.79,0,0,1-1.07,0Z"/><path class="cls-1" d="M2,101.33H3V107c0,.38-.07.8-.54.8S2,107.36,2,107C2,105.1,2,103.21,2,101.33Z"/></g></g></svg>