<?xml version="1.0" encoding="utf-8"?>
<!-- Generator: Adobe Illustrator 24.0.1, SVG Export Plug-In . SVG Version: 6.00 Build 0)  -->
<svg version="1.1" id="Layer_1" xmlns="http://www.w3.org/2000/svg" xmlns:xlink="http://www.w3.org/1999/xlink" x="0px" y="0px"
	 viewBox="0 0 541 73" style="enable-background:new 0 0 541 73;" xml:space="preserve">
<style type="text/css">
	.st0{fill:#FEFEFE;stroke:#1F1F21;stroke-width:1.6;stroke-miterlimit:10;}
	.st1{fill:#BFBFBF;stroke:#1F1F21;stroke-width:1.6;stroke-miterlimit:10;}
	.st2{fill:#F7F7F7;stroke:#1F1F21;stroke-width:1.6;stroke-miterlimit:10;}
	.st3{fill:#060707;stroke:#1F1F21;stroke-width:1.6;stroke-miterlimit:10;}
	.st4{fill:#010202;stroke:#1F1F21;stroke-width:1.6;stroke-miterlimit:10;}
	.st5{fill:#BEBEBE;stroke:#1F1F21;stroke-width:1.6;stroke-miterlimit:10;}
	.st6{fill:#BEBDBD;stroke:#1F1F21;stroke-width:1.6;stroke-miterlimit:10;}
	.st7{fill:#BFBEBE;stroke:#1F1F21;stroke-width:1.6;stroke-miterlimit:10;}
</style>
<title>Asset 4</title>
<g>
	<g>
		<path class="st0" d="M541.4,0.8c0,23.9,0,47.8,0,71.7c0,0.8-0.2,1-1,1c-180,0-360,0-539.9,0c-0.8,0-1-0.2-1-1c0-24,0-48,0-71.9
			c0-0.5-0.2-1.2,0.7-1C0.3-0.3,0.4-0.1,0.4,0c0,0.6,0.3,0.8,0.8,0.8s1,0,1.4,0c178.6,0,357.2,0,535.8,0c0.8,0,1.7,0,2.5-0.2
			C541.1,0.7,541.3,0.7,541.4,0.8z"/>
		<path class="st1" d="M0.3-0.2c0-0.1,0-0.1,0-0.2c180.1,0,360.3,0,540.4,0c0.1,0.2,0,0.3-0.1,0.4c-0.4,0.2-0.8,0.2-1.3,0.2
			s-1,0-1.4,0c-178.3,0-356.5,0-534.8,0C2.1,0.2,1.1,0.5,0.3-0.2z"/>
		<path class="st2" d="M540.7-0.2c0-0.1,0-0.1,0-0.2c1.2-0.2,0.6,0.8,0.7,1.2h-0.1h-0.1C540.8,0.6,540.7,0.2,540.7-0.2z"/>
		<path class="st3" d="M270.5,73.2c-89.6,0-179.2,0-268.9,0c-0.6,0-1.8,0.5-1.8-0.7s1.2-0.7,1.8-0.7c179.2,0,358.5,0,537.7,0
			c0.6,0,1.8-0.5,1.8,0.7s-1.2,0.7-1.8,0.7C449.7,73.2,360.1,73.2,270.5,73.2z"/>
		<path class="st4" d="M540.7-0.2c0.4,0.2,0.5,0.6,0.5,1c-0.2,0.3-0.5,0.5-0.9,0.5c-0.3,0-0.6,0-0.8,0c-179.3,0-358.6,0-537.9,0
			c-0.2,0-0.5,0-0.7,0c-0.4,0-0.8,0-1-0.5c-0.2-0.4,0-0.8,0.4-1c0.5,0,1,0,1.6,0c179.1,0,358.1,0,537.2,0
			C539.6-0.2,540.1-0.2,540.7-0.2z"/>
		<path class="st5" d="M170.5,37.2c-0.8,0-1.6,0-2.4,0c-0.5,0-0.8-0.2-0.8-0.7c0-0.6,0.3-0.8,0.8-0.8c1.6,0,3.2,0,4.8,0
			c0.5,0,0.8,0.2,0.8,0.7c0,0.6-0.3,0.8-0.8,0.8C172.1,37.2,171.3,37.2,170.5,37.2z"/>
		<path class="st5" d="M320.5,37.2c-0.8,0-1.6,0-2.4,0c-0.5,0-0.8-0.2-0.8-0.7c0-0.6,0.3-0.8,0.8-0.8c1.6,0,3.2,0,4.8,0
			c0.5,0,0.8,0.2,0.8,0.7c0,0.6-0.3,0.8-0.8,0.8C322.1,37.2,321.3,37.2,320.5,37.2z"/>
		<path class="st6" d="M470.5,37.2c-0.8,0-1.5,0-2.3,0c-0.5,0-0.9-0.1-0.9-0.7c0-0.6,0.3-0.8,0.8-0.8c1.6,0,3.2,0,4.8,0
			c0.5,0,0.8,0.2,0.8,0.7c0,0.6-0.3,0.8-0.9,0.8C472.1,37.2,471.3,37.2,470.5,37.2z"/>
		<path class="st5" d="M20.5,37.2c-0.8,0-1.6,0-2.4,0c-0.5,0-0.8-0.2-0.8-0.7c0-0.6,0.3-0.8,0.8-0.8c1.6,0,3.2,0,4.8,0
			c0.5,0,0.8,0.2,0.8,0.7c0,0.6-0.3,0.8-0.8,0.8C22.1,37.2,21.3,37.2,20.5,37.2z"/>
		<path class="st5" d="M200.5,37.2c-0.8,0-1.5,0-2.3,0c-0.5,0-0.9-0.1-0.9-0.7c0-0.6,0.3-0.8,0.9-0.8c1.6,0,3.1,0,4.7,0
			c0.5,0,0.9,0.1,0.9,0.7c0,0.6-0.4,0.8-1,0.8C202,37.2,201.2,37.2,200.5,37.2z"/>
		<path class="st5" d="M500.5,37.2c-0.8,0-1.6,0-2.4,0c-0.5,0-0.8-0.2-0.8-0.7c0-0.6,0.3-0.8,0.8-0.8c1.6,0,3.2,0,4.8,0
			c0.5,0,0.8,0.2,0.8,0.7c0,0.6-0.3,0.8-0.8,0.8C502.1,37.2,501.3,37.2,500.5,37.2z"/>
		<path class="st5" d="M50.5,37.2c-0.8,0-1.6,0-2.4,0c-0.5,0-0.9-0.2-0.8-0.8c0-0.5,0.4-0.7,0.8-0.7c1.6,0,3.2,0,4.8,0
			c0.5,0,0.9,0.2,0.8,0.8c0,0.5-0.4,0.7-0.8,0.7C52.1,37.2,51.3,37.2,50.5,37.2z"/>
		<path class="st5" d="M530.5,37.2c-0.8,0-1.6,0-2.4,0c-0.5,0-0.8-0.2-0.8-0.7c0-0.6,0.3-0.8,0.8-0.8c1.6,0,3.2,0,4.8,0
			c0.5,0,0.8,0.2,0.8,0.7c0,0.6-0.3,0.8-0.8,0.8C532.1,37.2,531.3,37.2,530.5,37.2z"/>
		<path class="st5" d="M230.5,37.2c-0.8,0-1.6,0-2.4,0c-0.5,0-0.8-0.2-0.8-0.7c0-0.6,0.3-0.8,0.8-0.8c1.6,0,3.2,0,4.8,0
			c0.5,0,0.8,0.2,0.8,0.7c0,0.6-0.3,0.8-0.8,0.8C232.1,37.2,231.3,37.2,230.5,37.2z"/>
		<path class="st5" d="M80.4,37.2c-0.8,0-1.5,0-2.3,0c-0.5,0-0.9-0.2-0.9-0.8c0-0.5,0.3-0.7,0.8-0.7c1.6,0,3.2,0,4.8,0
			c0.5,0,0.9,0.2,0.9,0.8s-0.4,0.7-0.9,0.7C82,37.2,81.2,37.2,80.4,37.2z"/>
		<path class="st6" d="M410.4,37.2c-0.8,0-1.5,0-2.3,0c-0.5,0-0.9-0.2-0.9-0.8c0-0.5,0.3-0.7,0.8-0.7c1.6,0,3.3,0,4.9,0
			c0.5,0,0.8,0.3,0.7,0.7c0,0.5-0.3,0.7-0.8,0.7C412.1,37.3,411.2,37.2,410.4,37.2z"/>
		<path class="st5" d="M260.5,37.2c-0.8,0-1.6,0-2.4,0c-0.5,0-0.8-0.2-0.8-0.7c0-0.6,0.3-0.8,0.8-0.8c1.6,0,3.2,0,4.8,0
			c0.5,0,0.8,0.2,0.8,0.7c0,0.6-0.3,0.8-0.8,0.8C262.1,37.2,261.3,37.2,260.5,37.2z"/>
		<path class="st5" d="M110.5,37.2c-0.8,0-1.6,0-2.4,0c-0.5,0-0.9-0.2-0.8-0.8c0-0.5,0.4-0.7,0.8-0.7c1.6,0,3.2,0,4.8,0
			c0.5,0,0.9,0.2,0.8,0.8c0,0.5-0.4,0.7-0.8,0.7C112.1,37.2,111.3,37.2,110.5,37.2z"/>
		<path class="st5" d="M290.5,37.2c-0.8,0-1.6,0-2.4,0c-0.5,0-0.9-0.2-0.8-0.8c0-0.5,0.4-0.7,0.8-0.7c1.6,0,3.2,0,4.8,0
			c0.5,0,0.9,0.2,0.8,0.8c0,0.5-0.4,0.7-0.8,0.7C292.1,37.2,291.3,37.2,290.5,37.2z"/>
		<path class="st5" d="M350.5,37.2c-0.8,0-1.6,0-2.4,0c-0.5,0-0.8-0.2-0.8-0.7c0-0.6,0.3-0.8,0.8-0.8c1.6,0,3.2,0,4.8,0
			c0.5,0,0.8,0.2,0.8,0.7c0,0.6-0.3,0.8-0.8,0.8C352.1,37.2,351.3,37.2,350.5,37.2z"/>
		<path class="st5" d="M140.6,35.8c0.8,0,1.6,0,2.4,0c0.5,0,0.8,0.2,0.8,0.7s-0.3,0.7-0.8,0.7c-1.6,0-3.3,0-4.9,0
			c-0.5,0-0.8-0.2-0.8-0.7s0.3-0.7,0.8-0.7C138.9,35.8,139.7,35.8,140.6,35.8z"/>
		<path class="st5" d="M380.6,35.8c0.8,0,1.6,0,2.4,0c0.5,0,0.8,0.2,0.8,0.7s-0.3,0.7-0.8,0.7c-1.6,0-3.3,0-4.9,0
			c-0.5,0-0.8-0.2-0.8-0.7s0.3-0.7,0.8-0.7C378.9,35.8,379.7,35.8,380.6,35.8z"/>
		<path class="st6" d="M440.6,37.2c-0.8,0-1.7,0-2.5,0c-0.5,0-0.8-0.2-0.8-0.7s0.3-0.7,0.8-0.7c1.6,0,3.3,0,4.9,0
			c0.5,0,0.8,0.2,0.8,0.7s-0.3,0.7-0.8,0.7C442.2,37.3,441.4,37.2,440.6,37.2z"/>
		<path class="st7" d="M370.5,35.8c0.8,0,1.6,0,2.4,0c0.5,0,0.8,0.2,0.8,0.7s-0.3,0.7-0.7,0.7c-1.6,0-3.2,0-4.8,0
			c-0.5,0-0.9-0.3-0.9-0.8s0.4-0.7,0.9-0.7C369,35.8,369.7,35.8,370.5,35.8L370.5,35.8z"/>
		<path class="st6" d="M270.4,37.2c-0.7,0-1.4,0-2.1,0c-0.5,0-0.9-0.1-0.9-0.7c0-0.6,0.3-0.8,0.8-0.8c1.6,0,3.1,0,4.7,0
			c0.5,0,0.9,0.2,0.9,0.7s-0.4,0.7-0.9,0.7C272,37.3,271.2,37.2,270.4,37.2z"/>
		<path class="st7" d="M10.5,37.2c-0.8,0-1.5,0-2.3,0c-0.5,0-0.9-0.2-0.9-0.7s0.4-0.7,0.9-0.7c1.6,0,3.1,0,4.7,0
			c0.5,0,0.9,0.2,0.8,0.8c0,0.5-0.4,0.7-0.8,0.7C12.1,37.2,11.3,37.2,10.5,37.2z"/>
		<path class="st6" d="M30.6,35.8c0.8,0,1.5,0,2.3,0c0.5,0,0.8,0.2,0.8,0.7s-0.3,0.8-0.7,0.8c-1.7,0-3.3,0-5,0
			c-0.4,0-0.6-0.3-0.6-0.7c0-0.5,0.3-0.7,0.8-0.7C29,35.8,29.8,35.8,30.6,35.8z"/>
		<path class="st7" d="M40.5,37.2c-0.8,0-1.5,0-2.3,0c-0.5,0-0.9-0.2-0.9-0.7s0.4-0.7,0.9-0.7c1.6,0,3.1,0,4.7,0
			c0.5,0,0.9,0.2,0.8,0.8c0,0.5-0.4,0.7-0.8,0.7C42.1,37.2,41.3,37.2,40.5,37.2z"/>
		<path class="st6" d="M60.5,37.2c-0.8,0-1.5,0-2.3,0c-0.5,0-0.9-0.1-0.9-0.7c0-0.6,0.4-0.7,0.9-0.7c1.6,0,3.1,0,4.7,0
			c0.5,0,0.8,0.2,0.8,0.6c0,0.5-0.3,0.8-0.8,0.8C62.1,37.3,61.3,37.2,60.5,37.2L60.5,37.2z"/>
		<path class="st7" d="M70.5,35.8c0.8,0,1.6,0,2.4,0c0.5,0,0.8,0.2,0.8,0.7c0,0.6-0.3,0.8-0.8,0.8c-1.6,0-3.1,0-4.7,0
			c-0.5,0-0.9-0.2-0.9-0.8c0-0.5,0.4-0.7,0.9-0.7C69,35.8,69.7,35.8,70.5,35.8z"/>
		<path class="st6" d="M90.5,37.2c-0.8,0-1.5,0-2.3,0c-0.5,0-0.9-0.2-0.8-0.8c0-0.5,0.4-0.7,0.8-0.7c1.6,0,3.2,0,4.8,0
			c0.5,0,0.8,0.2,0.8,0.7s-0.3,0.7-0.8,0.7C92.1,37.3,91.3,37.2,90.5,37.2L90.5,37.2z"/>
		<path class="st7" d="M100.5,37.2c-0.7,0-1.4,0-2.1,0c-0.5,0-1-0.2-1-0.7c0-0.6,0.5-0.7,1-0.7c1.5,0,2.9,0,4.4,0c0.5,0,1,0.1,1,0.8
			c0,0.6-0.4,0.7-0.9,0.7C102,37.2,101.3,37.2,100.5,37.2z"/>
		<path class="st6" d="M120.5,37.2c-0.8,0-1.6,0-2.4,0c-0.5,0-0.8-0.2-0.8-0.7s0.3-0.7,0.7-0.7c1.6,0,3.3,0,4.9,0
			c0.5,0,0.8,0.3,0.7,0.7c0,0.4-0.4,0.7-0.8,0.7C122.1,37.3,121.3,37.2,120.5,37.2z"/>
		<path class="st7" d="M130.5,37.2c-0.8,0-1.5,0-2.3,0c-0.5,0-0.9-0.2-0.9-0.7s0.4-0.7,0.9-0.7c1.6,0,3.1,0,4.7,0
			c0.5,0,0.9,0.2,0.8,0.8c0,0.5-0.4,0.7-0.8,0.7C132.1,37.2,131.3,37.2,130.5,37.2z"/>
		<path class="st6" d="M150.4,37.2c-0.7,0-1.4,0-2.1,0c-0.5,0-0.9-0.1-0.9-0.7c0-0.6,0.3-0.8,0.8-0.8c1.6,0,3.1,0,4.7,0
			c0.5,0,0.9,0.2,0.9,0.7s-0.4,0.7-0.8,0.7C152.1,37.3,151.3,37.2,150.4,37.2L150.4,37.2z"/>
		<path class="st7" d="M160.5,37.2c-0.8,0-1.6,0-2.4,0c-0.5,0-0.9-0.3-0.8-0.8c0-0.5,0.4-0.6,0.9-0.6c1.6,0,3.1,0,4.7,0
			c0.5,0,0.9,0.2,0.9,0.7c0,0.6-0.4,0.7-0.9,0.7C162,37.2,161.3,37.2,160.5,37.2L160.5,37.2z"/>
		<path class="st7" d="M190.6,35.8c0.8,0,1.5,0,2.3,0c0.5,0,0.9,0.2,0.9,0.7s-0.3,0.7-0.8,0.7c-1.6,0-3.2,0-4.8,0
			c-0.5,0-0.9-0.3-0.8-0.8c0-0.4,0.4-0.6,0.9-0.6C189,35.8,189.8,35.8,190.6,35.8z"/>
		<path class="st6" d="M210.5,37.2c-0.8,0-1.5,0-2.3,0c-0.5,0-0.9-0.2-0.9-0.7c0-0.6,0.4-0.7,0.9-0.7c1.5,0,3,0,4.5,0
			c0.5,0,0.9,0.1,0.9,0.7c0,0.6-0.4,0.8-1,0.8C212,37.3,211.2,37.2,210.5,37.2z"/>
		<path class="st7" d="M220.5,35.8c0.8,0,1.5,0,2.3,0c0.5,0,0.9,0.2,0.9,0.7s-0.3,0.7-0.8,0.7c-1.6,0-3.2,0-4.8,0
			c-0.5,0-0.9-0.3-0.8-0.8c0-0.5,0.4-0.6,0.9-0.6C219,35.8,219.8,35.8,220.5,35.8z"/>
		<path class="st7" d="M340.5,37.2c-0.8,0-1.5,0-2.3,0c-0.5,0-0.9-0.2-0.9-0.7c0-0.6,0.4-0.7,1-0.7c1.5,0,2.9,0,4.4,0
			c0.5,0,1,0.1,1,0.8s-0.5,0.7-1,0.7C341.9,37.2,341.2,37.2,340.5,37.2z"/>
		<path class="st7" d="M280.5,37.2c-0.8,0-1.5,0-2.3,0c-0.5,0-1-0.2-1-0.8c0-0.5,0.4-0.7,0.9-0.7c1.5,0,3,0,4.5,0
			c0.5,0,0.9,0.1,0.9,0.7c0,0.6-0.4,0.7-0.9,0.7C282,37.2,281.3,37.2,280.5,37.2z"/>
		<path class="st7" d="M400.6,37.2c-0.8,0-1.5,0-2.3,0c-0.5,0-1-0.1-1-0.7c0-0.6,0.5-0.7,1-0.7c1.5,0,2.9,0,4.4,0c0.5,0,1,0.1,1,0.8
			c0,0.6-0.4,0.7-0.9,0.7C402,37.2,401.3,37.2,400.6,37.2z"/>
		<path class="st6" d="M240.4,37.2c-0.8,0-1.5,0-2.3,0c-0.5,0-0.8-0.2-0.8-0.7c0-0.6,0.3-0.8,0.8-0.8c1.6,0,3.2,0,4.8,0
			c0.5,0,0.8,0.3,0.8,0.7c0,0.5-0.3,0.7-0.8,0.7C242.1,37.3,241.3,37.2,240.4,37.2L240.4,37.2z"/>
		<path class="st7" d="M430.4,37.2c-0.8,0-1.5,0-2.3,0c-0.5,0-0.9-0.2-0.9-0.7s0.4-0.7,0.9-0.7c1.5,0,3,0,4.5,0
			c0.5,0,0.9,0.1,0.9,0.7c0,0.6-0.4,0.8-0.9,0.8C431.9,37.2,431.2,37.2,430.4,37.2z"/>
		<path class="st7" d="M460.5,35.8c0.8,0,1.5,0,2.3,0c0.5,0,0.9,0.2,0.9,0.7s-0.3,0.7-0.8,0.7c-1.6,0-3.2,0-4.8,0
			c-0.5,0-0.9-0.3-0.8-0.8c0-0.5,0.4-0.6,0.9-0.6C458.9,35.8,459.7,35.8,460.5,35.8z"/>
		<path class="st7" d="M310.5,35.8c0.8,0,1.5,0,2.3,0c0.5,0,0.9,0.1,0.9,0.7c0,0.6-0.3,0.8-0.8,0.8c-1.6,0-3.1,0-4.7,0
			c-0.5,0-0.9-0.2-0.9-0.8c0-0.5,0.4-0.7,0.9-0.7C309,35.8,309.7,35.8,310.5,35.8z"/>
		<path class="st6" d="M180.6,35.8c0.8,0,1.5,0,2.3,0c0.5,0,0.8,0.2,0.9,0.6c0,0.5-0.3,0.8-0.8,0.8c-1.6,0-3.2,0-4.8,0
			c-0.5,0-0.8-0.2-0.8-0.7c0-0.6,0.4-0.7,0.9-0.7C179,35.8,179.8,35.8,180.6,35.8z"/>
		<path class="st7" d="M490.5,35.8c0.8,0,1.6,0,2.4,0c0.5,0,0.8,0.2,0.8,0.7c0,0.6-0.3,0.8-0.8,0.8c-1.6,0-3.1,0-4.7,0
			c-0.5,0-0.9-0.2-0.9-0.8c0-0.5,0.4-0.7,0.9-0.7C488.9,35.8,489.7,35.8,490.5,35.8z"/>
		<path class="st7" d="M250.5,35.8c0.8,0,1.6,0,2.4,0c0.5,0,0.8,0.2,0.7,0.7c0,0.5-0.3,0.7-0.8,0.7c-1.6,0-3.2,0-4.8,0
			c-0.5,0-0.9-0.3-0.8-0.8c0-0.5,0.4-0.6,0.9-0.6C248.9,35.8,249.7,35.8,250.5,35.8L250.5,35.8z"/>
		<path class="st7" d="M520.5,35.8c0.8,0,1.6,0,2.4,0c0.5,0,0.8,0.2,0.8,0.7s-0.3,0.7-0.8,0.7c-1.6,0-3.2,0-4.8,0
			c-0.5,0-0.9-0.3-0.9-0.8s0.5-0.7,1-0.7C519,35.8,519.7,35.8,520.5,35.8L520.5,35.8z"/>
		<path class="st6" d="M360.4,37.2c-0.7,0-1.4,0-2.2,0c-0.5,0-0.9-0.1-0.9-0.7c0-0.6,0.3-0.8,0.9-0.8c1.6,0,3.1,0,4.7,0
			c0.5,0,0.8,0.2,0.8,0.7s-0.3,0.7-0.7,0.8C362.1,37.3,361.3,37.2,360.4,37.2L360.4,37.2z"/>
		<path class="st6" d="M480.4,37.2c-0.8,0-1.5,0-2.3,0c-0.5,0-0.8-0.2-0.8-0.7c0-0.6,0.3-0.8,0.8-0.8c1.6,0,3.1,0,4.7,0
			c0.5,0,0.8,0.2,0.8,0.7c0.1,0.6-0.3,0.8-0.8,0.8C482,37.3,481.2,37.2,480.4,37.2z"/>
		<path class="st6" d="M420.5,35.8c0.8,0,1.6,0,2.4,0c0.5,0,0.7,0.3,0.7,0.7s-0.3,0.7-0.7,0.7c-1.7,0-3.4,0-5,0
			c-0.4,0-0.6-0.3-0.6-0.7s0.3-0.7,0.7-0.7C418.8,35.8,419.7,35.8,420.5,35.8L420.5,35.8z"/>
		<path class="st6" d="M390.4,37.2c-0.7,0-1.4,0-2.2,0c-0.5,0-0.9-0.1-0.9-0.7c0-0.6,0.3-0.8,0.8-0.8c1.6,0,3.1,0,4.7,0
			c0.5,0,0.8,0.2,0.8,0.7c0,0.6-0.4,0.8-0.8,0.8C392,37.3,391.2,37.2,390.4,37.2z"/>
		<path class="st6" d="M300.4,37.2c-0.7,0-1.4,0-2.2,0c-0.5,0-0.9-0.1-0.9-0.7c0-0.6,0.4-0.7,0.9-0.7c1.6,0,3.1,0,4.7,0
			c0.5,0,0.7,0.2,0.8,0.7c0,0.5-0.3,0.7-0.7,0.7C302.1,37.3,301.3,37.2,300.4,37.2L300.4,37.2z"/>
		<path class="st6" d="M450.5,35.8c0.8,0,1.6,0,2.4,0c0.5,0,0.7,0.3,0.7,0.7s-0.3,0.7-0.7,0.7c-1.7,0-3.4,0-5,0
			c-0.4,0-0.6-0.3-0.6-0.7s0.3-0.7,0.7-0.7C448.9,35.8,449.7,35.8,450.5,35.8L450.5,35.8z"/>
		<path class="st6" d="M330.4,37.2c-0.8,0-1.5,0-2.3,0c-0.5,0-0.8-0.2-0.8-0.7c0-0.6,0.3-0.8,0.8-0.8c1.6,0,3.1,0,4.7,0
			c0.5,0,0.8,0.2,0.8,0.7c0.1,0.6-0.3,0.8-0.8,0.8C332,37.3,331.2,37.2,330.4,37.2z"/>
		<path class="st6" d="M510.5,37.2c-0.8,0-1.5,0-2.3,0c-0.5,0-0.9-0.2-0.9-0.7s0.3-0.7,0.8-0.7c1.6,0,3.2,0,4.8,0
			c0.5,0,0.7,0.2,0.7,0.7s-0.3,0.7-0.8,0.7C512,37.3,511.2,37.2,510.5,37.2z"/>
		<path class="st7" d="M1.8,35.8c0.4,0,0.7,0,1.1,0c0.5,0,0.9,0.2,0.9,0.7s-0.4,0.7-0.9,0.7c-0.7,0-1.4,0-2.2,0
			c-0.5,0-0.9-0.2-0.9-0.7c0-0.6,0.4-0.7,0.9-0.7C1.1,35.8,1.4,35.8,1.8,35.8z"/>
		<path class="st5" d="M539.1,37.2c-0.5-0.2-1.8,0.5-1.7-0.8c0-1.1,1.2-0.5,1.8-0.7c0.4-0.1,0.8,0,1.2,0c0.5,0,0.8,0.2,0.8,0.7
			s-0.3,0.7-0.8,0.7C540,37.3,539.6,37.2,539.1,37.2z"/>
	</g>
</g>
</svg>
