<svg xmlns="http://www.w3.org/2000/svg" viewBox="0 0 156.62 213.07"><defs><style>.cls-1{fill:#010101;}.cls-2{fill:#404040;}.cls-3{fill:#bfbfbf;}.cls-4{fill:#bebebe;}.cls-5{fill:gray;}</style></defs><title>Asset 1</title><g id="Layer_2" data-name="Layer 2"><g id="Layer_1-2" data-name="Layer 1"><path class="cls-1" d="M156.62,112.78c-3.17,0-3.13,0-3.09-3.19,0-3,0-6,0-9a9.83,9.83,0,0,1,2.54-.12c.35,0,.46.23.45.54v9a8.7,8.7,0,0,0,.13,2.33Z"/><path class="cls-2" d="M54,0c-.07,1,.42,2.27-.18,2.89s-2,.21-3,.22c-2.71,0-5.42,0-8.13,0-.88,0-1.23-.2-1.14-1.12a19.51,19.51,0,0,0,0-2Z"/><path class="cls-3" d="M.07,205.4c3.36-.2,3.36-.2,3.36,3.12v1.42c-.65-.06-.52-.61-.57-1a11.78,11.78,0,0,1,0-1.68c0-.79-.17-1.3-1.12-1.28s-1,.52-1,1.25c0,1.39,0,2.79,0,4.18a4.14,4.14,0,0,1-.13,1.31,1.56,1.56,0,0,1-.23.34c-.53,0-.22-.42-.22-.6C.06,210.12.07,207.76.07,205.4Z"/><path class="cls-2" d="M29.48,0l0,.25A1.89,1.89,0,0,1,28,.62q-4.64,0-9.27,0A2,2,0,0,1,17.26.24V0Z"/><path class="cls-2" d="M17.25,213.07l0-.25a2,2,0,0,1,1.47-.37H28a2,2,0,0,1,1.46.37l0,.25Z"/><path class="cls-2" d="M41.71,213.07l0-.24a2,2,0,0,1,1.45-.38h9.27a2,2,0,0,1,1.46.37l0,.25Z"/><path class="cls-4" d="M.34,124l-.27,0V112.3l.3,0a2,2,0,0,1,.32,1.37q0,4.49,0,9A1.87,1.87,0,0,1,.34,124Z"/><path class="cls-4" d="M.37,54.18l-.3,0V42.47l.27,0a1.89,1.89,0,0,1,.35,1.36q0,4.49,0,9A1.94,1.94,0,0,1,.37,54.18Z"/><path class="cls-4" d="M.07,19.2l.27,0a1.86,1.86,0,0,1,.35,1.35q0,4.48,0,9a2,2,0,0,1-.32,1.37l-.3,0Z"/><path class="cls-4" d="M.07,182.12l.3,0a2,2,0,0,1,.32,1.37q0,4.49,0,9a1.89,1.89,0,0,1-.35,1.36l-.27,0Z"/><path class="cls-4" d="M.07,135.57l.3,0A2,2,0,0,1,.69,137q0,4.49,0,9a1.89,1.89,0,0,1-.35,1.36l-.27,0Z"/><path class="cls-4" d="M.07,65.75l.27,0a1.86,1.86,0,0,1,.35,1.35q0,4.48,0,9a2,2,0,0,1-.32,1.37l-.3,0Z"/><path class="cls-4" d="M.07,89l.27,0A1.89,1.89,0,0,1,.69,90.4q0,4.48,0,9a1.94,1.94,0,0,1-.32,1.36l-.3,0Z"/><path class="cls-4" d="M.34,170.58l-.27,0V158.85l.3,0a2,2,0,0,1,.32,1.37q0,4.49,0,9A1.87,1.87,0,0,1,.34,170.58Z"/><path class="cls-3" d="M.37,7.63l-.3,0C.07,5.32.06,3,.09.6.09.42-.22,0,.31,0A2,2,0,0,1,.56.39,51.92,51.92,0,0,1,.64,7,1,1,0,0,1,.37,7.63Z"/><path class="cls-2" d="M.35.26.31,0H7.75V.24a1,1,0,0,1-.63.31A57,57,0,0,1,1,.56.92.92,0,0,1,.35.26Z"/><path class="cls-2" d="M.31,213.07l0-.25a1.16,1.16,0,0,1,.86-.34c1.89,0,3.78-.06,5.67,0a1.28,1.28,0,0,1,.86.34v.24Z"/><path class="cls-2" d="M156.4,110.16v-7.24c.08-.09.15-.08.22,0v7.2C156.55,110.24,156.48,110.25,156.4,110.16Z"/><path class="cls-4" d="M156.42,101c0-.48-.3-.55-.7-.53-.74,0-1.48,0-2.22.08,1-.51,2.07-.24,3.12-.25V101C156.54,101.13,156.47,101.13,156.42,101Z"/><path class="cls-5" d="M156.4,110.16a.53.53,0,0,1,.22,0v2.16C156.12,111.63,156.47,110.87,156.4,110.16Z"/><path class="cls-5" d="M156.42,101a.28.28,0,0,1,.2,0v1.92l-.22,0Z"/><path d="M113.08,197.58c-.39-.1-.48-.43-.65-.69-1.13-1.72-1.13-1.71.53-2.83a68.88,68.88,0,0,0,7.21-5.53c.64-.57,1-.48,1.47.14,1.28,1.55,1.32,1.53-.2,2.78a86.64,86.64,0,0,1-7.67,5.71C113.54,197.31,113.3,197.45,113.08,197.58Z"/><path d="M112.86,15.51l.69.44a98.29,98.29,0,0,1,8.65,6.56c.63.52.45.78,0,1.27-1.39,1.52-1.36,1.53-3,.19a66,66,0,0,0-7.08-5.27c-.87-.54-.92-1-.29-1.7A13.32,13.32,0,0,0,112.86,15.51Z"/><path d="M149.69,149.47c0,.08-.09.28-.15.46-1.2,3.34-2.57,6.6-4,9.82-.32.71-.6.84-1.31.47-1.82-.94-1.85-.9-1-2.75a70.66,70.66,0,0,0,3.31-8.18c.36-1.13.84-1.23,1.76-.75.31.16.68.22,1,.36S149.79,149,149.69,149.47Z"/><path d="M90.7,5l1.92.65c2.91,1,5.74,2.14,8.54,3.4.63.28.94.47.55,1.27-.92,1.86-.86,1.88-2.8,1a72.13,72.13,0,0,0-8.25-3.14c-1-.3-1.17-.71-.76-1.58a9,9,0,0,0,.41-1.24C90.39,5.16,90.48,4.94,90.7,5Z"/><path d="M131.47,31.88l.49.57a104,104,0,0,1,6.53,8.67c.45.65.28.89-.29,1.26-1.77,1.13-1.76,1.15-2.93-.58q-2.24-3.31-4.79-6.4c-1.3-1.59-1.31-1.59.31-3Z"/><path d="M131.58,181.36a21.34,21.34,0,0,1-2.05-1.81c-.37-.41.25-.66.46-.93a87.16,87.16,0,0,0,6-8.16c.39-.62.67-.66,1.28-.26,1.8,1.19,1.81,1.15.56,3-1.75,2.57-3.62,5-5.61,7.44C132.05,180.86,131.83,181.08,131.58,181.36Z"/><path d="M102,203.39c.07.43-.3.44-.51.53a100.4,100.4,0,0,1-10.33,4c-.46.15-.68.11-.89-.4-.87-2.19-.88-2.16,1.38-3a73.08,73.08,0,0,0,8.08-3.22c.9-.44,1.35-.35,1.64.61A11.73,11.73,0,0,0,102,203.39Z"/><path d="M149.66,63.64c.11.44-.14.52-.35.63-1.91,1-2.26.91-3-1.13a87.65,87.65,0,0,0-3.51-8.23c-.38-.74-.36-1.12.51-1.5,1.77-.79,1.73-.85,2.59,1,1.33,2.8,2.48,5.68,3.56,8.59C149.52,63.23,149.61,63.49,149.66,63.64Z"/><path d="M155.35,87.53c.1.41,0,.63-.35.67l-2.12.29c-.47.06-.49-.31-.53-.62a99.34,99.34,0,0,0-1.93-10.69c-.1-.45,0-.68.47-.72a2,2,0,0,0,.22-.08c2.15-.59,2.15-.59,2.61,1.59C154.38,81.17,154.93,84.39,155.35,87.53Z"/><path d="M155.33,125.73c-.46,3.55-1.13,7.14-1.89,10.73-.12.56-.25.83-1,.64-2.1-.55-2.1-.49-1.67-2.59.61-2.92,1.17-5.85,1.5-8.82.1-.83.38-1.11,1.19-.93a6.75,6.75,0,0,0,1.41.2C155.39,125,155.48,125.22,155.33,125.73Z"/><path d="M67.24.47c3.55.32,7,.77,10.33,1.32.8.13.93.41.76,1.16-.43,1.91-.4,1.94-2.44,1.61-3-.47-6-.86-9-1.08-.74,0-1.1-.26-.91-1a2.94,2.94,0,0,0,.09-.83C66,.62,66.37.18,67.24.47Z"/><path d="M66.05,210.87c-.32-.92.09-1.23,1.14-1.31A81.15,81.15,0,0,0,77,208.29c.72-.14,1.06,0,1.18.81.31,2,.34,2-1.67,2.34-2.83.51-5.68.8-8.53,1.1C66.25,212.73,66.25,212.71,66.05,210.87Z"/><path class="cls-1" d="M53.91,212.82H41.73c-.2-2.84-.2-2.84,2.62-2.84s5.73,0,8.59,0c.86,0,1.12.25,1,1.07A17.63,17.63,0,0,0,53.91,212.82Z"/><path class="cls-1" d="M29.44,212.82H17.28C17.14,210,17.14,210,20,210s5.67,0,8.5,0c.85,0,1.15.22,1,1.06C29.42,211.62,29.46,212.22,29.44,212.82Z"/><path class="cls-1" d="M17.26.24H29.44c.14,2.83.14,2.83-2.64,2.83s-5.64-.05-8.46,0c-1,0-1.25-.3-1.14-1.2C17.27,1.36,17.24.8,17.26.24Z"/><path d="M.35.26l7.39,0c.19,2.84.19,2.84-2.65,2.84-1.86,0-1.86,0-1.86,1.88,0,2.69,0,2.69-2.74,2.68H.37Z"/><path d="M.34,124l0-11.69c2.86,0,2.86,0,2.86,2.78,0,2.63,0,5.25,0,7.88,0,.94-.28,1.17-1.13,1.07A17.76,17.76,0,0,0,.34,124Z"/><path d="M.34,170.58l0-11.69c2.86,0,2.86,0,2.86,2.78,0,2.63,0,5.25,0,7.88,0,.94-.28,1.17-1.13,1.07A17.76,17.76,0,0,0,.34,170.58Z"/><path d="M.37,77.46l0-11.69c2.89-.08,2.89-.08,2.89,2.82,0,2.63,0,5.25,0,7.88,0,.75-.14,1.1-1,1A15.2,15.2,0,0,0,.37,77.46Z"/><path d="M.37,30.91l0-11.69c2.89-.08,2.89-.08,2.89,2.82,0,2.63,0,5.25,0,7.88,0,.75-.14,1.1-1,1A15.2,15.2,0,0,0,.37,30.91Z"/><path d="M.34,193.86l0-11.7c2.86,0,2.86,0,2.86,2.79,0,2.62,0,5.25,0,7.87,0,.94-.28,1.17-1.13,1.07A17.77,17.77,0,0,0,.34,193.86Z"/><path d="M.37,54.18l0-11.69c2.89-.07,2.89-.07,2.89,2.83,0,2.62,0,5.25,0,7.87,0,.75-.14,1.11-1,1C1.65,54.13,1,54.19.37,54.18Z"/><path d="M7.74,212.83H.35c0-2.11,0-4.22-.06-6.33,0-.74.19-.94.93-.93,2,0,1.93,0,2,1.9,0,.82-.32,1.7.22,2.48,1.16,0,2.31.09,3.46,0,.77,0,1,.23.91,1S7.75,212.19,7.74,212.83Z"/><path d="M.34,147.31l0-11.7c2.86,0,2.86,0,2.86,2.79,0,2.62,0,5.25,0,7.87,0,.94-.28,1.17-1.13,1.07A17.77,17.77,0,0,0,.34,147.31Z"/><path d="M.37,100.73.34,89C3.23,89,3.23,89,3.23,91.87c0,2.62,0,5.25,0,7.87,0,.75-.14,1.11-1,1C1.65,100.68,1,100.74.37,100.73Z"/><path class="cls-1" d="M47.66,2.88c-1.68,0-3.35,0-5,0-1.08,0-.91-.65-.86-1.25S41.35.21,42.58.23q5.16,0,10.3,0c1.22,0,.76.85.82,1.43s.16,1.28-.89,1.24C51.09,2.83,49.38,2.88,47.66,2.88Z"/></g></g></svg>