<svg xmlns="http://www.w3.org/2000/svg" viewBox="0 0 139.17 213.06"><defs><style>.cls-1{fill: #000000;}.cls-2{fill:gray;}.cls-3{fill: #000000;}.cls-4{fill: #000000;}</style></defs><title>Asset 1</title><g id="Layer_2" data-name="Layer 2"><g id="Layer_1-2" data-name="Layer 1"><path class="cls-1" d="M.37,147.28l-.3,0V135.57l.27,0a1.87,1.87,0,0,1,.35,1.35c0,3,0,6,0,9A2,2,0,0,1,.37,147.28Z"/><path class="cls-1" d="M.37,170.55l-.3,0V158.84l.27,0a1.87,1.87,0,0,1,.35,1.35c0,3,0,6,0,9A2,2,0,0,1,.37,170.55Z"/><path class="cls-1" d="M.37,193.82l-.3,0V182.11l.27,0a1.87,1.87,0,0,1,.35,1.35c0,3,0,6,0,9A2,2,0,0,1,.37,193.82Z"/><path class="cls-1" d="M.07,89H.32A2.08,2.08,0,0,1,.7,90.5c0,2.86,0,5.73,0,8.59a2,2,0,0,1-.41,1.46l-.11,0-.11,0Z"/><path class="cls-1" d="M.07,112.3H.32a2.08,2.08,0,0,1,.38,1.47c0,2.86,0,5.73,0,8.59a2,2,0,0,1-.41,1.46l-.11,0-.11,0Z"/><path class="cls-1" d="M.29,77.28l-.11,0-.11,0V65.75H.32A2.08,2.08,0,0,1,.7,67.23c0,2.86,0,5.73,0,8.59A2,2,0,0,1,.29,77.28Z"/><path class="cls-1" d="M.07,19.21a.33.33,0,0,1,.22,0A2,2,0,0,1,.7,20.66c0,2.87,0,5.73,0,8.6a2.06,2.06,0,0,1-.38,1.46H.07Z"/><path class="cls-1" d="M.29,54,.18,54,.07,54V42.48H.32A2.06,2.06,0,0,1,.7,44c0,2.87,0,5.73,0,8.6A2,2,0,0,1,.29,54Z"/><path class="cls-1" d="M.07,205.38l.27,0a1.12,1.12,0,0,1,.31.75,50.65,50.65,0,0,1-.09,6.52,1.62,1.62,0,0,1-.25.39c-.53,0-.22-.42-.22-.6C.06,210.1.07,207.74.07,205.38Z"/><path class="cls-1" d="M.32,7.45H.07V0L.34,0A1.39,1.39,0,0,1,.67,1c0,1.81,0,3.63,0,5.44A1.47,1.47,0,0,1,.32,7.45Z"/><path class="cls-2" d="M3.75,212.43l-2.42,0a1.43,1.43,0,0,0-1,.34l0,.27H3.79C3.77,212.85,3.76,212.64,3.75,212.43Z"/><path class="cls-3" d="M45.51,0C42.76.05,40,0,37.25,0S31.73,0,29,0c-.62,0-.91.07-.91.81C28.06,3,28,3,30.24,3h1.07l.28,0a15.27,15.27,0,0,1,4,.72C35.66,3.17,36,3,36.86,3c2.6.09,5.2,0,7.79,0,1.93,0,1.88,0,1.93-2C46.61.17,46.33,0,45.51,0Z"/><path d="M32.33,102c0-.41-.18-.54-.58-.55A57.44,57.44,0,0,1,22.3,101c-.65-.12-.89.13-.87.83,0,1,0,2,0,3l.21,0a2.51,2.51,0,0,1,.62.08,2.27,2.27,0,0,1,.61-.34l.32-.08a3.78,3.78,0,0,1,.56-.08,1.93,1.93,0,0,1,.68.1l.11,0a.93.93,0,0,1,.74-.18c1.64.06,3.28,0,4.91,0C32.52,104.4,32.63,104.26,32.33,102Z"/><path class="cls-4" d="M64.7,0c1.83,0,3.67,0,5.5,0,.55,0,.74.13.76.72C71.06,3,71.08,3,68.76,3c-3,0-6.06,0-9.09,0-.83,0-1.08-.21-1.06-1.06,0-2,0-2,1.91-2Z"/><path class="cls-4" d="M89.17,0c1.8,0,3.59,0,5.39,0,.56,0,.73.13.75.72C95.38,3,95.4,3,93.12,3c-3,0-6.06,0-9.1,0-.78,0-1-.2-1-1,0-2,0-2,2.07-2Z"/><path class="cls-4" d="M113.64,0c1.71,0,3.43,0,5.14,0,.69,0,1,.12,1,.9,0,2.12,0,2.12-2.13,2.12-3,0-6.06,0-9.08,0-.83,0-1.08-.21-1.06-1,0-2,0-2,2-2Z"/><path class="cls-3" d="M22.15.82c0-.6-.12-.83-.78-.82q-3,.08-6.11,0c-.68,0-.78.26-.77.84,0,.87,0,1.74,0,2.61h.14a2.8,2.8,0,0,1,.85.14,2.74,2.74,0,0,1,.84-.14,2.4,2.4,0,0,1,1.36.39C17.85,3,18.36,3,20,3,22.21,3,22.18,3,22.15.82Z"/><path d="M.32,7.45.34,0c2.19,0,4.38,0,6.57,0,.69,0,.85.2.85.87C7.77,3,7.8,3,5.58,3S3.23,3,3.23,5.26,3.23,7.52.91,7.5Z"/><path d="M134.5,3H135c.93,0,1.86,0,2.78-.14l1.33-.14.08,0V.06c-2.19,0-4.38,0-6.57,0-.59,0-.82.11-.84.77,0,2.24-.08,2.24,2.15,2.24Z"/><path d="M3.78,209.94c-.41,0-.63-.21-.56-.77a7.51,7.51,0,0,0,0-.95c0-2.89,0-2.89-2.89-2.82q0,3.69,0,7.39H3.77A18.07,18.07,0,0,1,3.78,209.94Z"/><path class="cls-3" d="M10.85,101.65c-.2-.59-1.07-.18-1.63-.23a19.82,19.82,0,0,0-2,0c-1.19,0-2.79-.43-3.48.17s-.26,2-.23,3c.26.1.52.17.78.25a2.42,2.42,0,0,1,1.3-.36,2.74,2.74,0,0,1,1,.2c.2-.24.55-.33,1.14-.26a16.3,16.3,0,0,0,2.52,0c.24,0,.65.15.67-.26A6.9,6.9,0,0,0,10.85,101.65Z"/><path class="cls-4" d="M48.31,104.41c-1.48,0-3,0-4.43,0-.72,0-1-.14-1-.91,0-2.1,0-2.11,2-2.11,2.56,0,5.11,0,7.67,0,.89,0,1.16.22,1.13,1.13-.06,1.89,0,1.9-1.87,1.9Z"/><path d="M.37,170.55l0-11.69c2.89-.08,2.89-.08,2.89,2.82,0,2.63,0,5.25,0,7.88,0,.74-.14,1.1-1,1A15.2,15.2,0,0,0,.37,170.55Z"/><path d="M.37,147.28l0-11.69c2.89-.08,2.89-.08,2.89,2.82,0,2.63,0,5.25,0,7.88,0,.74-.14,1.1-1,1A15.2,15.2,0,0,0,.37,147.28Z"/><path d="M.37,193.82l0-11.69c2.89-.07,2.89-.07,2.89,2.82,0,2.63,0,5.25,0,7.88,0,.74-.14,1.1-1,1A17.36,17.36,0,0,0,.37,193.82Z"/><path class="cls-4" d="M69.75,104.41c-1.52,0-3,0-4.55,0-.7,0-.84-.22-.84-.87,0-2.15,0-2.15,2.11-2.15,2.51,0,5,0,7.54,0,.79,0,1.12.13,1.1,1,0,2,0,2-2,2Z"/><path class="cls-4" d="M91.13,104.41c-1.51,0-3,0-4.54,0-.71,0-.84-.22-.84-.87,0-2.15,0-2.15,2.08-2.15,2.56,0,5.11,0,7.66,0,.71,0,1.07.08,1.05,1,0,2.06,0,2.07-2.06,2.07Z"/><path d="M.29,123.82l0-11.52c2.91-.17,2.91-.17,2.91,2.69,0,2.68,0,5.36,0,8,0,.76-.21,1-.94.92A9.79,9.79,0,0,1,.29,123.82Z"/><path d="M.29,77.28l0-11.52c2.91-.17,2.91-.17,2.91,2.69,0,2.68,0,5.36,0,8,0,.75-.21,1-.94.91A9.14,9.14,0,0,1,.29,77.28Z"/><path d="M.29,54l0-11.52c2.91-.17,2.91-.17,2.91,2.69,0,2.68,0,5.35,0,8,0,.75-.21,1-.94.91A9.14,9.14,0,0,1,.29,54Z"/><path d="M.29,100.55.32,89c2.91-.17,2.91-.17,2.91,2.69,0,2.68,0,5.36,0,8,0,.76-.21,1-.94.92A9.79,9.79,0,0,1,.29,100.55Z"/><path d="M.32,30.72l0-11.52a1.56,1.56,0,0,1,.34-.09c2.6-.15,2.6-.15,2.6,2.45s0,5.43,0,8.15c0,.8-.13,1.19-1,1.07C1.6,30.7,1,30.74.32,30.72Z"/><path class="cls-4" d="M108.55,104.41c-1.52,0-3,0-4.55,0-.71,0-.85-.22-.85-.87,0-2.14,0-2.14,2.11-2.14,2.51,0,5,0,7.54,0,.79,0,1.13.13,1.11,1,0,2,0,2-2,2Z"/></g></g></svg>