<?xml version="1.0" encoding="UTF-8"?>
<svg id="Layer_2" data-name="Layer 2" xmlns="http://www.w3.org/2000/svg" viewBox="0 0 153.17 214.45">
  <defs>
    <style>
      .cls-1 {
        fill: #272425;
      }

      .cls-2 {
        fill: #282526;
      }
    </style>
  </defs>
  <g id="Layer_1-2" data-name="Layer 1">
    <g>
      <path class="cls-2" d="M1.4,8.4h3.12s0-7.44,0-7.44H1.55c-.08.1-.18.18-.27.27.07.55.01,1.13-.18,1.65.76.96.87,2.39.31,3.48v2.05Z"/>
      <path class="cls-1" d="M1.4,136.56v7.44c-.05-.05-.09-.09-.14-.13.21,1.19-.21,2.5-1.26,3.16.04.47.09.94.12,1.41l1.16-1.08c.29.11.01.85.12.96.11.12,3.12.1,3.12-.36v-11.4H1.4Z"/>
      <path class="cls-1" d="M34.21,80.39l1.86,2.38-9.86,6.93c-.9.41-1.57-1.69-2.17-2.22l10.17-7.08Z"/>
      <path class="cls-1" d="M115.67,23.35c.27,0,2.08,2.2,1.45,2.67l-9.46,6.64c-.9.41-1.57-1.69-2.17-2.22l10.17-7.08Z"/>
      <path class="cls-1" d="M75.05,51.75c.27.61,1.9,2.15,1.49,2.69l-9.46,6.63c-.77.67-2.37-1.91-2.05-2.32l10.02-7Z"/>
      <path class="cls-1" d="M13.91,94.6c.27,0,2.08,2.2,1.45,2.67l-9.46,6.64c-.9.41-1.57-1.69-2.17-2.22l10.17-7.08Z"/>
      <path class="cls-1" d="M95.35,37.54c.27.61,1.9,2.15,1.49,2.69l-9.46,6.63c-.9.41-1.57-1.69-2.17-2.22l10.14-7.1Z"/>
      <path class="cls-1" d="M54.51,66.18l1.86,2.38-10.14,7.1c-.27-.61-1.9-2.15-1.49-2.69l9.77-6.79Z"/>
      <path class="cls-1" d="M9.73,103.56l-5.76-4.01-2.21,3.4c1.1.09,1.92.82,2.33,1.76.21-.37.4-.69.49-.84.5-.29,3.1,2.43,3.75,2.34.13-.02,1.66-1.91,1.69-2.04.06-.25-.11-.47-.29-.63Z"/>
      <path class="cls-2" d="M4.52,20.16v11.4c0,.59-2.58.3-3.12.36v-11.76h3.12Z"/>
      <path class="cls-2" d="M4.52,43.44v11.4c0,.59-2.58.3-3.12.36v-11.76h3.12Z"/>
      <path class="cls-2" d="M4.52,66.72v11.4c0,.59-2.58.3-3.12.36v-11.76h3.12Z"/>
      <path class="cls-2" d="M4.52,159.84v11.4c0,.59-2.58.3-3.12.36v-11.76h3.12Z"/>
      <path class="cls-2" d="M4.52,90v11.4c0,.59-2.58.3-3.12.36v-11.76h3.12Z"/>
      <path class="cls-2" d="M4.52,113.28v11.4c0,.59-2.58.3-3.12.36v-11.76h3.12Z"/>
      <path class="cls-2" d="M4.52,183.12v11.4c0,.59-2.58.3-3.12.36v-11.76h3.12Z"/>
      <path class="cls-1" d="M69.5,154.65c.79-.32,1.27-2.29,2.13-2.05l9.02,6.54-1.87,2.45-9.28-6.94Z"/>
      <polygon class="cls-1" points="42.84 130.69 52.19 137.22 50.5 139.59 41.18 133.05 42.84 130.69"/>
      <polygon class="cls-1" points="14.53 107.98 23.87 114.52 22.19 116.89 12.87 110.34 14.53 107.98"/>
      <path class="cls-1" d="M28.69,119.31c.65-.32,7.97,5.79,9.27,6.32.14.28-1.25,2.44-1.38,2.5-.59.31-8.03-5.76-9.28-6.35-.42-.36,1.2-2.38,1.39-2.48Z"/>
      <path class="cls-1" d="M56.27,141.56c.59-.29,8.07,5.72,9.22,6.42.19.31-1.14,2.18-1.43,2.36-.5.31-8.01-5.7-9.19-6.3-.42-.36,1.2-2.38,1.39-2.48Z"/>
      <path class="cls-1" d="M85.53,161.43c.59-.29,8.07,5.72,9.22,6.42.19.31-1.14,2.18-1.43,2.36-.5.31-8.01-5.7-9.19-6.3-.42-.36,1.2-2.38,1.39-2.48Z"/>
    </g>
    <path class="cls-1" d="M131.44,11.56c.27,0,2.08,2.2,1.45,2.67l-9.46,6.64c-.9.41-1.57-1.69-2.17-2.22l10.17-7.08Z"/>
    <path class="cls-1" d="M99.64,172.08c.59-.29,8.07,5.72,9.22,6.42.19.31-1.14,2.18-1.43,2.36-.5.31-8.01-5.7-9.19-6.3-.42-.36,1.2-2.38,1.39-2.48Z"/>
    <path class="cls-1" d="M115,184.13c.59-.29,8.07,5.72,9.22,6.42.19.31-1.14,2.18-1.43,2.36-.5.31-8.01-5.7-9.19-6.3-.42-.36,1.2-2.38,1.39-2.48Z"/>
    <path class="cls-1" d="M148.83,0c.27,0,2.08,2.2,1.45,2.67l-9.46,6.64c-.9.41-1.57-1.69-2.17-2.22l10.17-7.08Z"/>
    <path class="cls-2" d="M4.37,202.67v11.4c0,.59-2.58.3-3.12.36v-11.76h3.12Z"/>
    <path class="cls-1" d="M130.6,195.12c.59-.29,8.07,5.72,9.22,6.42.19.31-1.14,2.18-1.43,2.36-.5.31-8.01-5.7-9.19-6.3-.42-.36,1.2-2.38,1.39-2.48Z"/>
    <path class="cls-1" d="M143.93,205.66c.59-.29,8.07,5.72,9.22,6.42.19.31-1.14,2.18-1.43,2.36-.5.31-8.01-5.7-9.19-6.3-.42-.36,1.2-2.38,1.39-2.48Z"/>
  </g>
</svg>