<?xml version="1.0" encoding="UTF-8"?>
<svg id="Layer_2" data-name="Layer 2" xmlns="http://www.w3.org/2000/svg" viewBox="0 0 171.52 218.69">
  <defs>
    <style>
      .cls-1 {
        fill: #272425;
      }

      .cls-2 {
        fill: #939598;
      }

      .cls-3 {
        fill: #262324;
      }

      .cls-4 {
        fill: #282526;
      }

      .cls-5 {
        fill: #949698;
      }
    </style>
  </defs>
  <g id="Layer_1-2" data-name="Layer 1">
    <g>
      <path class="cls-1" d="M3.27,1.82H0v7.68c.55-.06,3.12.23,3.12-.36v-4.2h.79c-.28-1.01-.48-2.05-.64-3.12Z"/>
      <path class="cls-4" d="M0,44.3h3.12v11.4c0,.59-2.57.3-3.12.36v-11.76Z"/>
      <path class="cls-4" d="M0,67.58h3.12v11.4c0,.59-2.57.3-3.12.36v-11.76Z"/>
      <path class="cls-4" d="M0,90.86h3.12v11.4c0,.59-2.57.3-3.12.36v-11.76Z"/>
      <path class="cls-4" d="M0,21.02h3.12v11.4c0,.59-2.57.3-3.12.36v-11.76Z"/>
      <path class="cls-4" d="M0,114.14h3.12v11.4c0,.59-2.57.3-3.12.36v-11.76Z"/>
      <path class="cls-4" d="M0,137.42h3.12v11.4c0,.59-2.57.3-3.12.36v-11.76Z"/>
      <path class="cls-4" d="M0,160.7h3.12v11.4c0,.59-2.57.3-3.12.36v-11.76Z"/>
      <path class="cls-4" d="M0,183.98h3.12v11.4c0,.59-2.57.3-3.12.36v-11.76Z"/>
      <path class="cls-1" d="M3.99,211.82h-.87v-4.2c0-.59-2.57-.3-3.12-.36v7.44c1.26.1,2.62.14,3.96.14-.21-.99-.2-2.03.03-3.02Z"/>
      <path class="cls-1" d="M170.25,0h-4.04c.09.42.14.83.14,1.23,0,.65-.12,1.29-.33,1.89h1.35v4.56c.93-.11,2.09.28,2.88-.24.2-2.39.2-5.1,0-7.44Z"/>
      <path class="cls-5" d="M170.32,143.93h-.24c-.19-.02-.47-.09-.48-.22-.15-2.99-.09-6.45,0-9.47-.18-1.04-.02-1.73.48-2.07h.24v11.76Z"/>
      <path class="cls-5" d="M170.32,120.65h-.24c-.19-.02-.47-.09-.48-.22-.15-2.99-.09-6.45,0-9.47-.18-1.04-.02-1.73.48-2.07h.24v11.76Z"/>
      <path class="cls-5" d="M171,166.73h-.24c-.19-.02-.47-.09-.48-.22-.15-2.99-.09-6.45,0-9.47-.18-1.04-.02-1.73.48-2.07h.24v11.76Z"/>
      <path class="cls-2" d="M170.32,97.13h-.24c-.19-.02-.47-.09-.48-.22-.14-2.97-.23-7.05,0-9.97-.15-.73.01-1.18.48-1.33h.24v11.52Z"/>
      <path class="cls-2" d="M170.58,77.64h-.24c-.19-.02-.47-.09-.48-.22-.14-2.97-.23-7.05,0-9.97-.15-.73.01-1.18.48-1.33h.24v11.52Z"/>
      <path class="cls-2" d="M170.57,30.46h-.24c-.19-.02-.47-.09-.48-.22-.14-2.97-.23-7.05,0-9.97-.15-.73.01-1.18.48-1.33h.24v11.52Z"/>
      <path class="cls-2" d="M170.58,55.39h-.24c-.19-.02-.47-.09-.48-.22-.14-2.97-.23-7.05,0-9.97-.15-.73.01-1.18.48-1.33h.24v11.52Z"/>
      <path class="cls-2" d="M3.93,214.7H0v.24h3.98c-.02-.08-.03-.16-.05-.24Z"/>
      <polygon class="cls-1" points="161.07 26.67 156.91 38.24 154.05 37.48 158.21 25.91 161.07 26.67"/>
      <path class="cls-1" d="M149.8,60.28c-.14.15-2.7-.54-2.81-.64-.11-.1-.09-.36-.09-.52.57-1.32,3.55-11.02,4.3-11.11.33-.04,2.47.75,2.55,1.01l-3.95,11.26Z"/>
      <path class="cls-1" d="M168.16,8.38c.49.42-3.4,10.05-3.81,11.36-.56.66-2.07-.34-2.72-.54l3.73-11.46c.14-.15,2.7.54,2.81.64Z"/>
      <path class="cls-1" d="M9.48,25.26c.76.1,2.47-1.25,2.94-.73l4.24,10.93c-.04.51-2.37,1.45-2.72,1.08l-4.46-11.28Z"/>
      <path class="cls-1" d="M43.61,103.88l-2.83.98c-.14-1.5-4.62-11.02-4.21-11.47.15-.17,2.36-1.13,2.73-.87l4.32,11.36Z"/>
      <path class="cls-1" d="M7.69,13.23c-.84-.16-2.18,1.2-2.79.63L.77,2.64c.7-.18,2.15-1.24,2.7-.63l4.21,11.23Z"/>
      <path class="cls-1" d="M139.06,81.41c-.41-.44,3.59-10.09,3.91-11.49.36-.28,2.6.61,2.76.78.42.43-3.6,9.87-3.88,11.27-.27.41-2.69-.44-2.79-.55Z"/>
      <path class="cls-1" d="M21.43,47.14l4.38,11.1c-.04.25-2.74,1.35-3.06,1.03l-4.15-10.88c0-.17-.04-.42.07-.53.1-.1,2.58-.87,2.76-.72Z"/>
      <path class="cls-1" d="M29.83,69.82c.29,0,.49.04.62.32l4.27,10.87c-.04.13-2.38,1.11-2.52,1.11-.61-.02-4.08-9.93-4.66-11.2.03-.35,1.98-1.11,2.29-1.1Z"/>
      <rect class="cls-3" x="167.2" y="108.89" width="2.88" height="11.76"/>
      <path class="cls-3" d="M170.34,66.12v11.52c-.79.52-1.95.13-2.88.24v-11.76h2.88Z"/>
      <path class="cls-3" d="M170.34,43.87v11.52c-.79.52-1.95.13-2.88.24v-11.76h2.88Z"/>
      <path class="cls-3" d="M170.33,18.94v11.52c-.79.52-1.95.13-2.88.24v-11.76h2.88Z"/>
      <path class="cls-3" d="M170.08,85.61v11.52c-.79.52-1.95.13-2.88.24v-11.76h2.88Z"/>
      <rect class="cls-3" x="167.2" y="132.17" width="2.88" height="11.76"/>
      <rect class="cls-3" x="167.46" y="178.77" width="2.88" height="11.76"/>
      <rect class="cls-3" x="167.88" y="154.97" width="2.88" height="11.76"/>
    </g>
    <path class="cls-1" d="M55.72,138.22c.76.1,2.47-1.25,2.94-.73l4.24,10.93c-.04.51-2.37,1.45-2.72,1.08l-4.46-11.28Z"/>
    <path class="cls-1" d="M53.93,126.19c-.84-.16-2.18,1.2-2.79.63l-4.13-11.23c.7-.18,2.15-1.24,2.7-.63l4.21,11.23Z"/>
    <path class="cls-1" d="M67.68,160.09l4.38,11.1c-.04.25-2.74,1.35-3.06,1.03l-4.15-10.88c0-.17-.04-.42.07-.53.1-.1,2.58-.87,2.76-.72Z"/>
    <path class="cls-1" d="M76.07,182.77c.29,0,.49.04.62.32l4.27,10.87c-.04.13-2.38,1.11-2.52,1.11-.61-.02-4.08-9.93-4.66-11.2.03-.35,1.98-1.11,2.29-1.1Z"/>
    <polygon class="cls-1" points="111.38 161.3 107.21 172.87 104.35 172.11 108.51 160.54 111.38 161.3"/>
    <path class="cls-1" d="M99.07,195.8c-.14.15-2.7-.54-2.81-.64-.11-.1-.09-.36-.09-.52.57-1.32,3.55-11.02,4.3-11.11.33-.04,2.47.75,2.55,1.01l-3.95,11.26Z"/>
    <path class="cls-1" d="M119.46,138.25c.49.42-3.4,10.05-3.81,11.36-.56.66-2.07-.34-2.72-.54l3.73-11.46c.14-.15,2.7.54,2.81.64Z"/>
    <path class="cls-1" d="M127.84,115.38c.41.44-3.59,10.09-3.91,11.49-.36.28-2.6-.61-2.76-.78-.42-.43,3.6-9.87,3.88-11.27.27-.41,2.69.44,2.79.55Z"/>
    <path class="cls-1" d="M87.88,218.03c-.41-.44,3.59-10.09,3.91-11.49.36-.28,2.6.61,2.76.78.42.43-3.6,9.87-3.88,11.27-.27.41-2.69-.44-2.79-.55Z"/>
    <path class="cls-1" d="M85.59,204.82c.29,0,.49.04.62.32l4.27,10.87c-.04.13-2.38,1.11-2.52,1.11-.61-.02-4.08-9.93-4.66-11.2.03-.35,1.98-1.11,2.29-1.1Z"/>
    <path class="cls-1" d="M135.64,95.03c.41.44-3.59,10.09-3.91,11.49-.36.28-2.6-.61-2.76-.78-.42-.43,3.6-9.87,3.88-11.27.27-.41,2.69.44,2.79.55Z"/>
    <rect class="cls-3" x="168.64" y="201.36" width="2.88" height="11.76"/>
  </g>
</svg>