<?xml version="1.0" encoding="UTF-8"?>
<svg id="Layer_2" data-name="Layer 2" xmlns="http://www.w3.org/2000/svg" viewBox="0 0 208.8 219.12">
  <defs>
    <style>
      .cls-1 {
        fill: #000000;
      }

      .cls-2 {
        fill: #000000;
      }

      .cls-3 {
        fill: #000000;
      }

      .cls-4 {
        fill: #000000;
      }

      .cls-5 {
        fill: #000000;
      }

      .cls-6 {
        fill: #000000;
      }

      .cls-7 {
        fill: #000000;
      }

      .cls-8 {
        fill: #000000;
      }

      .cls-9 {
        fill: #000000;
      }

      .cls-10 {
        fill: #000000;
      }
    </style>
  </defs>
  <g id="Layer_1-2" data-name="Layer 1">
    <g>
      <path class="cls-3" d="M107.04,0c.66.1,1.3.18,1.92.24.48-.18.97-.18,1.44,0,.35-.19.83-.2,1.2,0,.74.03,4.19.1,4.57.35.45.29-.27,2.36-.01,3.01-1.83-.05-3.82-.41-5.63-.49-1.38-.06-4.99.3-5.98-.02-.74-.24-.27-2.4-.39-3.09h2.88Z"/>
      <path class="cls-3" d="M0,109.68v-3.12c.1-.73.18-1.45.24-2.16-.18-.48-.18-.97,0-1.44-.19-.35-.2-.83,0-1.2.05-1.45.12-2.88.24-4.32.65.21,2.96.07,3.09.62l-.49,11.23c-.24.74-2.4.27-3.09.39Z"/>
      <path class="cls-4" d="M104.64,219.12h-2.88c-.21-.07-.21-.15,0-.24.62-.41,1.34-.59,2.16-.55-.2-1.12-.04-1.9.48-2.33.51.17.12,2.5.24,3.12Z"/>
      <path class="cls-10" d="M0,106.56v-2.16c.07-.21.15-.21.24,0,0,.68.19,1.69-.24,2.16Z"/>
      <path class="cls-9" d="M108.96,0c.21.07.21.15,0,.24-.6,0-1.52.19-1.92-.24h1.92Z"/>
      <path class="cls-1" d="M101.76,218.88v.24h-1.92v-.24c.63-.46,1.29-.46,1.92,0Z"/>
      <path class="cls-7" d="M.24,104.4h-.24v-1.44c.07-.21.15-.21.24,0,0,.48,0,.96,0,1.44Z"/>
      <path class="cls-8" d="M110.4,0c.21.07.21.15,0,.24-.48,0-.96,0-1.44,0v-.24h1.44Z"/>
      <path class="cls-5" d="M.24,102.96h-.24v-1.2h.24c-.01.4,0,.8,0,1.2Z"/>
      <path class="cls-5" d="M111.6,0v.24c-.4-.02-.8,0-1.2,0v-.24h1.2Z"/>
      <path class="cls-3" d="M199.42,156.26c.37.51-4.33,9.97-5.38,10.99l-2.52-1.42,5.16-10.32c.24-.46,2.65.63,2.74.75Z"/>
      <path class="cls-3" d="M208.32,121.44l-3.12-.24.48-11.76c1.04-.07,2.15.21,3.12-.24l-.48,12.24Z"/>
      <path class="cls-3" d="M191.29,53.03l-5.97-9.53c-.3-.46,1.85-1.92,2.05-1.95.42-.07,1.71,1.96,2.05,2.44,1.71,2.4,3.15,4.99,4.7,7.5-.02.33-2.55,1.74-2.82,1.55Z"/>
      <path class="cls-3" d="M48.71,19.42l-9.25,6.73c-.34.08-1.55-1.76-2-2.06l9.34-7.2c.68-.42,2.06,2.31,1.91,2.53Z"/>
      <path class="cls-3" d="M48.86,199.92l10.08,5.75c.18.28-.87,2.4-1.09,2.54-.33.21-3.42-1.46-4.01-1.78-2.21-1.18-4.29-2.63-6.46-3.88-.31-.47,1.15-2.18,1.48-2.64Z"/>
      <path class="cls-3" d="M11.98,63.58c-.35.26-2.4-.81-2.86-1.07l5.4-10.91c.42.55,2.55,1.14,2.49,1.75l-5.03,10.23Z"/>
      <polygon class="cls-3" points="206.64 85.44 208.32 97.44 205.2 97.68 203.52 85.92 206.64 85.44"/>
      <path class="cls-3" d="M169.32,192.72l2.04,2.28c-.99,1-9.31,7.53-9.84,7.21-.24-.57-1.66-2.03-1.33-2.54l9.14-6.96Z"/>
      <path class="cls-3" d="M16.74,166.11c.28-.04.48-.06.66.2l6.11,9.49-2.27,1.79-6.57-9.99c-.04-.41,1.67-1.42,2.07-1.48Z"/>
      <polygon class="cls-3" points="92.4 .72 92.64 3.6 80.88 5.52 80.4 2.4 92.4 .72"/>
      <path class="cls-3" d="M127.9,213.62l.49,2.85-11.99,1.93c.27-.72-.55-2.67-.01-3.01l11.52-1.77Z"/>
      <path class="cls-3" d="M2.19,133.41c-.49-.31-1.41-10.05-1.72-11.37.07-1.07,2.04-.33,2.78-.78l1.8,11.34c.06.76-2.6.98-2.86.81Z"/>
      <polygon class="cls-3" points="68.88 6 69.58 8.86 58.8 13.44 57.6 10.56 68.88 6"/>
      <path class="cls-3" d="M187.67,177.13l-7.44,9.59c-.4.27-1.87-1.65-2.29-1.92l7.12-9.1,2.61,1.43Z"/>
      <path class="cls-3" d="M7.92,74.64l-2.75,11.28c-.33.51-2.35-.28-3-.26l2.75-11.51c.52-.66,2.21.61,3,.49Z"/>
      <path class="cls-3" d="M69.95,210.27l10.93,3.21c.27.18.04,3.05-.97,2.91-1.32-.19-3.25-.81-4.61-1.17-1-.27-5.68-1.57-6.19-1.97-.54-.42.67-2.95.83-2.97Z"/>
      <polygon class="cls-3" points="206.64 133.2 203.74 144.94 200.88 144.23 203.64 132.95 203.9 132.75 206.64 133.2"/>
      <path class="cls-3" d="M160.05,18.93c-.5.3-8.76-5.36-10.28-5.51-.26-.37.92-2.29,1.18-2.76l10.34,5.77c.35.27.12.27,0,.49-.13.25-1.14,1.95-1.25,2.01Z"/>
      <path class="cls-3" d="M30.96,34.08l-7.45,9.01c-.43.24-2.16-1.09-2.29-1.33-.27-.5,1.35-2.35,1.72-2.86,1.77-2.36,3.85-4.48,5.74-6.74.25,0,1.62,2.02,2.28,1.92Z"/>
      <path class="cls-3" d="M150,205.68l1.18,2.52c-.05.61-9.86,4.52-11.25,4.92l-.96-2.88,11.04-4.56Z"/>
      <path class="cls-3" d="M139.92,5.76l-1.1,2.88-11.12-3.14c-.17-.2.42-3.13.58-3.1l11.65,3.36Z"/>
      <path class="cls-3" d="M12,155.52c-.75.02-2.47,1.41-3,.72l-3.96-11.04c.76-.03,2.43-1.19,3-.49l3.96,10.8Z"/>
      <path class="cls-3" d="M203.51,73.91l-2.87.73-3.84-11.28c.84.19,2.19-1.35,2.76-.73.66,1.28,4.41,10.76,3.96,11.28Z"/>
      <path class="cls-6" d="M30.86,184.81l8.4,7.91c.18.34-1.35,2.74-2.18,2.17-.44-.3-1.54-1.36-2.04-1.81-2.18-1.97-4.26-4.07-6.23-6.24l2.05-2.03Z"/>
      <path class="cls-2" d="M171.24,23.76l8.41,8.16c.24.46-1.79,2.73-2.43,1.93l-7.92-7.7c-.18-.41,1.59-2.05,1.94-2.4Z"/>
      <path class="cls-3" d="M104.4,216v2.88c-.88,0-1.76-.01-2.64,0-.64,0-1.28,0-1.92,0-2.48-.04-4.97-.15-7.43-.49l.23-3.11,11.76.72Z"/>
    </g>
  </g>
</svg>