<?xml version="1.0" encoding="UTF-8"?>
<svg id="Layer_2" data-name="Layer 2" xmlns="http://www.w3.org/2000/svg" viewBox="0 0 112.81 214.63">
  <defs>
    <style>
      .cls-1 {
        fill: #fff;
      }

      .cls-2 {
        fill: #646567;
      }

      .cls-3 {
        fill: #272425;
      }

      .cls-4 {
        fill: #292627;
      }

      .cls-5 {
        fill: #282526;
      }
    </style>
  </defs>
  <g id="Layer_1-2" data-name="Layer 1">
    <g>
      <path class="cls-1" d="M3.62,212.67c-1.13,0-2.27-.03-3.41-.08L0,213.11v.48h3.89c0-.13.01-.26.02-.4-.1-.17-.2-.35-.29-.53Z"/>
      <path class="cls-3" d="M7.68,0c-.06.55.23,3.12-.36,3.12H3.12v4.2c0,.59-2.57.3-3.12.36V0h7.68Z"/>
      <path class="cls-5" d="M3.12,208.48v-2.69c0-.59-2.57-.3-3.12-.36v7.68c.94-.17,2.44-.04,3.89.05-.83-1.38-1.08-3.1-.77-4.69Z"/>
      <path class="cls-5" d="M31.2,0c-.1.67.25,2.69-.22,3.02-.75.52-9.74-.15-11.38.07-.74-.24-.27-2.4-.39-3.09h12Z"/>
      <path class="cls-5" d="M51.39,1.31c-.13.69.35,2.84-.39,3.09-1.64-.22-10.64.45-11.38-.07-.47-.33-.12-2.35-.22-3.02h12Z"/>
      <path class="cls-5" d="M0,89.04h3.12v11.4c0,.59-2.57.3-3.12.36v-11.76Z"/>
      <path class="cls-5" d="M0,65.76h3.12v11.4c0,.59-2.57.3-3.12.36v-11.76Z"/>
      <path class="cls-5" d="M0,112.32h3.12v11.4c0,.59-2.57.3-3.12.36v-11.76Z"/>
      <path class="cls-5" d="M0,135.59h3.12v11.4c0,.59-2.57.3-3.12.36v-11.76Z"/>
      <path class="cls-5" d="M0,158.87h3.12v11.4c0,.59-2.57.3-3.12.36v-11.76Z"/>
      <path class="cls-5" d="M0,42.48h3.12v11.4c0,.59-2.57.3-3.12.36v-11.76Z"/>
      <path class="cls-5" d="M0,182.15h3.12v11.4c0,.59-2.57.3-3.12.36v-11.76Z"/>
      <path class="cls-5" d="M0,19.2h3.12v11.4c0,.59-2.57.3-3.12.36v-11.76Z"/>
      <path class="cls-3" d="M65.15,3.52c.51.27,1.11.34,1.67.2.39.07.8.07,1.19.15.05,0,.17.23.35.27,1.78.36,3.56.67,5.28,1.26l-.74,2.94c-1.74-.46-3.63-1.06-5.39-1.39-1.35-.25-4.74-.29-5.68-.73-.71-.33.03-2.42-.01-3.11l3.33.41Z"/>
      <path class="cls-2" d="M66.82,3.73c-.35.36-1.41.23-1.67-.2l1.67.2Z"/>
      <path class="cls-3" d="M51.44,99.43l.29.47c.53-.17,1.11-.28,1.75-.3.57-.02,1.09.03,1.57.14-.09-.14-.16-.26-.21-.34l2.63-.21-.11-3.12c-.15-.14-3.55.23-4.22.17-.45-.04-.35-.4-.41-.43-.27-.12-.96.42-1.49.48-1.02.13-5.2-.04-5.66.3-.32.24-.49,2.86.48,3,1.01.15,4.89-.42,5.36-.15Z"/>
      <path class="cls-4" d="M35.98,96.84l.11,3.12-11.63.41c-.54.02-.65-3.1-.11-3.12l11.63-.41Z"/>
      <path class="cls-3" d="M6.02,99.6c-.34-.12-2.03.74-3.63,1.55.97.52,1.73,1.33,2.26,2.29.21-.09.38-.15.5-.18l3.27,3.55c.15.07,2.3-1.83,2.15-2.3-.29-.9-3.87-3.83-4.55-4.92Z"/>
      <path class="cls-3" d="M15.51,114.61c.72-.19,1.78-2.11,2.42-1.82l7.81,8.69c-.57.45-1.59,1.94-2.24,1.64l-7.99-8.51Z"/>
      <path class="cls-3" d="M48.35,144.8l8.24,8.51c.02.14-1.79,1.86-1.99,1.96-.61.3-7.26-7.64-8.35-8.44l2.11-2.02Z"/>
      <path class="cls-3" d="M69.56,167.97c-.71.12-1.68,1.89-2.32,1.67-.89-1.05-8.02-8.12-7.81-8.69.13-.35,1.78-1.56,2.15-1.97l7.99,8.99Z"/>
      <path class="cls-3" d="M31.8,131.8c.58-.26,1.75-1.88,2.31-1.68.89,1.05,8.02,8.12,7.81,8.69-.06.16-1.85,1.85-2.23,1.63l-7.89-8.64Z"/>
      <path class="cls-3" d="M88.81,89.92l-1.46-2.47,8.66-7.51c.38.39,2.28,1.87,2.05,2.38-.19.41-4.17,3.84-4.87,4.42-.53.44-4.06,3.35-4.38,3.18Z"/>
      <path class="cls-3" d="M80.19,92.54l-11.15,5.04-.94-2.99c3.66-1.04,7.06-2.79,10.38-4.59.47.01,1.19,2.13,1.71,2.53Z"/>
      <path class="cls-3" d="M80.19,92.54l-11.15,5.04-.94-2.99c3.66-1.04,7.06-2.79,10.38-4.59.47.01,1.19,2.13,1.71,2.53Z"/>
      <path class="cls-3" d="M93.52,18.61c-3.12-2.27-6.37-4.42-9.89-6.05.42-.66.82-2.89,1.78-2.59,1.04.33,3.59,1.96,4.67,2.62,1.75,1.07,3.49,2.28,5.09,3.57l-1.65,2.46Z"/>
      <path class="cls-3" d="M108.82,63.18c.28.31-2.15,4.73-2.53,5.4-.53.93-2.63,4.53-3.28,4.98s-1.75-1.38-2.59-1.23l5.64-9.89c.74-.54,1.92.72,2.75.74Z"/>
      <path class="cls-3" d="M112.59,42.38c.65.39-.28,9.81-.51,11.19-.05.33-.01,1.07-.44,1.06-.32,0-2.71-.52-2.75-.68.74-3.74.96-7.59.79-11.39l2.91-.18Z"/>
      <path class="cls-3" d="M104.1,24.28c.7-.03,6.71,8.02,7.4,9.25l-2.27,1.75-7.14-8.84c-.16-.48,1.74-2.15,2.01-2.16Z"/>
    </g>
    <path class="cls-3" d="M16.54,100.6l-12.2.92.14-3.13c3.79.28,7.59-.2,11.32-.76.44.17.39,2.41.74,2.96Z"/>
    <path class="cls-3" d="M77.31,176.81l7.93,8.79c.02.14-1.85,1.79-2.06,1.89-.62.28-6.99-7.89-8.05-8.73l2.18-1.95Z"/>
    <path class="cls-3" d="M100.11,201.15c-.72.09-1.74,1.83-2.38,1.58-.85-1.08-7.73-8.4-7.51-8.95.14-.35,1.83-1.5,2.21-1.89l7.67,9.26Z"/>
    <path class="cls-3" d="M104.27,203.95l7.93,8.79c.02.14-1.85,1.79-2.06,1.89-.62.28-6.99-7.89-8.05-8.73l2.18-1.95Z"/>
  </g>
</svg>