<?xml version="1.0" encoding="UTF-8"?>
<svg id="Layer_2" data-name="Layer 2" xmlns="http://www.w3.org/2000/svg" viewBox="0 0 156.81 213.12">
  <defs>
    <style>
      .cls-1 {
        fill: #272324;
      }

      .cls-2 {
        fill: #272425;
      }

      .cls-3 {
        fill: #939598;
      }

      .cls-4 {
        fill: #262324;
      }
    </style>
  </defs>
  <g id="Layer_1-2" data-name="Layer 1">
    <g>
      <path class="cls-1" d="M152.7,0c-.22,1.17-.75,2.28-1.59,3.12h.19s-1.63,2.52-1.63,2.52c.02.26,2.17,1.58,2.44,1.53.49-.09,4.28-6.2,4.71-7.17h-4.12Z"/>
      <path class="cls-2" d="M6.59,4.11c-.33-.33-.61-.7-.84-1.09-.56-.41-1.1-.86-1.61-1.36-.22-.21-.4-.44-.58-.67H0v.24c.98.68,4.62,6.84,5.19,6.94.22.04,2.15-1.28,2.23-1.59.17-.68-1.25-1.76-1.42-2.47h.59Z"/>
      <path class="cls-3" d="M78.47,212.4c-.43-.09-1.59-.12-2.86-.12-.02.28-.04.56-.07.84h3.28v-.24l-.35-.48Z"/>
      <rect class="cls-4" x="75.93" y="178.32" width="2.88" height="13.68"/>
      <rect class="cls-4" x="75.93" y="151.2" width="2.88" height="13.68"/>
      <rect class="cls-1" x="75.93" y="123.84" width="2.88" height="13.68"/>
      <path class="cls-2" d="M91.05,99.84l-6.72,10.56-2.53-1.68,6.61-10.22c.52-.33,1.9,1.32,2.64,1.34Z"/>
      <path class="cls-2" d="M129.33,36.48l2.52,1.8c-1.1,1.03-6.42,10.23-7.04,10.18-.28-.03-2.35-1.4-2.3-1.74l6.82-10.23Z"/>
      <path class="cls-2" d="M98.01,89.76c-.17.13-2.01-1.14-2.34-1.37-.18-.13-.39.03-.27-.39.82-1.09,6.33-10.31,6.95-10.15.35.09,2.37,1.37,2.11,1.89l-6.45,10.02Z"/>
      <path class="cls-2" d="M138.78,27.81c-.39.23-2.51-1.22-2.58-1.56-.11-.59,5.78-8.55,6.33-9.93.5-.72,2.79,1.12,2.73,1.51l-6.48,9.98Z"/>
      <path class="cls-2" d="M118.17,58.56l-6.6,10.34c-.26.39-2.32-1.07-2.42-1.22-.16-.26-.15-.46.01-.71l6.37-9.85,2.63,1.44Z"/>
      <polygon class="cls-2" points="14.85 16.61 21.84 26.55 19.32 28.34 12.27 18.36 14.08 16.87 14.85 16.61"/>
      <polygon class="cls-2" points="64.32 86.91 62 88.33 61.68 88.25 54.83 78.27 57.35 76.59 64.32 86.91"/>
      <polygon class="cls-2" points="47.53 68.43 40.59 58.44 42.71 56.76 43.31 56.91 50.16 66.63 47.53 68.43"/>
      <path class="cls-2" d="M28.5,36.79c.36-.09.58.03.79.32l6.44,9.18c.22.86-1.53,1.42-2.04,1.96l-7.19-9.81c-.09-.35,1.7-1.58,2-1.66Z"/>
      <path class="cls-2" d="M71.2,96.77l7.27,9.94c-.82.44-2,2.16-2.87,1.2l-6.44-9.18c-.22-.86,1.53-1.42,2.04-1.96Z"/>
      <path class="cls-4" d="M75.93,205.44v4.56h-.31c.05.95.03,1.9-.07,2.88h3.26v-7.44s-2.88,0-2.88,0Z"/>
    </g>
  </g>
</svg>