<?xml version="1.0" encoding="UTF-8"?>
<svg id="Layer_2" data-name="Layer 2" xmlns="http://www.w3.org/2000/svg" viewBox="0 0 163.28 212.77">
  <defs>
    <style>
      .cls-1 {
        fill: #000000;
      }

      .cls-2 {
        fill: #000000;
      }

      .cls-3 {
        fill: #000000;
      }

      .cls-4 {
        fill: #000000;
      }
    </style>
  </defs>
  <g id="Layer_1-2" data-name="Layer 1">
    <g>
      <path class="cls-1" d="M159.45,3.91c1.76.26,3.03,1.19,3.83,2.43V0h-3.36l-.52.28c.04,1.21.05,2.42.05,3.63Z"/>
      <path class="cls-4" d="M114.32,0c-.06.55.23,3.12-.36,3.12h-12.6V0h12.96Z"/>
      <path class="cls-4" d="M139.76,0c-.13.69.35,2.84-.39,3.09-1.74-.24-11.57.47-12.34-.07-.47-.33-.12-2.35-.22-3.02h12.96Z"/>
      <rect class="cls-4" x="25.04" y="0" width="12.72" height="3.12"/>
      <rect class="cls-4" x="50.48" y="0" width="12.72" height="3.12"/>
      <rect class="cls-4" x="75.92" y="0" width="12.72" height="3.12"/>
      <path class="cls-4" d="M4.53,4.76c.89-.74,2.04-1.17,3.22-1.29v-.34h4.2c.59,0,.3-2.57.36-3.12h-7.68c.21,1.13-.02,3.08-.1,4.76Z"/>
      <path class="cls-3" d="M156.8,4.05c.51-.14,1.06-.22,1.67-.22.53,0,1.03.06,1.49.17-.06-1.65-.15-3.38-.03-4h-7.68c.06.55-.23,3.12.36,3.12h4.2v.93Z"/>
      <path class="cls-4" d="M8.78,209.65h-4.32v-.96c-.64.23-1.36.37-2.16.37-.34,0-.65-.03-.96-.07v3.78h7.44s0-3.12,0-3.12Z"/>
      <path class="cls-2" d="M96.07,82.2l2.47,1.84-7.73,9.8c-.37-.45-2.33-1.49-2.23-2.02l7.49-9.62Z"/>
      <path class="cls-2" d="M65.84,121.54c.4.47,2.31,1.47,2.22,2.01-1.01,1.05-7.05,9.71-7.65,9.6-.2-.04-2.32-1.53-2.01-1.99l7.45-9.62Z"/>
      <path class="cls-2" d="M50.5,141.17c.54.5,2.51,1.42,2.27,2.21-.91,1.09-6.94,9.54-7.59,9.43-.17-.03-2.33-1.52-1.96-1.93l7.28-9.7Z"/>
      <path class="cls-2" d="M37.88,162.56l-7.37,9.84c-.76.47-1.76-1.3-2.62-1.38l7.37-9.84c.62-.38,1.91,1.32,2.62,1.39Z"/>
      <path class="cls-2" d="M111.31,62.55c.15-.03,2.51,1.54,2.19,2.02l-7.46,9.63c-.37-.5-2.32-1.48-2.22-2.03.98-1.08,6.89-9.51,7.49-9.63Z"/>
      <path class="cls-2" d="M75.94,113.53c-.29.19-2.24-1.49-2.58-1.84,1.09-1.01,7.08-9.8,7.71-9.78.15,0,2.25,1.61,2.16,1.93l-7.29,9.7Z"/>
      <path class="cls-2" d="M128.75,44.37l-7.24,9.73c-.6.54-2.52-1.11-2.51-1.63.02-.74,6.54-8.07,7.17-9.56.64-.35,1.81,1.39,2.58,1.46Z"/>
      <path class="cls-4" d="M153.97,209.65v3.12h-11.4c-.59,0-.3-2.58-.36-3.12h11.76Z"/>
      <path class="cls-4" d="M32.06,209.65v3.12h-11.4c-.59,0-.3-2.58-.36-3.12h11.76Z"/>
      <path class="cls-4" d="M55.34,209.65v3.12h-11.4c-.59,0-.3-2.58-.36-3.12h11.76Z"/>
      <path class="cls-4" d="M84.13,209.65v3.12h-11.4c-.59,0-.3-2.58-.36-3.12h11.76Z"/>
      <path class="cls-4" d="M107.41,209.65v3.12h-11.4c-.59,0-.3-2.58-.36-3.12h11.76Z"/>
      <path class="cls-4" d="M130.69,209.65v3.12h-11.4c-.59,0-.3-2.58-.36-3.12h11.76Z"/>
    </g>
    <path class="cls-2" d="M139.8,24.8c.15-.03,2.51,1.54,2.19,2.02l-7.46,9.63c-.37-.5-2.32-1.48-2.22-2.03.98-1.08,6.89-9.51,7.49-9.63Z"/>
    <path class="cls-2" d="M157.25,6.63l-7.24,9.73c-.6.54-2.52-1.11-2.51-1.63.02-.74,6.54-8.07,7.17-9.56.64-.35,1.81,1.39,2.58,1.46Z"/>
    <path class="cls-2" d="M7.49,198.04c.15-.03,2.51,1.54,2.19,2.02l-7.46,9.63c-.37-.5-2.32-1.48-2.22-2.03.98-1.08,6.89-9.51,7.49-9.63Z"/>
    <path class="cls-2" d="M24.94,179.87l-7.24,9.73c-.6.54-2.52-1.11-2.51-1.63.02-.74,6.54-8.07,7.17-9.56.64-.35,1.81,1.39,2.58,1.46Z"/>
  </g>
</svg>