<?xml version="1.0" encoding="UTF-8"?>
<svg id="Layer_2" data-name="Layer 2" xmlns="http://www.w3.org/2000/svg" viewBox="0 0 140.38 229.63">
  <defs>
    <style>
      .cls-1, .cls-2 {
        fill: #231f20;
      }

      .cls-2 {
        font-family: LexendDeca-Regular, 'Lexend Deca';
        font-size: 42px;
      }
    </style>
  </defs>
  <g id="Layer_1-2" data-name="Layer 1">
    <path class="cls-1" d="M26.67,25.91l-3.89-2.39C30.83,10.45,45.21,2.24,63.3.39c21.12-2.18,43.04,4.96,56.71,18.17l5.61-4.17,2.09,18.09-16.71-7.23,5.29-3.93C103.53,9.35,83.34,2.91,63.77,4.93c-16.64,1.71-29.82,9.16-37.09,20.98ZM87.99,200l30.4-.1-.02-6.82,15.79,9.06-15.74,9.15-.02-6.83-30.4.1-.02-4.57Z"/>
    <text class="cls-2" transform="translate(0 38.58)"><tspan x="0" y="0">1</tspan></text>
    <text class="cls-2" transform="translate(58.86 213.37)"><tspan x="0" y="0">2</tspan></text>
    <g id="Layer_1-2" data-name="Layer 1-2">
      <g>
        <path class="cls-1" d="M11.36,228.41c-1.57,0-3.01-.88-3.67-2.25l-.24-.5c-.71-1.47-.43-3.18.73-4.36l85.7-87.03c2.91-3.13,6.33-6.91,10.16-11.21,3.74-4.22,7.34-9.01,10.68-14.24,3.33-5.22,6.12-10.75,8.29-16.45,2.14-5.63,3.22-11.58,3.22-17.66,0-7.86-2.39-15.1-7.11-21.51-4.75-6.44-11.35-11.59-19.62-15.29-8.31-3.71-17.88-5.59-28.45-5.59-7.81,0-15.74,1.51-23.57,4.48-7.79,2.96-15.05,8.03-21.59,15.08-6.02,6.49-10.91,15.31-14.55,26.24-.54,1.62-2.09,2.71-3.86,2.71-.6,0-1.17-.12-1.72-.37l-1.12-.51c-1.84-.83-2.76-2.85-2.15-4.7,3.77-11.44,8.96-21,15.43-28.41,6.89-7.9,15.02-13.81,24.15-17.57,9.11-3.75,19.05-5.65,29.56-5.65,11.92,0,22.79,2.19,32.3,6.52,9.54,4.34,17.27,10.36,22.97,17.9,5.74,7.6,8.65,16.47,8.65,26.38,0,5.02-.67,10.07-1.99,14.99-1.32,4.91-3.06,9.63-5.18,14.04-2.11,4.4-4.62,8.77-7.44,12.98-2.83,4.22-5.84,8.19-8.94,11.8-3.11,3.62-6.31,7.09-9.51,10.32L22.33,219.7h112.78c2.24,0,4.05,1.75,4.05,3.91v.88c0,2.16-1.82,3.91-4.05,3.91H11.36Z"/>
        <path class="cls-1" d="M71.65,24.84c11.8,0,22.4,2.14,31.8,6.41s16.9,10.12,22.5,17.53c5.6,7.41,8.4,15.96,8.4,25.65,0,4.94-.65,9.83-1.95,14.68s-3,9.45-5.1,13.82-4.55,8.65-7.35,12.83c-2.8,4.18-5.75,8.08-8.85,11.68-3.1,3.61-6.25,7.03-9.45,10.26L19.42,220.92h-5.07v5.13l5.07-5.13h115.7c1.57,0,2.83,1.21,2.83,2.69v.88c0,1.49-1.27,2.69-2.83,2.69H11.36c-1.11,0-2.11-.61-2.57-1.56l-.24-.5c-.48-.99-.28-2.17.5-2.97l85.7-87.03c3-3.23,6.4-6.98,10.2-11.26,3.8-4.27,7.4-9.07,10.8-14.39s6.2-10.87,8.4-16.67c2.2-5.79,3.3-11.83,3.3-18.1,0-8.17-2.45-15.58-7.35-22.23-4.9-6.65-11.6-11.87-20.1-15.67-8.5-3.8-18.15-5.7-28.95-5.7-8,0-16,1.52-24,4.56-8,3.04-15.35,8.17-22.05,15.39-6.17,6.64-11.1,15.54-14.81,26.68-.39,1.16-1.51,1.88-2.7,1.88-.41,0-.82-.08-1.21-.26l-1.12-.51c-1.27-.57-1.91-1.94-1.49-3.21,3.74-11.34,8.8-20.67,15.19-27.99,6.8-7.79,14.7-13.54,23.7-17.24,9-3.7,18.7-5.56,29.1-5.56M71.65,22.4c-10.67,0-20.77,1.93-30.03,5.74-9.31,3.83-17.59,9.85-24.61,17.89-6.58,7.54-11.85,17.24-15.67,28.84-.81,2.44.4,5.11,2.8,6.2l1.12.51c.7.32,1.45.48,2.22.48,2.29,0,4.31-1.42,5.01-3.54,3.58-10.76,8.38-19.43,14.28-25.79,6.41-6.91,13.52-11.88,21.13-14.77,7.69-2.92,15.47-4.4,23.13-4.4,10.4,0,19.8,1.85,27.96,5.49,8.07,3.61,14.51,8.62,19.13,14.9,4.56,6.19,6.87,13.19,6.87,20.78,0,5.94-1.06,11.74-3.14,17.23-2.13,5.62-4.89,11.08-8.18,16.22-3.31,5.18-6.87,9.92-10.57,14.09-3.87,4.36-7.19,8.02-10.14,11.19L7.31,220.45c-1.5,1.52-1.89,3.83-.96,5.74l.24.5c.87,1.78,2.74,2.94,4.77,2.94h123.75c2.91,0,5.27-2.3,5.27-5.13v-.88c0-2.83-2.36-5.13-5.27-5.13H25.25l78.13-79.07c3.21-3.25,6.43-6.74,9.56-10.38s6.17-7.65,9.03-11.92c2.85-4.26,5.38-8.67,7.52-13.13,2.15-4.47,3.92-9.26,5.26-14.25,1.35-5.03,2.03-10.18,2.03-15.31,0-10.18-2.99-19.31-8.89-27.12-5.82-7.7-13.71-13.85-23.44-18.28-9.67-4.4-20.71-6.63-32.8-6.63h0Z"/>
      </g>
    </g>
  </g>
</svg>