<?xml version="1.0" encoding="UTF-8"?>
<svg id="Layer_2" data-name="Layer 2" xmlns="http://www.w3.org/2000/svg" viewBox="0 0 162.17 240.08">
  <defs>
    <style>
      .cls-1, .cls-2 {
        fill: #231f20;
      }

      .cls-3 {
        fill: #262324;
        stroke: #231f20;
        stroke-miterlimit: 10;
        stroke-width: 2.25px;
      }

      .cls-2 {
        font-family: LexendDeca-Regular, 'Lexend Deca';
        font-size: 42px;
      }
    </style>
  </defs>
  <g id="Layer_1-2" data-name="Layer 1">
    <path class="cls-1" d="M11.22,110.86l6.72,1.18-11.71,13.95L0,108.88l6.71,1.18,12.25-69.51,4.5.8-12.25,69.51ZM93.05,150.4l15.8,9.06-15.74,9.15-.02-6.83-30.41.1-.02-4.57,30.4-.1-.02-6.82Z"/>
    <text class="cls-2" transform="translate(9.94 35.7)"><tspan x="0" y="0">1</tspan></text>
    <text class="cls-2" transform="translate(33.46 174.98)"><tspan x="0" y="0">2</tspan></text>
    <path class="cls-3" d="M149.53,64.64c-.05.06-.03.19.08.28.32.25.9.45,1.33.8,3.31,2.73,3.48,8.09.81,11.32-3.26,3.96-9.63,3.53-12.95-.13-.46-.51-2.24-2.55-.91-2.94.97-.29,1.59,1.28,2.19,1.93,1.18,1.28,2.91,2.2,4.66,2.35,8.86.79,9.82-11.92,1.59-12.66-.54-.05-2.49.18-2.75-.23-1.18-1.87,2.78-1.32,3.55-1.43,2.13-.29,4.07-2.35,4.28-4.48.65-6.44-6.89-9.01-10.78-4.18-.38.47-1.3,2.38-1.58,2.47-.52.16-1.11-.15-1.11-.72,0-.19.79-1.73.96-2,2.42-3.86,8.21-5.09,11.71-1.91,2.92,2.65,3.26,7.94.27,10.65-.27.24-1.3.82-1.35.88Z"/>
    <polygon class="cls-1" points="147.79 181.09 154.61 181.25 145.23 201.54 136.4 180.84 143.22 180.99 144.45 89.25 149.02 89.36 147.79 181.09"/>
    <g id="Layer_1-2" data-name="Layer 1-2">
      <g>
        <path class="cls-1" d="M127.84,155.71c-1.87-.03-3.73-.06-5.6-.08-.88,0-1.58-.72-1.58-1.6v-16.3H26.68c-.52,0-1-.25-1.31-.67-.3-.42-.38-.97-.2-1.46.86-2.44,1.44-4.48,1.84-6.4.15-.74.81-1.27,1.57-1.27h92.09V34.4c0-2.43,1.97-4.4,4.4-4.4.11,0,.21,0,.32,0,2.33.17,4.09,2.06,4.09,4.3v93.62h26.68c2.45,0,4.43,1.99,4.43,4.43v.93c0,2.45-1.99,4.43-4.43,4.43h-26.68v16.38c0,.43-.17.84-.48,1.14-.3.29-.7.46-1.12.46h-.04Z"/>
        <path class="cls-1" d="M125.06,31.6h.3c1.41.11,2.51,1.29,2.51,2.71v95.22h28.28c1.57,0,2.83,1.27,2.83,2.83v.93c0,1.57-1.27,2.83-2.83,2.83h-28.28v17.98c-1.87-.03-3.74-.06-5.61-.08v-17.9H26.68c.76-2.17,1.43-4.36,1.9-6.6h93.69V34.4c0-1.56,1.27-2.8,2.8-2.8M125.06,28.4h0c-1.6,0-3.1.62-4.23,1.75-1.14,1.13-1.77,2.65-1.77,4.25v91.93H28.57c-1.52,0-2.82,1.06-3.13,2.55-.39,1.85-.95,3.82-1.79,6.19-.34.98-.19,2.06.41,2.91.6.85,1.57,1.35,2.61,1.35h92.38v14.7c0,1.75,1.41,3.18,3.16,3.2,1.86.02,3.72.05,5.59.08h.06c.84,0,1.64-.33,2.24-.92.61-.6.96-1.42.96-2.28v-14.78h25.08c3.33,0,6.03-2.71,6.03-6.03v-.93c0-3.33-2.71-6.03-6.03-6.03h-25.08V34.31c0-3.08-2.41-5.67-5.48-5.89h-.09c-.14-.02-.28-.02-.43-.02h0Z"/>
      </g>
      <g>
        <path class="cls-1" d="M26.14,136.44c-.33,0-.66-.04-.98-.12l-.93-.23c-2.03-.5-3.37-2.53-3.04-4.6l15.51-97.91c.3-1.91,1.93-3.35,3.87-3.44l1.12-.04c1.19,0,2.32.52,3.1,1.43s1.12,2.11.93,3.3l-15.55,98.17c-.32,2-2.01,3.45-4.03,3.45h0Z"/>
        <path class="cls-1" d="M41.69,31.34c1.73,0,3.07,1.56,2.8,3.28l-15.55,98.17c-.22,1.41-1.44,2.39-2.79,2.39-.22,0-.45-.03-.68-.08-.31-.08-.62-.15-.92-.23-1.43-.35-2.34-1.74-2.11-3.2l15.49-97.89c.21-1.34,1.34-2.33,2.69-2.39.32,0,.63-.03.95-.04h.11M41.69,28.84h-.21c-.32,0-.64.03-.96.04-2.53.12-4.65,2.01-5.04,4.5l-15.52,97.92c-.44,2.76,1.27,5.34,3.98,6.01l.93.23c.42.1.85.16,1.28.16,2.64,0,4.85-1.89,5.26-4.5l15.54-98.18c.24-1.54-.2-3.11-1.21-4.3-1.02-1.19-2.49-1.87-4.05-1.87h0Z"/>
      </g>
      <g>
        <path class="cls-1" d="M124.93,238.83c-2.25,0-4.08-1.83-4.08-4.08v-70.98c0-.07,0-.14.02-.21.06-.33.08-.65.08-.98-.02-2.48-.15-5.03-.27-7.5-.06-1.22-.12-2.44-.17-3.66-.01-.31.09-.61.28-.84l.94-1.14c.24-.29.59-.46.97-.46h6c.69,0,1.25.56,1.25,1.25v84.46c0,2.15-1.68,3.94-3.83,4.07l-.87.05c-.15,0-.24,0-.32,0h0Z"/>
        <path class="cls-1" d="M128.7,150.23v84.46c0,1.5-1.16,2.73-2.66,2.83-.31.02-.62.04-.93.06h-.18c-1.55,0-2.83-1.26-2.83-2.83v-70.98c.07-.38.1-.78.1-1.2-.04-3.71-.29-7.45-.44-11.2l.94-1.14h6M128.7,147.73h-6c-.75,0-1.46.33-1.93.91l-.94,1.14c-.39.47-.59,1.07-.57,1.69.05,1.22.11,2.44.17,3.66.12,2.46.24,5,.27,7.46,0,.25-.02.49-.06.76-.02.14-.04.28-.04.42v70.98c0,2.94,2.39,5.33,5.33,5.33.11,0,.22,0,.34,0l.93-.06c2.8-.17,5-2.51,5-5.32v-84.46c0-1.38-1.12-2.5-2.5-2.5h0Z"/>
      </g>
    </g>
  </g>
</svg>