<?xml version="1.0" encoding="UTF-8"?>
<svg id="Layer_2" data-name="Layer 2" xmlns="http://www.w3.org/2000/svg" viewBox="0 0 136.12 230.78">
  <defs>
    <style>
      .cls-1, .cls-2 {
        fill: #231f20;
      }

      .cls-2 {
        font-family: LexendDeca-Regular, 'Lexend Deca';
        font-size: 42px;
      }
    </style>
  </defs>
  <g id="Layer_1-2" data-name="Layer 1">
    <path class="cls-1" d="M17.52,99.31l-13.07,12.68L0,94.34l6.58,1.87c14-39.81,43.42-59.66,44.69-60.5l2.51,3.81c-.3.2-29.26,19.79-42.8,57.95l6.53,1.85Z"/>
    <text class="cls-2" transform="translate(53.79 35.7)"><tspan x="0" y="0">1</tspan></text>
    <g id="Layer_1-2" data-name="Layer 1-2">
      <g>
        <path class="cls-1" d="M71.04,229.58c-3.2,0-6.5-.27-9.8-.79-8.49-1.34-16.27-4.4-23.12-9.08-6.84-4.67-12.68-10.64-17.37-17.75-4.69-7.12-7.98-15.35-9.76-24.48-1.78-9.11-1.84-19.02-.19-29.46.57-4.54,1.54-9.36,2.87-14.29.05-.17.13-.32.24-.45.3-.35.54-.73.74-1.16,2.89-6.21,6.92-12.44,12.33-19.06.23-.28.57-.43.9-.43.22,0,.45.06.65.2.5.33.66,1,.38,1.53,0,0-.29.54-.35.64,1.56-1.81,3.15-3.5,4.76-5.06,4.91-4.79,10.11-8.65,15.45-11.49,5.36-2.85,10.98-4.74,16.69-5.64,2.82-.44,5.68-.67,8.52-.67s5.86.24,8.79.7c11.54,1.83,21.64,6.51,30,13.92,8.34,7.4,14.53,16.8,18.39,27.95,3.86,11.15,4.79,23.28,2.77,36.06-1.99,12.59-6.6,23.69-13.71,33.01s-15.9,16.35-26.12,20.9c-7.32,3.25-15.08,4.91-23.07,4.91h.01ZM73.79,100.91c-6.96,0-13.72,1.47-20.09,4.37-8.91,4.05-16.57,10.28-22.77,18.5s-10.23,18-11.98,29.07c-1.75,11.06-.93,21.51,2.46,31.05,3.38,9.55,8.76,17.69,16,24.2,7.21,6.49,15.96,10.59,25.99,12.18,2.71.43,5.42.65,8.05.65,6.79,0,13.44-1.45,19.76-4.3,8.8-3.97,16.36-10.15,22.47-18.39,6.12-8.25,10.1-18.04,11.86-29.1,1.75-11.06.98-21.56-2.3-31.19-3.28-9.62-8.57-17.8-15.71-24.29-7.13-6.47-15.65-10.53-25.32-12.07-2.84-.45-5.67-.68-8.41-.68h0Z"/>
        <path class="cls-1" d="M73.98,93.3c2.86,0,5.72.23,8.6.68,11.38,1.8,21.18,6.35,29.41,13.64,8.23,7.3,14.25,16.45,18.07,27.46,3.81,11.02,4.72,22.84,2.72,35.49-1.97,12.46-6.47,23.28-13.48,32.48-7.02,9.2-15.57,16.05-25.67,20.54-7.21,3.2-14.74,4.81-22.59,4.81-3.15,0-6.36-.26-9.62-.77-8.36-1.32-15.91-4.29-22.65-8.89-6.75-4.6-12.43-10.41-17.06-17.43-4.63-7.02-7.83-15.04-9.58-24.06-1.76-9.02-1.82-18.7-.18-29.05.58-4.64,1.55-9.37,2.85-14.17.34-.4.65-.87.91-1.43,3.19-6.85,7.44-13.01,12.18-18.81-.31.58-.63,1.16-.92,1.72-1.54,2.99-2.74,5.66-3.61,8.04,3.45-4.87,7.04-9.14,10.79-12.8,4.85-4.73,9.91-8.49,15.18-11.3,5.27-2.8,10.71-4.64,16.32-5.52,2.77-.43,5.55-.65,8.34-.65M71.45,222.1c6.99,0,13.74-1.47,20.24-4.4,9.02-4.07,16.67-10.32,22.93-18.76s10.28-18.31,12.07-29.61,1.01-21.89-2.35-31.75-8.71-18.12-16.03-24.78c-7.33-6.66-15.97-10.78-25.93-12.36-2.91-.46-5.78-.69-8.59-.69-7.16,0-14.02,1.49-20.57,4.47-9.13,4.15-16.87,10.44-23.22,18.86-6.35,8.42-10.41,18.29-12.2,29.59-1.79,11.31-.96,21.85,2.51,31.63,3.46,9.78,8.9,18.01,16.32,24.68,7.42,6.68,16.28,10.83,26.59,12.46,2.78.44,5.52.66,8.23.66M73.98,90.97c-2.9,0-5.83.23-8.7.68-5.84.92-11.58,2.85-17.05,5.76-5.44,2.89-10.73,6.82-15.72,11.69-1,.97-1.99,1.99-2.97,3.06-.11-.11-.23-.21-.36-.29-.4-.27-.85-.4-1.3-.4-.68,0-1.35.3-1.81.86-5.47,6.69-9.56,13.01-12.49,19.31-.16.34-.34.63-.57.9-.22.26-.39.57-.48.91-1.35,4.97-2.33,9.83-2.91,14.45-1.67,10.56-1.6,20.6.2,29.83,1.81,9.27,5.15,17.65,9.93,24.9,4.77,7.24,10.73,13.32,17.69,18.08,7,4.78,14.94,7.9,23.6,9.27,3.36.53,6.72.8,9.98.8,8.15,0,16.07-1.68,23.54-5.01,10.4-4.63,19.35-11.78,26.58-21.25,7.22-9.47,11.91-20.75,13.93-33.53,2.05-12.96,1.11-25.29-2.82-36.62-3.93-11.35-10.23-20.92-18.72-28.45-8.54-7.56-18.83-12.34-30.6-14.2-2.99-.47-6-.71-8.97-.71h0l.02-.04ZM71.45,219.77c-2.57,0-5.22-.21-7.87-.63-9.81-1.55-18.36-5.55-25.4-11.89-7.09-6.38-12.37-14.36-15.68-23.72-3.32-9.36-4.12-19.61-2.4-30.48,1.72-10.88,5.68-20.48,11.76-28.55,6.08-8.07,13.59-14.17,22.32-18.14,6.22-2.83,12.81-4.26,19.61-4.26,2.68,0,5.45.22,8.23.66,9.45,1.5,17.76,5.46,24.72,11.78,7,6.36,12.18,14.37,15.39,23.81,3.22,9.45,3.98,19.76,2.26,30.63-1.72,10.88-5.64,20.49-11.64,28.59-5.99,8.08-13.4,14.14-22.01,18.02-6.17,2.78-12.66,4.19-19.28,4.19h0Z"/>
      </g>
      <path class="cls-1" d="M11.76,138.3c4.05-1.89,8.16-3.64,12.18-5.59.34-.17.7-.33,1.05-.5.49-2.42,1.12-4.76,1.99-6.96-.23.22-.46.43-.69.65,5.91-16.44,15.22-32.42,26.16-46.05,13.96-17.38,30.61-31.44,48.16-40.66,2.79-1.47,3.87-4.92,2.4-7.71s-4.92-3.87-7.71-2.4c-18.93,9.94-36.82,25.02-51.76,43.62-15.33,19.11-27.59,42.56-32.78,66.1.33-.17.66-.34,1-.49h0Z"/>
    </g>
  </g>
</svg>