<?xml version="1.0" encoding="UTF-8"?>
<svg id="Layer_2" data-name="Layer 2" xmlns="http://www.w3.org/2000/svg" viewBox="0 0 159.74 250.87">
  <defs>
    <style>
      .cls-1, .cls-2 {
        fill: #231f20;
      }

      .cls-2 {
        font-family: LexendDeca-Regular, 'Lexend Deca';
        font-size: 42px;
      }
    </style>
  </defs>
  <g id="Layer_1-2" data-name="Layer 1">
    <path class="cls-1" d="M19.31,23.14l93.07-.13v-6.83s15.77,9.08,15.77,9.08l-15.75,9.13v-6.82s-93.07.13-93.07.13v-4.57ZM150,61.37l-82.37,176.18,6.18,2.89-14.93,10.43-1.57-18.14,6.19,2.89L145.87,59.44l4.13,1.93Z"/>
    <text class="cls-2" transform="translate(0 35.7)"><tspan x="0" y="0">1</tspan></text>
    <text class="cls-2" transform="translate(136.72 52.1)"><tspan x="0" y="0">2</tspan></text>
    <g id="Layer_1-2" data-name="Layer 1-2">
      <g>
        <path class="cls-1" d="M36.26,247c-1.42,0-2.72-.7-3.47-1.88-.72-1.12-.81-2.52-.25-3.73L120.34,51.74H5.33c-2.25,0-4.08-1.78-4.08-3.97v-.89c0-2.19,1.83-3.97,4.08-3.97h118.2c1.24,0,2.4.54,3.17,1.47l2.87,3.45c.97,1.17,1.19,2.75.55,4.12L41.28,244.65c-.66,1.42-2.12,2.35-3.73,2.35h-1.29Z"/>
        <path class="cls-1" d="M123.54,44.15c.86,0,1.68.38,2.21,1.02l2.87,3.45c.66.79.81,1.87.38,2.8L40.15,244.13c-.45.98-1.47,1.62-2.59,1.62h-1.29c-2.05,0-3.42-2.03-2.59-3.83L122.3,50.49h4.4l-2.4-4.32-2,4.32H5.33c-1.57,0-2.83-1.22-2.83-2.72v-.89c0-1.5,1.27-2.72,2.83-2.72h118.2M123.54,41.65H5.33C2.39,41.65,0,43.99,0,46.87v.89C0,50.64,2.39,52.98,5.33,52.98h113.05L31.4,240.87c-.74,1.6-.61,3.44.34,4.92.98,1.54,2.67,2.45,4.52,2.45h1.29c2.09,0,4-1.21,4.86-3.07L131.27,52.47c.84-1.82.56-3.9-.73-5.45l-2.87-3.45c-1.02-1.22-2.52-1.92-4.13-1.92h0Z"/>
      </g>
    </g>
  </g>
</svg>