<?xml version="1.0" encoding="UTF-8"?>
<svg id="Layer_2" data-name="Layer 2" xmlns="http://www.w3.org/2000/svg" viewBox="0 0 128.8 208.23">
  <defs>
    <style>
      .cls-1 {
        fill: #231f20;
      }
    </style>
  </defs>
  <g id="Layer_1-2" data-name="Layer 1">
    <g>
      <path class="cls-1" d="M64.4,206.98c-13.68,0-25.37-3.99-34.75-11.87-9.34-7.83-16.5-19.57-21.26-34.88-4.73-15.19-7.13-34.07-7.13-56.12s2.4-40.92,7.13-56.12c4.77-15.31,11.92-27.04,21.26-34.88C39.03,5.24,50.73,1.25,64.4,1.25s25.36,3.99,34.75,11.86c9.34,7.84,16.49,19.57,21.26,34.88,4.74,15.21,7.14,34.09,7.14,56.12s-2.4,40.92-7.14,56.12c-4.77,15.31-11.92,27.05-21.26,34.88-9.38,7.87-21.08,11.87-34.75,11.87ZM64.4,9.96c-17.52,0-31.2,8.1-40.67,24.09-9.6,16.19-14.46,39.77-14.46,70.07s4.87,53.88,14.46,70.07c9.47,15.98,23.15,24.09,40.67,24.09s31.4-8.1,40.79-24.08c9.52-16.2,14.34-39.77,14.34-70.07s-4.83-53.88-14.34-70.08c-9.39-15.98-23.12-24.08-40.79-24.08Z"/>
      <path class="cls-1" d="M64.4,2.5c13.44,0,24.75,3.86,33.95,11.57,9.2,7.72,16.15,19.15,20.87,34.3,4.72,15.15,7.08,33.73,7.08,55.75s-2.36,40.6-7.08,55.75c-4.72,15.15-11.68,26.58-20.87,34.3-9.2,7.72-20.51,11.57-33.95,11.57s-24.75-3.85-33.95-11.57c-9.2-7.71-16.16-19.15-20.87-34.3-4.72-15.15-7.08-33.73-7.08-55.75s2.36-40.6,7.08-55.75c4.72-15.15,11.67-26.58,20.87-34.3,9.2-7.71,20.51-11.57,33.95-11.57M64.4,199.53c18.23,0,32.19-8.23,41.87-24.7,9.68-16.46,14.52-40.03,14.52-70.71s-4.84-54.24-14.52-70.71c-9.68-16.46-23.63-24.7-41.87-24.7s-31.99,8.23-41.75,24.7c-9.76,16.47-14.64,40.04-14.64,70.71s4.88,54.24,14.64,70.71c9.75,16.47,23.67,24.7,41.75,24.7M64.4,0c-13.98,0-25.94,4.09-35.56,12.16-9.53,8-16.82,19.93-21.65,35.47C2.42,62.94,0,81.95,0,104.12s2.42,41.18,7.19,56.49c4.84,15.54,12.12,27.48,21.65,35.47,9.61,8.07,21.57,12.16,35.56,12.16s25.94-4.09,35.56-12.16c9.53-7.99,16.81-19.93,21.65-35.47,4.77-15.32,7.19-34.33,7.19-56.49s-2.42-41.17-7.19-56.49c-4.84-15.54-12.13-27.47-21.65-35.47C90.34,4.09,78.38,0,64.4,0h0ZM64.4,197.03c-17.29,0-30.24-7.68-39.6-23.47-9.48-15.99-14.29-39.36-14.29-69.43s4.81-53.44,14.29-69.43c9.36-15.79,22.31-23.47,39.6-23.47s30.43,7.68,39.71,23.47c9.4,16.01,14.17,39.37,14.17,69.44s-4.77,53.44-14.17,69.44c-9.28,15.79-22.27,23.47-39.71,23.47h0Z"/>
    </g>
  </g>
</svg>