<?xml version="1.0" encoding="UTF-8"?>
<svg id="Layer_2" data-name="Layer 2" xmlns="http://www.w3.org/2000/svg" viewBox="0 0 142.29 211.68">
  <defs>
    <style>
      .cls-1 {
        fill: #231f20;
      }
    </style>
  </defs>
  <g id="Layer_1-2" data-name="Layer 1">
    <g>
      <path class="cls-1" d="M107.95,127.31c-1.87-.03-3.73-.06-5.6-.08-.88,0-1.58-.72-1.58-1.6v-16.3H6.79c-.52,0-1-.25-1.31-.67-.3-.42-.38-.97-.2-1.46.86-2.44,1.44-4.48,1.84-6.4.15-.74.81-1.27,1.57-1.27h92.09V6c0-2.43,1.97-4.4,4.4-4.4.11,0,.21,0,.32.01,2.33.17,4.09,2.06,4.09,4.3v93.62h26.68c2.45,0,4.43,1.99,4.43,4.43v.93c0,2.45-1.99,4.43-4.43,4.43h-26.68v16.38c0,.43-.17.84-.48,1.14-.3.29-.7.46-1.12.46h-.03Z"/>
      <path class="cls-1" d="M105.17,3.2c.07,0,.14,0,.21,0h.09c1.41.11,2.51,1.29,2.51,2.71v95.22h28.28c1.57,0,2.83,1.27,2.83,2.83v.93c0,1.57-1.27,2.83-2.83,2.83h-28.28v17.98c-1.87-.03-3.74-.06-5.61-.08v-17.9H6.79c.76-2.17,1.43-4.36,1.9-6.6h93.69V6c0-1.56,1.27-2.8,2.8-2.8M105.17,0h0c-1.6,0-3.1.62-4.23,1.75-1.14,1.13-1.77,2.65-1.77,4.25v91.93H8.68c-1.52,0-2.82,1.06-3.13,2.55-.39,1.85-.95,3.82-1.79,6.19-.34.98-.19,2.06.41,2.91.6.85,1.57,1.35,2.61,1.35h92.38v14.7c0,1.75,1.41,3.18,3.16,3.2,1.86.02,3.72.05,5.59.08.02,0,.04,0,.06,0,.84,0,1.64-.33,2.24-.92.61-.6.96-1.42.96-2.28v-14.78h25.08c3.33,0,6.03-2.71,6.03-6.03v-.93c0-3.33-2.71-6.03-6.03-6.03h-25.08V5.91c0-3.08-2.41-5.67-5.48-5.89h-.09C105.46,0,105.32,0,105.17,0h0Z"/>
    </g>
    <g>
      <path class="cls-1" d="M6.25,108.04c-.33,0-.66-.04-.98-.12l-.93-.23c-2.03-.5-3.37-2.53-3.04-4.6L16.81,5.18c.3-1.91,1.93-3.35,3.87-3.44l1.12-.04c1.19,0,2.32.52,3.1,1.43.78.91,1.12,2.11.93,3.3l-15.55,98.17c-.32,2-2.01,3.45-4.03,3.45h0Z"/>
      <path class="cls-1" d="M21.8,2.94c1.73,0,3.07,1.56,2.8,3.28l-15.55,98.17c-.22,1.41-1.44,2.39-2.79,2.39-.22,0-.45-.03-.68-.08-.31-.08-.62-.15-.92-.23-1.43-.35-2.34-1.74-2.11-3.2L18.04,5.38c.21-1.34,1.34-2.33,2.69-2.39.32-.01.63-.03.95-.04.04,0,.08,0,.11,0M21.8.44c-.07,0-.14,0-.21,0-.32.01-.64.03-.96.04-2.53.12-4.65,2.01-5.04,4.5L.07,102.9c-.44,2.76,1.27,5.34,3.98,6.01l.93.23c.42.1.85.16,1.28.16,2.64,0,4.85-1.89,5.26-4.5L27.06,6.62c.24-1.54-.2-3.11-1.21-4.3-1.02-1.19-2.49-1.87-4.05-1.87h0Z"/>
    </g>
    <g>
      <path class="cls-1" d="M105.04,210.43c-2.25,0-4.08-1.83-4.08-4.08v-70.98c0-.07,0-.14.02-.21.06-.33.08-.65.08-.98-.02-2.48-.15-5.03-.27-7.5-.06-1.22-.12-2.44-.17-3.66-.01-.31.09-.61.28-.84l.94-1.14c.24-.29.59-.46.97-.46h6c.69,0,1.25.56,1.25,1.25v84.46c0,2.15-1.68,3.94-3.83,4.07l-.87.05c-.15,0-.24.01-.32.01h0Z"/>
      <path class="cls-1" d="M108.81,121.83v84.46c0,1.5-1.16,2.73-2.66,2.83-.31.02-.62.04-.93.06-.06,0-.12,0-.18,0-1.55,0-2.83-1.26-2.83-2.83v-70.98c.07-.38.1-.78.1-1.2-.04-3.71-.29-7.45-.44-11.2l.94-1.14h6M108.81,119.33h-6c-.75,0-1.46.33-1.93.91l-.94,1.14c-.39.47-.59,1.07-.57,1.69.05,1.22.11,2.44.17,3.66.12,2.46.24,5,.27,7.46,0,.25-.02.49-.06.76-.02.14-.04.28-.04.42v70.98c0,2.94,2.39,5.33,5.33,5.33.11,0,.22,0,.34-.01l.93-.06c2.8-.17,5-2.51,5-5.32v-84.46c0-1.38-1.12-2.5-2.5-2.5h0Z"/>
    </g>
  </g>
</svg>