<?xml version="1.0" encoding="UTF-8"?>
<svg id="Layer_2" data-name="Layer 2" xmlns="http://www.w3.org/2000/svg" viewBox="0 0 139.08 209.28">
  <defs>
    <style>
      .cls-1 {
        fill: #231f20;
      }
    </style>
  </defs>
  <g id="Layer_1-2" data-name="Layer 1">
    <g>
      <path class="cls-1" d="M64.4,208.08c-13.41,0-25.67-3.21-36.46-9.53-10.17-5.95-18.95-14.4-26.08-25.11-1.05-1.58-.81-3.68.58-5l1.39-1.31c.73-.69,1.68-1.07,2.69-1.07,1.35,0,2.59.68,3.31,1.82,6.31,9.91,14.25,17.59,23.62,22.83,10.23,5.73,20.74,8.63,31.24,8.63,12.02,0,23-2.9,32.65-8.62,9.66-5.72,17.42-13.52,23.05-23.19,5.62-9.66,8.48-20.55,8.48-32.37,0-10.3-2.51-19.93-7.47-28.64-4.96-8.7-11.84-15.72-20.45-20.88-8.61-5.14-18.57-7.75-29.62-7.75-6.77,0-13.73,1-20.7,2.98-6.98,1.98-13.78,4.76-20.2,8.25-5.52,3.01-10.47,6.36-14.72,9.98-.7.6-1.6.93-2.52.93-1.19,0-2.3-.53-3.04-1.45l-1.21-1.49c-.69-.84-.99-1.95-.84-3.03L21.16,2.23c.08-.59.59-1.03,1.19-1.03h105.57c2.16,0,3.92,1.76,3.92,3.92v.89c0,2.16-1.76,3.92-3.92,3.92H28.66l-10.93,77.26c3.84-2.68,7.86-5.16,11.97-7.37,6.29-3.38,13.01-6.04,19.99-7.88,6.99-1.84,14.36-2.78,21.91-2.78,12.44,0,23.78,2.86,33.71,8.51,9.93,5.65,17.93,13.55,23.77,23.47,5.84,9.93,8.81,21.57,8.81,34.59s-3.25,26.01-9.67,36.9c-6.41,10.89-15.28,19.61-26.36,25.92-11.07,6.32-23.68,9.52-37.46,9.52Z"/>
      <path class="cls-1" d="M127.91,2.4c1.5,0,2.72,1.22,2.72,2.72v.89c0,1.5-1.22,2.72-2.72,2.72H27.62l.49-3.46-4.32,3.46h3.83l-11.47,81.07c-1.21.89-2.41,1.8-3.59,2.74l2.88,2.3.71-5.05c4.5-3.3,9.2-6.27,14.12-8.92,6.24-3.36,12.82-5.95,19.73-7.78,6.91-1.82,14.11-2.74,21.6-2.74,12.29,0,23.33,2.79,33.12,8.35,9.79,5.57,17.57,13.25,23.33,23.04,5.76,9.79,8.64,21.12,8.64,33.98s-3.17,25.54-9.5,36.29c-6.34,10.76-14.98,19.25-25.92,25.49-10.94,6.24-23.23,9.36-36.86,9.36s-25.2-3.12-35.86-9.36c-10.06-5.89-18.63-14.14-25.69-24.74-.73-1.09-.54-2.56.41-3.46l1.39-1.31c.53-.5,1.2-.74,1.86-.74.89,0,1.78.44,2.3,1.26,6.44,10.12,14.46,17.87,24.05,23.23,10.46,5.86,21.07,8.78,31.82,8.78,12.29,0,23.37-2.92,33.26-8.78,9.89-5.85,17.71-13.72,23.47-23.62,5.76-9.89,8.64-20.88,8.64-32.98,0-10.56-2.55-20.3-7.63-29.23-5.09-8.93-12.05-16.03-20.88-21.31-8.83-5.28-18.91-7.92-30.24-7.92-6.91,0-13.92,1.01-21.02,3.02-7.11,2.02-13.92,4.8-20.45,8.35-5.61,3.06-10.59,6.43-14.92,10.12-.51.43-1.13.64-1.74.64-.79,0-1.57-.34-2.11-1.01l-1.21-1.49c-.48-.59-.69-1.35-.58-2.1L22.35,2.4h105.57M127.91,0H22.35c-1.19,0-2.21.88-2.38,2.06L6.89,93.91c-.2,1.41.2,2.85,1.1,3.95l1.21,1.49c.98,1.2,2.43,1.89,3.98,1.89,1.21,0,2.38-.43,3.3-1.22,4.18-3.56,9.06-6.87,14.51-9.84,6.35-3.45,13.06-6.19,19.96-8.15,6.86-1.95,13.71-2.93,20.37-2.93,10.83,0,20.59,2.55,29.01,7.58,8.43,5.05,15.17,11.92,20.03,20.44,4.85,8.52,7.32,17.96,7.32,28.04,0,11.61-2.8,22.3-8.31,31.77-5.52,9.48-13.13,17.14-22.62,22.76-9.46,5.61-20.24,8.45-32.04,8.45-10.29,0-20.61-2.85-30.65-8.48-9.19-5.14-17-12.69-23.2-22.43-.95-1.49-2.56-2.38-4.33-2.38-1.31,0-2.56.5-3.51,1.4l-1.39,1.31c-1.82,1.72-2.13,4.47-.76,6.54,7.24,10.86,16.14,19.43,26.48,25.48,10.97,6.43,23.45,9.69,37.07,9.69s26.8-3.26,38.05-9.68c11.26-6.42,20.28-15.28,26.8-26.35,6.53-11.08,9.84-23.7,9.84-37.51s-3.02-25.08-8.97-35.2c-5.95-10.11-14.09-18.15-24.21-23.91-10.11-5.75-21.66-8.67-34.31-8.67-7.65,0-15.12.95-22.21,2.82-7.07,1.87-13.88,4.56-20.25,7.98-3.36,1.81-6.65,3.78-9.83,5.9L29.71,11.14h98.21c2.82,0,5.12-2.3,5.12-5.12v-.89c0-2.82-2.3-5.12-5.12-5.12h0Z"/>
    </g>
  </g>
</svg>