<?xml version="1.0" encoding="UTF-8"?>
<svg id="Layer_2" data-name="Layer 2" xmlns="http://www.w3.org/2000/svg" viewBox="0 0 131.75 206.6">
  <defs>
    <style>
      .cls-1 {
        fill: #231f20;
      }
    </style>
  </defs>
  <g id="Layer_1-2" data-name="Layer 1">
    <g>
      <path class="cls-1" d="M36.26,205.35c-1.42,0-2.72-.7-3.47-1.88-.72-1.12-.81-2.52-.25-3.73L120.34,10.09H5.33c-2.25,0-4.08-1.78-4.08-3.97v-.89c0-2.19,1.83-3.97,4.08-3.97h118.2c1.24,0,2.4.54,3.17,1.47l2.87,3.45c.97,1.17,1.19,2.75.55,4.12L41.28,203c-.66,1.42-2.12,2.35-3.73,2.35h-1.29Z"/>
      <path class="cls-1" d="M123.54,2.5c.86,0,1.68.38,2.21,1.02l2.87,3.45c.66.79.81,1.87.38,2.8L40.15,202.48c-.45.98-1.47,1.62-2.59,1.62h-1.29c-2.05,0-3.42-2.03-2.59-3.83L122.3,8.84h4.4l-2.4-4.32-2,4.32H5.33c-1.57,0-2.83-1.22-2.83-2.72v-.89c0-1.5,1.27-2.72,2.83-2.72h118.2M123.54,0H5.33C2.39,0,0,2.34,0,5.22v.89c0,2.88,2.39,5.22,5.33,5.22h113.05L31.4,199.22c-.74,1.6-.61,3.44.34,4.92.98,1.54,2.67,2.45,4.52,2.45h1.29c2.09,0,4-1.21,4.86-3.07L131.27,10.82c.84-1.82.56-3.9-.73-5.45l-2.87-3.45c-1.02-1.22-2.52-1.92-4.13-1.92h0Z"/>
    </g>
  </g>
</svg>