<?xml version="1.0" encoding="UTF-8"?>
<svg id="Layer_2" data-name="Layer 2" xmlns="http://www.w3.org/2000/svg" viewBox="0 0 120.73 185.85">
  <defs>
    <style>
      .cls-1 {
        fill: #231f20;
      }
    </style>
  </defs>
  <g id="Layer_1-2" data-name="Layer 1">
    <path class="cls-1" d="M106.63.01h1.5c3.9.3,8.4,2.1,12.6,1.2-10.8,11.4-45.9,60.3-66,100.2-15.3,30.3-28.2,72.6-7.8,76.8,6.9,1.5,15.3-4.5,25.8-17.1,8.4-9.9,17.4-25.2,22.5-37.2,7.8-19.8,7.5-39-11.4-37.2-9,.9-9.3-8.1,4.2-6,21.9,3.3,27.9,23.1,24,42.3-5.4,25.2-23.7,53.7-48.9,60.3-34.2,9.3-46.8-8.4-41.4-30,2.4-9.3,7.2-20.7,13.2-33-13.8,26.1-25.8,47.7-31.8,53.4-2.4,2.1-4.2-1.2-2.4-3.9C21.13,142.82,60.73,53.11,86.53,14.71,93.73,4.21,100.03-.29,106.63.01Z"/>
  </g>
</svg>