<?xml version="1.0" encoding="UTF-8"?>
<svg id="Layer_2" data-name="Layer 2" xmlns="http://www.w3.org/2000/svg" viewBox="0 0 157.74 187.95">
  <defs>
    <style>
      .cls-1 {
        fill: #231f20;
      }
    </style>
  </defs>
  <g id="Layer_1-2" data-name="Layer 1">
    <path class="cls-1" d="M78.54,148.05c-3,6.9-12.3,32.1,1.8,32.1,15,0,32.4-37.2,38.7-49.8,2.4-5.4,7.2-4.2,4.5,1.8-7.2,16.8-24.6,55.8-48.6,55.8-4.8,0-9.6-2.4-13.5-8.1-3.3-5.1-5.7-14.1-2.7-26.4-9,14.7-23.1,38.7-43.8,33.3-28.2-7.8-11.7-56.1,10.2-82.5,16.8-19.5,42.9-30,64.5-17.4,14.4-27.3,27.6-54.9,34.8-71.1C130.14,2.25,135.24-.75,144.84.15c3.9.3,8.4,1.8,12.9,1.2-9,8.4-61.8,105.3-79.2,146.7ZM23.34,139.65c-19.8,37.2-1.8,55.8,23.7,19.8,11.1-15.6,26.1-41.4,40.2-67.8-15-14.7-48,18.6-63.9,48Z"/>
  </g>
</svg>