<?xml version="1.0" encoding="UTF-8"?>
<svg id="Layer_2" data-name="Layer 2" xmlns="http://www.w3.org/2000/svg" viewBox="0 0 171.65 201.36">
  <defs>
    <style>
      .cls-1 {
        fill: #231f20;
      }
    </style>
  </defs>
  <g id="Layer_1-2" data-name="Layer 1">
    <path class="cls-1" d="M124.5,110.15c-13.2,37.8-52.8,91.2-96.3,91.2-18.9,0-28.2-7.5-28.2-23.1,0-14.7,11.7-26.1,26.1-34.5,29.4-17.4,56.7-23.1,79.8-32.4,3.6-10.5,5.7-21.3,6.9-33.3,1.2-11.7,1.2-21.3.3-24.6-9.6,18.6-33.6,59.1-57.6,51.9-30-12.9-12-56.1,10.2-82.5C83.4,1.55,112.8-8.65,135.3,9.05c10.5,8.7,0,17.7-3.3,8.7-7.8-21.3-30-9.3-48.3,11.1-21.9,24.6-38.7,60.9-23.1,67.8,17.7,7.5,46.8-38.4,52.5-57.3,4.2-13.8,13.8-8.4,18.6-12,3.9,24,2.4,49.2-3.9,72.9,7.2-5.1,15-11.4,21-19.5,9.9-13.2,14.4-26.1,17.4-31.8,2.7-5.4,7.5-3.6,4.5,2.4-15.3,31.5-24,48.3-46.2,58.8ZM92.4,123.66c-21.9,7.5-47.1,16.2-66,28.8-19.5,12.9-30.3,42.9-5.4,42.9,12.9,0,30.6-10.2,37.8-15.6,9.3-7.5,18.6-18.3,27-29.4,7.2-10.2,12.9-20.1,17.1-30.3l-10.5,3.6Z"/>
  </g>
</svg>