<?xml version="1.0" encoding="UTF-8"?>
<svg id="Layer_2" data-name="Layer 2" xmlns="http://www.w3.org/2000/svg" viewBox="0 0 193.86 232.5">
  <defs>
    <style>
      .cls-1 {
        fill: #231f20;
      }
    </style>
  </defs>
  <g id="Layer_1-2" data-name="Layer 1">
    <path class="cls-1" d="M133.47,84.3l15.9-34.5c2.7-5.4-1.8-11.1-3-12.6l16.5-.3c9.6,0,9.6,3.3,6.3,10.5l-24,56.1c-5.7,13.2-12,26.4-18.6,39.6,18-6.9,30.6-11.4,44.1-31.2,9.6-14.1,15-26.4,18-32.1,2.7-5.4,7.2-3.3,4.2,2.7-20.4,41.7-28.2,54.6-71.4,70.2-18.9,33.9-48.6,79.8-93,79.8-30,0-33-19.8-24-36.6,5.7-11.1,16.5-19.2,28.2-24.6,20.1-9.6,48.6-14.7,72.9-21.6,3.3-5.7,6.9-11.7,9.6-17.4,7.2-14.4,15.9-32.7,21-43.2-1.8,0-4.5-.9-2.7-4.8ZM37.76,177.9c-30.9,13.2-42,48.6-16.5,48.6s58.5-37.2,72-56.1c2.4-3.3,4.5-7.2,6.6-11.1-19.2,5.1-45,11.1-62.1,18.6ZM167.37,24.6c-6.9,0-11.4-5.4-10.5-12.3,1.2-6.9,7.8-12.3,14.4-12.3s11.7,5.4,10.5,12.3c-1.2,6.9-7.5,12.3-14.4,12.3Z"/>
  </g>
</svg>