<?xml version="1.0" encoding="UTF-8"?>
<svg id="Layer_2" data-name="Layer 2" xmlns="http://www.w3.org/2000/svg" viewBox="0 0 92.29 188.62">
  <defs>
    <style>
      .cls-1 {
        fill: #231f20;
      }
    </style>
  </defs>
  <g id="Layer_1-2" data-name="Layer 1">
    <path class="cls-1" d="M23.66,130.12c-1.5,5.1-4.5,12.3-6.3,19.8-9,36,15,41.1,30.9,18.9,9.9-14.1,18.3-30.3,22.2-38.1,2.7-5.1,7.2-4.5,4.5,1.5-7.5,15.9-23.1,56.4-53.4,56.4-33.6,0-19.2-41.1-14.1-59.1,9.3-33.6,28.2-76.8,45.6-105.9,21.3-35.7,53.7-31.5,32.1,16.5-13.8,30.9-32.1,63.3-61.5,90ZM73.46,22.12c-14.7,20.7-38.1,74.4-47.4,98.4,21.3-21.6,42.9-57,54.6-84.9,6-13.8,9-36.6-7.2-13.5Z"/>
  </g>
</svg>