<?xml version="1.0" encoding="UTF-8"?>
<svg id="Layer_2" data-name="Layer 2" xmlns="http://www.w3.org/2000/svg" viewBox="0 0 113.98 105.03">
  <defs>
    <style>
      .cls-1 {
        fill: #231f20;
      }
    </style>
  </defs>
  <g id="Layer_1-2" data-name="Layer 1">
    <path class="cls-1" d="M66.37,102.61c-9,0-15.3-3.3-19.2-7.8-8.4,6.3-17.4,10.5-26.1,10.2-22.8-.6-26.1-27.9-14.7-54.6C18.07,22.81,42.98-.59,63.37.01c22.8.3,26.1,27.9,14.7,54.6-4.5,10.5-13.8,24.6-25.2,35.4,2.4,4.5,6.9,7.5,14.1,7.5,19.2,0,34.8-37.2,42-51.6,1.5-3,6.6-1.8,4.5,2.7-5.1,11.4-21.9,54-47.1,54ZM27.07,49.21c-11.7,24.6-14.4,45.6-3.6,48.9,5.7,1.5,13.2-1.5,20.4-7.5-3.3-4.8-4.8-10.2-4.8-14.7.3-6.9,3-12.9,10.5-12.9,5.1,0,9,4.2,9,9,0,1.2-.3,2.1-.6,3.3,3.3-4.8,6.6-10.5,9.3-16.2,11.7-24.6,13.2-45.9,2.4-49.2-12.9-3.6-31.5,15.6-42.6,39.3Z"/>
  </g>
</svg>