<?xml version="1.0" encoding="UTF-8"?>
<svg id="Layer_2" data-name="Layer 2" xmlns="http://www.w3.org/2000/svg" viewBox="0 0 101.98 192.66">
  <defs>
    <style>
      .cls-1 {
        fill: #231f20;
      }
    </style>
  </defs>
  <g id="Layer_1-2" data-name="Layer 1">
    <path class="cls-1" d="M31.48,192.66c-2.1-3.6-6.3-6.3-8.7-9-6.6-7.2-4.2-15.3,1.8-28.5,24.3-56.1,32.7-67.8,45.3-96-1.8,3.3-18.3,27-21,30.6-8.4,9.9-20.4,19.5-33.3,15.6C-14.12,92.45,3.88,49.25,26.08,22.85,43.78,1.55,73.18-8.65,95.38,9.05c10.8,8.7.3,17.7-3,8.7C75.28-28.75-7.52,84.05,20.98,96.65c15.9,6.9,42.3-39.6,50.1-52.2,7.8-13.2,10.5-15.6,18.3-15,3.6,0,8.4,1.8,12.6,1.2-23.1,35.4-67.8,143.4-70.5,162Z"/>
  </g>
</svg>