<?xml version="1.0" encoding="UTF-8"?>
<svg id="Layer_2" data-name="Layer 2" xmlns="http://www.w3.org/2000/svg" viewBox="0 0 108.62 135.04">
  <defs>
    <style>
      .cls-1 {
        fill: #231f20;
      }
    </style>
  </defs>
  <g id="Layer_1-2" data-name="Layer 1">
    <path class="cls-1" d="M64.03,134.67c-10.2,2.4-28.5-6.6-16.5-37.8,4.5-12.3,15.3-27.9,18.6-35.4,4.2-9.9-6.3-13.8-23.1-14.1l-3.6,9.6c-7.2,18.9-21.6,52.2-36.3,66.3-2.4,2.1-4.2-1.2-2.4-3.9C24.43,88.17,40.93,42.87,46.93,9.27,49.93-7.53,69.43-.03,65.23,20.07c-1.8,8.4-11.4,16.5-16.5,20.1,11.1.6,26.7.3,41.4-1.2,2.1,4.2-2.7,15.6-6.3,23.1-4.5,9.3-35.1,64.2-17.1,65.1,12.3.3,30.9-37.2,37.2-50.1,2.7-5.1,6.6-3,3.6,3-8.7,18-24,49.8-43.5,54.6Z"/>
  </g>
</svg>