<?xml version="1.0" encoding="UTF-8"?>
<svg id="Layer_2" data-name="Layer 2" xmlns="http://www.w3.org/2000/svg" viewBox="0 0 132.19 116.52">
  <defs>
    <style>
      .cls-1 {
        fill: #231f20;
      }
    </style>
  </defs>
  <g id="Layer_1-2" data-name="Layer 1">
    <path class="cls-1" d="M79.37,106.32c-15,0-22.5-16.2-21.9-29.4,0-2.1,0-4.2.3-6-10.2,19.8-23.7,37.5-34.5,42.6-7.2,3.6-16.5,4.8-22.5-1.2-2.7-3,2.4-7.8,5.1-4.8,3.3,3,8.7,3,15.3,0,12-5.7,31.8-35.1,40.2-62.7,1.5-8.1,3-15.3,2.7-22.8,0-9.3-8.1-14.1-19.5,4.5-3.6,6-15,28.2-18.6,34.5-2.7,4.8-5.7,2.4-2.7-3.9,5.7-12,18-37.2,25.8-44.4,5.4-4.5,11.1-7.5,16.8-6.9,16.2,1.8,15.3,21,12,37.8C88.37,23.52,104.87,2.82,113.57.42c6.6-1.5,13.8.9,12,9-1.2,5.4-6.6,9.6-12,9.6-3.9,0-6.6-2.1-7.5-5.1-12,11.4-26.1,33-32.4,52.2-3,17.4.6,31.2,8.1,32.7,19.2,4.2,33.9-28.2,45.3-50.1,3-5.7,6.6-2.7,4.5,1.5-9.9,19.8-23.4,56.1-52.2,56.1Z"/>
  </g>
</svg>