<?xml version="1.0" encoding="UTF-8"?>
<svg id="Layer_2" data-name="Layer 2" xmlns="http://www.w3.org/2000/svg" viewBox="0 0 182.46 198.33">
  <defs>
    <style>
      .cls-1 {
        fill: #231f20;
      }
    </style>
  </defs>
  <g id="Layer_1-2" data-name="Layer 1">
    <path class="cls-1" d="M129.27,109.06c-15.3,42-46.2,74.7-89.4,87.3-30.6,9-50.1-14.4-34.2-39,16.2-24.3,67.2-36.6,105.3-48.6,4.5-14.4,11.7-44.7-5.7-41.7-3.9,2.1-8.4,3.9-13.2,5.7-4.8,1.8-7.2-4.2-2.4-5.7,19.8-6,29.7-20.4,33.6-26.4,14.1-21.6-15.9-40.2-34.2-8.7-3.6,6-11.4,20.4-15.9,30-2.4,5.1-6.9,3.6-3.6-3.3,5.4-10.5,11.1-22.2,17.7-34.2,18.3-33.3,57-30,55.8-5.7-.6,13.2-10.5,30-29.4,41.4,15-.3,20.4,8.4,20.7,19.5,0,4.2-1.8,17.1-3.3,21.9,19.8-3.9,34.5-29.1,46.2-53.7,2.7-5.4,7.2-3.6,4.2,2.4-13.8,27.9-26.7,53.7-52.2,58.8ZM33.87,142.36c-26.4,15.3-34.8,55.5-3.3,48.9,23.4-5.1,61.5-32.4,77.7-75-26.7,8.4-57,15.6-74.4,26.1Z"/>
  </g>
</svg>