<?xml version="1.0" encoding="UTF-8"?>
<svg id="Layer_2" data-name="Layer 2" xmlns="http://www.w3.org/2000/svg" viewBox="0 0 183.51 221">
  <defs>
    <style>
      .cls-1 {
        fill: #231f20;
      }
    </style>
  </defs>
  <g id="Layer_1-2" data-name="Layer 1">
    <g>
      <path class="cls-1" d="M105.7,219.75c-15.09,0-29.18-2.66-41.88-7.89-12.7-5.24-23.89-12.75-33.27-22.33-9.38-9.58-16.69-21.13-21.73-34.33-5.03-13.17-7.58-27.81-7.58-43.5s2.55-31.01,7.58-44.39c5.03-13.39,12.34-25.14,21.72-34.92,9.37-9.78,20.56-17.49,33.26-22.93,12.7-5.44,26.79-8.2,41.89-8.2,10.67,0,20.83,1.48,30.22,4.41,9.36,2.92,18.15,7.06,26.11,12.3,6.92,4.56,13.28,9.87,18.9,15.79.9.95,1.37,2.19,1.31,3.5-.05,1.3-.62,2.5-1.6,3.36l-.13.12c-.87.77-2,1.2-3.16,1.2-1.3,0-2.56-.54-3.46-1.49-5.14-5.47-10.96-10.42-17.3-14.7-7.27-4.91-15.24-8.74-23.67-11.39-8.44-2.65-17.6-3.99-27.22-3.99-13.57,0-26.32,2.54-37.9,7.55-11.59,5.01-21.74,12.12-30.18,21.16-8.45,9.04-15.13,19.85-19.85,32.14-4.72,12.3-7.12,25.93-7.12,40.5s2.39,27.75,7.11,39.74c4.72,11.99,11.39,22.56,19.84,31.4,8.44,8.83,18.59,15.75,30.17,20.56,11.58,4.81,24.34,7.25,37.92,7.25,8.85,0,17.42-1.05,25.49-3.11,8.05-2.06,15.62-5.05,22.5-8.88,5.81-3.24,11.2-7.05,16.02-11.33.87-.77,1.99-1.2,3.16-1.2,1.42,0,2.75.62,3.66,1.71,1.65,1.98,1.44,4.89-.49,6.62-5.4,4.84-11.46,9.06-18,12.55-7.55,4.03-15.82,7.19-24.58,9.41-8.77,2.21-18.1,3.34-27.76,3.34Z"/>
      <path class="cls-1" d="M105.7,2.5c10.6,0,20.55,1.45,29.85,4.35,9.3,2.9,17.9,6.95,25.8,12.15,6.87,4.52,13.1,9.73,18.68,15.61,1.37,1.45,1.28,3.74-.21,5.07l-.13.12c-.67.59-1.5.89-2.33.89-.93,0-1.86-.37-2.55-1.1-5.23-5.57-11.07-10.53-17.51-14.88-7.4-5-15.4-8.85-24-11.55-8.6-2.7-17.8-4.05-27.6-4.05-13.8,0-26.6,2.55-38.4,7.65-11.8,5.1-22,12.25-30.6,21.45-8.6,9.2-15.3,20.05-20.1,32.55-4.8,12.5-7.2,26.15-7.2,40.95s2.4,28,7.2,40.2c4.8,12.2,11.5,22.8,20.1,31.8,8.6,9,18.8,15.95,30.6,20.85,11.8,4.9,24.6,7.35,38.4,7.35,9,0,17.6-1.05,25.8-3.15,8.2-2.1,15.8-5.1,22.8-9,5.91-3.3,11.33-7.13,16.24-11.49.67-.59,1.5-.88,2.33-.88,1,0,2,.43,2.7,1.26,1.22,1.46,1.05,3.62-.36,4.89-5.36,4.8-11.28,8.92-17.75,12.38-7.5,4-15.6,7.1-24.3,9.3s-17.85,3.3-27.45,3.3c-15,0-28.8-2.6-41.4-7.8s-23.55-12.55-32.85-22.05c-9.3-9.5-16.45-20.8-21.45-33.9-5-13.1-7.5-27.45-7.5-43.05s2.5-30.65,7.5-43.95c5-13.3,12.15-24.8,21.45-34.5,9.3-9.7,20.25-17.25,32.85-22.65S90.7,2.5,105.7,2.5M105.7,0c-15.27,0-29.53,2.79-42.39,8.3-12.85,5.51-24.18,13.32-33.67,23.22-9.5,9.91-16.89,21.8-21.99,35.35C2.58,80.39,0,95.47,0,111.7s2.58,30.63,7.66,43.94c5.1,13.36,12.5,25.06,22,34.76,9.49,9.7,20.83,17.31,33.68,22.61,12.85,5.3,27.1,7.99,42.35,7.99,9.76,0,19.2-1.14,28.06-3.38,8.86-2.24,17.23-5.44,24.87-9.52,6.63-3.53,12.76-7.81,18.24-12.72,2.43-2.18,2.7-5.84.61-8.35-1.15-1.37-2.83-2.16-4.62-2.16-1.47,0-2.89.54-3.99,1.52-4.76,4.22-10.07,7.98-15.8,11.18-6.79,3.78-14.26,6.73-22.2,8.76-7.96,2.04-16.44,3.07-25.18,3.07-13.41,0-26.01-2.41-37.44-7.16-11.43-4.74-21.44-11.56-29.75-20.27-8.34-8.72-14.92-19.15-19.58-30.99-4.66-11.85-7.03-25.07-7.03-39.28s2.37-27.9,7.03-40.05c4.66-12.14,11.26-22.82,19.59-31.74,8.32-8.91,18.34-15.92,29.77-20.86,11.43-4.94,24.01-7.44,37.41-7.44,9.5,0,18.53,1.32,26.85,3.94,8.32,2.61,16.18,6.39,23.35,11.24,6.26,4.23,12.01,9.12,17.09,14.52,1.13,1.2,2.72,1.89,4.37,1.89,1.47,0,2.89-.54,4-1.52l.13-.12c1.23-1.09,1.94-2.6,2.01-4.24.07-1.65-.52-3.22-1.66-4.41-5.69-5.99-12.12-11.36-19.12-15.98-8.06-5.3-16.96-9.49-26.43-12.45-9.51-2.96-19.8-4.46-30.59-4.46h0Z"/>
    </g>
  </g>
</svg>