<?xml version="1.0" encoding="UTF-8"?>
<svg id="Layer_2" data-name="Layer 2" xmlns="http://www.w3.org/2000/svg" viewBox="0 0 134.2 208.86">
  <g id="Layer_1-2" data-name="Layer 1">
    <g>
      <path d="M5.88,207.57c-2.53,0-4.59-1.88-4.59-4.2V5.49C1.29,3.18,3.35,1.29,5.88,1.29c.23,0,.45.01.67.04.1-.03.21-.04.32-.04h121.44c2.53,0,4.59,1.88,4.59,4.2,0,2.64-2.36,4.78-5.25,4.78H11.13v89.08h98.37c2.53,0,4.59,1.88,4.59,4.2,0,2.64-2.36,4.78-5.25,4.78H11.13v94.45c0,2.64-2.36,4.78-5.25,4.78Z"/>
      <path d="M128.31,2.58c1.82,0,3.3,1.3,3.3,2.91h0c0,1.93-1.77,3.49-3.96,3.49H10.83c-.34,0-.67-.04-.99-.11v-2.8c0-1.63-1.26-2.99-2.97-3.38v-.11h121.44M5.88,2.58c.34,0,.67.04.99.11v2.8c0,1.63,1.26,2.99,2.97,3.38v91.78h-3.3v6.4h3.3v95.74c0,1.93-1.77,3.49-3.96,3.49-1.82,0-3.3-1.3-3.3-2.91V5.49c0-1.61,1.48-2.91,3.3-2.91M109.5,100.65c1.82,0,3.3,1.3,3.3,2.91h0c0,1.93-1.77,3.49-3.96,3.49H9.84v-6.4h99.66M128.31,0H6.87c-.13,0-.25,0-.37.03-.2-.02-.41-.03-.62-.03C2.64,0,0,2.46,0,5.49v197.88c0,3.03,2.64,5.49,5.88,5.49,3.61,0,6.54-2.72,6.54-6.07v-93.16h96.42c3.61,0,6.54-2.72,6.54-6.07,0-3.03-2.64-5.49-5.88-5.49H12.42V11.57h115.23c3.61,0,6.54-2.72,6.54-6.07,0-3.03-2.64-5.49-5.88-5.49h0Z"/>
    </g>
  </g>
</svg>