<?xml version="1.0" encoding="UTF-8"?>
<svg id="Layer_2" data-name="Layer 2" xmlns="http://www.w3.org/2000/svg" viewBox="0 0 194.84 209.95">
  <g id="Layer_1-2" data-name="Layer 1">
    <g>
      <path d="M100.7,208.76c-14.34,0-27.77-2.52-39.92-7.5-12.16-4.98-22.8-12.12-31.61-21.22-8.81-9.09-15.75-20.06-20.63-32.6-4.88-12.52-7.35-26.42-7.35-41.33s2.42-29.46,7.2-42.17c4.78-12.72,11.72-23.88,20.63-33.18,8.91-9.29,19.54-16.62,31.6-21.79,12.06-5.17,25.45-7.79,39.8-7.79,10.89,0,21.18,1.55,30.58,4.62,9.38,3.06,18.11,7.48,25.97,13.13,6.93,4.99,13.27,10.76,18.86,17.17,1.65,1.89,1.52,4.7-.3,6.41-.8.76-1.85,1.17-2.95,1.17-1.3,0-2.52-.58-3.34-1.58-4.94-6.02-10.64-11.39-16.93-15.97-7.19-5.22-15.23-9.29-23.89-12.08-8.67-2.8-18.09-4.22-27.99-4.22-12.89,0-25,2.41-36.01,7.17-11,4.76-20.65,11.52-28.67,20.1-8.02,8.58-14.37,18.86-18.85,30.54-4.49,11.68-6.76,24.63-6.76,38.48s2.27,26.36,6.76,37.75c4.48,11.39,10.87,21.42,18.99,29.82,8.11,8.4,17.81,14.97,28.81,19.54,11,4.57,23.12,6.89,36.02,6.89s25.54-2.13,35.89-6.33c10.34-4.19,19.21-10.18,26.37-17.81,7.17-7.63,12.64-16.89,16.27-27.5,3.65-10.65,5.49-22.61,5.49-35.53v-2.8h-78.04c-2.54,0-4.61-2.07-4.61-4.61,0-2.23,1.81-4.04,4.04-4.04h83.65c2.15,0,3.89,1.75,3.89,3.9v2.71c0,16.2-2.13,30.76-6.33,43.27-4.22,12.56-10.45,23.21-18.51,31.65-8.06,8.45-17.94,14.92-29.37,19.24-11.39,4.31-24.42,6.49-38.75,6.49Z"/>
      <path d="M100.41,2.38c10.83,0,20.9,1.52,30.21,4.56,9.31,3.04,17.86,7.37,25.65,12.97,6.89,4.96,13.1,10.62,18.66,16.98,1.22,1.39,1.13,3.5-.22,4.77-.61.57-1.37.85-2.14.85-.9,0-1.8-.39-2.42-1.15-5.03-6.12-10.74-11.51-17.15-16.18-7.32-5.32-15.39-9.4-24.23-12.25-8.83-2.85-18.29-4.27-28.36-4.27-13.11,0-25.27,2.42-36.48,7.27-11.21,4.85-20.9,11.64-29.07,20.38-8.17,8.74-14.53,19.05-19.09,30.92-4.56,11.88-6.84,24.84-6.84,38.9s2.28,26.6,6.84,38.19c4.56,11.59,10.97,21.66,19.24,30.21,8.26,8.55,18,15.15,29.21,19.81,11.21,4.66,23.37,6.98,36.48,6.98s25.79-2.14,36.34-6.41c10.54-4.27,19.47-10.3,26.79-18.1,7.31-7.79,12.82-17.1,16.53-27.93,3.71-10.83,5.56-22.8,5.56-35.91v-3.99h1.71l-1.71-1.42v1.42h-79.23c-1.89,0-3.42-1.53-3.42-3.42,0-1.57,1.28-2.85,2.85-2.85h83.65c1.5,0,2.71,1.21,2.71,2.71v2.71c0,16.15-2.09,30.45-6.27,42.89-4.18,12.45-10.26,22.85-18.24,31.21-7.98,8.36-17.63,14.68-28.93,18.95-11.31,4.28-24.08,6.41-38.33,6.41s-27.41-2.47-39.47-7.41c-12.07-4.94-22.47-11.92-31.21-20.95-8.74-9.02-15.53-19.76-20.38-32.2-4.85-12.44-7.27-26.08-7.27-40.9s2.37-29.11,7.12-41.75c4.75-12.63,11.54-23.56,20.38-32.78,8.84-9.21,19.24-16.39,31.21-21.52,11.97-5.13,25.08-7.7,39.33-7.7M100.41,0c-14.51,0-28.05,2.65-40.27,7.89-12.2,5.23-22.97,12.65-31.99,22.06-9.02,9.42-16.05,20.72-20.89,33.58C2.45,76.37,0,90.7,0,106.12s2.5,29.1,7.43,41.76c4.94,12.69,11.97,23.79,20.88,33,8.93,9.22,19.7,16.45,32.01,21.49,12.3,5.03,25.88,7.59,40.37,7.59s27.65-2.21,39.17-6.57c11.6-4.39,21.62-10.96,29.81-19.53,8.18-8.57,14.5-19.37,18.77-32.09,4.24-12.64,6.39-27.32,6.39-43.65v-2.71c0-2.8-2.28-5.08-5.08-5.08h-83.65c-2.88,0-5.23,2.34-5.23,5.23,0,3.2,2.6,5.8,5.79,5.8h76.86v1.61c0,12.79-1.83,24.61-5.43,35.14-3.58,10.46-8.97,19.56-16.01,27.07-7.04,7.5-15.77,13.4-25.95,17.52-10.21,4.14-22.14,6.24-35.45,6.24s-24.71-2.29-35.57-6.8c-10.85-4.5-20.41-10.99-28.42-19.26-8.01-8.29-14.31-18.19-18.74-29.43-4.43-11.25-6.67-23.81-6.67-37.32s2.25-26.51,6.68-38.05c4.43-11.54,10.69-21.68,18.61-30.15,7.91-8.46,17.42-15.13,28.28-19.82,10.86-4.69,22.81-7.07,35.54-7.07,9.78,0,19.07,1.4,27.63,4.16,8.54,2.76,16.47,6.77,23.56,11.92,6.21,4.52,11.84,9.83,16.71,15.76,1.05,1.28,2.6,2.01,4.26,2.01,1.4,0,2.74-.53,3.77-1.49,2.28-2.15,2.45-5.69.38-8.06-5.65-6.47-12.06-12.31-19.06-17.35-7.96-5.72-16.81-10.2-26.3-13.3-9.52-3.1-19.93-4.68-30.95-4.68h0Z"/>
    </g>
  </g>
</svg>