<?xml version="1.0" encoding="UTF-8"?>
<svg id="Layer_2" data-name="Layer 2" xmlns="http://www.w3.org/2000/svg" viewBox="0 0 73.93 208.13">
  <g id="Layer_1-2" data-name="Layer 1">
    <g>
      <path d="M5.13,207.02c-2.22,0-4.02-2.06-4.02-4.6,0-2.22,1.59-4.02,3.54-4.02h28.54V9.73H4.65c-1.95,0-3.54-1.8-3.54-4.02C1.11,3.17,2.91,1.11,5.13,1.11h63.67c2.22,0,4.02,2.06,4.02,4.6,0,2.22-1.59,4.02-3.54,4.02h-28.54v188.68h28.05c2.22,0,4.02,2.06,4.02,4.6,0,2.21-1.59,4.02-3.54,4.02H5.13Z"/>
      <path d="M68.8,2.22c1.61,0,2.92,1.56,2.92,3.49,0,1.61-1.09,2.91-2.43,2.91h-29.65v190.9h29.16c1.61,0,2.92,1.56,2.92,3.49,0,1.61-1.09,2.91-2.43,2.91H5.13c-1.61,0-2.92-1.56-2.92-3.49,0-1.61,1.09-2.91,2.43-2.91h29.65V8.62H4.65c-1.34,0-2.43-1.3-2.43-2.91,0-1.93,1.31-3.49,2.92-3.49h63.67M68.8,0H5.13C2.3,0,0,2.56,0,5.71c0,2.83,2.08,5.13,4.65,5.13h27.43v186.46H4.65c-2.56,0-4.65,2.3-4.65,5.13,0,3.15,2.3,5.71,5.13,5.71h64.15c2.56,0,4.65-2.3,4.65-5.13,0-3.15-2.3-5.71-5.13-5.71h-26.94V10.83h27.43c2.56,0,4.65-2.3,4.65-5.13,0-3.15-2.3-5.71-5.13-5.71h0Z"/>
    </g>
  </g>
</svg>