<?xml version="1.0" encoding="UTF-8"?>
<svg id="Layer_2" data-name="Layer 2" xmlns="http://www.w3.org/2000/svg" viewBox="0 0 154.09 205.96">
  <defs>
    <style>
      .cls-1 {
        fill: #231f20;
      }
    </style>
  </defs>
  <g id="Layer_1-2" data-name="Layer 1">
    <g>
      <path class="cls-1" d="M75.9,204.77c-14.41,0-27.41-3.46-38.66-10.29-11.25-6.83-20.17-16.33-26.51-28.25-6.33-11.9-9.54-25.7-9.54-41.03V5.51C1.19,3.13,3.13,1.19,5.51,1.19s4.32,1.94,4.32,4.32v117.14c0,14.37,2.83,27.23,8.42,38.22,5.58,10.97,13.39,19.68,23.23,25.9,9.82,6.21,21.4,9.36,34.42,9.36s25.37-3.15,35.58-9.37c10.22-6.22,18.32-14.94,24.08-25.9,5.77-10.99,8.7-23.85,8.7-38.21V5.51c0-2.38,1.94-4.32,4.32-4.32s4.32,1.94,4.32,4.32v119.7c0,15.33-3.36,29.14-9.98,41.05-6.63,11.91-15.83,21.41-27.37,28.23-11.53,6.82-24.87,10.28-39.65,10.28Z"/>
      <path class="cls-1" d="M148.58,2.38c1.73,0,3.13,1.4,3.13,3.13v119.7c0,15.2-3.28,28.69-9.83,40.47-6.55,11.78-15.53,21.04-26.93,27.79-11.4,6.75-24.42,10.12-39.04,10.12s-26.93-3.37-38.05-10.12c-11.11-6.74-19.81-16.01-26.08-27.79-6.27-11.78-9.41-25.27-9.41-40.47V5.51c0-1.73,1.4-3.13,3.13-3.13s3.13,1.4,3.13,3.13v117.14c0,14.63,2.85,27.55,8.55,38.76,5.7,11.21,13.58,20,23.66,26.36,10.07,6.37,21.75,9.55,35.06,9.55s25.74-3.18,36.19-9.55c10.45-6.36,18.62-15.15,24.51-26.36,5.89-11.21,8.83-24.13,8.83-38.76V5.51c0-1.73,1.4-3.13,3.13-3.13h0M148.58,0c-3.04,0-5.51,2.47-5.51,5.51v117.14c0,14.17-2.88,26.84-8.56,37.66-5.66,10.77-13.61,19.33-23.64,25.44-10.02,6.11-21.78,9.2-34.96,9.2s-24.15-3.09-33.79-9.18c-9.66-6.1-17.33-14.66-22.81-25.43-5.5-10.82-8.29-23.5-8.29-37.68V5.51c0-3.04-2.47-5.51-5.51-5.51S0,2.47,0,5.51v119.7c0,15.52,3.26,29.52,9.68,41.59,6.44,12.11,15.51,21.77,26.94,28.7,11.44,6.94,24.65,10.46,39.28,10.46s28.54-3.52,40.25-10.45c11.71-6.93,21.07-16.58,27.8-28.68,6.72-12.08,10.13-26.09,10.13-41.63V5.51c0-3.04-2.47-5.51-5.51-5.51h0Z"/>
    </g>
  </g>
</svg>