<?xml version="1.0" encoding="UTF-8"?>
<svg id="Layer_2" data-name="Layer 2" xmlns="http://www.w3.org/2000/svg" viewBox="0 0 233.61 207.11">
  <defs>
    <style>
      .cls-1 {
        fill: #231f20;
      }
    </style>
  </defs>
  <g id="Layer_1-2" data-name="Layer 1">
    <g>
      <g>
        <path class="cls-1" d="M59.42,205.92c-1.73,0-3.27-1.17-3.74-2.83L1.33,8.97c-.33-1.18-.1-2.42.65-3.39.74-.98,1.87-1.54,3.09-1.54h1.25c1.73,0,3.27,1.17,3.74,2.83l39.92,142.53c1.52,5.71,2.8,10.51,3.85,14.4,1.04,3.89,2.04,7.55,2.99,10.96.94,3.37,1.99,7.06,3.13,10.96.49,1.68,1.04,3.55,1.64,5.57.02.05.03.1.04.16.7,4.6,1.95,8.77,3.72,12.4.27.56.06,1.24-.48,1.55-.59.34-1.25.52-1.92.52h-3.52Z"/>
        <path class="cls-1" d="M6.32,5.23c1.21,0,2.27.8,2.59,1.97l39.92,142.53c1.52,5.7,2.8,10.5,3.85,14.39,1.04,3.9,2.04,7.55,2.99,10.97.95,3.42,1.99,7.08,3.13,10.97.49,1.68,1.04,3.55,1.64,5.57.68,4.45,1.92,8.83,3.82,12.74-.4.23-.85.36-1.33.36h-3.52c-1.21,0-2.27-.8-2.59-1.97L2.48,8.65c-.48-1.72.81-3.42,2.59-3.42h1.25M6.32,2.86h-1.25c-1.6,0-3.07.73-4.04,2.01C.07,6.14-.24,7.75.19,9.29l54.35,194.11c.61,2.18,2.62,3.7,4.88,3.7h3.52c.87,0,1.74-.23,2.51-.67,1.09-.62,1.51-1.98.96-3.1-1.71-3.52-2.93-7.58-3.61-12.06-.02-.11-.04-.21-.07-.32-.6-2.02-1.15-3.88-1.64-5.56-1.14-3.9-2.19-7.58-3.13-10.94-.95-3.4-1.95-7.09-2.99-10.95-1.05-3.89-2.33-8.69-3.85-14.39L11.2,6.56c-.61-2.18-2.62-3.7-4.88-3.7h0Z"/>
      </g>
      <g>
        <path class="cls-1" d="M170.66,205.92c-.4,0-.81-.07-1.24-.22-.34-.11-.6-.37-.73-.71-.12-.33-.09-.7.08-1.01,1.5-2.61,2.12-5.43,1.95-8.88,0-.14,0-.27.05-.41,1.08-3.52,1.95-6.49,2.6-8.81.95-3.42,1.71-6.13,2.28-8.13l3.99-13.97c.95-3.33,2.29-8.17,3.99-14.38L223.86,5.8c.29-1.03,1.24-1.75,2.31-1.75h2.37c1.22,0,2.35.56,3.09,1.54s.98,2.21.65,3.39l-54.35,194.12c-.47,1.67-2,2.83-3.74,2.83h-3.52Z"/>
        <path class="cls-1" d="M228.54,5.23c1.78,0,3.07,1.7,2.59,3.42l-54.35,194.11c-.33,1.16-1.39,1.97-2.59,1.97h-3.52c-.3,0-.58-.06-.86-.16,1.79-3.11,2.27-6.3,2.1-9.53,1.09-3.56,1.96-6.51,2.6-8.84.95-3.42,1.71-6.13,2.28-8.12.57-2,1.14-3.99,1.71-5.99.57-1.99,1.33-4.65,2.28-7.98.95-3.32,2.28-8.12,3.99-14.39L225,6.12c.15-.52.62-.88,1.16-.88h2.37M228.54,2.86h-2.37c-1.6,0-3.02,1.08-3.45,2.62l-40.22,143.61c-1.69,6.21-3.03,11.04-3.99,14.38-.6,2.09-1.12,3.92-1.57,5.49l-.71,2.49-.88,3.09-.83,2.89c-.57,2-1.33,4.71-2.29,8.14-.64,2.29-1.51,5.25-2.59,8.78-.08.26-.11.54-.1.81.16,3.21-.41,5.82-1.79,8.23-.35.61-.41,1.35-.17,2.02.25.66.78,1.18,1.45,1.41.56.19,1.09.29,1.63.29h3.52c2.26,0,4.27-1.52,4.88-3.7L233.42,9.29c.43-1.54.12-3.15-.84-4.43-.97-1.27-2.44-2.01-4.04-2.01h0Z"/>
      </g>
    </g>
    <g>
      <path class="cls-1" d="M171.25,205.92c-1.73,0-3.27-1.17-3.74-2.83L113.16,8.97c-.33-1.18-.1-2.42.65-3.39.74-.98,1.87-1.54,3.09-1.54h1.25c1.73,0,3.27,1.17,3.74,2.83l39.92,142.53c1.52,5.71,2.8,10.51,3.85,14.4,1.04,3.89,2.04,7.55,2.99,10.96.93,3.34,1.98,7.03,3.13,10.96.49,1.68,1.04,3.55,1.64,5.57.02.05.03.11.04.16.7,4.59,1.95,8.76,3.72,12.4.27.56.06,1.24-.48,1.55-.59.34-1.25.51-1.92.51h-3.52Z"/>
      <path class="cls-1" d="M118.15,5.23c1.21,0,2.27.8,2.59,1.97l39.92,142.53c1.52,5.7,2.8,10.5,3.85,14.39,1.04,3.9,2.04,7.55,2.99,10.97.95,3.42,1.99,7.08,3.13,10.97.49,1.68,1.04,3.55,1.64,5.57.68,4.45,1.92,8.83,3.82,12.74-.4.23-.85.36-1.33.36h-3.52c-1.21,0-2.27-.8-2.59-1.97L114.31,8.65c-.48-1.72.81-3.42,2.59-3.42h1.25M118.15,2.86h-1.25c-1.6,0-3.07.73-4.04,2.01-.97,1.27-1.27,2.89-.84,4.43l54.35,194.11c.61,2.18,2.62,3.7,4.88,3.7h3.52c.87,0,1.74-.23,2.51-.67,1.09-.62,1.51-1.98.96-3.1-1.71-3.52-2.93-7.58-3.61-12.06-.02-.11-.04-.21-.07-.32-.6-2.02-1.15-3.88-1.64-5.56-1.14-3.9-2.19-7.58-3.13-10.94-.95-3.4-1.95-7.09-2.99-10.95-1.05-3.89-2.33-8.69-3.85-14.39L123.03,6.56c-.61-2.18-2.62-3.7-4.88-3.7h0Z"/>
    </g>
    <g>
      <path class="cls-1" d="M64.46,205.14c-.68-.02-1.34-.21-1.91-.55l-3.02-1.81c-1.49-.89-2.2-2.68-1.74-4.35L111.18,4.04c.46-1.68,2-2.85,3.75-2.85.7,0,1.39.19,1.99.56l1.07.64c1.48.89,2.2,2.68,1.74,4.35l-39.19,142.73c-1.64,5.68-3.01,10.46-4.12,14.33-1.11,3.87-2.14,7.52-3.08,10.94-.93,3.36-1.93,7.06-2.96,11-.44,1.69-.93,3.58-1.46,5.62-.01.05-.03.1-.05.15-1.77,4.3-2.84,8.52-3.2,12.54-.05.61-.57,1.08-1.18,1.08h-.03Z"/>
      <path class="cls-1" d="M114.93,2.38c.47,0,.94.12,1.38.39l1.07.64c1.04.62,1.53,1.86,1.21,3.02l-39.19,142.73c-1.63,5.67-3.01,10.44-4.12,14.32-1.11,3.88-2.14,7.52-3.09,10.95-.95,3.42-1.94,7.1-2.96,11.02-.44,1.69-.93,3.58-1.46,5.62-1.71,4.17-2.9,8.55-3.28,12.89-.46-.01-.91-.13-1.32-.38l-3.02-1.81c-1.04-.62-1.53-1.86-1.21-3.02L112.33,4.36c.34-1.23,1.44-1.98,2.6-1.98M114.93,0c-2.28,0-4.29,1.53-4.89,3.73l-53.39,194.38c-.6,2.18.34,4.52,2.28,5.69l3.02,1.81c.74.45,1.61.7,2.49.72.02,0,.04,0,.06,0,1.23,0,2.26-.94,2.36-2.17.35-3.9,1.39-8,3.11-12.19.04-.1.08-.2.1-.31.53-2.04,1.02-3.92,1.46-5.61,1.03-3.93,2.02-7.63,2.96-10.99.94-3.4,1.98-7.08,3.08-10.93,1.11-3.88,2.48-8.65,4.11-14.32L120.88,7.05c.6-2.18-.34-4.52-2.28-5.69l-1.07-.64c-.79-.47-1.69-.73-2.61-.73h0Z"/>
    </g>
  </g>
</svg>