<?xml version="1.0" encoding="UTF-8"?>
<svg id="Layer_2" data-name="Layer 2" xmlns="http://www.w3.org/2000/svg" viewBox="0 0 156.27 208.55">
  <defs>
    <style>
      .cls-1 {
        fill: #231f20;
      }
    </style>
  </defs>
  <g id="Layer_1-2" data-name="Layer 1">
    <g>
      <path class="cls-1" d="M149.84,207.34c-1.35,0-2.63-.65-3.42-1.75l-69.19-95.82L9.64,205.55c-.79,1.12-2.07,1.78-3.44,1.78h-.77c-1.58,0-3.02-.88-3.75-2.28-.73-1.41-.6-3.09.32-4.38l70.02-98.13L3.52,7.9c-.93-1.29-1.06-2.97-.34-4.39.72-1.42,2.16-2.3,3.75-2.3h1.02c1.36,0,2.64.66,3.43,1.76l65.89,92.08L143.8,2.96c.79-1.09,2.06-1.75,3.41-1.75h.72c1.59,0,3.03.88,3.75,2.3.72,1.42.59,3.1-.35,4.39l-68.35,94.02c-.13.17-.27.34-.42.49l71.66,98.23c.94,1.29,1.07,2.97.35,4.39-.72,1.42-2.16,2.3-3.76,2.3h-1Z"/>
      <path class="cls-1" d="M147.94,2.42c2.45,0,3.87,2.78,2.43,4.76l-68.35,94.02c-.3.42-.69.73-1.13.94l-1.84-2.53-1.78-2.48L144.79,3.67c.56-.78,1.47-1.24,2.43-1.24h.72M7.95,2.42c.97,0,1.88.47,2.44,1.25l66.87,93.45-.3.41c-.95,1.32-.68,3.15.61,4.14l.19.14c.54.42,1.18.62,1.82.62.45,0,.89-.1,1.3-.3l72.37,99.21c1.45,1.98.03,4.77-2.42,4.77h-1c-.96,0-1.87-.46-2.43-1.24l-70.18-97.2.79-1.12c.91-1.29.67-3.06-.56-4.06-.56-.45-1.23-.67-1.89-.67-.73,0-1.45.26-2.01.77L4.5,7.18c-1.44-1.98-.02-4.76,2.43-4.76h1.02M73.55,102.6l1.42,1.96,2.25,3.12L8.65,204.85c-.56.8-1.48,1.27-2.45,1.27h-.77c-2.44,0-3.86-2.76-2.44-4.74l70.13-98.29c.13-.18.28-.35.44-.49M147.94,0h-.72c-1.74,0-3.38.84-4.4,2.25l-65.54,90.73L12.37,2.27c-1.02-1.42-2.67-2.27-4.41-2.27h-1.02c-2.05,0-3.9,1.13-4.83,2.96-.93,1.82-.76,3.99.44,5.65l67.98,93.95L1.01,199.97c-1.19,1.66-1.34,3.82-.41,5.64.93,1.81,2.78,2.94,4.82,2.94h.77c1.76,0,3.42-.86,4.43-2.3l66.62-94.4,68.19,94.44c1.02,1.41,2.66,2.25,4.4,2.25h1c2.05,0,3.91-1.14,4.84-2.97.93-1.83.76-4-.45-5.66l-71.11-97.48L152.33,8.62c1.21-1.66,1.38-3.83.45-5.65-.93-1.83-2.78-2.96-4.83-2.96h0Z"/>
    </g>
  </g>
</svg>