<?xml version="1.0" encoding="UTF-8"?>
<svg id="Layer_2" data-name="Layer 2" xmlns="http://www.w3.org/2000/svg" viewBox="0 0 165.45 208.62">
  <defs>
    <style>
      .cls-1 {
        fill: #231f20;
      }
    </style>
  </defs>
  <g id="Layer_1-2" data-name="Layer 1">
    <g>
      <path class="cls-1" d="M83.42,207.39c-2.24,0-4.07-1.79-4.07-3.98v-87.52L1.97,7.49c-.86-1.2-.97-2.76-.3-4.07.7-1.35,2.09-2.19,3.63-2.19h.91c1.32,0,2.57.63,3.33,1.7l74.17,103.61L156.44,2.1c.38-.55,1.01-.87,1.68-.87h2.04c1.53,0,2.92.83,3.62,2.17.69,1.32.59,2.83-.26,4.05l-75.1,107.92v88.04c0,2.19-1.82,3.98-4.07,3.98h-.93Z"/>
      <path class="cls-1" d="M160.15,2.46c2.27,0,3.62,2.46,2.35,4.29l-75.32,108.23v-.57c0-.51-.41-.79-.82-.79-.34,0-.68.19-.78.61l-.12.5c-.13.56.33.97.8.97.24,0,.49-.11.66-.35l.26-.37v88.43c0,1.52-1.27,2.75-2.83,2.75h-.93c-1.57,0-2.83-1.23-2.83-2.75v-87.91l.14.2c.17.24.41.34.65.34.47,0,.92-.39.81-.95h0c-.09-.43-.44-.63-.79-.63-.41,0-.82.28-.82.79v.25L2.97,6.78c-1.3-1.82.04-4.32,2.33-4.32h.91c.93,0,1.8.44,2.33,1.18l75.18,105.02-.77,1.11c-.36.52.02,1.23.67,1.23h.23c.65,0,1.04-.71.67-1.23l-.79-1.1L157.45,2.81c.15-.22.4-.35.67-.35h2.04M160.15,0h-2.04c-1.07,0-2.08.52-2.69,1.4l-71.74,103L10.54,2.21c-.99-1.38-2.61-2.21-4.33-2.21h-.91C3.29,0,1.48,1.1.57,2.86c-.89,1.72-.74,3.77.39,5.35l77.16,108.08v87.12c0,2.87,2.38,5.21,5.3,5.21h.93c2.92,0,5.3-2.34,5.3-5.21v-87.66L164.52,8.16c1.1-1.58,1.23-3.62.34-5.33-.91-1.75-2.72-2.83-4.71-2.83h0Z"/>
    </g>
  </g>
</svg>