<?xml version="1.0" encoding="UTF-8"?>
<svg id="Layer_2" data-name="Layer 2" xmlns="http://www.w3.org/2000/svg" viewBox="0 0 63.64 90.2">
  <defs>
    <style>
      .cls-1 {
        fill: #000000;
      }

      .cls-2 {
        fill: #fff;
      }

      .cls-3 {
        fill: #000000;
      }

      .cls-4 {
        fill: #000000;
      }

      .cls-5 {
        fill: #000000;
      }

      .cls-6 {
        fill: #000000;
      }

      .cls-7 {
        fill: #000000;
      }
    </style>
  </defs>
  <g id="Layer_1-2" data-name="Layer 1">
    <g>
      <path class="cls-2" d="M8.89,87.79c-1.09,0-1.99-.29-2.72-.77-2-.72-3.02-2.65-3.05-4.61-1.18-.15-2.31-.66-3.13-1.54v9.34h13.2l.15-.58-2.02-2.44c-.67.38-1.49.6-2.44.6Z"/>
      <path class="cls-4" d="M18.58,84.66l-4.42,1.83-.58-.66c-.33.18-.69.31-1.09.41-.42.49-.96.89-1.6,1.16l2.31,2.8h.24l6.46-3-1.32-2.54Z"/>
      <path class="cls-6" d="M55.2,35.48c-.07.21-.15.21-.24,0-.69-1.23-.68-2.84,0-4.08.07-.21.15-.21.24,0v4.08Z"/>
      <path class="cls-1" d="M55.2,31.4h-.24c-.67-.31-.66-.89,0-1.2h.24v1.2Z"/>
      <path class="cls-1" d="M55.2,36.68h-.24c-.6-.43-.61-.77,0-1.2h.24v1.2Z"/>
      <path class="cls-4" d="M52.31,49.89c.51.59-4.03,10.56-5.15,11.72-.45-.36-2.58-1.21-2.5-1.74,1.92-3.38,3.81-6.93,4.78-10.72l2.87.73Z"/>
      <path class="cls-4" d="M37.56,69.8l2.27,2.04c-2.85,2.58-5.59,6.12-8.75,8.29-.83.57-2.36-1.83-2.18-2.17l8.66-8.16Z"/>
      <path class="cls-5" d="M54.96,36.68c0,.32,0,.64,0,.96l-3.12-.24c.53-3.91.24-7.99-.48-11.88l3.12-.6c.21,1.76.41,3.5.48,5.28.02.4-.01.8,0,1.2.04,1.35.02,2.73,0,4.08,0,.4,0,.8,0,1.2Z"/>
    </g>
    <path class="cls-7" d="M54.96,0c3.87,0,6.82,2.61,8.08,6.18.84,2.39.79,6.92-.06,9.3-1.3,3.63-4.53,6.83-8.61,6.51-.69.04-1.4.07-2.11.12h-.23c-4.98.02-8.68-4.05-8.8-8.94.1-1.27-.14-2.75,0-4-.04-4.49,3.99-9.12,8.57-9.05.19-.08.42-.12.7-.12h2.46Z"/>
    <path class="cls-2" d="M54.96,0h8.68v22.11h-9.27c-.1-.03-.1-.07,0-.12,11.07-.65,12.27-18.35,2.91-21.44-.76-.25-1.55-.36-2.32-.55Z"/>
    <path class="cls-2" d="M51.79,0c.1.03.1.07,0,.12-4.66.55-8.05,4.43-8.57,9.05V0h8.57Z"/>
    <path class="cls-2" d="M52.03,22.11h-8.8v-8.94c.52,2.75,1.39,5.21,3.65,6.99,1.49,1.18,3.33,1.6,5.15,1.95Z"/>
    <polygon class="cls-3" points="52.5 0 51.79 .12 51.79 0 52.5 0"/>
  </g>
</svg>