<?xml version="1.0" encoding="UTF-8"?>
<svg id="Layer_2" data-name="Layer 2" xmlns="http://www.w3.org/2000/svg" viewBox="0 0 144.24 166.8">
  <defs>
    <style>
      .cls-1 {
        fill: #272425;
      }

      .cls-2 {
        fill: #939598;
      }

      .cls-3 {
        fill: #616264;
      }

      .cls-4 {
        fill: #c1c3c5;
      }
    </style>
  </defs>
  <g id="Layer_1-2" data-name="Layer 1">
    <g>
      <path class="cls-1" d="M80.4,0c.66.1,1.3.18,1.92.24.46-.07.94-.15,1.44-.24.08,0,.16,0,.24,0,.03,0,.26.23.58.25,1.3.11,2.67.09,3.98.23-.37.75.12,3.1-.82,3.11-3.69-.63-7.45-.45-11.18-.47V0h3.84Z"/>
      <path class="cls-3" d="M82.32,0c.21.07.21.15,0,.24-.59,0-1.53.18-1.92-.24h1.92Z"/>
      <path class="cls-2" d="M83.76,0c-.26.4-.99.23-1.44.24V0h1.44Z"/>
      <path class="cls-4" d="M.24,90h-.24v-1.2h.24c.47.39.47.81,0,1.2Z"/>
      <path class="cls-1" d="M140.19,33.73c.15.15.3.28.45.44.58.63,1.1,1.29,1.59,1.96,1.01-1.26,1.95-2.52,1.96-2.68.08-.87-3.27-5.08-3.91-6.08-.4.47-2.29,1.54-2.26,2l2.55,3.88-.38.48Z"/>
      <path class="cls-1" d="M142.16,131.98c-.55.82-1.16,1.56-1.83,2.21l.27.34-2.84,3.6c-.04.32,1.74,1.48,2.05,2.03.37,0,4.45-5.3,4.44-5.88l-1.94-2.53c-.05.08-.09.16-.14.23Z"/>
      <path class="cls-1" d="M87.6,166.32l-12,.48c.17-.88-.49-2.92.6-3.12,1.78-.33,4.96.09,6.97.01.74-.03,3.41-.56,3.81-.46.55.13.41,2.44.62,3.09Z"/>
      <polygon class="cls-1" points="4.56 65.52 3.15 77.14 .24 77.04 1.68 65.04 4.56 65.52"/>
      <path class="cls-1" d="M18.22,34.07l-2.6-1.45c-.09-.13.02-.32.08-.47.42-1.06,3.86-5.15,4.82-6.23.38-.43,1.9-2.24,2.15-2.41.91-.63,2.04,1.04,2.52,1.79l-6.96,8.78Z"/>
      <path class="cls-1" d="M43.43,11.51l-9.51,5.99c-.36.05-1.99-2.13-1.73-2.59.08-.15,2.36-1.62,2.77-1.91,2.29-1.59,4.71-3.02,7.16-4.36.14.58,1.56,2.5,1.31,2.87Z"/>
      <path class="cls-1" d="M33.04,148.82c.55-.15,8.15,5.84,9.57,6.21l-1.33,2.54-9.62-6.24c-.77-.36,1.15-2.45,1.38-2.51Z"/>
      <path class="cls-1" d="M7.66,54.46c-.28.2-2.18-.45-2.56-.64-.28-.14-.32.06-.3-.4.05-1.07,2.03-5.51,2.59-6.78.47-1.07,1.1-2.67,1.66-3.61.12-.21-.04-.36.41-.31.47.06,2.55,1.06,2.51,1.52l-4.31,10.22Z"/>
      <path class="cls-1" d="M4.57,112.09c.73.11,2.32-1.05,2.75-.49l4.17,10.02c.17.81-2.35,1.94-2.73,1.51-.6-1.35-4.72-10.42-4.19-11.04Z"/>
      <path class="cls-1" d="M.24,88.8c.96-.06,1.98.2,2.88-.24l1.22,11.62-2.89.62c-.46-3.55-1.22-7.2-1.2-10.8,0-.4,0-.8,0-1.2Z"/>
      <path class="cls-1" d="M120.72,14.4c-.14-.19,1.22-2.53,1.59-2.6.71-.13,8.45,5.53,9.33,6.45.14.15.39.24.26.49l-1.95,2.14c-2.87-2.4-5.84-4.84-9.24-6.47Z"/>
      <path class="cls-1" d="M111.6,6.24c.09.13-1.02,2.82-1.32,2.84l-10.93-3.57.86-2.89,11.38,3.61Z"/>
      <path class="cls-1" d="M129.24,145.92c.53.75,2.22,1.93,1.58,2.77l-9.62,6.24-1.33-2.54,9.38-6.47Z"/>
      <path class="cls-1" d="M24.72,141.12c-.65-.1-2.05,1.93-2.28,1.92-1.4-1.72-2.93-3.32-4.29-5.06-.63-.81-2.55-3.13-2.84-3.89-.37-.98,1.89-2.14,2.21-1.98l7.2,9.01Z"/>
      <path class="cls-1" d="M63.84,165.6l-11.38-2.91c-.76-.5.6-2.01.59-2.84l11.04,2.75c.47.3-.37,2.35-.25,3.01Z"/>
      <path class="cls-1" d="M65.03,4.07l-10.89,2.63c-.46-.12-.82-2.21-1.11-2.72l11.42-2.96c.47.09.66,2.56.58,3.05Z"/>
      <path class="cls-1" d="M110.64,160.32c-3.79,1.26-7.52,3.09-11.5,3.59l-.48-2.85,10.67-3.59,1.32,2.84Z"/>
    </g>
  </g>
</svg>