<?xml version="1.0" encoding="UTF-8"?>
<svg id="Layer_2" data-name="Layer 2" xmlns="http://www.w3.org/2000/svg" viewBox="0 0 113.51 167.74">
  <defs>
    <style>
      .cls-1 {
        fill: #646567;
      }

      .cls-2 {
        fill: #272425;
      }

      .cls-3 {
        fill: #262324;
      }

      .cls-4 {
        fill: #282526;
      }
    </style>
  </defs>
  <g id="Layer_1-2" data-name="Layer 1">
    <g>
      <path class="cls-2" d="M54.36,0c.46.2.98.2,1.44,0h4.32c.62.21,1.3.2,1.92,0h.48l.24,3.12c-4.01,0-8.02-.09-12,.24.17-.91-.88-2.68.22-3l1.94-.35h1.44Z"/>
      <path class="cls-4" d="M1.55,40.33l2.59-11.22c.64.28,2.85.3,2.92,1.08-.57,1.5-1.86,10.01-2.52,10.61-.43.39-2.31-.41-2.99-.46Z"/>
      <path class="cls-4" d="M.05,124.75v-11.52c.69.13,2.84-.35,3.09.39-.22,1.59.44,10.17-.07,10.9-.33.47-2.35.12-3.02.22Z"/>
      <rect class="cls-4" x=".05" y="68.59" width="3.12" height="11.28"/>
      <path class="cls-4" d="M.05,46.27h3.12v10.92c0,.59-2.57.3-3.12.36v-11.28Z"/>
      <path class="cls-4" d="M.05,90.91c.55.06,3.12-.23,3.12.36v10.92H.05v-11.28Z"/>
      <path class="cls-4" d="M.05,135.79h3.12v10.92c0,.59-2.57.3-3.12.36v-11.28Z"/>
      <path class="cls-1" d="M62.04,0c-.38.4-1.55.4-1.92,0h1.92Z"/>
      <path class="cls-1" d="M55.8,0c-.24.39-1.21.39-1.44,0h1.44Z"/>
      <path class="cls-2" d="M85.55,8.86c-.37.26-2.84-1.22-3.42-1.47-2.46-1.03-5-1.88-7.61-2.48l-.19-.23.68-2.77c2.15.52,4.29,1.15,6.36,1.92,1.14.42,4.36,1.63,5.16,2.29.34.28.15.24.05.51-.26.73-.88,1.42-1.03,2.23Z"/>
      <path class="cls-2" d="M108.85,47.51l-2.62-11.4,2.73-1.04c.71.06,2.74,10.5,2.93,11.86-.08.45-2.53.6-3.05.58Z"/>
      <path class="cls-2" d="M38.51,3.37l.97,2.87c-3.91,1.02-7.43,3.08-11.04,4.8-.16-1.06-1.29-1.74-1.19-2.86l11.25-4.81Z"/>
      <path class="cls-2" d="M96.72,13.68c3.04,2.81,5.41,6.22,7.54,9.75.08.53-2.09,1.39-2.5,1.74-1.99-3.43-4.36-6.56-7.07-9.45l2.03-2.04Z"/>
      <path class="cls-2" d="M17.17,15.47c-.37-.24-.36-.05-.61.12-1.05.73-2.63,2.2-3.6,3.12-.42.39-3.26,3.3-4.42,4.74-.05.34-.1.67-.15,1.01l2.06,1.36,8.38-8.17c-.46-.39-1.28-1.92-1.65-2.17Z"/>
      <path class="cls-2" d="M113.16,59.28v12.24h-2.88c.14-4.1-.16-8.16-.24-12.24h3.12Z"/>
      <rect class="cls-3" x="110.28" y="83.52" width="2.88" height="12.24"/>
      <rect class="cls-3" x="110.28" y="107.76" width="2.88" height="12.24"/>
      <rect class="cls-3" x="110.28" y="132" width="2.88" height="12.24"/>
    </g>
    <path class="cls-4" d="M0,16.53V5.01c.69.13,2.84-.35,3.09.39-.22,1.59.44,10.17-.07,10.9C2.69,16.77.67,16.42,0,16.53Z"/>
    <path class="cls-4" d="M0,167.71v-11.52c.69.13,2.84-.35,3.09.39-.22,1.59.44,10.17-.07,10.9-.33.47-2.35.12-3.02.22Z"/>
    <path class="cls-4" d="M110.3,165.84v-11.52c.69.13,2.84-.35,3.09.39-.22,1.59.44,10.17-.07,10.9-.33.47-2.35.12-3.02.22Z"/>
  </g>
</svg>