<?xml version="1.0" encoding="UTF-8"?>
<svg id="Layer_2" data-name="Layer 2" xmlns="http://www.w3.org/2000/svg" viewBox="0 0 163.44 166.8">
  <defs>
    <style>
      .cls-1 {
        fill: #000000;
      }

      .cls-2 {
        fill: #000000;
      }

      .cls-3 {
        fill: #000000;
      }

      .cls-4 {
        fill: #000000;
      }

      .cls-5 {
        fill: #000000;
      }

      .cls-6 {
        fill: #000000;
      }

      .cls-7 {
        fill: #000000;
      }
    </style>
  </defs>
  <g id="Layer_1-2" data-name="Layer 1">
    <g>
      <path class="cls-3" d="M81.6,0v3.12c-3.9-.09-7.79.11-11.64.73-.89-.06-.66-2.41-.84-3.13,2.09-.11,4.15-.35,6.24-.48.33-.2.88-.18,1.2,0,.33-.2.88-.18,1.2,0,.53-.08,1.09-.16,1.68-.24h2.16Z"/>
      <path class="cls-3" d="M2.4,77.52c.24,0,.48-.01.72,0v12.24s-3.12,0-3.12,0v-.48c.09-.5.17-.98.24-1.44-.06-.6-.14-1.24-.24-1.92v-5.04c.1-.66.18-1.3.24-1.92-.18-.39-.18-.8,0-1.2.12-.6,1.51-.43,2.16-.24Z"/>
      <path class="cls-6" d="M2.4,77.52c-.69-.02-1.61-.17-2.16.24-.07.21-.15.21-.24,0v-.48c.75.1,1.83-.27,2.4.24Z"/>
      <path class="cls-2" d="M.24,87.84c-.07.21-.15.21-.24,0v-1.92c.42.39.24,1.32.24,1.92Z"/>
      <path class="cls-2" d="M0,80.88v-1.92c.07-.21.15-.21.24,0,0,.6.18,1.52-.24,1.92Z"/>
      <path class="cls-7" d="M79.44,0l-.59.25c-.36.03-.73-.02-1.09,0-.21-.07-.21-.15,0-.24h1.68Z"/>
      <path class="cls-4" d="M0,89.28v-1.44h.24c0,.45.16,1.18-.24,1.44Z"/>
      <path class="cls-5" d="M77.76,0v.24c-.4.02-.8-.02-1.2,0-.21-.07-.21-.15,0-.24h1.2Z"/>
      <path class="cls-1" d="M76.56,0v.24c-.4.02-.8-.02-1.2,0v-.24h1.2Z"/>
      <path class="cls-4" d="M.24,78.96h-.24v-1.2h.24c0,.4,0,.8,0,1.2Z"/>
      <path class="cls-3" d="M82.08,163.68v3.12s-12.48-.72-12.48-.72l.24-3.12c4.05.61,8.14.82,12.24.72Z"/>
      <path class="cls-3" d="M158.4,52.8l-2.88.96c-.49-1.69-1.15-3.36-1.88-4.96-.67-1.47-2.5-4.31-2.83-5.59-.22-.87,1.93-1.51,2.54-1.92l5.05,11.52Z"/>
      <polygon class="cls-3" points="158.64 113.52 153.71 124.8 153.48 125.02 150.98 123.82 155.76 112.56 158.64 113.52"/>
      <path class="cls-3" d="M10.1,41.98c-.1-.32.05-.59.17-.87.82-1.93,3.35-5.54,4.66-7.34.38-.52,1.5-2.34,2-2.33.21,0,2.28,1.46,2,1.99l-6.09,9.54c-.51.58-1.9-.98-2.74-.98Z"/>
      <path class="cls-3" d="M163.44,89.28l-1.48,12.08-.31.35c-.59-.38-2.74-.15-2.76-1l1.43-11.66,3.12.24Z"/>
      <path class="cls-3" d="M116.88,156.01l10.01-5.74c.52-.35,1.95,2.09,1.94,2.25-.05.66-9.33,5.78-10.64,6.33-.29-.02-1.45-2.65-1.31-2.84Z"/>
      <path class="cls-3" d="M144.39,133.7c.23-.04,2.49,1.63,2.49,1.78-.99,1.11-7.76,9.43-8.51,9.24l-1.79-2.25,7.81-8.77Z"/>
      <path class="cls-3" d="M105.36,6.24l-11.75-2.4.24-3.12,12,2.52c.53.4-.64,2.3-.49,3Z"/>
      <path class="cls-3" d="M27.24,142.8l9.38,7.43-1.57,2.54c-.34.16-5.46-3.9-6.12-4.46s-3.11-2.58-3.38-3.12c-.3-.58,1.45-1.71,1.69-2.39Z"/>
      <path class="cls-3" d="M12.42,124.11c.28-.04.48-.06.66.2l6.03,9.36c.32.49-1.52,1.83-1.76,1.9-.56.15-.82-.37-1.13-.71-2.23-2.51-3.93-6.26-5.86-9.04-.25-.72,1.61-1.64,2.06-1.71Z"/>
      <path class="cls-3" d="M128.37,13.71c.27.45-1.36,2.62-1.73,2.59l-10.21-6.05,1.28-2.56,10.66,6.03Z"/>
      <path class="cls-3" d="M137.79,21.87c.29-.17.58.03.82.2.62.41,2.14,2.11,2.75,2.77s4.96,5.66,5.01,6.05l-2.26,2-8.03-9c.51-.18,1.59-1.94,1.71-2.01Z"/>
      <path class="cls-3" d="M4.79,101.52l3.09,11.4c-.02.16-2.29,1.08-2.5,1.08-.63,0-1.15-2.26-1.37-2.94-.96-2.93-1.57-5.96-2.34-8.94l3.12-.6Z"/>
      <path class="cls-3" d="M161.76,64.56c.69,4.13,1.48,8.27,1.44,12.48l-2.88.24-1.44-12.24,2.88-.48Z"/>
      <polygon class="cls-3" points="105.83 160.57 106.56 163.44 94.33 165.83 94.11 162.99 105.83 160.57"/>
      <path class="cls-3" d="M7.66,54.02c.35.48-3.29,9.89-2.98,11.51-.13.23-2.57-.23-2.77-.37-.43-.28.28-2.59.41-3.2.25-1.16,2.2-8.78,2.83-8.87.39.22,2.37.74,2.51.93Z"/>
      <path class="cls-3" d="M58.32,160.56c-.46.56-.48,2.9-1.27,2.84-2.8-.91-5.62-1.81-8.32-2.97s-3.61-.82-1.9-3.93c3.84,1.16,7.5,3.19,11.5,4.07Z"/>
      <polygon class="cls-3" points="57.84 6.48 46.69 10.57 45.38 8.04 57 3.36 57.84 6.48"/>
      <path class="cls-3" d="M34.68,14.17c.35.68,1.81,1.97,1.45,2.63l-9.13,7.43c-.32-.58-1.96-1.88-1.69-2.39l9.38-7.67Z"/>
    </g>
  </g>
</svg>