<?xml version="1.0" encoding="UTF-8"?>
<svg id="Layer_2" data-name="Layer 2" xmlns="http://www.w3.org/2000/svg" viewBox="0 0 165.65 284.71">
  <defs>
    <style>
      .cls-1 {
        fill: #272425;
      }

      .cls-2 {
        fill: #919396;
      }

      .cls-3 {
        fill: #939598;
      }

      .cls-4 {
        fill: #262324;
      }

      .cls-5 {
        fill: #626365;
      }

      .cls-6 {
        fill: #cccdcf;
      }

      .cls-7 {
        fill: #282526;
      }
    </style>
  </defs>
  <g id="Layer_1-2" data-name="Layer 1">
    <g>
      <path class="cls-1" d="M.24,76.32c.11-2.93.4-5.86.93-8.74.31-.45,2.25.36,2.91.1-.36,3.98-.97,7.98-.96,12l-3.12-.24v-.48c.09-.5.17-.98.24-1.44-.19-.36-.19-.84,0-1.2Z"/>
      <path class="cls-1" d="M77.04,0c.5.09.98.17,1.44.24.45-.19,1-.19,1.44,0,2.74.09,5.46.46,8.16.96l-.49,2.87c-3.9-.38-7.8-1.17-11.75-.95V0h1.2Z"/>
      <path class="cls-2" d="M79.92,0v.24c-.48-.02-.96,0-1.44,0-.21-.07-.21-.15,0-.24h1.44Z"/>
      <path class="cls-5" d="M78.48,0v.24c-.45,0-1.18.16-1.44-.24h1.44Z"/>
      <path class="cls-3" d="M0,78.96v-1.44c.07-.21.15-.21.24,0,0,.45.16,1.18-.24,1.44Z"/>
      <path class="cls-6" d="M.24,77.52h-.24v-1.2h.24c-.02.4,0,.8,0,1.2Z"/>
      <path class="cls-4" d="M122.47,144.65c.87-.5,1.9-.73,2.92-.69,1.39-2.07,5.12-6.03,5.41-8.25.06-.45-.09-.28-.3-.41-.38-.22-1.85-.97-2.18-.88-.23.07-2.18,3.53-2.6,4.14-.59.84-3.84,4.59-3.94,4.96-.09.32-.08.35.13.62.03.03.27.26.57.52Z"/>
      <path class="cls-4" d="M120.84,17.05l-2.04,2.27c.45.3,4.58,4.17,6.26,6.06.33.19.64.41.91.7.49.45.83.99,1.03,1.61.16.31.28.63.35.96.03.02.06.03.09.05v-1.23c0-.36,2.08-1.24,1.92-1.67l-8.52-8.75Z"/>
      <rect class="cls-7" x="135.48" y="155.29" width="3.12" height="12"/>
      <rect class="cls-7" x="135.48" y="59.29" width="3.12" height="12"/>
      <rect class="cls-7" x="135.48" y="35.29" width="3.12" height="12"/>
      <rect class="cls-7" x="136.56" y="224.69" width="3.12" height="12"/>
      <rect class="cls-7" x="135.48" y="83.29" width="3.12" height="12"/>
      <rect class="cls-7" x="135.48" y="107.29" width="3.12" height="12"/>
      <rect class="cls-7" x="135.48" y="131.29" width="3.12" height="12"/>
      <rect class="cls-7" x="135.48" y="11.29" width="3.12" height="12"/>
      <rect class="cls-7" x="135.48" y="179.29" width="3.12" height="12"/>
      <path class="cls-1" d="M8.16,114.48l4.57,10.7c.06.45-.09.28-.31.41-.68.4-1.55.64-2.22,1.11l-4.92-10.91c0-.73,2.27-1.06,2.88-1.31Z"/>
      <path class="cls-1" d="M99.6,4.8c1.47.13,11.25,4.77,11.25,5.4-.74.64-.97,2.57-2.14,2.18-1.09-1.25-9.61-4.34-9.97-4.94-.16-.26,1-2.08.86-2.65Z"/>
      <path class="cls-1" d="M44.86,160.06c-.64.46-9.46-5.08-10.67-5.98-.07-.12,1.24-2.31,1.36-2.38.51-.3,8.91,5.46,10.43,5.73l-1.12,2.63Z"/>
      <path class="cls-1" d="M40.78,8.66c.12.08.96,2.24,1.22,2.62-3.52,1.61-6.57,4.09-9.72,6.25-.35,0-2.32-2.04-1.58-2.54,1.97-1.47,3.94-2.98,6.04-4.28.57-.36,3.63-2.34,4.04-2.04Z"/>
      <path class="cls-1" d="M133.45,43.64c.58.73,1.16,1.47,1.69,2.24.14.21.27.43.4.65.5-.05.85-.11.92-.2.4-3.16-.45-6.31-1.1-9.38-.42.07-2.78.62-2.86.74-.23.33,1.2,4.95.95,5.94Z"/>
      <path class="cls-1" d="M19.2,135.12c2.11,3.34,4.9,6.22,7.68,9l-2.07,2.02c-.32.06-2.25-2-2.61-2.38-.83-.88-5.1-5.75-5.31-6.48-.23-.79,1.76-1.67,2.3-2.17Z"/>
      <polygon class="cls-1" points="3.36 91.44 4.82 103.04 2.06 103.7 .24 91.68 3.36 91.44"/>
      <path class="cls-1" d="M91.92,161.52c-.16.89,1.18,2.61.32,3.08-1.15.62-6.36,1.48-7.91,1.69-1.3.17-2.62.32-3.93.28l-.24-2.88,11.76-2.16Z"/>
      <path class="cls-1" d="M103.92,160.08l-1.2-2.88c1.63-.03,9.82-5.97,10.32-5.66.13.08,1.94,2.42,1.09,2.55l-10.21,5.99Z"/>
      <path class="cls-1" d="M68.64,163.44c-.2.59-.09,2.97-.59,3.06l-11.89-2.1.86-2.89,11.62,1.94Z"/>
      <path class="cls-1" d="M21.26,23.76c.33-.08,2.32,1.57,2.24,2l-7.06,9.26c-.81-.63-1.88-.92-2.48-1.78l7.3-9.48Z"/>
      <polygon class="cls-1" points="10.8 45.12 6.72 56.4 3.84 55.68 7.94 44.18 10.8 45.12"/>
      <path class="cls-1" d="M64.07,3.83c-3.87.52-7.69,1.4-11.39,2.65-.11-.83-1.35-2.57-.44-3.08.59-.34,3.24-.95,4.11-1.17,2.35-.61,4.76-.99,7.14-1.45.46.08.51,2.53.58,3.05Z"/>
    </g>
    <rect class="cls-7" x="136.56" y="270.1" width="3.12" height="12"/>
    <rect class="cls-7" x="136.56" y="246.1" width="3.12" height="12"/>
    <rect class="cls-7" x="138.79" y="277.59" width="12" height="3.12" transform="translate(-160.88 205.29) rotate(-49)"/>
    <rect class="cls-7" x="154.54" y="259.48" width="12" height="3.12" transform="translate(-141.8 210.94) rotate(-49)"/>
    <rect class="cls-7" x="135.48" y="199.78" width="3.12" height="12"/>
  </g>
</svg>