<?xml version="1.0" encoding="UTF-8"?>
<svg id="Layer_2" data-name="Layer 2" xmlns="http://www.w3.org/2000/svg" viewBox="0 0 107.12 244.64">
  <defs>
    <style>
      .cls-1 {
        fill: #272425;
      }

      .cls-2 {
        fill: #282526;
      }
    </style>
  </defs>
  <g id="Layer_1-2" data-name="Layer 1">
    <g>
      <path class="cls-1" d="M56.91,78.89c3.27-.14,3.65-.39,3.36,3.12h-12.24c.06-.54-.23-3.12.36-3.12h5.4v-9.36c.54.06,3.12-.23,3.12.36v9Z"/>
      <path class="cls-2" d="M53.79,33.77v-12.24c.66.11,2.68-.25,3.02.22.53.75-.16,9.96.07,11.62-.24.74-2.41.26-3.09.39Z"/>
      <path class="cls-2" d="M56.91,52.64c-.26-1.02-.23-2.13.09-3.14.04-1.89.01-3.45-.19-3.74-.33-.47-2.35-.12-3.02-.22v12.24c.68-.13,2.84.35,3.09-.39-.09-.68-.03-2.63.03-4.74Z"/>
      <path class="cls-2" d="M12.27,82.01H.03c.11-.66-.25-2.68.22-3.02.75-.53,9.96.16,11.62-.07.74.24.26,2.41.39,3.09Z"/>
      <path class="cls-2" d="M84.27,82.01h-12.24c.11-.66-.25-2.68.22-3.02.75-.53,9.96.16,11.62-.07.74.24.26,2.41.39,3.09Z"/>
      <path class="cls-2" d="M53.79,98.8v-12.24c.66.11,2.68-.25,3.02.22.53.75-.16,9.96.07,11.62-.24.74-2.41.26-3.09.39Z"/>
      <path class="cls-2" d="M53.79,122.8v-12.24c.66.11,2.68-.25,3.02.22.53.75-.16,9.96.07,11.62-.24.74-2.41.26-3.09.39Z"/>
      <path class="cls-2" d="M53.79,146.8v-12.24c.66.11,2.68-.25,3.02.22.53.75-.16,9.96.07,11.62-.24.74-2.41.26-3.09.39Z"/>
      <path class="cls-2" d="M53.79,170.8v-12.24c.66.11,2.68-.25,3.02.22.53.75-.16,9.96.07,11.62-.24.74-2.41.26-3.09.39Z"/>
      <path class="cls-2" d="M53.79,194.8v-12.24c.66.11,2.68-.25,3.02.22.53.75-.16,9.96.07,11.62-.24.74-2.41.26-3.09.39Z"/>
    </g>
    <path class="cls-2" d="M37.24,82.01h-12.24c.11-.66-.25-2.68.22-3.02.75-.53,9.96.16,11.62-.07.74.24.26,2.41.39,3.09Z"/>
    <path class="cls-2" d="M107.09,82.01h-12.24c.11-.66-.25-2.68.22-3.02.75-.53,9.96.16,11.62-.07.74.24.26,2.41.39,3.09Z"/>
    <path class="cls-2" d="M56.91,7.14c-.26-1.02-.23-2.13.09-3.14.04-1.89.01-3.45-.19-3.74-.33-.47-2.35-.12-3.02-.22v12.24c.68-.13,2.84.35,3.09-.39-.09-.68-.03-2.63.03-4.74Z"/>
    <path class="cls-2" d="M53.79,222.03v-12.24c.66.11,2.68-.25,3.02.22.53.75-.16,9.96.07,11.62-.24.74-2.41.26-3.09.39Z"/>
    <path class="cls-2" d="M53.79,244.6v-12.24c.66.11,2.68-.25,3.02.22.53.75-.16,9.96.07,11.62-.24.74-2.41.26-3.09.39Z"/>
  </g>
</svg>