<?xml version="1.0" encoding="UTF-8"?>
<svg id="Layer_2" data-name="Layer 2" xmlns="http://www.w3.org/2000/svg" viewBox="0 0 135.82 162.34">
  <defs>
    <style>
      .cls-1 {
        fill: #272425;
      }

      .cls-2 {
        fill: #272424;
      }

      .cls-3 {
        fill: #c8c9cb;
      }

      .cls-4 {
        fill: #282526;
      }
    </style>
  </defs>
  <g id="Layer_1-2" data-name="Layer 1">
    <g>
      <rect class="cls-4" y="23.73" width="3.12" height="12"/>
      <rect class="cls-4" y="43.99" width="3.12" height="12"/>
      <rect class="cls-4" y="64.11" width="3.12" height="12"/>
      <rect class="cls-4" y="83.21" width="3.12" height="12"/>
      <path class="cls-3" d="M64.81,162.1v.24h-4.32v-.24c1.25-.69,3.05-.68,4.32,0Z"/>
      <path class="cls-1" d="M118.54,137.78l-.05-2.71c.18.03.42.22.58.18.4-.1,2.14-3.79,2.44-4.47,1.36-3.09,2.33-6.36,3.23-9.62-.2-.37-.43,0-.61.12-.44.27-3.26,2.12-3.37,2.29-.27.44-1,3.49-1.38,4.44-.78,1.94-1.75,3.79-2.72,5.64l.39.72c-.52.04-1.45-.18-1.64.42l.05,3.06c1.02-.38,2.09-.38,3.09-.08Z"/>
      <path class="cls-2" d="M60.49,162.1c-3.39-.09-6.73-.45-10.08-.96.25-.56.37-2.97.83-3.06,1.98.35,4.01.74,6.01.9,1.36.11,3.19.22,4.55.25.77.02,3.82-.31,4.06-.23.74.24.27,2.42.4,3.1-.48.01-.96-.02-1.44,0-1.42.05-2.9.04-4.32,0Z"/>
      <rect class="cls-4" x="132.7" y="20.71" width="3.12" height="12"/>
      <rect class="cls-4" x="132.7" y="41.98" width="3.12" height="12"/>
      <rect class="cls-4" x="132.7" y="60.48" width="3.12" height="12"/>
      <rect class="cls-4" x="132.7" y="84.48" width="3.12" height="12"/>
      <rect class="cls-4" x="132.7" y="103.2" width="3.12" height="12"/>
      <rect class="cls-4" x="132.7" y="126.43" width="3.12" height="12"/>
      <path class="cls-1" d="M17.05,140.63c-3.03-2.72-6.21-5.37-8.63-8.69.83-.26,1.69-1.82,2.59-1.52.25.08,2.99,3.33,3.59,3.92,1.4,1.36,2.91,2.64,4.42,3.87.19.28-1.45,2.58-1.97,2.43Z"/>
      <path class="cls-1" d="M39.82,154.45c.38.61-.87,2.12-.95,2.83-.71.5-9.68-5.2-10.78-6.34l1.68-2.28.32.02c1.86,1.36,3.75,2.7,5.75,3.85.63.36,3.85,1.72,3.97,1.91Z"/>
      <path class="cls-1" d="M107.45,144.83l2.24,2.02c-2.84,2.93-5.85,5.73-9.23,8.04l-1.8-2.28,8.79-7.78Z"/>
      <path class="cls-1" d="M3.6,106.97l1.94,11.6-2.9.88-2.13-11.86c.14-.61,2.44-.31,3.09-.62Z"/>
      <path class="cls-1" d="M88.81,154.71c.11.82.75,1.51,1.02,2.24.1.28.28.23-.05.51-.64.54-4.37,1.93-5.4,2.29-.8.28-5.81,1.94-6.12,1.67l-.46-2.85,11.01-3.87Z"/>
    </g>
    <rect class="cls-4" x="132.7" y="146.39" width="3.12" height="12"/>
    <path class="cls-1" d="M131.33,103.2l2.93.73c-1.14,3.92-2.48,7.81-4.37,11.43l-2.66-1.17,4.11-11Z"/>
    <rect class="cls-4" y="2.78" width="3.12" height="12"/>
    <rect class="cls-4" x="132.7" width="3.12" height="12"/>
  </g>
</svg>