<?xml version="1.0" encoding="UTF-8"?>
<svg id="Layer_2" data-name="Layer 2" xmlns="http://www.w3.org/2000/svg" viewBox="0 0 136.99 160.44">
  <defs>
    <style>
      .cls-1 {
        fill: #000000;
      }
    </style>
  </defs>
  <g id="Layer_1-2" data-name="Layer 1">
    <g>
      <path class="cls-1" d="M30.35,126.87c-.13-.22-.03-.48.09-.68l6.84-9.12,2.53,1.67-7.09,9.5c-.24.13-2.3-1.25-2.37-1.37Z"/>
      <polygon class="cls-1" points="25.87 133.75 28.14 135.76 20.83 145.26 18.58 143.26 25.87 133.75"/>
      <path class="cls-1" d="M74.87,86.06l7.45,8.85-2.16,2.13-7.71-8.95c-.24-.65,2.01-2.23,2.41-2.03Z"/>
      <path class="cls-1" d="M95.42,115.23l-7.41-8.91c-.07-.17-.12-.34-.03-.52.06-.11,1.84-1.53,1.96-1.56.59-.14,6.92,8.1,7.99,9.06-.34.37-2.21,2.11-2.51,1.93Z"/>
      <path class="cls-1" d="M102.21,117.62l7.69,9.09c-.55.5-1.93,2.25-2.68,1.72l-7.2-8.53c-.26-.78,1.56-1.83,2.19-2.28Z"/>
      <path class="cls-1" d="M14.7,151.25l-7.84,9.19-2.18-1.73,7.74-8.98c.59-.24,1.54,1.37,2.28,1.53Z"/>
      <path class="cls-1" d="M136.99,157.61c-.74.14-1.72,1.74-2.3,1.49l-7.59-9.12,2.21-1.69,7.68,9.32Z"/>
      <path class="cls-1" d="M113.56,131.47l7.72,8.87c.12.56-1.71,1.71-2.14,2.1l-7.79-9.07,2.21-1.89Z"/>
    </g>
    <path class="cls-1" d="M43.03,111.44l9-11.96c.48.3,2.33,1.42,2.25,1.95-2.43,2.76-4.48,6.46-6.92,9.12-.21.23-.58.11-.68.21-.16.18-.02.67-.05.67h-3.6Z"/>
    <path class="cls-1" d="M59.31,92.45l9-11.96c.48.3,2.33,1.42,2.25,1.95-2.43,2.76-4.48,6.46-6.92,9.12-.21.23-.58.11-.68.21-.16.18-.02.67-.05.67h-3.6Z"/>
    <path class="cls-1" d="M97.38,43.27c-.13-.22-.03-.48.09-.68l6.84-9.12,2.53,1.67-7.09,9.5c-.24.13-2.3-1.25-2.37-1.37Z"/>
    <polygon class="cls-1" points="90.03 52.42 92.3 54.44 84.99 63.93 82.73 61.94 90.03 52.42"/>
    <path class="cls-1" d="M77.65,73.08l-7.18,9.71-2.3-1.57,7.1-9.5c.57-.28,1.64,1.26,2.38,1.36Z"/>
    <path class="cls-1" d="M110.06,27.84l9-11.96c.48.3,2.33,1.42,2.25,1.95-2.43,2.76-4.48,6.46-6.92,9.12-.21.23-.58.11-.68.21-.16.18-.02.67-.05.67h-3.6Z"/>
    <path class="cls-1" d="M121.69,11.96l9-11.96c.48.3,2.33,1.42,2.25,1.95-2.43,2.76-4.48,6.46-6.92,9.12-.21.23-.58.11-.68.21-.16.18-.02.67-.05.67h-3.6Z"/>
    <path class="cls-1" d="M2.43,3.84l7.45,8.85-2.16,2.13L.02,5.87c-.24-.65,2.01-2.23,2.41-2.03Z"/>
    <path class="cls-1" d="M19.03,28.33l-7.41-8.91c-.07-.17-.12-.34-.03-.52.06-.11,1.84-1.53,1.96-1.56.59-.14,6.92,8.1,7.99,9.06-.34.37-2.21,2.11-2.51,1.93Z"/>
    <path class="cls-1" d="M29.48,35.48l7.69,9.09c-.55.5-1.93,2.25-2.68,1.72l-7.2-8.53c-.26-.78,1.56-1.83,2.19-2.28Z"/>
    <path class="cls-1" d="M68.17,81.49c-.74.14-1.72,1.74-2.3,1.49l-7.59-9.12,2.21-1.69,7.68,9.32Z"/>
    <path class="cls-1" d="M44.8,53.93l7.72,8.87c.12.56-1.71,1.71-2.14,2.1l-7.79-9.07,2.21-1.89Z"/>
  </g>
</svg>