<?xml version="1.0" encoding="UTF-8"?>
<svg id="Layer_2" data-name="Layer 2" xmlns="http://www.w3.org/2000/svg" viewBox="0 0 128.75 165.8">
  <defs>
    <style>
      .cls-1 {
        fill: #000000;
      }

      .cls-2 {
        fill: #000000;
      }
    </style>
  </defs>
  <g id="Layer_1-2" data-name="Layer 1">
    <g>
      <path class="cls-2" d="M34.15,0c-.13.69.35,2.84-.39,3.09-1.66-.23-10.87.46-11.62-.07-.47-.33-.12-2.35-.22-3.02h12.24Z"/>
      <path class="cls-2" d="M58.15,0c-.13.69.35,2.84-.39,3.09-1.66-.23-10.87.46-11.62-.07-.47-.33-.12-2.35-.22-3.02h12.24Z"/>
      <path class="cls-2" d="M82.15,0c-.13.69.35,2.84-.39,3.09-1.66-.23-10.87.46-11.62-.07-.47-.33-.12-2.35-.22-3.02h12.24Z"/>
      <path class="cls-2" d="M106.15,0c-.13.69.35,2.84-.39,3.09-1.66-.23-10.87.46-11.62-.07-.47-.33-.12-2.35-.22-3.02h12.24Z"/>
      <rect class="cls-2" x="69.78" y="162.68" width="12" height="3.12"/>
      <rect class="cls-2" x="93.86" y="162.68" width="12" height="3.12"/>
      <rect class="cls-2" x="21.49" y="162.68" width="12" height="3.12"/>
      <rect class="cls-2" x="46.84" y="162.68" width="12" height="3.12"/>
      <path class="cls-1" d="M47.68,105.8l-2.57-1.89,7.16-8.99c.5-.77,2.73,1.32,2.68,1.61l-7.27,9.27Z"/>
      <path class="cls-1" d="M.19,160.31c-.12-.22-.01-.48.11-.68l7.01-8.67c.58-.4,2.82,1.29,2.34,2.02l-7.15,8.78c-.25.12-2.26-1.32-2.32-1.45Z"/>
      <path class="cls-1" d="M37.37,113.4c.47-.25,2.59,1.46,2.52,1.82l-7.6,9.25-2.23-1.87,7.31-9.2Z"/>
      <polygon class="cls-1" points="67.83 75.77 70.02 77.86 62.39 87.09 60.18 85.23 67.83 75.77"/>
      <path class="cls-1" d="M22.67,132.09c.19-.02,2.47,1.5,2.09,1.98l-7.53,9.08-2.23-1.87c1.17-.94,7.01-9.11,7.68-9.19Z"/>
    </g>
    <path class="cls-2" d="M12.4,0c-.13.69.35,2.84-.39,3.09-1.66-.23-10.87.46-11.62-.07C-.09,2.69.26.67.16,0h12.24Z"/>
    <rect class="cls-2" x="114.23" y="162.68" width="12" height="3.12"/>
    <rect class="cls-2" y="162.68" width="12" height="3.12"/>
    <path class="cls-2" d="M126.99,0c-.13.69.35,2.84-.39,3.09-1.66-.23-10.87.46-11.62-.07-.47-.33-.12-2.35-.22-3.02h12.24Z"/>
    <path class="cls-1" d="M93.42,48.79l-2.57-1.89,7.16-8.99c.5-.77,2.73,1.32,2.68,1.61l-7.27,9.27Z"/>
    <path class="cls-1" d="M83.1,56.38c.47-.25,2.59,1.46,2.52,1.82l-7.6,9.25-2.23-1.87,7.31-9.2Z"/>
    <polygon class="cls-1" points="113.56 18.76 115.76 20.85 108.12 30.08 105.92 28.21 113.56 18.76"/>
    <polygon class="cls-1" points="126.55 3.22 128.75 5.31 121.11 14.54 118.91 12.68 126.55 3.22"/>
  </g>
</svg>