<?xml version="1.0" encoding="UTF-8"?>
<svg id="Layer_2" data-name="Layer 2" xmlns="http://www.w3.org/2000/svg" viewBox="0 0 11.67 209.45">
  <defs>
    <style>
      .cls-1 {
        fill: #231f20;
      }
    </style>
  </defs>
  <g id="Layer_1-2" data-name="Layer 1">
    <g>
      <path class="cls-1" d="M6.35,208.2c-.14,0-.28,0-.42-.02-.31-.03-.61-.06-.91-.09-2.1-.19-3.69-1.94-3.69-4.06V10.34c-.03-.1-.04-.2-.04-.3,0,0-.03-3.68-.03-4.58,0-2.12,1.57-3.87,3.67-4.08l.99-.1c.15-.02.29-.02.44-.02,2.25,0,4.08,1.83,4.08,4.08v198.79c0,2.25-1.83,4.08-4.07,4.08Z"/>
      <path class="cls-1" d="M6.35,2.5c1.54,0,2.83,1.25,2.83,2.83v198.79c0,1.58-1.28,2.83-2.82,2.83-.1,0-.2,0-.3-.02-.31-.03-.62-.06-.93-.09-1.45-.13-2.55-1.36-2.55-2.82V10l-.04.03c0-1.44-.03-2.98-.03-4.58,0-1.46,1.1-2.69,2.55-2.83.33-.03.66-.07,1-.1.1-.01.2-.02.3-.02M6.35,0c-.19,0-.38,0-.57.03-.33.03-.66.07-.98.1C2.05.41-.01,2.7,0,5.46c0,.9.01,1.78.02,2.64,0,.66.01,1.31.01,1.94,0,.15.01.3.04.44v193.54c0,2.78,2.07,5.06,4.83,5.31.3.03.6.06.9.09.18.02.37.03.55.03,2.93,0,5.32-2.39,5.32-5.33V5.33c0-2.94-2.39-5.33-5.33-5.33h0Z"/>
    </g>
  </g>
</svg>