<?xml version="1.0" encoding="UTF-8"?>
<svg id="Layer_2" data-name="Layer 2" xmlns="http://www.w3.org/2000/svg" viewBox="0 0 119.78 209.86">
  <defs>
    <style>
      .cls-1 {
        fill: #231f20;
      }
    </style>
  </defs>
  <g id="Layer_1-2" data-name="Layer 1">
    <g>
      <path class="cls-1" d="M59.77,208.75c-10.77,0-20.71-2.57-29.57-7.64-8.86-5.06-16-12.03-21.22-20.7-5.22-8.68-7.87-18.52-7.87-29.24,0-7,1.01-13.61,2.99-19.65,1.99-6.04,4.85-11.58,8.49-16.45,3.65-4.88,8.24-9.14,13.63-12.65,3.02-1.97,6.29-3.67,9.76-5.1-2-.85-3.91-1.84-5.71-2.98-4.5-2.84-8.43-6.47-11.68-10.79-3.25-4.31-5.73-9.07-7.39-14.15-1.66-5.08-2.5-10.23-2.5-15.33,0-10.33,2.32-19.58,6.88-27.49,4.56-7.91,10.75-14.2,18.4-18.7,7.65-4.5,16.32-6.78,25.79-6.78s18.17,2.28,25.9,6.78c7.72,4.5,13.96,10.79,18.52,18.7,4.57,7.92,6.88,17.17,6.88,27.49,0,5.08-.84,10.19-2.51,15.19-1.67,5-4.16,9.66-7.4,13.87-3.24,4.21-7.16,7.83-11.66,10.77-2,1.31-4.15,2.45-6.43,3.42,3.29,1.39,6.47,3.05,9.47,4.95,5.38,3.41,10.05,7.62,13.87,12.5,3.81,4.88,6.83,10.41,8.99,16.45,2.15,6.05,3.25,12.77,3.25,19.96,0,10.92-2.65,20.85-7.87,29.53-5.22,8.67-12.36,15.59-21.22,20.56-8.86,4.97-18.89,7.49-29.81,7.49ZM59.77,101.86c-9.72,0-18.52,2.14-26.16,6.35-7.62,4.2-13.7,10.12-18.07,17.6-4.37,7.47-6.58,16.2-6.58,25.95,0,8.39,2.33,16.34,6.93,23.61,4.62,7.31,10.84,13.34,18.49,17.94,7.62,4.58,16.16,6.9,25.39,6.9s18.02-2.28,25.64-6.76c7.65-4.5,13.86-10.53,18.48-17.93,4.6-7.37,6.93-15.37,6.93-23.76,0-9.74-2.21-18.47-6.58-25.95-4.37-7.47-10.49-13.39-18.19-17.59-7.72-4.21-16.56-6.35-26.29-6.35ZM59.77,9.66c-8.25,0-15.72,1.94-22.21,5.75-6.5,3.82-11.68,8.97-15.4,15.31-3.72,6.33-5.6,13.51-5.6,21.34s1.88,15.25,5.6,21.47c3.71,6.23,8.89,11.24,15.39,14.87,6.49,3.63,13.98,5.48,22.24,5.48s15.99-1.8,22.49-5.34c6.48-3.53,11.66-8.49,15.38-14.72,3.71-6.23,5.6-13.56,5.6-21.76s-1.89-15-5.6-21.34c-3.73-6.34-8.91-11.49-15.4-15.31-6.5-3.82-14.05-5.75-22.46-5.75Z"/>
      <path class="cls-1" d="M59.77,2.21c9.31,0,17.76,2.21,25.35,6.63,7.59,4.42,13.63,10.52,18.12,18.3,4.49,7.78,6.73,16.76,6.73,26.94,0,5-.82,9.94-2.45,14.84-1.63,4.9-4.04,9.41-7.22,13.54-3.18,4.13-6.98,7.64-11.39,10.52-2.71,1.77-5.66,3.21-8.85,4.33-1.74-.65-3.53-1.23-5.35-1.73l-.98,3.46c2.21-.45,4.32-1.02,6.33-1.72,4.2,1.56,8.17,3.53,11.92,5.9,5.3,3.36,9.83,7.45,13.59,12.25,3.75,4.8,6.69,10.18,8.82,16.13,2.12,5.96,3.18,12.49,3.18,19.59,0,10.76-2.57,20.41-7.71,28.96-5.14,8.55-12.08,15.27-20.82,20.17-8.74,4.9-18.49,7.35-29.27,7.35s-20.29-2.49-29.02-7.49c-8.74-4.99-15.67-11.76-20.82-20.31-5.14-8.54-7.71-18.1-7.71-28.67,0-6.92.98-13.35,2.94-19.3,1.96-5.95,4.73-11.33,8.33-16.13,3.59-4.8,8.04-8.93,13.35-12.39,3.74-2.44,7.83-4.45,12.26-6.02,2.14.73,4.38,1.3,6.72,1.7l-.98-3.46c-1.97.51-3.89,1.09-5.74,1.76-2.93-1-5.67-2.31-8.22-3.92-4.41-2.78-8.2-6.29-11.39-10.52-3.18-4.22-5.59-8.83-7.22-13.83-1.63-4.99-2.45-9.99-2.45-14.98,0-10.18,2.24-19.16,6.73-26.94,4.49-7.78,10.49-13.88,18-18.3,7.51-4.42,15.92-6.63,25.22-6.63M59.77,94.99c8.65,0,16.32-1.82,23.02-5.47,6.69-3.65,11.96-8.69,15.8-15.13,3.83-6.43,5.76-13.87,5.76-22.33s-1.92-15.36-5.76-21.9c-3.84-6.53-9.1-11.76-15.8-15.7-6.7-3.93-14.37-5.91-23.02-5.91s-16.08,1.97-22.78,5.91c-6.7,3.94-11.96,9.17-15.8,15.7-3.84,6.53-5.76,13.83-5.76,21.9s1.92,15.61,5.76,22.04c3.83,6.44,9.1,11.52,15.8,15.27,6.69,3.75,14.28,5.62,22.78,5.62M59.77,201.3c9.63,0,18.37-2.3,26.2-6.91,7.84-4.61,14.12-10.71,18.86-18.3,4.73-7.59,7.1-15.7,7.1-24.35,0-9.98-2.25-18.82-6.73-26.51-4.49-7.68-10.7-13.69-18.61-18.01-7.92-4.32-16.86-6.48-26.82-6.48s-18.86,2.16-26.69,6.48c-7.84,4.32-14,10.33-18.49,18.01-4.49,7.68-6.73,16.52-6.73,26.51,0,8.64,2.36,16.71,7.1,24.2,4.73,7.49,11.02,13.59,18.86,18.3,7.84,4.71,16.49,7.06,25.96,7.06M59.77,0c-9.66,0-18.53,2.33-26.35,6.93-7.81,4.6-14.14,11.02-18.8,19.1-4.67,8.08-7.03,17.51-7.03,28.05,0,5.21.86,10.48,2.56,15.67,1.7,5.2,4.24,10.07,7.56,14.47,3.33,4.42,7.36,8.14,11.97,11.06,1.15.73,2.35,1.4,3.58,2.01-2.69,1.23-5.25,2.63-7.65,4.2-5.5,3.58-10.18,7.93-13.91,12.92-3.72,4.97-6.63,10.61-8.66,16.77-2.02,6.15-3.05,12.88-3.05,20,0,10.93,2.7,20.96,8.03,29.81,5.32,8.84,12.59,15.93,21.61,21.09,9.02,5.16,19.16,7.78,30.12,7.78s21.32-2.57,30.35-7.63c9.03-5.07,16.31-12.12,21.63-20.96,5.33-8.85,8.03-18.98,8.03-30.1,0-7.32-1.11-14.16-3.31-20.33-2.19-6.15-5.28-11.79-9.16-16.76-3.9-4.98-8.66-9.27-14.15-12.75-2.36-1.49-4.83-2.84-7.38-4.03,1.51-.75,2.96-1.57,4.34-2.47,4.6-3.01,8.62-6.71,11.93-11.02,3.32-4.3,5.86-9.08,7.57-14.19,1.7-5.11,2.56-10.34,2.56-15.54,0-10.52-2.37-19.96-7.03-28.05-4.67-8.08-11.03-14.51-18.93-19.1-7.9-4.6-16.8-6.93-26.46-6.93h0ZM59.77,92.77c-8.07,0-15.37-1.8-21.69-5.34-6.32-3.54-11.36-8.41-14.98-14.47-3.61-6.05-5.44-13.09-5.44-20.91s1.83-14.62,5.45-20.78c3.62-6.17,8.67-11.19,15.01-14.92,6.32-3.72,13.61-5.6,21.65-5.6s15.57,1.88,21.9,5.6c6.33,3.73,11.38,8.74,15.01,14.92,3.62,6.16,5.45,13.15,5.45,20.78,0,8-1.83,15.14-5.44,21.2-3.61,6.06-8.65,10.88-14.95,14.32-6.33,3.45-13.72,5.2-21.96,5.2h0ZM59.77,199.09c-9.02,0-17.37-2.27-24.82-6.74-7.5-4.5-13.6-10.42-18.13-17.58-4.49-7.09-6.76-14.84-6.76-23.02,0-9.55,2.16-18.09,6.43-25.39,4.27-7.3,10.2-13.08,17.65-17.19,7.47-4.12,16.09-6.21,25.63-6.21s18.2,2.09,25.76,6.21c7.52,4.1,13.49,9.88,17.76,17.18,4.27,7.31,6.43,15.85,6.43,25.39,0,8.18-2.28,15.98-6.77,23.17-4.52,7.25-10.61,13.15-18.1,17.56-7.45,4.39-15.89,6.61-25.08,6.61h0Z"/>
    </g>
  </g>
</svg>