<?xml version="1.0" encoding="UTF-8"?>
<svg id="Layer_2" data-name="Layer 2" xmlns="http://www.w3.org/2000/svg" viewBox="0 0 156.24 256.1">
  <defs>
    <style>
      .cls-1 {
        fill: #272324;
      }

      .cls-2, .cls-3 {
        fill: #231f20;
      }

      .cls-4 {
        fill: #fff;
      }

      .cls-5 {
        fill: #272425;
      }

      .cls-6 {
        fill: #262324;
        stroke: #231f20;
        stroke-miterlimit: 10;
        stroke-width: 2.25px;
      }

      .cls-7 {
        fill: #282526;
      }

      .cls-3 {
        font-family: LexendDeca-Regular, 'Lexend Deca';
        font-size: 42px;
      }
    </style>
  </defs>
  <g id="Layer_1-2" data-name="Layer 1">
    <path class="cls-2" d="M18.08,117.29l-10.95,14.55L0,115.09l6.77.83L15.16,47.11l4.54.55-8.39,68.8,6.77.83ZM63.19,21.67l51.98-.12v-6.82s15.77,9.07,15.77,9.07l-15.75,9.14-.02-6.83-51.98.12v-4.57ZM150.99,111.14l-.27,18.21-15.64-9.33,5.81-3.24c-15-18.54-43.85-29.96-68.57-17.62l-2.04-4.09c27.05-13.49,58.61-.88,74.64,19.45l6.06-3.38Z"/>
    <text class="cls-3" transform="translate(8.5 35.7)"><tspan x="0" y="0">1</tspan></text>
    <text class="cls-3" transform="translate(42.62 106.94)"><tspan x="0" y="0">2</tspan></text>
    <path class="cls-6" d="M53.45,17.85c-.05.06-.03.19.08.28.32.25.9.45,1.33.8,3.31,2.73,3.48,8.09.81,11.32-3.26,3.96-9.63,3.53-12.95-.13-.46-.51-2.24-2.55-.91-2.94.97-.29,1.59,1.28,2.19,1.93,1.18,1.28,2.91,2.2,4.66,2.35,8.86.79,9.82-11.92,1.59-12.66-.54-.05-2.49.18-2.75-.23-1.18-1.87,2.78-1.32,3.55-1.43,2.13-.29,4.07-2.35,4.28-4.48.65-6.44-6.89-9.01-10.78-4.18-.38.47-1.3,2.38-1.58,2.47-.52.16-1.11-.15-1.11-.72,0-.19.79-1.73.96-2,2.42-3.86,8.21-5.09,11.71-1.91,2.92,2.65,3.26,7.94.27,10.65-.27.24-1.3.82-1.35.88Z"/>
    <g id="Layer_1-2" data-name="Layer 1-2">
      <g>
        <path class="cls-4" d="M14.71,215.17c-.77-.85-1.37-1.84-1.75-2.79-.25-.63-.49-1.27-.73-1.91v7.23c.34.33.58.29.85-.05l1.82-2.06c-.07-.14-.13-.28-.19-.42Z"/>
        <path class="cls-5" d="M41.27,41.06c-.1.66.25,2.69-.22,3.02-.58.4-3.64-.11-4.54.14l-.89,4.54c-.66-.26-2.51-.05-2.71-.65-.37-1.06.88-5.64.92-7.05h7.44Z"/>
        <path class="cls-5" d="M16.56,217.56c-.18-.15-.36-.29-.53-.45-.58-.55-1.01-1.21-1.31-1.92-.02-.02-.03-.03-.05-.05-.97,1.16-1.97,2.34-2.44,2.56v.48l4.19,5.75,2.27-1.79-2.58-4.05.45-.53Z"/>
        <path class="cls-5" d="M146.87,45.14c1.04-.1,2.08-.22,3.12-.3v-3.78h-7.44v3.12h4.32v.96Z"/>
        <rect class="cls-7" x="52.31" y="41.06" width="11.28" height="3.12"/>
        <rect class="cls-7" x="74.87" y="41.06" width="11.28" height="3.12"/>
        <rect class="cls-7" x="97.43" y="41.06" width="11.28" height="3.12"/>
        <rect class="cls-7" x="119.99" y="41.06" width="11.28" height="3.12"/>
        <path class="cls-1" d="M43.96,126.55c.87-.55,1.8-1.01,2.8-1.37l-.2-.24c0-.25,2.78-2.04,3.34-2.06.2-.28-.97-2.89-1.5-2.84-.61.06-5.54,3.7-5.81,4.3-.08.18-.17.34-.09.55l1.46,1.66h0Z"/>
        <path class="cls-5" d="M27.59,107.3l-1.48,11.6-.31.34-2.77-.42,1.65-11.62c.36-.51,2.3.24,2.9.1h.01Z"/>
        <path class="cls-5" d="M34.07,60.26l-1.56,11.77c-.29.45-2.44-.17-3-.26l1.68-11.74,2.87.23h0Z"/>
        <path class="cls-5" d="M29.27,95.78l-2.89-.63,1.45-11.61c.58.02,2.97.11,3.09.62l-1.66,11.62h.01Z"/>
        <path class="cls-5" d="M94.55,110.9l-.24,3.12-11.52-.24c-.05-.96.19-1.99-.24-2.88.42-.58,10.49-.12,12,0Z"/>
        <path class="cls-5" d="M77.03,256.1l-11.6-1c-.88-.27.26-2.34.08-3.08l11.13.99c.74.24.26,2.41.39,3.09Z"/>
        <path class="cls-5" d="M156.23,184.82l-1.44,12c-.62-.47-2.82-.15-2.88-1.08.71-3.59,1.21-7.25,1.21-10.93h3.12,0Z"/>
        <path class="cls-5" d="M127.79,122.92l9,7.78c-.55.37-1.78,2.25-2.39,1.93-.58-.3-2.18-2.28-2.88-2.9-1.7-1.5-3.56-2.89-5.42-4.19-.3-.46,1.33-2.18,1.69-2.62Z"/>
        <path class="cls-5" d="M151.42,207.87c.54.63-3.9,9.31-4.67,10.55-.62.62-2.91-.79-2.73-1.51l4.64-9.54c.6-.65,1.91.63,2.76.5h0Z"/>
        <path class="cls-5" d="M34.55,238.34v.34l-1.8,2.29c-3.06-2.47-6.33-4.92-8.74-8l2.02-2.07c2.65,2.66,5.34,5.45,8.52,7.44h0Z"/>
        <path class="cls-5" d="M144.44,139.97l5.52,9.98c.05.49-1.9,1.35-2.36,1.42-.56.08-4.63-8.78-5.75-9.67-.03-.37,2.14-2,2.59-1.73Z"/>
        <path class="cls-5" d="M154.05,161.56c.31,1.48,2.28,10.91,1.84,11.52-.35.47-2.36.12-3.02.23.43-1.46-2.03-10.83-1.66-11.26.09-.11,2.67-.63,2.84-.48h0Z"/>
        <path class="cls-5" d="M111.38,249.59c-.12-.08-1.22-2.48-.76-2.73l9.54-5.13c.45-.07,2,2.17,1.52,2.72-.38.43-3.19,1.92-3.92,2.33-1.36.75-3.89,2.18-5.27,2.65-.31.11-.82.34-1.1.16h-.01Z"/>
        <path class="cls-5" d="M100.31,253.7l-11.76,1.92-.26-2.74,10.94-2.07c.8.06.89,2.22,1.08,2.89h0Z"/>
        <path class="cls-5" d="M139.67,228.26c.18.25-2.15,2.95-2.52,3.36-1.74,1.93-3.81,3.79-5.76,5.51-.26-.69-2.15-1.96-1.77-2.61.02-.04.49-.19.69-.38,2.49-2.4,4.93-4.86,7.08-7.57.14,0,1.76,1.73,2.28,1.68h0Z"/>
        <path class="cls-5" d="M116.37,119.52c-.46.34-9.21-3.81-10.76-3.6l.47-2.86c.32-.31,4.48,1.12,5.22,1.37.93.32,5.36,1.92,5.82,2.34s-.61,2.64-.75,2.75Z"/>
        <path class="cls-5" d="M54.45,249.16c.2.28-.72,2.37-.83,2.86l-10.92-4.7c.24-.55,1.06-2.57,1.55-2.52,1.14,1.07,9.87,3.9,10.2,4.35h0Z"/>
        <polygon class="cls-5" points="71.01 112.6 71.75 115.46 60.48 118.34 59.51 115.46 71.01 112.6"/>
      </g>
      <path class="cls-5" d="M25.31,126.84l-1.48,11.6-.31.34-2.77-.42,1.65-11.62c.36-.51,2.3.24,2.9.1h.01Z"/>
      <polygon class="cls-5" points="32.62 129.4 34.42 131.74 25.17 138.8 23.16 136.53 32.62 129.4"/>
    </g>
  </g>
</svg>