<?xml version="1.0" encoding="UTF-8"?>
<svg id="Layer_2" data-name="Layer 2" xmlns="http://www.w3.org/2000/svg" viewBox="0 0 177.74 258.14">
  <defs>
    <style>
      .cls-1, .cls-2 {
        fill: #231f20;
      }

      .cls-3 {
        fill: #272425;
      }

      .cls-4 {
        fill: #282526;
      }

      .cls-2 {
        font-family: LexendDeca-Regular, 'Lexend Deca';
        font-size: 42px;
      }
    </style>
  </defs>
  <g id="Layer_1-2" data-name="Layer 1">
    <path class="cls-1" d="M37.32,23.14l93.07-.13v-6.83s15.77,9.08,15.77,9.08l-15.75,9.13v-6.82s-93.07.13-93.07.13v-4.57ZM168.01,61.37l-82.37,176.18,6.18,2.89-14.93,10.43-1.57-18.14,6.19,2.89L163.88,59.44l4.13,1.93Z"/>
    <text class="cls-2" transform="translate(18.01 35.7)"><tspan x="0" y="0">1</tspan></text>
    <text class="cls-2" transform="translate(154.73 52.1)"><tspan x="0" y="0">2</tspan></text>
    <g id="Layer_1-2" data-name="Layer 1-2">
      <g>
        <rect class="cls-4" x="81.12" y="44.98" width="13.2" height="3.12"/>
        <path class="cls-4" d="M42,44.98c-.06.55.23,3.12-.36,3.12h-12.84v-3.12h13.2Z"/>
        <path class="cls-4" d="M68.16,44.98c-.06.55.23,3.12-.36,3.12h-12.84v-3.12h13.2Z"/>
        <path class="cls-4" d="M120.48,44.98v3.12h-12.84c-.59,0-.3-2.57-.36-3.12h13.2Z"/>
        <path class="cls-4" d="M54.62,250.4l-2.18,4.58h-1c-.02.81-.21,1.62-.57,2.34.13.27.26.55.4.82,1.55,0,3.05-.06,3.22-.16l2.88-6.48-2.74-1.1h-.01Z"/>
        <path class="cls-3" d="M112.56,126.58l-4.44,10.32c-.21.4-2.65-.63-2.74-.75-.39-.53,4.03-9.15,4.32-10.52,0,0,2.86.95,2.86.95Z"/>
        <polygon class="cls-3" points="103.44 147.46 98.88 158.02 96.1 156.83 100.57 146.26 103.44 147.46"/>
        <path class="cls-3" d="M75.84,209.86l-4.56,10.56-2.64-1.08,4.2-10.2c.6-.65,2.22.7,3.01.73h-.01Z"/>
        <polygon class="cls-3" points="131.04 85.06 126.48 95.62 123.7 94.43 128.17 83.86 131.04 85.06"/>
        <path class="cls-3" d="M89.73,178.63c-.54.34-2.26-.8-2.86-1.07l4.68-10.37c.54.24,2.53.81,2.49,1.45l-4.31,9.98h0Z"/>
        <path class="cls-3" d="M84.96,188.98l-4.44,10.32c-.49.54-2.06-.69-2.74-.75l4.32-10.52,2.86.94h0Z"/>
        <path class="cls-3" d="M117.35,116.25c-.29.21-2.86-.93-2.88-1.09l4.68-10.37c.54.24,2.53.81,2.49,1.45l-4.3,10h.01Z"/>
        <path class="cls-3" d="M62.13,241.03c-.55.34-2.25-.81-2.86-1.06l4.68-10.4c.49.43,2.53.74,2.49,1.48l-4.31,9.98Z"/>
      </g>
      <polygon class="cls-3" points="147.49 46.18 142.92 56.74 140.15 55.55 144.61 44.98 147.49 46.18"/>
      <path class="cls-3" d="M133.79,77.37c-.29.21-2.86-.93-2.88-1.09l4.68-10.37c.54.24,2.53.81,2.49,1.45l-4.3,10h.01Z"/>
      <path class="cls-4" d="M144.7,44.98v3.12h-12.84c-.59,0-.3-2.57-.36-3.12h13.2Z"/>
      <path class="cls-4" d="M13.22,44.98v3.12H.38c-.59,0-.3-2.57-.36-3.12h13.2Z"/>
    </g>
  </g>
</svg>