<?xml version="1.0" encoding="UTF-8"?>
<svg id="Layer_2" data-name="Layer 2" xmlns="http://www.w3.org/2000/svg" viewBox="0 0 322.98 246.99">
  <defs>
    <style>
      .cls-1 {
        fill: #231f20;
      }
    </style>
  </defs>
  <g id="Layer_1-2" data-name="Layer 1">
    <path class="cls-1" d="M249.1,120.1c19.8,6.3,50.1,20.1,56.7,42.6,16.2,54.9-59.1,89.7-113.1,83.1-38.1-4.8-61.2-12.3-79.8-20.7-23.1,17.1-49.2,24.6-76.5,21-61.2-7.5-40.5-78.3,27-54.6,11.1,4.2,24.6,12.9,43.5,22.2,39.9-38.4,61.5-118.8,112.8-175.8l17.1-19.5c-33.3-5.7-74.4-5.4-114.9,3.3C38.79,39.4,11.49,111.4,55.89,125.2c35.4,11.1,55.8-24,54.3-32.7,0-1.8,6.3-4.2,6.3,2.4v.3c-4.5,29.7-37.2,46.5-63.6,37.2C-8.31,111.1,20.19,24.1,125.79,9.1c41.7-6,83.4-4.8,118.2,2.7,5.1-4.5,11.4-8.4,16.5-10.2,9.6-3.9,10.2,0,3,4.5-3.9,2.7-8.1,6.6-8.7,8.1,51.6,13.2,82.2,39.9,61.8,74.7-12.9,21.9-45,30.3-67.5,31.2ZM55.89,199.3c-45.9-15.9-51,36.3-12,38.4,21.9.9,40.5-6.3,56.4-18.3-13.8-6.6-26.7-13.8-44.4-20.1ZM251.19,21.7c-40.2,55.2-80.4,144-120.3,187.2l-11.4,10.8c18.6,7.8,42,15,72.9,18,78.3,7.2,125.4-72,67.2-99.9-23.4-11.4-52.8-15.3-55.8-21.9,0-10.2,20.1-4.2,43.5-4.2,37.2-.6,87.3-54.9,32.1-80.7-8.1-3.9-17.7-6.9-28.2-9.3Z"/>
  </g>
</svg>