<?xml version="1.0" encoding="UTF-8"?>
<svg id="Layer_2" data-name="Layer 2" xmlns="http://www.w3.org/2000/svg" viewBox="0 0 401.26 266.84">
  <defs>
    <style>
      .cls-1 {
        fill: #231f20;
      }
    </style>
  </defs>
  <g id="Layer_1-2" data-name="Layer 1">
    <path class="cls-1" d="M362.62,74.54c-34.8-5.7-64.5-23.4-70.2-25.8-19.2,21.9-31.5,57.9-39.9,77.4,18.3,2.4,44.1,2.4,56.4,1.8,10.2-.6,9.9,3.6.6,6-10.5,2.7-45.3,3.3-60.6,1.5-20.7,56.1-53.1,131.4-150,131.4-69.9,0-114.9-52.8-93.6-118.2,5.4-17.1,22.5-28.5,31.2-31.2,9.6-3,3.3,1.5-5.7,7.8-7.5,5.4-19.5,14.4-23.1,34.8-10.5,58.8,43.8,90.9,87.6,92.7,66.6,3,114.3-52.8,142.8-118.2-11.4,0-51.3-4.5-65.4,15.9-3.6,4.8-6.3.6-4.8-2.7,13.8-30.6,45.6-29.4,74.4-24.3,14.1-34.5,37.8-72,43.5-78.6-25.5-12.6-52.2-24.3-81.6-28.5-81.9-12.3-120,63-92.7,80.1,30.3,18.9,63-9.6,62.7-18,.3-6.6,8.7-12,5.1-1.2-8.7,29.1-46.5,39.9-70.5,26.1-49.8-28.2,1.8-126.3,100.5-98.4,33,9,61.8,23.1,80.4,34.8,3.3-3.6,11.7-13.2,25.2-9.3,7.8,2.4,6.6,14.7,0,7.2-6.9-2.7-13.8,1.8-18,5.7,20.1,10.5,87,35.7,98.4,11.4,4.2-9.6,7.2-6,5.4,1.5-1.8,12.3-17.7,21.3-38.1,18.3Z"/>
  </g>
</svg>