<?xml version="1.0" encoding="UTF-8"?>
<svg id="Layer_2" data-name="Layer 2" xmlns="http://www.w3.org/2000/svg" viewBox="0 0 463.26 292.18">
  <defs>
    <style>
      .cls-1 {
        fill: #231f20;
      }
    </style>
  </defs>
  <g id="Layer_1-2" data-name="Layer 1">
    <path class="cls-1" d="M397.03,134.08c6,0,19.2-.3,24-2.1,5.7-2.1,7.5,0,2.4,3.6-7.8,5.4-20.4,7.5-29.1,8.1-5.4,17.7-28.8,80.4-15.6,94.8,3.9,4.2,10.2,4.8,16.8,0,15.3-11.4,27.9-34.8,37.5-54.3,3.3-6.6,7.8-5.1,4.5,2.1-15.6,33-23.1,43.2-36.6,56.4-10.5,10.2-23.4,13.5-33.9,8.1-27.3-14.1,2.7-86.4,9.9-107.1-13.5,0-74.4-2.7-101.7-3.9-23.4,69.6-78.3,141.3-155.7,151.2-68.4,8.7-135.6-30.6-116.1-105.6,5.1-19.5,27-37.8,36.6-38.1,6.3,0,3.6,3,.6,4.2-9.9,4.2-27.3,22.5-30.6,47.4-8.4,65.4,64.5,81.3,106.5,72,84-18.9,123.3-79.5,143.1-131.7-6.3,0-12.3,2.1-18,4.8-3.3,1.5-12.6,4.5-8.1-3.3,2.7-4.5,10.8-10.5,18.6-11.4h11.7c15-37.5,37.5-84.6,43.8-97.2-58.8,6.6-129.6,2.1-151.2,71.4-10.2,32.7,9,60,39.3,48.9,22.2-8.1,30.3-47.7,26.4-53.4-3.3-4.8,1.8-6.6,3.9-2.1,11.4,24.9-8.4,53.4-30,61.2-36,13.2-69.9-20.1-60-59.4C154.92,22.78,253.32,30.58,311.83,24.88c2.1-3.6,13.5-21,23.1-24,8.7-2.4,17.1,0,17.1,8.4,0,14.1-23.4,22.2-35.4,22.2-11.4,22.2-33.6,84.9-38.7,97.8,40.2,0,80.7,5.1,101.7,5.1,4.5-12.6,41.7-110.1,65.4-118.2,11.7-4.2,25.2-6,14.1-.3-5.7,3-38.1,48.3-62.1,118.2ZM322.03,23.98c25.5-3.9,19.5-14.4,15.9-14.4-3-1.5-11.7,9-15.9,14.4Z"/>
  </g>
</svg>