<?xml version="1.0" encoding="UTF-8"?>
<svg id="Layer_2" data-name="Layer 2" xmlns="http://www.w3.org/2000/svg" viewBox="0 0 364.3 296.6">
  <defs>
    <style>
      .cls-1 {
        fill: #231f20;
      }
    </style>
  </defs>
  <g id="Layer_1-2" data-name="Layer 1">
    <path class="cls-1" d="M341.2,29.37c-3.6,0-9.9,2.7-12.6,2.7-36.6,67.2-34.5,126.9-82.2,188.1-33,42.3-75,66.3-118.5,73.5-84.6,14.1-149.4-23.4-121.2-98.4,7.5-19.8,31.5-38.7,41.1-39.3,6.3-.3,3.3,2.7.3,4.2-10.5,4.5-30,23.4-36.3,48.3-15.9,65.4,62.4,87.6,110.4,75.6,87.3-21.9,135.9-110.1,152.1-153.6,17.7-47.1,38.7-86.1,45-96.9-54,11.7-131.7,30.6-146.1,95.4-6.6,28.8,9.3,48.6,35.1,38.7,31.5-12.6,30-48,25.2-52.5-1.2-1.5,3.9-8.1,6.3-2.7,11.7,22.5-6.6,52.8-31.2,62.1-31.8,12.3-63.3-10.2-55.5-45.6,15.6-70.8,114.3-93.6,171-103.2,2.4-4.8,13.5-21.3,23.1-24.6,9-2.7,16.8-.9,17.1,7.2.3,12.3-11.7,17.1-23.1,21ZM333.7,24.57c26.4-5.4,19.8-15,16.2-15-3-1.2-11.7,9.3-16.2,15Z"/>
  </g>
</svg>