<?xml version="1.0" encoding="UTF-8"?>
<svg id="Layer_2" data-name="Layer 2" xmlns="http://www.w3.org/2000/svg" viewBox="0 0 289.06 344.66">
  <defs>
    <style>
      .cls-1 {
        fill: #231f20;
      }
    </style>
  </defs>
  <g id="Layer_1-2" data-name="Layer 1">
    <path class="cls-1" d="M163.68,157.62c-8.7,17.7-15.6,32.4-26.4,51.6l-6.3,10.2c29.4,7.2,70.5,23.1,98.4,44.7,28.5,22.2,34.8,57.6,27.3,70.2-2.4,4.5-5.1,6.9-7.5,8.1-12.9,6.9-6.3-3.9-3.9-9,4.8-10.5,5.7-40.8-14.7-58.5-29.1-25.8-70.5-34.5-108.6-42-15.6,21.9-33.6,39.6-53.1,48.9-62.7,30.3-105.3-37.5-24.6-61.8,21.3-6.3,53.4-7.2,75.3-3.3,11.4-17.7,20.7-35.7,31.5-57.9-86.4,2.7-113.4-90.6-10.8-114,12.6-3,13.8,3.3.6,5.1-61.8,7.5-81.9,112.8,14.4,101.4,3.6-8.1,25.5-64.2,25.5-64.2C225.18-27.18,286.68-4.68,288.78,19.92c5.1,60.6-61.2,126.9-125.1,137.7ZM47.88,232.32c-72.6,18.6-38.7,67.5,16.2,41.1,16.2-7.8,31.8-21.9,46.2-42.3-19.8-4.2-42.9-3.9-62.4,1.2ZM194.28,97.32s-14.1,26.7-26.4,52.2c54-12,108.9-67.5,108.6-123-.3-20.1-35.7-20.1-82.2,70.8Z"/>
  </g>
</svg>