<?xml version="1.0" encoding="UTF-8"?>
<svg id="Layer_2" data-name="Layer 2" xmlns="http://www.w3.org/2000/svg" viewBox="0 0 328.49 254.68">
  <defs>
    <style>
      .cls-1 {
        fill: #231f20;
      }
    </style>
  </defs>
  <g id="Layer_1-2" data-name="Layer 1">
    <path class="cls-1" d="M236.88,161.2c-24.6,6-51.3,8.4-67.2,7.2-13.2,19.5-27.9,38.1-45,54.6-25.5,24-56.1,34.8-88.2,30.9-61.2-7.2-40.8-77.4,27-54.6,6.3,2.4,4.2,6-.9,3.9-48-18-60,40.2-18.6,42.3,26.7,1.2,48.9-11.7,69-31.2,39.3-38.7,62.1-118.5,113.1-175.8,5.7-6,10.5-11.7,15.9-16.8-34.2-5.1-73.5-2.7-98.7,2.1-37.8,6.9-100.2,30-107.4,74.7-3.3,21,11.4,37.5,29.4,38.1,18.9.6,38.1-16.2,45-36.3.9-4.5,4.2-3.9,4.2.3-.3,27.3-26.4,42.6-49.8,42-23.7-.9-45.9-15.9-44.4-46.5C22.98,42.4,99.18,20.2,142.08,13.9c33.3-4.8,72.6-6.9,108,.3,6.6-5.1,13.5-9.3,22.5-12.6,9.6-3.9,10.2,0,3,4.5-3,2.1-8.4,6-13.5,11.1,12.6,3.3,24.3,8.1,34.8,14.4,75.6,45-.6,115.2-60,129.6ZM256.38,24.4c-30.6,42.9-53.4,93-82.5,137.7,15.3.6,34.5-2.4,53.4-8.1,65.1-19.8,109.8-84.6,62.7-116.1-9-6-20.7-10.5-33.6-13.5Z"/>
  </g>
</svg>