<?xml version="1.0" encoding="UTF-8"?>
<svg id="Layer_2" data-name="Layer 2" xmlns="http://www.w3.org/2000/svg" viewBox="0 0 242.8 346.68">
  <defs>
    <style>
      .cls-1 {
        fill: #231f20;
      }
    </style>
  </defs>
  <g id="Layer_1-2" data-name="Layer 1">
    <path class="cls-1" d="M24.61,263.27c-7.5,0-18.9,5.4-19.8,14.1-.6,6-5.1,4.2-4.8-1.8.6-8.1,11.1-21.3,24.6-21.3,53.4,0,76.2,66,166.2,83.4,65.1,12.6,51.9-54.3-5.4-63.6-6-.9-6.6-6.6-.9-5.7,69.9,11.1,82.8,78.3,6.3,78.3-105.6,0-119.4-83.4-166.2-83.4ZM147.62,48.77c-47.1-14.4-126.6,96-108,162.9,14.1,49.2,63,44.7,102.6,14.7C247.82,146.57,218.72-7.63,86.11,9.77,39.31,16.07,19.21,53.57,30.61,100.07c1.5,6.6-3.3,9.6-7.2,1.8C1.21,56.57,34.81,11.57,84.91,3.17c177-30,168,160.8,57.9,233.4-39.3,25.8-96.3,28.8-116.1-21.3C-6.59,132.17,90.91,11.27,150.01,44.57c4.5,2.4,1.5,5.4-2.4,4.2Z"/>
  </g>
</svg>