<?xml version="1.0" encoding="UTF-8"?>
<svg id="Layer_2" data-name="Layer 2" xmlns="http://www.w3.org/2000/svg" viewBox="0 0 302.82 280.65">
  <defs>
    <style>
      .cls-1 {
        fill: #231f20;
      }
    </style>
  </defs>
  <g id="Layer_1-2" data-name="Layer 1">
    <path class="cls-1" d="M286.31,156.89c-3.9,8.4-12.3,27.3-18,48.6-8.7,32.4-12.3,69,4.2,68.1,14.4-1.2,7.2,8.4-2.1,6.9-28.2-5.1-22.8-53.4-17.7-79.2-4.5,7.5-10.8,17.4-18.3,27-39.9,51.3-82.2,51.6-88.5,13.2-6.6-40.5,41.7-117.3,52.8-160.8,7.2-28.8,8.1-56.4-6.3-65.1-24.6-15-65.7-6.3-99.9,13.5C-27.49,99.29,1.91,232.49,85.31,201.29c41.1-15.3,72.6-101.4,15.3-88.5-15.6,3.6-3.9-4.2-1.5-5.1,61.8-26.1,52.2,72.6-14.1,100.5C-4.69,246.29-52.99,98.99,93.11,19.19,127.31.29,164.21-5.71,190.91,5.99c29.4,12.6,33,42.9,25.5,75.9-10.8,47.4-57.9,115.8-53.4,159.6,3.3,31.2,33.9,26.1,66.9-21.6,20.1-29.1,38.1-71.4,50.4-93.6,6.6-11.7,13.2-15.9,16.8-15.9,14.7,7.2-2.7,28.2-10.8,46.5Z"/>
  </g>
</svg>