<?xml version="1.0" encoding="UTF-8"?>
<svg id="Layer_2" data-name="Layer 2" xmlns="http://www.w3.org/2000/svg" viewBox="0 0 330.82 371.82">
  <defs>
    <style>
      .cls-1 {
        fill: #231f20;
      }
    </style>
  </defs>
  <g id="Layer_1-2" data-name="Layer 1">
    <path class="cls-1" d="M308.7,291.94c-15.6,6.3-44.4,6.6-74.7,6.9-20.1,30.3-52.5,52.2-83.1,63.9-78.3,30-131.4-21.3-56.4-52.2,40.8-16.8,86.1-19.2,129.6-19.2,15.6-38.4,30.3-75.9,41.1-116.1-11.4,24.6-33,62.7-60.9,81.6-30.6,20.7-74.4,15.9-68.4-29.7,4.2-30,27.3-69.9,43.8-96.9,26.7-43.5,44.1-99.9,21-114.6C152.4-15.27,55.2,45.63,27.3,111.93c-30.9,74.1,14.4,103.5,53.4,89.4,41.7-15,76.2-99.9,24-90.6-10.2,2.1-6-3-.6-4.2,63.3-17.1,42.6,74.1-24.6,101.7-47.7,19.8-104.4-29.1-67.8-104.1C47.1,31.23,147-17.67,199.5,6.03c44.1,19.8,31.2,74.7,4.2,120.3-20.1,34.2-40.8,75.3-46.8,102.6-7.8,36,19.8,38.4,43.2,21.6,37.2-26.4,67.8-101.4,77.1-132.6,1.5-7.2,24.9-25.5,14.7,19.2-10.5,46.2-31.2,114.6-53.4,153.9,29.4-1.8,82.2,3.3,88.2-30-.6-4.5,1.2-7.5,3.6.3,2.4,7.8-3.3,22.8-21.6,30.6ZM99.3,323.14c-58.8,33.6-.9,51,47.1,33.3,26.7-9.9,55.5-28.8,73.5-57.6-40.5,0-84.9,3.6-120.6,24.3Z"/>
  </g>
</svg>