<?xml version="1.0" encoding="UTF-8"?>
<svg id="Layer_2" data-name="Layer 2" xmlns="http://www.w3.org/2000/svg" viewBox="0 0 319.49 277.27">
  <defs>
    <style>
      .cls-1 {
        fill: #231f20;
      }
    </style>
  </defs>
  <g id="Layer_1-2" data-name="Layer 1">
    <path class="cls-1" d="M261.83,31.55c-21.6,19.8-53.7,66.6-76.2,94.5-34.2,42.3-72,72-93.9,90,0,0,82.2,35.7,114.3,42,22.8,4.5,78.3,5.4,83.1-28.8,1.5-9.6,8.7-12.6,6.9,4.5-1.2,11.4-12,42.3-70.5,43.5-44.1.9-141.3-57-141.3-57-26.1,18.6-45.9,23.7-60,20.7-37.8-8.7-31.2-64.2,18.6-51,9,2.4,22.2,8.4,42.9,21.6,0,0,78-91.2,101.4-119.7,16.8-19.8,41.4-44.7,63.9-63-35.4-9.9-89.7-17.7-125.4-8.4-25.5,6.6-55.2,32.4-24,53.1,10.5,7.2-.6,6.6-3.6,5.7-2.4-.6-7.5-3.9-12-9C69.53,51.95,73.73,5.75,143.63.35c36.9-3,79.8,13.8,113.1,24,12.3-9.6,24-16.8,33.3-20.1,24.9-8.7,40.2,10.5,20.4,27.3-9.3,7.8-27,5.4-48.6,0ZM71.03,210.36c-12.3-6.9-22.8-10.8-30.6-11.7-35.7-3.9-36.3,34.8,1.2,33.6,13.8-.6,30-7.8,38.4-15,0,0-6-4.8-9-6.9ZM301.73,7.55c-9.3,0-21.6,7.8-35.4,19.5,17.1,4.8,30.9,6.9,38.7,2.1,8.7-5.4,7.5-21.6-3.3-21.6Z"/>
  </g>
</svg>