<?xml version="1.0" encoding="UTF-8"?>
<svg id="Layer_2" data-name="Layer 2" xmlns="http://www.w3.org/2000/svg" viewBox="0 0 166.88 256.24">
  <defs>
    <style>
      .cls-1 {
        fill: #000000;
      }

      .cls-2 {
        fill: #000000;
      }

      .cls-3, .cls-4 {
        fill: #000000;
      }

      .cls-5 {
        fill: #000000;
      }

      .cls-6 {
        fill: #000000;
      }

      .cls-7 {
        fill: #000000;
      }

      .cls-8 {
        fill: #000000;
      }

      .cls-9 {
        fill: #000000;
      }

      .cls-4 {
        font-family: LexendDeca-Regular, 'Lexend Deca';
        font-size: 42px;
      }
    </style>
  </defs>
  <g id="Layer_1-2" data-name="Layer 1">
    <path class="cls-3" d="M35.56,240.02l9.9,15.29-18.19.93,3.16-6.18c-20.9-15.28-34.68-46.34-22.16-73.88l4.15,1.89c-11.43,25.15,1.04,53.56,20.11,67.88l3.02-5.92ZM8.17,122.11l5.62-4.03c-7.5-15.71-7.32-36.52.74-53.84,7.29-15.67,19.82-26.06,35.28-29.27l.92,4.47c-14.01,2.9-25.39,12.39-32.06,26.72-7.38,15.86-7.68,34.78-1.1,49.21l5.4-3.88,1.79,18.12-16.59-7.5Z"/>
    <text class="cls-4" transform="translate(53.96 35.7)"><tspan x="0" y="0">1</tspan></text>
    <text class="cls-4" transform="translate(0 170.53)"><tspan x="0" y="0">2</tspan></text>
    <g id="Layer_1-2" data-name="Layer 1-2">
      <g>
        <path class="cls-5" d="M21.93,184.47c.09-.92.65-2.1.48-3.12l3.12.24c-.72,3.79-.43,7.67-.48,11.52-.38.04-.84-.06-1.2,0-1.4.51-2.04.03-1.92-1.44v-3.84c.09-.5.17-.98.24-1.44-.07-.46-.15-.94-.24-1.44,0-.16,0-.32,0-.48h0Z"/>
        <path class="cls-6" d="M166.88,185.91v.48c-.09.5-.17.98-.24,1.44.18,1.27.18,2.57,0,3.84.07.52.15,1.08.24,1.68v.72c.03,1.31-3.25.39-3.3.13.34-3.63.33-7.43-.3-11.05l2.89-.5.71,3.26h0Z"/>
        <path class="cls-8" d="M166.88,191.67c-.07.21-.15.21-.24,0,0-1.28-.02-2.56,0-3.84.07-.21.15-.21.24,0v3.84Z"/>
        <path class="cls-7" d="M166.88,193.35c-.42-.33-.23-1.15-.24-1.68h.24v1.68Z"/>
        <path class="cls-9" d="M21.93,191.67c.47.16.13,1.33.24,1.44.08.08,1.36-.06,1.68,0-.57.1-1.18.56-1.92,0,0,0,0-1.44,0-1.44Z"/>
        <path class="cls-1" d="M22.17,186.39c-.07.21-.15.21-.24,0v-1.44c.4.26.24.99.24,1.44Z"/>
        <path class="cls-9" d="M21.93,187.83v-1.44h.24c0,.45.16,1.18-.24,1.44Z"/>
        <path class="cls-2" d="M166.88,187.83h-.24c0-.45-.16-1.18.24-1.44v1.44Z"/>
        <path class="cls-5" d="M88.41,38.55v3.12c-3.86.02-7.67.76-11.41,1.62-.45-.09-.7-2.52-.83-3.06l12.24-1.68Z"/>
        <path class="cls-5" d="M100.16,41.68c-.03-.49-.05-3.01.39-3.14,3.25.51,8.26.48,11.25,1.7,1.11.45.19,2.29-.26,3.1-3.72-.9-7.54-1.62-11.38-1.66Z"/>
        <path class="cls-5" d="M64.33,44.34c.59-.06,1.5,2.49,1.42,2.62-.41.67-8.79,4.11-9.91,5.48-.59.34-1.99-2.18-1.88-2.37l10.38-5.73h0Z"/>
        <path class="cls-5" d="M134.72,50.08c.13.18-1.14,2-1.38,2.33-.12.17.06.42-.39.27l-10.2-5.81c.42-.43.88-2.59,1.48-2.53l10.48,5.74h0Z"/>
        <path class="cls-5" d="M161.12,102.15c.46.45-2.08,10.73-3.11,11.9-.27.17-2.64-.86-2.66-1.01,1.22-3.6,2.57-7.29,2.66-11.13l3.12.24h0Z"/>
        <path class="cls-5" d="M44.37,57.76l2.02,2.24c-2.78,2.69-5.28,5.63-7.54,8.78l-2.52-1.79c2.52-3.22,5.01-6.47,8.04-9.24h0Z"/>
        <path class="cls-5" d="M149.39,68.77c-.17-.1-1.76-2.68-2.19-3.21-1.54-1.88-3.2-3.69-4.92-5.4-.16-.35,1.44-2.6,2.42-1.94.66.44,2.69,2.84,3.35,3.61.59.68,4.02,4.9,3.92,5.37-.07.35-2.19,1.79-2.58,1.56h0Z"/>
        <path class="cls-5" d="M38.89,122.81c.57-.1,6.77,7.48,8.38,7.89.12.24-1.36,2.19-1.57,2.3-.36.2-.36.02-.61-.13-.77-.49-2.04-1.63-2.76-2.29-1.93-1.74-3.64-3.74-5.41-5.64-.37-.5,1.82-2.11,1.97-2.14h0Z"/>
        <path class="cls-5" d="M30.33,101.67c.38,3.82,1.26,7.67,2.88,11.16-.99.3-2.49,1.71-3.17.53-.42-.74-1-2.84-1.27-3.77-.69-2.4-1.14-4.84-1.53-7.3.13-.55,2.47-.41,3.09-.62Z"/>
        <path class="cls-5" d="M158,90.39c-.53-3.82-1.48-7.57-2.82-11.17.04-.28,2.52-1.53,3.02-.67.34.59.88,2.64,1.12,3.44.35,1.17,1.92,7.28,1.46,7.94-.26.36-2.16.21-2.77.46h0Z"/>
        <path class="cls-5" d="M142.41,133.11c-.06-.77-1.78-1.96-1.42-2.6,3.26-2.07,5.93-4.87,8.49-7.71.42.8,2.39,1.4,1.93,2.39-.08.18-2.29,2.54-2.64,2.89-.65.65-5.93,5.32-6.36,5.03Z"/>
        <path class="cls-5" d="M33.45,78.88c-1.49,3.58-2.46,7.42-2.88,11.28-.93-.16-3.05.17-3.02-.96.05-1.75.95-4.95,1.46-6.72.23-.81,1.08-3.85,1.44-4.32.46-.61,2.28.79,3,.73h0Z"/>
        <path class="cls-5" d="M47.3,142.02c.37-.1.43,0,.67.21.26.23,1.35,1.92,1.22,2.16l-8.3,7.08c-.68.42-2.52-1.59-2.29-2.05l8.7-7.41h0Z"/>
        <path class="cls-5" d="M139.8,145.56l.09-.68,1.64-1.9c3.12,2.4,6.34,4.91,8.78,7.98l-2.02,2.07c-2.64-2.68-5.33-5.37-8.49-7.47Z"/>
        <path class="cls-5" d="M26.95,204.42c.26.18,1.76,5,2.14,5.9.31.73,2.15,4.08,2.17,4.32.04.47-2.05,1.46-2.51,1.52s-.28-.09-.41-.31c-1.81-3.13-3.05-6.98-4.25-10.39-.06-.65,2.67-1.18,2.85-1.04h.01Z"/>
        <path class="cls-5" d="M87.9,249.06c.18.21-.07,2.34.03,2.86-2.03.03-4.07-.24-6.08-.52-1.44-.2-4.03-.5-5.31-.93-.23-.08-.51-.06-.58-.37-.06-.24.5-2.62.84-2.73l11.1,1.69h0Z"/>
        <polygon class="cls-5" points="110.95 247.6 111.44 250.71 99.69 252.15 99.44 249.03 110.95 247.6"/>
        <path class="cls-5" d="M164.24,206.31c-.73,4.03-2.91,7.6-4.56,11.28-.16.12-2.66-1.17-2.6-1.76s1.99-3.85,2.4-4.8c.75-1.73,1.49-3.59,1.88-5.44l2.88.72Z"/>
        <path class="cls-5" d="M150.2,225.28l2.28,2.04c-2.63,3.04-5.49,5.92-8.75,8.28l-1.7-2.4,8.18-7.92h-.01Z"/>
        <path class="cls-5" d="M33.2,160.25l-5.05,10.28-2.76-.93c-.18-.23.92-2.74,1.13-3.22,1.16-2.62,2.67-5.09,4.05-7.59l2.62,1.46h.01Z"/>
        <path class="cls-5" d="M160.41,171.99c-1.14-3.69-3.38-6.93-5.05-10.31l2.52-1.44,5.36,10.49c.06.69-2.67,1.38-2.83,1.26Z"/>
        <path class="cls-5" d="M37.7,224.35l8.13,7.89c.18.41-1.59,2.05-1.94,2.4l-8.17-8.16c-.33-.64,1.5-1.8,1.98-2.13h0Z"/>
        <path class="cls-5" d="M133.75,242.53l-10.67,4.81-1.04-2.56,10.2-5.09c.54-.05,1.7,2.56,1.5,2.84h.01Z"/>
        <path class="cls-5" d="M64.62,246.61c-.3.21-2.77-.92-3.26-1.14-1.55-.69-6.2-2.82-7.28-3.77-.68-.6.99-1.97.98-2.75l10.32,4.91c.4.21-.63,2.66-.75,2.74h-.01Z"/>
      </g>
      <path class="cls-5" d="M99.86,147.81l.05-3.12c3.86.05,7.69-.63,11.44-1.42.45.09.66,2.53.78,3.08l-12.27,1.47h0Z"/>
      <path class="cls-5" d="M88.16,144.49c.02.49,0,3.01-.44,3.13-3.24-.57-8.25-.63-11.22-1.89-1.11-.47-.15-2.3.31-3.09,3.7.96,7.51,1.75,11.35,1.85Z"/>
      <path class="cls-5" d="M124.04,142.45c-.59.05-1.45-2.51-1.37-2.64.42-.67,8.86-3.96,10.01-5.3.6-.33,1.95,2.22,1.84,2.4l-10.48,5.55h0Z"/>
      <path class="cls-5" d="M53.76,135.48c-.13-.19,1.18-1.98,1.42-2.31.12-.17-.05-.42.4-.27l10.09,5.99c-.43.43-.93,2.57-1.53,2.51,0,0-10.38-5.92-10.38-5.92Z"/>
    </g>
  </g>
</svg>