<?xml version="1.0" encoding="UTF-8"?>
<svg id="Layer_2" data-name="Layer 2" xmlns="http://www.w3.org/2000/svg" viewBox="0 0 155.7 177.3">
  <defs>
    <style>
      .cls-1 {
        fill: #231f20;
      }
    </style>
  </defs>
  <g id="Layer_1-2" data-name="Layer 1">
    <path class="cls-1" d="M81.3,24.6l-33,57.3c11.1-7.5,26.7-13.5,40.2-13.5,16.5,0,30,8.1,30,26.1,0,41.4-59.1,82.8-97.2,82.8-5.7,0-16.5-.3-21.3-3.6v-2.1l1.8-2.1,1.2-.6c5.7,2.1,12.6,2.7,18.6,2.7,33.6,0,76.8-42.6,76.8-76.2,0-12.3-7.2-19.2-19.5-19.2-14.7,0-27,10.5-39.6,16.8l-1.8-.6v-1.8c2.7-8.1,44.1-80.1,48-83.4C103.8-.3,136.5,13.8,154.5,0l1.2.6c-10.8,29.1-49.2,25.5-74.4,24Z"/>
  </g>
</svg>