<?xml version="1.0" encoding="UTF-8"?>
<svg id="Layer_2" data-name="Layer 2" xmlns="http://www.w3.org/2000/svg" viewBox="0 0 118.8 179.7">
  <defs>
    <style>
      .cls-1 {
        fill: #231f20;
      }
    </style>
  </defs>
  <g id="Layer_1-2" data-name="Layer 1">
    <path class="cls-1" d="M117.3,5.7c-5.4,6-14.1,11.7-20.4,17.4-14.1,12.9-27,27-38.7,42.3-16.5,21.9-40.5,60.6-40.5,88.8,0,10.2,5.7,18.6,16.5,18.6,28.2,0,56.4-51,56.4-76.2,0-6.9-2.7-12-10.2-12-20.1,0-37.2,31.2-43.5,47.7l-1.2,1.5-3,.3-.6-1.8c5.7-23.4,28.8-57,55.5-57,14.1,0,21.3,10.5,21.3,23.7,0,33.9-41.7,80.7-76.5,80.7-19.8,0-32.4-12-32.4-32.1C0,93,73.2,29.1,114.9.3l1.8-.3,2.1,3.3c-.6.6-.9,1.8-1.5,2.4Z"/>
  </g>
</svg>