<?xml version="1.0" encoding="UTF-8"?>
<svg id="Layer_2" data-name="Layer 2" xmlns="http://www.w3.org/2000/svg" viewBox="0 0 170.4 171.9">
  <defs>
    <style>
      .cls-1 {
        fill: #231f20;
      }
    </style>
  </defs>
  <g id="Layer_1-2" data-name="Layer 1">
    <path class="cls-1" d="M169.8,3.9c-18.6,21.3-39,41.7-58.8,62.4-23.7,24.9-45.9,51.3-67.2,78.3-2.1,2.4-18.3,23.7-20.1,24.3-5.1,2.4-15.6,2.4-21.6,3l-1.8-.9-.3-1.2C3,158.1,132,35.7,146.7,21.9c-15.9-.3-31.8-1.2-47.7-1.2-26.4,0-26.7,21-35.7,21.6l-.9-.6v-1.8C78.6,8.1,84.9.9,120.6.9c14.1,0,28.5.3,42.6,2.1,1.2-.9,4.5-3,6-3l1.2,1.8-.6,2.1Z"/>
  </g>
</svg>