<?xml version="1.0" encoding="UTF-8"?>
<svg id="Layer_2" data-name="Layer 2" xmlns="http://www.w3.org/2000/svg" viewBox="0 0 136.57 167.04">
  <defs>
    <style>
      .cls-1 {
        fill: #c0c2c4;
      }

      .cls-2 {
        fill: #fefefe;
      }

      .cls-3 {
        fill: #8a8c8f;
      }

      .cls-4 {
        fill: #272425;
      }

      .cls-5 {
        fill: #c7c8ca;
      }

      .cls-6 {
        fill: #272424;
      }

      .cls-7 {
        fill: #262324;
      }

      .cls-8 {
        fill: #c7c9cb;
      }

      .cls-9 {
        fill: #c1c3c5;
      }
    </style>
  </defs>
  <g id="Layer_1-2" data-name="Layer 1">
    <g>
      <path class="cls-2" d="M126.04,52.33c.06-.97.17-1.99.32-3.02-.61.13-1.21.28-1.86.52.52.82,1.04,1.65,1.54,2.5Z"/>
      <path class="cls-2" d="M136.41,163.6c-.35.12-1.72.2-3.21.23-.19,1.03-.48,1.88-1,3.03-.03.06-.07.12-.1.18h4.46v-3.12l-.16-.32Z"/>
      <path class="cls-2" d="M133.21,0c.2,1.25.31,2.53.3,3.84h2.6s.21-.48.21-.48c.09.21.17.21.24,0V0h-3.36Z"/>
      <rect class="cls-8" x="133.21" y="111.36" width="3.36" height="11.52"/>
      <rect class="cls-8" x="133.21" y="21.84" width="3.36" height="11.52"/>
      <path class="cls-8" d="M136.33,156.24l-.48.35c-.19.9-.12,5.08-.02,6.59-.38-.04-1.39-.05-2.51-.05-.04.28-.08.54-.13.79h3.38v-7.68h-.24Z"/>
      <path class="cls-5" d="M136.57,55.68h-.24l-.48-.22v-10.77l.48-.29h.24v11.28Z"/>
      <path class="cls-5" d="M136.57,145.2h-.24l-.48-.22v-10.77l.48-.29h.24v11.28Z"/>
      <path class="cls-5" d="M136.57,100.32h-.24l-.48-.22v-10.77l.48-.29h.24v11.28Z"/>
      <path class="cls-5" d="M136.57,78h-.24l-.48-.22v-10.77l.48-.29h.24v11.28Z"/>
      <path class="cls-5" d="M136.57,10.8h-.24c-.19-.02-.47-.08-.48-.21-.11-1.17-.21-5.91,0-6.88l.48-.35h.24v7.44Z"/>
      <path class="cls-3" d="M.24,88.8c-.07.21-.15.21-.24,0v-1.44h.24c.47.47.47.97,0,1.44Z"/>
      <path class="cls-1" d="M80.88,0v.24c-.47.47-.97.47-1.44,0v-.24h1.44Z"/>
      <path class="cls-9" d="M.24,90h-.24v-1.2h.24c.6.43.6.77,0,1.2Z"/>
      <path class="cls-7" d="M125.76,145c.14-.34.29-.69.44-1.02.49-1.09,1.38-1.87,2.44-2.35v-2.42c-1.17.6-2.34-1.1-2.8-1.18-.48-.08-3.64,4.09-4.28,4.78-.56.61-3.51,3.14-3.61,3.36-.36.79,1.23,2,1.9,2.38l5.91-5.74v2.2Z"/>
      <path class="cls-7" d="M128.64,28.15c-1.24-.92-2.14-2.34-2.3-4.25-.2-.1-.4-.21-.58-.34v.2c-.8-.41-2.35-3.22-3.03-3.33-.31-.05-2.72,1.64-1.97,2.21l6.44,8.94c.29.13,2.62-1.26,2.63-1.45.01-.16-1.19-1.66-1.19-1.92v-.05Z"/>
      <path class="cls-4" d="M98.9,161.26c-.07-.69-1.28-2.28-.75-2.74l10.33-5.05,1.33,2.54c-1.27.8-10.24,5.74-10.91,5.26Z"/>
      <path class="cls-4" d="M24.15,20.9c.29-.05,2.17,1.67,1.98,2.21l-7.53,8.8c-.37-.49-2.34-1.43-2.25-1.99.1-.65,7.21-8.92,7.8-9.03Z"/>
      <path class="cls-4" d="M4.8,63.85l-1.47,11.36c-.29.89-2.33-.12-3.09.15l1.44-12,3.12.49Z"/>
      <path class="cls-4" d="M41.5,155.54c.21.29-.4,1.32-.58,1.66-.14.28-.58,1.29-.93,1.17-1.03-.35-4.19-2.62-5.27-3.38-1.17-.83-3.13-2.15-4.09-3.11s.97-1.86,1.41-2.84c2.93,2.45,6.03,4.79,9.46,6.5Z"/>
      <path class="cls-4" d="M86.88,162.24c-.07.7.86,2.59.25,3.01l-11.77,1.55-.24-3.12,11.76-1.44Z"/>
      <path class="cls-4" d="M113.76,11.76l-1.79,2.62c-3.11-2.24-6.39-4.31-9.95-5.77l.95-2.86c3.88,1.48,7.3,3.83,10.8,6Z"/>
      <polygon class="cls-4" points="67.44 .48 67.67 3.35 56.16 5.52 55.44 2.4 67.44 .48"/>
      <path class="cls-4" d="M16.26,131.79c.29-.07.49-.05.66.21l6.58,8.8c.19.7-1.63,1.53-2.01,2.23l-7.29-9.52c-.06-.37,1.73-1.63,2.07-1.72Z"/>
      <path class="cls-4" d="M7.92,52.56c-.55-.23-2.89-.59-2.84-1.27l4.88-10.94,2.5,1.53-4.54,10.69Z"/>
      <path class="cls-4" d="M63.6,163.2l-.24,2.88c-.38.38-6.5-1.01-7.49-1.27-.87-.22-3.52-.84-4.11-1.17-.91-.52.33-2.25.44-3.08,3.69,1.28,7.53,2.12,11.4,2.64Z"/>
      <path class="cls-4" d="M11.04,121.44c-.79-.03-2.51,1.62-3,.96-.57-1.4-4.51-10.6-3.95-11.26.09-.11,2.53-.81,2.74-.5l4.2,10.8Z"/>
      <path class="cls-4" d="M44.14,6.98l1.22,2.62-10,5.73c-.47.07-1.97-2.17-1.73-2.58,1.31-.76,9.77-6.3,10.51-5.77Z"/>
      <path class="cls-4" d="M80.88.24c3.48,0,7.17.84,10.57,1.56.33.21.1.33.08.54-.04.34-.51,2.44-.7,2.46-3.78-1.05-7.72-1.42-11.62-1.69.44-.89.18-1.92.24-2.88.48,0,.96,0,1.44,0Z"/>
      <path class="cls-6" d="M.24,87.36c.69.22,2.68-.44,2.85.15l.99,11.6-2.86.23c-.46-3.1-.89-6.2-.97-9.35-.01-.4,0-.8,0-1.2,0-.48,0-.96,0-1.44Z"/>
      <path class="cls-4" d="M133.45,156.24v3.18c.03.22.04.44.04.67,0,.77,0,1.53-.09,2.3-.05.48-.11.9-.18,1.29h3.1v-7.44h-2.88Z"/>
      <path class="cls-7" d="M133.52,3.36c0,.53.01,1.05-.02,1.59-.03.44-.1.87-.21,1.29h.16v4.56h2.88V3.36h-2.81Z"/>
      <rect class="cls-7" x="133.45" y="89.04" width="2.88" height="11.28"/>
      <rect class="cls-7" x="133.45" y="44.4" width="2.88" height="11.28"/>
      <rect class="cls-7" x="133.45" y="66.72" width="2.88" height="11.28"/>
      <rect class="cls-7" x="133.45" y="133.92" width="2.88" height="11.28"/>
      <rect class="cls-4" x="133.45" y="111.6" width="2.88" height="11.04"/>
      <rect class="cls-4" x="133.45" y="22.08" width="2.88" height="11.04"/>
    </g>
  </g>
</svg>