<?xml version="1.0" encoding="UTF-8"?>
<svg id="Layer_2" data-name="Layer 2" xmlns="http://www.w3.org/2000/svg" viewBox="0 0 154.8 167.28">
  <defs>
    <style>
      .cls-1 {
        fill: #272324;
      }

      .cls-2 {
        fill: #646567;
      }

      .cls-3 {
        fill: #272425;
      }

      .cls-4 {
        fill: #c8cacc;
      }

      .cls-5 {
        fill: #262324;
      }

      .cls-6 {
        fill: #95979a;
      }
    </style>
  </defs>
  <g id="Layer_1-2" data-name="Layer 1">
    <g>
      <path class="cls-3" d="M87.36,0s.19.21.38.22c3.59.28,7.12.82,10.66,1.46.12.12-.47,2.99-.83,3.06l-11.41-1.62V0c.4.02.81-.03,1.2,0Z"/>
      <path class="cls-3" d="M0,82.8c.69.13,2.84-.35,3.09.39.38,1.15-.03,6.21.02,7.9.04,1.16.47,2.46.25,3.71l-2.74.26-.63-2.9v-.72c.09-.58.17-1.14.24-1.68-.07-.52-.15-1.08-.24-1.68v-5.28Z"/>
      <path class="cls-4" d="M86.88,167.04v.24h-5.04v-.24c1.62-.66,3.42-.66,5.04,0Z"/>
      <path class="cls-2" d="M.24,89.76c-.07.21-.15.21-.24,0v-1.68c.41.32.24,1.16.24,1.68Z"/>
      <path class="cls-6" d="M0,91.44v-1.68h.24c0,.52.17,1.36-.24,1.68Z"/>
      <path class="cls-5" d="M27.12,89.76v2.88h4.08l.16.8c.51-.14,1.06-.22,1.67-.22.44,0,.85.04,1.24.12-.01-.29,0-.53.05-.69h4.8v-2.88h-12Z"/>
      <path class="cls-1" d="M81.84,167.04c-3.14-.07-6.23-.26-9.36-.48l.24-3.12c4.49.42,9.04.7,13.56.72l5.4-.48.24,3.12c-1.68.24-3.35.2-5.04.24s-3.37.04-5.04,0Z"/>
      <path class="cls-3" d="M153.59,60.97l1.21,12.24h-3.12c-.04-3.94-.4-7.91-1.2-11.76l3.12-.48Z"/>
      <path class="cls-3" d="M119.49,13.66c-.5.3-8.91-5.08-10.43-5.24-.4-.56.93-2.11.86-2.89,3.84,1.6,7.66,3.45,11.01,5.88-.42.24-1.33,2.19-1.44,2.25Z"/>
      <polygon class="cls-3" points="74.16 .25 74.4 3.37 62.66 5.03 61.92 2.17 74.16 .25"/>
      <path class="cls-3" d="M136.05,148.35c.12.07,1.02,2.01,1.45,2.25,0,.62-9.36,5.74-10.77,6.12l-1.1-2.65c1.47-.34,9.92-6.03,10.43-5.73Z"/>
      <path class="cls-3" d="M10.54,48.47l-.71-.09-2.12-1.17c.43-1.36,5.2-10.7,5.84-10.7.15,0,2.27,1.48,2.25,1.73l-5.27,10.23Z"/>
      <path class="cls-3" d="M21.6,137.52c-.93,0-1.76,2.15-2.64,1.57-2.15-2.95-4.98-5.93-6.74-9.11-.13-.24-.32-.29-.12-.62.17-.27,2.29-1.49,2.54-1.33l6.96,9.49Z"/>
      <path class="cls-3" d="M51.34,8.62l-10.43,5.03c-.14-.01-1.51-2.15-1.53-2.29-.07-.43,1.07-.96,1.41-1.16,2.84-1.71,6.29-2.97,9.29-4.41.56-.05,1.42,2.6,1.26,2.83Z"/>
      <path class="cls-3" d="M61.2,161.28c-.18.67-.28,2.83-1.08,2.89l-11.18-3.76,1.11-2.74,11.15,3.61Z"/>
      <polygon class="cls-3" points="114.71 158.65 115.68 161.52 103.92 164.88 103.24 162.11 103.43 161.88 114.71 158.65"/>
      <polygon class="cls-3" points="6.48 59.53 4.08 71.04 .96 70.8 3.36 58.8 6.48 59.53"/>
      <path class="cls-3" d="M150.48,49.2l-2.88.96-4.56-11.04c.8.04,2.15-1.65,2.76-.97l4.68,11.04Z"/>
      <path class="cls-3" d="M5.52,106.32l3.6,11.28c-.79.03-2.46,1.4-3,.72-.29-.37-1.08-2.8-1.33-3.47-.93-2.56-1.57-5.21-2.4-7.8l3.12-.72Z"/>
      <path class="cls-3" d="M29.91,145.71c.56-.1,7.84,6.14,9.34,6.45.35.37-.92,2.43-1.09,2.54-.47.31-2.25-1-2.77-1.33-2.52-1.58-4.79-3.55-7.21-5.28-.28-.51,1.44-2.33,1.73-2.38Z"/>
      <path class="cls-3" d="M130.45,18.73c3.36,2.35,5.81,5.73,8.5,8.78l-2.27,2.02c-2.53-2.97-4.97-6.08-8.04-8.52l1.81-2.27Z"/>
      <path class="cls-3" d="M29.2,18.27c.43-.08,2.08,1.91,2,2.24l-8.16,7.95c-.36.19-2.2-1.36-2.29-1.57-.11-.24.06-.37.16-.56,1.23-1.19,7.14-7.86,8.28-8.07Z"/>
      <polygon class="cls-3" points="154.56 85.2 154.56 92.64 147.12 92.64 147.12 89.76 151.44 89.76 151.68 84.96 154.56 85.2"/>
      <rect class="cls-5" x="51.12" y="89.76" width="12" height="2.88"/>
      <rect class="cls-5" x="75.12" y="89.76" width="12" height="2.88"/>
      <rect class="cls-5" x="99.12" y="89.76" width="12" height="2.88"/>
      <rect class="cls-5" x="123.12" y="89.76" width="12" height="2.88"/>
    </g>
    <rect class="cls-5" x="6.01" y="90.16" width="12" height="2.88"/>
    <path class="cls-3" d="M147.29,133.54c.14.02,1.75,1.43,2.24,1.47.25.57-6.22,9.06-7.35,9.97l-2.08-1.97c1.21-.91,6.61-9.54,7.2-9.47Z"/>
  </g>
</svg>