<?xml version="1.0" encoding="UTF-8"?>
<svg id="Layer_2" data-name="Layer 2" xmlns="http://www.w3.org/2000/svg" viewBox="0 0 135.8 286.71">
  <defs>
    <style>
      .cls-1 {
        fill: #000000;
      }

      .cls-2 {
        fill: #000000;
      }

      .cls-3 {
        fill: #000000;
      }

      .cls-4 {
        fill: #000000;
      }

      .cls-5 {
        fill: #000000;
      }

      .cls-6 {
        fill: #000000;
      }
    </style>
  </defs>
  <g id="Layer_1-2" data-name="Layer 1">
    <g>
      <path class="cls-2" d="M80.64,0c.62.21,1.3.2,1.92,0,.4.02.81-.03,1.2,0,.04,0,.19.21.38.22,1.72.14,3.43.31,5.14.5l-.48,3.12c-1.74-.25-3.66-.61-5.4-.72-1.37-.08-4.74.29-5.72-.04-.74-.24-.27-2.4-.39-3.09h3.36Z"/>
      <path class="cls-2" d="M.24,87.85h2.88s1.2,11.52,1.2,11.52l-3.12.48-.95-9.02-.25-.58c0-.24,0-.48,0-.72.06-.58.14-1.14.24-1.68Z"/>
      <path class="cls-1" d="M82.56,0c-.38.4-1.55.4-1.92,0h1.92Z"/>
      <path class="cls-4" d="M0,89.53v-1.68h.24c.26.54-.24,1.46-.24,1.68Z"/>
      <path class="cls-3" d="M128.31,20.44l-6.51-5.55c-.32.91-2.01,1.9-1.33,2.77l8.3,7.3,1.15-1.04c.08-.37.18-.73.28-1.09-.84-.6-1.52-1.43-1.88-2.4Z"/>
      <path class="cls-6" d="M131.52,95.43c.47-.15,2.51-.19,2.69.36-.23,1.69.46,11.1-.07,11.86-.24.35-2.78.46-2.98-.17.23-1.69-.46-11.1.07-11.86.07-.11.17-.15.29-.19Z"/>
      <path class="cls-6" d="M131.52,22.48c.47-.15,2.51-.19,2.69.36-.23,1.69.46,11.1-.07,11.86-.24.35-2.78.46-2.98-.17.23-1.69-.46-11.1.07-11.86.07-.11.17-.15.29-.19Z"/>
      <rect class="cls-5" x="131.12" y="46.92" width="3.12" height="12.24"/>
      <rect class="cls-6" x="131.12" y="144.12" width="3.12" height="12.24"/>
      <rect class="cls-5" x="131.12" y="71.16" width="3.12" height="12.24"/>
      <rect class="cls-5" x="131.12" y="119.88" width="3.12" height="12.24"/>
      <path class="cls-2" d="M68.39,282.87c-.3.76.69,2.82-.16,3.09l-12.09.76c.13-.68-.35-2.84.39-3.09l11.85-.75Z"/>
      <path class="cls-2" d="M135.11,222.87l-2.64,12.24c-.56-.47-2.89-.48-2.84-1.27l2.48-11.22.24-.17,2.77.42Z"/>
      <path class="cls-2" d="M111.26,264.41c.41-.07,2.17,1.86,1.91,2.39-2.17,1.76-4.25,3.64-6.54,5.23-.51.35-2.83,2.06-3.2,1.86-.34-.19-1.58-2.15-1.34-2.54l9.17-6.94Z"/>
      <path class="cls-2" d="M127.89,246.41c.27.38-1.95,4.26-2.34,4.94-.65,1.13-2.82,4.8-3.64,5.5s-1.74-.95-2.63-1.12l5.99-10.53,2.62,1.22Z"/>
      <polygon class="cls-2" points="49.25 283.49 48.33 286.22 36.87 281.48 38.18 278.97 49.25 283.49"/>
      <path class="cls-2" d="M80.63,283.59l-.72-2.88,11.52-3.84c.03.78,1.38,2.4.73,3l-11.53,3.72Z"/>
      <path class="cls-2" d="M27.6,273.14c-.51.38-1.22,2.51-1.72,2.48-2.79-1.78-5.78-3.57-8.37-5.62-.36-.28-1.27-.87-1.46-1.1-.46-.56,1.22-1.74,1.38-2.47l.54.12,9.63,6.6Z"/>
      <path class="cls-2" d="M6.01,254.53l.66-.81s0,0-.01,0c-1.18-.29-2.05-.88-2.65-1.63l-1.91,2.41c-.02.38,4.2,5.74,4.57,5.75.41-.32,2.11-1.66,2.12-2.04,0-.41-2.93-3.01-2.78-3.67Z"/>
      <path class="cls-2" d="M86.4,163.44c-.23.71.77,2.78-.15,3.09l-11.61.27c.13-.68-.35-2.84.39-3.09l11.37-.27Z"/>
      <path class="cls-2" d="M130.18,3c.26.93.29,1.94.06,2.88h.88v4.56h3.12V3h-4.06Z"/>
      <path class="cls-2" d="M4.8,64.81l-1.47,11.12c-.3.9-2.33.04-3.08.15l1.44-11.75,3.12.48Z"/>
      <path class="cls-2" d="M42.96,8.41l1.1,2.64c-1.43.37-9.45,6.26-9.95,5.97-.13-.07-1.55-2.29-1.25-2.5l10.1-6.12Z"/>
      <path class="cls-2" d="M16.5,131.32c.28-.07.48-.03.68.19l6.81,8.57c.04.23-1.91,1.97-2.06,1.99-.73.13-6.71-7.85-7.43-9.09-.09-.35,1.7-1.58,2-1.66Z"/>
      <path class="cls-2" d="M32.32,148.1c.55-.15,8.11,5.93,9.57,6.21.12.2-1.08,2.38-1.33,2.54-.31.2-2.4-1.19-2.86-1.47-2.38-1.47-4.9-3.18-6.94-5.05-.06-.34,1.25-2.14,1.57-2.22Z"/>
      <path class="cls-2" d="M108.22,156.74c.16.8.77,1.5,1.03,2.23.1.27.29.23-.05.51-.8.67-4.73,2.24-5.94,2.71-1.35.53-3.07,1.22-4.45,1.57-.25.06-.3.27-.53-.07-.25-.36-.96-2.5-.61-2.76l10.54-4.19Z"/>
      <path class="cls-2" d="M110.63,11.04l-10.55-4.44-.2-.23.93-2.77,10.8,4.68c.66.59-1.02,1.88-.97,2.75Z"/>
      <path class="cls-2" d="M12.24,42.97c-1.65,3.54-3.24,7.18-4.67,10.76l-2.77-.93,4.8-10.93,2.64,1.1Z"/>
      <path class="cls-2" d="M65.52.97l.42,2.77-.17.23-11.05,2.76c.03-.6-1.17-2.69-.73-3l11.52-2.77Z"/>
      <path class="cls-2" d="M11.02,121.42c-.7.07-2.26,1.28-2.74.74-.68-.76-2.33-5.14-2.77-6.36-.38-1.06-1.16-2.95-1.34-3.96-.2-1.11,2.08-.88,2.78-1.45l4.06,11.02Z"/>
      <path class="cls-2" d="M63.34,162.26c.14.16-.27,2.48-.43,2.72-.31.47-5.37-.93-6.27-1.18-.76-.21-5.17-1.51-5.26-1.94l1.06-2.74c3.46,1.53,7.22,2.35,10.9,3.13Z"/>
      <path class="cls-2" d="M18.47,33.36c-.29.2-2.26-1.45-2.61-1.79,1.51-1.98,2.99-4.03,4.65-5.88.92-1.03,2.07-2.24,3.09-3.1l2.07,2.02c-2.55,2.77-5.24,5.52-7.2,8.75Z"/>
      <path class="cls-2" d="M120,152.76c.54-.3,2.3-1.87,2.88-2.4,1.63-1.45,3.13-3.18,4.71-4.74,0-.02,0-.03,0-.05,0-.5.06-.96.17-1.38-.63-.62-1.48-1.42-1.76-1.29-1.1,1.08-2,2.31-3.12,3.38-.69.66-5.1,4.11-5.02,4.52.02.12,1.34,1.98,1.45,2.04.22.13.48.03.69-.09Z"/>
    </g>
    <rect class="cls-6" x="132.68" y="195.69" width="3.12" height="12.24"/>
    <rect class="cls-5" x="132.68" y="171.45" width="3.12" height="12.24"/>
  </g>
</svg>