<?xml version="1.0" encoding="UTF-8"?>
<svg id="Layer_2" data-name="Layer 2" xmlns="http://www.w3.org/2000/svg" viewBox="0 0 92.71 274.53">
  <defs>
    <style>
      .cls-1 {
        fill: #000000;
      }

      .cls-2 {
        fill: #000000;
      }

      .cls-3 {
        fill: #000000;
      }

      .cls-4 {
        fill: #000000;
      }
    </style>
  </defs>
  <g id="Layer_1-2" data-name="Layer 1">
    <g>
      <path class="cls-3" d="M92.71,196.18h-.2l-.41-.19v-9.97l.41-.24h.2v10.4Z"/>
      <path class="cls-3" d="M92.71,216.78h-.2l-.41-.19v-9.97l.41-.24h.2v10.4Z"/>
      <path class="cls-3" d="M92.71,237.39h-.2l-.41-.19v-9.97l.41-.24h.2v10.4Z"/>
      <path class="cls-3" d="M92.71,257.99h-.2l-.41-.19v-9.97l.41-.24h.2v10.4Z"/>
      <path class="cls-3" d="M92.71,274.51c-.07,0-.14,0-.2,0-.16-.02-.4-.07-.41-.18-.05-.65-.1-5.57,0-5.85.06-.15.25-.23.41-.29h.2v6.32Z"/>
      <path class="cls-2" d="M12.3,150.66l-6.71,6.46c-.68.31-1.84-.87-2.44-1.23,1.56-1.85,3.18-3.79,4.99-5.41,1.92-1.73,3.12-3.34,4.16.18Z"/>
      <path class="cls-1" d="M49.87,135.39v2.65c-1.28-.17-10.05.58-10.41.2-.1-.1-.44-2.62.35-2.61l10.06-.25Z"/>
      <path class="cls-1" d="M70.03,140.52c.39.66-.9,1.65-.79,2.4-.39.34-2.93-1.21-3.52-1.45-1.94-.79-3.97-1.47-6.05-1.81l.41-2.64c.4-.35,9.61,2.92,9.95,3.5Z"/>
      <path class="cls-1" d="M78.56,147.03c.39-.07,2.56,2.5,2.92,2.95.77.95,3.06,3.99,3.39,4.99.24.74-1.17,1.63-1.75,1.76-.5.11-4.97-7.43-6.33-7.98l1.76-1.72Z"/>
      <path class="cls-1" d="M88.84,175.77l-2.06-9.47c.1-.68,1.57-.75,2.15-1.12l2.57,9.89c-.06.78-2.05.74-2.65.7Z"/>
      <path class="cls-1" d="M29.26,138.24c-.11.68.97,2.11.41,2.55l-9.18,3.98c.05-.64-1.43-2.09-.82-2.55l9.59-3.98Z"/>
      <path class="cls-1" d="M92.5,185.77v10.4h-2.45c.01-3.47.06-6.95-.2-10.41h2.65Z"/>
      <rect class="cls-1" x="90.06" y="206.38" width="2.45" height="10.4"/>
      <rect class="cls-1" x="90.06" y="226.98" width="2.45" height="10.4"/>
      <rect class="cls-1" x="90.06" y="247.59" width="2.45" height="10.4"/>
      <path class="cls-1" d="M92.5,268.19v6.32c-.8.07-1.64-.05-2.45,0-.21-2.12.09-4.19,0-6.33h2.45Z"/>
    </g>
    <g>
      <rect class="cls-1" y="68.88" width="3.12" height="12.48"/>
      <rect class="cls-1" y="93.6" width="3.12" height="12.48"/>
      <rect class="cls-1" y="118.32" width="3.12" height="12.48"/>
      <rect class="cls-1" y="143.04" width="3.12" height="12.48"/>
      <rect class="cls-1" y="167.76" width="3.12" height="12.48"/>
      <rect class="cls-1" y="192.48" width="3.12" height="12.48"/>
      <rect class="cls-1" y="217.2" width="3.12" height="12.48"/>
      <rect class="cls-1" y="241.92" width="3.12" height="12.48"/>
      <polygon class="cls-1" points="2.88 0 3.12 12.48 0 12.48 0 0 2.88 0"/>
      <path class="cls-1" d="M0,24.72c.55.06,3.12-.23,3.12.36v12.12H0v-12.48Z"/>
      <path class="cls-2" d="M0,266.64h3.12c.15.15-.11,3.55-.02,4.22.06.47.51.33.51.47,0,.55-1.07,2.1-.74,2.99l-2.88-.24v-7.44Z"/>
      <path class="cls-4" d="M0,49.2h2.88c.37,2.47.27,4.91.24,7.44H0v-7.44Z"/>
    </g>
  </g>
</svg>