<?xml version="1.0" encoding="UTF-8"?>
<svg id="Layer_2" data-name="Layer 2" xmlns="http://www.w3.org/2000/svg" viewBox="0 0 150.75 265.21">
  <defs>
    <style>
      .cls-1 {
        fill: #272324;
      }

      .cls-2 {
        fill: #272425;
      }
    </style>
  </defs>
  <g id="Layer_1-2" data-name="Layer 1">
    <g>
      <path class="cls-2" d="M129.4,42.6c.32,0,.83-.05.93.18l-2.88,5.41c.93.12,2.31,1.77,3.01.82l4.46-9.08-3.88-.34c-.52,1.02-1.07,2.02-1.65,3.01Z"/>
      <path class="cls-1" d="M71.55,157.5l-3.41-8.51-2.85,1.32,4.38,10.55c.77-1.08,1.36-2.2,1.88-3.36Z"/>
      <path class="cls-2" d="M30.71,60.67l4.53,10.93-2.72,1.32-4.69-10.94c-.07-.54.09-.26.34-.37.36-.16,2.41-1.06,2.53-.94Z"/>
      <path class="cls-2" d="M49.43,104.83l4.57,11.16-2.75,1.09-4.64-10.94c.06-.4,2.32-1.17,2.82-1.31Z"/>
      <path class="cls-2" d="M58.79,126.91l4.57,11.14-2.75,1.11-4.64-10.94c.05-.34,2.33-1.13,2.82-1.31Z"/>
      <path class="cls-2" d="M72.18,158.83l-5.29,10.85-2.77-1.21c1.71-3.66,3.56-7.38,5.63-10.79l2.43,1.15Z"/>
      <path class="cls-2" d="M40.07,82.75l4.54,10.95c.13.49-.09.26-.31.35-.79.34-1.63.58-2.41.95l-4.69-10.94c-.07-.54.1-.26.34-.37.33-.15,2.44-1.03,2.54-.94Z"/>
      <path class="cls-2" d="M23.03,50.83l-4.56-10.93c-.07-.47.07-.29.3-.41.27-.14,2.11-.86,2.23-.85.59.09,4.01,9.7,4.89,10.87l-2.86,1.32Z"/>
      <path class="cls-2" d="M113.67,78.85l-5.29,10.83-2.77-1.19c1.79-3.64,3.64-7.33,5.64-10.82l2.41,1.18Z"/>
      <polygon class="cls-2" points="62.99 176.47 57.72 187.32 54.94 186.11 60.23 175.25 62.99 176.47"/>
      <path class="cls-2" d="M91.63,121.49l-5.29,10.83-2.76-1.2c1.76-3.65,3.6-7.35,5.64-10.81l2.41,1.18Z"/>
      <path class="cls-2" d="M124.66,57.67c.33.63-4.89,9.39-5.26,10.83-.12.07-2.33-1.08-2.54-1.31-.4-.43,4.7-9.25,5.15-10.51.27-.46,2.58.86,2.65.99Z"/>
      <path class="cls-2" d="M102.63,100.3c.32.52-4.94,9.41-5.27,10.84-.12.07-2.32-1.08-2.54-1.31-.43-.46,4.66-9.26,5.15-10.52.28-.43,2.59.86,2.67.99Z"/>
      <path class="cls-2" d="M80.6,142.94c-1.62,3.69-3.47,7.42-5.62,10.78-.45-.46-2.49-.98-2.36-1.69l5.31-10.07c.66-.52,1.94.84,2.66.98Z"/>
      <polygon class="cls-2" points="53.54 195.73 48.24 206.59 45.46 205.38 50.76 194.53 53.54 195.73"/>
      <path class="cls-2" d="M43.52,214.92c.34.66-4.56,9.45-5.04,10.83-.22.13-2.8-.92-2.71-1.5l5.23-10.55c.38.3,2.39.99,2.51,1.22Z"/>
      <path class="cls-2" d="M30.78,235.19l-2.96,6.25-.3-.03c.07.96.04,1.92-.11,2.88l2.31.2,3.8-7.74-2.74-1.56Z"/>
    </g>
    <polygon class="cls-2" points="23.21 254.36 17.91 265.21 15.14 264.01 20.43 253.16 23.21 254.36"/>
    <path class="cls-2" d="M14.12,30.02l-4.56-10.93c-.07-.47.07-.29.3-.41.27-.14,2.11-.86,2.23-.85.59.09,4.01,9.7,4.89,10.87l-2.86,1.32Z"/>
    <path class="cls-2" d="M142.07,21.87c.33.63-4.89,9.39-5.26,10.83-.12.07-2.33-1.08-2.54-1.31-.4-.43,4.7-9.25,5.15-10.51.27-.46,2.58.86,2.65.99Z"/>
    <path class="cls-2" d="M150.74,3.08c.33.63-4.89,9.39-5.26,10.83-.12.07-2.33-1.08-2.54-1.31-.4-.43,4.7-9.25,5.15-10.51.27-.46,2.58.86,2.65.99Z"/>
    <path class="cls-2" d="M4.58,12.18L.02,1.25c-.07-.47.07-.29.3-.41C.6.71,2.43-.02,2.55,0c.59.09,4.01,9.7,4.89,10.87l-2.86,1.32Z"/>
  </g>
</svg>