<?xml version="1.0" encoding="UTF-8"?>
<svg id="Layer_2" data-name="Layer 2" xmlns="http://www.w3.org/2000/svg" viewBox="0 0 141.52 268.77">
  <defs>
    <style>
      .cls-1 {
        fill: #8b8d8f;
      }

      .cls-2 {
        fill: #646567;
      }

      .cls-3 {
        fill: #272425;
      }

      .cls-4 {
        fill: #646466;
      }

      .cls-5 {
        fill: #292627;
      }

      .cls-6 {
        fill: #272424;
      }

      .cls-7 {
        fill: #262324;
      }

      .cls-8 {
        fill: #292626;
      }

      .cls-9 {
        fill: #2a2728;
      }
    </style>
  </defs>
  <g id="Layer_1-2" data-name="Layer 1">
    <g>
      <path class="cls-8" d="M4.63,191.16c.6-.32,2.52-.18,2.65.51l-.2,9.56c-.08.32-.96.32-1.23.34-.91.13-1.32-.42-1.22-1.63v-4.69c.08-.42.15-.83.2-1.22-.06-.44-.12-.92-.2-1.43v-1.43Z"/>
      <path class="cls-4" d="M4.63,199.93c.58.85-.42,1.62,1.08,1.47l.14.16c-.4.03-.82-.02-1.22,0v-1.63Z"/>
      <path class="cls-1" d="M4.83,194.02c-.06.18-.13.18-.2,0v-1.43c.35.28.2.98.2,1.43Z"/>
      <path class="cls-2" d="M4.63,195.24v-1.22h.2c0,.38.13,1-.2,1.22Z"/>
      <path class="cls-7" d="M133.84,41.58l.24,110.64h6.72l-9,15.84-9.12-15.37c-.24-.13.22-.48.24-.48h6.36V41.58h4.56Z"/>
      <path class="cls-7" d="M10.38,132.14c1.69.77,3.57,1.69,5.14,2.66.16.1.63.29.45.53l-15.41,9.39-.56-18.31,5.7,3.05.55.02c6.48-9.38,14.7-17.78,25.27-22.49,11.58-5.15,25.13-5.68,37.17-1.93l-1.28,4.35c-17.2-5.07-34.08-1.52-47.23,10.69-2.82,2.62-7.92,8.1-9.65,11.41-.11.22-.29.29-.16.62Z"/>
      <path class="cls-7" d="M129.28,25.43h11.88s.36.33.36.36v3.84s-.33.36-.36.36h-17.64c-.14-1.05-1.53-2.87-1.08-3.83,3.13-3.8,6.91-7.34,9.96-11.17,1.63-2.06,3.84-4.78,3.26-7.57-1.25-5.99-9.87-2.22-10.22,2.65-.7-.33-3.56-1.8-3.55-2.47,0-.4.77-1.88,1.03-2.33,6.08-10.62,23.8-4.02,15.34,9.58-2.43,3.91-6.22,6.94-8.98,10.58Z"/>
      <path class="cls-6" d="M86.6,83.75v25.44h4.8v4.32h-14.16v-4.32h4.56v-19.44l-4.32,2.16c.12-.98-1.3-3.38-.85-4.08.22-.35,6.77-3.82,7.32-3.96.87-.22,1.76-.08,2.65-.11Z"/>
      <path class="cls-8" d="M68.67,265.62c-.04,1.04.91,2.65-.52,2.84-3.04.39-10.45.54-13.28-.35-1.67-.52-.47-2.78-.18-2.82.61-.09,3.01.48,3.89.54,2.97.21,6.19.12,9.18,0,.32-.01.6-.19.92-.21Z"/>
      <path class="cls-8" d="M47.46,128.94l.62,2.65-8.77,3.47c-.1-.84-1.27-1.9-.52-2.66l8.68-3.46Z"/>
      <path class="cls-8" d="M17.21,152.63c.48-.12,1.74,1.13,1.66,1.66-.66.93-4.22,8.33-4.73,8.29-.34-.03-1.98-1.06-1.94-1.47s2.19-4.29,2.59-4.97c.37-.64,1.9-3.38,2.42-3.51Z"/>
      <path class="cls-8" d="M45.6,262.79c.11.17-.35,2.24-.48,2.42-.17.25-.31.2-.56.17-.6-.07-2.65-1.05-3.35-1.36-.77-.34-4.16-1.95-4.56-2.38-.56-.6.37-2.06.92-2.5l8.04,3.65Z"/>
      <path class="cls-8" d="M77.24,263.59l8.08-3.47c.63-.25,1.48,1.85,1.45,2.15-.06.55-7.5,3.28-8.44,3.95-.69.06-.74-2.14-1.09-2.63Z"/>
      <path class="cls-5" d="M65.82,129.56c-1.14-.35-8.84.51-9.17.19-.11-.11-.59-2.96.3-2.85l8.54-.18c.64.21.22,2.23.34,2.83Z"/>
      <path class="cls-9" d="M114.16,50.63v11.88c0,.81-2.41.41-2.88.36v-12.24h2.88Z"/>
      <path class="cls-9" d="M114.16,74.63v11.88c0,.81-2.41.41-2.88.36v-12.24h2.88Z"/>
      <path class="cls-9" d="M114.16,98.63v11.88c0,.81-2.41.41-2.88.36v-12.24h2.88Z"/>
      <path class="cls-9" d="M114.16,122.63v11.88c0,.81-2.41.41-2.88.36v-12.24h2.88Z"/>
      <path class="cls-9" d="M114.16,170.63v11.88c0,.81-2.41.41-2.88.36v-12.24h2.88Z"/>
      <path class="cls-9" d="M114.16,194.63v11.88c0,.81-2.41.41-2.88.36v-12.24h2.88Z"/>
      <path class="cls-9" d="M114.16,218.63v11.88c0,.81-2.41.41-2.88.36v-12.24h2.88Z"/>
      <path class="cls-9" d="M114.16,146.63v11.88c0,.81-2.41.41-2.88.36v-12.24h2.88Z"/>
      <path class="cls-8" d="M11.18,231.17c.05-.08,1.54-.64,1.72-.63.38.02.49.27.67.53,1.53,2.15,2.55,5.78,4.02,8.03-.54.59-1.1,1.08-1.85,1.4-.72-1.19-5.08-8.5-4.56-9.33Z"/>
      <path class="cls-5" d="M6.07,180.95c-.34-.39,1.92-8.81,2.24-9.97.24-.2,2.39.64,2.41.91l-2.26,9.14c0,.7-2.31.02-2.39-.08Z"/>
      <path class="cls-8" d="M92.28,136.52c.51-.13,2.1,1.23,2.61,1.61.93.72,4.12,3.34,4.61,4.17.54.91-1.06,2.23-1.45,2.06-.52-.23-2.32-2.24-2.96-2.76s-3.7-2.58-3.88-2.86c-.27-.42.64-2.11,1.07-2.22Z"/>
      <path class="cls-8" d="M23.12,247.09c.53-.04,5.5,5.84,6.7,6.3.3.65-.9,1.67-1.25,2.24-.22.05-.99-.62-1.21-.81-.97-.82-5.05-4.86-5.45-5.77-.31-.7.64-1.91,1.21-1.95Z"/>
      <path class="cls-8" d="M83.98,131.39c-.1.43-.6,2.62-.92,2.64-2.68-1.35-5.55-2.32-8.45-3.07.18-2.76-.16-2.88,2.43-2.12,2.36.69,4.59,1.82,6.94,2.55Z"/>
      <path class="cls-8" d="M109.88,160.36l-2.24.41c-.53-3.13-2.02-5.93-3.44-8.72-.12-.8,1.5-1.05,1.91-1.68,1.57,3.19,3.46,6.36,3.77,9.99Z"/>
      <polygon class="cls-5" points="8.09 211.36 9.94 221.03 7.99 221.96 5.44 211.77 8.09 211.36"/>
      <path class="cls-8" d="M100.28,248.09c.1.09.83,2.25.6,2.5l-6.2,6.26c-.14,0-1.55-1.99-1.44-2.24.14-.32,2.12-1.67,2.57-2.13.88-.89,2.71-3.7,3.55-4.2.23-.14.74-.34.92-.18Z"/>
      <path class="cls-3" d="M113.92,253.43v12.12c0,.55-2.16.33-2.64.36v-12.48h2.64Z"/>
      <path class="cls-8" d="M30.26,138.15c.42-.06,1.6,1.55,1.4,2.01l-6.97,6.11c-.28.05-1.58-1.48-1.41-1.82,1.29-.7,6.09-6.16,6.99-6.3Z"/>
      <rect class="cls-3" x="111.28" y="235.91" width="2.64" height="12.24"/>
      <rect class="cls-3" x="111.28" y="2.39" width="2.64" height="12.24"/>
      <rect class="cls-3" x="111.28" y="26.39" width="2.64" height="12.24"/>
      <path class="cls-5" d="M108.25,231.55c.42.42-.76,7.96-1.34,8.76s-2.33-.39-2.35-.52c-.05-.27,1.13-4.2,1.2-5.28.03-.4-.26-.86-.16-1.42.15-.87,1.75-1.91,2.65-1.54Z"/>
    </g>
  </g>
</svg>