<?xml version="1.0" encoding="UTF-8"?>
<svg id="Layer_2" data-name="Layer 2" xmlns="http://www.w3.org/2000/svg" viewBox="0 0 139.33 197.19">
  <defs>
    <style>
      .cls-1 {
        fill: #000000;
      }

      .cls-2, .cls-3 {
        fill: #000000;
      }

      .cls-4 {
        fill: #000000;
      }

      .cls-5 {
        fill: #000000;
      }

      .cls-6 {
        fill: #000000;
      }

      .cls-7 {
        fill: #000000;
      }

      .cls-8 {
        fill: #000000;
      }

      .cls-3 {
        font-family: LexendDeca-Regular, 'Lexend Deca';
        font-size: 42px;
      }
    </style>
  </defs>
  <g id="Layer_1-2" data-name="Layer 1">
    <path class="cls-2" d="M107.64,25.04l-4.13,1.95c-5.65-11.96-22.53-19.82-41.04-19.1-21.05.8-38,11.79-45.94,29.53l6.44,1.81-13.03,12.72-4.5-17.65,6.67,1.88C20.63,16.45,39.2,4.22,62.29,3.32c20.6-.79,38.83,7.94,45.34,21.72ZM56.29,137.14l28.77-.1-.02-6.82,15.8,9.05-15.74,9.16-.02-6.83-28.77.1v-4.57Z"/>
    <text class="cls-3" transform="translate(34.82 160.05)"><tspan x="0" y="0">1</tspan></text>
    <text class="cls-3" transform="translate(111.5 35.7)"><tspan x="0" y="0">2</tspan></text>
    <g id="Layer_1-2" data-name="Layer 1-2">
      <g>
        <path class="cls-4" d="M78.63,29.91s.17.21.34.22c3.23.28,6.41.82,9.59,1.46.11.12-.42,2.99-.75,3.06l-10.27-1.62v-3.12c.36.02.73-.03,1.08,0h0Z"/>
        <path class="cls-4" d="M0,112.71c.62.13,2.56-.35,2.78.39.34,1.15-.03,6.21.02,7.9.04,1.16.42,2.46.22,3.71l-2.47.26-.57-2.9v-.72c.08-.58.15-1.14.22-1.68-.06-.52-.14-1.08-.22-1.68v-5.28h0Z"/>
        <path class="cls-7" d="M78.2,196.95v.24h-4.54v-.24c1.46-.66,3.08-.66,4.54,0Z"/>
        <path class="cls-5" d="M.23,119.67c-.06.21-.14.21-.22,0v-1.68c.37.32.22,1.16.22,1.68Z"/>
        <path class="cls-8" d="M0,121.35v-1.68h.22c0,.52.15,1.36-.22,1.68Z"/>
        <path class="cls-6" d="M24.42,119.67v2.88h3.67l.14.8c.46-.14.95-.22,1.5-.22.4,0,.76.04,1.12.12,0-.29,0-.53.04-.69h4.32v-2.88h-10.8,0Z"/>
        <path class="cls-1" d="M73.66,196.95c-2.83-.07-5.61-.26-8.42-.48l.22-3.12c4.04.42,8.14.7,12.2.72l4.86-.48.22,3.12c-1.51.24-3.01.2-4.54.24s-3.03.04-4.54,0h0Z"/>
        <path class="cls-4" d="M138.24,90.88l1.09,12.24h-2.81c-.04-3.94-.36-7.91-1.08-11.76l2.81-.48h0Z"/>
        <path class="cls-4" d="M107.55,43.57c-.45.3-8.02-5.08-9.39-5.24-.36-.56.84-2.11.77-2.89,3.46,1.6,6.89,3.45,9.91,5.88-.38.24-1.2,2.19-1.3,2.25Z"/>
        <polygon class="cls-4" points="66.75 30.16 66.97 33.28 56.4 34.94 55.74 32.08 66.75 30.16"/>
        <path class="cls-4" d="M122.45,178.26c.11.07.92,2.01,1.3,2.25,0,.62-8.42,5.74-9.69,6.12l-.99-2.65c1.32-.34,8.93-6.03,9.39-5.73h0Z"/>
        <path class="cls-4" d="M9.5,78.38l-.64-.09-1.91-1.17c.39-1.36,4.68-10.7,5.26-10.7.13,0,2.04,1.48,2.02,1.73l-4.74,10.23h0Z"/>
        <path class="cls-4" d="M19.45,167.43c-.84,0-1.58,2.15-2.38,1.57-1.93-2.95-4.48-5.93-6.07-9.11-.12-.24-.29-.29-.11-.62.15-.27,2.06-1.49,2.29-1.33l6.26,9.49h0Z"/>
        <path class="cls-4" d="M46.22,38.53l-9.39,5.03c-.13-.01-1.36-2.15-1.38-2.29-.06-.43.96-.96,1.27-1.16,2.56-1.71,5.66-2.97,8.36-4.41.5-.05,1.28,2.6,1.13,2.83Z"/>
        <path class="cls-4" d="M55.09,191.19c-.16.67-.25,2.83-.97,2.89l-10.06-3.76,1-2.74s10.03,3.61,10.04,3.61Z"/>
        <polygon class="cls-4" points="103.25 188.56 104.12 191.43 93.54 194.79 92.92 192.02 93.1 191.79 103.25 188.56"/>
        <polygon class="cls-4" points="5.84 89.44 3.68 100.95 .87 100.71 3.03 88.71 5.84 89.44"/>
        <path class="cls-4" d="M135.44,79.11l-2.59.96-4.1-11.04c.72.04,1.93-1.65,2.48-.97l4.21,11.04h0Z"/>
        <path class="cls-4" d="M4.98,136.23l3.24,11.28c-.71.03-2.21,1.4-2.7.72-.26-.37-.97-2.8-1.2-3.47-.84-2.56-1.41-5.21-2.16-7.8l2.81-.72h0Z"/>
        <path class="cls-4" d="M26.93,175.62c.5-.1,7.06,6.14,8.41,6.45.31.37-.83,2.43-.98,2.54-.42.31-2.03-1-2.49-1.33-2.27-1.58-4.31-3.55-6.49-5.28-.25-.51,1.3-2.33,1.56-2.38h0Z"/>
        <path class="cls-4" d="M117.41,48.64c3.02,2.35,5.23,5.73,7.65,8.78l-2.04,2.02c-2.28-2.97-4.47-6.08-7.24-8.52l1.63-2.27h0Z"/>
        <path class="cls-4" d="M26.29,48.18c.39-.08,1.87,1.91,1.8,2.24l-7.34,7.95c-.32.19-1.98-1.36-2.06-1.57-.1-.24.05-.37.14-.56,1.11-1.19,6.43-7.86,7.45-8.07h0Z"/>
        <polygon class="cls-4" points="139.11 115.11 139.11 122.55 132.42 122.55 132.42 119.67 136.31 119.67 136.52 114.87 139.11 115.11"/>
        <rect class="cls-6" x="46.02" y="119.67" width="10.8" height="2.88"/>
        <rect class="cls-6" x="67.62" y="119.67" width="10.8" height="2.88"/>
        <rect class="cls-6" x="89.22" y="119.67" width="10.8" height="2.88"/>
        <rect class="cls-6" x="110.82" y="119.67" width="10.8" height="2.88"/>
      </g>
      <rect class="cls-6" x="5.42" y="120.07" width="10.8" height="2.88"/>
      <path class="cls-4" d="M132.57,163.45c.13.02,1.57,1.43,2.02,1.47.23.57-5.6,9.06-6.62,9.97l-1.87-1.97c1.09-.91,5.95-9.54,6.48-9.47h0Z"/>
    </g>
  </g>
</svg>