<?xml version="1.0" encoding="UTF-8"?>
<svg id="Layer_2" data-name="Layer 2" xmlns="http://www.w3.org/2000/svg" viewBox="0 0 126.56 326.5">
  <defs>
    <style>
      .cls-1, .cls-2 {
        fill: #231f20;
      }

      .cls-3 {
        fill: #2a2627;
      }

      .cls-4 {
        fill: #2c292a;
      }

      .cls-5 {
        fill: #1f1b1c;
      }

      .cls-6 {
        fill: #2b2829;
      }

      .cls-7 {
        fill: #2e2b2c;
      }

      .cls-2 {
        font-family: LexendDeca-Regular, 'Lexend Deca';
        font-size: 42px;
      }
    </style>
  </defs>
  <g id="Layer_1-2" data-name="Layer 1">
    <path class="cls-1" d="M108.27,282.35l6.15,3.09-15.22,10-1.05-18.18,5.96,3c1.79-7.32,2.19-15.28,2.19-20.98V116.22h4.57v143.05c0,6.21-.48,15.02-2.6,23.08Z"/>
    <text class="cls-2" transform="translate(98.88 103.5)"><tspan x="0" y="0">1</tspan></text>
    <text class="cls-2" transform="translate(103.55 35.7)"><tspan x="0" y="0">2</tspan></text>
    <g id="Layer_1-2" data-name="Layer 1-2">
      <path class="cls-5" d="M87.28,15.17c.09.04.2.04.29,0h.77c.11.04.23.04.34,0h.19c5.25.17,9.07,4.35,9.27,9.64.08,2.15-.15,3.93-1.09,5.89-1.56,3.24-4.74,5.57-8.42,5.45-.09.04-.2.04-.29,0-.25.04-.52.04-.77,0-.08.04-.2.04-.29,0-5.1.11-9.34-4.34-9.45-9.36v-.34c.04-.11.04-.23,0-.34v-.82c.04-.11.04-.23,0-.34v-.34c.11-4.82,4.33-9.34,9.21-9.46h.24v.02Z"/>
      <g>
        <path class="cls-4" d="M90.46,55.49v13.98c0,.2-3.27-.13-3.98,0,.51-5.16-4.39-15.31,3.98-13.99h0Z"/>
        <path class="cls-4" d="M90.46,80.45v13.98c-9.04,1.03-2.87-8.54-3.98-13.99h3.98Z"/>
        <path class="cls-4" d="M90.46,125.39v13.98c-9.04,1.03-2.87-8.54-3.98-13.99h3.98Z"/>
        <path class="cls-4" d="M90.46,150.36v13.98c0,.2-3.27-.13-3.98,0,1.11-5.44-5.05-15.02,3.98-13.99h0Z"/>
        <path class="cls-4" d="M90.46,175.33v13.98c-9.04,1.03-2.87-8.54-3.98-13.99h3.98Z"/>
        <path class="cls-4" d="M90.46,200.29v13.98c-9.04,1.03-2.87-8.54-3.98-13.99h3.98Z"/>
        <path class="cls-4" d="M90.46,225.26v13.98c-9.04,1.03-2.87-8.54-3.98-13.99h3.98Z"/>
        <path class="cls-6" d="M6.6,307.04c-.16.25-3.56,1.35-3.88,1.12-.02-2.67-4.94-12.93-1.49-13.98,4.16-1.26,5.9,12.03,5.37,12.86h0Z"/>
        <path class="cls-7" d="M90.46,250.23v13.98c-4.71-.21-5.25-5.27-5.08-9.49s.67-4.86,5.08-4.49h0Z"/>
        <path class="cls-3" d="M64.47,315.19c.16.12,1.26,3.61,1.05,3.91-.33.46-9.52,3.97-10.57,4.02-3.21.15-4.69-2.89-2.73-3.98.83-.46,11.74-4.33,12.26-3.95h-.01Z"/>
        <path class="cls-3" d="M83.48,299.17c1.04,1.38-7.6,11.97-8.47,11.96-.18,0-2.32-2.1-2.41-2.62-.14-.8,7.79-13.45,10.89-9.34h0Z"/>
        <path class="cls-3" d="M90.45,275.2c-.78,3.84-.89,7.85-1.85,11.65-.35,1.41.62,2.73-1.6,2.28-.52-.1-2.46-1.03-2.6-1.64-.56-2.45.82-15.35,6.05-12.3h0Z"/>
        <path class="cls-3" d="M20.66,320.15c-1.68,5.73-8.61.49-11.34-2.14-2.97-2.86-1.18-5.69,1.38-4.38,2.79,1.42,6.15,6.03,9.96,6.52h0Z"/>
        <path class="cls-7" d="M90.46,105.41v9c-6.62,1.01-4.91-4.16-5-9h5Z"/>
        <path class="cls-6" d="M40.6,322.15c.14.14.15,3.83,0,3.97-.36.38-8.97,1.33-8.77-2.68.25-4.87,3.3-1.89,4.53-1.58s4.07.14,4.22.29h.02Z"/>
      </g>
    </g>
  </g>
</svg>