<?xml version="1.0" encoding="UTF-8"?>
<svg id="Layer_2" data-name="Layer 2" xmlns="http://www.w3.org/2000/svg" viewBox="0 0 126.93 275.79">
  <defs>
    <style>
      .cls-1 {
        fill: #000000;
      }

      .cls-2 {
        fill: #000000;
      }

      .cls-3 {
        fill: #000000;
      }

      .cls-4 {
        fill: #000000;
      }

      .cls-5 {
        fill: #000000;
      }

      .cls-6 {
        fill: #000000;
      }

      .cls-7 {
        fill: #000000;
      }
    </style>
  </defs>
  <g id="Layer_1-2" data-name="Layer 1">
    <g>
      <polygon class="cls-2" points="11.19 44.43 11.43 155.07 18.15 155.07 9.27 170.91 .15 155.07 6.63 155.07 6.63 44.43 11.19 44.43"/>
      <path class="cls-2" d="M115.14,245.91l3.62-5.49,8.16,16.32-18-.96c-.34-.28,3.68-5.37,3.33-5.97l-25.16-15.99,2.54-3.69.33.06,25.17,15.72Z"/>
      <path class="cls-2" d="M85.18,137.02h12.24v4.32h-17.64l-1.44-3.61,10.19-11.4c1.9-2.5,5.21-6.68,2.05-9.48-3.54-3.14-8.26.74-9.01,4.57-.15.14-3.45-1.79-3.56-1.96-.71-1.2,2.68-5.17,3.68-5.95,4.04-3.15,10.99-2.81,13.75,1.84,4.75,8-5.92,16.11-10.27,21.67Z"/>
      <path class="cls-2" d="M75.75,201.36c8.75-1.2,12.94,8.13,7.51,14.43,8.08,7.9-.91,20.43-11.13,14.99-1.64-.87-5.74-4.57-3.65-6.44s3.2,1.03,4.2,2.05c1.99,2.05,5.85,2.55,8.05.59,2.81-2.51,2.16-8.2-1.78-9.01-1.6-.33-4.9.51-5.07-1.91-.2-3.01,3.94-1.89,5.55-2.38.84-.26,2.23-2.02,2.37-2.91.88-5.65-5.48-7.88-8.73-3.69-.99,1.28-1.35,3.69-3.68,2.68-2.67-1.16.95-5.6,2.33-6.66.99-.76,2.8-1.56,4.03-1.73Z"/>
      <path class="cls-2" d="M66.22,168.94l-17.52,4.32,4.8-17.52.72.36,4.2,4.44,14.4-13.91c.21,0,2.73,2.81,2.89,3.12.1.19.16.3,0,.48l-14.05,13.56c0,.44,3.82,3.83,4.32,4.56.14.2.33.24.24.6Z"/>
      <path class="cls-2" d="M9.99,1.23v25.44h4.8v4.56H.99s-.36-.33-.36-.36v-3.84s.33-.36.36-.36h4.44V7.47c-.81-.02-3.92,2.19-4.32,1.92-.06-.67-1.31-3.46-1.09-3.85.46-.8,6.66-3.28,7.74-4.25l2.22-.06Z"/>
      <path class="cls-3" d="M30.63.27v12.12c0,.54-3.36.54-3.36,0V.39c0-.6,2.84-.38,3.36-.12Z"/>
      <path class="cls-3" d="M30.63,33.63h-3.36v-12.48c.52.07,3.36-.24,3.36.36v12.12Z"/>
      <path class="cls-3" d="M30.63,58.35h-3.36v-12.48c.52.07,3.36-.24,3.36.36v12.12Z"/>
      <rect class="cls-1" x="27.03" y="70.59" width="3.12" height="12.48"/>
      <rect class="cls-1" x="27.03" y="95.31" width="3.12" height="12.48"/>
      <rect class="cls-1" x="27.03" y="120.03" width="3.12" height="12.48"/>
      <rect class="cls-1" x="27.03" y="144.75" width="3.12" height="12.48"/>
      <rect class="cls-1" x="27.03" y="169.47" width="3.12" height="12.48"/>
      <rect class="cls-1" x="27.03" y="194.19" width="3.12" height="12.48"/>
      <rect class="cls-1" x="27.03" y="218.91" width="3.12" height="12.48"/>
      <rect class="cls-1" x="27.03" y="243.63" width="3.12" height="12.48"/>
      <path class="cls-4" d="M54.36,199.84c.24-.04,1.86,1.56,1.8,1.8l-7.39,6.43-1.61-1.85.06-.26,7.14-6.13Z"/>
      <path class="cls-5" d="M40.71,211c.12.01,1.76,1.51,1.55,1.87l-7.31,6.33c-.27-.35-1.74-1.48-1.54-1.92.9-.7,6.83-6.33,7.31-6.29Z"/>
      <path class="cls-7" d="M94.11,161.44l1.79,1.62-7,6.96c-.54-.17-1.75-1.3-1.54-1.88l6.74-6.7Z"/>
      <path class="cls-7" d="M66.07,189.28l1.79,1.62-7,7c-.29-.44-1.8-1.43-1.55-1.91l6.76-6.71Z"/>
      <path class="cls-6" d="M108.12,147.61l1.79,1.62c-2.05,1.81-3.88,4.2-5.95,5.95-.18.15-.85.72-.96.77-.38.17-1.81-1.26-1.64-1.64l6.75-6.7Z"/>
      <path class="cls-6" d="M80.09,175.47c.46-.09,1.77,1.15,1.52,1.69l-6.53,6.54c-.65.45-1.48-1.12-2.02-1.45.95-.73,6.55-6.69,7.03-6.79Z"/>
      <path class="cls-4" d="M92.45,260.11c.4-.42.96-2.14,1.6-2.08.86.67,7.45,4.43,7.39,5.02-.03.37-.95,1.9-1.52,1.77l-7.47-4.72Z"/>
      <path class="cls-4" d="M46.78,229.04c.39-.23,1.52.53,1.95.77,1.95,1.11,3.84,2.67,5.81,3.8.3.47-.81,1.71-1.06,2.22l-7.6-4.71c-.15-.29.81-2.02.91-2.08Z"/>
      <path class="cls-4" d="M78.27,248.42c.67-.39,6.67,4.06,7.76,4.58.32.5-.88,1.64-1.06,2.22l-7.6-4.71c-.14-.29.81-2.03.91-2.09Z"/>
      <path class="cls-4" d="M117.21,272.79l-1.24,2.3-7.5-4.8c-.24-.45.66-2.19,1.31-2.08l7.44,4.58Z"/>
      <path class="cls-4" d="M39.23,223.86c.26.44-.8,2.23-1.02,2.25-.84.07-6.21-4.28-7.56-4.61l.06-.75,1.13-1.51,7.39,4.62Z"/>
      <path class="cls-4" d="M70.72,243.25c.29.49-.62,2.16-1.36,2.05-1.63-.23-5.3-3.93-7.22-4.41l.06-.75,1.13-1.51,7.39,4.62Z"/>
      <path class="cls-7" d="M27.03,268.35h3.12c-.24,2.58.25,4.94.72,7.44h-3.84v-7.44Z"/>
    </g>
  </g>
</svg>