<?xml version="1.0" encoding="UTF-8"?>
<svg id="Layer_2" data-name="Layer 2" xmlns="http://www.w3.org/2000/svg" viewBox="0 0 205.23 175.06">
  <defs>
    <style>
      .cls-1, .cls-2 {
        fill: #231f20;
      }

      .cls-3 {
        fill: #2a2627;
      }

      .cls-4 {
        fill: #fff;
      }

      .cls-5 {
        fill: #272425;
      }

      .cls-6 {
        fill: #272424;
      }

      .cls-7 {
        fill: #656668;
      }

      .cls-8 {
        fill: #282726;
      }

      .cls-9 {
        stroke: #231f20;
        stroke-miterlimit: 10;
        stroke-width: 2.25px;
      }

      .cls-9, .cls-10 {
        fill: #262324;
      }

      .cls-11 {
        fill: #8f9194;
      }

      .cls-12 {
        fill: #636466;
      }

      .cls-13 {
        fill: #282526;
      }

      .cls-2 {
        font-family: LexendDeca-Regular, 'Lexend Deca';
        font-size: 42px;
      }
    </style>
  </defs>
  <g id="Layer_1-2" data-name="Layer 1">
    <g>
      <path class="cls-1" d="M95.73,39.89l-6.77-14.92-3.65,5.1c-9.94-4.74-21.97-5.44-33.75-2.1.14,1.36.42,2.71.83,4.03,10.66-3.1,21.49-2.61,30.49,1.46l-3.46,4.84,16.31,1.6Z"/>
      <polygon class="cls-1" points="14.37 42.86 9.8 42.86 9.8 104.52 2.98 104.52 12.09 120.29 21.19 104.52 14.37 104.52 14.37 42.86"/>
      <path class="cls-1" d="M199.2,56.25c-10.09-27.06-34.34-30.47-52.44-24.92l1.2,3.93c5.92-1.82,35.38-8.96,47.2,22.02l-5.83,1.48,11.43,11.74,4.45-15.77-6.03,1.53Z"/>
    </g>
    <text class="cls-2" transform="translate(0 38.9)"><tspan x="0" y="0">1</tspan></text>
    <text class="cls-2" transform="translate(23.88 35.7)"><tspan x="0" y="0">2</tspan></text>
    <path class="cls-9" d="M136.18,24.04c-.05.06-.03.19.08.28.32.25.9.45,1.33.8,3.31,2.73,3.48,8.09.81,11.32-3.26,3.96-9.63,3.53-12.95-.13-.46-.51-2.24-2.55-.91-2.94.97-.29,1.59,1.28,2.19,1.93,1.18,1.28,2.91,2.2,4.66,2.35,8.86.79,9.82-11.92,1.59-12.66-.54-.05-2.49.18-2.75-.23-1.18-1.87,2.78-1.32,3.55-1.43,2.13-.29,4.07-2.35,4.28-4.48.65-6.44-6.89-9.01-10.78-4.18-.38.47-1.3,2.38-1.58,2.47-.52.16-1.11-.15-1.11-.72,0-.19.79-1.73.96-2,2.42-3.86,8.21-5.09,11.71-1.91,2.92,2.65,3.26,7.94.27,10.65-.27.24-1.3.82-1.35.88Z"/>
    <g id="Layer_1-2" data-name="Layer 1-2">
      <g>
        <path class="cls-4" d="M29.27,42.86h-3.25v2.14l.23.42c.87-.03,1.73-.04,2.6-.04-.1-.86.04-1.75.42-2.52Z"/>
        <path class="cls-13" d="M28.88,45.55c-.02-.18-.05-.36-.06-.55-1.19.05-2.36.1-2.8,0v6.22c.45-.05,2.53.19,2.53-.29v-2.44c-.22-.99-.11-2.05.33-2.95Z"/>
        <path class="cls-5" d="M146.77,42.86c.3.15.66.15.97,0h3.3c.49.17,1.05.16,1.56,0h.39c.32.37.29,2.44-.13,2.54-3.04.06-6.12-.23-9.11.33-.39-.07-.52-2.06-.48-2.48l2.33-.39h1.17Z"/>
        <path class="cls-5" d="M63.76,42.86c.36.16.79.16,1.17,0h3.3c.4.07.79.14,1.17.19.31-.15.66-.15.97,0,.42.64.11,1.58.19,2.33-2.43.06-4.87-.08-7.3,0-2.43.07-2.33,1-2.62-2.13l2.14-.39h.97Z"/>
        <path class="cls-13" d="M26.02,105.66v-9.33c.56.11,2.3-.28,2.5.32-.18,1.29.36,8.24-.06,8.83-.27.38-1.9.1-2.45.18h0Z"/>
        <rect class="cls-13" x="26.02" y="60.17" width="2.53" height="9.14"/>
        <rect class="cls-13" x="26.02" y="132.68" width="2.53" height="9.14"/>
        <path class="cls-8" d="M26.39,149.78c.45.05,2.53-.19,2.53.29v8.85h-2.53v-9.14Z"/>
        <path class="cls-13" d="M26.02,114.6h2.53v8.85c0,.48-2.08.24-2.53.29v-9.14Z"/>
        <path class="cls-13" d="M26.02,78.25c.45.05,2.53-.19,2.53.29v8.85h-2.53v-9.14Z"/>
        <path class="cls-12" d="M152.6,42.86c-.31.32-1.26.32-1.56,0h1.56Z"/>
        <path class="cls-7" d="M69.4,42.86c.17.06.17.12,0,.19-.37,0-.96.13-1.17-.19h1.17Z"/>
        <path class="cls-7" d="M64.92,42.86c-.2.32-.99.32-1.17,0h1.17Z"/>
        <path class="cls-7" d="M147.74,42.86c-.13.31-.85.31-.97,0h.97Z"/>
        <path class="cls-11" d="M70.37,42.86v.19h-.97v-.19h.97Z"/>
        <path class="cls-3" d="M193.03,139.87h-2.53v-9.62c0-.44,2.53-.44,2.53,0v9.62Z"/>
        <path class="cls-3" d="M193.03,120.43h-2.53v-9.62c0-.44,2.53-.44,2.53,0v9.62Z"/>
        <path class="cls-3" d="M193.12,156.66h-2.53v-9.62c0-.44,2.53-.44,2.53,0v9.62Z"/>
        <path class="cls-13" d="M190.51,91.76c0-.08-.27-.27-.19-.49l2.53-.19c.24,3.3.2,6.61.19,9.91h-2.53c-.25-2.92.33-6.37,0-9.23Z"/>
        <path class="cls-5" d="M133.73,45.78l.57,2.32c-1.3,0-8.33,4.17-8.72,3.9-.08-.06-.96-1.76-.96-1.86-.02-.17.02-.26.17-.36,2.9-1.49,5.79-3.08,8.94-3.99h0Z"/>
        <path class="cls-5" d="M183.7,63.67c-1.18-2.88-3.26-5.32-5.24-7.68l1.66-1.64c.17-.04,1.14,1.11,1.35,1.35,1.77,2.05,3.14,4.41,4.56,6.71l-2.32,1.26h0Z"/>
        <path class="cls-5" d="M191.85,81.34c-.46.11-2.2.57-2.42.22l-2.01-8.89c-.04-.64,1.85-.66,2.3-1.03l2.13,9.7Z"/>
        <path class="cls-5" d="M117.99,57.64c-2.12,1.47-4.13,3.53-5.93,5.44-.25.27-.54,1.01-.93.95-.23-.04-1.64-1.24-1.68-1.46-.09-.53,5.96-6.46,7.06-6.85.2.03,1.61,1.75,1.48,1.92Z"/>
        <path class="cls-5" d="M172.22,47.93c.3.42-1.01,1.73-.96,2.32-1.81-.85-3.67-1.77-5.59-2.48-.53-.19-3.29-.88-3.32-1.11l.55-2.24c1.52.4,3.05.86,4.52,1.41.6.23,4.65,1.89,4.8,2.11h0Z"/>
        <path class="cls-5" d="M89.61,48.32c-.36.4-.96,2.15-1.43,2.11l-8.49-3.75c.25-.54.31-1.3.53-1.81.11-.24-.04-.26.32-.24.78.04,3.86,1.28,4.77,1.65,1.47.6,2.87,1.34,4.28,2.04Z"/>
        <path class="cls-5" d="M34.13,55.7c-1.78,1.48-3.48,3.18-5.02,4.97v1.58c0,.62-.15,1.18-.39,1.69.32.23.63.37.8.28,1.73-2.51,3.92-4.71,6.25-6.68.04-.17-1.47-1.87-1.64-1.83h0Z"/>
        <path class="cls-5" d="M103.01,62.87l-2.12.99c-1.22-2.7-3.08-5.27-5.17-7.39-.25-.49,1.27-1.49,1.56-1.94.28,0,2.99,3.48,3.37,4.02.4.56,2.65,3.92,2.36,4.33h0Z"/>
        <path class="cls-5" d="M50.69,45.81c.79-.08,1.33,1.94,1.03,2.2l-8.38,3.9-1.08-2.06,8.42-4.05h0Z"/>
        <path class="cls-5" d="M107.5,168.84v3.69h-.29c.19.83.14,1.73-.15,2.53h2.77v-6.22h-2.33Z"/>
        <path class="cls-10" d="M107.5,94.28c.03-.3.25-1.57.5-1.63.11-.02,2.21.34,2.24.48-.49,3.05-.41,6.14-.4,9.22h-2.33c.19-2.6-.24-5.51,0-8.07h0Z"/>
        <rect class="cls-6" x="107.5" y="149.78" width="2.33" height="9.72"/>
        <rect class="cls-10" x="107.5" y="130.93" width="2.33" height="9.53"/>
        <rect class="cls-10" x="107.5" y="111.88" width="2.33" height="9.53"/>
      </g>
      <path class="cls-10" d="M107.12,75.01c.03-.3.25-1.57.5-1.63.11-.02,2.21.34,2.24.48-.49,3.05-.41,6.14-.4,9.22h-2.33c.19-2.6-.24-5.51,0-8.07h0Z"/>
      <path class="cls-3" d="M192.93,173.81h-2.53v-9.62c0-.44,2.53-.44,2.53,0v9.62Z"/>
      <path class="cls-3" d="M28.55,173.81h-2.53v-9.62c0-.44,2.53-.44,2.53,0v9.62Z"/>
    </g>
  </g>
</svg>