<?xml version="1.0" encoding="UTF-8"?>
<svg id="Layer_2" data-name="Layer 2" xmlns="http://www.w3.org/2000/svg" viewBox="0 0 133.01 177.52">
  <defs>
    <style>
      .cls-1, .cls-2 {
        fill: #231f20;
      }

      .cls-3 {
        fill: #272425;
      }

      .cls-4 {
        fill: #656668;
      }

      .cls-5 {
        fill: #262324;
      }

      .cls-6 {
        fill: #282526;
      }

      .cls-2 {
        font-family: LexendDeca-Regular, 'Lexend Deca';
        font-size: 42px;
      }
    </style>
  </defs>
  <g id="Layer_1-2" data-name="Layer 1">
    <path class="cls-1" d="M11.39,114.33h6.82l-9.1,15.77L0,114.33h6.83v-61.65h4.56v61.65ZM133.01,58.39l-6.34,15.11-9.91-13.05,5.96-.76c-7.96-32.18-38.07-28.69-44.17-27.61l-.71-4.04c18.63-3.3,42.29,3.04,49.01,31.13l6.17-.78Z"/>
    <text class="cls-2" transform="translate(0 48.71)"><tspan x="0" y="0">1</tspan></text>
    <text class="cls-2" transform="translate(46.91 35.7)"><tspan x="0" y="0">2</tspan></text>
    <g id="Layer_1-2" data-name="Layer 1-2">
      <g>
        <path class="cls-3" d="M68.87,41.66c.37.16.79.16,1.17,0h3.5c.5.17,1.05.16,1.56,0h.39l.19,2.53c-3.25,0-6.5-.07-9.72.19.14-.74-.71-2.17.18-2.43l1.57-.28h1.17Z"/>
        <path class="cls-6" d="M26.1,74.33l2.1-9.09c.52.23,2.31.24,2.37.87-.46,1.22-1.51,8.11-2.04,8.59-.35.32-1.87-.33-2.42-.37h0Z"/>
        <path class="cls-6" d="M24.88,142.71v-9.33c.56.11,2.3-.28,2.5.32-.18,1.29.36,8.24-.06,8.83-.27.38-1.9.1-2.45.18h0Z"/>
        <rect class="cls-6" x="24.88" y="97.22" width="2.53" height="9.14"/>
        <path class="cls-6" d="M24.88,79.14h2.53v8.85c0,.48-2.08.24-2.53.29,0,0,0-9.14,0-9.14Z"/>
        <path class="cls-6" d="M24.88,115.3c.45.05,2.53-.19,2.53.29v8.85h-2.53v-9.14Z"/>
        <path class="cls-6" d="M24.88,151.65h2.53v8.85c0,.48-2.08.24-2.53.29,0,0,0-9.14,0-9.14Z"/>
        <path class="cls-4" d="M75.09,41.66c-.31.32-1.26.32-1.56,0h1.56Z"/>
        <path class="cls-4" d="M70.04,41.66c-.19.32-.98.32-1.17,0h1.17Z"/>
        <path class="cls-3" d="M94.14,48.84c-.3.21-2.3-.99-2.77-1.19-1.99-.83-4.05-1.52-6.16-2.01l-.15-.19.55-2.24c1.74.42,3.47.93,5.15,1.56.92.34,3.53,1.32,4.18,1.85.28.23.12.19.04.41-.21.59-.71,1.15-.83,1.81Z"/>
        <path class="cls-3" d="M113.01,80.14l-2.12-9.23,2.21-.84c.58.05,2.22,8.5,2.37,9.61-.06.36-2.05.49-2.47.47h0Z"/>
        <path class="cls-3" d="M56.03,44.39l.79,2.32c-3.17.83-6.02,2.49-8.94,3.89-.13-.86-1.04-1.41-.96-2.32l9.11-3.9h0Z"/>
        <path class="cls-3" d="M103.18,52.74c2.46,2.28,4.38,5.04,6.11,7.9.06.43-1.69,1.13-2.02,1.41-1.61-2.78-3.53-5.31-5.73-7.65l1.64-1.65Z"/>
        <path class="cls-3" d="M38.75,54.19c-.3-.19-.29-.04-.49.1-.85.59-2.13,1.78-2.92,2.53-.34.32-2.64,2.67-3.58,3.84-.04.28-.08.54-.12.82l1.67,1.1,6.79-6.62c-.37-.32-1.04-1.56-1.34-1.76h0Z"/>
        <path class="cls-3" d="M116.5,89.68v9.91h-2.33c.11-3.32-.13-6.61-.19-9.91,0,0,2.53,0,2.53,0Z"/>
        <rect class="cls-5" x="114.17" y="109.31" width="2.33" height="9.91"/>
        <rect class="cls-5" x="114.17" y="128.95" width="2.33" height="9.91"/>
        <rect class="cls-5" x="114.17" y="148.58" width="2.33" height="9.91"/>
      </g>
      <path class="cls-6" d="M24.84,55.05v-9.33c.56.11,2.3-.28,2.5.32-.18,1.29.36,8.24-.06,8.83-.27.38-1.9.1-2.45.19Z"/>
      <path class="cls-6" d="M24.84,177.5v-9.33c.56.11,2.3-.28,2.5.32-.18,1.29.36,8.24-.06,8.83-.27.38-1.9.1-2.45.18h0Z"/>
      <path class="cls-6" d="M114.18,175.99v-9.33c.56.11,2.3-.28,2.5.32-.18,1.29.36,8.24-.06,8.83-.27.38-1.9.1-2.45.18h0Z"/>
    </g>
  </g>
</svg>