<?xml version="1.0" encoding="UTF-8"?>
<svg id="Layer_2" data-name="Layer 2" xmlns="http://www.w3.org/2000/svg" viewBox="0 0 180.86 295.67">
  <defs>
    <style>
      .cls-1 {
        fill: #919496;
      }

      .cls-2, .cls-3 {
        fill: #231f20;
      }

      .cls-4 {
        fill: #cdcdcf;
      }

      .cls-5 {
        fill: #272425;
      }

      .cls-6 {
        fill: #939598;
      }

      .cls-7 {
        stroke: #231f20;
        stroke-miterlimit: 10;
        stroke-width: 2.25px;
      }

      .cls-7, .cls-8 {
        fill: #262324;
      }

      .cls-9 {
        fill: #636466;
      }

      .cls-10 {
        fill: #282526;
      }

      .cls-3 {
        font-family: LexendDeca-Regular, 'Lexend Deca';
        font-size: 42px;
      }
    </style>
  </defs>
  <g id="Layer_1-2" data-name="Layer 1">
    <path class="cls-2" d="M17.52,63.96l-13.07,12.68L0,58.99l6.64,1.88C19.54,26.57,46.1,22.14,61,22.65l-.16,4.56c-16.65-.54-38.49,5.18-49.8,34.91l6.48,1.84ZM156.32,147.45l-9.13,15.75-9.08-15.79h6.83s.12-67.16.12-67.16h4.57s-.12,67.17-.12,67.17h6.82ZM176.84,242.4l-5.01-4.63-9.29,10.05-3.35-3.1,9.29-10.04-5.01-4.63,17.39-5.39-4.03,17.76Z"/>
    <text class="cls-3" transform="translate(63.91 35.7)"><tspan x="0" y="0">1</tspan></text>
    <text class="cls-3" transform="translate(138.11 74.44)"><tspan x="0" y="0">2</tspan></text>
    <path class="cls-7" d="M151.24,251.53c-.05.06-.03.19.08.28.32.25.9.45,1.33.8,3.31,2.73,3.48,8.09.81,11.32-3.26,3.96-9.63,3.53-12.95-.13-.46-.51-2.24-2.55-.91-2.94.97-.29,1.59,1.28,2.19,1.93,1.18,1.28,2.91,2.2,4.66,2.35,8.86.79,9.82-11.92,1.59-12.66-.54-.05-2.49.18-2.75-.23-1.18-1.87,2.78-1.32,3.55-1.43,2.13-.29,4.07-2.35,4.28-4.48.65-6.44-6.89-9.01-10.78-4.18-.38.47-1.3,2.38-1.58,2.47-.52.16-1.11-.15-1.11-.72,0-.19.79-1.73.96-2,2.42-3.86,8.21-5.09,11.71-1.91,2.92,2.65,3.26,7.94.27,10.65-.27.24-1.3.82-1.35.88Z"/>
    <g id="Layer_1-2" data-name="Layer 1-2">
      <g>
        <path class="cls-5" d="M14.54,108.13c.09-2.64.34-5.27.8-7.87.27-.4,1.92.32,2.49.09-.31,3.58-.83,7.18-.82,10.8l-2.67-.22v-.43c.08-.45.15-.88.21-1.3-.16-.32-.16-.76,0-1.08Z"/>
        <path class="cls-5" d="M80.2,39.44c.43.08.84.15,1.23.22.38-.17.85-.17,1.23,0,2.34.08,4.67.41,6.98.86l-.42,2.58c-3.33-.34-6.67-1.05-10.05-.86v-2.81h1.03Z"/>
        <path class="cls-1" d="M82.66,39.44v.22c-.41-.02-.82,0-1.23,0-.18-.06-.18-.14,0-.22h1.23Z"/>
        <path class="cls-9" d="M81.43,39.44v.22c-.38,0-1.01.14-1.23-.22h1.23Z"/>
        <path class="cls-6" d="M14.33,110.5v-1.3c.06-.19.13-.19.21,0,0,.4.14,1.06-.21,1.3Z"/>
        <path class="cls-4" d="M14.54,109.21h-.21v-1.08h.21c-.02.36,0,.72,0,1.08Z"/>
        <path class="cls-8" d="M119.04,169.62c.74-.45,1.62-.66,2.5-.62,1.19-1.86,4.38-5.43,4.63-7.43.05-.4-.08-.25-.26-.37-.32-.2-1.58-.87-1.86-.79-.2.06-1.86,3.18-2.22,3.73-.5.76-3.28,4.13-3.37,4.46-.08.29-.07.32.11.56.03.03.23.23.49.47h0Z"/>
        <path class="cls-8" d="M117.65,54.78l-1.74,2.04c.38.27,3.92,3.75,5.35,5.45.28.17.55.37.78.63.42.41.71.89.88,1.45.14.28.24.57.3.86.03.02.05.03.08.04v-1.11c0-.32,1.78-1.12,1.64-1.5l-7.28-7.88Z"/>
        <rect class="cls-10" x="130.17" y="179.2" width="2.67" height="10.8"/>
        <rect class="cls-10" x="130.17" y="92.8" width="2.67" height="10.8"/>
        <rect class="cls-10" x="130.17" y="71.2" width="2.67" height="10.8"/>
        <rect class="cls-10" x="131.09" y="241.66" width="2.67" height="10.8"/>
        <rect class="cls-10" x="130.17" y="114.4" width="2.67" height="10.8"/>
        <rect class="cls-10" x="130.17" y="136" width="2.67" height="10.8"/>
        <rect class="cls-10" x="130.17" y="157.6" width="2.67" height="10.8"/>
        <rect class="cls-10" x="130.17" y="49.6" width="2.67" height="10.8"/>
        <rect class="cls-10" x="130.17" y="200.8" width="2.67" height="10.8"/>
        <path class="cls-5" d="M21.31,142.47l3.91,9.63c.05.4-.08.25-.27.37-.58.36-1.33.58-1.9,1l-4.21-9.82c0-.66,1.94-.95,2.46-1.18Z"/>
        <path class="cls-5" d="M99.49,43.76c1.26.12,9.62,4.29,9.62,4.86-.63.58-.83,2.31-1.83,1.96-.93-1.12-8.22-3.91-8.52-4.45-.14-.23.86-1.87.74-2.39h0Z"/>
        <path class="cls-5" d="M52.69,183.49c-.55.41-8.09-4.57-9.12-5.38-.06-.11,1.06-2.08,1.16-2.14.44-.27,7.62,4.91,8.92,5.16,0,0-.96,2.37-.96,2.37Z"/>
        <path class="cls-5" d="M49.2,47.23c.1.07.82,2.02,1.04,2.36-3.01,1.45-5.62,3.68-8.31,5.62-.3,0-1.98-1.84-1.35-2.29,1.68-1.32,3.37-2.68,5.16-3.85.49-.32,3.1-2.11,3.45-1.84h0Z"/>
        <path class="cls-5" d="M128.43,78.71c.5.66.99,1.32,1.44,2.02.12.19.23.39.34.59.43-.04.73-.1.79-.18.34-2.84-.38-5.68-.94-8.44-.36.06-2.38.56-2.45.67-.2.3,1.03,4.46.81,5.35h0Z"/>
        <path class="cls-5" d="M30.75,161.05c1.8,3.01,4.19,5.6,6.57,8.1l-1.77,1.82c-.27.05-1.92-1.8-2.23-2.14-.71-.79-4.36-5.17-4.54-5.83-.2-.71,1.5-1.5,1.97-1.95h0Z"/>
        <polygon class="cls-5" points="17.21 121.73 18.45 132.17 16.09 132.77 14.54 121.95 17.21 121.73"/>
        <path class="cls-5" d="M92.92,184.81c-.14.8,1.01,2.35.27,2.77-.98.56-5.44,1.33-6.76,1.52-1.11.15-2.24.29-3.36.25l-.21-2.59,10.05-1.94h0Z"/>
        <path class="cls-5" d="M103.18,183.51l-1.03-2.59c1.39-.03,8.4-5.37,8.82-5.09.11.07,1.66,2.18.93,2.3l-8.73,5.39Z"/>
        <path class="cls-5" d="M73.02,186.53c-.17.53-.08,2.67-.5,2.75l-10.17-1.89.74-2.6,9.94,1.75h0Z"/>
        <path class="cls-5" d="M32.51,60.82c.28-.07,1.98,1.41,1.92,1.8l-6.04,8.33c-.69-.57-1.61-.83-2.12-1.6,0,0,6.24-8.53,6.24-8.53Z"/>
        <polygon class="cls-5" points="23.57 80.05 20.08 90.2 17.62 89.55 21.12 79.2 23.57 80.05"/>
        <path class="cls-5" d="M69.11,42.89c-3.31.47-6.57,1.26-9.74,2.39-.09-.75-1.15-2.31-.38-2.77.5-.31,2.77-.86,3.51-1.05,2.01-.55,4.07-.89,6.1-1.31.39.07.44,2.28.5,2.74Z"/>
      </g>
      <rect class="cls-10" x="131.09" y="282.53" width="2.67" height="10.8"/>
      <rect class="cls-10" x="131.09" y="260.93" width="2.67" height="10.8"/>
      <polygon class="cls-10" points="133.75 293.83 140.49 285.68 142.5 287.52 135.77 295.67 133.75 293.83"/>
      <polygon class="cls-10" points="147.22 277.53 153.95 269.37 155.96 271.22 149.23 279.37 147.22 277.53"/>
      <rect class="cls-10" x="130.17" y="219.24" width="2.67" height="10.8"/>
    </g>
  </g>
</svg>