<?xml version="1.0" encoding="UTF-8"?>
<svg id="Layer_2" data-name="Layer 2" xmlns="http://www.w3.org/2000/svg" viewBox="0 0 112.33 202.26">
  <defs>
    <style>
      .cls-1, .cls-2 {
        fill: #231f20;
      }

      .cls-3 {
        fill: #272425;
      }

      .cls-4 {
        fill: #656668;
      }

      .cls-5 {
        fill: #282526;
      }

      .cls-2 {
        font-family: LexendDeca-Regular, 'Lexend Deca';
        font-size: 42px;
      }
    </style>
  </defs>
  <g id="Layer_1-2" data-name="Layer 1">
    <path class="cls-1" d="M14.66,117.19h6.82l-9.1,15.77-9.11-15.77h6.83v-61.65h4.56v61.65ZM62.97,26.57l-.95-4.46c5.23-1.11,22.9-3.79,37.75,6.14l4.97-4.85,4.49,17.64-17.53-4.92,4.73-4.62c-13.21-8.33-28.78-5.92-33.47-4.93Z"/>
    <text class="cls-2" transform="translate(0 46.11)"><tspan x="0" y="0">1</tspan></text>
    <text class="cls-2" transform="translate(32.24 35.7)"><tspan x="0" y="0">2</tspan></text>
    <g id="Layer_1-2" data-name="Layer 1-2">
      <g>
        <rect class="cls-5" x="25.68" y="46.26" width="3.12" height="12"/>
        <rect class="cls-5" x="25.68" y="70.26" width="3.12" height="12"/>
        <rect class="cls-5" x="25.68" y="118.26" width="3.12" height="12"/>
        <rect class="cls-5" x="25.68" y="142.26" width="3.12" height="12"/>
        <rect class="cls-5" x="25.68" y="166.26" width="3.12" height="12"/>
        <rect class="cls-5" x="25.68" y="190.26" width="3.12" height="12"/>
        <path class="cls-5" d="M25.68,94.26c.55.06,3.12-.23,3.12.36v11.64h-3.12v-12Z"/>
        <path class="cls-3" d="M77.04,39.17c.34.26.77.34,1.18.23l3.53.69c.41.28.93.38,1.41.27l.24.05-.36,3.11c-3.87-.69-7.72-1.83-11.68-1.54l.13-3.15,4.37.11s1.18.23,1.18.23Z"/>
        <path class="cls-4" d="M87.03,43.64c-.31.34-1.26.15-1.41-.27l1.41.27Z"/>
        <path class="cls-4" d="M82.09,42.68c-.23.34-1.1.17-1.18-.23l1.18.23Z"/>
        <path class="cls-3" d="M29.56,82.21l2.68-8.25-2.97-.96-2.56,7.87c1.06.19,2.06.66,2.84,1.35h0Z"/>
        <path class="cls-3" d="M60.47,40.57c.18,0,1.65,2.36,1.31,2.82l-9.77,6.23-1.74-2.11c3.01-2.82,6.63-4.9,10.2-6.94Z"/>
        <path class="cls-3" d="M37.51,67.52l-2.92-1.46c.76-1.32,6.18-10.1,7.18-9.96.14.02,2.09,1.64,2.05,1.85-2.26,3.06-4.85,6.01-6.3,9.57h0Z"/>
      </g>
      <path class="cls-3" d="M95.98,45.42c.23.36.6.59,1.03.62l3.09,1.85c.29.4.74.67,1.23.74l.21.12-1.4,2.8c-3.4-1.97-6.63-4.36-10.45-5.44l1.2-2.92,4.07,1.6,1.03.62h0Z"/>
      <path class="cls-4" d="M101.33,48.64c-.41.21-1.24-.29-1.23-.74l1.23.74Z"/>
      <path class="cls-4" d="M97.01,46.04c-.33.24-1.09-.21-1.03-.62l1.03.62Z"/>
      <path class="cls-3" d="M109.8,62.44c-.03.42.14.83.47,1.1l1.41,3.31c0,.5.2.98.56,1.33l.09.22-2.78,1.44c-1.59-3.59-2.8-7.42-5.26-10.54l2.68-1.66,2.35,3.69.47,1.1h.01Z"/>
      <path class="cls-4" d="M112.24,68.19c-.46-.07-.83-.97-.56-1.33l.56,1.33Z"/>
      <path class="cls-4" d="M110.27,63.55c-.41,0-.76-.81-.47-1.1l.47,1.1Z"/>
    </g>
  </g>
</svg>