<?xml version="1.0" encoding="UTF-8"?>
<svg id="Layer_2" data-name="Layer 2" xmlns="http://www.w3.org/2000/svg" viewBox="0 0 107.11 248.53">
  <defs>
    <style>
      .cls-1, .cls-2 {
        fill: #231f20;
      }

      .cls-3 {
        fill: #272425;
      }

      .cls-4 {
        fill: #282526;
      }

      .cls-2 {
        font-family: LexendDeca-Regular, 'Lexend Deca';
        font-size: 42px;
      }
    </style>
  </defs>
  <g id="Layer_1-2" data-name="Layer 1">
    <path class="cls-1" d="M29.46,77.84l-9.17-15.73,6.82-.03-.08-19.29,4.57-.02.08,19.29,6.83-.03-9.04,15.8Z"/>
    <text class="cls-2" transform="translate(20.28 35.7)"><tspan x="0" y="0">1</tspan></text>
    <text class="cls-2" transform="translate(17.4 134.77)"><tspan x="0" y="0">2</tspan></text>
    <polygon class="cls-1" points="88.99 120.57 68.1 128.37 68.06 122.57 42.44 122.64 42.42 118.76 68.04 118.69 68 112.89 88.99 120.57"/>
    <g id="Layer_1-2" data-name="Layer 1-2">
      <g>
        <path class="cls-3" d="M56.91,82.79c3.27-.14,3.65-.39,3.36,3.12h-12.24c.06-.54-.23-3.12.36-3.12h5.4v-9.36c.54.06,3.12-.23,3.12.36v9Z"/>
        <path class="cls-4" d="M53.79,37.67v-12.24c.66.11,2.68-.25,3.02.22.53.75-.16,9.96.07,11.62-.24.74-2.41.26-3.09.39h0Z"/>
        <path class="cls-4" d="M56.91,56.54c-.26-1.02-.23-2.13.09-3.14.04-1.89,0-3.45-.19-3.74-.33-.47-2.35-.12-3.02-.22v12.24c.68-.13,2.84.35,3.09-.39-.09-.68-.03-2.63.03-4.74h0Z"/>
        <path class="cls-4" d="M12.27,85.91H.03c.11-.66-.25-2.68.22-3.02.75-.53,9.96.16,11.62-.07.74.24.26,2.41.39,3.09h.01Z"/>
        <path class="cls-4" d="M84.27,85.91h-12.24c.11-.66-.25-2.68.22-3.02.75-.53,9.96.16,11.62-.07.74.24.26,2.41.39,3.09h0Z"/>
        <path class="cls-4" d="M53.79,102.7v-12.24c.66.11,2.68-.25,3.02.22.53.75-.16,9.96.07,11.62-.24.74-2.41.26-3.09.39h0Z"/>
        <path class="cls-4" d="M53.79,126.7v-12.24c.66.11,2.68-.25,3.02.22.53.75-.16,9.96.07,11.62-.24.74-2.41.26-3.09.39h0Z"/>
        <path class="cls-4" d="M53.79,150.7v-12.24c.66.11,2.68-.25,3.02.22.53.75-.16,9.96.07,11.62-.24.74-2.41.26-3.09.39h0Z"/>
        <path class="cls-4" d="M53.79,174.7v-12.24c.66.11,2.68-.25,3.02.22.53.75-.16,9.96.07,11.62-.24.74-2.41.26-3.09.39h0Z"/>
        <path class="cls-4" d="M53.79,198.7v-12.24c.66.11,2.68-.25,3.02.22.53.75-.16,9.96.07,11.62-.24.74-2.41.26-3.09.39h0Z"/>
      </g>
      <path class="cls-4" d="M37.24,85.91h-12.24c.11-.66-.25-2.68.22-3.02.75-.53,9.96.16,11.62-.07.74.24.26,2.41.39,3.09h.01Z"/>
      <path class="cls-4" d="M107.09,85.91h-12.24c.11-.66-.25-2.68.22-3.02.75-.53,9.96.16,11.62-.07.74.24.26,2.41.39,3.09h0Z"/>
      <path class="cls-4" d="M56.91,11.04c-.26-1.02-.23-2.13.09-3.14.04-1.89,0-3.45-.19-3.74-.33-.47-2.35-.12-3.02-.22v12.24c.68-.13,2.84.35,3.09-.39-.09-.68-.03-2.63.03-4.74h0Z"/>
      <path class="cls-4" d="M53.79,225.93v-12.24c.66.11,2.68-.25,3.02.22.53.75-.16,9.96.07,11.62-.24.74-2.41.26-3.09.39h0Z"/>
      <path class="cls-4" d="M53.79,248.5v-12.24c.66.11,2.68-.25,3.02.22.53.75-.16,9.96.07,11.62-.24.74-2.41.26-3.09.39h0Z"/>
    </g>
  </g>
</svg>