<?xml version="1.0" encoding="UTF-8"?>
<svg id="Layer_2" data-name="Layer 2" xmlns="http://www.w3.org/2000/svg" viewBox="0 0 215.53 165.91">
  <defs>
    <style>
      .cls-1, .cls-2 {
        fill: #000000;
      }

      .cls-3 {
        fill: #000000;
      }

      .cls-4 {
        stroke-width: 2.25px;
      }

      .cls-4, .cls-5 {
        fill: #000000;
        stroke: #231f20;
        stroke-miterlimit: 10;
      }

      .cls-5 {
        stroke-width: 2.5px;
      }

      .cls-2 {
        font-family: LexendDeca-Regular, 'Lexend Deca';
        font-size: 42px;
      }
    </style>
  </defs>
  <g id="Layer_1-2" data-name="Layer 1">
    <path class="cls-1" d="M30.51,132.11l6.61-1.68-4.93,17.53-12.71-13.04,6.61-1.69-13.2-51.88,4.42-1.12,13.2,51.88ZM99.58,66.59l5.26,17.43-6.64-1.56-3.61,15.39-4.45-1.04,3.61-15.39-6.64-1.56,12.47-13.27ZM147.1,101.44l6.55-1.9-4.44-15.31,4.38-1.28,4.44,15.31,6.55-1.9-4.35,17.68-13.14-12.61ZM204.4,60.35l-6.67-1.45,12.23-13.48,5.56,17.34-6.66-1.44-9.73,44.93-4.46-.97,9.72-44.93Z"/>
    <text class="cls-2" transform="translate(0 71.61)"><tspan x="0" y="0">1</tspan></text>
    <text class="cls-2" transform="translate(74.07 136.06)"><tspan x="0" y="0">2</tspan></text>
    <path class="cls-4" d="M151.82,59.06c-.05.06-.03.19.08.28.32.25.9.45,1.33.8,3.31,2.73,3.48,8.09.81,11.32-3.26,3.96-9.63,3.53-12.95-.13-.46-.51-2.24-2.55-.91-2.94.97-.29,1.59,1.28,2.19,1.93,1.18,1.28,2.91,2.2,4.66,2.35,8.86.79,9.82-11.92,1.59-12.66-.54-.05-2.49.18-2.75-.23-1.18-1.87,2.78-1.32,3.55-1.43,2.13-.29,4.07-2.35,4.28-4.48.65-6.44-6.89-9.01-10.78-4.18-.38.47-1.3,2.38-1.58,2.47-.52.16-1.11-.15-1.11-.72,0-.19.79-1.73.96-2,2.42-3.86,8.21-5.09,11.71-1.91,2.92,2.65,3.26,7.94.27,10.65-.27.24-1.3.82-1.35.88Z"/>
    <path class="cls-5" d="M188.03,134.72h11.46v-12.47c0-.94,1.75-.93,1.75-.27v12.74h3.71c.8,0,.71,1.89-.13,1.89h-3.57c.27,4.19.07,8.41.14,12.61-.05,1.1-1.62,1.35-1.76.13-.35-3.09.13-7.03,0-10.25-.03-.79-.26-1.65-.14-2.49h-12.47c-.07,0-1.06-.82-.87-1.13l2.22-13.56c.82-.9,1.76-.25,1.55.87l-1.89,11.93Z"/>
    <g id="Layer_1-2" data-name="Layer 1-2">
      <g>
        <path class="cls-3" d="M160.08,152.86l3.8,10.99-.04.57c-1.03-.22-2.47,1.54-2.94.22l-3.72-10.66c.07-.34,2.4-.97,2.9-1.11h0Z"/>
        <path class="cls-3" d="M143.98,107.71l3.81,10.98c-.07.8-2.07.83-2.62,1.35l-4.13-11.45,2.94-.87h0Z"/>
        <path class="cls-3" d="M139.71,96.57c-.76-.13-2.33,1.14-2.8.54l-3.91-10.79c-.02-.72,2.07-.82,2.59-1.32,1.62,3.7,3.03,7.63,4.11,11.56h.01Z"/>
        <path class="cls-3" d="M173.66,130.43l-2.41,11.9c-.61-.17-2.94-.24-2.98-.92l2.41-11.59,2.97.61h0Z"/>
        <path class="cls-3" d="M57.97,154.24l-3.07,11.5c-.17.51-2.7-.3-2.8-.41-.44-.53,2.79-10.23,2.89-11.69l2.97.6h0Z"/>
        <path class="cls-3" d="M70.66,107.94l-3.07,11.5c-.17.51-2.7-.3-2.8-.41-.44-.52,2.8-10.22,2.89-11.69l2.97.6h0Z"/>
        <path class="cls-3" d="M168.81,154l-2.41,11.9-2.97-.61,2.32-11.65c.25-.48,2.47.46,3.06.36Z"/>
        <polygon class="cls-3" points="77.02 84.92 73.87 96.67 71.12 95.91 74.07 84.33 77.02 84.92"/>
        <path class="cls-3" d="M152.01,130.42l3.83,10.97c.03.45-.12.28-.33.39-1.84.92-2.24,1.17-2.98-.67-1.28-3.16-2.2-6.62-3.45-9.82.48-.23,2.6-1.15,2.93-.87Z"/>
        <polygon class="cls-3" points="64.33 131.21 61.18 142.96 58.43 142.2 61.38 130.62 64.33 131.21"/>
        <path class="cls-3" d="M40.75,106.13l3.04,11.64-2.84.89-3.13-11.45c0-.68,2.36-.88,2.92-1.07h.01Z"/>
        <path class="cls-3" d="M17.93,19.99l3.07,11.39c-.77.11-2.68,1.37-3.11.46l-2.89-11.2c.04-.19,2.64-.88,2.93-.64h0Z"/>
        <path class="cls-3" d="M32.24,75.35l-2.91.51-2.81-11.61c.65-.05,2.44-.95,2.79-.41l2.93,11.51Z"/>
        <path class="cls-3" d="M46.94,141.68l-3.03-11.4c.03-.17,2.96-1.43,3.08-.46l2.86,10.79c0,.69-2.76,1.19-2.91,1.06h0Z"/>
        <rect class="cls-3" x="23.49" y="43.03" width="3.03" height="12.14" transform="translate(-11.51 7.83) rotate(-14.51)"/>
        <path class="cls-3" d="M34.65,83.11l2.84,11.15c-.07.78-2,.7-2.61,1.09l-3.17-11.59c.05-.19,2.71-.88,2.94-.65Z"/>
        <path class="cls-3" d="M53.13,152.72l2.84,11.15c-.07.75-2.19.81-2.84,1.11l-2.95-11.41c.02-.22-.03-.25.18-.37.27-.16,2.6-.66,2.77-.49h0Z"/>
        <path class="cls-3" d="M178.24,106.92c.42.45-2.09,10.41-2.15,11.85-.61-.17-2.94-.24-2.98-.92l2.35-11.1c.19-.51,2.68.06,2.78.17h0Z"/>
        <path class="cls-3" d="M183.1,83.34l-2.18,11.85-2.93-.36,2.32-11.65c.35-.61,2.08.36,2.79.15h0Z"/>
        <path class="cls-3" d="M192.8,39.57l-2.15,11.85c-.83-.26-2.99-.09-3-1.14l2.24-11.09,2.92.38h-.01Z"/>
        <path class="cls-3" d="M196.82,17.46l-2.15,11.85c-.11.13-3.32-.35-3-1.15l2.24-11.08,2.92.38h-.01Z"/>
        <path class="cls-3" d="M188.22,59.97l-2.46,11.64-2.91-.36,2.31-11.64c.25-.48,2.47.46,3.06.36h0Z"/>
      </g>
      <path class="cls-3" d="M85.24,59.27l-3.07,11.5c-.17.51-2.7-.3-2.8-.41-.44-.53,2.79-10.23,2.89-11.69l2.97.6h.01Z"/>
      <path class="cls-3" d="M99.98,21.61l-3.07,11.5c-.17.51-2.7-.3-2.8-.41-.44-.52,2.8-10.22,2.89-11.69l2.97.6h.01Z"/>
      <polygon class="cls-3" points="93.32 38.6 90.16 50.35 87.42 49.59 90.36 38.01 93.32 38.6"/>
      <path class="cls-3" d="M127.71,66.31l3.81,10.98c-.07.8-2.07.83-2.62,1.35l-4.13-11.45,2.94-.87h0Z"/>
      <path class="cls-3" d="M123.44,55.17c-.76-.13-2.33,1.14-2.8.54l-3.91-10.79c-.02-.72,2.07-.82,2.59-1.32,1.62,3.7,3.03,7.63,4.11,11.56h.01Z"/>
      <path class="cls-3" d="M114.55,34.76c-.76-.13-2.33,1.14-2.8.54l-3.91-10.79c-.02-.72,2.07-.82,2.59-1.32,1.62,3.7,3.03,7.63,4.11,11.56h.01Z"/>
      <rect class="cls-3" x="10.51" y=".19" width="3.03" height="12.14" transform="translate(-1.18 3.21) rotate(-14.51)"/>
      <path class="cls-3" d="M199.51.68l-2.46,11.64-2.91-.36,2.31-11.64c.25-.48,2.47.46,3.06.36h0Z"/>
      <path class="cls-3" d="M103.86,4.22c-.22.37-.48.71-.8,1l-2.66,10.48,2.74.76,3.16-11.75s-2.44-.49-2.44-.49Z"/>
      <path class="cls-3" d="M104.28,3.33c-.39,1.08-1.12,2.02-2.2,2.57l3.04,8.39c.47.6,2.03-.66,2.8-.54-.97-3.53-2.22-7.06-3.64-10.42Z"/>
    </g>
  </g>
</svg>