<?xml version="1.0" encoding="UTF-8"?>
<svg id="Layer_2" data-name="Layer 2" xmlns="http://www.w3.org/2000/svg" viewBox="0 0 158.77 202.74">
  <defs>
    <style>
      .cls-1 {
        fill: #000000;
      }

      .cls-2 {
        fill: #000000;
      }

      .cls-3 {
        fill: #000000;
      }

      .cls-4, .cls-5 {
        fill: #000000;
      }

      .cls-6 {
        fill: #000000;
      }

      .cls-7 {
        fill: #fff;
      }

      .cls-8 {
        fill: #000000;
      }

      .cls-9 {
        fill: #000000;
      }

      .cls-10 {
        fill: #000000;
      }

      .cls-11 {
        fill: #000000;
      }

      .cls-5 {
        font-family: LexendDeca-Regular, 'Lexend Deca';
        font-size: 42px;
      }
    </style>
  </defs>
  <g id="Layer_1-2" data-name="Layer 1">
    <path class="cls-4" d="M25.65,33.25l5.52,4.04-16.66,7.34,1.97-18.1,5.48,4.01c10.95-12.79,23.49-20.06,37.33-21.48,23.34-2.39,41.72,12.42,42.49,13.05l-2.89,3.53c-.18-.14-17.75-14.26-39.18-12.03-12.53,1.3-23.97,7.95-34.07,19.64ZM149.44,106.29h6.83l-9.11,15.77-9.1-15.77h6.82v-61.65h4.57v61.65Z"/>
    <text class="cls-5" transform="translate(101.85 35.7)"><tspan x="0" y="0">1</tspan></text>
    <text class="cls-5" transform="translate(135.75 35.7)"><tspan x="0" y="0">2</tspan></text>
    <g id="Layer_1-2" data-name="Layer 1-2">
      <g>
        <path class="cls-7" d="M119.74,88.03c.06-.97.16-1.99.3-3.02-.58.13-1.15.28-1.77.52.49.82.99,1.65,1.46,2.5Z"/>
        <path class="cls-7" d="M129.59,199.3c-.33.12-1.63.2-3.05.23-.18,1.03-.46,1.88-.95,3.03-.03.06-.07.12-.1.18h4.24v-3.12l-.15-.32h0Z"/>
        <path class="cls-7" d="M126.55,35.7c.19,1.25.29,2.53.29,3.84h2.47l.2-.48c.09.21.16.21.23,0v-3.36h-3.19,0Z"/>
        <rect class="cls-2" x="126.55" y="147.06" width="3.19" height="11.52"/>
        <rect class="cls-2" x="126.55" y="57.54" width="3.19" height="11.52"/>
        <path class="cls-2" d="M129.51,191.94l-.46.35c-.18.9-.11,5.08-.02,6.59-.36-.04-1.32-.05-2.38-.05-.04.28-.08.54-.12.79h3.21v-7.68h-.23Z"/>
        <path class="cls-3" d="M129.74,91.38h-.23l-.46-.22v-10.77l.46-.29h.23v11.28Z"/>
        <path class="cls-3" d="M129.74,180.9h-.23l-.46-.22v-10.77l.46-.29h.23v11.28Z"/>
        <path class="cls-3" d="M129.74,136.02h-.23l-.46-.22v-10.77l.46-.29h.23v11.28Z"/>
        <path class="cls-3" d="M129.74,113.7h-.23l-.46-.22v-10.77l.46-.29h.23v11.28Z"/>
        <path class="cls-3" d="M129.74,46.5h-.23c-.18-.02-.45-.08-.46-.21-.1-1.17-.2-5.91,0-6.88l.46-.35h.23v7.44Z"/>
        <path class="cls-6" d="M.23,124.5c-.07.21-.14.21-.23,0v-1.44h.23c.45.47.45.97,0,1.44Z"/>
        <path class="cls-1" d="M76.84,35.7v.24c-.45.47-.92.47-1.37,0v-.24h1.37Z"/>
        <path class="cls-11" d="M.23,125.7h-.23v-1.2h.23c.57.43.57.77,0,1.2Z"/>
        <path class="cls-10" d="M119.47,180.7c.13-.34.28-.69.42-1.02.47-1.09,1.31-1.87,2.32-2.35v-2.42c-1.11.6-2.22-1.1-2.66-1.18-.46-.08-3.46,4.09-4.07,4.78-.53.61-3.33,3.14-3.43,3.36-.34.79,1.17,2,1.81,2.38l5.61-5.74v2.2h0Z"/>
        <path class="cls-10" d="M122.21,63.85c-1.18-.92-2.03-2.34-2.19-4.25-.19-.1-.38-.21-.55-.34v.2c-.76-.41-2.23-3.22-2.88-3.33-.29-.05-2.58,1.64-1.87,2.21l6.12,8.94c.28.13,2.49-1.26,2.5-1.45,0-.16-1.13-1.66-1.13-1.92v-.05h0Z"/>
        <path class="cls-8" d="M93.96,196.96c-.07-.69-1.22-2.28-.71-2.74l9.81-5.05,1.26,2.54c-1.21.8-9.73,5.74-10.36,5.26h0Z"/>
        <path class="cls-8" d="M22.94,56.6c.28-.05,2.06,1.67,1.88,2.21l-7.15,8.8c-.35-.49-2.22-1.43-2.14-1.99.1-.65,6.85-8.92,7.41-9.03h0Z"/>
        <path class="cls-8" d="M4.56,99.55l-1.4,11.36c-.28.89-2.21-.12-2.94.15l1.37-12s2.96.49,2.96.49Z"/>
        <path class="cls-8" d="M39.42,191.24c.2.29-.38,1.32-.55,1.66-.13.28-.55,1.29-.88,1.17-.98-.35-3.98-2.62-5.01-3.38-1.11-.83-2.97-2.15-3.89-3.11s.92-1.86,1.34-2.84c2.78,2.45,5.73,4.79,8.99,6.5Z"/>
        <path class="cls-8" d="M82.54,197.94c-.07.7.82,2.59.24,3.01l-11.18,1.55-.23-3.12s11.17-1.44,11.17-1.44Z"/>
        <path class="cls-8" d="M108.07,47.46l-1.7,2.62c-2.95-2.24-6.07-4.31-9.45-5.77l.9-2.86c3.69,1.48,6.94,3.83,10.26,6h0Z"/>
        <polygon class="cls-8" points="64.07 36.18 64.29 39.05 53.35 41.22 52.67 38.1 64.07 36.18"/>
        <path class="cls-8" d="M15.45,167.49c.28-.07.47-.05.63.21l6.25,8.8c.18.7-1.55,1.53-1.91,2.23l-6.93-9.52c-.06-.37,1.64-1.63,1.97-1.72h0Z"/>
        <path class="cls-8" d="M7.52,88.26c-.52-.23-2.75-.59-2.7-1.27l4.64-10.94,2.38,1.53-4.31,10.69h0Z"/>
        <path class="cls-8" d="M60.42,198.9l-.23,2.88c-.36.38-6.18-1.01-7.12-1.27-.83-.22-3.34-.84-3.9-1.17-.86-.52.31-2.25.42-3.08,3.51,1.28,7.15,2.12,10.83,2.64Z"/>
        <path class="cls-8" d="M10.49,157.14c-.75-.03-2.38,1.62-2.85.96-.54-1.4-4.28-10.6-3.75-11.26.09-.11,2.4-.81,2.6-.5l3.99,10.8h0Z"/>
        <path class="cls-8" d="M41.93,42.68l1.16,2.62-9.5,5.73c-.45.07-1.87-2.17-1.64-2.58,1.24-.76,9.28-6.3,9.98-5.77Z"/>
        <path class="cls-8" d="M76.84,35.94c3.31,0,6.81.84,10.04,1.56.31.21.09.33.08.54-.04.34-.48,2.44-.66,2.46-3.59-1.05-7.33-1.42-11.04-1.69.42-.89.17-1.92.23-2.88h1.37,0Z"/>
        <path class="cls-9" d="M.23,123.06c.66.22,2.55-.44,2.71.15l.94,11.6-2.72.23c-.44-3.1-.85-6.2-.92-9.35,0-.4,0-.8,0-1.2v-1.44h0Z"/>
        <path class="cls-8" d="M126.78,191.94v3.18c.03.22.04.44.04.67,0,.77,0,1.53-.09,2.3-.05.48-.1.9-.17,1.29h2.95v-7.44h-2.74,0Z"/>
        <path class="cls-10" d="M126.84,39.06c0,.53,0,1.05-.02,1.59-.03.44-.1.87-.2,1.29h.15v4.56h2.74v-7.44h-2.67Z"/>
        <rect class="cls-10" x="126.78" y="124.74" width="2.74" height="11.28"/>
        <rect class="cls-10" x="126.78" y="80.1" width="2.74" height="11.28"/>
        <rect class="cls-10" x="126.78" y="102.42" width="2.74" height="11.28"/>
        <rect class="cls-10" x="126.78" y="169.62" width="2.74" height="11.28"/>
        <rect class="cls-8" x="126.78" y="147.3" width="2.74" height="11.04"/>
        <rect class="cls-8" x="126.78" y="57.78" width="2.74" height="11.04"/>
      </g>
    </g>
  </g>
</svg>