<?xml version="1.0" encoding="UTF-8"?>
<svg id="Layer_2" data-name="Layer 2" xmlns="http://www.w3.org/2000/svg" viewBox="0 0 129.27 223.89">
  <defs>
    <style>
      .cls-1 {
        fill: #000000;
      }

      .cls-2 {
        fill: #000000;
      }

      .cls-3 {
        fill: #000000;
      }

      .cls-4 {
        fill: #000000;
      }

      .cls-5 {
        fill: #000000;
      }

      .cls-6 {
        fill: #000000;
      }

      .cls-7 {
        fill: #000000;
      }

      .cls-8 {
        fill: #000000;
      }

      .cls-9 {
        fill: #000000;
      }

      .cls-10 {
        fill: #000000;
      }
    </style>
  </defs>
  <g id="Layer_1-2" data-name="Layer 1">
    <g>
      <polygon class="cls-6" points="0 151.96 6.72 151.96 6.72 41.32 11.28 41.32 11.52 151.96 18.24 151.96 9.24 167.56 0 152.2 0 151.96"/>
      <path class="cls-2" d="M129.27,120.23l-2.68,17.35-.55.4-13.8-11.4c1.91-.85,4.05-1.33,5.93-2.23.24-.12.39.08.27-.37-.34-1.23-2.45-4.62-3.22-5.9-6.67-10.97-16.21-19.63-28.85-22.99-6.68-1.78-13.58-2.08-20.43-1.29-.23-1.48-.57-3-.46-4.51,11.29-1.64,23.27.38,33.25,5.92,10.79,5.99,18.7,16.11,24.08,27.06.72.46,6.17-2.38,6.48-2.05Z"/>
      <path class="cls-6" d="M46.23,96.46h12.24v4.32h-18c.08-.94-1.37-2.87-1.08-3.59,3.29-4.22,7.61-8.01,10.78-12.27,1.63-2.18,3.8-5.46,1.92-8.12-1.15-1.63-3.56-1.94-5.32-1.27-2.33.89-3.41,3.29-4.5,5.31-.89-.73-3.37-1.41-3.2-2.67.37-2.83,3.86-5.92,6.49-6.73,7.92-2.44,14.34,3.63,11.17,11.65-2.03,5.15-6.96,8.5-10.14,12.66-.19.24-.46.3-.36.72Z"/>
      <path class="cls-6" d="M13.68,5.32v25.44h4.8v4.56H4.68s-.36-.33-.36-.36v-3.84s.33-.36.36-.36h4.44V11.56c-.81-.02-3.92,2.19-4.32,1.92-.06-.67-1.31-3.46-1.09-3.85.46-.8,6.66-3.28,7.74-4.25l2.22-.06Z"/>
      <path class="cls-10" d="M29.72,205.11c.14.7-.4,2.18.48,1.69l5.95,5.25c-.14,1.37-.63,2.02-1.93,1.1-1.8-1.29-4.16-3.49-5.28-5.33-.49-.81-1.03-.74-.88-2,.06-.52,1.19-.65,1.65-.71Z"/>
      <path class="cls-3" d="M61.85,111.27c-1.35-.22-.85-1.42-.92-2.45,2.82-.03,5.65.11,8.45.39l.12,2.06c-2.31-.27-5.44.36-7.65,0Z"/>
      <path class="cls-8" d="M108.47,196.14c.14.19-1.36,2.78-1.6,3.19-.49.85-1.87,3.29-2.48,3.85-.84.76-2.24-.28-2.01-1.18l3.95-6.28c.6-.53,1.47.35,2.14.41Z"/>
      <path class="cls-3" d="M67.46,221.64v2.25c-2.93-.01-5.88.13-8.77-.41.28-.39.13-1.97.2-2.04.3-.3,7.51.37,8.57.2Z"/>
      <path class="cls-4" d="M43.22,216.57c.41-.24,6.56,2.64,7.51,2.94.57.1.07,1.67-.1,1.93-.22.33-1.53-.19-1.93-.32-.76-.25-5.65-2.13-5.92-2.44-.45-.51.11-1.92.44-2.12Z"/>
      <path class="cls-7" d="M27.84,10.36c-.48-.03-2.64.19-2.64-.36V.4c0-.53,2.64-.53,2.64,0v9.96Z"/>
      <path class="cls-9" d="M27.84,66.76c-.48-.03-2.64.19-2.64-.36v-9.6c0-.53,2.64-.53,2.64,0v9.96Z"/>
      <path class="cls-7" d="M27.84,106.6c-.48-.03-2.64.19-2.64-.36v-9.6c0-.53,2.64-.53,2.64,0v9.96Z"/>
      <path class="cls-7" d="M27.84,146.44c-.48-.03-2.64.19-2.64-.36v-9.6c0-.53,2.64-.53,2.64,0v9.96Z"/>
      <path class="cls-7" d="M27.84,186.28c-.48-.03-2.64.19-2.64-.36v-9.6c0-.53,2.64-.53,2.64,0v9.96Z"/>
      <path class="cls-4" d="M112.75,146.36l1.84,8.36-2.12.42-1.97-8.26c.01-.12,2.08-.7,2.25-.52Z"/>
      <rect class="cls-7" x="25.2" y="20.2" width="2.64" height="10.08"/>
      <rect class="cls-7" x="25.2" y="76.6" width="2.64" height="10.08"/>
      <rect class="cls-7" x="25.2" y="116.44" width="2.64" height="10.08"/>
      <path class="cls-3" d="M115.4,163.09l-.21,8.77-2.24-.2.23-8.23c.2-.61,1.69-.24,2.22-.34Z"/>
      <rect class="cls-7" x="25.2" y="156.28" width="2.64" height="10.08"/>
      <rect class="cls-7" x="25.2" y="196.12" width="2.64" height="10.08"/>
      <path class="cls-8" d="M105.1,130.92c.29.02.81.91,1,1.18.52.77,3.21,5.32,3.3,5.89.07.42-1.15,1.17-1.48,1.2-.4.04-.77-.69-.96-1-1.26-1.98-2.16-4.3-3.57-6.21.01-.12,1.53-1.08,1.72-1.06Z"/>
      <path class="cls-8" d="M96.77,208.82c.37-.03,1.46,1.03,1.19,1.6-.28.6-3.28,3.02-4.01,3.55-.47.35-2.15,1.78-2.64,1.46-.27-.17-.51-1.22-1.01-1.44,1.04-.62,5.76-5.11,6.46-5.17Z"/>
      <path class="cls-4" d="M52.97,112.69c-.1.12-2.41.62-2.96.82-.78.29-4.07,1.84-4.49,1.84-.61,0-1.33-1.56-.92-1.93.79-.72,6.58-2.68,7.86-2.96.14.35.66,2.05.5,2.23Z"/>
      <path class="cls-8" d="M99.57,124.05c.11.12.39.02.32.17-.31.26-1.21,1.43-1.63,1.23l-6.03-5.21c.64-2.56,1.54-1.56,3.07-.4s2.93,2.73,4.27,4.21Z"/>
      <path class="cls-8" d="M37.06,117.8c.07.68,1.38,1.32.93,2.04-1.13.28-5.57,5.02-5.95,5.09-.21.04-1.51-.97-1.51-1.31,0-.79,5.51-5.13,6.53-5.81Z"/>
      <path class="cls-4" d="M113.97,180.02c-.27,1.01-1.71,8.1-2.06,8.35-.28.2-1.6-.36-2.02-.4l2.01-8.03c.28-.41,1.59.16,2.06.09Z"/>
      <path class="cls-4" d="M86.03,113.72l-.72,2.04-7.65-2.75c-.45-.32-.02-2.12.68-2.11l7.69,2.82Z"/>
      <path class="cls-4" d="M83.35,217.99c.07.04.6,1.27.67,1.47.08.21.3.21-.04.44l-8.15,2.55-.4-2.01c1.09.06,7.56-2.67,7.91-2.44Z"/>
      <path class="cls-1" d="M25.2,216.16c.16-.51,2.27-.52,2.54-.14.37.54-.12,2.47.14,3.23.12.36.64.2.7.74.09.7-.1,1.56-.02,2.29-.56-.07-3.36.24-3.36-.36,0-1.16-.23-5,0-5.76Z"/>
      <path class="cls-5" d="M28.56,40.6c-.13.69.18,1.93.02,2.51-.08.27-.74.09-.74.13v3.36h-2.64v-6h3.36Z"/>
    </g>
  </g>
</svg>