<?xml version="1.0" encoding="UTF-8"?>
<svg id="Layer_2" data-name="Layer 2" xmlns="http://www.w3.org/2000/svg" viewBox="0 0 139.74 182.11">
  <defs>
    <style>
      .cls-1 {
        fill: #000000;
      }

      .cls-2, .cls-3 {
        fill: #000000;
      }

      .cls-4 {
        fill: #000000;
      }

      .cls-5 {
        fill: #000000;
      }

      .cls-6 {
        fill: #000000;
      }

      .cls-7 {
        fill: #000000;
      }

      .cls-8 {
        fill: #000000;
      }

      .cls-9 {
        fill: #000000;
      }

      .cls-3 {
        font-family: LexendDeca-Regular, 'Lexend Deca';
        font-size: 42px;
      }
    </style>
  </defs>
  <g id="Layer_1-2" data-name="Layer 1">
    <path class="cls-2" d="M37.23,33.32l-16.82,6.96,2.38-18.05,5.49,4.21c10.23-9.38,24.92-14.18,40.84-13.07,13.2.9,25.24,5.8,29.97,12.19l-3.67,2.71c-3.92-5.29-14.86-9.55-26.61-10.36-14.34-.96-27.57,3.17-36.85,11.34l5.28,4.06Z"/>
    <text class="cls-3" transform="translate(102.48 35.7)"><tspan x="0" y="0">1</tspan></text>
    <g id="Layer_1-2" data-name="Layer 1-2">
      <g>
        <path class="cls-4" d="M69.77,31.99v2.81c-3.33-.08-6.66.1-9.95.66-.76-.05-.56-2.17-.72-2.82,1.79-.1,3.55-.31,5.34-.43.28-.18.75-.16,1.03,0,.28-.18.75-.16,1.03,0,.45-.07.93-.14,1.44-.22,0,0,1.85,0,1.85,0Z"/>
        <path class="cls-4" d="M2.05,101.76c.21,0,.41,0,.62,0v11.02H0v-.43c.08-.45.15-.88.21-1.3-.05-.54-.12-1.12-.21-1.73v-4.54c.09-.59.15-1.17.21-1.73-.15-.35-.15-.72,0-1.08.1-.54,1.29-.39,1.85-.22Z"/>
        <path class="cls-8" d="M2.05,101.76c-.59-.02-1.38-.15-1.85.22-.06.19-.13.19-.21,0v-.43c.64.09,1.56-.24,2.05.22Z"/>
        <path class="cls-5" d="M.21,111.05c-.06.19-.13.19-.21,0v-1.73c.36.35.21,1.19.21,1.73Z"/>
        <path class="cls-5" d="M0,104.78v-1.73c.06-.19.13-.19.21,0,0,.54.15,1.37-.21,1.73Z"/>
        <path class="cls-9" d="M67.92,31.99l-.5.23c-.31.03-.62-.02-.93,0-.18-.06-.18-.14,0-.22h1.44,0Z"/>
        <path class="cls-6" d="M0,112.34v-1.3h.21c0,.4.14,1.06-.21,1.3Z"/>
        <path class="cls-7" d="M66.48,31.99v.22c-.34.02-.68-.02-1.03,0-.18-.06-.18-.14,0-.22h1.03Z"/>
        <path class="cls-1" d="M65.46,31.99v.22c-.34.02-.68-.02-1.03,0v-.22h1.03Z"/>
        <path class="cls-6" d="M.21,103.05h-.21v-1.08h.21v1.08Z"/>
        <path class="cls-4" d="M70.18,179.3v2.81l-10.67-.65.21-2.81c3.46.55,6.96.74,10.47.65Z"/>
        <path class="cls-4" d="M135.43,79.51l-2.46.86c-.42-1.52-.98-3.02-1.61-4.46-.57-1.32-2.14-3.88-2.42-5.03-.19-.78,1.65-1.36,2.17-1.73l4.32,10.37h0Z"/>
        <polygon class="cls-4" points="135.64 134.16 131.42 144.31 131.23 144.51 129.09 143.43 133.17 133.29 135.64 134.16"/>
        <path class="cls-4" d="M8.64,69.77c-.09-.29.04-.53.15-.78.7-1.74,2.86-4.99,3.98-6.61.32-.47,1.28-2.11,1.71-2.1.18,0,1.95,1.31,1.71,1.79l-5.21,8.59c-.44.52-1.62-.88-2.34-.88h0Z"/>
        <path class="cls-4" d="M139.74,112.34l-1.27,10.87-.27.31c-.5-.34-2.34-.14-2.36-.9l1.22-10.49,2.67.22h0Z"/>
        <path class="cls-4" d="M99.93,172.4l8.56-5.17c.44-.32,1.67,1.88,1.66,2.02-.04.59-7.98,5.2-9.1,5.7-.25-.02-1.24-2.38-1.12-2.56Z"/>
        <path class="cls-4" d="M123.45,152.32c.2-.04,2.13,1.47,2.13,1.6-.85,1-6.63,8.49-7.28,8.32l-1.53-2.02,6.68-7.89h0Z"/>
        <path class="cls-4" d="M90.08,37.61l-10.05-2.16.21-2.81,10.26,2.27c.45.36-.55,2.07-.42,2.7Z"/>
        <path class="cls-4" d="M23.29,160.51l8.02,6.69-1.34,2.29c-.29.14-4.67-3.51-5.23-4.01s-2.66-2.32-2.89-2.81c-.26-.52,1.24-1.54,1.44-2.15h0Z"/>
        <path class="cls-4" d="M10.62,143.69c.24-.04.41-.05.56.18l5.16,8.42c.27.44-1.3,1.65-1.5,1.71-.48.13-.7-.33-.97-.64-1.91-2.26-3.36-5.63-5.01-8.14-.21-.65,1.38-1.48,1.76-1.54h0Z"/>
        <path class="cls-4" d="M109.76,44.33c.23.4-1.16,2.36-1.48,2.33l-8.73-5.45,1.09-2.3,9.11,5.43h0Z"/>
        <path class="cls-4" d="M117.81,51.67c.25-.15.5.03.7.18.53.37,1.83,1.9,2.35,2.49s4.24,5.09,4.28,5.45l-1.93,1.8-6.87-8.1c.44-.16,1.36-1.75,1.46-1.81h0Z"/>
        <path class="cls-4" d="M4.1,123.36l2.64,10.26c-.02.14-1.96.97-2.14.97-.54,0-.98-2.03-1.17-2.65-.82-2.64-1.34-5.36-2-8.05l2.67-.54Z"/>
        <path class="cls-4" d="M138.3,90.09c.59,3.72,1.27,7.44,1.23,11.23l-2.46.22-1.23-11.02s2.46-.43,2.46-.43Z"/>
        <polygon class="cls-4" points="90.48 176.5 91.11 179.09 80.65 181.24 80.46 178.68 90.48 176.5"/>
        <path class="cls-4" d="M6.55,80.61c.3.43-2.81,8.9-2.55,10.36-.11.21-2.2-.21-2.37-.33-.37-.25.24-2.33.35-2.88.21-1.04,1.88-7.9,2.42-7.98.33.2,2.03.67,2.15.84Z"/>
        <path class="cls-4" d="M49.86,176.49c-.39.5-.41,2.61-1.09,2.56-2.39-.82-4.81-1.63-7.11-2.67s-3.09-.74-1.62-3.54c3.28,1.04,6.41,2.87,9.83,3.66h0Z"/>
        <polygon class="cls-4" points="49.45 37.82 39.92 41.5 38.8 39.23 48.73 35.01 49.45 37.82"/>
        <path class="cls-4" d="M29.65,44.74c.3.61,1.55,1.77,1.24,2.37l-7.81,6.69c-.27-.52-1.68-1.69-1.44-2.15l8.02-6.9h0Z"/>
      </g>
    </g>
  </g>
</svg>