<?xml version="1.0" encoding="UTF-8"?>
<svg id="Layer_2" data-name="Layer 2" xmlns="http://www.w3.org/2000/svg" viewBox="0 0 177.53 162.34">
  <defs>
    <style>
      .cls-1, .cls-2 {
        fill: #231f20;
      }

      .cls-3 {
        fill: #272425;
      }

      .cls-4 {
        fill: #c8c9ca;
      }

      .cls-5 {
        fill: #272424;
      }

      .cls-6 {
        fill: #282526;
      }

      .cls-2 {
        font-family: LexendDeca-Regular, 'Lexend Deca';
        font-size: 42px;
      }
    </style>
  </defs>
  <g id="Layer_1-2" data-name="Layer 1">
    <path class="cls-1" d="M27.64,136.96l4.1,17.74-17.42-5.31,5.04-4.7c-7.31-10.4-8.43-20.49-8.43-29.08V41.98h4.57v73.63c0,8.09.98,16.8,7.23,25.94l4.91-4.59ZM168.05,109.63h6.82l-9.1,15.77-9.11-15.77h6.83v-61.65h4.57v61.65Z"/>
    <text class="cls-2" transform="translate(0 35.73)"><tspan x="0" y="0">1</tspan></text>
    <text class="cls-2" transform="translate(154.52 41.98)"><tspan x="0" y="0">2</tspan></text>
    <g id="Layer_1-2" data-name="Layer 1-2">
      <g>
        <rect class="cls-6" x="26.76" y="23.73" width="2.81" height="12"/>
        <rect class="cls-6" x="26.76" y="43.99" width="2.81" height="12"/>
        <rect class="cls-6" x="26.76" y="64.11" width="2.81" height="12"/>
        <rect class="cls-6" x="26.76" y="83.21" width="2.81" height="12"/>
        <path class="cls-4" d="M85.09,162.1v.24h-3.89v-.24c1.12-.69,2.74-.68,3.89,0Z"/>
        <path class="cls-3" d="M133.44,137.78l-.05-2.71c.16.03.38.22.52.18.36-.1,1.93-3.79,2.2-4.47,1.22-3.09,2.1-6.36,2.91-9.62-.18-.37-.39,0-.55.12-.4.27-2.93,2.12-3.03,2.29-.24.44-.9,3.49-1.24,4.44-.7,1.94-1.58,3.79-2.45,5.64l.35.72c-.47.04-1.3-.18-1.48.42l.05,3.06c.92-.38,1.88-.38,2.78-.08h0Z"/>
        <path class="cls-5" d="M81.2,162.1c-3.05-.09-6.06-.45-9.07-.96.23-.56.33-2.97.75-3.06,1.78.35,3.61.74,5.41.9,1.22.11,2.87.22,4.09.25.69.02,3.44-.31,3.65-.23.67.24.24,2.42.36,3.1-.43,0-.86-.02-1.3,0-1.28.05-2.61.04-3.89,0h0Z"/>
        <rect class="cls-6" x="146.19" y="20.71" width="2.81" height="12"/>
        <rect class="cls-6" x="146.19" y="41.98" width="2.81" height="12"/>
        <rect class="cls-6" x="146.19" y="60.48" width="2.81" height="12"/>
        <rect class="cls-6" x="146.19" y="84.48" width="2.81" height="12"/>
        <rect class="cls-6" x="146.19" y="103.2" width="2.81" height="12"/>
        <rect class="cls-6" x="146.19" y="126.43" width="2.81" height="12"/>
        <path class="cls-3" d="M42.1,140.63c-2.73-2.72-5.59-5.37-7.77-8.69.75-.26,1.52-1.82,2.33-1.52.23.08,2.69,3.33,3.23,3.92,1.26,1.36,2.62,2.64,3.98,3.87.17.28-1.31,2.58-1.77,2.43h0Z"/>
        <path class="cls-3" d="M62.6,154.45c.34.61-.78,2.12-.86,2.83-.64.5-8.71-5.2-9.7-6.34l1.51-2.28.29.02c1.67,1.36,3.38,2.7,5.18,3.85.57.36,3.46,1.72,3.57,1.91h0Z"/>
        <path class="cls-3" d="M123.46,144.83l2.02,2.02c-2.56,2.93-5.26,5.73-8.31,8.04l-1.62-2.28s7.91-7.78,7.91-7.78Z"/>
        <path class="cls-3" d="M30,106.97l1.75,11.6-2.61.88-1.92-11.86c.13-.61,2.2-.31,2.78-.62Z"/>
        <path class="cls-3" d="M106.69,154.71c.1.82.68,1.51.92,2.24.09.28.25.23-.05.51-.58.54-3.93,1.93-4.86,2.29-.72.28-5.23,1.94-5.51,1.67l-.41-2.85,9.91-3.87h0Z"/>
      </g>
      <rect class="cls-6" x="146.19" y="146.39" width="2.81" height="12"/>
      <path class="cls-3" d="M144.96,103.2l2.64.73c-1.03,3.92-2.23,7.81-3.93,11.43l-2.39-1.17,3.7-11h0Z"/>
      <rect class="cls-6" x="26.76" y="2.78" width="2.81" height="12"/>
      <rect class="cls-6" x="146.19" width="2.81" height="12"/>
    </g>
  </g>
</svg>