<?xml version="1.0" encoding="UTF-8"?>
<svg id="Layer_2" data-name="Layer 2" xmlns="http://www.w3.org/2000/svg" viewBox="0 0 165.41 162.05">
  <defs>
    <style>
      .cls-1, .cls-2 {
        fill: #231f20;
      }

      .cls-3 {
        fill: #272425;
      }

      .cls-2 {
        font-family: LexendDeca-Regular, 'Lexend Deca';
        font-size: 42px;
      }
    </style>
  </defs>
  <g id="Layer_1-2" data-name="Layer 1">
    <path class="cls-1" d="M45.48,111.61l6.3-2.64-2.3,18.06-14.5-11.02,6.29-2.64-21.34-50.88,4.21-1.77,21.34,50.88ZM154.87,48.12l-6.32-2.57,14.38-11.17,2.49,18.04-6.32-2.57-17.92,44.04-4.23-1.72,17.92-44.04Z"/>
    <text class="cls-2" transform="translate(0 54.81)"><tspan x="0" y="0">1</tspan></text>
    <text class="cls-2" transform="translate(118.17 129.37)"><tspan x="0" y="0">2</tspan></text>
    <g id="Layer_1-2" data-name="Layer 1-2">
      <g>
        <polygon class="cls-3" points="146.41 30.12 143.54 28.81 148.46 17.88 151.18 19.2 146.41 30.12"/>
        <polygon class="cls-3" points="126.96 74.05 124.08 72.71 129.03 61.79 131.75 63.12 126.96 74.05"/>
        <path class="cls-3" d="M71.04,127.83l4.53,10.92-2.72,1.32-4.69-10.94c-.06-.46.06-.29.3-.41.34-.17,2.43-1.03,2.57-.9h.01Z"/>
        <path class="cls-3" d="M88.08,161.64c-.18.13-2.22-.72-2.57-.89-.24-.12-.37.06-.3-.41l4.92-10.93c.49.58,2.52.84,2.53,1.55l-4.57,10.69h0Z"/>
        <path class="cls-3" d="M133.95,50.98l4.66-11.02c.23-.35.28-.13.52-.05.37.14,2.17.98,2.23,1.16.17.56-4.2,9.3-4.67,10.66-.48.53-2.04-.68-2.74-.74h0Z"/>
        <path class="cls-3" d="M112.06,106.71c.4.62-4.21,9.57-4.55,10.99l-2.86-.95,4.68-10.8c.25-.54,2.65.63,2.73.76Z"/>
        <path class="cls-3" d="M61.67,105.76l4.56,10.92-2.76,1.31-4.68-10.92c-.06-.43.08-.29.3-.41.34-.19,2.37-1.03,2.57-.89h0Z"/>
        <path class="cls-3" d="M77.52,150.88c.67.03,2.35-1.19,2.75-.74l4.45,10.93c-.67.13-2.35,1.39-2.76.84,0,0-4.44-11.03-4.44-11.03Z"/>
        <path class="cls-3" d="M114.49,94.92c-.42-.45,4.29-10.05,4.91-11.25.49.53,2.56.77,2.49,1.49l-4.65,10.49c-.55.62-1.94-.92-2.76-.73h.01Z"/>
        <polygon class="cls-3" points="52.31 83.68 56.85 94.6 54.12 95.91 49.43 84.77 52.31 83.68"/>
        <path class="cls-3" d="M24.21,17.46c.5.32,3.81,9.63,4.6,10.88l-2.54,1.1-4.88-10.73c-.05-.5,2.45-1.49,2.82-1.25Z"/>
        <path class="cls-3" d="M33.58,39.53l4.59,10.89-2.54,1.09-4.91-10.91c.46-.27,2.51-1.33,2.86-1.07Z"/>
        <path class="cls-3" d="M42.93,61.61l4.57,10.91c-.63.25-2.47,1.5-2.99.83l-4.45-10.67c.47-.27,2.5-1.33,2.86-1.07h0Z"/>
        <path class="cls-3" d="M97.68,139.81l-2.87-1.32,4.93-10.93c.55.32,2.79.83,2.72,1.52l-4.77,10.73h-.01Z"/>
      </g>
      <path class="cls-3" d="M16.79.22l4.59,10.89-2.54,1.09L13.93,1.29c.46-.27,2.51-1.33,2.86-1.07Z"/>
      <path class="cls-3" d="M151.18,11.22L155.84.19c.23-.35.28-.13.52-.05.37.14,2.17.98,2.23,1.16.17.56-4.2,9.3-4.67,10.66-.48.53-2.04-.68-2.74-.74Z"/>
    </g>
  </g>
</svg>