<?xml version="1.0" encoding="UTF-8"?>
<svg id="Layer_2" data-name="Layer 2" xmlns="http://www.w3.org/2000/svg" viewBox="0 0 133.86 209.2">
  <defs>
    <style>
      .cls-1, .cls-2 {
        fill: #231f20;
      }

      .cls-3 {
        fill: #272425;
      }

      .cls-4 {
        fill: #262324;
        stroke: #231f20;
        stroke-miterlimit: 10;
        stroke-width: 2.25px;
      }

      .cls-5 {
        fill: #282526;
      }

      .cls-2 {
        font-family: LexendDeca-Regular, 'Lexend Deca';
        font-size: 42px;
      }
    </style>
  </defs>
  <g id="Layer_1-2" data-name="Layer 1">
    <path class="cls-1" d="M44.96,26.22l46.39-.11v-6.82s15.77,9.07,15.77,9.07l-15.75,9.14v-6.83s-46.41.11-46.41.11v-4.56ZM72.27,184.32l12.64-.06-.04-6.82,15.82,9.02-15.72,9.19-.04-6.83-12.64.06-.02-4.57ZM108.29,111.9l-13.75,17.25,5.34,4.25-16.95,6.66,2.71-18.01,5.33,4.25,13.75-17.25,3.57,2.85Z"/>
    <text class="cls-2" transform="translate(12.44 35.7)"><tspan x="0" y="0">1</tspan></text>
    <text class="cls-2" transform="translate(110.84 105.3)"><tspan x="0" y="0">2</tspan></text>
    <path class="cls-4" d="M56.06,181.21c-.05.06-.03.19.08.28.32.25.9.45,1.33.8,3.31,2.73,3.48,8.09.81,11.32-3.26,3.96-9.63,3.53-12.95-.13-.46-.51-2.24-2.55-.91-2.94.97-.29,1.59,1.28,2.19,1.93,1.18,1.28,2.91,2.2,4.66,2.35,8.86.79,9.82-11.92,1.59-12.66-.54-.05-2.49.18-2.75-.23-1.18-1.87,2.78-1.32,3.55-1.43,2.13-.29,4.07-2.35,4.28-4.48.65-6.44-6.89-9.01-10.78-4.18-.38.47-1.3,2.38-1.58,2.47-.52.16-1.11-.15-1.11-.72,0-.19.79-1.73.96-2,2.42-3.86,8.21-5.09,11.71-1.91,2.92,2.65,3.26,7.94.27,10.65-.27.24-1.3.82-1.35.88Z"/>
    <g id="Layer_1-2" data-name="Layer 1-2">
      <g>
        <path class="cls-5" d="M34.15,43.4c-.13.69.35,2.84-.39,3.09-1.66-.23-10.87.46-11.62-.07-.47-.33-.12-2.35-.22-3.02h12.24-.01Z"/>
        <path class="cls-5" d="M58.15,43.4c-.13.69.35,2.84-.39,3.09-1.66-.23-10.87.46-11.62-.07-.47-.33-.12-2.35-.22-3.02h12.24-.01Z"/>
        <path class="cls-5" d="M82.15,43.4c-.13.69.35,2.84-.39,3.09-1.66-.23-10.87.46-11.62-.07-.47-.33-.12-2.35-.22-3.02h12.24,0Z"/>
        <path class="cls-5" d="M106.15,43.4c-.13.69.35,2.84-.39,3.09-1.66-.23-10.87.46-11.62-.07-.47-.33-.12-2.35-.22-3.02h12.24,0Z"/>
        <rect class="cls-5" x="69.78" y="206.08" width="12" height="3.12"/>
        <rect class="cls-5" x="93.86" y="206.08" width="12" height="3.12"/>
        <rect class="cls-5" x="21.49" y="206.08" width="12" height="3.12"/>
        <rect class="cls-5" x="46.84" y="206.08" width="12" height="3.12"/>
        <path class="cls-3" d="M47.68,149.2l-2.57-1.89,7.16-8.99c.5-.77,2.73,1.32,2.68,1.61l-7.27,9.27Z"/>
        <path class="cls-3" d="M.19,203.71c-.12-.22-.01-.48.11-.68l7.01-8.67c.58-.4,2.82,1.29,2.34,2.02l-7.15,8.78c-.25.12-2.26-1.32-2.32-1.45h0Z"/>
        <path class="cls-3" d="M37.37,156.8c.47-.25,2.59,1.46,2.52,1.82l-7.6,9.25-2.23-1.87s7.31-9.2,7.31-9.2Z"/>
        <polygon class="cls-3" points="67.83 119.17 70.02 121.26 62.39 130.49 60.18 128.63 67.83 119.17"/>
        <path class="cls-3" d="M22.67,175.49c.19-.02,2.47,1.5,2.09,1.98l-7.53,9.08-2.23-1.87c1.17-.94,7.01-9.11,7.68-9.19h-.01Z"/>
      </g>
      <path class="cls-5" d="M12.4,43.4c-.13.69.35,2.84-.39,3.09-1.66-.23-10.87.46-11.62-.07-.48-.33-.13-2.35-.23-3.02h12.24Z"/>
      <rect class="cls-5" x="114.23" y="206.08" width="12" height="3.12"/>
      <rect class="cls-5" y="206.08" width="12" height="3.12"/>
      <path class="cls-5" d="M126.99,43.4c-.13.69.35,2.84-.39,3.09-1.66-.23-10.87.46-11.62-.07-.47-.33-.12-2.35-.22-3.02h12.24,0Z"/>
      <path class="cls-3" d="M93.42,92.19l-2.57-1.89,7.16-8.99c.5-.77,2.73,1.32,2.68,1.61,0,0-7.27,9.27-7.27,9.27Z"/>
      <path class="cls-3" d="M83.1,99.78c.47-.25,2.59,1.46,2.52,1.82l-7.6,9.25-2.23-1.87s7.31-9.2,7.31-9.2Z"/>
      <polygon class="cls-3" points="113.56 62.16 115.76 64.25 108.12 73.48 105.92 71.61 113.56 62.16"/>
      <polygon class="cls-3" points="126.55 46.62 128.75 48.71 121.11 57.94 118.91 56.08 126.55 46.62"/>
    </g>
  </g>
</svg>