<?xml version="1.0" encoding="UTF-8"?>
<svg id="Layer_2" data-name="Layer 2" xmlns="http://www.w3.org/2000/svg" viewBox="0 0 136.23 214.74">
  <defs>
    <style>
      .cls-1 {
        fill: #231f20;
      }
    </style>
  </defs>
  <g id="Layer_1-2" data-name="Layer 1">
    <g>
      <path class="cls-1" d="M3.94,213.56c-1.52,0-2.76-1.31-2.76-2.93V4.12c0-1.62,1.24-2.93,2.76-2.93h70.79c10.07,0,19.01,2.38,26.55,7.08,7.53,4.7,13.43,11,17.56,18.75,4.12,7.74,6.21,16.51,6.21,26.06,0,13.03-4.04,24.53-12.01,34.2-5.09,6.17-11.32,10.89-18.55,14.05,5.84,1.51,11.1,3.7,15.69,6.53,8.25,5.09,14.53,11.76,18.66,19.82,4.12,8.04,6.21,17.15,6.21,27.09,0,8.09-1.15,15.78-3.43,22.86-2.3,7.14-6.02,13.5-11.06,18.9-5.06,5.41-11.61,9.65-19.48,12.6-7.83,2.94-17.33,4.42-28.23,4.42H3.94ZM9.61,106.76c-.18,0-.39.23-.39.56v96.71c0,.33.2.56.39.56h63.5c12.88,0,23.36-2.17,31.15-6.45,7.75-4.25,13.44-10.08,16.92-17.32,3.51-7.31,5.28-15.66,5.28-24.84s-2.04-18.14-6.07-25.53c-4.01-7.36-9.94-13.2-17.61-17.37-7.71-4.18-17.24-6.31-28.33-6.31H9.61ZM9.61,10.16c-.18,0-.39.23-.39.56v86.51c0,.33.2.56.39.56h63.5c7.84,0,15.13-2.01,21.66-5.98,6.55-3.97,11.86-9.43,15.79-16.23,3.93-6.78,5.92-14.46,5.92-22.81,0-11.83-3.85-22.01-11.43-30.25-7.56-8.21-18.03-12.37-31.12-12.37H9.61Z"/>
      <path class="cls-1" d="M74.73,2.37c9.9,0,18.54,2.3,25.92,6.9,7.38,4.6,13.09,10.7,17.14,18.3,4.05,7.6,6.08,16.1,6.08,25.5,0,12.8-3.91,23.95-11.74,33.45-5.8,7.04-13.01,12.08-21.63,15.11-2.7-.55-5.53-.96-8.48-1.24-.05,0-.09,0-.14,0-1.13,0-1.92,1.31-1.43,2.48.26.63.83,1.02,1.43,1.02.09,0,.17,0,.26-.02,2.92-.55,5.71-1.3,8.37-2.23,7.25,1.46,13.61,3.88,19.06,7.24,8.1,5,14.17,11.45,18.23,19.35,4.05,7.9,6.07,16.75,6.07,26.55,0,8-1.12,15.5-3.38,22.5-2.25,7-5.85,13.15-10.8,18.45-4.95,5.3-11.3,9.4-19.03,12.3-7.74,2.9-17.01,4.35-27.81,4.35H3.94c-.87,0-1.57-.78-1.57-1.75V4.12c0-.96.7-1.75,1.57-1.75h70.79M9.61,98.97h63.5c8.1,0,15.53-2.05,22.28-6.15,6.75-4.1,12.15-9.65,16.2-16.65,4.05-7,6.08-14.8,6.08-23.4,0-12.2-3.91-22.55-11.74-31.05-7.83-8.5-18.5-12.75-32-12.75H9.61c-.87,0-1.57.78-1.57,1.75v86.51c0,.96.7,1.75,1.57,1.75M9.61,205.77h63.5c13.14,0,23.71-2.2,31.73-6.6,8.01-4.4,13.81-10.35,17.42-17.85,3.6-7.5,5.4-15.95,5.4-25.35s-2.07-18.5-6.21-26.1c-4.14-7.6-10.17-13.55-18.09-17.85-7.92-4.3-17.55-6.45-28.89-6.45H9.61c-.87,0-1.57.78-1.57,1.75v96.71c0,.96.7,1.75,1.57,1.75M74.73,0H3.94C1.77,0,0,1.85,0,4.12v206.51c0,2.27,1.77,4.12,3.94,4.12h68.9c11.04,0,20.67-1.51,28.64-4.5,8.04-3.01,14.75-7.35,19.93-12.9,5.16-5.53,8.97-12.03,11.32-19.34,2.32-7.2,3.49-15.02,3.49-23.23,0-10.13-2.13-19.43-6.34-27.63-4.23-8.25-10.65-15.08-19.09-20.29-3.87-2.39-8.21-4.33-12.96-5.8,6.19-3.17,11.59-7.53,16.11-13.02,8.15-9.89,12.29-21.65,12.29-34.96,0-9.75-2.14-18.7-6.35-26.62-4.23-7.93-10.28-14.39-17.98-19.2-7.73-4.82-16.88-7.26-27.18-7.26h0ZM10.41,11.34h63.51c12.75,0,22.92,4.03,30.25,11.99,7.38,8.01,11.12,17.92,11.12,29.44,0,8.14-1.94,15.61-5.76,22.21-3.83,6.62-9,11.94-15.38,15.81-6.34,3.85-13.42,5.81-21.04,5.81H10.41V11.34h0ZM10.41,107.94h64.05c10.88,0,20.22,2.07,27.76,6.16,7.47,4.06,13.24,9.75,17.14,16.9,3.93,7.22,5.92,15.62,5.92,24.97s-1.74,17.18-5.17,24.32c-3.37,7.01-8.89,12.67-16.42,16.8-7.62,4.19-17.91,6.31-30.58,6.31H10.41v-95.46h0Z"/>
    </g>
  </g>
</svg>