<?xml version="1.0" encoding="UTF-8"?>
<svg id="Layer_2" data-name="Layer 2" xmlns="http://www.w3.org/2000/svg" viewBox="0 0 134.19 208.86">
  <g id="Layer_1-2" data-name="Layer 1">
    <g>
      <path d="M6.54,207.57c-2.9,0-5.25-2.15-5.25-4.78V6.07C1.29,3.44,3.65,1.29,6.54,1.29h121.11c2.9,0,5.25,2.15,5.25,4.78,0,2.32-2.06,4.2-4.59,4.2H11.13v86.17h98.04c2.53,0,4.59,1.88,4.59,4.2,0,2.64-2.36,4.78-5.25,4.78H11.13v93.16h115.2c2.53,0,4.59,1.88,4.59,4.2,0,2.64-2.36,4.78-5.25,4.78H6.54Z"/>
      <path d="M127.65,2.58c2.19,0,3.96,1.56,3.96,3.49,0,1.61-1.48,2.91-3.3,2.91H9.84v88.76h-2.97v6.4h2.97v95.74h116.49c1.82,0,3.3,1.3,3.3,2.91,0,1.93-1.77,3.49-3.96,3.49H6.54c-2.19,0-3.96-1.56-3.96-3.49V6.07c0-1.93,1.77-3.49,3.96-3.49h121.11M109.17,97.74c1.82,0,3.3,1.3,3.3,2.91,0,1.93-1.77,3.49-3.96,3.49H9.84v-6.4h99.33M127.65,0H6.54C2.93,0,0,2.72,0,6.07v196.72c0,3.35,2.93,6.07,6.54,6.07h119.13c3.61,0,6.54-2.72,6.54-6.07,0-3.03-2.64-5.49-5.88-5.49H12.42v-90.57h96.09c3.61,0,6.54-2.72,6.54-6.07,0-3.03-2.64-5.49-5.88-5.49H12.42V11.57h115.89c3.24,0,5.88-2.46,5.88-5.49,0-3.35-2.93-6.07-6.54-6.07h0Z"/>
    </g>
  </g>
</svg>