<?xml version="1.0" encoding="UTF-8"?>
<svg id="Layer_2" data-name="Layer 2" xmlns="http://www.w3.org/2000/svg" viewBox="0 0 153.55 208.55">
  <g id="Layer_1-2" data-name="Layer 1">
    <g>
      <path d="M148.22,207.34c-2.59,0-4.71-2.11-4.71-4.7v-93.65H10.04v93.65c0,2.59-2.11,4.7-4.7,4.7-2.27,0-4.12-1.85-4.12-4.12V5.33C1.21,3.06,3.06,1.21,5.33,1.21c2.59,0,4.7,2.11,4.7,4.7v94.24h133.47V5.33c0-2.27,1.85-4.12,4.12-4.12,2.59,0,4.7,2.11,4.7,4.7v197.3c0,2.27-1.85,4.12-4.12,4.12Z"/>
      <path d="M147.63,2.42c1.93,0,3.49,1.56,3.49,3.49v197.3c0,1.61-1.3,2.91-2.91,2.91-1.93,0-3.49-1.56-3.49-3.49v-94.87h3.2v-6.4h-3.2V5.33c0-1.61,1.3-2.91,2.91-2.91M5.33,2.42c1.93,0,3.49,1.56,3.49,3.49v95.45h-3.2v6.4h3.2v94.87c0,1.93-1.56,3.49-3.49,3.49-1.61,0-2.91-1.3-2.91-2.91V5.33c0-1.61,1.3-2.91,2.91-2.91M144.72,101.36v6.4H8.83v-6.4h135.9M147.63,0c-2.94,0-5.33,2.39-5.33,5.33v93.61H11.25V5.92c0-3.26-2.65-5.92-5.92-5.92C2.39,0,0,2.39,0,5.33v197.88c0,2.94,2.39,5.33,5.33,5.33,3.26,0,5.92-2.65,5.92-5.92v-92.44h131.05v92.44c0,3.26,2.65,5.92,5.92,5.92,2.94,0,5.33-2.39,5.33-5.33V5.92c0-3.26-2.65-5.92-5.92-5.92h0Z"/>
    </g>
  </g>
</svg>