<?xml version="1.0" encoding="UTF-8"?>
<svg id="Layer_2" data-name="Layer 2" xmlns="http://www.w3.org/2000/svg" viewBox="0 0 117.78 208.48">
  <defs>
    <style>
      .cls-1 {
        fill: #231f20;
      }
    </style>
  </defs>
  <g id="Layer_1-2" data-name="Layer 1">
    <g>
      <path class="cls-1" d="M5.76,207.25c-2.5,0-4.53-1.86-4.53-4.15V5.66C1.23,3.22,3.26,1.23,5.76,1.23h3.7c.33,0,.64.13.87.36.23.23.36.55.36.87,0,2.2.24,4.39.72,6.34.07.28.04.57-.09.83-.18.37-.35.73-.52,1.09-.03.07-.11.22-.15.28-.24.33-.36.69-.36,1.05v.22c0,.06,0,.12-.01.18-.08.53-.08,1.06,0,1.55,0,.06.01.13.01.19v97.67s.05.27.05.27c.02.16.02.32-.02.47-.98,4.07-1,8.1-.06,11.63.03.12.05.24.04.36,0,.03,0,.1,0,.13v78.37c0,2.29-2.03,4.15-4.53,4.15Z"/>
      <path class="cls-1" d="M9.46,2.46h0M9.46,2.46c0,2.27.24,4.54.76,6.64-.18.37-.36.74-.53,1.11-.01.03-.02.06-.04.09-.36.5-.59,1.1-.59,1.76v.22c-.1.65-.1,1.3,0,1.92v97.67c0,.15.04.3.06.45-.99,4.09-1.08,8.36-.05,12.24,0,.04,0,.08,0,.12v78.42c0,1.61-1.48,2.92-3.3,2.92s-3.3-1.31-3.3-2.92V5.66c0-1.77,1.48-3.2,3.3-3.2h3.7M9.46,0h-3.7C2.58,0,0,2.54,0,5.66v197.44c0,2.97,2.58,5.38,5.76,5.38s5.76-2.42,5.76-5.38v-78.33s0-.07,0-.11c0-.25-.02-.49-.08-.73-.89-3.34-.87-7.15.06-11.03.07-.31.09-.62.04-.93,0-.07-.02-.13-.03-.2V14.21c0-.13,0-.25-.03-.38-.06-.37-.06-.77,0-1.18.02-.12.03-.24.03-.36v-.22s0-.15.13-.33c.09-.13.17-.27.24-.42,0-.02.03-.06.04-.1.16-.35.33-.7.5-1.04.25-.52.31-1.1.17-1.66-.45-1.82-.69-3.87-.69-5.94,0-.04,0-.08,0-.12,0-1.36-1.1-2.46-2.46-2.46h0ZM9.46,4.92h0,0Z"/>
    </g>
    <g>
      <path class="cls-1" d="M10.22,102.9c-.29,0-.57-.12-.77-.33-.2-.21-.3-.5-.28-.79l.13-1.92c.08-1.13.14-2.27.19-3.41.03-.56.49-1,1.05-1h58.41c7.98,0,14.98-1.95,20.81-5.78,5.85-3.84,10.49-9.3,13.8-16.22,3.33-6.95,5.01-15.05,5.01-24.09,0-7.88-1.68-14.95-4.99-21-3.31-6.04-7.94-10.85-13.78-14.3-5.85-3.45-12.86-5.2-20.85-5.2H10.74c-.55,0-1.01-.42-1.05-.97l-.04-.55c-.06-.72-.14-1.45-.22-2.19-.09-.86-.19-1.73-.26-2.61-.02-.29.08-.58.28-.8s.48-.34.77-.34h57.17c9.75,0,18.44,2.05,25.83,6.08,7.4,4.05,13.23,9.74,17.34,16.93,4.1,7.18,6.17,15.57,6.17,24.94,0,10.49-2.07,19.85-6.15,27.82-4.1,8-9.92,14.35-17.31,18.88-7.39,4.54-16.1,6.84-25.88,6.84H10.22Z"/>
      <path class="cls-1" d="M67.38,2.46c9.62,0,18.06,1.99,25.33,5.95,7.26,3.97,12.9,9.48,16.93,16.52,4.02,7.05,6.04,15.19,6.04,24.42,0,10.37-2.01,19.48-6.04,27.34-4.03,7.86-9.67,14.01-16.93,18.47-7.26,4.46-15.71,6.68-25.33,6.68H10.22c.04-.64.08-1.28.13-1.92.08-1.14.14-2.28.2-3.43h58.41c8.22,0,15.35-1.98,21.39-5.95,6.04-3.97,10.76-9.52,14.17-16.65,3.41-7.13,5.12-15.31,5.12-24.54,0-8.1-1.71-15.27-5.12-21.51-3.41-6.23-8.14-11.14-14.17-14.7-6.04-3.56-13.17-5.35-21.39-5.35H10.74c-.01-.19-.02-.37-.04-.56-.13-1.55-.35-3.17-.48-4.79h57.17M67.38.36H10.22c-.59,0-1.15.25-1.55.68-.4.43-.6,1.01-.55,1.6.07.9.17,1.78.26,2.64.08.73.16,1.45.22,2.16,0,.09.01.17.02.26l.02.29c.09,1.09,1,1.94,2.1,1.94h58.22c7.8,0,14.64,1.7,20.32,5.05,5.68,3.35,10.18,8.03,13.4,13.9,3.22,5.89,4.86,12.79,4.86,20.49,0,8.88-1.65,16.83-4.91,23.63-3.23,6.75-7.75,12.06-13.43,15.8-5.66,3.72-12.46,5.61-20.23,5.61H10.54c-1.12,0-2.05.88-2.1,2-.06,1.16-.12,2.28-.19,3.39l-.09,1.31-.04.62c-.04.58.16,1.15.56,1.58.4.43.95.67,1.54.67h57.16c9.97,0,18.87-2.35,26.43-6.99,7.56-4.64,13.51-11.13,17.7-19.3,4.16-8.12,6.27-17.64,6.27-28.3,0-9.56-2.12-18.13-6.31-25.46-4.2-7.35-10.17-13.18-17.74-17.33C86.17,2.45,77.31.36,67.38.36h0Z"/>
    </g>
  </g>
</svg>