<?xml version="1.0" encoding="UTF-8"?>
<svg id="Layer_2" data-name="Layer 2" xmlns="http://www.w3.org/2000/svg" viewBox="0 0 127.65 211.59">
  <defs>
    <style>
      .cls-1 {
        fill: #231f20;
      }

      .cls-2 {
        fill: #fff;
      }

      .cls-3 {
        fill: #262324;
      }
    </style>
  </defs>
  <g id="Layer_1-2" data-name="Layer 1">
    <g>
      <path class="cls-1" d="M121.98,210.34c-1.22,0-2.45-.49-3.46-1.38L10.95,113.25c-2.25-2-2.77-5.42-1.16-7.63l.18-.24c.82-1.12,2.09-1.76,3.49-1.76,1.23,0,2.46.49,3.46,1.39l107.4,95.94c1.5,1.34,2.28,3.36,2.05,5.29-.19,1.59-1.05,2.9-2.35,3.59-.62.33-1.31.5-2.04.5Z"/>
      <path class="cls-1" d="M13.45,104.87c.89,0,1.83.36,2.63,1.07l107.4,95.94c2.25,2.01,2.22,5.63-.06,6.84-.45.24-.94.35-1.45.35-.9,0-1.84-.37-2.62-1.07L11.78,112.31c-1.77-1.57-2.21-4.27-.98-5.95l.17-.24c.61-.83,1.52-1.25,2.48-1.25M13.45,102.37h0c-1.8,0-3.44.83-4.5,2.27l-.17.24c-1.99,2.71-1.39,6.88,1.33,9.3l107.58,95.71c1.23,1.1,2.75,1.7,4.29,1.7.92,0,1.83-.22,2.62-.65,1.67-.89,2.76-2.54,3-4.54.28-2.33-.66-4.77-2.45-6.38L17.75,104.08c-1.23-1.1-2.76-1.71-4.3-1.71h0Z"/>
    </g>
    <g>
      <path class="cls-3" d="M12.02,104.86c1.01,4.72-.99,10.28-1,14.48,0,1.9,1.05,3.83,1.04,5.95-.01,26.64-.07,53.28-.07,79.91-1.14,6.01-12.76,6.42-11.96-.96L.54,2.99C4.53-2.22,9.62.94,14.48,1.03c20.61.39,57.39-3.49,75.13,3.77,39.83,16.3,37.13,79.22-.32,95.91-1.87.83-10.57,4.14-11.84,4.14H12.02Z"/>
      <path class="cls-2" d="M12.02,94.87V12.48c0-.11,1.39-1.5,1.5-1.5h58.93c1.33,0,8.68,1.92,10.46,2.52,39.46,13.52,25.87,81.37-10.46,81.37H12.02Z"/>
    </g>
  </g>
</svg>