<?xml version="1.0" encoding="UTF-8"?>
<svg id="Layer_2" data-name="Layer 2" xmlns="http://www.w3.org/2000/svg" viewBox="0 0 171.62 215">
  <defs>
    <style>
      .cls-1 {
        fill: #231f20;
      }
    </style>
  </defs>
  <g id="Layer_1-2" data-name="Layer 1">
    <g>
      <path class="cls-1" d="M83.56,213.75c-1.68,0-3.21-1.05-3.81-2.62L1.52,6.8c-.48-1.26-.31-2.67.45-3.78s2.02-1.77,3.37-1.77h1.72c1.69,0,3.22,1.06,3.82,2.64l70.11,185.37c1.17,2.93,2.19,5.57,3.01,7.81.59,1.64,1.17,3.16,1.71,4.52.24-.63.48-1.29.74-1.98,1-2.7,2.2-5.95,3.6-9.75L160.75,3.88c.6-1.57,2.13-2.63,3.82-2.63h1.72c1.35,0,2.61.66,3.37,1.77.76,1.11.93,2.52.45,3.78l-78.88,205.27c-.38,1-1.37,1.68-2.44,1.68h-5.21Z"/>
      <path class="cls-1" d="M166.29,2.5c1.99,0,3.36,1.99,2.65,3.85l-78.88,205.27c-.2.53-.71.88-1.27.88h-5.21c-1.17,0-2.23-.72-2.65-1.82L2.69,6.35c-.71-1.86.66-3.85,2.65-3.85h1.72c1.18,0,2.23.73,2.65,1.83l70.11,185.37c1.2,3,2.2,5.6,3,7.8.8,2.2,1.55,4.15,2.25,5.85.24.58.46,1.13.67,1.64-.24.6-.46,1.15-.67,1.66-.21.52-.4.98-.57,1.4-.4.99.33,2.06,1.4,2.06.85,0,1.44-.83,1.16-1.63-.1-.29-.21-.59-.33-.92-.27-.72-.59-1.57-.98-2.55.55-1.4,1.18-3.05,1.88-4.95,1-2.7,2.2-5.95,3.6-9.75L161.92,4.33c.42-1.1,1.47-1.83,2.65-1.83h1.72M166.29,0h-1.72c-2.2,0-4.2,1.38-4.99,3.44l-70.71,185.97c-1.22,3.31-2.28,6.19-3.19,8.65-.17-.46-.34-.93-.52-1.41-.82-2.26-1.84-4.91-3.03-7.88L12.05,3.45c-.78-2.06-2.79-3.45-4.99-3.45h-1.72C3.58,0,1.94.86.94,2.31-.06,3.76-.28,5.6.35,7.24l78.23,204.33c.78,2.05,2.79,3.43,4.98,3.43h5.21c1.59,0,3.04-1,3.61-2.48L171.27,7.25c.63-1.64.41-3.49-.58-4.93-1-1.45-2.64-2.31-4.4-2.31h0Z"/>
    </g>
  </g>
</svg>