<?xml version="1.0" encoding="UTF-8"?>
<svg id="Layer_2" data-name="Layer 2" xmlns="http://www.w3.org/2000/svg" viewBox="0 0 159.12 208.62">
  <defs>
    <style>
      .cls-1 {
        fill: #231f20;
      }
    </style>
  </defs>
  <g id="Layer_1-2" data-name="Layer 1">
    <g>
      <path class="cls-1" d="M5.3,207.39c-2.24,0-4.07-1.79-4.07-3.98v-3.34c0-.85.27-1.67.79-2.35L142.45,10.1H13.1c-2.24,0-4.07-1.79-4.07-3.98v-.9c0-2.19,1.82-3.98,4.07-3.98h137.43c2.24,0,4.07,1.79,4.07,3.98v3.05c0,.85-.27,1.67-.79,2.36L12.94,198.53h140.89c2.24,0,4.07,1.79,4.07,3.98v.9c0,2.19-1.82,3.98-4.07,3.98H5.3Z"/>
      <path class="cls-1" d="M150.53,2.46c1.57,0,2.83,1.23,2.83,2.75v3.05c0,.58-.19,1.15-.54,1.62L10.48,199.76h-2.13c-.71,0-1.22.64-1.05,1.31.13.51.59.8,1.06.8.32,0,.65-.14.87-.43l1.25-1.67h143.35c1.57,0,2.83,1.23,2.83,2.75v.9c0,1.52-1.27,2.75-2.83,2.75H5.3c-1.57,0-2.83-1.23-2.83-2.75v-3.34c0-.58.19-1.15.54-1.62L144.91,8.86h4.29c.93,0,1.43-1.05.82-1.74l-1.17-1.33c-.22-.25-.52-.37-.82-.37-.33,0-.66.15-.88.43l-2.24,3H13.1c-1.57,0-2.83-1.23-2.83-2.75v-.9c0-1.52,1.27-2.75,2.83-2.75h137.43M150.53,0H13.1c-2.92,0-5.3,2.34-5.3,5.21v.9c0,2.87,2.38,5.21,5.3,5.21h126.9L1.03,196.98c-.68.9-1.03,1.97-1.03,3.09v3.34c0,2.87,2.38,5.21,5.3,5.21h148.53c2.92,0,5.3-2.34,5.3-5.21v-.9c0-2.87-2.38-5.21-5.3-5.21H15.4L154.79,11.36c.68-.9,1.03-1.97,1.03-3.09v-3.05c0-2.87-2.38-5.21-5.3-5.21h0Z"/>
    </g>
  </g>
</svg>