<?xml version="1.0" encoding="UTF-8"?>
<svg id="Layer_2" data-name="Layer 2" xmlns="http://www.w3.org/2000/svg" viewBox="0 0 144.93 191.72">
  <defs>
    <style>
      .cls-1, .cls-2 {
        fill: #231f20;
      }

      .cls-3 {
        fill: #272425;
      }

      .cls-4 {
        fill: #626364;
      }

      .cls-5 {
        fill: #939598;
      }

      .cls-6 {
        fill: #c2c3c4;
      }

      .cls-2 {
        font-family: LexendDeca-Regular, 'Lexend Deca';
        font-size: 42px;
      }
    </style>
  </defs>
  <g id="Layer_1-2" data-name="Layer 1">
    <path class="cls-1" d="M42.73,21.09l-16.57,7.55,1.74-18.13,5.63,4.02C43.43,4.8,57.94-.52,73.89.04c13.22.43,25.43,4.91,30.38,11.14l-3.57,2.84c-4.1-5.15-15.19-9.03-26.96-9.42-14.37-.46-27.44,4.13-36.43,12.62l5.42,3.87Z"/>
    <text class="cls-2" transform="translate(0 46.25)"><tspan x="0" y="0">1</tspan></text>
    <g id="Layer_1-2" data-name="Layer 1-2">
      <g>
        <path class="cls-3" d="M81.08,24.92c.66.1,1.3.18,1.92.24.46-.07.94-.15,1.44-.24h.24s.26.23.58.25c1.3.11,2.67.09,3.98.23-.37.75.12,3.1-.82,3.11-3.69-.63-7.45-.45-11.18-.47v-3.12h3.84Z"/>
        <path class="cls-4" d="M83,24.92c.21.07.21.15,0,.24-.59,0-1.53.18-1.92-.24h1.92Z"/>
        <path class="cls-5" d="M84.44,24.92c-.26.4-.99.23-1.44.24v-.24h1.44Z"/>
        <path class="cls-6" d="M.92,114.92h-.24v-1.2h.24c.47.39.47.81,0,1.2Z"/>
        <path class="cls-3" d="M140.87,58.65c.15.15.3.28.45.44.58.63,1.1,1.29,1.59,1.96,1.01-1.26,1.95-2.52,1.96-2.68.08-.87-3.27-5.08-3.91-6.08-.4.47-2.29,1.54-2.26,2l2.55,3.88s-.38.48-.38.48Z"/>
        <path class="cls-3" d="M142.84,156.9c-.55.82-1.16,1.56-1.83,2.21l.27.34-2.84,3.6c-.04.32,1.74,1.48,2.05,2.03.37,0,4.45-5.3,4.44-5.88l-1.94-2.53c-.05.08-.09.16-.14.23h-.01Z"/>
        <path class="cls-3" d="M88.28,191.24l-12,.48c.17-.88-.49-2.92.6-3.12,1.78-.33,4.96.09,6.97,0,.74-.03,3.41-.56,3.81-.46.55.13.41,2.44.62,3.09h0Z"/>
        <polygon class="cls-3" points="5.24 90.44 3.83 102.06 .92 101.96 2.36 89.96 5.24 90.44"/>
        <path class="cls-3" d="M18.9,58.99l-2.6-1.45c-.09-.13.02-.32.08-.47.42-1.06,3.86-5.15,4.82-6.23.38-.43,1.9-2.24,2.15-2.41.91-.63,2.04,1.04,2.52,1.79l-6.96,8.78h-.01Z"/>
        <path class="cls-3" d="M44.11,36.43l-9.51,5.99c-.36.05-1.99-2.13-1.73-2.59.08-.15,2.36-1.62,2.77-1.91,2.29-1.59,4.71-3.02,7.16-4.36.14.58,1.56,2.5,1.31,2.87Z"/>
        <path class="cls-3" d="M33.72,173.74c.55-.15,8.15,5.84,9.57,6.21l-1.33,2.54-9.62-6.24c-.77-.36,1.15-2.45,1.38-2.51Z"/>
        <path class="cls-3" d="M8.34,79.38c-.28.2-2.18-.45-2.56-.64-.28-.14-.32.06-.3-.4.05-1.07,2.03-5.51,2.59-6.78.47-1.07,1.1-2.67,1.66-3.61.12-.21-.04-.36.41-.31.47.06,2.55,1.06,2.51,1.52,0,0-4.31,10.22-4.31,10.22Z"/>
        <path class="cls-3" d="M5.25,137.01c.73.11,2.32-1.05,2.75-.49l4.17,10.02c.17.81-2.35,1.94-2.73,1.51-.6-1.35-4.72-10.42-4.19-11.04Z"/>
        <path class="cls-3" d="M.92,113.72c.96-.06,1.98.2,2.88-.24l1.22,11.62-2.89.62c-.46-3.55-1.22-7.2-1.2-10.8v-1.2h-.01Z"/>
        <path class="cls-3" d="M121.4,39.32c-.14-.19,1.22-2.53,1.59-2.6.71-.13,8.45,5.53,9.33,6.45.14.15.39.24.26.49l-1.95,2.14c-2.87-2.4-5.84-4.84-9.24-6.47h.01Z"/>
        <path class="cls-3" d="M112.28,31.16c.09.13-1.02,2.82-1.32,2.84l-10.93-3.57.86-2.89,11.38,3.61h.01Z"/>
        <path class="cls-3" d="M129.92,170.84c.53.75,2.22,1.93,1.58,2.77l-9.62,6.24-1.33-2.54,9.38-6.47h0Z"/>
        <path class="cls-3" d="M25.4,166.04c-.65-.1-2.05,1.93-2.28,1.92-1.4-1.72-2.93-3.32-4.29-5.06-.63-.81-2.55-3.13-2.84-3.89-.37-.98,1.89-2.14,2.21-1.98,0,0,7.2,9.01,7.2,9.01Z"/>
        <path class="cls-3" d="M64.52,190.52l-11.38-2.91c-.76-.5.6-2.01.59-2.84l11.04,2.75c.47.3-.37,2.35-.25,3.01h0Z"/>
        <path class="cls-3" d="M65.71,28.99l-10.89,2.63c-.46-.12-.82-2.21-1.11-2.72l11.42-2.96c.47.09.66,2.56.58,3.05Z"/>
        <path class="cls-3" d="M111.32,185.24c-3.79,1.26-7.52,3.09-11.5,3.59l-.48-2.85,10.67-3.59,1.32,2.84h0Z"/>
      </g>
    </g>
  </g>
</svg>