<?xml version="1.0" encoding="UTF-8"?>
<svg id="Layer_2" data-name="Layer 2" xmlns="http://www.w3.org/2000/svg" viewBox="0 0 143.29 303.83">
  <defs>
    <style>
      .cls-1, .cls-2 {
        fill: #000000;
      }

      .cls-3 {
        fill: #000000;
      }

      .cls-4 {
        fill: #000000;
      }

      .cls-5 {
        fill: #000000;
      }

      .cls-2 {
        font-family: LexendDeca-Regular, 'Lexend Deca';
        font-size: 42px;
      }
    </style>
  </defs>
  <g id="Layer_1-2" data-name="Layer 1">
    <path class="cls-1" d="M117.5,22.07c.44-.48.98-.92,1.63-1.29.36-.21.72-.39,1.09-.56-9.07-11.11-25.81-16.32-41.72-16.32-25.32,0-50.95,13.06-50.95,38.03v38.64h-7.51l10.02,15.77,10.02-15.77h-7.51v-38.64c0-23,23.8-33.47,45.92-33.47,14.25,0,29.22,4.54,37.36,14.2.5-.28,1.04-.49,1.63-.59Z"/>
    <text class="cls-2" transform="translate(122.29 35.7)"><tspan x="0" y="0">1</tspan></text>
    <text class="cls-2" transform="translate(0 197.53)"><tspan x="0" y="0">2</tspan></text>
    <path class="cls-1" d="M29.1,179.67c-.24,0-.47-.02-.71-.02.05,1.53.09,3.05.09,4.57.2,0,.41.01.61.01h38.64v6.83s15.77-9.11,15.77-9.11l-15.77-9.11v6.83H29.1Z"/>
    <g id="Layer_1-2" data-name="Layer 1-2">
      <g>
        <path class="cls-3" d="M80.05,18.3c.37.2.79.2,1.17,0h3.11c.76.04,1.02.28.78.72-.06.45.07,2.31,0,2.4-3.15-.07-6.29-.03-9.4.49l-.51-2.89,3.69-.72h1.17Z"/>
        <path class="cls-4" d="M85.3,18.3c.1.29-.18.62-.19.72.16-.8-.46-.25-.78-.72h.97Z"/>
        <path class="cls-4" d="M81.22,18.3c-.19.39-.98.39-1.17,0h1.17Z"/>
        <path class="cls-3" d="M47.06,142.85v4.08c.24.05,1.1-.08,1.17,0,.09.1.05,2.63,0,2.98-.04.31-1.17.06-1.17.14v4.8h-2.53v-4.8h-6.03v-3.12h6.03v-4.08h2.53Z"/>
        <path class="cls-3" d="M44.53,121.79v9.06h2.53v-8.76c-.84-.12-1.68-.22-2.53-.3Z"/>
        <rect class="cls-5" x="57.94" y="146.93" width="9.72" height="3.12"/>
        <path class="cls-5" d="M46.22,56.01v12h-2.53c.1-4.07-.22-8.2.19-12.24l2.33.24Z"/>
        <rect class="cls-5" x="77.38" y="146.93" width="9.72" height="3.12"/>
        <rect class="cls-5" x="44.53" y="166.85" width="2.53" height="12"/>
        <rect class="cls-5" x="44.53" y="190.84" width="2.53" height="12"/>
        <rect class="cls-5" x="44.96" y="217.64" width="2.53" height="12"/>
        <rect class="cls-5" x="44.53" y="245.83" width="2.53" height="12"/>
        <rect class="cls-5" x="44.53" y="269.83" width="2.53" height="12"/>
        <path class="cls-3" d="M103.95,26l-1.17,2.62-.26-.02c-2.53-2.25-5.44-3.7-8.29-5.15.27-.52.46-2.75,1.04-2.71.45.03,3.65,1.78,4.28,2.16,1.52.91,2.91,2.11,4.39,3.1h0Z"/>
        <path class="cls-3" d="M106.33,35.7l.1,11.77c0,.59-2.17.51-2.28.43-.42-.29-.04-10.5-.24-11.9,0,0,2.42-.3,2.42-.3Z"/>
        <path class="cls-3" d="M61.62,20.38c.51-.06.99,1.96,1.18,2.5-2.6,1.86-5.39,3.56-7.67,6.08-.7.23-1.25-1.61-1.81-2.01,0-.35,3.02-2.95,3.52-3.34.7-.56,4.25-3.17,4.78-3.23Z"/>
        <path class="cls-3" d="M46.1,32.26l2.06,1.74c-1.75,3.05-3.01,6.49-3.99,10.03-.25.58-2.4-.63-2.41-.79,1.12-3.85,2.48-7.6,4.34-10.99Z"/>
      </g>
      <rect class="cls-5" x="20.04" y="147.29" width="9.72" height="3.12"/>
      <rect class="cls-5" x="95.07" y="147.29" width="9.72" height="3.12"/>
      <rect class="cls-5" x="44.51" y="291.83" width="2.53" height="12"/>
      <rect class="cls-5" x="44.52" y="100.82" width="2.53" height="12"/>
      <rect class="cls-5" x="44.52" y="80.63" width="2.53" height="12"/>
    </g>
  </g>
</svg>