<?xml version="1.0" encoding="UTF-8"?>
<svg id="Layer_2" data-name="Layer 2" xmlns="http://www.w3.org/2000/svg" viewBox="0 0 142.04 282.75">
  <defs>
    <style>
      .cls-1, .cls-2 {
        fill: #000000;
      }

      .cls-3 {
        fill: #000000;
      }

      .cls-4 {
        fill: #000000;
      }

      .cls-5 {
        fill: #000000;
      }

      .cls-6 {
        fill: #000000;
      }

      .cls-7 {
        fill: #000000;
      }

      .cls-8 {
        fill: #000000;
      }

      .cls-2 {
        font-family: LexendDeca-Regular, 'Lexend Deca';
        font-size: 42px;
      }
    </style>
  </defs>
  <g id="Layer_1-2" data-name="Layer 1">
    <text class="cls-2" transform="translate(91.48 35.7)"><tspan x="0" y="0">1</tspan></text>
    <path class="cls-1" d="M19.79,50.48L2.95,58.86l-.97-15.46,6.65,2.64c9.7-12.19,22.07-19.96,36.86-23,24.95-5.11,47.46,4.88,48.41,5.31l-2.53,3.35c-.22-.1-21.74-9.61-44.64-4.89-13.39,2.76-24.68,9.86-33.64,21.02l6.69,2.66ZM118.76,264.47l5.06,4.61-17.35,5.53,3.88-17.79,4.99,4.54c7.05-11.47,6.21-22.59,6.2-22.71V58.87s4.56,0,4.56,0v179.58c.04.37,1.04,12.99-7.33,26.02Z"/>
    <text class="cls-2" transform="translate(119.02 54.17)"><tspan x="0" y="0">2</tspan></text>
    <g id="Layer_1-2" data-name="Layer 1-2">
      <g>
        <path class="cls-3" d="M68.54,39.04c.53.18,1.11.17,1.63,0,.34.02.69-.03,1.02,0,.03,0,.16.18.32.19,1.46.12,2.92.26,4.37.43l-.41,2.65c-1.48-.21-3.11-.52-4.59-.61-1.16-.07-4.03.25-4.86-.03-.63-.2-.23-2.04-.33-2.63h2.86,0Z"/>
        <path class="cls-3" d="M.2,113.71h2.45l1.02,9.79-2.65.41-.81-7.67L0,115.75v-.61c.05-.49.12-.97.2-1.43Z"/>
        <path class="cls-6" d="M70.18,39.04c-.32.34-1.32.34-1.63,0h1.63Z"/>
        <path class="cls-7" d="M0,115.14v-1.43h.2c.22.46-.2,1.24-.2,1.43Z"/>
        <path class="cls-5" d="M109.06,56.41l-5.53-4.72c-.27.77-1.71,1.62-1.13,2.35l7.05,6.2.98-.88c.07-.31.15-.62.24-.93-.71-.51-1.29-1.22-1.6-2.04h0Z"/>
        <path class="cls-8" d="M111.79,120.15c.4-.13,2.13-.16,2.29.31-.2,1.44.39,9.43-.06,10.08-.2.3-2.36.39-2.53-.14.2-1.44-.39-9.43.06-10.08.06-.09.14-.13.25-.16Z"/>
        <path class="cls-8" d="M111.79,58.15c.4-.13,2.13-.16,2.29.31-.2,1.44.39,9.44-.06,10.08-.2.3-2.36.39-2.53-.14.2-1.44-.39-9.44.06-10.08.06-.09.14-.13.25-.16Z"/>
        <rect class="cls-4" x="111.45" y="78.92" width="2.65" height="10.4"/>
        <rect class="cls-8" x="111.45" y="161.54" width="2.65" height="10.4"/>
        <rect class="cls-4" x="111.45" y="99.52" width="2.65" height="10.4"/>
        <rect class="cls-4" x="111.45" y="140.94" width="2.65" height="10.4"/>
        <path class="cls-3" d="M58.13,279.48c-.26.65.59,2.4-.14,2.63l-10.28.65c.11-.58-.3-2.41.33-2.63l10.07-.64h0Z"/>
        <path class="cls-3" d="M114.84,228.48l-2.24,10.4c-.48-.4-2.46-.41-2.41-1.08l2.11-9.54.2-.14,2.35.36h0Z"/>
        <path class="cls-3" d="M94.57,263.79c.35-.06,1.84,1.58,1.62,2.03-1.84,1.5-3.61,3.09-5.56,4.45-.43.3-2.41,1.75-2.72,1.58-.29-.16-1.34-1.83-1.14-2.16,0,0,7.79-5.9,7.79-5.9Z"/>
        <path class="cls-3" d="M108.71,248.49c.23.32-1.66,3.62-1.99,4.2-.55.96-2.4,4.08-3.09,4.68s-1.48-.81-2.24-.95l5.09-8.95,2.23,1.04h0Z"/>
        <polygon class="cls-3" points="41.86 280 41.08 282.33 31.34 278.3 32.45 276.16 41.86 280"/>
        <path class="cls-3" d="M68.54,280.09l-.61-2.45,9.79-3.26c.03.66,1.17,2.04.62,2.55l-9.8,3.16Z"/>
        <path class="cls-3" d="M23.46,271.21c-.43.32-1.04,2.13-1.46,2.11-2.37-1.51-4.91-3.03-7.11-4.78-.31-.24-1.08-.74-1.24-.94-.39-.48,1.04-1.48,1.17-2.1l.46.1,8.19,5.61h0Z"/>
        <path class="cls-3" d="M5.11,255.39l.56-.69h0c-1-.25-1.74-.75-2.25-1.39l-1.62,2.05c-.02.32,3.57,4.88,3.88,4.89.35-.27,1.79-1.41,1.8-1.73,0-.35-2.49-2.56-2.36-3.12h0Z"/>
        <path class="cls-3" d="M73.44,177.96c-.2.6.65,2.36-.13,2.63l-9.87.23c.11-.58-.3-2.41.33-2.63l9.66-.23Z"/>
        <path class="cls-3" d="M110.65,41.59c.22.79.25,1.65.05,2.45h.75v3.88h2.65v-6.32h-3.45Z"/>
        <path class="cls-3" d="M4.08,94.13l-1.25,9.45c-.25.77-1.98.03-2.62.13l1.22-9.99,2.65.41h0Z"/>
        <path class="cls-3" d="M36.52,46.19l.93,2.24c-1.22.31-8.03,5.32-8.46,5.07-.11-.06-1.32-1.95-1.06-2.12l8.59-5.2h0Z"/>
        <path class="cls-3" d="M14.03,150.66c.24-.06.41-.03.58.16l5.79,7.28c.03.2-1.62,1.67-1.75,1.69-.62.11-5.7-6.67-6.32-7.73-.08-.3,1.45-1.34,1.7-1.41h0Z"/>
        <path class="cls-3" d="M27.47,164.92c.47-.13,6.89,5.04,8.13,5.28.1.17-.92,2.02-1.13,2.16-.26.17-2.04-1.01-2.43-1.25-2.02-1.25-4.17-2.7-5.9-4.29-.05-.29,1.06-1.82,1.33-1.89h0Z"/>
        <path class="cls-3" d="M91.99,172.27c.14.68.65,1.28.88,1.9.08.23.25.2-.04.43-.68.57-4.02,1.9-5.05,2.3-1.15.45-2.61,1.04-3.78,1.33-.21.05-.26.23-.45-.06-.21-.31-.82-2.12-.52-2.35l8.96-3.56h0Z"/>
        <path class="cls-3" d="M94.04,48.42l-8.97-3.77-.17-.2.79-2.35,9.18,3.98c.56.5-.87,1.6-.82,2.34h0Z"/>
        <path class="cls-3" d="M10.4,75.56c-1.4,3.01-2.75,6.1-3.97,9.15l-2.35-.79,4.08-9.29s2.24.93,2.24.93Z"/>
        <path class="cls-3" d="M55.69,39.86l.36,2.35-.14.2-9.39,2.35c.03-.51-.99-2.29-.62-2.55l9.79-2.35h0Z"/>
        <path class="cls-3" d="M9.37,142.25c-.59.06-1.92,1.09-2.33.63-.58-.65-1.98-4.37-2.35-5.41-.32-.9-.99-2.51-1.14-3.37-.17-.94,1.77-.75,2.36-1.23l3.45,9.37h0Z"/>
        <path class="cls-3" d="M53.84,176.96c.12.14-.23,2.11-.37,2.31-.26.4-4.56-.79-5.33-1-.65-.18-4.39-1.28-4.47-1.65l.9-2.33c2.94,1.3,6.14,2,9.26,2.66h0Z"/>
        <path class="cls-3" d="M15.7,67.39c-.25.17-1.92-1.23-2.22-1.52,1.28-1.68,2.54-3.43,3.95-5,.78-.88,1.76-1.9,2.63-2.64l1.76,1.72c-2.17,2.35-4.45,4.69-6.12,7.44Z"/>
        <path class="cls-3" d="M102,168.88c.46-.26,1.96-1.59,2.45-2.04,1.39-1.23,2.66-2.7,4-4.03v-.04c0-.42.05-.82.14-1.17-.54-.53-1.26-1.21-1.5-1.1-.93.92-1.7,1.96-2.65,2.87-.59.56-4.33,3.49-4.27,3.84.02.1,1.14,1.68,1.23,1.73.19.11.41.03.59-.08h0Z"/>
      </g>
      <rect class="cls-8" x="112.78" y="205.37" width="2.65" height="10.4"/>
      <rect class="cls-4" x="112.78" y="184.77" width="2.65" height="10.4"/>
    </g>
  </g>
</svg>