<?xml version="1.0" encoding="UTF-8"?>
<svg id="Layer_2" data-name="Layer 2" xmlns="http://www.w3.org/2000/svg" viewBox="0 0 146.67 297.31">
  <defs>
    <style>
      .cls-1 {
        fill: #000000;
      }

      .cls-2 {
        fill: #000000;
      }

      .cls-3 {
        fill: #000000;
      }

      .cls-4, .cls-5 {
        fill: #000000;
      }

      .cls-6 {
        fill: #000000;
      }

      .cls-7 {
        fill: #fff;
      }

      .cls-8 {
        fill: #000000;
      }

      .cls-9 {
        fill: #000000;
      }

      .cls-10 {
        fill: #000000;
      }

      .cls-11 {
        fill: #000000;
      }

      .cls-12 {
        fill: #000000;
      }

      .cls-5 {
        font-family: LexendDeca-Regular, 'Lexend Deca';
        font-size: 42px;
      }
    </style>
  </defs>
  <g id="Layer_1-2" data-name="Layer 1">
    <path class="cls-4" d="M11.39,277.83h6.83s-9.09,15.77-9.09,15.77l-9.12-15.76h6.82s-.14-195-.14-195h4.57l.14,194.99ZM146.67,51.41l-1.32,18.16-15.07-10.22,6.06-2.93c-16.3-27.31-38.81-29.16-55.11-25.73l-.95-4.46c14.58-3.09,41.51-3.34,60.17,28.2l6.22-3.01Z"/>
    <text class="cls-5" transform="translate(0 77.9)"><tspan x="0" y="0">1</tspan></text>
    <text class="cls-5" transform="translate(50.15 35.7)"><tspan x="0" y="0">2</tspan></text>
    <g id="Layer_1-2" data-name="Layer 1-2">
      <g>
        <path class="cls-7" d="M29.38,45.04c.09-.4.22-.78.4-1.14h-3.86v2.38l.3.43h2.82c.03-.58.14-1.14.34-1.66h0Z"/>
        <path class="cls-12" d="M25.93,187.54v-11.45c.59.12,2.43-.32,2.64.35-.21,1.55.4,10.2-.06,10.89-.28.42-2.01.11-2.58.2h0Z"/>
        <path class="cls-12" d="M25.93,120.36v-11.45c.59.12,2.43-.31,2.64.35-.21,1.55.4,10.2-.06,10.89-.28.42-2.01.11-2.58.2h0Z"/>
        <rect class="cls-12" x="25.93" y="221.02" width="2.67" height="11.23"/>
        <rect class="cls-12" x="25.93" y="153.84" width="2.67" height="11.23"/>
        <rect class="cls-12" x="25.93" y="86.67" width="2.67" height="11.23"/>
        <path class="cls-12" d="M25.93,198.56c.47.05,2.67-.21,2.67.32v10.91h-2.67v-11.23Z"/>
        <path class="cls-12" d="M25.93,131.38c.47.05,2.67-.21,2.67.32v10.91h-2.67v-11.23Z"/>
        <path class="cls-12" d="M25.93,64.2c.47.05,2.67-.21,2.67.32v10.91h-2.67v-11.23Z"/>
        <path class="cls-11" d="M29.07,46.28h-3.15v6.91c.47-.05,2.67.21,2.67-.32v-3.78h.89c-.38-.86-.52-1.85-.4-2.81h0Z"/>
        <path class="cls-8" d="M29.3,247.37h-.7v-3.78c0-.53-2.2-.27-2.67-.32v6.91h2.32c.06-1.03.41-2.04,1.05-2.81Z"/>
        <path class="cls-8" d="M79.76,41.41c.5.08.97.15,1.44.22.39-.06.8-.14,1.23-.22h.21s.15.18.32.2c.78.09,1.57-.03,2.34.23-.43.66-.04,1.61-.23,2.23-.25.78-2.09.15-2.74.13-2.56-.08-5.15.08-7.7,0,0-.54.03-1.08,0-1.62s-.54-1.09.21-.97c.33-.15.74-.23,1.23-.22h3.69Z"/>
        <path class="cls-2" d="M142.14,118.3h-.21c-.6-1.44-.58-3.31,0-4.75h.21v4.75Z"/>
        <path class="cls-6" d="M81.19,41.41c.18.06.18.14,0,.22-.44,0-1.16.15-1.44-.22h1.44Z"/>
        <path class="cls-1" d="M82.42,41.41c-.22.36-.85.22-1.23.22v-.22h1.23Z"/>
        <polygon class="cls-10" points="76.06 41.41 74.83 41.62 74.83 41.41 76.06 41.41"/>
        <path class="cls-8" d="M43.56,175.54c-1.46-1.26-3.01-2.45-4.43-3.77-.57-.53-2.48-2.86-2.86-3.03-.24-.11-.47.24-.71.23-.81,0-1.72-.23-2.57-.12v2.44c.15.13.29.28.42.43.99.24,1.74.83,2.25,1.59v-1.22l6.67,5.83c.23-.7,1.59-1.71,1.24-2.38h0Z"/>
        <path class="cls-8" d="M29.18,156.09c.04-.11.28-.28.61-.48-.58-.65-1.12-1.33-1.65-2.04l-1.85,1.03c-.43.71,1.33,5.53,1.86,6.48.39-.43,1.99-.67,2.14-1.22.15-.52-1.39-3.13-1.11-3.76h0Z"/>
        <path class="cls-8" d="M31.38,74.92c.13-.23.27-.45.4-.67-.18-1.03,1.06-2.74.97-3.89l-2.12-.88c-.54.13-1.86,5.6-1.96,6.46l1.88,1.05c.21-.72.47-1.42.83-2.09h0Z"/>
        <path class="cls-8" d="M130.86,153.94c.15-.12,2.44,1.1,2.44,1.4l-5.82,9.39-1.94-1.61s5.33-9.18,5.33-9.18Z"/>
        <path class="cls-8" d="M44.6,52.89c.61-.06,1.25,1.65,1.7,2.02l-7.99,6.92-1.64-1.74c0-.55,7.32-7.15,7.93-7.21Z"/>
        <path class="cls-8" d="M134.54,79.84c-.71.05-1.74,1.28-2.34.67l-4.83-9.19,2.07-1.31c.77,1.12,5.51,9.23,5.11,9.83h0Z"/>
        <path class="cls-8" d="M61.89,185.28l-.61,2.57c-.3.23-5.51-1.97-6.28-2.33-.82-.38-2.6-1.09-3.22-1.58-.84-.66.43-1.69.5-2.56,3.21,1.12,6.28,2.95,9.61,3.9h0Z"/>
        <path class="cls-8" d="M122.64,61.49c-.74-.03-1.44,1.75-2.05,1.42l-7.1-6.59c-.68-.42.91-2.68,1.55-2.28,1.7,1.51,3.51,2.93,5.14,4.54.56.56,1.88,1.79,2.26,2.38.12.18.28.23.2.54h0Z"/>
        <path class="cls-8" d="M94.94,46.59l.63-2.57c.45-.33,9.91,3.41,9.99,3.97-.22.53-.68,2.27-1.27,2.28-3.03-1.44-6.08-2.94-9.35-3.67Z"/>
        <path class="cls-8" d="M118.68,171.24l1.92,1.82c-1.27,1.31-2.62,2.6-4,3.77-.81.68-3.11,2.68-3.88,3.05-.21.1-.24.27-.52.11-.22-.13-1.44-1.88-1.14-2.29l7.63-6.46h0Z"/>
        <path class="cls-8" d="M102.94,185.69l-9.96,3.42c-.35-.07-.58-2.02-.71-2.45l9.38-3.54c.54-.05,1.21,2.04,1.3,2.57h0Z"/>
        <polygon class="cls-8" points="140.29 134.07 137.61 144.85 135.17 144.21 137.84 133.65 140.29 134.07"/>
        <path class="cls-8" d="M64.16,43.35l.39,2.57-9.63,3.69-.81-2.57c3.26-1.44,6.56-3.02,10.04-3.69h0Z"/>
        <path class="cls-8" d="M140.92,101.02l-2.37.38-.21-.15-2.13-10.58,2.15-.61c.58.11,2.45,9.6,2.56,10.96h0Z"/>
        <path class="cls-9" d="M82.22,187.85v2.81c-3.56-.09-7.16.28-10.67-.44.25-.63,0-2.37.54-2.56l5.51.41,4.63-.23Z"/>
        <path class="cls-3" d="M141.93,118.3c-.03,1.66.07,3.32-.21,4.97l-2.46-.22c-.15-2.85.3-5.69.21-8.54-.02-.63-.41-1.85-.13-2.27s2.01-.11,2.58-.21c0,.5-.02,1.01,0,1.51.04,1.58.03,3.18,0,4.75Z"/>
      </g>
      <rect class="cls-12" x="25.97" y="286.08" width="2.67" height="11.23"/>
      <path class="cls-12" d="M25.97,263.62c.47.05,2.67-.21,2.67.32v10.91h-2.67v-11.23h0Z"/>
    </g>
  </g>
</svg>