<?xml version="1.0" encoding="UTF-8"?>
<svg id="Layer_2" data-name="Layer 2" xmlns="http://www.w3.org/2000/svg" viewBox="0 0 175.92 265.21">
  <defs>
    <style>
      .cls-1 {
        fill: #000000;
      }

      .cls-2, .cls-3 {
        fill: #000000;
      }

      .cls-4 {
        fill: #000000;
      }

      .cls-3 {
        font-family: LexendDeca-Regular, 'Lexend Deca';
        font-size: 42px;
      }
    </style>
  </defs>
  <g id="Layer_1-2" data-name="Layer 1">
    <path class="cls-2" d="M37.8,130.25l6.27-2.7-24.6-57.13,4.19-1.81,24.61,57.13,6.27-2.7-2.13,18.09-14.6-10.88ZM157.23,71.07l-53.85,109.25,6.12,3.02-15.14,10.12-1.2-18.17,6.12,3.01,53.85-109.25,4.09,2.02Z"/>
    <text class="cls-3" transform="translate(0 62.54)"><tspan x="0" y="0">1</tspan></text>
    <text class="cls-3" transform="translate(152.91 62.54)"><tspan x="0" y="0">2</tspan></text>
    <g id="Layer_1-2" data-name="Layer 1-2">
      <g>
        <path class="cls-4" d="M140.22,42.6c.32,0,.83-.05.93.18l-2.88,5.41c.93.12,2.31,1.77,3.01.82l4.46-9.08-3.88-.34c-.52,1.02-1.07,2.02-1.65,3.01h0Z"/>
        <path class="cls-1" d="M82.37,157.5l-3.41-8.51-2.85,1.32,4.38,10.55c.77-1.08,1.36-2.2,1.88-3.36h0Z"/>
        <path class="cls-4" d="M41.53,60.67l4.53,10.93-2.72,1.32-4.69-10.94c-.07-.54.09-.26.34-.37.36-.16,2.41-1.06,2.53-.94h.01Z"/>
        <path class="cls-4" d="M60.25,104.83l4.57,11.16-2.75,1.09-4.64-10.94c.06-.4,2.32-1.17,2.82-1.31Z"/>
        <path class="cls-4" d="M69.61,126.91l4.57,11.14-2.75,1.11-4.64-10.94c.05-.34,2.33-1.13,2.82-1.31Z"/>
        <path class="cls-4" d="M83,158.83l-5.29,10.85-2.77-1.21c1.71-3.66,3.56-7.38,5.63-10.79l2.43,1.15Z"/>
        <path class="cls-4" d="M50.89,82.75l4.54,10.95c.13.49-.09.26-.31.35-.79.34-1.63.58-2.41.95l-4.69-10.94c-.07-.54.1-.26.34-.37.33-.15,2.44-1.03,2.54-.94h-.01Z"/>
        <path class="cls-4" d="M33.85,50.83l-4.56-10.93c-.07-.47.07-.29.3-.41.27-.14,2.11-.86,2.23-.85.59.09,4.01,9.7,4.89,10.87,0,0-2.86,1.32-2.86,1.32Z"/>
        <path class="cls-4" d="M124.49,78.85l-5.29,10.83-2.77-1.19c1.79-3.64,3.64-7.33,5.64-10.82l2.41,1.18h0Z"/>
        <polygon class="cls-4" points="73.81 176.47 68.54 187.32 65.76 186.11 71.05 175.25 73.81 176.47"/>
        <path class="cls-4" d="M102.45,121.49l-5.29,10.83-2.76-1.2c1.76-3.65,3.6-7.35,5.64-10.81l2.41,1.18Z"/>
        <path class="cls-4" d="M135.48,57.67c.33.63-4.89,9.39-5.26,10.83-.12.07-2.33-1.08-2.54-1.31-.4-.43,4.7-9.25,5.15-10.51.27-.46,2.58.86,2.65.99Z"/>
        <path class="cls-4" d="M113.45,100.3c.32.52-4.94,9.41-5.27,10.84-.12.07-2.32-1.08-2.54-1.31-.43-.46,4.66-9.26,5.15-10.52.28-.43,2.59.86,2.67.99h-.01Z"/>
        <path class="cls-4" d="M91.42,142.94c-1.62,3.69-3.47,7.42-5.62,10.78-.45-.46-2.49-.98-2.36-1.69l5.31-10.07c.66-.52,1.94.84,2.66.98h.01Z"/>
        <polygon class="cls-4" points="64.36 195.73 59.06 206.59 56.28 205.38 61.58 194.53 64.36 195.73"/>
        <path class="cls-4" d="M54.34,214.92c.34.66-4.56,9.45-5.04,10.83-.22.13-2.8-.92-2.71-1.5l5.23-10.55c.38.3,2.39.99,2.51,1.22h.01Z"/>
        <path class="cls-4" d="M41.6,235.19l-2.96,6.25-.3-.03c.07.96.04,1.92-.11,2.88l2.31.2,3.8-7.74-2.74-1.56Z"/>
      </g>
      <polygon class="cls-4" points="34.03 254.36 28.73 265.21 25.96 264.01 31.25 253.16 34.03 254.36"/>
      <path class="cls-4" d="M24.94,30.02l-4.56-10.93c-.07-.47.07-.29.3-.41.27-.14,2.11-.86,2.23-.85.59.09,4.01,9.7,4.89,10.87l-2.86,1.32Z"/>
      <path class="cls-4" d="M152.89,21.87c.33.63-4.89,9.39-5.26,10.83-.12.07-2.33-1.08-2.54-1.31-.4-.43,4.7-9.25,5.15-10.51.27-.46,2.58.86,2.65.99Z"/>
      <path class="cls-4" d="M161.56,3.08c.33.63-4.89,9.39-5.26,10.83-.12.07-2.33-1.08-2.54-1.31-.4-.43,4.7-9.25,5.15-10.51.27-.46,2.58.86,2.65.99Z"/>
      <path class="cls-4" d="M15.4,12.18L10.84,1.25c-.07-.47.07-.29.3-.41C11.42.71,13.25-.02,13.37,0c.59.09,4.01,9.7,4.89,10.87l-2.86,1.32h0Z"/>
    </g>
  </g>
</svg>