<svg xmlns="http://www.w3.org/2000/svg" viewBox="0 0 509.11 45.2"><defs><style>.cls-1{fill:#272324;}.cls-2{fill:#322e2f;}.cls-3{fill:#292627;}.cls-4{fill:#2e2a2b;}.cls-5{fill:#292526;}.cls-6{fill:#282425;}.cls-7{fill:#2b2728;}.cls-8{fill:#282525;}.cls-9{fill:#2a2627;}.cls-10{fill:#272425;}.cls-11{fill:#fcfcfc;}.cls-12{fill:#fdfdfd;}</style></defs><title>Asset 1</title><g id="Layer_2" data-name="Layer 2"><g id="Layer_1-2" data-name="Layer 1"><path class="cls-1" d="M30.29,27.32l-.11-.09-.15,0c-.26-.14-.59-.11-.83-.3l-.12-.09-.15,0c-.26-.14-.58-.12-.83-.31L28,26.49l-.14,0c-.27-.14-.59-.11-.83-.3l-.12-.09-.15,0c-.26-.14-.59-.12-.83-.31l-.12-.09-.14,0c-.27-.14-.59-.11-.84-.3l-.11-.09-.15,0c-.26-.14-.59-.12-.83-.31L23.6,25l-.15,0c-.26-.14-.58-.11-.83-.3l-.12-.09-.14,0c-.27-.14-.6-.1-.83-.33h0c-.2-.2-.5-.16-.73-.29l-.15-.1-.18,0c-.22-.19-.52-.15-.77-.28l-.15-.1h-.18c-.22-.19-.55-.13-.77-.32l-.12-.09-.14,0c-.26-.14-.59-.11-.83-.3l-.12-.09-.14,0a2.16,2.16,0,0,1-.47-.26l-.15-.1-.18,0c-.22-.19-.53-.15-.76-.29l-.12-.11h-.15c-.27-.14-.59-.12-.84-.31l-.11-.09-.14,0a1.66,1.66,0,0,1-.47-.26l-.15-.09h-.18c-.22-.19-.53-.14-.77-.29L12.65,21h-.16c-.26-.14-.6-.11-.83-.34h0c-.2-.21-.51-.16-.73-.3l-.12-.11h-.15c-.27-.14-.6-.11-.83-.34h0c-.2-.21-.5-.16-.73-.3L9,19.57H8.84c-.26-.14-.6-.11-.83-.34H8c-.2-.21-.51-.16-.74-.3l-.11-.11H7c-.26-.14-.6-.11-.83-.34h0c-.2-.21-.51-.16-.73-.3l-.11-.11H5.19a2.16,2.16,0,0,1-.47-.26l-.15-.1-.17,0c-.23-.2-.57-.14-.77-.36h0c-.2-.21-.5-.15-.73-.3L2.79,17H2.64a1.66,1.66,0,0,1-.47-.26L2,16.67H1.84c-.22-.19-.56-.13-.77-.36h0c-.21-.2-.52-.15-.74-.3L0,15.72c.14-.27.09-.62.36-.84l0,0a.53.53,0,0,1,.71-.11.28.28,0,0,0,.33.08c.22.2.56.14.77.36h0c.2.21.51.15.73.3a.2.2,0,0,0,.27.1,1.81,1.81,0,0,1,.47.26.27.27,0,0,0,.32.08c.23.19.57.13.77.36h0c.2.2.5.15.73.3a.19.19,0,0,0,.26.1c.19,0,.31.17.47.25a.3.3,0,0,0,.33.09c.22.19.55.13.77.32a.18.18,0,0,0,.26.07,1.77,1.77,0,0,1,.47.25.28.28,0,0,0,.33.09c.22.19.55.13.77.32a.18.18,0,0,0,.26.07,1.77,1.77,0,0,1,.47.25.27.27,0,0,0,.32.09c.22.19.55.13.78.32a.17.17,0,0,0,.25.07c.19,0,.31.17.47.25a.27.27,0,0,0,.33.09c.22.19.55.13.77.32a.18.18,0,0,0,.26.07,1.77,1.77,0,0,1,.47.25.27.27,0,0,0,.33.09c.22.19.53.14.76.29a.2.2,0,0,0,.27.1c.27.14.59.11.83.3a.19.19,0,0,0,.26.07c.19,0,.31.17.47.25a.3.3,0,0,0,.33.09c.22.18.53.14.77.29a.19.19,0,0,0,.27.09c.26.14.58.12.83.31a.17.17,0,0,0,.26.06c.27.14.6.11.83.34h0c.21.21.51.16.74.29a.3.3,0,0,0,.33.09c.22.18.52.15.76.28a.28.28,0,0,0,.33.08c.22.2.55.13.78.33a.17.17,0,0,0,.26.06c.26.14.59.11.83.3a.2.2,0,0,0,.27.07c.26.14.58.11.83.3a.17.17,0,0,0,.26.06c.26.14.59.11.83.3a.2.2,0,0,0,.27.07c.26.14.58.11.83.3a.18.18,0,0,0,.26.06c.27.14.59.12.83.3a.19.19,0,0,0,.27.07c.26.14.59.11.83.3a.19.19,0,0,0,.27.06c.26.14.58.12.83.31a.18.18,0,0,0,.26.06c.26.14.61.1.82.36l0,0a.52.52,0,0,1,.12.71.26.26,0,0,0-.1.29C31,27.61,30.67,27.49,30.29,27.32Z"/><path class="cls-1" d="M32.74,30.18l-.14,0-.12.09c-.27.18-.51.2-.7-.1a.28.28,0,0,0,0-.25c.19-.22.14-.52.28-.76l.11-.64c.13-.26.11-.59.3-.83a.18.18,0,0,0,.06-.26c.13-.27.13-.57.26-.83a.28.28,0,0,0,.08-.33c.19-.22.15-.53.28-.77l.11-.63c.13-.32.25-.65.71-.53l0,0a1,1,0,0,0,.33.35l0,0a1.14,1.14,0,0,0,.35.34l0,0a4,4,0,0,0,.32.4v0a.9.9,0,0,1,.34.43l0,0a.61.61,0,0,1,.4.4l0,0a.54.54,0,0,1,.4.4l0,0c.3.11.19.51.46.65l0,0a1.1,1.1,0,0,0,.34.34l0,0a1.7,1.7,0,0,0,.34.37h0a1.59,1.59,0,0,1,.31.48v.13c-.12.36-.52.27-.74.47l-.17,0-.15.08c-.34.25-.81,0-1.14.31l-.18,0-.15.1c-.26.13-.56.13-.83.26l-.63.11C33.31,30,33,30.05,32.74,30.18Z"/><path class="cls-2" d="M253.07,45.18c-1.58,0-3.15-.07-4.72,0-1,0-1-.51-1-1.25s0-1.29,1-1.26c1.57.06,3.14,0,4.72,0A3,3,0,0,1,253.07,45.18Z"/><path class="cls-3" d="M452.49,20l-.64.11c-.26.12-.56.12-.82.25l-.64.11c-.26.12-.56.13-.82.26-.36-.06-.76,0-1-.33s-.06-.84-.3-1.2l0-.55c.18-.31.55-.25.81-.41l.64-.11c.26-.12.56-.12.82-.25l.64-.11c.26-.12.56-.12.82-.26l.64-.11c.27-.12.56-.12.82-.25l.69.34c.23.34,0,.8.29,1.12v.62a.71.71,0,0,1-.46.4l-.63.11C453.05,19.81,452.75,19.81,452.49,20Z"/><path class="cls-4" d="M273.69,42.31a4.18,4.18,0,0,1,.71,0c.45.06,1.1-.25,1.25.37a4.07,4.07,0,0,1,0,1.77c-.09.4-.6.3-.94.31l-4.68,0c-.54-2.26-.48-2.33,1.73-2.36A4.6,4.6,0,0,0,273.69,42.31Z"/><path class="cls-5" d="M17.5,5.3a.28.28,0,0,0,.33.08c.22.2.55.14.77.33a.18.18,0,0,0,.26.06c.27.15.59.11.83.31a1.13,1.13,0,0,1,.36.71c-.31.32-.05.8-.33,1.13a.17.17,0,0,0-.06.25c-.28.49-.67.28-1.05.18l-.12-.1h-.15c-.27-.14-.59-.11-.83-.3l-.12-.09-.15,0c-.26-.15-.6-.11-.83-.34h0c-.2-.21-.5-.16-.73-.29l-.16-.1h-.18c-.22-.19-.52-.14-.76-.29l-.11-.1h-.15a.67.67,0,0,1-.45-.4V5.84c.14-.27.11-.59.3-.83a.17.17,0,0,0,.06-.26.64.64,0,0,1,.45-.44h.15c.26.14.58.12.82.3a.19.19,0,0,0,.26.07,1.92,1.92,0,0,1,.47.25.3.3,0,0,0,.33.09C17,5.21,17.25,5.17,17.5,5.3Z"/><path class="cls-5" d="M3.23,1.72a.19.19,0,0,0,.07-.26A1.77,1.77,0,0,1,3.55,1,.3.3,0,0,0,3.64.66c.17-.25.28-.6.7-.47a.21.21,0,0,0,.28.1c.26.15.59.11.83.34h0c.2.21.51.16.73.3a.19.19,0,0,0,.27.1,2.09,2.09,0,0,1,.46.26.3.3,0,0,0,.33.09c.22.19.55.13.77.32a.19.19,0,0,0,.26.07A1.77,1.77,0,0,1,8.73,2a.28.28,0,0,0,.32.09.77.77,0,0,1,.38.45l0,.08,0,.08c-.13.26-.14.56-.26.82a.29.29,0,0,0-.08.34c-.21.21-.12.61-.47.73H8.48A3.1,3.1,0,0,1,8,4.34l-.15-.09H7.68c-.22-.2-.55-.13-.77-.33L6.8,3.84l-.15,0a1.89,1.89,0,0,1-.46-.26L6,3.51l-.18,0c-.23-.2-.57-.14-.77-.36h0c-.2-.21-.5-.15-.73-.3l-.11-.11H4.09c-.26-.14-.61-.1-.82-.36l0,0A.47.47,0,0,1,3.23,1.72Z"/><path class="cls-5" d="M462.42,17.41l-.18,0-.15.08c-.34.25-.81,0-1.14.31l-.17,0-.16.08c-.37.15-.75.28-1.06-.11a.27.27,0,0,0-.07-.3c-.24-.36-.05-.83-.28-1.19l.33-.65c.32-.29.81,0,1.13-.33a.28.28,0,0,0,.33-.09c.27-.12.57-.12.83-.25l.64-.11c.26-.12.56-.13.82-.26l.64-.11c.27-.12.57-.12.84-.25l.26.33c.29.32,0,.81.33,1.13,0,.53-.09,1-.72,1.13-.26.12-.56.12-.82.25l-.64.11C462.94,17.26,462.63,17.22,462.42,17.41Z"/><path class="cls-6" d="M49.28,15.56a.33.33,0,0,0,.33.06c.22.18.52.14.76.27L51,16c.26.14.58.12.83.29a.3.3,0,0,0,.31.06,1.12,1.12,0,0,1,.41.4.29.29,0,0,0,0,.27c-.3.32-.06.8-.31,1.13a.29.29,0,0,0-.06.32.8.8,0,0,1-.45.38l-.08-.05-.08.05c-.26-.14-.58-.12-.83-.29l-.15-.08-.18,0c-.22-.19-.52-.15-.76-.28L49,18.12c-.26-.14-.57-.12-.83-.29L48,17.75l-.17,0c-.22-.19-.53-.15-.77-.28L47,17.4h-.18c-.24-.18-.62-.27-.44-.71a.31.31,0,0,0,.05-.33c.3-.32,0-.81.33-1.13l.26-.33c.27.13.58.13.85.25l.63.11C48.71,15.41,49,15.39,49.28,15.56Z"/><path class="cls-7" d="M230.41,44.81h-4.27c-.42-.4-1.1.1-1.48-.42.06-2.07.06-2.07,2.1-2.07h1.06a2.11,2.11,0,0,0,1.05.15C230.88,42.51,230.94,42.6,230.41,44.81Z"/><path class="cls-5" d="M104.08,28.71l.63.08c.37.24.83.05,1.19.29l.64.08c.79.15,1.25.52.9,1.41a1.73,1.73,0,0,0-.11,1c-.16.37-.41.31-.69.16l-.63-.07c-.36-.24-.83-.05-1.19-.29l-.63-.08c-.37-.22-.82-.07-1.19-.25l-.7-.09c-.71-.24-1.26-.56-.81-1.44l.05-.68a1.12,1.12,0,0,1,.41-.4l.94,0C103.25,28.66,103.72,28.47,104.08,28.71Z"/><path class="cls-5" d="M25.9,8.27a.19.19,0,0,0,.27.06c.26.14.58.11.83.3a.2.2,0,0,0,.27.07c.26.14.58.11.82.3a.19.19,0,0,0,.27.06c.26.14.59.12.83.3a.2.2,0,0,0,.27.07c.26.14.58.11.83.3a.17.17,0,0,0,.24.06c.49.29.29.68.16,1.05a.31.31,0,0,0-.05.33c-.34.29.07,1-.56,1.1h0A3.58,3.58,0,0,1,29.2,12l-.12-.09-.15,0c-.26-.14-.58-.12-.83-.3L28,11.52l-.15,0c-.26-.14-.58-.11-.82-.3l-.12-.09-.15,0c-.26-.14-.59-.12-.83-.3l-.12-.09-.15,0c-.26-.15-.61-.1-.82-.36l0,0a.89.89,0,0,1-.08-1.08.33.33,0,0,0,.06-.33c.19-.22.13-.55.35-.77h0A.52.52,0,0,1,25.9,8.27Z"/><path class="cls-6" d="M505.67,2.12a.19.19,0,0,0,.26-.07c.25-.18.57-.16.83-.3l.64-.11c.27-.12.57-.12.84-.25l.3.33c.15.26.14.57.27.83s.08.42.11.64c.12.42-.22.53-.48.7h-.18l-.15.1c-.24.13-.54.09-.76.28h-.18l-.15.09c-.25.13-.55.1-.77.28l-.17,0-.16.08c-.25.16-.56.15-.82.29l-.15,0-.12.09c-.25.19-.57.16-.83.3l-.56,0c-.3-.16-.22-.54-.42-.75a.28.28,0,0,0-.09-.34c-.12-.26-.11-.56-.25-.82V3.29c.14-.36.53-.28.79-.44a.19.19,0,0,0,.27-.06c.24-.19.57-.17.83-.31a.19.19,0,0,0,.27-.06C505.08,2.23,505.4,2.26,505.67,2.12Z"/><path class="cls-6" d="M69.74,21a.33.33,0,0,0,.33.06c.32.29.79,0,1.13.31a.31.31,0,0,0,.33.05c.32.3.8.05,1.13.31a.31.31,0,0,0,.33.06c.32.3.81,0,1.14.33l.32.64c-.23.37,0,.84-.28,1.2a.28.28,0,0,0-.07.29c-.31.4-.69.27-1.06.12l-.64-.08c-.26-.13-.56-.13-.82-.26L70.94,24c-.26-.13-.56-.13-.82-.25l-.64-.11c-.26-.13-.56-.14-.82-.26l-.14-.09h-.16c-.3-.19-.28-.44-.12-.7a.29.29,0,0,0,.06-.33c.3-.32,0-.82.35-1.14h0A1,1,0,0,1,69.74,21Z"/><path class="cls-5" d="M472.72,12a.32.32,0,0,0,.34-.05c.33-.26.8,0,1.13-.32a.28.28,0,0,0,.33-.08c.26-.12.56-.13.82-.26l.65.33c.29.33,0,.82.33,1.14v.62a.7.7,0,0,1-.45.39l-.63.11c-.24.13-.54.09-.76.28l-.17,0-.16.08c-.25.16-.56.15-.83.29l-.63.1c-.27.13-.57.13-.83.26l-.14,0-.12.1c-.38.17-.75.29-1.07-.11a.28.28,0,0,0-.07-.29c-.25-.34,0-.81-.31-1.13a1.13,1.13,0,0,1,.36-.71c.24-.2.56-.17.82-.31l.64-.11C472.2,12.11,472.51,12.15,472.72,12Z"/><path class="cls-5" d="M404.39,30.14a.25.25,0,0,0-.09-.3c-.18-.38,0-.82-.26-1.19,0-.46.4-.54.71-.7s.8,0,1.12-.28l.7-.09c.38-.18.83,0,1.19-.25l.63-.08c.37-.24.84,0,1.2-.29h.14c.51.25.16.83.45,1.16-.09.54.21,1.28-.7,1.4-.36.24-.83.05-1.19.29l-.64.08c-.36.24-.83.05-1.19.29a1.57,1.57,0,0,0-1,.11C405.08,30.38,404.7,30.54,404.39,30.14Z"/><path class="cls-5" d="M351,39l-1.07.05c-.49.15-1,.33-1.43-.11a2.89,2.89,0,0,0-.09-1.4c-.12-.26-.15-.51.14-.7a.25.25,0,0,0,.3-.09c.5-.23,1.07,0,1.56-.26a2.78,2.78,0,0,0,1.37-.11c.49-.22,1.06,0,1.55-.25.84-.13.93.49,1.07,1.07s.16,1.12-.48,1.43l-1.06.06C352.28,39,351.57,38.57,351,39Z"/><path class="cls-6" d="M430.94,25.06l-.64.11c-.35.2-.8,0-1.13.28l-.17,0-.16.07c-.36.24-.83.06-1.19.29l-.63.08c-.74.11-.43-.61-.69-.87a1.74,1.74,0,0,0-.11-1c-.06-.7.61-.44.9-.68l.64-.11c.35-.2.8,0,1.13-.28a.31.31,0,0,0,.33-.05c.36-.24.83-.05,1.19-.29l.64-.11c.37-.1.76-.25,1.06.15,0,.22.07.44.1.66.18.38,0,.84.25,1.21l-.33.26C431.78,25,431.3,24.82,430.94,25.06Z"/><path class="cls-8" d="M481.1,10.44V9.83c.16-.3.53-.23.75-.43a.28.28,0,0,0,.33-.08c.27-.12.57-.13.83-.26a.18.18,0,0,0,.26-.06c.33-.28.81,0,1.14-.33a.28.28,0,0,0,.33-.08c.24-.13.54-.1.76-.28a.31.31,0,0,0,.33-.06c.38-.15.75-.28,1.07.12a.26.26,0,0,0,.06.29c.26.34,0,.81.31,1.14a1.07,1.07,0,0,1-.35.7c-.24.2-.57.17-.83.31l-.64.11c-.24.13-.54.09-.76.28l-.17,0-.16.07c-.25.17-.57.15-.83.29l-.15,0-.11.09c-.33.27-.82,0-1.14.32a1.08,1.08,0,0,1-.71-.35C481.14,11.25,481.41,10.76,481.1,10.44Z"/><path class="cls-6" d="M437.29,22.07v-.86c.24-.53.82-.17,1.16-.46l.64-.11c.26-.12.56-.12.82-.25l.64-.11c.35-.2.8,0,1.12-.28a.29.29,0,0,0,.33-.06c.38-.15.75-.28,1.07.12a.27.27,0,0,0,.1.3c.2.35,0,.8.27,1.13a1.07,1.07,0,0,1-.35.7c-.32.3-.81,0-1.13.34l-.18,0-.15.08c-.36.24-.83.05-1.2.29l-.63.11c-.27.12-.57.12-.83.25l-.63.11a.53.53,0,0,1-.71-.11l0,0C437.28,22.94,437.54,22.43,437.29,22.07Z"/><path class="cls-6" d="M36.14,14.21l-.14-.1h-.17a1.12,1.12,0,0,1-.41-.4.32.32,0,0,0,0-.27c.3-.33,0-.8.31-1.13a.3.3,0,0,0,.06-.31,1.28,1.28,0,0,1,1.44-.09.18.18,0,0,0,.26.06c.27.14.59.12.83.31a.19.19,0,0,0,.27.06c.26.14.58.12.83.29a.31.31,0,0,0,.33,0c.22.19.52.15.76.28a.3.3,0,0,0,.33.09c.22.2.59.12.75.42v.62c-.3.32,0,.81-.33,1.13a1.08,1.08,0,0,1-.71.35c-.22-.18-.52-.15-.76-.28l-.64-.1c-.26-.15-.59-.12-.83-.31l-.12-.09-.15,0c-.26-.14-.57-.12-.82-.29l-.16-.07-.17,0C36.69,14.3,36.38,14.34,36.14,14.21Z"/><path class="cls-6" d="M118.39,33.49l-.3.34c-.49-.29-1.09,0-1.58-.29l-.63-.08c-.37-.22-.82-.07-1.19-.25l-.7-.09c-.4-.42-1.13.15-1.46-.48v-.86c.36-.42-.22-1.61,1-1.27l.7.09c.45.36,1,0,1.5.31l.63.07c.37.23.82.07,1.19.26.57.14,1.2.22,1.07,1.06C118.43,32.67,118.6,33.12,118.39,33.49Z"/><path class="cls-5" d="M150.12,38.66l-1.06-.06c-.45-.35-1,0-1.49-.28a3,3,0,0,0-1.35-.11c-.49-.28-.29-.67-.16-1.05s-.27-1.34.72-1.45c.45.35,1,0,1.5.28a3,3,0,0,0,1.36.11c.49.28,1.06,0,1.56.25l.66.1c.45.43.24.94.15,1.43l-.09.66A1.92,1.92,0,0,1,150.12,38.66Z"/><path class="cls-6" d="M494,5.77a.18.18,0,0,0,.26-.06c.33-.28.81,0,1.14-.33a.28.28,0,0,0,.33-.08c.24-.13.54-.09.76-.28a.3.3,0,0,0,.34-.09c.55-.22.86,0,1,.54l.11.64c.13.27.13.57.25.84l-.32.26c-.24.2-.57.17-.83.31l-.64.11c-.24.13-.54.09-.76.28h-.18l-.15.1c-.25.13-.55.09-.77.28l-.17,0-.16.08c-.25.17-.56.15-.83.29l-.14,0-.12.09a.47.47,0,0,1-.71-.06l0,0c-.38-.29-.07-.81-.39-1.12a.28.28,0,0,0-.08-.33.6.6,0,0,1,.07-.73h0c.23-.21.57-.18.83-.32a.2.2,0,0,0,.27-.07C493.39,5.89,493.71,5.91,494,5.77Z"/><path class="cls-5" d="M415.4,25.85a.28.28,0,0,0,.3-.06c.34-.26.81,0,1.13-.31l.7-.09c.35-.2.8,0,1.13-.28l.7-.08c.35-.2.8,0,1.13-.28a.27.27,0,0,0,.25,0,.72.72,0,0,1,.4.45,1.64,1.64,0,0,0,.11,1c.24.53-.05.83-.48,1.07l-.7.08c-.35.2-.8,0-1.13.28l-.17,0-.16.08c-.36.24-.83.05-1.19.28l-.63.08c-.5.13-1,.36-1.42-.16a1.57,1.57,0,0,0-.11-1C415.16,26.54,415,26.16,415.4,25.85Z"/><path class="cls-5" d="M128.55,33.1l.7,0c.42.25.75.53.44,1.08l-.05,1a1.15,1.15,0,0,1-.41.41l-.13,0-.13,0c-.45-.36-1,0-1.5-.31l-.7-.06c-.45-.34-1,0-1.49-.27a1.57,1.57,0,0,0-1-.11c-.74-.26-.73-.81-.54-1.42s.27-1.22,1.13-1.09c.44.36,1,0,1.49.31l.7.06C127.5,33.15,128.1,32.79,128.55,33.1Z"/><path class="cls-9" d="M163.24,38c0,.57,0,1.14,0,1.71-.25.42-.53.75-1.08.45L160.81,40c-.61-.33-1.32,0-1.92-.29l-1.06,0c-.94-.56-.58-1.39-.47-2.17.28-.34.68-.3,1-.34.49.29,1.06,0,1.56.26a2.89,2.89,0,0,0,1.43.09C161.94,38,162.73,37.39,163.24,38Z"/><path class="cls-5" d="M305.27,43.33c-1.64-.06-1.64-.06-1.7-2.08.18-.31.55-.25.81-.4a9.22,9.22,0,0,0,2.46-.11,5,5,0,0,1,2.55.07h0a2.44,2.44,0,0,1-.08,2.17l-1,.06C307.31,43.41,306.25,42.94,305.27,43.33Z"/><path class="cls-6" d="M91.66,26.16a.31.31,0,0,0,.33.05c.32.29.78.08,1.12.28l.7.09c.33.28.78.07,1.13.28l.64.1c.26.26,1-.05.87.69l0,.69c-.33.31,0,.86-.43,1.12h-.92c-.36-.24-.83-.05-1.19-.29l-.63-.08c-.26-.13-.56-.13-.83-.26l-.69-.08c-.33-.3-.79-.07-1.13-.3l-.34-.29c.29-.49,0-1.09.29-1.58a.28.28,0,0,0,.06-.3C90.91,25.87,91.28,26,91.66,26.16Z"/><path class="cls-5" d="M319.58,42.26a5.38,5.38,0,0,0-1.79.05c-.87.36-1.82-.08-2.68.29-.1-.36-.21-.71-.31-1.07s-.3-1,.14-1.43l1.4-.06c.83-.38,1.76.12,2.59-.31,1.61.08,1.61.08,1.82,1.45C321.2,42.46,319.93,41.85,319.58,42.26Z"/><path class="cls-5" d="M196.94,41.53a2.89,2.89,0,0,0-.08,1.43,6.36,6.36,0,0,1-3.27.08L191.5,43c-.91-.38-.69-1.09-.51-1.78.12-.91.86-.61,1.4-.7.85.36,1.78,0,2.65.26a4.35,4.35,0,0,0,1.76.09C197.09,41,197.06,41.27,196.94,41.53Z"/><path class="cls-6" d="M83.25,24.3l.64.11c.26.13.56.13.82.25s.72.28.73.76c-.39.43.06,1.08-.39,1.49l0,0c-.32.34-.7.23-1.07.12l-.64-.11c-.36-.24-.83-.05-1.19-.29L82,26.52l-.17,0c-.32-.29-.8-.05-1.13-.31l-.63-.07c-.27-.15-.63-.09-.81-.41v-.61c.39-.42-.09-1.09.41-1.48l0,0A.21.21,0,0,1,80,23.6l.69,0c.33.3.8.06,1.13.31a.29.29,0,0,0,.33.06C82.45,24.31,82.9,24.1,83.25,24.3Z"/><path class="cls-6" d="M135.49,34.16a1.64,1.64,0,0,0,1,.11c.49.3,1.08,0,1.56.29l1,.08c.48.3,1.09,0,1.56.31a1.07,1.07,0,0,1,.35.7c-.39.61.24,2.14-1.43,1.58a1.71,1.71,0,0,0-1.07-.09c-.44-.36-1,0-1.49-.31l-1-.08c-.35-.27-.89,0-1.18-.4l0-.92C135.17,35.08,134.58,34.22,135.49,34.16Z"/><path class="cls-10" d="M61,18.82l.63.11c.27.13.57.13.83.25a.28.28,0,0,0,.33.09c.22.2.62.11.74.47v.14c-.25.36,0,.83-.29,1.2a.26.26,0,0,0-.06.31,1.1,1.1,0,0,1-.4.4l-.14,0-.13,0c-.32-.3-.81,0-1.13-.32l-.12-.09-.15,0c-.26-.13-.56-.14-.83-.26L59.62,21c-.26-.13-.56-.13-.83-.26l-.15-.09h-.18c-.31-.31-.83,0-1.12-.39l0,0a.48.48,0,0,1-.07-.71.29.29,0,0,0,.05-.32c.3-.33,0-.82.35-1.14h0a.54.54,0,0,1,.72,0,.31.31,0,0,0,.33.05c.32.3.81,0,1.14.33a.18.18,0,0,0,.26.06C60.4,18.69,60.7,18.69,61,18.82Z"/><path class="cls-6" d="M382.11,34.16a.28.28,0,0,0-.06-.3,2.35,2.35,0,0,1,0-1.82h0c.34-.3.83-.08,1.2-.33a1.57,1.57,0,0,0,1-.11c.37-.18.82,0,1.19-.25a1.72,1.72,0,0,0,1-.11c.61-.19,1.16-.2,1.41.54l.08,1c.16.26.18.51-.11.7h-.16l-.14.07c-.45.31-1.05,0-1.5.31l-.69.06c-.46.31-1.05,0-1.5.31l-.69.05C382.8,34.42,382.43,34.55,382.11,34.16Z"/><path class="cls-5" d="M213.35,44v-.14c.39-.59-.16-1.37.4-1.91h3.84c.59.39,1.36-.15,1.91.41l0,.92c-.27.34,0,.88-.4,1.17h-2.8C215.36,43.92,214.23,44.72,213.35,44Z"/><path class="cls-6" d="M394.47,32.39l-.7.06c-.74.11-.43-.61-.69-.88a1.64,1.64,0,0,0-.1-1c0-.91.91-.29,1.2-.71l.7-.08c.38-.19.83,0,1.19-.26l.63-.08c.46-.31,1.06,0,1.5-.31.48,0,.61.39.76.73.14.68.33,1.37-.48,1.8l-.69.09c-.38.18-.83,0-1.19.25l-.64.08C395.51,32.39,394.91,32,394.47,32.39Z"/><path class="cls-6" d="M185.62,41.9a.25.25,0,0,0-.09.3c-.31.4-.69.24-1.07.14a4.32,4.32,0,0,0-1.79-.08c-.82-.45-1.77.09-2.6-.34-.58-.63-.18-1.43-.34-2.13.57-.46,1.18-.26,1.79-.11l1.73.07c.73.38,1.58-.1,2.3.33h0A2.65,2.65,0,0,1,185.62,41.9Z"/><path class="cls-9" d="M284.22,41.92h2.45c.31.18.25.55.4.81V44c-.41.51-1.08.06-1.54.41h-4.21c-.54-2.22-.48-2.31,1.69-2.35C283.42,42.08,283.85,42.19,284.22,41.92Z"/><path class="cls-6" d="M362.26,37.48a3,3,0,0,0-1.37.11c-.37.11-.75.23-1.07-.11l0,0a2.44,2.44,0,0,1,0-2.17l.34-.08c.47-.25,1,.07,1.49-.28a1.71,1.71,0,0,0,1.07-.09c.46-.25,1,.07,1.49-.28h1c.31.18.25.55.4.81v1.29c-.18.31-.54.25-.81.4l-1,.08C363.33,37.49,362.74,37.19,362.26,37.48Z"/><path class="cls-6" d="M327.61,41.53h-1.34c-.32-1-.82-2.07.76-2.5a4.58,4.58,0,0,0,1.73-.11c.62-.25,1.31.06,1.92-.26h.92c.3.16.22.53.42.75v1.35c-.16.3-.54.22-.75.42a3.62,3.62,0,0,0-1.43.05C329.14,41.58,328.31,41.11,327.61,41.53Z"/><path class="cls-8" d="M202.43,41.2H203c1.2.45,2.49-.08,3.69.31,1.39.24,1.39.24,1.45,2.16a5.84,5.84,0,0,1-3.26.11,10.92,10.92,0,0,0-2.49-.06A2.84,2.84,0,0,1,202.43,41.2Z"/><path class="cls-6" d="M337.93,37.9a2.89,2.89,0,0,0,1.43-.08c.59-.28,1.28.1,1.85-.28a2.89,2.89,0,0,0,1.43-.09c1.1.33.16,1.41.71,1.94a.25.25,0,0,0,0,.25c-.41.51-1.08.06-1.54.4l-1.36.08c-.61.32-1.32,0-1.93.29h-.92c-.44-.26-.1-.81-.42-1.11,0-.33,0-.66,0-1S337.71,38.1,337.93,37.9Z"/><path class="cls-6" d="M372.18,36h-1c-.3-.16-.22-.54-.42-.75V33.94c.26-.44.82-.1,1.12-.42l.69-.06c.49-.29,1.08,0,1.56-.29a1.66,1.66,0,0,0,1-.1c.49-.09,1-.31,1.42.14a.27.27,0,0,0,.1.3,2.28,2.28,0,0,1-.11,1.81l-.17,0-.16.08c-.49.29-1.08,0-1.56.29a1.6,1.6,0,0,0-1,.11C373.21,36,372.63,35.7,372.18,36Z"/><path class="cls-6" d="M168.75,40.83c-.38-.28-.28-.7-.36-1.07.17-1.06.61-1.7,1.81-1.18l1.36.08c.61.31,1.31,0,1.92.25.36.23,1,0,1.07.7,0,1.45-.59,2.19-2.15,1.6a3.58,3.58,0,0,0-1.42-.05C170.28,40.73,169.45,41.24,168.75,40.83Z"/><path class="cls-5" d="M293.21,44.06l-.55,0c-.3-.16-.23-.54-.42-.75,0-.31.05-.61,0-.91,0-.65.3-.84.89-.83s1.32-.06,2-.09a2.26,2.26,0,0,1,1.06-.14c2.24,0,2.32.08,1.78,2.35a2.89,2.89,0,0,0-1.4.09C295.48,44.11,294.32,43.68,293.21,44.06Z"/><path class="cls-7" d="M236,44.76l0-.72c.06-1.33.06-1.33,1.42-1.35s2.87,0,4.3,0c.55,2.27.5,2.39-1.71,2.33C238.67,45,237.3,45.3,236,44.76Z"/><path class="cls-7" d="M258.68,42.66l4.31,0c1.36,0,1.36,0,1.41,1.35l0,.72a12.85,12.85,0,0,1-5.27.16C257.8,44.76,258.48,43.51,258.68,42.66Z"/><path class="cls-11" d="M258.68,42.66c-.28,2.23-.28,2.26,2,2.23a18.28,18.28,0,0,0,3.77-.13c-.24.46-.67.44-1.1.44h-3.27C258.08,45.18,257.74,44.55,258.68,42.66Z"/><path class="cls-11" d="M236,44.76a40.41,40.41,0,0,0,5,.14c.6,0,.92-.17.85-.81-.05-.48-.09-1-.14-1.43.75.55.4,1.31.37,2a.59.59,0,0,1-.65.51c-1.69,0-3.39,0-5.08-.07C236.24,45.1,236.11,44.88,236,44.76Z"/><path class="cls-11" d="M273.69,42.31c-.77.53-1.63.2-2.44.24-1.4.08-1.41,0-1.38,1.37a6.85,6.85,0,0,0,.14.89c-.74-.55-.43-1.31-.37-2s.56-.55,1-.55Z"/><path class="cls-11" d="M284.22,41.92c-.56.51-1.25.3-1.87.26-1-.06-1.29.3-1.16,1.21.06.35.1.7.14,1-.74-.53-.4-1.29-.38-2,0-.42.4-.56.78-.56C282.56,41.91,283.39,41.92,284.22,41.92Z"/><path class="cls-11" d="M298,43.71a6.67,6.67,0,0,0,.13-.88c0-1.34,0-1.34-1.36-1.35l-1.61,0c.8-.61,1.73-.25,2.6-.29a.55.55,0,0,1,.62.52C298.38,42.41,298.73,43.17,298,43.71Z"/><path class="cls-11" d="M230.41,44.81c.05-.42.08-.83.14-1.25.11-.79-.24-1-1-1-.57,0-1.2.23-1.72-.24.42,0,.84,0,1.26,0C231,42.28,231.36,42.92,230.41,44.81Z"/><path class="cls-11" d="M172.4,41.21c.18,0,.36,0,.54,0,.92.16,1.51,0,1.38-1.16,0-.14.15-.3.23-.45a1.09,1.09,0,0,1,0,.18C174.57,41.7,174.31,41.87,172.4,41.21Z"/><path class="cls-11" d="M206.73,41.5c-1.22-.17-2.5.28-3.69-.31C204.27,41.31,205.55,40.83,206.73,41.5Z"/><path class="cls-11" d="M193.59,43a17.85,17.85,0,0,0,3.27-.08A3.22,3.22,0,0,1,193.59,43Z"/><path class="cls-11" d="M204.92,43.77a14.24,14.24,0,0,0,3.26-.11A3.09,3.09,0,0,1,204.92,43.77Z"/><path class="cls-11" d="M327,39c-1.28.52-.93,1.54-.76,2.5C325.44,39.9,325.63,39.27,327,39Z"/><path class="cls-11" d="M293.21,44.06c1.09-.57,2.26-.13,3.38-.26C295.5,44.38,294.34,44,293.21,44.06Z"/><path class="cls-11" d="M305.27,43.33c1-.55,2-.12,3-.29C307.34,43.7,306.28,43.26,305.27,43.33Z"/><path class="cls-11" d="M170.2,38.58a1.32,1.32,0,0,0-1.81,1.18C168.5,38.08,168.59,38,170.2,38.58Z"/><path class="cls-11" d="M139.53,37.23c.69.05,1.31,0,1.17-1a.66.66,0,0,1,.26-.61c0,.24,0,.49,0,.73C140.89,37.58,140.84,37.6,139.53,37.23Z"/><path class="cls-11" d="M213.35,44c.92.48,2-.18,2.93.47C215.3,44.28,214.2,44.92,213.35,44Z"/><path class="cls-11" d="M202.43,41.2a5.08,5.08,0,0,0,0,2.51A1.75,1.75,0,0,1,202.43,41.2Z"/><path class="cls-11" d="M180.07,41.92c.86.2,1.79-.23,2.6.34C181.8,42.16,180.87,42.59,180.07,41.92Z"/><path class="cls-11" d="M315.11,42.6c.85-.49,1.79-.17,2.68-.29C317,42.93,316,42.55,315.11,42.6Z"/><path class="cls-11" d="M253.07,45.18a5.12,5.12,0,0,0,0-2.52A1.79,1.79,0,0,1,253.07,45.18Z"/><path class="cls-11" d="M343.35,39.39c-.37-.3-.27-.72-.29-1.11s0-.7-.42-.83c.44-.32.67-.12.7.33S343.35,38.85,343.35,39.39Z"/><path class="cls-11" d="M157.36,37.53c.08.74-.29,1.57.47,2.17C156.91,39.2,156.84,38.86,157.36,37.53Z"/><path class="cls-11" d="M195,40.74c-.88-.11-1.81.29-2.65-.26C193.27,40.53,194.2,40.17,195,40.74Z"/><path class="cls-12" d="M318.93,39.73c-.81.55-1.74.16-2.59.31C317.14,39.42,318.06,39.82,318.93,39.73Z"/><path class="cls-12" d="M309.39,40.81l-2.55-.07A2.26,2.26,0,0,1,309.39,40.81Z"/><path class="cls-11" d="M185.55,40.08c-.75-.24-1.6.22-2.3-.33C184,39.81,184.86,39.41,185.55,40.08Z"/><path class="cls-11" d="M113.57,30.51c-.44,0-.85,0-.79.65a.64.64,0,0,1-.26.62,6.21,6.21,0,0,1,0-.86C112.61,30.16,113,30.05,113.57,30.51Z"/><path class="cls-11" d="M327.61,41.53c.69-.54,1.49-.19,2.23-.32C329.17,41.81,328.36,41.45,327.61,41.53Z"/><path class="cls-12" d="M359.84,35.34a5.29,5.29,0,0,0,0,2.17A1.52,1.52,0,0,1,359.84,35.34Z"/><path class="cls-11" d="M319.58,42.26c.28-.49,1.44,0,1.17-1.08.49.54.42.93-.32,1.07A4.83,4.83,0,0,1,319.58,42.26Z"/><path class="cls-11" d="M168.75,40.83c.73.16,1.55-.21,2.23.33C170.23,41.08,169.41,41.46,168.75,40.83Z"/><path class="cls-12" d="M398.48,31.66c.72-.45.4-1.18.48-1.8C399.46,31.05,399.41,31.24,398.48,31.66Z"/><path class="cls-11" d="M101.49,29.49a1.15,1.15,0,0,0,.81,1.44C101,30.76,101,30.67,101.49,29.49Z"/><path class="cls-11" d="M107.44,30.57c.22-.8-.3-1.14-.9-1.41C107.84,29.26,107.89,29.34,107.44,30.57Z"/><path class="cls-11" d="M309.31,43a5.29,5.29,0,0,0,.08-2.17A1.53,1.53,0,0,1,309.31,43Z"/><path class="cls-11" d="M191,41.18c0,.63-.25,1.36.51,1.78C190.51,42.57,190.46,42.39,191,41.18Z"/><path class="cls-12" d="M376.57,35.32a7.84,7.84,0,0,0,.11-1.81A1.26,1.26,0,0,1,376.57,35.32Z"/><path class="cls-11" d="M123.74,33.51c0,.54-.08,1.11.54,1.42C123.31,34.63,123.28,34.56,123.74,33.51Z"/><path class="cls-11" d="M219.5,42.35c-.59-.34-1.35.12-1.91-.41C218.24,42,219,41.6,219.5,42.35Z"/><path class="cls-11" d="M213.75,41.93c-.33.59.13,1.35-.4,1.91C213.41,43.18,213,42.43,213.75,41.93Z"/><path class="cls-12" d="M330.68,38.65c-.58.49-1.28.18-1.92.26C329.34,38.4,330,38.68,330.68,38.65Z"/><path class="cls-11" d="M173.48,38.91c-.64-.07-1.33.24-1.92-.25C172.21,38.68,172.9,38.4,173.48,38.91Z"/><path class="cls-12" d="M387.89,31.78c-.3-.62-.88-.52-1.41-.54C387.53,30.79,387.6,30.81,387.89,31.78Z"/><path class="cls-12" d="M394.18,29.86c-.26.49-1.06,0-1.2.71-.33-.43-.15-.65.31-.7A8.84,8.84,0,0,1,394.18,29.86Z"/><path class="cls-12" d="M382.09,32c0,.61,0,1.22,0,1.82A1.27,1.27,0,0,1,382.09,32Z"/><path class="cls-11" d="M338.51,40.41c.59-.48,1.29-.19,1.93-.29C339.86,40.68,339.16,40.38,338.51,40.41Z"/><path class="cls-11" d="M185.62,41.9l-.07-1.82A1.32,1.32,0,0,1,185.62,41.9Z"/><path class="cls-11" d="M158.89,39.75c.64.11,1.33-.19,1.92.29C160.16,40,159.46,40.31,158.89,39.75Z"/><path class="cls-11" d="M150.12,38.66a5.46,5.46,0,0,0,1.8-.12C151.36,39.23,150.75,39.1,150.12,38.66Z"/><path class="cls-11" d="M181.52,39.68a5.14,5.14,0,0,0-1.79.11C180.28,39.1,180.89,39.23,181.52,39.68Z"/><path class="cls-12" d="M341.21,37.54c-.56.49-1.23.22-1.85.28C339.91,37.31,340.59,37.59,341.21,37.54Z"/><path class="cls-11" d="M163.24,38c-.57-.31-1.32.11-1.84-.42C162,37.62,162.77,37.22,163.24,38Z"/><path class="cls-12" d="M353.92,38.6c.55-.34.46-.91.48-1.43C354.84,38.12,354.79,38.29,353.92,38.6Z"/><path class="cls-12" d="M351,39c.55-.48,1.23-.23,1.86-.31C352.31,39.21,351.62,38.91,351,39Z"/><path class="cls-11" d="M135.49,34.16c-.71.17-.17,1-.68,1.27a5.68,5.68,0,0,1,0-1C134.86,34,135.11,33.86,135.49,34.16Z"/><path class="cls-12" d="M427.12,23.31c-.18.38-.84.14-.9.68C426.07,23.29,426.07,23.29,427.12,23.31Z"/><path class="cls-11" d="M79.67,23.66c-.21.47,0,1.07-.41,1.48C79.3,24.62,79,24,79.67,23.66Z"/><path class="cls-12" d="M426.33,25c.36.18.2.78.69.87C425.88,26.3,426.44,25.38,426.33,25Z"/><path class="cls-11" d="M85.05,26.91c.18-.48-.07-1.07.39-1.49C85.4,25.94,85.65,26.54,85.05,26.91Z"/><path class="cls-12" d="M420.77,27.28a1.21,1.21,0,0,0,.48-1.07C421.75,26.86,421.55,27.2,420.77,27.28Z"/><path class="cls-11" d="M90.53,26.57a2.49,2.49,0,0,1-.29,1.58C90.24,27.6,90,27,90.53,26.57Z"/><path class="cls-11" d="M96.45,27.65c-.09-.49-.69-.32-.87-.69C96,27.08,96.88,26.51,96.45,27.65Z"/><path class="cls-12" d="M415.37,27.9a3,3,0,0,0,1.42.16C416.26,28.5,415.76,28.62,415.37,27.9Z"/><path class="cls-12" d="M398.2,29.13c-.42.45-1,.25-1.5.31C397.12,29,397.69,29.16,398.2,29.13Z"/><path class="cls-11" d="M115.77,30.91c-.51-.07-1.07.14-1.5-.31C114.79,30.62,115.35,30.41,115.77,30.91Z"/><path class="cls-12" d="M393.08,31.57c.36.19.2.79.69.88C392.63,32.87,393.2,32,393.08,31.57Z"/><path class="cls-12" d="M394.47,32.39c.42-.45,1-.24,1.49-.31C395.55,32.57,395,32.36,394.47,32.39Z"/><path class="cls-11" d="M126.36,32.73c-.5-.06-1.07.14-1.49-.31C125.38,32.45,125.94,32.24,126.36,32.73Z"/><path class="cls-11" d="M112.53,32.64c.44.31,1.07,0,1.46.48C113.47,33.07,112.83,33.37,112.53,32.64Z"/><path class="cls-11" d="M128.55,33.1c-.5-.07-1.07.14-1.49-.31C127.57,32.81,128.14,32.6,128.55,33.1Z"/><path class="cls-12" d="M376.58,33.21l-1.42-.14C375.68,32.66,376.17,32.56,376.58,33.21Z"/><path class="cls-11" d="M129.69,34.23a1.21,1.21,0,0,0-.44-1.08C130.05,33.24,130.25,33.58,129.69,34.23Z"/><path class="cls-12" d="M374.15,33.17c-.45.46-1,.22-1.56.29C373,33,373.62,33.18,374.15,33.17Z"/><path class="cls-11" d="M116.51,33.54a2.49,2.49,0,0,1,1.58.29C117.55,33.83,117,34,116.51,33.54Z"/><path class="cls-12" d="M386.06,33.85c.43-.45,1-.24,1.5-.31C387.14,34,386.58,33.83,386.06,33.85Z"/><path class="cls-12" d="M383.87,34.22c.43-.45,1-.25,1.5-.31C385,34.4,384.39,34.19,383.87,34.22Z"/><path class="cls-11" d="M138.05,34.56c-.52-.08-1.1.17-1.56-.29C137,34.27,137.61,34.06,138.05,34.56Z"/><path class="cls-11" d="M140.61,35c-.52-.12-1.11.15-1.56-.31C139.59,34.64,140.18,34.42,140.61,35Z"/><path class="cls-12" d="M364.23,34.61c-.43.45-1,.25-1.49.28C363.17,34.44,363.72,34.64,364.23,34.61Z"/><path class="cls-11" d="M125.28,35c.51,0,1.06-.17,1.49.27C126.26,35.29,125.71,35.49,125.28,35Z"/><path class="cls-12" d="M361.67,35c-.43.45-1,.25-1.49.28C360.61,34.81,361.16,35,361.67,35Z"/><path class="cls-11" d="M127.47,35.37c.51.07,1.07-.14,1.5.31C128.45,35.65,127.89,35.86,127.47,35.37Z"/><path class="cls-12" d="M374.68,35.66c.45-.46,1-.21,1.56-.29C375.79,35.87,375.21,35.65,374.68,35.66Z"/><path class="cls-11" d="M148.28,36c-.51,0-1.07.17-1.5-.28C147.29,35.73,147.85,35.54,148.28,36Z"/><path class="cls-12" d="M372.18,36c.43-.44,1-.24,1.49-.27C373.24,36.22,372.69,36,372.18,36Z"/><path class="cls-11" d="M151.2,36.35c-.52-.05-1.1.21-1.56-.25C150.18,36.1,150.74,35.89,151.2,36.35Z"/><path class="cls-12" d="M353.33,36.1c-.46.46-1,.2-1.55.25C352.23,35.9,352.8,36.1,353.33,36.1Z"/><path class="cls-11" d="M152,37.88l-.15-1.43C152.51,36.86,152.42,37.35,152,37.88Z"/><path class="cls-12" d="M350.41,36.46c-.46.47-1,.21-1.56.26C349.31,36.26,349.88,36.46,350.41,36.46Z"/><path class="cls-11" d="M137,36.83c.5.07,1.07-.14,1.49.31C138,37.12,137.38,37.32,137,36.83Z"/><path class="cls-11" d="M160,37.45c-.53-.05-1.1.21-1.56-.26C159,37.19,159.51,37,160,37.45Z"/><path class="cls-12" d="M362.26,37.48c.45-.45,1-.21,1.56-.28C363.37,37.69,362.79,37.48,362.26,37.48Z"/><path class="cls-11" d="M147.57,38.32c.51,0,1.06-.17,1.49.28C148.55,38.58,148,38.78,147.57,38.32Z"/><path class="cls-11" d="M348.5,38.91a4.06,4.06,0,0,0,1.43.11C349.42,39.47,348.93,39.56,348.5,38.91Z"/><path class="cls-11" d="M162.17,40.12a1.22,1.22,0,0,0,1.08-.45C163.16,40.47,162.82,40.67,162.17,40.12Z"/><path class="cls-11" d="M341.8,40c.42-.48,1.07-.12,1.54-.4C343,40.31,342.34,40,341.8,40Z"/><path class="cls-11" d="M314.94,40.1c-.05.48-.09.95-.14,1.43C314.39,41,314.29,40.52,314.94,40.1Z"/><path class="cls-11" d="M285.54,44.43c.42-.49,1.07-.12,1.54-.41C286.71,44.69,286.09,44.4,285.54,44.43Z"/><path class="cls-11" d="M224.66,44.39c.46.26,1.08,0,1.48.42C225.62,44.77,225,45,224.66,44.39Z"/><path class="cls-12" d="M497.85,5.47a1.18,1.18,0,0,0-1-.54C497.52,4.41,497.83,4.67,497.85,5.47Z"/><path class="cls-11" d="M37.23,11.92c-.48,0-1-.2-1.44.09C36.23,11.37,36.72,11.45,37.23,11.92Z"/><path class="cls-12" d="M420.49,24.75c-.31.37-.73.29-1.13.28C419.67,24.66,420.09,24.74,420.49,24.75Z"/><path class="cls-12" d="M406.46,30.18c.33-.38.77-.29,1.19-.29C407.33,30.3,406.89,30.2,406.46,30.18Z"/><path class="cls-12" d="M430.94,25.06c.32-.38.78-.27,1.19-.31C431.82,25.19,431.37,25.09,430.94,25.06Z"/><path class="cls-12" d="M418.66,25.11c-.31.37-.73.3-1.13.28C417.84,25,418.26,25.11,418.66,25.11Z"/><path class="cls-12" d="M429.17,25.45c.31-.37.73-.29,1.13-.28C430,25.54,429.57,25.46,429.17,25.45Z"/><path class="cls-12" d="M416.83,25.48a1.27,1.27,0,0,1-1.13.31C416,25.39,416.42,25.47,416.83,25.48Z"/><path class="cls-12" d="M427.65,25.79c.33-.38.77-.28,1.19-.29C428.52,25.92,428.08,25.82,427.65,25.79Z"/><path class="cls-12" d="M404.39,30.14l1.07.15C405,30.67,404.68,30.71,404.39,30.14Z"/><path class="cls-11" d="M103,31c.41,0,.86-.15,1.19.25C103.77,31.3,103.33,31.4,103,31Z"/><path class="cls-11" d="M91.66,26.16l-1.07.11C90.89,25.7,91.25,25.74,91.66,26.16Z"/><path class="cls-12" d="M465.36,15.64a1.41,1.41,0,0,1-.33-1.13C465.45,14.79,465.37,15.23,465.36,15.64Z"/><path class="cls-12" d="M415.4,25.85l-.14,1.07C414.88,26.5,414.84,26.14,415.4,25.85Z"/><path class="cls-11" d="M80.71,26.23a1.27,1.27,0,0,1,1.13.31C81.43,26.55,81,26.64,80.71,26.23Z"/><path class="cls-11" d="M93.11,26.49c-.4,0-.82.09-1.12-.28C92.39,26.2,92.81,26.12,93.11,26.49Z"/><path class="cls-11" d="M82.17,26.6c.42,0,.86-.09,1.19.29C82.94,26.91,82.49,27,82.17,26.6Z"/><path class="cls-12" d="M382.11,34.16l1.07.11C382.77,34.69,382.41,34.72,382.11,34.16Z"/><path class="cls-12" d="M396.6,32c.32-.4.77-.24,1.19-.25C397.45,32.13,397,32,396.6,32Z"/><path class="cls-12" d="M470.52,14.79l1.07.11C471.19,15.33,470.82,15.36,470.52,14.79Z"/><path class="cls-11" d="M46.71,15.24a1.34,1.34,0,0,1-.33,1.13C46.37,16,46.29,15.52,46.71,15.24Z"/><path class="cls-11" d="M94.94,26.86c-.4,0-.82.09-1.13-.28C94.21,26.57,94.63,26.48,94.94,26.86Z"/><path class="cls-11" d="M4.34.19l-.7.47C3.68.21,3.69-.28,4.34.19Z"/><path class="cls-11" d="M117.59,31.24c-.41,0-.86.15-1.19-.26C116.82,31,117.26,30.86,117.59,31.24Z"/><path class="cls-11" d="M84,27l1.07-.12C84.77,27.41,84.4,27.39,84,27Z"/><path class="cls-12" d="M409.59,27c-.33.38-.78.29-1.2.29C408.72,26.84,409.16,26.94,409.59,27Z"/><path class="cls-12" d="M410.18,28.12c-.4-.29-.2-.81-.45-1.16C410.32,27.18,410.19,27.67,410.18,28.12Z"/><path class="cls-11" d="M118.39,33.49c0-.4-.14-.86.27-1.19C118.68,32.73,118.79,33.17,118.39,33.49Z"/><path class="cls-12" d="M508.44,3.89l.48-.7C509.38,3.84,508.89,3.85,508.44,3.89Z"/><path class="cls-11" d="M104.82,31.35c.42,0,.86-.09,1.19.29C105.58,31.66,105.14,31.76,104.82,31.35Z"/><path class="cls-11" d="M30.29,27.32l1.07-.11C31.06,27.79,30.69,27.75,30.29,27.32Z"/><path class="cls-12" d="M407.76,27.33c-.33.4-.78.24-1.19.25C406.91,27.21,407.34,27.3,407.76,27.33Z"/><path class="cls-11" d="M337.17,39.31c.37.28.24.75.42,1.11C337.06,40.2,337.17,39.73,337.17,39.31Z"/><path class="cls-12" d="M385.48,31.35c-.33.4-.78.24-1.19.25C384.62,31.22,385.06,31.32,385.48,31.35Z"/><path class="cls-12" d="M418.94,27.64c.31-.37.73-.29,1.13-.28C419.76,27.73,419.34,27.65,418.94,27.64Z"/><path class="cls-12" d="M405.87,27.67c-.3.37-.72.29-1.12.28C405.05,27.58,405.47,27.67,405.87,27.67Z"/><path class="cls-12" d="M417.42,28c.33-.37.77-.28,1.19-.28C418.29,28.11,417.85,28,417.42,28Z"/><path class="cls-12" d="M495.38,5.38a1.33,1.33,0,0,1-1.14.33C494.53,5.29,495,5.38,495.38,5.38Z"/><path class="cls-11" d="M90.58,28.44c.39,0,.82-.08,1.13.3C91.3,28.75,90.88,28.83,90.58,28.44Z"/><path class="cls-11" d="M19.72,7.92a1.31,1.31,0,0,1,.33-1.13C20.05,7.2,20.14,7.63,19.72,7.92Z"/><path class="cls-12" d="M359.82,37.48l1.07.11C360.49,38,360.12,38,359.82,37.48Z"/><path class="cls-11" d="M184.46,42.34l1.07-.14C185.24,42.77,184.88,42.73,184.46,42.34Z"/><path class="cls-12" d="M492.06,7.52c.36.29.29.74.39,1.12C492,8.39,492.06,7.94,492.06,7.52Z"/><path class="cls-12" d="M486.91,8.37l-1.07-.12C486.25,7.83,486.61,7.79,486.91,8.37Z"/><path class="cls-11" d="M18.61,8.35l1.05-.18C19.41,8.79,19,8.75,18.61,8.35Z"/><path class="cls-11" d="M134.79,36.35c.37.21.88,0,1.18.4C135.52,36.77,135,36.9,134.79,36.35Z"/><path class="cls-12" d="M484.42,8.67a1.36,1.36,0,0,1-1.14.33C483.57,8.58,484,8.67,484.42,8.67Z"/><path class="cls-12" d="M487.28,9.8A1.29,1.29,0,0,1,487,8.66C487.37,9,487.29,9.39,487.28,9.8Z"/><path class="cls-11" d="M114.69,33.21c.41,0,.86-.15,1.19.25C115.46,33.49,115,33.59,114.69,33.21Z"/><path class="cls-11" d="M96,29.46c.18-.36,0-.83.43-1.12C96.4,28.77,96.5,29.24,96,29.46Z"/><path class="cls-11" d="M24.77,9.39c0,.36.05.72.08,1.08C24.32,10.15,24.35,9.78,24.77,9.39Z"/><path class="cls-11" d="M104.08,28.71c-.42,0-.87.09-1.19-.28C103.31,28.4,103.76,28.3,104.08,28.71Z"/><path class="cls-11" d="M30.69,10.84l-.16-1.05C31.16,10.05,31.11,10.42,30.69,10.84Z"/><path class="cls-12" d="M481.1,10.44a1.36,1.36,0,0,1,.33,1.14C481,11.29,481.1,10.85,481.1,10.44Z"/><path class="cls-11" d="M105.9,29.08c-.42,0-.86.09-1.19-.29C105.14,28.76,105.58,28.66,105.9,29.08Z"/><path class="cls-12" d="M404,28.65c.41.33.25.78.26,1.19C403.92,29.51,404,29.07,404,28.65Z"/><path class="cls-11" d="M146.06,37.16l.16,1.05C145.59,38,145.64,37.58,146.06,37.16Z"/><path class="cls-11" d="M30.08,12.27l.56-1.1C30.64,11.63,30.72,12.14,30.08,12.27Z"/><path class="cls-12" d="M474.19,11.59a1.28,1.28,0,0,1-1.13.32C473.35,11.5,473.78,11.59,474.19,11.59Z"/><path class="cls-12" d="M476.32,12.72a1.43,1.43,0,0,1-.33-1.14C476.41,11.87,476.33,12.31,476.32,12.72Z"/><path class="cls-12" d="M482.14,11.93a1.31,1.31,0,0,1,1.14-.32C483,12,482.55,11.94,482.14,11.93Z"/><path class="cls-11" d="M35.36,29.47a1.25,1.25,0,0,1,1.14-.31C36.2,29.56,35.77,29.48,35.36,29.47Z"/><path class="cls-11" d="M35.73,12.32a1.27,1.27,0,0,1-.31,1.13C35.41,13,35.33,12.61,35.73,12.32Z"/><path class="cls-11" d="M93.86,29.16c.42,0,.86-.1,1.19.29C94.63,29.47,94.18,29.57,93.86,29.16Z"/><path class="cls-11" d="M219.08,44.44c.21-.36,0-.88.4-1.17C219.5,43.71,219.63,44.19,219.08,44.44Z"/><path class="cls-12" d="M470.14,13.37a1.26,1.26,0,0,1,.31,1.13C470.05,14.2,470.14,13.77,470.14,13.37Z"/><path class="cls-12" d="M396.07,29.52c-.33.41-.78.24-1.19.26C395.22,29.4,395.65,29.5,396.07,29.52Z"/><path class="cls-12" d="M371.9,33.52c-.28.37-.76.24-1.12.42C371,33.41,371.47,33.52,371.9,33.52Z"/><path class="cls-12" d="M408.29,29.81c.33-.38.77-.28,1.19-.29C409.16,29.94,408.71,29.84,408.29,29.81Z"/><path class="cls-11" d="M41.27,15.23a1.33,1.33,0,0,1,.33-1.13C41.61,14.51,41.69,14.94,41.27,15.23Z"/><path class="cls-12" d="M383.29,31.71c-.32.42-.81.2-1.2.33C382.39,31.58,382.85,31.69,383.29,31.71Z"/><path class="cls-11" d="M73,24.41l1.06-.12C73.8,24.86,73.44,24.82,73,24.41Z"/><path class="cls-11" d="M83.25,24.3c-.4,0-.82.09-1.13-.28C82.52,24,82.94,23.92,83.25,24.3Z"/><path class="cls-11" d="M34,24.31c-.42-.07-.43.41-.71.53C33.27,24.37,33.24,23.85,34,24.31Z"/><path class="cls-11" d="M81.79,24a1.24,1.24,0,0,1-1.13-.31C81.07,23.64,81.5,23.56,81.79,24Z"/><path class="cls-12" d="M432.46,24.49a1.52,1.52,0,0,1-.25-1.21C432.59,23.62,432.49,24.06,432.46,24.49Z"/><path class="cls-12" d="M428.89,22.92c-.31.37-.73.29-1.13.28C428.07,22.83,428.49,22.92,428.89,22.92Z"/><path class="cls-11" d="M74.17,24c0-.42-.09-.87.28-1.2C74.48,23.23,74.58,23.68,74.17,24Z"/><path class="cls-11" d="M74.13,22.16A1.43,1.43,0,0,1,73,21.83C73.4,21.82,73.84,21.73,74.13,22.16Z"/><path class="cls-12" d="M440.43,22.87c.33-.38.78-.29,1.2-.29C441.31,23,440.86,22.89,440.43,22.87Z"/><path class="cls-12" d="M430.41,22.58c-.33.38-.77.28-1.19.29C429.54,22.45,430,22.55,430.41,22.58Z"/><path class="cls-12" d="M442,22.53a1.38,1.38,0,0,1,1.13-.34C442.8,22.62,442.37,22.53,442,22.53Z"/><path class="cls-12" d="M437.29,22.07c.39.31.23.8.36,1.19C437.15,23,437.27,22.51,437.29,22.07Z"/><path class="cls-12" d="M432.11,22.62l-1.06-.15C431.46,22.09,431.83,22.05,432.11,22.62Z"/><path class="cls-11" d="M72.66,21.77a1.27,1.27,0,0,1-1.13-.31C71.94,21.45,72.37,21.37,72.66,21.77Z"/><path class="cls-11" d="M61.35,21.47a1.33,1.33,0,0,1,1.13.32C62.07,21.8,61.64,21.89,61.35,21.47Z"/><path class="cls-11" d="M71.2,21.41a1.27,1.27,0,0,1-1.13-.31C70.48,21.09,70.9,21,71.2,21.41Z"/><path class="cls-11" d="M68.65,21.08c-.11.38,0,.84-.35,1.14C68.29,21.8,68.2,21.36,68.65,21.08Z"/><path class="cls-12" d="M438.45,20.75c-.3.39-.81.22-1.16.46C437.5,20.61,438,20.74,438.45,20.75Z"/><path class="cls-11" d="M69.74,21l-1.09,0C69,20.61,69.36,20.61,69.74,21Z"/><path class="cls-12" d="M443.44,21.49c-.36-.31-.29-.73-.27-1.13C443.54,20.67,443.45,21.09,443.44,21.49Z"/><path class="cls-11" d="M57.34,20.31c.38.1.83,0,1.12.39C58,20.7,57.59,20.8,57.34,20.31Z"/><path class="cls-12" d="M441.67,20c-.3.37-.72.29-1.12.28C440.85,19.91,441.27,20,441.67,20Z"/><path class="cls-11" d="M63.21,21.08c0-.43-.1-.87.29-1.2C63.52,20.31,63.62,20.75,63.21,21.08Z"/><path class="cls-12" d="M443.07,20.06,442,19.94C442.41,19.53,442.77,19.49,443.07,20.06Z"/><path class="cls-12" d="M448.25,19.15c.38.33.27.78.3,1.2C448.12,20,448.22,19.58,448.25,19.15Z"/><path class="cls-11" d="M59.88,18.5a1.36,1.36,0,0,1-1.14-.33C59.15,18.16,59.59,18.08,59.88,18.5Z"/><path class="cls-11" d="M57.69,18.16c-.1.38,0,.84-.35,1.14C57.33,18.88,57.24,18.44,57.69,18.16Z"/><path class="cls-12" d="M459.56,17.72l1.06.11C460.22,18.25,459.86,18.29,459.56,17.72Z"/><path class="cls-12" d="M461,17.78a1.26,1.26,0,0,1,1.14-.31C461.79,17.87,461.36,17.78,461,17.78Z"/><path class="cls-12" d="M454.4,18.56c-.37-.3-.28-.73-.29-1.12C454.5,17.74,454.41,18.16,454.4,18.56Z"/><path class="cls-11" d="M52.25,18.15A1.27,1.27,0,0,1,52.56,17C52.57,17.43,52.65,17.86,52.25,18.15Z"/><path class="cls-11" d="M46.33,16.7l.44.71C46.32,17.36,45.82,17.34,46.33,16.7Z"/><path class="cls-12" d="M459.21,16.23c.37.33.28.77.28,1.19C459.08,17.1,459.18,16.65,459.21,16.23Z"/><path class="cls-12" d="M460.67,15.25a1.38,1.38,0,0,1-1.13.33C459.82,15.16,460.26,15.24,460.67,15.25Z"/><path class="cls-11" d="M5.45.63A.91.91,0,0,1,4.62.29.75.75,0,0,1,5.45.63Z"/><path class="cls-11" d="M6.17.92a.69.69,0,0,1-.73-.3A.79.79,0,0,1,6.17.92Z"/><path class="cls-11" d="M8,1.69a.78.78,0,0,1-.77-.32A.75.75,0,0,1,8,1.69Z"/><path class="cls-12" d="M508.24,1.39a1,1,0,0,1-.84.25A.83.83,0,0,1,508.24,1.39Z"/><path class="cls-11" d="M3.23,1.72c0,.24,0,.47.07.71C2.88,2.23,2.87,2,3.23,1.72Z"/><path class="cls-12" d="M506.76,1.75a.77.77,0,0,1-.83.3A.79.79,0,0,1,506.76,1.75Z"/><path class="cls-12" d="M508.81,2.55c-.32-.2-.28-.52-.27-.83A.8.8,0,0,1,508.81,2.55Z"/><path class="cls-12" d="M505.67,2.12a.81.81,0,0,1-.83.3A.78.78,0,0,1,505.67,2.12Z"/><path class="cls-11" d="M3.27,2.41c.31,0,.63.06.82.36C3.75,2.8,3.44,2.77,3.27,2.41Z"/><path class="cls-12" d="M504.57,2.48a.79.79,0,0,1-.83.31A.77.77,0,0,1,504.57,2.48Z"/><path class="cls-11" d="M4.36,2.87a.68.68,0,0,1,.73.3A.75.75,0,0,1,4.36,2.87Z"/><path class="cls-11" d="M9.17,3.53c0-.31-.06-.62.26-.82A.82.82,0,0,1,9.17,3.53Z"/><path class="cls-12" d="M503.47,2.85c-.18.29-.52.31-.79.44C502.79,2.88,503.11,2.83,503.47,2.85Z"/><path class="cls-11" d="M5.09,3.17a.91.91,0,0,1,.77.36A.74.74,0,0,1,5.09,3.17Z"/><path class="cls-12" d="M502.68,3.44c.31.2.29.51.25.82A.83.83,0,0,1,502.68,3.44Z"/><path class="cls-11" d="M6.91,3.93a.75.75,0,0,1,.77.33A.78.78,0,0,1,6.91,3.93Z"/><path class="cls-11" d="M8.62,4.6l.47-.73C9.09,4.21,9,4.51,8.62,4.6Z"/><path class="cls-12" d="M507.35,4.26a.73.73,0,0,1,.76-.28A.81.81,0,0,1,507.35,4.26Z"/><path class="cls-11" d="M15.67,4.61a.76.76,0,0,1-.82-.3A.77.77,0,0,1,15.67,4.61Z"/><path class="cls-12" d="M506.25,4.62a.77.77,0,0,1,.77-.28A.81.81,0,0,1,506.25,4.62Z"/><path class="cls-12" d="M503,4.6l.42.75C503.07,5.23,503,4.93,503,4.6Z"/><path class="cls-12" d="M505.1,5a.72.72,0,0,1,.82-.29A.78.78,0,0,1,505.1,5Z"/><path class="cls-11" d="M14.19,5a.81.81,0,0,1-.3.83A.78.78,0,0,1,14.19,5Z"/><path class="cls-11" d="M17.5,5.3A.75.75,0,0,1,16.73,5,.81.81,0,0,1,17.5,5.3Z"/><path class="cls-12" d="M496.47,5a.74.74,0,0,1-.76.28A.79.79,0,0,1,496.47,5Z"/><path class="cls-12" d="M504,5.33a.81.81,0,0,1,.83-.3A.79.79,0,0,1,504,5.33Z"/><path class="cls-11" d="M18.6,5.71a.75.75,0,0,1-.77-.33A.78.78,0,0,1,18.6,5.71Z"/><path class="cls-11" d="M19.69,6.08a.82.82,0,0,1-.83-.31A.76.76,0,0,1,19.69,6.08Z"/><path class="cls-12" d="M494,5.77a.77.77,0,0,1-.83.3A.78.78,0,0,1,494,5.77Z"/><path class="cls-12" d="M492.88,6.14c-.19.32-.54.26-.83.32A.76.76,0,0,1,492.88,6.14Z"/><path class="cls-12" d="M498.21,7a1,1,0,0,1-.25-.84A.81.81,0,0,1,498.21,7Z"/><path class="cls-12" d="M492.05,6.46l-.07.73C491.65,6.91,491.69,6.67,492.05,6.46Z"/><path class="cls-11" d="M14.59,6.89a.77.77,0,0,1,.76.29A.78.78,0,0,1,14.59,6.89Z"/><path class="cls-11" d="M15.69,7.27a.65.65,0,0,1,.73.29A.8.8,0,0,1,15.69,7.27Z"/><path class="cls-12" d="M497.06,7.52a.82.82,0,0,1,.83-.31A.78.78,0,0,1,497.06,7.52Z"/><path class="cls-11" d="M16.41,7.55a.91.91,0,0,1,.83.34A.75.75,0,0,1,16.41,7.55Z"/><path class="cls-12" d="M495.66,7.91a.74.74,0,0,1,.76-.28A.79.79,0,0,1,495.66,7.91Z"/><path class="cls-11" d="M17.51,8a.81.81,0,0,1,.83.3A.75.75,0,0,1,17.51,8Z"/><path class="cls-11" d="M25.9,8.27l-.72,0C25.41,7.92,25.65,7.91,25.9,8.27Z"/><path class="cls-12" d="M494.56,8.28a.74.74,0,0,1,.77-.28A.83.83,0,0,1,494.56,8.28Z"/><path class="cls-11" d="M25.18,8.29c-.07.28-.08.59-.35.77A.73.73,0,0,1,25.18,8.29Z"/><path class="cls-11" d="M27,8.63a.77.77,0,0,1-.83-.3A.79.79,0,0,1,27,8.63Z"/><path class="cls-12" d="M485.51,8.31a.76.76,0,0,1-.76.28A.77.77,0,0,1,485.51,8.31Z"/><path class="cls-12" d="M493.4,8.62a.77.77,0,0,1,.83-.29A.79.79,0,0,1,493.4,8.62Z"/><path class="cls-11" d="M28.09,9a.79.79,0,0,1-.82-.3A.74.74,0,0,1,28.09,9Z"/><path class="cls-12" d="M492.43,8.62l.71.06C492.87,9,492.63,9,492.43,8.62Z"/><path class="cls-11" d="M29.19,9.36a.77.77,0,0,1-.83-.3A.78.78,0,0,1,29.19,9.36Z"/><path class="cls-12" d="M483,9.06c-.21.32-.52.29-.83.26A.86.86,0,0,1,483,9.06Z"/><path class="cls-11" d="M30.29,9.73a.8.8,0,0,1-.83-.3A.76.76,0,0,1,30.29,9.73Z"/><path class="cls-12" d="M481.86,9.4l-.75.43C481.23,9.46,481.53,9.4,481.86,9.4Z"/><path class="cls-11" d="M24.82,10.45c.31.05.63.06.82.36C25.3,10.84,25,10.81,24.82,10.45Z"/><path class="cls-12" d="M486.1,10.81a.8.8,0,0,1,.83-.31A.77.77,0,0,1,486.1,10.81Z"/><path class="cls-11" d="M25.91,10.88a.77.77,0,0,1,.83.3A.78.78,0,0,1,25.91,10.88Z"/><path class="cls-12" d="M484.7,11.2a.74.74,0,0,1,.76-.28A.81.81,0,0,1,484.7,11.2Z"/><path class="cls-11" d="M27,11.24a.79.79,0,0,1,.82.3A.77.77,0,0,1,27,11.24Z"/><path class="cls-12" d="M475.34,11.25c-.2.32-.51.29-.82.26A.85.85,0,0,1,475.34,11.25Z"/><path class="cls-12" d="M483.54,11.54a.77.77,0,0,1,.83-.29A.78.78,0,0,1,483.54,11.54Z"/><path class="cls-11" d="M28.1,11.61a.77.77,0,0,1,.83.3A.79.79,0,0,1,28.1,11.61Z"/><path class="cls-11" d="M29.2,12a1,1,0,0,1,.91.29A.85.85,0,0,1,29.2,12Z"/><path class="cls-11" d="M38.32,12.29a.79.79,0,0,1-.83-.31A.77.77,0,0,1,38.32,12.29Z"/><path class="cls-12" d="M472.72,12a.74.74,0,0,1-.76.28A.82.82,0,0,1,472.72,12Z"/><path class="cls-11" d="M39.42,12.64a.77.77,0,0,1-.83-.29A.79.79,0,0,1,39.42,12.64Z"/><path class="cls-12" d="M471.32,12.35a.8.8,0,0,1-.82.31A.76.76,0,0,1,471.32,12.35Z"/><path class="cls-11" d="M40.51,13a.73.73,0,0,1-.76-.28A.79.79,0,0,1,40.51,13Z"/><path class="cls-11" d="M41.59,13.48l-.75-.42C41.18,13.05,41.47,13.11,41.59,13.48Z"/><path class="cls-12" d="M474.47,14.12a.76.76,0,0,1,.76-.28A.79.79,0,0,1,474.47,14.12Z"/><path class="cls-11" d="M36.14,14.21a.74.74,0,0,1,.77.28A.83.83,0,0,1,36.14,14.21Z"/><path class="cls-12" d="M464.77,14.18a1,1,0,0,1-.84.25A.81.81,0,0,1,464.77,14.18Z"/><path class="cls-12" d="M473.31,14.47a.74.74,0,0,1,.83-.29A.8.8,0,0,1,473.31,14.47Z"/><path class="cls-11" d="M1.06,14.8l-.71.11C.53,14.51.76,14.47,1.06,14.8Z"/><path class="cls-11" d="M37.24,14.54a.75.75,0,0,1,.82.29A.77.77,0,0,1,37.24,14.54Z"/><path class="cls-12" d="M463.29,14.54c-.2.32-.51.29-.82.26A.84.84,0,0,1,463.29,14.54Z"/><path class="cls-12" d="M471.85,14.83c.21-.31.51-.29.83-.26A.84.84,0,0,1,471.85,14.83Z"/><path class="cls-11" d="M.37,14.88a1.39,1.39,0,0,1-.36.84C0,15.38,0,15.06.37,14.88Z"/><path class="cls-11" d="M2.16,15.24a.84.84,0,0,1-.77-.36A.75.75,0,0,1,2.16,15.24Z"/><path class="cls-11" d="M38.33,14.89a.79.79,0,0,1,.83.31A.77.77,0,0,1,38.33,14.89Z"/><path class="cls-11" d="M47.82,15.16a1,1,0,0,1-.85-.25A.82.82,0,0,1,47.82,15.16Z"/><path class="cls-12" d="M461.83,14.91c-.21.31-.51.28-.83.25A.84.84,0,0,1,461.83,14.91Z"/><path class="cls-11" d="M2.88,15.54a.69.69,0,0,1-.73-.3A.74.74,0,0,1,2.88,15.54Z"/><path class="cls-11" d="M39.8,15.3a.76.76,0,0,1,.76.28A.77.77,0,0,1,39.8,15.3Z"/><path class="cls-12" d="M304.38,40.85c-.19.31-.54.28-.81.4C303.71,40.86,304,40.82,304.38,40.85Z"/><path class="cls-11" d="M196.94,41.53l-.14-.7C197.22,41,197.27,41.22,196.94,41.53Z"/><path class="cls-11" d="M332,39.39l-.42-.75C332,38.76,332,39.06,332,39.39Z"/><path class="cls-12" d="M337.93,37.9l-.75.43C337.3,38,337.59,37.9,337.93,37.9Z"/><path class="cls-12" d="M364.81,37.12c.19-.31.54-.28.81-.4C365.48,37.11,365.16,37.14,364.81,37.12Z"/><path class="cls-11" d="M348.55,36.81c-.05.24-.1.47-.14.7C348.08,37.2,348.13,37,348.55,36.81Z"/><path class="cls-12" d="M370.78,35.29l.42.75C370.83,35.92,370.77,35.62,370.78,35.29Z"/><path class="cls-11" d="M19.7,23.71a.74.74,0,0,1,.77.28A.83.83,0,0,1,19.7,23.71Z"/><path class="cls-12" d="M365.61,35.43c-.31-.18-.28-.53-.4-.81C365.6,34.77,365.63,35.08,365.61,35.43Z"/><path class="cls-11" d="M292.24,43.33l.42.75C292.29,44,292.23,43.66,292.24,43.33Z"/><path class="cls-11" d="M17.51,22.93a.81.81,0,0,1,.83.3A.75.75,0,0,1,17.51,22.93Z"/><path class="cls-12" d="M387.86,33.48l.11-.7C388.32,33.07,388.29,33.31,387.86,33.48Z"/><path class="cls-11" d="M106.64,31.71l.69-.16C107.2,32,107,32.07,106.64,31.71Z"/><path class="cls-11" d="M31.78,30.14l.7.1C32.19,30.6,32,30.58,31.78,30.14Z"/><path class="cls-11" d="M32.74,30.18c.21-.32.52-.3.83-.26A.83.83,0,0,1,32.74,30.18Z"/><path class="cls-11" d="M34.2,29.81c.21-.32.52-.29.83-.26A.81.81,0,0,1,34.2,29.81Z"/><path class="cls-11" d="M32.05,29.13a.74.74,0,0,1-.28.76A.77.77,0,0,1,32.05,29.13Z"/><path class="cls-11" d="M92.4,28.82c.31,0,.62-.06.83.26A.82.82,0,0,1,92.4,28.82Z"/><path class="cls-11" d="M36.82,29.1l.74-.47C37.47,29,37.17,29.1,36.82,29.1Z"/><path class="cls-11" d="M32.46,27.66a.8.8,0,0,1-.3.83A.76.76,0,0,1,32.46,27.66Z"/><path class="cls-11" d="M29.2,27a.81.81,0,0,1,.83.3A.77.77,0,0,1,29.2,27Z"/><path class="cls-11" d="M36.52,27.25c-.32-.1-.39-.37-.46-.65C36.4,26.68,36.49,26.94,36.52,27.25Z"/><path class="cls-11" d="M32.78,26.57c0,.31.06.62-.26.83A.81.81,0,0,1,32.78,26.57Z"/><path class="cls-11" d="M28.1,26.58a.79.79,0,0,1,.83.31A.78.78,0,0,1,28.1,26.58Z"/><path class="cls-11" d="M31.46,26.92l-.12-.71C31.75,26.39,31.78,26.63,31.46,26.92Z"/><path class="cls-11" d="M27,26.22a.77.77,0,0,1,.83.3A.78.78,0,0,1,27,26.22Z"/><path class="cls-11" d="M79.27,25.75c.27.12.62.1.81.41C79.73,26.18,79.41,26.15,79.27,25.75Z"/><path class="cls-11" d="M31.37,26.23c-.3,0-.63-.06-.82-.36C30.89,25.84,31.21,25.87,31.37,26.23Z"/><path class="cls-11" d="M25.91,25.85a.79.79,0,0,1,.83.31A.78.78,0,0,1,25.91,25.85Z"/><path class="cls-11" d="M33.14,25.47a.74.74,0,0,1-.28.77A.83.83,0,0,1,33.14,25.47Z"/><path class="cls-11" d="M30.29,25.81a.79.79,0,0,1-.83-.31A.78.78,0,0,1,30.29,25.81Z"/><path class="cls-11" d="M24.81,25.49a.79.79,0,0,1,.84.3A.8.8,0,0,1,24.81,25.49Z"/><path class="cls-11" d="M29.19,25.44a.79.79,0,0,1-.83-.3A.77.77,0,0,1,29.19,25.44Z"/><path class="cls-11" d="M23.72,25.12a.79.79,0,0,1,.83.31A.77.77,0,0,1,23.72,25.12Z"/><path class="cls-11" d="M28.09,25.07a.77.77,0,0,1-.83-.3A.78.78,0,0,1,28.09,25.07Z"/><path class="cls-11" d="M22.62,24.76a.77.77,0,0,1,.83.3A.79.79,0,0,1,22.62,24.76Z"/><path class="cls-11" d="M84.71,24.66c-.31,0-.62.06-.82-.25A.79.79,0,0,1,84.71,24.66Z"/><path class="cls-11" d="M27,24.71a.8.8,0,0,1-.83-.3A.76.76,0,0,1,27,24.71Z"/><path class="cls-11" d="M21.53,24.36a.88.88,0,0,1,.83.33A.72.72,0,0,1,21.53,24.36Z"/><path class="cls-11" d="M71.58,24.07c.31,0,.62-.06.82.26A.82.82,0,0,1,71.58,24.07Z"/><path class="cls-11" d="M25.9,24.34a.77.77,0,0,1-.83-.3A.78.78,0,0,1,25.9,24.34Z"/><path class="cls-11" d="M20.8,24.07a.66.66,0,0,1,.73.29A.77.77,0,0,1,20.8,24.07Z"/><path class="cls-11" d="M70.12,23.71c.31,0,.62-.06.82.25A.81.81,0,0,1,70.12,23.71Z"/><path class="cls-11" d="M24.81,24a.8.8,0,0,1-.83-.3A.76.76,0,0,1,24.81,24Z"/><path class="cls-12" d="M437.63,23.23l.71.11C438,23.67,437.81,23.63,437.63,23.23Z"/><path class="cls-11" d="M68.66,23.34c.31,0,.62-.06.82.26A.82.82,0,0,1,68.66,23.34Z"/><path class="cls-11" d="M23.71,23.61a.77.77,0,0,1-.83-.3A.78.78,0,0,1,23.71,23.61Z"/><path class="cls-11" d="M18.6,23.3a.75.75,0,0,1,.77.32A.75.75,0,0,1,18.6,23.3Z"/><path class="cls-12" d="M439,23.23c.21-.31.52-.28.83-.25A.83.83,0,0,1,439,23.23Z"/><path class="cls-11" d="M22.62,23.25a.77.77,0,0,1-.78-.33A.79.79,0,0,1,22.62,23.25Z"/><path class="cls-11" d="M68.24,22.55l.12.7C67.92,23.08,67.89,22.84,68.24,22.55Z"/><path class="cls-11" d="M21.51,22.84a.74.74,0,0,1-.76-.28A.77.77,0,0,1,21.51,22.84Z"/><path class="cls-11" d="M20.42,22.47a.67.67,0,0,1-.74-.29A.78.78,0,0,1,20.42,22.47Z"/><path class="cls-11" d="M15.69,22.24a.75.75,0,0,1,.76.29A.78.78,0,0,1,15.69,22.24Z"/><path class="cls-11" d="M19.69,22.19a.91.91,0,0,1-.83-.34A.74.74,0,0,1,19.69,22.19Z"/><path class="cls-11" d="M14.58,21.83a.81.81,0,0,1,.84.31A.79.79,0,0,1,14.58,21.83Z"/><path class="cls-11" d="M18.6,21.79a.79.79,0,0,1-.83-.31A.78.78,0,0,1,18.6,21.79Z"/><path class="cls-11" d="M287.07,42.74c-.31-.19-.28-.53-.4-.81C287.06,42.07,287.09,42.39,287.07,42.74Z"/><path class="cls-11" d="M60.25,21.15c.32,0,.63-.06.83.26A.84.84,0,0,1,60.25,21.15Z"/><path class="cls-11" d="M17.5,21.39a.79.79,0,0,1-.77-.29A.77.77,0,0,1,17.5,21.39Z"/><path class="cls-11" d="M331.27,41.16l.75-.42C331.9,41.11,331.6,41.17,331.27,41.16Z"/><path class="cls-11" d="M12.76,21.14a.79.79,0,0,1,.77.29A.79.79,0,0,1,12.76,21.14Z"/><path class="cls-11" d="M58.79,20.78c.32,0,.63-.06.83.26A.8.8,0,0,1,58.79,20.78Z"/><path class="cls-11" d="M11.66,20.7a.91.91,0,0,1,.83.34A.75.75,0,0,1,11.66,20.7Z"/><path class="cls-12" d="M449.57,20.68c.2-.32.51-.29.82-.26A.85.85,0,0,1,449.57,20.68Z"/><path class="cls-12" d="M439.91,20.39c-.2.31-.51.29-.82.25A.81.81,0,0,1,439.91,20.39Z"/><path class="cls-11" d="M15.67,20.69a.77.77,0,0,1-.83-.3A.77.77,0,0,1,15.67,20.69Z"/><path class="cls-11" d="M10.94,20.41a.69.69,0,0,1,.73.3A.76.76,0,0,1,10.94,20.41Z"/><path class="cls-12" d="M451,20.31c.2-.31.51-.29.82-.25A.83.83,0,0,1,451,20.31Z"/><path class="cls-11" d="M14.57,20.29a.77.77,0,0,1-.76-.29A.77.77,0,0,1,14.57,20.29Z"/><path class="cls-11" d="M9.84,20a.91.91,0,0,1,.83.34A.74.74,0,0,1,9.84,20Z"/><path class="cls-12" d="M452.49,20c.2-.32.51-.29.82-.26A.84.84,0,0,1,452.49,20Z"/><path class="cls-11" d="M57.29,19.62c0,.24.05.48.07.71C57,20.14,56.94,19.9,57.29,19.62Z"/><path class="cls-11" d="M9.11,19.68a.68.68,0,0,1,.73.3A.77.77,0,0,1,9.11,19.68Z"/><path class="cls-11" d="M63.5,19.74l-.74-.47C63.11,19.27,63.41,19.34,63.5,19.74Z"/><path class="cls-11" d="M12.75,19.59a.76.76,0,0,1-.77-.32A.75.75,0,0,1,12.75,19.59Z"/><path class="cls-11" d="M8,19.24a.91.91,0,0,1,.83.34A.75.75,0,0,1,8,19.24Z"/><path class="cls-11" d="M62.43,19.18c-.31,0-.62.06-.83-.25A.8.8,0,0,1,62.43,19.18Z"/><path class="cls-11" d="M7.28,19a.7.7,0,0,1,.74.3A.81.81,0,0,1,7.28,19Z"/><path class="cls-11" d="M61,18.82c-.31,0-.62.06-.83-.26A.82.82,0,0,1,61,18.82Z"/><path class="cls-11" d="M50.75,18.56a.77.77,0,0,1,.83.29A.81.81,0,0,1,50.75,18.56Z"/><path class="cls-11" d="M10.93,18.86a.77.77,0,0,1-.78-.32A.77.77,0,0,1,10.93,18.86Z"/><path class="cls-11" d="M6.18,18.51a.91.91,0,0,1,.83.34A.75.75,0,0,1,6.18,18.51Z"/><path class="cls-12" d="M449,18.19c-.18.31-.53.29-.81.41C448.37,18.21,448.69,18.17,449,18.19Z"/><path class="cls-11" d="M49.66,18.23a.73.73,0,0,1,.76.28A.81.81,0,0,1,49.66,18.23Z"/><path class="cls-11" d="M5.46,18.22a.69.69,0,0,1,.73.3A.78.78,0,0,1,5.46,18.22Z"/><path class="cls-12" d="M450.5,17.83c-.2.31-.51.29-.82.25A.84.84,0,0,1,450.5,17.83Z"/><path class="cls-11" d="M58.41,18.12l-.72,0C57.91,17.79,58.15,17.77,58.41,18.12Z"/><path class="cls-11" d="M48.19,17.83a.74.74,0,0,1,.83.29A.81.81,0,0,1,48.19,17.83Z"/><path class="cls-11" d="M9.1,18.13a.76.76,0,0,1-.77-.32A.75.75,0,0,1,9.1,18.13Z"/><path class="cls-12" d="M452,17.46c-.2.32-.51.29-.82.26A.85.85,0,0,1,452,17.46Z"/><path class="cls-11" d="M47.1,17.5a.74.74,0,0,1,.77.28A.83.83,0,0,1,47.1,17.5Z"/><path class="cls-11" d="M3.63,17.42a.85.85,0,0,1,.77.36A.74.74,0,0,1,3.63,17.42Z"/><path class="cls-12" d="M462.42,17.41a.76.76,0,0,1,.76-.28A.8.8,0,0,1,462.42,17.41Z"/><path class="cls-12" d="M453.42,17.1c-.2.31-.51.29-.82.25A.84.84,0,0,1,453.42,17.1Z"/><path class="cls-11" d="M7.27,17.4a.78.78,0,0,1-.77-.32A.75.75,0,0,1,7.27,17.4Z"/><path class="cls-11" d="M2.9,17.12a.68.68,0,0,1,.73.3A.75.75,0,0,1,2.9,17.12Z"/><path class="cls-12" d="M463.82,17c.2-.31.51-.29.82-.25A.82.82,0,0,1,463.82,17Z"/><path class="cls-11" d="M5.44,16.64c-.29,0-.57,0-.73-.3A.75.75,0,0,1,5.44,16.64Z"/><path class="cls-11" d="M1.07,16.32a.89.89,0,0,1,.77.36A.75.75,0,0,1,1.07,16.32Z"/><path class="cls-11" d="M51.84,16.29A.74.74,0,0,1,51,16,.8.8,0,0,1,51.84,16.29Z"/><path class="cls-11" d="M4.71,16.34A.89.89,0,0,1,3.94,16,.74.74,0,0,1,4.71,16.34Z"/><path class="cls-11" d="M.34,16a.72.72,0,0,1,.74.3A.76.76,0,0,1,.34,16Z"/><path class="cls-11" d="M50.37,15.89a.74.74,0,0,1-.76-.27A.79.79,0,0,1,50.37,15.89Z"/><path class="cls-11" d="M49.28,15.56a.74.74,0,0,1-.83-.29A.8.8,0,0,1,49.28,15.56Z"/><path class="cls-11" d="M37.56,28.5a.53.53,0,0,1-.31-.48A.6.6,0,0,1,37.56,28.5Z"/><path class="cls-11" d="M37.24,28a.39.39,0,0,1-.34-.37Z"/><path class="cls-11" d="M36.88,27.62a.34.34,0,0,1-.34-.34Z"/><path class="cls-11" d="M35.42,13.72l.41.4A.56.56,0,0,1,35.42,13.72Z"/><path class="cls-12" d="M475.86,13.73l.45-.39A.54.54,0,0,1,475.86,13.73Z"/><path class="cls-11" d="M13.88,6.39l.45.4A.53.53,0,0,1,13.88,6.39Z"/><path class="cls-11" d="M16.4,4.93a.4.4,0,0,1-.47-.25Z"/><path class="cls-11" d="M80,23.6a.74.74,0,0,1-.33.09C79.69,23.45,79.78,23.35,80,23.6Z"/><path class="cls-11" d="M62.75,21.79l.4-.4A.54.54,0,0,1,62.75,21.79Z"/><path class="cls-11" d="M14.7,4.31l-.45.44A.54.54,0,0,1,14.7,4.31Z"/><path class="cls-11" d="M8,4.34a.41.41,0,0,1,.47.26Z"/><path class="cls-11" d="M6.19,3.61a.4.4,0,0,1,.46.26Z"/><path class="cls-11" d="M9.43,2.55,9.05,2.1A.53.53,0,0,1,9.43,2.55Z"/><path class="cls-11" d="M13.86,21.51a.42.42,0,0,1,.47.26Z"/><path class="cls-11" d="M36.09,26.64a.49.49,0,0,1-.4-.4A.47.47,0,0,1,36.09,26.64Z"/><path class="cls-11" d="M8.73,2a.42.42,0,0,1-.47-.25Z"/><path class="cls-11" d="M6.9,1.28A.4.4,0,0,1,6.44,1Z"/><path class="cls-11" d="M35.73,26.27a.49.49,0,0,1-.4-.4A.49.49,0,0,1,35.73,26.27Z"/><path class="cls-11" d="M129.23,35.68l.41-.41A.57.57,0,0,1,129.23,35.68Z"/><path class="cls-11" d="M3.55,1a.4.4,0,0,1-.25.47Z"/><path class="cls-11" d="M35.36,25.9a.41.41,0,0,1-.34-.43A.52.52,0,0,1,35.36,25.9Z"/><path class="cls-11" d="M16.4,21a.4.4,0,0,1-.47-.25Z"/><path class="cls-11" d="M35,25.49a.45.45,0,0,1-.32-.4Z"/><path class="cls-12" d="M421.14,25.21l-.4-.45A.55.55,0,0,1,421.14,25.21Z"/><path class="cls-11" d="M34.69,25.06a.35.35,0,0,1-.35-.34Z"/><path class="cls-11" d="M34.32,24.7a.34.34,0,0,1-.33-.35Z"/><path class="cls-11" d="M13.48,19.91a.4.4,0,0,1-.47-.25Z"/><path class="cls-11" d="M16.78,22.61a.41.41,0,0,1,.47.26Z"/><path class="cls-12" d="M453.94,19.58l.46-.4A.56.56,0,0,1,453.94,19.58Z"/><path class="cls-11" d="M11.65,19.18a.4.4,0,0,1-.47-.25Z"/><path class="cls-11" d="M51.74,18.85l.45-.38A.53.53,0,0,1,51.74,18.85Z"/><path class="cls-11" d="M9.83,18.45a.39.39,0,0,1-.47-.25Z"/><path class="cls-11" d="M4.72,17.86a.41.41,0,0,1,.47.26Z"/><path class="cls-11" d="M8,17.72a.4.4,0,0,1-.47-.25Z"/><path class="cls-11" d="M6.17,17a.4.4,0,0,1-.47-.25Z"/><path class="cls-11" d="M2.17,16.76a.42.42,0,0,1,.47.26Z"/><path class="cls-11" d="M52.56,16.75l-.41-.4A.56.56,0,0,1,52.56,16.75Z"/><path class="cls-11" d="M3.62,15.9a.41.41,0,0,1-.47-.26Z"/><path class="cls-11" d="M102,28.41l-.41.4A.54.54,0,0,1,102,28.41Z"/></g></g></svg>