<svg xmlns="http://www.w3.org/2000/svg" viewBox="0 0 282.57 88.67"><defs><style>.cls-1{fill:#231f20;}.cls-2{fill:#242021;}.cls-3{fill:#252021;}.cls-4{fill:#252122;}.cls-5{fill:#fdfdfd;}.cls-6{fill:#fefefe;}</style></defs><title>Asset 1</title><g id="Layer_2" data-name="Layer 2"><g id="Layer_1-2" data-name="Layer 1"><path class="cls-1" d="M1,85.83l-.12-.11-.16,0c-.3-.13-.64-.24-.5-.7l0,0a.55.55,0,0,0,.29-.31l.07-.08a.33.33,0,0,0,.25-.26A.25.25,0,0,0,1,84.07a.78.78,0,0,1,.36-.44v0a.87.87,0,0,1,.38-.38h0a1.76,1.76,0,0,1,.32-.4l0,0a.85.85,0,0,0,.27-.35l.08-.08a.46.46,0,0,0,.29-.29l.06-.07c.29-.11.17-.5.43-.63h0a.88.88,0,0,1,.37-.37h0a1.34,1.34,0,0,1,.36-.39h0a3.79,3.79,0,0,0,.3-.4l0,0A.54.54,0,0,0,4.53,80l.08-.08a.33.33,0,0,0,.25-.26A.24.24,0,0,0,5,79.32a.84.84,0,0,1,.37-.44v0a.87.87,0,0,1,.38-.38h0a2.13,2.13,0,0,1,.33-.4l0,0a.85.85,0,0,0,.27-.35l.08-.08a.46.46,0,0,0,.29-.29l.07-.08a.32.32,0,0,0,.25-.26.25.25,0,0,0,.17-.29.76.76,0,0,1,.36-.43h0A1.19,1.19,0,0,1,7.93,76h0a3.79,3.79,0,0,0,.3-.4l0,0a.69.69,0,0,0,.3-.31l.07-.06c.42-.12.54.22.72.46a.27.27,0,0,0,.06.34c.25.34,0,.81.3,1.13a.79.79,0,0,0,.1.7,5.31,5.31,0,0,0,.25.8.8.8,0,0,0,.11.67,7.3,7.3,0,0,0,.26.79.79.79,0,0,0,.11.67,5.57,5.57,0,0,0,.25.79.79.79,0,0,0,.11.67,8.27,8.27,0,0,0,.26.8.78.78,0,0,0,.11.66,5.7,5.7,0,0,0,.25.8.78.78,0,0,0,.11.66,7.46,7.46,0,0,0,.26.8.78.78,0,0,0,.11.66c.19.35,0,.8.27,1.12a.3.3,0,0,0,.06.34c.14.27.2.53-.18.67-2-.48-3.92-1.18-5.95-1.46-.38-.22-.87,0-1.22-.32l-.11-.09-.13,0c-.38-.23-.87,0-1.22-.33l-.11-.08-.13,0c-.37-.22-.87,0-1.2-.33h0C1.76,85.84,1.29,86.11,1,85.83Z"/><path class="cls-2" d="M57.65,67.38l-.11-.58a.57.57,0,0,1,.06-.72h0c.19-.22.53-.15.73-.35l.74-.13c.17,0,.3-.2.48-.21l.61-.11c.22-.14.53-.08.73-.28l.36-.08c.27-.14.58-.15.85-.26l.63-.16c.24-.08.51,0,.72-.24l.36-.07c.22-.15.53-.09.73-.29l.74-.12c.17-.05.3-.21.49-.21l.61-.16c.24-.09.52,0,.72-.24l.37-.08c.37-.12.75-.25,1.06.12a.28.28,0,0,0,.07.31c.25.34,0,.81.31,1.12A.29.29,0,0,0,69,65c.23.63.24,1.17-.53,1.41l-.14,0-.11.1c-.32.27-.8,0-1.12.31a56.91,56.91,0,0,0-8,2.56c-.56.44-.79,0-1-.4a.27.27,0,0,0-.05-.31C57.69,68.25,57.85,67.77,57.65,67.38Z"/><path class="cls-3" d="M100.51,53.34l.59-.16c.24-.08.52,0,.72-.24l.37-.08c.26-.13.57-.14.84-.26l.63-.15c.17-.05.29-.2.48-.21l.6-.11c.23-.15.53-.08.73-.29l.37-.07c.27-.14.57-.15.84-.26l.63-.16c.24-.08.52,0,.72-.24l.37-.07c.22-.15.53-.09.73-.29l.74-.13c.17,0,.29-.2.48-.2l.57,0a1.07,1.07,0,0,1,.36.43.78.78,0,0,0,.11.66,5.74,5.74,0,0,0,.26.8.78.78,0,0,0,.11.66c.1.26.14.51-.15.68l0,0c-.28.42-.81.12-1.14.39a75.17,75.17,0,0,0-8.72,2.57c-.36.26-.71.35-1-.06a.26.26,0,0,0-.06-.28c-.28-.34,0-.82-.32-1.16a.27.27,0,0,0,0-.3C100.19,54.25,99.92,53.73,100.51,53.34Z"/><path class="cls-2" d="M36.78,72.3l.37-.07c.27-.14.57-.15.84-.26l.63-.16c.17,0,.29-.2.48-.2l.61-.12c.22-.14.53-.08.73-.28l.36-.08a8.34,8.34,0,0,1,.85-.26l.63-.15c.23-.09.51,0,.71-.24l.37-.08c.22-.15.53-.09.73-.29l.74-.12c.17,0,.3-.21.49-.21l.6-.12c.22-.14.53-.07.73-.28a.54.54,0,0,0,.31,0c.28.18.21.54.38.78a.78.78,0,0,0,.11.66,4.4,4.4,0,0,0,.26.8l.08.66a.24.24,0,0,1-.09.34l0,0c-.22.27-.56.23-.84.35a66,66,0,0,0-9,2.64.85.85,0,0,1-1.07-.07v0c-.34-.35-.13-.86-.34-1.24l-.11-.58a8.89,8.89,0,0,1-.26-.88v0C36.15,72.43,36.58,72.52,36.78,72.3Z"/><path class="cls-2" d="M238.1,12.76l.37-.08a.47.47,0,0,1,.7.12.28.28,0,0,0,.07.31c.25.33,0,.8.31,1.12a.29.29,0,0,0,0,.34c.11.49.37,1-.18,1.41l-.14,0-.09.09c-.32.28-.79,0-1.1.32h0c-.33.34-.83.11-1.19.34l-.15,0-.1.1a3.29,3.29,0,0,1-.85.29l-.13,0-.11.09c-.3.33-.8,0-1.1.34h0c-.34.33-.83.11-1.2.33l-.14,0-.11.1c-.31.28-.78,0-1.09.31h0c-.32.34-.81.09-1.16.34l-.16,0-.12.1a4.26,4.26,0,0,1-.85.29l-.13,0-.11.09c-.52.21-.58-.18-.68-.51l-.11-.59a6.68,6.68,0,0,1-.26-.87l-.11-.59a.51.51,0,0,1,.08-.7l.36-.09c.22-.14.52-.07.72-.28l.75-.12c.17,0,.29-.21.48-.21l.62-.16c.23-.08.51,0,.71-.24l.37-.07a8.16,8.16,0,0,1,.84-.26l.63-.16c.17,0,.29-.2.48-.21l.61-.11c.22-.14.52-.08.72-.28l.75-.13c.17,0,.29-.2.48-.21l.62-.15C237.62,12.91,237.9,13,238.1,12.76Z"/><path class="cls-4" d="M195.85,25.21a.89.89,0,0,1,.67.33,7.3,7.3,0,0,0,.26.79.8.8,0,0,0,.11.67,5.57,5.57,0,0,0,.25.79l0,.49c-.19.59-.81.19-1.13.49l-.16,0-.12.1a4.26,4.26,0,0,1-.85.29l-.14,0-.11.09c-.32.28-.79,0-1.1.32h0c-.34.34-.83.11-1.2.34l-.14,0-.11.1a3.61,3.61,0,0,1-.84.28l-.14,0-.11.09c-.33.32-.83.07-1.18.33l-.16,0-.13.11a3.61,3.61,0,0,1-.84.28l-.15,0-.1.1c-.32.28-.79,0-1.1.32h0c-.93.57-1.18-.09-1.42-.77a.27.27,0,0,0-.05-.31c-.27-.34,0-.82-.32-1.15v-.61a.66.66,0,0,1,.49-.38l.61-.16c.24-.08.52,0,.71-.24l.37-.07c.22-.15.53-.09.73-.29l.74-.13c.18,0,.3-.2.49-.2l.6-.12c.23-.14.53-.08.73-.28l.37-.08a8.16,8.16,0,0,1,.84-.26l.63-.15c.24-.09.52,0,.72-.24l.37-.08c.22-.15.52-.08.72-.29l.75-.12C195.54,25.37,195.66,25.21,195.85,25.21Z"/><path class="cls-3" d="M79.21,61.9l-.11-.58a6.82,6.82,0,0,1-.26-.88l0-.51c.16-.29.52-.21.72-.41l.37-.08c.22-.15.53-.09.73-.29l.74-.12c.17-.05.29-.21.48-.21l.61-.12c.22-.14.52-.08.72-.28l.37-.08c.27-.13.57-.14.85-.26l.63-.15c.23-.08.51,0,.71-.24l.37-.08c.22-.15.53-.08.73-.29l.74-.12c.17-.05.29-.2.48-.21l.61-.12c.26-.13.57-.12.83-.25l.32.33c.13.25.12.55.27.8a.78.78,0,0,0,.11.66,5.7,5.7,0,0,0,.25.8v.56c-.17.34-.54.28-.82.41a64.62,64.62,0,0,0-9,2.63C79.65,63.27,79.35,62.69,79.21,61.9Z"/><path class="cls-4" d="M14.9,79.8V79c.12-.31.51-.23.7-.44l.74-.12c.17,0,.3-.21.49-.21l.6-.12c.22-.14.53-.08.73-.28l.37-.07a8.16,8.16,0,0,1,.84-.26l.63-.16c.24-.08.52-.05.72-.24l.36-.07c.22-.16.53-.09.73-.29l.74-.13c.17,0,.3-.2.49-.21l.6-.11c.23-.14.53-.08.73-.29l.37-.07a1,1,0,0,1,1.07.06h0c.33.3,0,.8.36,1.11a.29.29,0,0,0,0,.34c.25.34,0,.81.31,1.13a.23.23,0,0,0,0,.24c-.17.33-.54.27-.82.4l-.14,0-.11.1c-.32.28-.8,0-1.11.32a68.46,68.46,0,0,0-7.66,2.24c-.25.19-.57.16-.84.29h-.11c-.4-.15-.33-.55-.45-.84l-.11-.58A6.82,6.82,0,0,1,14.9,79.8Z"/><path class="cls-3" d="M277.68,1.09l.62-.15c.18,0,.3-.2.49-.21l.6-.11c.23-.14.53-.08.73-.29l.74-.12c.17,0,.3-.2.49-.21h.07a.61.61,0,0,1,.49.4.78.78,0,0,0,.11.66,4.56,4.56,0,0,0,.26.79.79.79,0,0,0,.1.67c.33.88-.44.83-.89,1l-.16,0-.13.1a4.17,4.17,0,0,1-.84.29l-.14,0-.11.08c-.3.34-.79,0-1.1.35h0c-.34.33-.83.11-1.2.33l-.15,0-.1.1c-.32.28-.79,0-1.1.31h0c-.32.34-.82.09-1.16.34l-.16,0-.13.1a4.17,4.17,0,0,1-.84.29l-.15,0-.1.09c-.32.28-.79,0-1.1.32h0a1.13,1.13,0,0,1-1.42-.06.26.26,0,0,0-.05-.29c-.28-.33,0-.81-.32-1.15a.28.28,0,0,0-.05-.31c-.27-.63-.24-1.16.52-1.41l.63-.15c.23-.09.51,0,.71-.24l.37-.08c.22-.15.53-.08.73-.29l.74-.12c.17-.05.3-.21.48-.21l.61-.12c.22-.14.53-.08.73-.28l.37-.08C277.1,1.22,277.41,1.21,277.68,1.09Z"/><path class="cls-4" d="M151.27,38.36l.62-.16c.24-.08.51,0,.72-.24l.36-.07c.87-.39.81.43,1.08.82a.28.28,0,0,0,.06.34c.24.33,0,.8.3,1.12v.62a.64.64,0,0,1-.47.39l-.14,0-.1.1c-.32.28-.79,0-1.1.31h0c-.32.34-.82.09-1.16.34l-.16,0-.13.1a4.06,4.06,0,0,1-.85.29l-.13-.05-.11.09c-.3.34-.8,0-1.1.35h0c-.33.34-.83.12-1.19.34l-.15,0-.1.1c-.32.28-.79,0-1.1.31h0c-.32.35-.82.09-1.16.35l-.16,0-.13.11a3.53,3.53,0,0,1-.85.28h-.15a1.46,1.46,0,0,1-.46-.28l0,0a3.44,3.44,0,0,1-.29-.89l-.11-.58a6.82,6.82,0,0,1-.26-.88c.06-.23.07-.49.33-.62s.53-.1.73-.3l.74-.13c.17,0,.29-.2.48-.2l.62-.16c.23-.09.51-.05.71-.24l.37-.08a8.34,8.34,0,0,1,.85-.26l.62-.15c.17,0,.3-.2.49-.21l.6-.12c.22-.14.53-.07.73-.28l.74-.12C151,38.52,151.08,38.36,151.27,38.36Z"/><path class="cls-2" d="M167.35,33.61l.6-.12c.23-.14.53-.07.73-.28l.37-.07c.27-.14.57-.15.84-.26l.63-.16c.17,0,.29-.2.48-.2l.61-.12c.22-.14.53-.08.72-.28l.75-.13c.17,0,.29-.2.48-.21l.62-.15c.36,0,.76-.24,1,.2a.75.75,0,0,0,.11.65,5.61,5.61,0,0,0,.26.79.79.79,0,0,0,.11.67c.33.82-.4.82-.82,1.06h0c-.31.34-.81.09-1.16.35l-.16,0-.12.11a3.53,3.53,0,0,1-.85.28l-.13,0-.11.09c-.3.33-.8,0-1.1.35h0c-.34.33-.83.11-1.2.33l-.14,0-.11.1a4.17,4.17,0,0,1-.84.29l-.14,0-.11.09c-.33.32-.82.08-1.18.33l-.16,0-.12.1a4.26,4.26,0,0,1-.85.29l-.14,0-.11.1c-.49.16-1,.33-1.43-.11a.26.26,0,0,0-.05-.29c-.25-.38-.09-.86-.29-1.25l-.11-.58a.65.65,0,0,1,0-.73l0,0c.22-.17.53-.11.74-.31l.37-.08c.22-.15.52-.08.72-.29l.75-.12C167,33.77,167.16,33.62,167.35,33.61Z"/><path class="cls-3" d="M254.18,8l.37-.08a8.16,8.16,0,0,1,.84-.26l.63-.15c.17,0,.29-.21.48-.21l.61-.12c.22-.14.52-.08.72-.28l.75-.13c.17,0,.29-.2.48-.2l.61-.16a.78.78,0,0,1,.71.07l0,0c.18.24.15.56.31.8a.79.79,0,0,0,.11.67,5.7,5.7,0,0,0,.25.8v.56c-.13.31-.5.23-.7.43h0c-.32.34-.81.09-1.16.34l-.16,0-.12.11a3.85,3.85,0,0,1-.85.28l-.13,0-.11.09c-.3.33-.8,0-1.11.35h0c-.34.34-.83.11-1.2.34l-.14,0-.11.09c-.31.28-.79,0-1.09.32h0c-.32.34-.81.09-1.16.35l-.16,0-.13.11a3.61,3.61,0,0,1-.84.28l-.14,0-.11.09c-.9.43-1.54.25-1.8-.79a.28.28,0,0,0-.05-.31c-.25-.38-.09-.85-.29-1.25a.89.89,0,0,1,.33-.66c.17-.07.3-.22.49-.22l.6-.12c.23-.14.53-.08.73-.28l.74-.13c.17,0,.3-.2.49-.21l.61-.15C253.7,8.16,254,8.2,254.18,8Z"/><path class="cls-4" d="M122.77,46.76l.62-.16c.24-.08.52,0,.72-.24l.36-.07a8.34,8.34,0,0,1,.85-.26l.62-.16c.17,0,.3-.2.49-.2l.6-.12c.23-.14.53-.08.73-.28l.74-.13c.17,0,.3-.2.49-.2l.61-.16c.24-.09.52-.05.72-.24l.37-.08c.22-.15.52-.08.72-.29.4,0,.87-.11,1.13.36s0,.8.32,1.12a.29.29,0,0,0,0,.34c.13.49.34,1-.15,1.41l-.15,0-.11.1a4.26,4.26,0,0,1-.85.29l-.14,0-.11.1c-.32.27-.79,0-1.1.31h0c-.32.35-.82.09-1.16.35l-.16,0-.13.11a3.61,3.61,0,0,1-.84.28l-.14,0-.11.09c-.3.33-.79,0-1.1.35h0c-.34.33-.83.11-1.2.33a7.9,7.9,0,0,0-2.81.81c-.49.14-.58-.2-.67-.55l-.08-.57c-.27-.34,0-.82-.32-1.16a.27.27,0,0,0,0-.3c-.18-.26-.2-.5.09-.7l.68-.14C122.46,46.92,122.58,46.77,122.77,46.76Z"/><path class="cls-4" d="M213.26,20.06l.37-.07c.26-.14.57-.15.84-.27l.63-.15c.24-.08.51,0,.71-.24l.37-.07c.22-.16.53-.09.73-.29h.7c.25.18.17.53.38.74a.27.27,0,0,0,.06.34c.24.33,0,.8.3,1.12a.3.3,0,0,0,.06.34c.14.28.2.54-.18.67h-.14l-.1.09a3.22,3.22,0,0,1-.84.29l-.15,0-.1.1c-.32.28-.79,0-1.1.31h0c-.34.33-.83.11-1.2.33l-.14,0-.11.1a4.06,4.06,0,0,1-.85.29l-.13,0-.11.09c-.33.32-.83.08-1.18.33l-.16,0-.13.1a4.17,4.17,0,0,1-.84.29l-.15,0-.1.1c-.32.27-.79,0-1.1.31h0c-.32.35-.82.09-1.16.35l-.16,0-.13.11c-.27.17-.51.2-.7-.12a.23.23,0,0,0-.08-.28,6.82,6.82,0,0,1-.26-.88l-.08-.58a1.41,1.41,0,0,1,.05-1.43l.73-.14c.17,0,.29-.2.48-.2l.62-.16c.24-.09.51,0,.71-.24l.37-.08c.22-.15.53-.08.73-.29l.74-.12c.17-.05.3-.21.48-.21l.61-.12C212.75,20.2,213.06,20.26,213.26,20.06Z"/><path class="cls-5" d="M249.81,11.58c.28,1,1,.9,1.8.79C250.22,13,250,12.92,249.81,11.58Z"/><path class="cls-5" d="M79.21,61.9c.23.65.57,1.16,1.4.91C79.39,63.32,79.29,63.26,79.21,61.9Z"/><path class="cls-5" d="M185.87,30.58c.29.6.69,1,1.42.77C186.17,31.94,186,31.86,185.87,30.58Z"/><path class="cls-5" d="M68.44,66.39c.62-.3.55-.86.53-1.41C69.46,66,69.43,66.11,68.44,66.39Z"/><path class="cls-5" d="M281.49,3.57c.34-.32,1.07-.29.89-1C282.72,3.49,282.69,3.53,281.49,3.57Z"/><path class="cls-5" d="M154.05,38.71c-.35-.29-.27-1.14-1.08-.82C153.88,37.49,154,37.56,154.05,38.71Z"/><path class="cls-5" d="M174.88,35c.27-.36,1-.34.82-1.06C176.07,34.84,176,34.94,174.88,35Z"/><path class="cls-5" d="M271.47,2.92c-.68.28-.51.88-.52,1.41C270.43,3.3,270.47,3.2,271.47,2.92Z"/><path class="cls-5" d="M207.06,21.9c0,.48,0,1-.05,1.43C206.55,22.84,206.48,22.36,207.06,21.9Z"/><path class="cls-5" d="M239.42,16a3,3,0,0,0,.18-1.41C240,15.1,240.17,15.6,239.42,16Z"/><path class="cls-5" d="M271.37,6.08a3.57,3.57,0,0,0,1.42.06C272.29,6.69,271.82,6.73,271.37,6.08Z"/><path class="cls-5" d="M100.51,53.34c-.3.43-.16.93-.18,1.41C99.87,54.21,99.73,53.71,100.51,53.34Z"/><path class="cls-5" d="M58,68.94a1.17,1.17,0,0,0,1,.4C58.39,70,58.09,69.72,58,68.94Z"/><path class="cls-5" d="M132.76,47.4c.42-.43.06-.95.15-1.41C133.34,46.51,133.48,47,132.76,47.4Z"/><path class="cls-5" d="M164.68,37.5c.46.31,1,0,1.43.11C165.6,38.07,165.11,38.16,164.68,37.5Z"/><path class="cls-5" d="M130.3,48.15a1.13,1.13,0,0,1,1.1-.31C131.12,48.24,130.7,48.17,130.3,48.15Z"/><path class="cls-5" d="M132.86,45.65a1.32,1.32,0,0,1-.32-1.12C132.94,44.82,132.86,45.24,132.86,45.65Z"/><path class="cls-5" d="M276.45,5a1.13,1.13,0,0,1,1.1-.31C277.27,5.13,276.85,5.06,276.45,5Z"/><path class="cls-5" d="M145.21,43.75a1.61,1.61,0,0,1,1.16-.35C146.09,43.88,145.63,43.77,145.21,43.75Z"/><path class="cls-5" d="M271,4.64c.38.31.33.74.32,1.15C270.9,5.5,271,5.06,271,4.64Z"/><path class="cls-5" d="M146.38,43.4a1.13,1.13,0,0,1,1.1-.31C147.2,43.49,146.78,43.42,146.38,43.4Z"/><path class="cls-5" d="M147.73,43c.32-.39.77-.31,1.19-.34C148.63,43.16,148.16,43,147.73,43Z"/><path class="cls-5" d="M148.94,42.67a1.18,1.18,0,0,1,1.1-.35C149.77,42.76,149.35,42.69,148.94,42.67Z"/><path class="cls-5" d="M151.42,41.92a1.56,1.56,0,0,1,1.16-.34C152.3,42.06,151.85,42,151.42,41.92Z"/><path class="cls-5" d="M152.59,41.57a1.17,1.17,0,0,1,1.1-.31C153.41,41.67,153,41.59,152.59,41.57Z"/><path class="cls-5" d="M277.8,4.65c.32-.39.77-.31,1.2-.33C278.7,4.8,278.24,4.68,277.8,4.65Z"/><path class="cls-5" d="M279,4.31a1.2,1.2,0,0,1,1.1-.35C279.85,4.4,279.42,4.33,279,4.31Z"/><path class="cls-5" d="M154.41,40.17a1.28,1.28,0,0,1-.3-1.12C154.5,39.34,154.42,39.76,154.41,40.17Z"/><path class="cls-5" d="M167.49,37.17a1.58,1.58,0,0,1,1.18-.33C168.38,37.29,167.93,37.2,167.49,37.17Z"/><path class="cls-5" d="M170,36.43c.32-.39.78-.31,1.2-.33C170.92,36.59,170.45,36.46,170,36.43Z"/><path class="cls-5" d="M164.34,36a1.6,1.6,0,0,1,.29,1.25C164.19,36.87,164.31,36.41,164.34,36Z"/><path class="cls-5" d="M171.23,36.1a1.16,1.16,0,0,1,1.1-.35C172.06,36.18,171.64,36.11,171.23,36.1Z"/><path class="cls-5" d="M173.7,35.35a1.65,1.65,0,0,1,1.17-.35C174.59,35.48,174.13,35.37,173.7,35.35Z"/><path class="cls-5" d="M175.22,31.83l-1-.2C174.6,31.28,175,31.24,175.22,31.83Z"/><path class="cls-5" d="M187.3,31.35a1.16,1.16,0,0,1,1.1-.32C188.12,31.44,187.7,31.36,187.3,31.35Z"/><path class="cls-5" d="M68.54,63.21c-.33-.23-.71-.1-1.06-.12C67.88,62.69,68.25,62.66,68.54,63.21Z"/><path class="cls-5" d="M189.78,30.6a1.49,1.49,0,0,1,1.18-.33C190.66,30.72,190.21,30.63,189.78,30.6Z"/><path class="cls-5" d="M192.3,29.86c.32-.39.77-.32,1.2-.34C193.2,30,192.74,29.89,192.3,29.86Z"/><path class="cls-5" d="M193.51,29.52a1.16,1.16,0,0,1,1.1-.32C194.33,29.61,193.91,29.54,193.51,29.52Z"/><path class="cls-5" d="M185.5,29.12c.38.31.33.73.32,1.15C185.4,30,185.49,29.53,185.5,29.12Z"/><path class="cls-5" d="M196,28.77l1.13-.49C197,28.91,196.45,28.79,196,28.77Z"/><path class="cls-5" d="M208.42,25.12a1.61,1.61,0,0,1,1.16-.35C209.3,25.25,208.84,25.14,208.42,25.12Z"/><path class="cls-5" d="M100.75,56.49l1,.06C101.4,57.06,101.06,57.05,100.75,56.49Z"/><path class="cls-5" d="M209.59,24.77a1.12,1.12,0,0,1,1.1-.31C210.41,24.86,210,24.79,209.59,24.77Z"/><path class="cls-5" d="M249.47,10c.36.36.29.81.29,1.25C249.32,10.94,249.44,10.47,249.47,10Z"/><path class="cls-5" d="M212.07,24a1.56,1.56,0,0,1,1.18-.33C213,24.14,212.5,24.05,212.07,24Z"/><path class="cls-5" d="M214.59,23.28c.32-.39.77-.31,1.2-.33C215.49,23.43,215,23.31,214.59,23.28Z"/><path class="cls-5" d="M215.8,22.94a1.15,1.15,0,0,1,1.1-.31C216.62,23,216.2,23,215.8,22.94Z"/><path class="cls-5" d="M218.35,21.17a1.3,1.3,0,0,1-.3-1.12C218.44,20.34,218.36,20.77,218.35,21.17Z"/><path class="cls-5" d="M228.65,18.43l.68.51C228.52,19.53,228.7,18.83,228.65,18.43Z"/><path class="cls-5" d="M230.7,18.54a1.58,1.58,0,0,1,1.16-.34C231.58,18.68,231.13,18.57,230.7,18.54Z"/><path class="cls-5" d="M231.88,18.19a1.16,1.16,0,0,1,1.09-.31C232.69,18.29,232.28,18.21,231.88,18.19Z"/><path class="cls-5" d="M233.22,17.8c.32-.39.78-.31,1.2-.33C234.13,18,233.66,17.83,233.22,17.8Z"/><path class="cls-5" d="M234.44,17.46a1.18,1.18,0,0,1,1.1-.34C235.27,17.55,234.85,17.48,234.44,17.46Z"/><path class="cls-5" d="M236.88,16.71c.32-.39.77-.32,1.19-.34C237.78,16.86,237.31,16.73,236.88,16.71Z"/><path class="cls-5" d="M238.09,16.37a1.15,1.15,0,0,1,1.1-.32C238.91,16.46,238.49,16.39,238.09,16.37Z"/><path class="cls-5" d="M239.55,14.23a1.28,1.28,0,0,1-.31-1.12C239.63,13.4,239.55,13.83,239.55,14.23Z"/><path class="cls-5" d="M259.2,10.14a1.58,1.58,0,0,1,1.16-.34C260.08,10.27,259.63,10.17,259.2,10.14Z"/><path class="cls-5" d="M253,12a1.62,1.62,0,0,1,1.16-.35C253.87,12.1,253.42,12,253,12Z"/><path class="cls-5" d="M100.37,55.05c.38.31.33.74.32,1.16C100.27,55.91,100.36,55.47,100.37,55.05Z"/><path class="cls-5" d="M254.17,11.62a1.13,1.13,0,0,1,1.09-.32C255,11.71,254.57,11.64,254.17,11.62Z"/><path class="cls-5" d="M255.51,11.23c.32-.39.77-.32,1.2-.34C256.41,11.38,256,11.26,255.51,11.23Z"/><path class="cls-5" d="M256.72,10.89a1.21,1.21,0,0,1,1.11-.35C257.56,11,257.13,10.91,256.72,10.89Z"/><path class="cls-5" d="M68.92,64.64a1.27,1.27,0,0,1-.31-1.12C69,63.82,68.92,64.24,68.92,64.64Z"/><path class="cls-5" d="M110.5,54a2,2,0,0,1,1.14-.39C111.4,54.12,110.93,54,110.5,54Z"/><path class="cls-5" d="M67.07,66.78a1.19,1.19,0,0,1,1.12-.31C67.9,66.88,67.48,66.8,67.07,66.78Z"/><path class="cls-5" d="M57.65,67.38a1.59,1.59,0,0,1,.29,1.25C57.5,68.29,57.62,67.82,57.65,67.38Z"/><path class="cls-5" d="M36.46,74.32c.37.34.25.82.34,1.24C36.3,75.25,36.43,74.77,36.46,74.32Z"/><path class="cls-5" d="M9.36,75.6c-.22-.18-.37-.47-.72-.46C9.28,74.67,9.31,75.15,9.36,75.6Z"/><path class="cls-5" d="M25.8,75.94l-1.07-.06C25.11,75.48,25.47,75.46,25.8,75.94Z"/><path class="cls-5" d="M36.79,75.53l1.07.07C37.48,76,37.12,76.06,36.79,75.53Z"/><path class="cls-5" d="M9.72,77.07a1.32,1.32,0,0,1-.3-1.13C9.81,76.24,9.73,76.66,9.72,77.07Z"/><path class="cls-5" d="M26.17,77.06A1.6,1.6,0,0,1,25.81,76C26.26,76.21,26.17,76.65,26.17,77.06Z"/><path class="cls-5" d="M26.53,78.53a1.33,1.33,0,0,1-.31-1.13C26.62,77.7,26.54,78.12,26.53,78.53Z"/><path class="cls-5" d="M24.33,79.57a1.17,1.17,0,0,1,1.11-.32C25.16,79.66,24.73,79.58,24.33,79.57Z"/><path class="cls-5" d="M.19,85.06c0,.36.28.5.5.7C.23,85.74-.29,85.76.19,85.06Z"/><path class="cls-5" d="M1,85.83a1.12,1.12,0,0,1,1.1.31C1.67,86.16,1.25,86.23,1,85.83Z"/><path class="cls-5" d="M2.09,86.15c.42,0,.87-.06,1.2.33C2.85,86.51,2.38,86.63,2.09,86.15Z"/><path class="cls-5" d="M3.53,86.52a1.38,1.38,0,0,1,1.22.33C4.3,86.88,3.84,87,3.53,86.52Z"/><path class="cls-5" d="M12.28,87.66A1.23,1.23,0,0,1,12,86.54C12.37,86.85,12.29,87.26,12.28,87.66Z"/><path class="cls-5" d="M5,86.89c.43,0,.89-.07,1.22.32C5.76,87.25,5.3,87.35,5,86.89Z"/><path class="cls-5" d="M122,49.84c.24.16.33.51.67.55C121.84,50.91,122,50.26,122,49.84Z"/><path class="cls-5" d="M272.8,6.14a1.15,1.15,0,0,1,1.1-.32C273.62,6.23,273.2,6.16,272.8,6.14Z"/><path class="cls-5" d="M125.44,49.58c.32-.39.77-.31,1.2-.33C126.34,49.74,125.88,49.61,125.44,49.58Z"/><path class="cls-5" d="M126.65,49.25a1.2,1.2,0,0,1,1.1-.35C127.49,49.33,127.06,49.26,126.65,49.25Z"/><path class="cls-5" d="M129.13,48.5a1.62,1.62,0,0,1,1.16-.35C130,48.63,129.56,48.52,129.13,48.5Z"/><path class="cls-5" d="M275.28,5.39a1.56,1.56,0,0,1,1.16-.34C276.16,5.53,275.71,5.42,275.28,5.39Z"/><path class="cls-5" d="M121.56,48.11c.38.31.33.74.32,1.16C121.46,49,121.55,48.53,121.56,48.11Z"/><path class="cls-5" d="M21.8,76.69a.71.71,0,0,1-.73.29A.72.72,0,0,1,21.8,76.69Z"/><path class="cls-5" d="M280.12.33a.67.67,0,0,1-.73.29A.76.76,0,0,1,280.12.33Z"/><path class="cls-6" d="M277.68,1.09a1,1,0,0,1-.84.26A.83.83,0,0,1,277.68,1.09Z"/><path class="cls-5" d="M282.28,1.85c-.33-.18-.29-.49-.26-.79A.84.84,0,0,1,282.28,1.85Z"/><path class="cls-6" d="M276.47,1.43a.67.67,0,0,1-.73.28A.78.78,0,0,1,276.47,1.43Z"/><path class="cls-6" d="M273.91,2.16a.68.68,0,0,1-.73.29A.76.76,0,0,1,273.91,2.16Z"/><path class="cls-6" d="M272.81,2.53a.69.69,0,0,1-.71.24A.76.76,0,0,1,272.81,2.53Z"/><path class="cls-5" d="M280.36,3.92c.2-.32.52-.31.84-.29A.76.76,0,0,1,280.36,3.92Z"/><path class="cls-5" d="M274.15,5.75a.78.78,0,0,1,.84-.29A.79.79,0,0,1,274.15,5.75Z"/><path class="cls-5" d="M260.38,6.49l-.71-.07C259.94,6.11,260.18,6.16,260.38,6.49Z"/><path class="cls-5" d="M260.72,7.33c-.34-.17-.26-.51-.31-.8A.76.76,0,0,1,260.72,7.33Z"/><path class="cls-6" d="M257.83,6.91a.65.65,0,0,1-.72.28A.77.77,0,0,1,257.83,6.91Z"/><path class="cls-6" d="M255.39,7.67a1,1,0,0,1-.84.26A.81.81,0,0,1,255.39,7.67Z"/><path class="cls-6" d="M254.18,8a.71.71,0,0,1-.72.24A.78.78,0,0,1,254.18,8Z"/><path class="cls-5" d="M261.08,8.8c-.32-.19-.28-.5-.25-.8A.82.82,0,0,1,261.08,8.8Z"/><path class="cls-6" d="M251.62,8.74a.67.67,0,0,1-.73.28A.74.74,0,0,1,251.62,8.74Z"/><path class="cls-5" d="M260.38,9.79l.7-.43C261,9.73,260.71,9.8,260.38,9.79Z"/><path class="cls-5" d="M258.07,10.49a.81.81,0,0,1,.85-.28A.77.77,0,0,1,258.07,10.49Z"/><path class="cls-5" d="M251.86,12.32c.21-.32.52-.31.84-.28A.77.77,0,0,1,251.86,12.32Z"/><path class="cls-5" d="M239.17,12.8l-.7-.12C238.77,12.34,239,12.38,239.17,12.8Z"/><path class="cls-5" d="M238.1,12.76a.69.69,0,0,1-.71.24A.73.73,0,0,1,238.1,12.76Z"/><path class="cls-6" d="M235.54,13.49a.68.68,0,0,1-.72.28A.73.73,0,0,1,235.54,13.49Z"/><path class="cls-6" d="M233.1,14.25a1.07,1.07,0,0,1-.84.26A.79.79,0,0,1,233.1,14.25Z"/><path class="cls-6" d="M231.89,14.58a.69.69,0,0,1-.71.24A.78.78,0,0,1,231.89,14.58Z"/><path class="cls-5" d="M229.33,15.31a.65.65,0,0,1-.72.28A.74.74,0,0,1,229.33,15.31Z"/><path class="cls-5" d="M228.25,15.68c0,.23-.05.47-.08.7C227.85,16.11,227.86,15.87,228.25,15.68Z"/><path class="cls-5" d="M235.78,17.07c.21-.32.52-.31.85-.29A.78.78,0,0,1,235.78,17.07Z"/><path class="cls-5" d="M228.28,17a.84.84,0,0,1,.26.87A.84.84,0,0,1,228.28,17Z"/><path class="cls-5" d="M229.57,18.9a.8.8,0,0,1,.85-.29A.78.78,0,0,1,229.57,18.9Z"/><path class="cls-5" d="M216.91,19a.71.71,0,0,1-.73.29A.72.72,0,0,1,216.91,19Z"/><path class="cls-5" d="M218,19.71c-.13-.25-.25-.5-.38-.74C217.94,19.11,218,19.4,218,19.71Z"/><path class="cls-6" d="M215.81,19.33a.69.69,0,0,1-.71.24A.76.76,0,0,1,215.81,19.33Z"/><path class="cls-6" d="M214.47,19.72a1,1,0,0,1-.84.27A.81.81,0,0,1,214.47,19.72Z"/><path class="cls-6" d="M213.26,20.06a.67.67,0,0,1-.73.28A.78.78,0,0,1,213.26,20.06Z"/><path class="cls-6" d="M210.7,20.79a.68.68,0,0,1-.73.29A.76.76,0,0,1,210.7,20.79Z"/><path class="cls-6" d="M209.6,21.16a.69.69,0,0,1-.71.24A.76.76,0,0,1,209.6,21.16Z"/><path class="cls-5" d="M218.23,22.18l.18-.67C218.76,21.84,218.7,22.07,218.23,22.18Z"/><path class="cls-5" d="M217.15,22.55c.2-.32.52-.31.84-.29A.76.76,0,0,1,217.15,22.55Z"/><path class="cls-5" d="M213.49,23.65a.8.8,0,0,1,.85-.29A.8.8,0,0,1,213.49,23.65Z"/><path class="cls-5" d="M207.09,23.91a.85.85,0,0,1,.26.88A.86.86,0,0,1,207.09,23.91Z"/><path class="cls-5" d="M210.94,24.38a.78.78,0,0,1,.84-.29A.77.77,0,0,1,210.94,24.38Z"/><path class="cls-5" d="M207.43,25.07l.7.12C207.83,25.55,207.6,25.51,207.43,25.07Z"/><path class="cls-6" d="M194.62,25.54a.67.67,0,0,1-.72.29A.74.74,0,0,1,194.62,25.54Z"/><path class="cls-5" d="M196.78,26.33c-.33-.19-.28-.5-.26-.79A.83.83,0,0,1,196.78,26.33Z"/><path class="cls-6" d="M193.53,25.91a.71.71,0,0,1-.72.24A.78.78,0,0,1,193.53,25.91Z"/><path class="cls-6" d="M192.18,26.3a1,1,0,0,1-.84.26A.81.81,0,0,1,192.18,26.3Z"/><path class="cls-6" d="M191,26.64a.67.67,0,0,1-.73.28A.73.73,0,0,1,191,26.64Z"/><path class="cls-5" d="M197.14,27.79c-.32-.19-.28-.49-.25-.79A.8.8,0,0,1,197.14,27.79Z"/><path class="cls-6" d="M188.41,27.37a.69.69,0,0,1-.73.29A.74.74,0,0,1,188.41,27.37Z"/><path class="cls-6" d="M187.31,27.73a.69.69,0,0,1-.71.24A.79.79,0,0,1,187.31,27.73Z"/><path class="cls-5" d="M194.86,29.13a.8.8,0,0,1,.85-.29A.8.8,0,0,1,194.86,29.13Z"/><path class="cls-5" d="M191.21,30.22a.79.79,0,0,1,.84-.28A.78.78,0,0,1,191.21,30.22Z"/><path class="cls-5" d="M188.65,31a.8.8,0,0,1,.84-.28A.77.77,0,0,1,188.65,31Z"/><path class="cls-6" d="M172.33,32.12a.66.66,0,0,1-.72.28A.73.73,0,0,1,172.33,32.12Z"/><path class="cls-5" d="M175.59,33.27c-.33-.19-.28-.49-.26-.79A.83.83,0,0,1,175.59,33.27Z"/><path class="cls-6" d="M169.89,32.88a1,1,0,0,1-.84.26A.79.79,0,0,1,169.89,32.88Z"/><path class="cls-6" d="M168.68,33.21a.65.65,0,0,1-.73.28A.78.78,0,0,1,168.68,33.21Z"/><path class="cls-6" d="M166.12,33.94a.67.67,0,0,1-.72.29A.74.74,0,0,1,166.12,33.94Z"/><path class="cls-6" d="M165,34.31c-.18.27-.48.23-.74.31A.75.75,0,0,1,165,34.31Z"/><path class="cls-5" d="M164.26,34.65l0,.73C163.9,35.13,163.92,34.88,164.26,34.65Z"/><path class="cls-5" d="M172.57,35.7c.21-.32.52-.31.85-.28A.79.79,0,0,1,172.57,35.7Z"/><path class="cls-5" d="M168.92,36.8a.79.79,0,0,1,.84-.29A.76.76,0,0,1,168.92,36.8Z"/><path class="cls-5" d="M166.36,37.53a.8.8,0,0,1,.85-.29A.78.78,0,0,1,166.36,37.53Z"/><path class="cls-5" d="M152.61,38a.71.71,0,0,1-.72.24A.77.77,0,0,1,152.61,38Z"/><path class="cls-5" d="M150.05,38.69a.66.66,0,0,1-.73.28A.75.75,0,0,1,150.05,38.69Z"/><path class="cls-5" d="M147.61,39.45a1,1,0,0,1-.85.26A.82.82,0,0,1,147.61,39.45Z"/><path class="cls-5" d="M146.39,39.79a.69.69,0,0,1-.71.24A.76.76,0,0,1,146.39,39.79Z"/><path class="cls-5" d="M143.84,40.52a.72.72,0,0,1-.73.3A.72.72,0,0,1,143.84,40.52Z"/><path class="cls-5" d="M142.78,41.44a.86.86,0,0,1,.26.88A.86.86,0,0,1,142.78,41.44Z"/><path class="cls-5" d="M150.28,42.28a.8.8,0,0,1,.85-.29A.78.78,0,0,1,150.28,42.28Z"/><path class="cls-5" d="M143.15,42.9c.3.23.28.56.29.89A.82.82,0,0,1,143.15,42.9Z"/><path class="cls-5" d="M144.07,44.1a.81.81,0,0,1,.85-.28A.77.77,0,0,1,144.07,44.1Z"/><path class="cls-5" d="M131.41,44.17a.67.67,0,0,1-.72.29A.72.72,0,0,1,131.41,44.17Z"/><path class="cls-5" d="M130.32,44.54a.71.71,0,0,1-.72.24A.78.78,0,0,1,130.32,44.54Z"/><path class="cls-5" d="M127.76,45.27a.65.65,0,0,1-.73.28A.73.73,0,0,1,127.76,45.27Z"/><path class="cls-5" d="M125.32,46a1.05,1.05,0,0,1-.85.26A.81.81,0,0,1,125.32,46Z"/><path class="cls-5" d="M124.11,46.36a.71.71,0,0,1-.72.24A.77.77,0,0,1,124.11,46.36Z"/><path class="cls-5" d="M121.61,47.11l-.09.7C121.17,47.53,121.17,47.29,121.61,47.11Z"/><path class="cls-5" d="M131.65,47.76a.8.8,0,0,1,.85-.29A.78.78,0,0,1,131.65,47.76Z"/><path class="cls-5" d="M128,48.85a.79.79,0,0,1,.84-.28A.78.78,0,0,1,128,48.85Z"/><path class="cls-5" d="M109.13,50.75a.7.7,0,0,1-.73.29A.73.73,0,0,1,109.13,50.75Z"/><path class="cls-5" d="M108,51.11a.7.7,0,0,1-.72.24A.78.78,0,0,1,108,51.11Z"/><path class="cls-5" d="M106.68,51.51a1,1,0,0,1-.84.26A.79.79,0,0,1,106.68,51.51Z"/><path class="cls-5" d="M111.65,52.27c-.33-.19-.28-.5-.26-.8A.86.86,0,0,1,111.65,52.27Z"/><path class="cls-5" d="M105.47,51.84a.67.67,0,0,1-.73.29A.77.77,0,0,1,105.47,51.84Z"/><path class="cls-5" d="M103,52.6a1,1,0,0,1-.84.26A.81.81,0,0,1,103,52.6Z"/><path class="cls-5" d="M101.82,52.94a.71.71,0,0,1-.72.24A.78.78,0,0,1,101.82,52.94Z"/><path class="cls-5" d="M111.61,53.61l.15-.68C112.06,53.24,112,53.47,111.61,53.61Z"/><path class="cls-5" d="M89.5,56.62a.94.94,0,0,1-.83.25A.81.81,0,0,1,89.5,56.62Z"/><path class="cls-5" d="M90.09,57.75c-.33-.19-.28-.5-.27-.8A.83.83,0,0,1,90.09,57.75Z"/><path class="cls-5" d="M86.84,57.32a.68.68,0,0,1-.73.29A.76.76,0,0,1,86.84,57.32Z"/><path class="cls-5" d="M85.74,57.69a.69.69,0,0,1-.71.24A.75.75,0,0,1,85.74,57.69Z"/><path class="cls-5" d="M84.4,58.08a1,1,0,0,1-.85.26A.83.83,0,0,1,84.4,58.08Z"/><path class="cls-5" d="M83.18,58.42a.65.65,0,0,1-.72.28A.74.74,0,0,1,83.18,58.42Z"/><path class="cls-5" d="M90.45,59.21c-.32-.19-.28-.5-.25-.8A.83.83,0,0,1,90.45,59.21Z"/><path class="cls-5" d="M80.63,59.15a.68.68,0,0,1-.73.29A.74.74,0,0,1,80.63,59.15Z"/><path class="cls-5" d="M79.53,59.52l-.72.41A.64.64,0,0,1,79.53,59.52Z"/><path class="cls-5" d="M89.63,60.18c.19-.31.53-.31.82-.41C90.31,60.18,90,60.21,89.63,60.18Z"/><path class="cls-5" d="M78.84,60.44a.86.86,0,0,1,.26.88A.86.86,0,0,1,78.84,60.44Z"/><path class="cls-5" d="M67.11,63.17a.71.71,0,0,1-.72.24A.78.78,0,0,1,67.11,63.17Z"/><path class="cls-5" d="M64.55,63.9a.67.67,0,0,1-.73.29A.74.74,0,0,1,64.55,63.9Z"/><path class="cls-5" d="M63.46,64.26a.67.67,0,0,1-.72.24A.77.77,0,0,1,63.46,64.26Z"/><path class="cls-5" d="M62.11,64.66a1,1,0,0,1-.85.26A.81.81,0,0,1,62.11,64.66Z"/><path class="cls-5" d="M60.9,65a.68.68,0,0,1-.73.28A.73.73,0,0,1,60.9,65Z"/><path class="cls-5" d="M58.34,65.73a1,1,0,0,1-.73.35A.68.68,0,0,1,58.34,65.73Z"/><path class="cls-5" d="M57.6,66.08l-.06.72C57.22,66.53,57.23,66.29,57.6,66.08Z"/><path class="cls-5" d="M46.65,69.38a.67.67,0,0,1-.73.28A.73.73,0,0,1,46.65,69.38Z"/><path class="cls-5" d="M47.34,70.17c-.32-.17-.28-.51-.38-.78C47.32,69.53,47.36,69.84,47.34,70.17Z"/><path class="cls-5" d="M44.09,70.11a.68.68,0,0,1-.73.29A.74.74,0,0,1,44.09,70.11Z"/><path class="cls-5" d="M43,70.48a.69.69,0,0,1-.71.24A.71.71,0,0,1,43,70.48Z"/><path class="cls-5" d="M41.65,70.87a1,1,0,0,1-.85.26A.81.81,0,0,1,41.65,70.87Z"/><path class="cls-5" d="M47.71,71.63c-.33-.19-.28-.5-.26-.8A.86.86,0,0,1,47.71,71.63Z"/><path class="cls-5" d="M40.44,71.21a.68.68,0,0,1-.73.28A.73.73,0,0,1,40.44,71.21Z"/><path class="cls-5" d="M38,72a1,1,0,0,1-.84.26A.78.78,0,0,1,38,72Z"/><path class="cls-5" d="M36.78,72.3l-.7.53C36.14,72.42,36.42,72.3,36.78,72.3Z"/><path class="cls-5" d="M46.88,73c.2-.32.54-.29.84-.35C47.55,73,47.23,73,46.88,73Z"/><path class="cls-5" d="M36.09,72.86a.84.84,0,0,1,.26.88A.86.86,0,0,1,36.09,72.86Z"/><path class="cls-5" d="M24.36,76a.67.67,0,0,1-.73.29A.76.76,0,0,1,24.36,76Z"/><path class="cls-5" d="M20.71,77.05a.71.71,0,0,1-.72.24A.77.77,0,0,1,20.71,77.05Z"/><path class="cls-5" d="M19.36,77.45a1,1,0,0,1-.84.26A.77.77,0,0,1,19.36,77.45Z"/><path class="cls-5" d="M10.07,78.57c-.33-.19-.28-.49-.25-.8A.83.83,0,0,1,10.07,78.57Z"/><path class="cls-5" d="M18.15,77.78a.65.65,0,0,1-.73.28A.75.75,0,0,1,18.15,77.78Z"/><path class="cls-5" d="M15.59,78.51l-.7.44C15,78.58,15.26,78.51,15.59,78.51Z"/><path class="cls-5" d="M25.69,79.17c.19-.31.53-.3.82-.4C26.37,79.17,26.05,79.21,25.69,79.17Z"/><path class="cls-5" d="M10.44,80c-.33-.19-.28-.49-.26-.79A.83.83,0,0,1,10.44,80Z"/><path class="cls-5" d="M14.9,79.8a.86.86,0,0,1,.26.88A.86.86,0,0,1,14.9,79.8Z"/><path class="cls-5" d="M10.8,81.49c-.32-.18-.28-.49-.25-.79A.81.81,0,0,1,10.8,81.49Z"/><path class="cls-5" d="M3.2,81.44c-.05.27-.12.53-.43.63A.64.64,0,0,1,3.2,81.44Z"/><path class="cls-5" d="M15.27,81.26l.45.84C15.27,82,15.24,81.63,15.27,81.26Z"/><path class="cls-5" d="M15.83,82.1a.78.78,0,0,1,.84-.29A.76.76,0,0,1,15.83,82.1Z"/><path class="cls-5" d="M11.17,83c-.33-.19-.28-.5-.26-.8A.85.85,0,0,1,11.17,83Z"/><path class="cls-5" d="M11.53,84.42c-.32-.19-.28-.5-.25-.8A.82.82,0,0,1,11.53,84.42Z"/><path class="cls-5" d="M11.9,85.88c-.33-.19-.28-.5-.26-.8A.83.83,0,0,1,11.9,85.88Z"/><path class="cls-5" d="M12.16,88.67l.18-.67C12.69,88.33,12.63,88.56,12.16,88.67Z"/><path class="cls-5" d="M151.27,38.36a.46.46,0,0,1-.48.21Z"/><path class="cls-5" d="M148.72,39.09a.48.48,0,0,1-.49.21Z"/><path class="cls-5" d="M145.06,40.19a.44.44,0,0,1-.48.2Z"/><path class="cls-5" d="M153.93,41.18l.47-.39A.53.53,0,0,1,153.93,41.18Z"/><path class="cls-6" d="M259.06,6.58a.44.44,0,0,1-.48.2Z"/><path class="cls-5" d="M143.46,43.83l.46.28Z"/><path class="cls-6" d="M256.5,7.31a.46.46,0,0,1-.48.21Z"/><path class="cls-5" d="M129,44.94a.46.46,0,0,1-.49.2Z"/><path class="cls-5" d="M126.43,45.67a.46.46,0,0,1-.49.2Z"/><path class="cls-6" d="M252.85,8.4a.46.46,0,0,1-.49.21Z"/><path class="cls-5" d="M122.77,46.76a.44.44,0,0,1-.48.21Z"/><path class="cls-5" d="M250.29,9.14a.52.52,0,0,1-.49.22Z"/><path class="cls-5" d="M110.35,50.42a.44.44,0,0,1-.48.2Z"/><path class="cls-5" d="M111.28,50.81l-.36-.43A.55.55,0,0,1,111.28,50.81Z"/><path class="cls-5" d="M104.14,52.24a.44.44,0,0,1-.48.21Z"/><path class="cls-5" d="M88.06,57a.46.46,0,0,1-.48.21Z"/><path class="cls-6" d="M236.77,13.15a.44.44,0,0,1-.48.21Z"/><path class="cls-5" d="M81.85,58.82a.46.46,0,0,1-.48.21Z"/><path class="cls-6" d="M234.21,13.88a.44.44,0,0,1-.48.21Z"/><path class="cls-6" d="M230.56,15a.46.46,0,0,1-.48.21Z"/><path class="cls-5" d="M65.78,63.57a.48.48,0,0,1-.49.21Z"/><path class="cls-5" d="M59.56,65.39a.44.44,0,0,1-.48.21Z"/><path class="cls-5" d="M45.32,69.78a.48.48,0,0,1-.49.21Z"/><path class="cls-6" d="M211.92,20.46a.46.46,0,0,1-.48.21Z"/><path class="cls-5" d="M39.1,71.61a.45.45,0,0,1-.48.2Z"/><path class="cls-5" d="M47.7,72.63a1.89,1.89,0,0,1,.09-.34c.13.07.16.17.07.27S47.76,72.61,47.7,72.63Z"/><path class="cls-6" d="M208.27,21.56a.45.45,0,0,1-.48.2Z"/><path class="cls-5" d="M8.57,75.2a.35.35,0,0,1-.3.31Z"/><path class="cls-5" d="M8.23,75.56a.37.37,0,0,1-.3.4Z"/><path class="cls-5" d="M7.93,76a.39.39,0,0,1-.36.38Z"/><path class="cls-5" d="M7.58,76.33a.5.5,0,0,1-.36.43A.53.53,0,0,1,7.58,76.33Z"/><path class="cls-5" d="M23,76.35a.46.46,0,0,1-.49.21Z"/><path class="cls-5" d="M7.05,77.05c0,.18-.08.25-.25.26Z"/><path class="cls-6" d="M195.85,25.21a.46.46,0,0,1-.48.21Z"/><path class="cls-5" d="M6.73,77.39a.29.29,0,0,1-.29.29Z"/><path class="cls-5" d="M6.36,77.76l-.27.35Z"/><path class="cls-5" d="M6.07,78.13a.35.35,0,0,1-.33.4Z"/><path class="cls-5" d="M16.82,78.18a.48.48,0,0,1-.49.21Z"/><path class="cls-5" d="M5.76,78.52a.45.45,0,0,1-.38.38A.51.51,0,0,1,5.76,78.52Z"/><path class="cls-5" d="M5.39,78.88a.51.51,0,0,1-.37.44A.54.54,0,0,1,5.39,78.88Z"/><path class="cls-5" d="M281.35,0a.46.46,0,0,1-.49.21Z"/><path class="cls-6" d="M189.64,27a.47.47,0,0,1-.49.2Z"/><path class="cls-5" d="M4.86,79.61c0,.17-.08.25-.25.26Z"/><path class="cls-5" d="M4.53,80a.32.32,0,0,1-.28.31Z"/><path class="cls-5" d="M281.91.4l-.49-.4A.55.55,0,0,1,281.91.4Z"/><path class="cls-5" d="M4.21,80.31a.37.37,0,0,1-.3.4Z"/><path class="cls-5" d="M3.91,80.7a.38.38,0,0,1-.36.39Z"/><path class="cls-5" d="M3.56,81.08a.41.41,0,0,1-.37.37A.5.5,0,0,1,3.56,81.08Z"/><path class="cls-5" d="M278.79.73a.46.46,0,0,1-.49.21Z"/><path class="cls-5" d="M186,28.13l-.49.38A.56.56,0,0,1,186,28.13Z"/><path class="cls-5" d="M2.71,82.14a.29.29,0,0,1-.29.29Z"/><path class="cls-5" d="M2.34,82.51l-.27.35Z"/><path class="cls-5" d="M2.05,82.88a.34.34,0,0,1-.32.4Z"/><path class="cls-5" d="M1.74,83.27a.45.45,0,0,1-.38.38A.49.49,0,0,1,1.74,83.27Z"/><path class="cls-5" d="M1.37,83.63a.52.52,0,0,1-.36.44A.53.53,0,0,1,1.37,83.63Z"/><path class="cls-5" d="M.84,84.36c0,.17-.08.25-.25.26Z"/><path class="cls-5" d="M.52,84.7A.33.33,0,0,1,.23,85Z"/><path class="cls-6" d="M173.56,31.78a.44.44,0,0,1-.48.21Z"/><path class="cls-6" d="M275.13,1.83a.46.46,0,0,1-.48.21Z"/><path class="cls-6" d="M171,32.52a.45.45,0,0,1-.48.2Z"/><path class="cls-6" d="M167.35,33.61a.46.46,0,0,1-.48.21Z"/></g></g></svg>