<?xml version="1.0" encoding="UTF-8"?>
<svg id="Layer_2" data-name="Layer 2" xmlns="http://www.w3.org/2000/svg" viewBox="0 0 135.26 154.74">
  <defs>
    <style>
      .cls-1, .cls-2 {
        fill: #231f20;
      }

      .cls-2 {
        font-family: LexendDeca-Regular, 'Lexend Deca';
        font-size: 42px;
      }
    </style>
  </defs>
  <g id="Layer_1-2" data-name="Layer 1">
    <path class="cls-1" d="M11.19,65.14l6.73,1.22-11.76,13.9L0,63.12l6.69,1.2c4.24-16.29,12.32-28.32,24.14-35.68,19.93-12.38,42.95-7.12,43.91-6.9l-1.05,4.44c-.22-.05-22.21-5.03-40.49,6.36-10.7,6.66-18.06,17.65-22.01,32.59ZM127.28,106.29h6.83l-9.11,15.77-9.1-15.77h6.82v-61.65h4.57v61.65Z"/>
    <text class="cls-2" transform="translate(78.34 35.7)"><tspan x="0" y="0">1</tspan></text>
    <text class="cls-2" transform="translate(112.24 35.7)"><tspan x="0" y="0">2</tspan></text>
    <g id="Layer_1-2" data-name="Layer 1-2">
      <g>
        <path class="cls-1" d="M64.22,153.92c-9,0-17.16-2.54-24.25-7.54-7.07-4.99-12.71-11.95-16.76-20.69-4.04-8.72-6.09-18.82-6.09-30.04s2.11-21.61,6.27-30.46c4.17-8.87,9.8-15.93,16.75-21,6.98-5.08,14.83-7.66,23.35-7.66,5.17,0,10.18.96,14.88,2.85,4.69,1.89,8.95,4.61,12.65,8.09,3.69,3.47,6.84,7.66,9.36,12.43.93,1.76,1.75,3.61,2.46,5.52l.25-25.01c.01-1.55,1.16-2.82,2.54-2.82h.22c1.4,0,2.54,1.28,2.54,2.85v108.47c0,1.57-1.14,2.85-2.54,2.85h-.56c-1.4,0-2.54-1.28-2.54-2.85v-24.04c-.66,1.65-1.38,3.25-2.18,4.8-2.52,4.92-5.67,9.25-9.36,12.86-3.7,3.62-7.86,6.46-12.36,8.42-4.52,1.97-9.44,2.96-14.63,2.96h0ZM63.86,42.9c-7.92,0-15.05,2.25-21.2,6.7-6.17,4.47-11.04,10.73-14.49,18.63-3.46,7.93-5.21,17.16-5.21,27.43s1.75,19,5.21,26.78c3.45,7.76,8.32,13.96,14.49,18.42,6.14,4.45,13.39,6.7,21.56,6.7,7.19,0,13.8-2.22,19.64-6.59,5.87-4.39,10.56-10.59,13.95-18.42,3.4-7.86,5.12-17.05,5.12-27.32s-1.72-19.24-5.12-27.11c-3.39-7.83-8.08-14.07-13.95-18.53-5.84-4.44-12.57-6.69-20-6.69Z"/>
        <path class="cls-1" d="M63.49,37.36c5.1,0,9.96.93,14.57,2.79,4.61,1.86,8.74,4.5,12.39,7.93,3.64,3.43,6.71,7.5,9.2,12.22,1.7,3.23,3.03,6.7,3.96,10.4l-.05,4.61,1.09.64c-.27-1.8-.62-3.55-1.05-5.25l.3-30.26c.01-1.11.78-2,1.72-2h.22c.95,0,1.72.91,1.72,2.03v108.47c0,1.12-.77,2.03-1.72,2.03h-.56c-.95,0-1.72-.91-1.72-2.03v-28.85c.66-2.14,1.2-4.35,1.64-6.63l-1.64.64v5.99c-.99,3.23-2.24,6.31-3.73,9.23-2.49,4.86-5.56,9.08-9.2,12.64-3.64,3.57-7.68,6.32-12.11,8.25s-9.2,2.89-14.3,2.89c-8.87,0-16.79-2.46-23.77-7.39-6.99-4.93-12.48-11.71-16.49-20.36-4.01-8.64-6.01-18.54-6.01-29.68s2.06-21.33,6.19-30.11c4.13-8.79,9.62-15.68,16.49-20.68,6.86-5,14.48-7.5,22.86-7.5M64.22,148.38c7.41,0,14.12-2.25,20.13-6.75,6.01-4.5,10.75-10.75,14.21-18.75s5.19-17.22,5.19-27.65-1.73-19.43-5.19-27.43-8.2-14.29-14.21-18.86-12.84-6.86-20.49-6.86c-8.14,0-15.37,2.29-21.68,6.86-6.32,4.57-11.24,10.9-14.76,18.97-3.52,8.07-5.28,17.33-5.28,27.76s1.76,19.18,5.28,27.11,8.44,14.18,14.76,18.75c6.31,4.57,13.66,6.86,22.04,6.86M63.49,35.71c-8.7,0-16.72,2.63-23.83,7.82-7.06,5.15-12.78,12.32-17.01,21.31-4.21,8.97-6.35,19.33-6.35,30.81s2.07,21.56,6.16,30.38c4.11,8.87,9.84,15.94,17.03,21.01,7.23,5.11,15.55,7.7,24.72,7.7,5.3,0,10.33-1.02,14.96-3.03,4.6-2,8.84-4.89,12.61-8.59,3.75-3.67,6.95-8.07,9.51-13.07.21-.41.42-.83.62-1.25v20.12c0,2.02,1.51,3.67,3.37,3.67h.56c1.86,0,3.37-1.65,3.37-3.67V40.45c0-2.02-1.51-3.67-3.37-3.67h-.22c-1.84,0-3.35,1.63-3.37,3.63l-.21,21.02c-.3-.65-.62-1.28-.95-1.91-2.57-4.86-5.77-9.11-9.53-12.65-3.77-3.55-8.11-6.33-12.9-8.26-4.8-1.93-9.91-2.91-15.19-2.91h.02ZM64.22,146.73c-7.99,0-15.08-2.2-21.08-6.54-6.05-4.38-10.83-10.46-14.22-18.09-3.41-7.68-5.14-16.57-5.14-26.44s1.73-19.27,5.15-27.1c3.39-7.76,8.17-13.91,14.21-18.29,6-4.34,12.97-6.55,20.71-6.55,7.25,0,13.81,2.19,19.5,6.52,5.76,4.38,10.36,10.5,13.7,18.2,3.36,7.76,5.06,16.77,5.06,26.78s-1.7,19.24-5.06,26.99c-3.33,7.7-7.93,13.78-13.69,18.09-5.69,4.26-12.13,6.42-19.14,6.42h0Z"/>
      </g>
    </g>
  </g>
</svg>