<?xml version="1.0" encoding="UTF-8"?>
<svg id="Layer_2" data-name="Layer 2" xmlns="http://www.w3.org/2000/svg" viewBox="0 0 103.85 138.65">
  <defs>
    <style>
      .cls-1, .cls-2 {
        fill: #231f20;
      }

      .cls-2 {
        font-family: LexendDeca-Regular, 'Lexend Deca';
        font-size: 42px;
      }
    </style>
  </defs>
  <g id="Layer_1-2" data-name="Layer 1">
    <path class="cls-1" d="M38.1,19.18l-17.06,6.37,3-17.96,5.34,4.4C39.93,2.97,54.78-1.31,70.66.35c13.16,1.36,25.02,6.67,29.53,13.23l-3.76,2.58c-3.73-5.43-14.52-10.07-26.24-11.28-14.3-1.46-27.66,2.21-37.22,10.05l5.14,4.24Z"/>
    <text class="cls-2" transform="translate(0 46.19)"><tspan x="0" y="0">1</tspan></text>
    <g id="Layer_1-2" data-name="Layer 1-2">
      <g>
        <path class="cls-1" d="M67.2,137.41c-9.27,0-17.58-2.64-24.72-7.84-7.1-5.18-12.73-12.44-16.74-21.58-3.99-9.09-6.01-19.56-6.01-31.13s2.02-21.71,6.02-30.6c4.01-8.92,9.65-16,16.75-21.03,7.14-5.05,15.45-7.62,24.7-7.62,7.48,0,14.36,1.77,20.43,5.27,5.53,3.18,10.33,7.45,14.27,12.68.93,1.24.94,3.1,0,4.34l-.51.68c-.55.73-1.35,1.14-2.19,1.14s-1.66-.42-2.2-1.16c-2.19-2.96-4.67-5.54-7.38-7.68-3.18-2.51-6.69-4.49-10.44-5.89-3.73-1.39-7.76-2.09-11.99-2.09-7.92,0-15.01,2.22-21.08,6.6-6.1,4.41-11,10.56-14.54,18.3-3.56,7.77-5.42,16.88-5.53,27.08.11,10.32,1.98,19.65,5.54,27.72,3.54,8.02,8.44,14.35,14.54,18.83,6.06,4.45,13.15,6.71,21.07,6.71,4.13,0,8.08-.67,11.74-1.99,3.68-1.32,7.15-3.3,10.32-5.88,2.73-2.22,5.24-4.81,7.44-7.69.54-.71,1.34-1.12,2.17-1.12s1.59.39,2.14,1.07l.45.56c1,1.25,1.01,3.16.03,4.44-4.02,5.2-8.79,9.45-14.19,12.62-5.96,3.5-12.73,5.28-20.09,5.28v-.02Z"/>
        <path class="cls-1" d="M67.2,18.87c7.3,0,13.9,1.7,19.81,5.1,5.41,3.12,10.04,7.23,13.89,12.35.6.8.61,2.03,0,2.83l-.51.68c-.32.43-.76.65-1.19.65s-.87-.22-1.2-.65c-2.27-3.06-4.8-5.7-7.61-7.92-3.3-2.61-6.89-4.63-10.77-6.08s-8.02-2.17-12.42-2.17c-8.23,0-15.49,2.28-21.81,6.84-6.32,4.56-11.29,10.83-14.94,18.79-3.65,7.97-5.53,17.16-5.65,27.59.11,10.57,2,19.98,5.65,28.24,3.65,8.25,8.63,14.7,14.94,19.33,6.31,4.64,13.58,6.95,21.81,6.95,4.28,0,8.34-.69,12.16-2.06,3.82-1.37,7.39-3.4,10.69-6.08,2.82-2.29,5.37-4.93,7.65-7.91.32-.42.75-.63,1.18-.63s.84.2,1.16.6l.45.56c.64.8.64,2.08.01,2.89-3.94,5.1-8.55,9.2-13.83,12.3-5.79,3.4-12.28,5.1-19.46,5.1-9.04,0-17.03-2.53-23.98-7.6-6.95-5.07-12.4-12.09-16.33-21.07-3.94-8.98-5.91-19.19-5.91-30.63s1.97-21.32,5.91-30.08c3.94-8.76,9.38-15.6,16.33-20.53,6.95-4.92,14.94-7.39,23.98-7.39M67.2,16.37c-9.52,0-18.07,2.64-25.42,7.84-7.29,5.16-13.07,12.41-17.17,21.54-4.07,9.05-6.13,19.52-6.13,31.11s2.06,22.38,6.12,31.63c4.1,9.34,9.87,16.77,17.15,22.08,7.35,5.36,15.92,8.08,25.45,8.08,7.59,0,14.57-1.83,20.73-5.45,5.54-3.25,10.43-7.6,14.55-12.93,1.33-1.72,1.31-4.29-.04-5.98l-.45-.56c-.78-.98-1.92-1.54-3.11-1.54s-2.38.59-3.17,1.61c-2.14,2.81-4.58,5.33-7.23,7.48-3.07,2.49-6.42,4.4-9.96,5.67-3.53,1.27-7.33,1.92-11.32,1.92-7.65,0-14.49-2.18-20.33-6.47-5.93-4.35-10.68-10.51-14.14-18.33-3.49-7.9-5.32-17.06-5.43-27.23.11-10.01,1.94-18.94,5.42-26.54,3.45-7.53,8.21-13.52,14.13-17.8,5.85-4.23,12.69-6.37,20.34-6.37,4.08,0,7.96.68,11.55,2.01,3.62,1.35,7.02,3.27,10.1,5.7,2.62,2.07,5.03,4.57,7.15,7.44.78,1.06,1.95,1.67,3.21,1.67s2.41-.6,3.19-1.64l.51-.68c1.27-1.69,1.27-4.14-.01-5.84-4.04-5.36-8.97-9.74-14.64-13.01-6.26-3.58-13.35-5.41-21.05-5.41h0Z"/>
      </g>
    </g>
  </g>
</svg>