<?xml version="1.0" encoding="UTF-8"?>
<svg id="Layer_2" data-name="Layer 2" xmlns="http://www.w3.org/2000/svg" viewBox="0 0 133.78 264.75">
  <defs>
    <style>
      .cls-1, .cls-2, .cls-3 {
        fill: #231f20;
      }

      .cls-2 {
        stroke: #231f20;
        stroke-miterlimit: 10;
        stroke-width: .5px;
      }

      .cls-3 {
        font-family: LexendDeca-Regular, 'Lexend Deca';
        font-size: 42px;
      }
    </style>
  </defs>
  <g id="Layer_1-2" data-name="Layer 1">
    <text class="cls-3" transform="translate(77.85 35.7)"><tspan x="0" y="0">1</tspan></text>
    <path class="cls-1" d="M17.92,69.89l-11.76,13.9L0,66.66l6.69,1.2c4.24-16.29,12.32-28.32,24.14-35.68,19.93-12.38,42.94-7.12,43.91-6.9l-1.05,4.44c-.22-.05-22.2-5.04-40.49,6.36-10.69,6.66-18.06,17.65-22.01,32.59l6.74,1.22ZM119.47,248.49l5.06,4.61-17.35,5.53,3.88-17.79,4.99,4.54c7.05-11.47,6.21-22.59,6.2-22.71V42.89s4.56,0,4.56,0v179.58c.04.37,1.04,12.99-7.33,26.02Z"/>
    <text class="cls-3" transform="translate(110.77 35.7)"><tspan x="0" y="0">2</tspan></text>
    <g id="Layer_1-2" data-name="Layer 1-2">
      <path class="cls-2" d="M105.65,39.92c-1.94,0-3.64.97-4.68,2.44-.1,1.33-.28,2.68-.57,4.06-.12.58-.26,1.15-.39,1.71.46,10.19.26,20.41-.46,30.51-.14,2-.21,3.98-.25,5.96.43,2.93.66,5.96.66,9.05,0,2.11-.11,4.18-.31,6.21.22,4.17.5,8.36.7,12.6.35,7.24.13,14.68-1.8,21.62.48-.64.95-1.29,1.41-1.96v78.96c0,14.53-7.67,42.01-36.72,42.01-26.28,0-28.15-20.47-28.28-22.77-.13-3.15-2.84-5.54-5.94-5.46-3.15.13-5.59,2.79-5.46,5.94.49,11.66,9.42,33.7,39.69,33.7,35.32,0,48.14-31.95,48.14-53.43V45.62c0-3.15-2.56-5.71-5.71-5.71h-.03Z"/>
      <g>
        <path class="cls-1" d="M64.28,161.2c-8.81,0-16.79-2.64-23.73-7.84-6.89-5.16-12.37-12.36-16.31-21.38-3.91-8.97-5.9-19.36-5.9-30.89s2.04-22.22,6.08-31.33c4.05-9.15,9.52-16.45,16.29-21.68,6.83-5.29,14.52-7.97,22.88-7.97,3.89,0,7.75.69,11.45,2.06,3.67,1.35,7.18,3.26,10.43,5.67,3.24,2.4,6.22,5.33,8.86,8.7,2.53,3.23,4.67,6.82,6.37,10.67.08-.7.65-1.27,1.37-1.33h.12c.72,0,1.35.52,1.48,1.24,1.6,9.04,2.62,18.23,3.03,27.32.41,8.81.49,18.36-1.59,28.55-.35,1.72-.72,3.43-1.09,5.15l-.49,2.3c-.15.7-.77,1.19-1.47,1.19h-.16c-.1-.01-.19-.03-.29-.06-1.33,3.35-2.93,6.49-4.77,9.38-3.94,6.2-8.75,11.17-14.27,14.77-5.59,3.65-11.75,5.49-18.32,5.49h.03ZM63.75,47.91c-7.44,0-14.14,2.25-19.91,6.69-5.83,4.48-10.43,10.79-13.7,18.74-3.29,8.02-4.96,17.35-4.96,27.75s1.7,19.21,5.04,27.08c3.32,7.82,7.96,14.05,13.79,18.53,5.76,4.44,12.52,6.69,20.08,6.69,6.73,0,12.93-2.21,18.4-6.56,5.54-4.41,9.98-10.64,13.19-18.53,3.24-7.95,4.88-17.25,4.88-27.65s-1.64-19.48-4.88-27.43c-3.21-7.89-7.65-14.16-13.2-18.64-5.47-4.42-11.78-6.67-18.74-6.67h0Z"/>
        <path class="cls-1" d="M63.58,41.6c3.73,0,7.38.66,10.93,1.97,3.56,1.31,6.91,3.14,10.06,5.47s6.01,5.14,8.57,8.42,4.69,6.89,6.39,10.83c1.05,2.45,1.91,5.01,2.58,7.68l.08-8.59c1.58,8.95,2.59,17.96,3.01,27.12.44,9.66.37,18.76-1.56,28.18-.51,2.49-1.05,4.96-1.58,7.44v-4.43c-1.56,5.28-3.71,10.1-6.47,14.44-3.85,6.05-8.46,10.83-13.82,14.32-5.37,3.5-11.2,5.25-17.5,5.25-8.52,0-16.13-2.52-22.83-7.55-6.71-5.03-11.98-11.95-15.83-20.78-3.85-8.82-5.77-18.92-5.77-30.29s1.98-21.76,5.95-30.73c3.96-8.97,9.24-16,15.83-21.1,6.59-5.1,13.91-7.65,21.96-7.65M64.11,154.89c7.11,0,13.56-2.3,19.33-6.89,5.77-4.59,10.32-10.97,13.65-19.14,3.32-8.16,4.99-17.57,4.99-28.21s-1.66-19.83-4.99-27.99c-3.32-8.16-7.87-14.58-13.65-19.25-5.77-4.66-12.33-7-19.68-7-7.82,0-14.76,2.33-20.82,7-6.07,4.67-10.79,11.12-14.17,19.35-3.38,8.24-5.07,17.68-5.07,28.32s1.72,19.57,5.16,27.67c3.44,8.09,8.19,14.47,14.26,19.14,6.06,4.67,13.06,7,21,7M63.58,38.6c-8.69,0-16.7,2.79-23.79,8.28-6.96,5.39-12.59,12.88-16.74,22.26-4.12,9.31-6.21,20.06-6.21,31.95s2.03,22.33,6.02,31.49c4.04,9.26,9.69,16.66,16.78,21.98,7.21,5.4,15.49,8.15,24.63,8.15,6.86,0,13.3-1.93,19.13-5.74,5.7-3.72,10.65-8.84,14.72-15.23,1.71-2.69,3.22-5.59,4.5-8.67,1.16-.22,2.12-1.12,2.37-2.32l.5-2.34c.36-1.7.73-3.41,1.08-5.12,2.11-10.35,2.03-20.01,1.62-28.92-.42-9.15-1.45-18.4-3.06-27.51-.25-1.44-1.51-2.48-2.95-2.48-.08,0-.17,0-.25.01-.29.02-.56.09-.82.19-1.58-3.2-3.46-6.2-5.61-8.96-2.72-3.48-5.8-6.5-9.15-8.98-3.37-2.49-7.01-4.47-10.81-5.87-3.88-1.43-7.9-2.15-11.97-2.15h0v-.02ZM64.11,151.89c-7.32,0-13.59-2.09-19.17-6.38-5.63-4.33-10.11-10.36-13.33-17.93-3.27-7.68-4.92-16.59-4.92-26.49s1.63-19.35,4.85-27.18c3.16-7.7,7.61-13.8,13.23-18.12,5.58-4.29,11.79-6.38,18.99-6.38,6.7,0,12.52,2.07,17.8,6.33,5.35,4.32,9.64,10.39,12.75,18.04,3.16,7.77,4.77,16.8,4.77,26.86s-1.6,19.32-4.77,27.08c-3.11,7.64-7.4,13.67-12.74,17.92-5.28,4.2-10.99,6.24-17.46,6.24h0Z"/>
      </g>
    </g>
  </g>
</svg>