<?xml version="1.0" encoding="UTF-8"?>
<svg id="Layer_2" data-name="Layer 2" xmlns="http://www.w3.org/2000/svg" viewBox="0 0 128.72 237.89">
  <defs>
    <style>
      .cls-1, .cls-2 {
        fill: #231f20;
      }

      .cls-2 {
        font-family: LexendDeca-Regular, 'Lexend Deca';
        font-size: 42px;
      }
    </style>
  </defs>
  <g id="Layer_1-2" data-name="Layer 1">
    <path class="cls-1" d="M11.39,157.26h6.82s-9.08,15.77-9.08,15.77l-9.13-15.76h6.83s-.13-110.6-.13-110.6h4.57s.13,110.59.13,110.59ZM128.72,136.96l-4.14,17.73-13.29-12.45,6.44-1.95c-11.83-29.52-33.77-34.84-50.41-34.03l-.24-4.56c14.9-.77,41.53,3.2,55.02,37.27l6.61-2Z"/>
    <text class="cls-2" transform="translate(0 35.7)"><tspan x="0" y="0">1</tspan></text>
    <text class="cls-2" transform="translate(40.41 114.38)"><tspan x="0" y="0">2</tspan></text>
    <g id="Layer_1-2" data-name="Layer 1-2">
      <path class="cls-1" d="M67.51,118.46c-8.96,0-17.34,3.1-24.51,8.46-.43.53-.96.94-1.56,1.23-3.85,3.14-7.33,6.93-10.31,11.27-1.54,3.22-3.33,6.2-5.98,8.41.23,6.54.8,13.04,2.01,19.42.34.6.59,1.28.72,2.06,1.25-.48,2.6-.53,3.83-.18,3.15-22.31,18-39.25,35.8-39.25,20.09,0,36.43,21.57,36.43,48.08v9.48c-.03,14.07-.07,39.34-.07,44.31,0,3.15,2.56,5.71,5.71,5.71s5.71-2.56,5.71-5.71c0-4.96.04-30.22.05-44.29v-9.5c.01-32.8-21.44-59.49-47.83-59.49h0Z"/>
      <g>
        <path class="cls-1" d="M27.1,236.64c-1.66,0-3-1.35-3-3V38.14c0-2.1,1.71-3.8,3.8-3.8h.84c2.1,0,3.8,1.71,3.8,3.8v82.18c.05.12.09.25.1.38l.13,1.36v.22c-.18,2.17-.17,4.08.03,5.85.01.1.01.19,0,.29-.08.68-.02,1.37.18,2,.07.23.07.48,0,.71-.3,1.02-.45,1.95-.45,2.74v98.97c0,2.1-1.71,3.8-3.8,3.8h-1.63Z"/>
        <path class="cls-1" d="M28.73,35.59c1.41,0,2.55,1.14,2.55,2.55v82.89c.04-.07.07-.14.11-.2.04.45.09.9.13,1.35-.17,2.06-.19,4.11.04,6.09-.1.84-.02,1.71.22,2.51-.32,1.11-.49,2.14-.49,3.08v98.97c0,1.41-1.14,2.55-2.55,2.55h-1.63c-.97,0-1.76-.79-1.76-1.76V38.14c0-1.41,1.14-2.55,2.55-2.55h.84M28.73,33.09h-.84c-2.78,0-5.05,2.27-5.05,5.05v195.49c0,2.35,1.91,4.26,4.26,4.26h1.63c2.79,0,5.05-2.27,5.05-5.05v-98.97c0-.68.13-1.48.4-2.39.13-.47.13-.96-.01-1.42-.14-.47-.19-.99-.13-1.49.02-.19.02-.38,0-.57-.19-1.68-.2-3.51-.03-5.6.01-.14.01-.29,0-.43-.04-.46-.09-.91-.13-1.37-.02-.16-.05-.32-.09-.48V38.14c0-2.79-2.27-5.05-5.05-5.05h0Z"/>
      </g>
    </g>
  </g>
</svg>