<?xml version="1.0" encoding="UTF-8"?>
<svg id="Layer_2" data-name="Layer 2" xmlns="http://www.w3.org/2000/svg" viewBox="0 0 107.25 148.67">
  <defs>
    <style>
      .cls-1, .cls-2 {
        fill: #231f20;
      }

      .cls-2 {
        font-family: LexendDeca-Regular, 'Lexend Deca';
        font-size: 42px;
      }
    </style>
  </defs>
  <g id="Layer_1-2" data-name="Layer 1">
    <path class="cls-1" d="M24.17,27.63l-17.06,6.37,3-17.96,5.34,4.4c10.55-9.02,25.4-13.3,41.27-11.64,13.16,1.36,25.02,6.67,29.53,13.23l-3.76,2.58c-3.73-5.43-14.52-10.07-26.24-11.28-14.3-1.46-27.66,2.21-37.22,10.05l5.14,4.24Z"/>
    <text class="cls-2" transform="translate(86.25 35.7)"><tspan x="0" y="0">1</tspan></text>
    <g id="Layer_1-2" data-name="Layer 1-2">
      <g>
        <path class="cls-1" d="M52.46,147.42c-10.03,0-19.02-2.66-26.71-7.89-7.67-5.22-13.75-12.55-18.05-21.78-4.28-9.18-6.46-19.77-6.46-31.45s2.17-21.94,6.46-30.91c4.3-9.01,10.38-16.15,18.05-21.23,7.69-5.08,16.68-7.66,26.69-7.66s19,2.58,26.69,7.66c7.67,5.08,13.72,12.22,17.96,21.23,4.22,8.98,6.36,19.38,6.36,30.91s-2.14,22.25-6.36,31.44c-4.24,9.23-10.28,16.56-17.96,21.79-7.69,5.24-16.68,7.89-26.71,7.89h.04ZM52.46,33.81c-8.53,0-16.22,2.29-22.88,6.8-6.69,4.54-12.03,10.79-15.89,18.6-3.87,7.83-5.84,16.94-5.84,27.08s1.97,19.85,5.84,27.97c3.86,8.09,9.21,14.49,15.88,19.02,6.65,4.51,14.35,6.8,22.88,6.8s16.19-2.29,22.78-6.8c6.62-4.53,11.93-10.93,15.8-19.03,3.88-8.13,5.84-17.54,5.84-27.97s-1.96-19.24-5.84-27.08c-3.86-7.81-9.18-14.07-15.8-18.6-6.59-4.51-14.26-6.8-22.78-6.8h.01Z"/>
        <path class="cls-1" d="M52.46,27.74c9.82,0,18.48,2.49,26,7.46s13.36,11.88,17.52,20.72c4.16,8.85,6.24,18.97,6.24,30.37s-2.08,21.86-6.24,30.92c-4.17,9.07-10.01,16.16-17.52,21.27-7.52,5.12-16.19,7.68-26,7.68s-18.49-2.56-26-7.68c-7.52-5.12-13.39-12.21-17.62-21.27-4.23-9.06-6.34-19.37-6.34-30.92s2.11-21.53,6.34-30.37c4.22-8.84,10.1-15.75,17.62-20.72,7.52-4.97,16.19-7.46,26-7.46M52.46,141.34c8.82,0,16.65-2.34,23.49-7.02,6.83-4.68,12.24-11.18,16.22-19.52,3.98-8.33,5.97-17.84,5.97-28.51s-1.99-19.59-5.97-27.63c-3.98-8.04-9.38-14.4-16.22-19.08-6.84-4.68-14.67-7.02-23.49-7.02s-16.68,2.34-23.58,7.02-12.34,11.04-16.31,19.08c-3.98,8.04-5.97,17.25-5.97,27.63s1.99,20.18,5.97,28.51,9.41,14.84,16.31,19.52c6.9,4.68,14.76,7.02,23.58,7.02M52.46,25.24c-10.27,0-19.48,2.65-27.38,7.87-7.87,5.2-14.09,12.51-18.49,21.73C2.21,63.99,0,74.57,0,86.3s2.21,22.63,6.57,31.98c4.4,9.44,10.61,16.93,18.48,22.28,7.9,5.38,17.12,8.11,27.41,8.11s19.51-2.73,27.41-8.11c7.86-5.35,14.05-12.85,18.39-22.3,4.3-9.35,6.47-20.11,6.47-31.97s-2.18-22.29-6.48-31.44c-4.34-9.23-10.54-16.54-18.41-21.75-7.9-5.21-17.12-7.86-27.38-7.86h0ZM52.46,138.84c-8.28,0-15.74-2.22-22.18-6.59-6.49-4.4-11.69-10.64-15.46-18.53-3.8-7.95-5.72-17.18-5.72-27.43s1.92-18.87,5.71-26.52c3.76-7.61,8.97-13.71,15.47-18.12,6.44-4.37,13.91-6.59,22.18-6.59s15.69,2.21,22.08,6.58c6.44,4.41,11.62,10.51,15.39,18.13,3.79,7.66,5.71,16.58,5.71,26.52s-1.93,19.48-5.72,27.43c-3.77,7.89-8.94,14.13-15.37,18.53-6.38,4.37-13.8,6.58-22.08,6.58h0Z"/>
      </g>
    </g>
  </g>
</svg>