<?xml version="1.0" encoding="UTF-8"?>
<svg id="Layer_2" data-name="Layer 2" xmlns="http://www.w3.org/2000/svg" viewBox="0 0 100.43 161.33">
  <defs>
    <style>
      .cls-1, .cls-2 {
        fill: #231f20;
      }

      .cls-2 {
        font-family: LexendDeca-Regular, 'Lexend Deca';
        font-size: 42px;
      }
    </style>
  </defs>
  <g id="Layer_1-2" data-name="Layer 1">
    <path class="cls-1" d="M11.39,108.95h6.82l-9.1,15.77L0,108.95h6.83v-61.65h4.56v61.65ZM54.69,28.12l-.79-4.49c5.26-.93,23.01-2.99,37.51,7.46l5.14-4.67,3.88,17.79-17.35-5.53,4.89-4.45c-12.91-8.79-28.56-6.93-33.28-6.09Z"/>
    <text class="cls-2" transform="translate(0 41.46)"><tspan x="0" y="0">1</tspan></text>
    <text class="cls-2" transform="translate(30.59 35.7)"><tspan x="0" y="0">2</tspan></text>
    <g id="Layer_1-2" data-name="Layer 1-2">
      <path class="cls-1" d="M95.94,65.13c-6-16.81-17.66-25.99-33.74-26.55-10.55-.37-19.42,3.27-26.3,10.32-.39.65-.91,1.23-1.55,1.68-.5.57-.99,1.16-1.46,1.78-.08.17-.13.34-.22.5-1.01,1.79-2.2,3.44-3.47,5.04-.65,5.34-.16,10.86.87,16.33,1.45-.56,3.13-.47,4.61.13,3.71-12.83,11.37-24.91,27.12-24.36,11.32.4,18.97,6.61,23.39,18.99,1.06,2.97,4.32,4.5,7.29,3.46,2.97-1.06,4.51-4.32,3.46-7.29v-.03Z"/>
      <g>
        <path class="cls-1" d="M27.77,160.08c-1.94,0-3.52-1.49-3.52-3.32V48.53c0-1.96,1.46-3.61,3.48-3.94.24-.04.42-.05.61-.05,1.81,0,3.29,1.43,3.3,3.18l.08,9.37c.12-.04.24-.05.36-.05.11,0,.22.01.33.05.58.16.96.71.91,1.31-.32,3.77-.24,7.56.23,11.27.02.17,0,.33-.04.5-.98,3.47-1.48,6.85-1.48,10.04v76.55c0,1.83-1.58,3.32-3.52,3.32,0,0-.74,0-.74,0Z"/>
        <path class="cls-1" d="M28.34,45.79c1.1,0,2.05.83,2.05,1.94l.12,14.22c.45-1.23.98-2.45,1.58-3.66-.33,3.9-.24,7.82.23,11.53-1.02,3.58-1.53,7.05-1.53,10.38v76.55c0,1.14-1.02,2.07-2.27,2.07h-.74c-1.25,0-2.27-.93-2.27-2.07V48.53c0-1.36,1.04-2.48,2.43-2.7h.05c.12-.02.24-.03.36-.03M28.34,43.29h0c-.25,0-.51.02-.76.06-2.68.43-4.58,2.61-4.58,5.18v108.23c0,2.52,2.14,4.57,4.77,4.57h.74c2.63,0,4.77-2.05,4.77-4.57v-76.56c0-3.07.48-6.34,1.44-9.7.09-.32.12-.66.08-.99-.45-3.59-.53-7.25-.23-10.9.01-.11.02-.21.02-.32,0-1.07-.68-1.99-1.63-2.34l-.07-8.24c-.02-2.44-2.06-4.42-4.55-4.42h0Z"/>
      </g>
    </g>
  </g>
</svg>