<?xml version="1.0" encoding="UTF-8"?>
<svg id="Layer_2" data-name="Layer 2" xmlns="http://www.w3.org/2000/svg" viewBox="0 0 81.57 191.3">
  <defs>
    <style>
      .cls-1, .cls-2 {
        fill: #231f20;
      }

      .cls-2 {
        font-family: LexendDeca-Regular, 'Lexend Deca';
        font-size: 42px;
      }
    </style>
  </defs>
  <g id="Layer_1-2" data-name="Layer 1">
    <path class="cls-1" d="M14.56,77.84l-9.17-15.73,6.82-.03-.08-19.29,4.57-.02.08,19.29,6.83-.03-9.04,15.8Z"/>
    <text class="cls-2" transform="translate(5.38 35.7)"><tspan x="0" y="0">1</tspan></text>
    <text class="cls-2" transform="translate(2.5 134.77)"><tspan x="0" y="0">2</tspan></text>
    <polygon class="cls-1" points="74.09 120.57 53.2 128.37 53.16 122.57 27.54 122.64 27.52 118.76 53.14 118.69 53.1 112.89 74.09 120.57"/>
    <g id="Layer_1-2" data-name="Layer 1-2">
      <g>
        <path class="cls-1" d="M40.12,190.14c-2.21,0-4-1.8-4-4V57.37c-.12-.25-.14-.53-.07-.8.16-.61.16-1.19,0-1.74-.08-.27-.06-.55.06-.81.45-1,.48-2.15.09-3.17-.05-.13-.08-.28-.08-.42V18.38c0-2.01,1.8-3.65,4-3.65h.93c2.21,0,4,1.64,4,3.65v31.88c.06.06.11.12.15.18.22.33.25.74.1,1.1-.39.91-.43,1.98-.11,2.93.05.16.07.32.06.48,0,.08-.02.16-.02.24,0,.43.08.85.23,1.25.14.36.09.76-.13,1.08-.08.11-.17.21-.28.29v128.32c0,2.21-1.8,4-4,4h-.93Z"/>
        <path class="cls-1" d="M41.05,15.9c1.57,0,2.83,1.11,2.83,2.48v32.71h.34c-.51,1.19-.55,2.55-.14,3.77,0,.11-.02.23-.02.34,0,.6.11,1.16.31,1.67h-.49v129.27c0,1.57-1.27,2.83-2.83,2.83h-.93c-1.57,0-2.83-1.27-2.83-2.83V56.87h-.11c.21-.78.22-1.59,0-2.37.58-1.28.62-2.77.12-4.07V18.38c0-1.37,1.27-2.48,2.83-2.48h.93M41.05,13.56h-.93c-2.85,0-5.17,2.16-5.17,4.82v32.05c0,.29.05.57.16.84.28.73.26,1.55-.07,2.26-.23.51-.27,1.08-.11,1.62.1.34.1.72,0,1.11-.12.44-.1.89.03,1.31v128.56c0,2.85,2.32,5.17,5.17,5.17h.93c2.85,0,5.17-2.32,5.17-5.17V58.3s.05-.07.08-.11c.44-.64.53-1.45.25-2.16-.1-.26-.15-.53-.15-.83,0-.03,0-.07,0-.12.03-.32,0-.67-.11-.98-.22-.65-.2-1.39.05-2.03.14-.3.22-.64.22-.99,0-.45-.13-.87-.35-1.23v-31.47c0-2.66-2.32-4.82-5.17-4.82h0Z"/>
      </g>
      <g>
        <path class="cls-1" d="M37.25,95.31c-.28,0-.55-.09-.77-.27-.25-.2-.41-.47-.46-.78H4.8c-1.96,0-3.55-1.83-3.55-4.08v-.93c0-2.25,1.59-4.08,3.55-4.08h30.33c.3,0,.58.11.81.3.53.45,1.16.68,1.86.68.64,0,1.33-.19,2-.55.75-.4,1.5-.77,2.26-1.13.17-.08.35-.12.54-.12.23,0,.46.06.67.19.24.15.41.37.51.63h32.98c1.96,0,3.55,1.83,3.55,4.08v.93c0,2.25-1.59,4.08-3.55,4.08h-33.04c-.07.14-.17.26-.29.37-.23.2-.53.32-.83.32h-.15c-.48-.06-.97-.09-1.47-.09-1.1,0-2.26.14-3.44.43-.1.02-.19.03-.29.03h0Z"/>
        <path class="cls-1" d="M42.6,85.59v.82h34.15c1.27,0,2.3,1.27,2.3,2.83v.93c0,1.57-1.03,2.83-2.3,2.83h-34.15v.68c-.54-.06-1.07-.09-1.62-.09-1.24,0-2.49.16-3.73.46v-1.05H4.8c-1.27,0-2.3-1.27-2.3-2.83v-.93c0-1.57,1.03-2.83,2.3-2.83h30.33c.79.67,1.71.98,2.67.98.86,0,1.75-.25,2.59-.7.73-.39,1.47-.75,2.21-1.1M42.6,83.09c-.37,0-.73.08-1.07.24-.68.32-1.49.72-2.31,1.15-.49.26-.98.4-1.41.4s-.74-.12-1.05-.38c-.45-.38-1.03-.6-1.62-.6H4.8c-2.64,0-4.8,2.39-4.8,5.33v.93c0,2.94,2.15,5.33,4.8,5.33h30.42c.14.19.3.36.49.51.45.35.99.54,1.55.54.19,0,.39-.02.58-.07,1.09-.26,2.15-.39,3.15-.39.45,0,.89.03,1.32.08.1.01.2.02.3.02.61,0,1.2-.22,1.66-.63.02-.02.04-.04.06-.05h32.44c2.64,0,4.8-2.39,4.8-5.33v-.93c0-2.94-2.15-5.33-4.8-5.33h-32.3c-.15-.17-.32-.31-.52-.44-.41-.26-.87-.39-1.34-.39h-.01Z"/>
      </g>
    </g>
  </g>
</svg>