<?xml version="1.0" encoding="UTF-8"?>
<svg id="Layer_2" data-name="Layer 2" xmlns="http://www.w3.org/2000/svg" viewBox="0 0 137.63 128.23">
  <defs>
    <style>
      .cls-1, .cls-2 {
        fill: #231f20;
      }

      .cls-2 {
        font-family: LexendDeca-Regular, 'Lexend Deca';
        font-size: 42px;
      }
    </style>
  </defs>
  <g id="Layer_1-2" data-name="Layer 1">
    <path class="cls-1" d="M40.81,94.25l6.3-2.64-2.3,18.06-14.5-11.02,6.29-2.64L15.26,45.14l4.21-1.77,21.34,50.88ZM127.09,38.11l-6.32-2.57,14.38-11.17,2.49,18.04-6.32-2.57-17.92,44.04-4.23-1.72,17.92-44.04Z"/>
    <text class="cls-2" transform="translate(0 35.7)"><tspan x="0" y="0">1</tspan></text>
    <text class="cls-2" transform="translate(94.32 117.94)"><tspan x="0" y="0">2</tspan></text>
    <g id="Layer_1-2" data-name="Layer 1-2">
      <g>
        <path class="cls-1" d="M72.08,126.54c-1.33,0-2.52-.8-3.02-2.04L26.01,17.36c-.4-1-.28-2.14.32-3.03.6-.9,1.61-1.43,2.69-1.43h.98c1.34,0,2.52.8,3.02,2.05l39.3,98.45L111.62,14.95c.5-1.24,1.68-2.05,3.02-2.05h.98c1.08,0,2.09.53,2.69,1.43s.73,2.03.32,3.03l-43.06,107.14c-.5,1.24-1.68,2.04-3.02,2.04,0,0-.47,0-.47,0Z"/>
        <path class="cls-1" d="M115.62,14.15c1.42,0,2.38,1.43,1.86,2.75l-43.06,107.14c-.3.76-1.04,1.25-1.86,1.25h-.47c-.82,0-1.55-.5-1.86-1.25L27.16,16.9c-.53-1.31.44-2.75,1.86-2.75h.98c.82,0,1.55.5,1.86,1.26l40.46,101.36-1.38,3.45h2.75l-1.38-3.45L112.78,15.41c.3-.76,1.04-1.26,1.86-1.26h.98M115.62,11.65h-.98c-1.85,0-3.49,1.11-4.18,2.83l-38.14,95.54L34.18,14.48c-.69-1.72-2.33-2.83-4.18-2.83h-.98c-1.5,0-2.89.74-3.73,1.98-.84,1.24-1,2.81-.44,4.2l43.06,107.14c.69,1.71,2.33,2.82,4.18,2.82h.47c1.85,0,3.49-1.11,4.18-2.82L119.79,17.83c.56-1.39.39-2.96-.45-4.2-.84-1.24-2.23-1.98-3.73-1.98h.01Z"/>
      </g>
    </g>
  </g>
</svg>