<?xml version="1.0" encoding="UTF-8"?>
<svg id="Layer_2" data-name="Layer 2" xmlns="http://www.w3.org/2000/svg" viewBox="0 0 149.55 227.4">
  <defs>
    <style>
      .cls-1, .cls-2 {
        fill: #231f20;
      }

      .cls-2 {
        font-family: LexendDeca-Regular, 'Lexend Deca';
        font-size: 42px;
      }
    </style>
  </defs>
  <g id="Layer_1-2" data-name="Layer 1">
    <path class="cls-1" d="M37.96,103.33l6.17-2.91-26.58-56.24,4.13-1.95,26.59,56.24,6.17-2.92-1.49,18.15-14.97-10.37ZM126.53,44.03l-44.12,113.53,6.36,2.47-14.2,11.4-2.78-18,6.36,2.47,44.12-113.53,4.25,1.65Z"/>
    <text class="cls-2" transform="translate(0 36.06)"><tspan x="0" y="0">1</tspan></text>
    <text class="cls-2" transform="translate(126.53 40.4)"><tspan x="0" y="0">2</tspan></text>
    <g id="Layer_1-2" data-name="Layer 1-2">
      <g>
        <path class="cls-1" d="M33.43,226.14c-1.36,0-2.62-.67-3.38-1.79s-.92-2.54-.42-3.8l26.06-65.57c.02-.06.05-.12.09-.18,1.3-2.18,2.2-4.24,2.74-6.28.02-.08.05-.15.08-.22.35-.72.62-1.36.85-1.99.13-.35.21-.7.24-1.08.04-.46.33-.85.73-1.03.17-.42.35-.84.52-1.25.86-2.01,1.71-4.07,2.54-6.12L116.93,3.81c.62-1.56,2.11-2.56,3.79-2.56.3,0,.61.03.9.1.43.1.87.2,1.3.3,1.16.28,2.14,1.04,2.69,2.1s.61,2.3.16,3.41l-61.75,153.1-25.39,63.32c-.62,1.56-2.11,2.57-3.79,2.57h-1.41Z"/>
        <path class="cls-1" d="M120.72,2.5c.21,0,.42.02.63.07.43.1.86.2,1.28.3,1.69.4,2.63,2.21,1.98,3.82l-61.75,153.1-25.39,63.32c-.43,1.08-1.47,1.78-2.63,1.78h-1.41c-2,0-3.37-2.02-2.63-3.88l26.06-65.57c1.25-2.09,2.26-4.27,2.88-6.6.32-.67.63-1.36.9-2.1.18-.48.27-.95.31-1.4.07.15.13.29.19.44.32-.78.63-1.57.96-2.34.9-2.1,1.75-4.15,2.55-6.15L118.09,4.28c.44-1.09,1.49-1.78,2.63-1.78M120.72,0c-2.19,0-4.13,1.31-4.95,3.35l-53.43,133.01c-.82,2.05-1.67,4.1-2.53,6.1-.13.3-.25.6-.38.9-.55.42-.91,1.05-.97,1.77-.02.26-.08.51-.17.75-.22.59-.47,1.19-.81,1.88-.07.14-.12.29-.16.44-.51,1.93-1.37,3.88-2.61,5.96-.07.11-.13.23-.18.36l-26.06,65.57c-.65,1.64-.45,3.5.54,4.97.99,1.46,2.64,2.34,4.41,2.34h1.41c2.19,0,4.14-1.31,4.95-3.35l25.39-63.32L126.92,7.62c.58-1.44.51-3.06-.21-4.45-.72-1.38-2-2.38-3.51-2.74-.43-.1-.87-.2-1.31-.3C121.5.04,121.11,0,120.71,0h.01Z"/>
      </g>
      <g>
        <path class="cls-1" d="M72.3,116.6c-.49,0-.93-.28-1.14-.73L21.79,7.33c-.51-1.13-.49-2.41.06-3.51.55-1.11,1.56-1.9,2.77-2.16l1.07-.24c.3-.07.6-.1.9-.1,1.6,0,3.05.94,3.71,2.39l44.94,99.21.73,1.46c.14.28.17.6.08.9-.99,3.46-1.81,7.02-2.54,10.34-.12.53-.55.92-1.09.97h-.13.01Z"/>
        <path class="cls-1" d="M26.6,2.56c1.09,0,2.11.63,2.57,1.66l44.94,99.21c.27.53.51,1.03.75,1.5-.97,3.4-1.78,6.88-2.56,10.42L22.93,6.81c-.75-1.64.21-3.55,1.97-3.94.36-.08.72-.16,1.07-.24.21-.05.42-.07.63-.07M26.6.06c-.4,0-.79.04-1.18.13l-1.06.24c-1.58.35-2.9,1.38-3.63,2.83-.72,1.45-.75,3.12-.08,4.59l49.37,108.54c.41.9,1.3,1.46,2.27,1.46.09,0,.17,0,.26-.01,1.07-.11,1.95-.9,2.18-1.95.73-3.31,1.54-6.85,2.52-10.27.17-.6.11-1.24-.16-1.8l-.73-1.46L31.45,3.19C30.59,1.29,28.68.06,26.6.06h0Z"/>
      </g>
    </g>
  </g>
</svg>