<?xml version="1.0" encoding="UTF-8"?>
<svg id="Layer_2" data-name="Layer 2" xmlns="http://www.w3.org/2000/svg" viewBox="0 0 106.37 158.37">
  <defs>
    <style>
      .cls-1, .cls-2 {
        fill: #231f20;
      }

      .cls-3 {
        fill: #262324;
        stroke: #231f20;
        stroke-miterlimit: 10;
        stroke-width: 2.25px;
      }

      .cls-2 {
        font-family: LexendDeca-Regular, 'Lexend Deca';
        font-size: 42px;
      }
    </style>
  </defs>
  <g id="Layer_1-2" data-name="Layer 1">
    <path class="cls-1" d="M25.02,22.69l46.39-.11v-6.82s15.77,9.07,15.77,9.07l-15.75,9.14v-6.83s-46.41.11-46.41.11v-4.56ZM60.28,129.24l12.64-.06-.04-6.82,15.82,9.02-15.72,9.19-.04-6.83-12.64.06-.02-4.57ZM85.39,78.52l-11.21,18.99,5.88,3.47-15.86,8.95.17-18.21,5.87,3.47,11.21-19,3.93,2.33Z"/>
    <text class="cls-2" transform="translate(3 35.7)"><tspan x="0" y="0">1</tspan></text>
    <text class="cls-2" transform="translate(83.35 71.57)"><tspan x="0" y="0">2</tspan></text>
    <path class="cls-3" d="M50.06,125.37c-.05.06-.03.19.08.28.32.25.9.45,1.33.8,3.31,2.73,3.48,8.09.81,11.32-3.26,3.96-9.63,3.53-12.95-.13-.46-.51-2.24-2.55-.91-2.94.97-.29,1.59,1.28,2.19,1.93,1.18,1.28,2.91,2.2,4.66,2.35,8.86.79,9.82-11.92,1.59-12.66-.54-.05-2.49.18-2.75-.23-1.18-1.87,2.78-1.32,3.55-1.43,2.13-.29,4.07-2.35,4.28-4.48.65-6.44-6.89-9.01-10.78-4.18-.38.47-1.3,2.38-1.58,2.47-.52.16-1.11-.15-1.11-.72,0-.19.79-1.73.96-2,2.42-3.86,8.21-5.09,11.71-1.91,2.92,2.65,3.26,7.94.27,10.65-.27.24-1.3.82-1.35.88Z"/>
    <g id="Layer_1-2" data-name="Layer 1-2">
      <g>
        <path class="cls-1" d="M4.56,157.12c-1.83,0-3.31-1.49-3.31-3.31v-2.99c0-.65.19-1.28.55-1.82L68.74,47.34H4.56c-1.83,0-3.31-1.49-3.31-3.31v-.68c0-1.83,1.49-3.31,3.31-3.31h69.64c1.83,0,3.31,1.49,3.31,3.31v3.43c0,.65-.19,1.28-.55,1.83L10.05,149.82h68.74c1.83,0,3.31,1.49,3.31,3.31v.68c0,1.83-1.49,3.31-3.31,3.31,0,0-74.23,0-74.23,0Z"/>
        <path class="cls-1" d="M74.21,41.29c1.14,0,2.06.92,2.06,2.06v3.43c0,.4-.12.8-.34,1.14L7.72,151.07h-2.6l.87,2.62,1.73-2.62h71.07c1.14,0,2.06.92,2.06,2.06v.68c0,1.14-.92,2.06-2.06,2.06H4.56c-1.14,0-2.06-.92-2.06-2.06v-2.99c0-.4.12-.8.34-1.13L71.06,46.09h2.15l.44-3.93-2.59,3.93H4.56c-1.14,0-2.06-.92-2.06-2.06v-.68c0-1.14.92-2.06,2.06-2.06h69.64M74.21,38.79H4.56c-2.51,0-4.56,2.05-4.56,4.56v.68c0,2.52,2.05,4.56,4.56,4.56h61.86L.75,148.31c-.49.75-.75,1.61-.75,2.51v2.99c0,2.52,2.05,4.56,4.56,4.56h74.23c2.52,0,4.56-2.05,4.56-4.56v-.68c0-2.52-2.05-4.56-4.56-4.56H12.37L78.01,49.3c.49-.75.76-1.62.76-2.52v-3.43c0-2.52-2.05-4.56-4.56-4.56h0Z"/>
      </g>
    </g>
  </g>
</svg>